<svg width="86" height="72" viewBox="0 0 86 72" fill="none" xmlns="http://www.w3.org/2000/svg">
<g clip-path="url(#clip0_1638_12263)">
<path d="M37.2487 9.40815V8.08705H36.2977C36.2618 7.83711 36.1901 7.58717 36.1003 7.35509L36.9257 6.87307L36.2618 5.73049L35.4365 6.19466C35.275 5.99828 35.0955 5.81976 34.8982 5.65908L35.3647 4.83786L34.2163 4.17731L33.7319 4.99853C33.4986 4.90927 33.2474 4.83786 32.9962 4.80215V3.85596H31.6685V4.80215C31.4173 4.83786 31.1661 4.90927 30.9328 4.99853L30.4484 4.17731L29.3 4.83786L29.7665 5.65908C29.5692 5.81976 29.3897 5.99828 29.2282 6.19466L28.4029 5.73049L27.739 6.87307L28.5644 7.35509C28.4746 7.58717 28.4029 7.83711 28.367 8.08705H27.416V9.40815H28.367C28.4029 9.65809 28.4746 9.90803 28.5644 10.1401L27.739 10.6221L28.4029 11.7647L29.2282 11.3005C29.3897 11.4969 29.5692 11.6754 29.7665 11.8361L29.3 12.6573L30.4484 13.3179L30.9328 12.4967C31.1661 12.5859 31.4173 12.6573 31.6685 12.6931V13.6392H32.9962V12.6752C33.2474 12.6395 33.4986 12.5681 33.7319 12.4788L34.2163 13.3L35.3647 12.6395L34.8982 11.8183C35.0955 11.6576 35.275 11.4791 35.4365 11.2827L36.2618 11.7469L36.9257 10.6043L36.1003 10.1223C36.1901 9.89017 36.2618 9.64024 36.2977 9.3903H37.2487V9.40815ZM35.4544 8.7476C35.4544 10.4615 34.0549 11.854 32.3324 11.854C30.6098 11.854 29.2103 10.4615 29.2103 8.7476C29.2103 7.03374 30.6098 5.64123 32.3324 5.64123C34.0549 5.64123 35.4544 7.03374 35.4544 8.7476Z" fill="#BFD4FF"/>
<path d="M32.3495 10.9435C33.5684 10.9435 34.5565 9.9604 34.5565 8.74764C34.5565 7.53489 33.5684 6.55176 32.3495 6.55176C31.1307 6.55176 30.1426 7.53489 30.1426 8.74764C30.1426 9.9604 31.1307 10.9435 32.3495 10.9435Z" fill="#BFD4FF"/>
<path d="M76.0944 51.7904V51.0942H75.592C75.5741 50.9513 75.5382 50.8264 75.4844 50.7014L75.915 50.4515L75.5561 49.8445L75.1255 50.0944C75.0358 49.9873 74.9461 49.898 74.8384 49.8088L75.0896 49.3803L74.4796 49.0233L74.2284 49.4517C74.1028 49.3982 73.9772 49.3625 73.8336 49.3446V48.8447H73.1338V49.3446C72.9903 49.3625 72.8647 49.3982 72.7391 49.4517L72.4879 49.0233L71.8778 49.3803L72.129 49.8088C72.0214 49.898 71.9317 49.9873 71.842 50.0944L71.4113 49.8445L71.0525 50.4515L71.4831 50.7014C71.4293 50.8264 71.3934 50.9513 71.3754 51.0942H70.873V51.7904H71.3754C71.3934 51.9332 71.4293 52.0582 71.4831 52.1832L71.0525 52.4331L71.4113 53.0401L71.842 52.7902C71.9317 52.8973 72.0214 52.9866 72.129 53.0758L71.8778 53.5043L72.4879 53.8613L72.7391 53.4329C72.8647 53.4864 72.9903 53.5221 73.1338 53.54V54.0399H73.8336V53.54C73.9772 53.5221 74.1028 53.4864 74.2284 53.4329L74.4796 53.8613L75.0896 53.5043L74.8384 53.0758C74.9461 52.9866 75.0358 52.8973 75.1255 52.7902L75.5561 53.0401L75.915 52.4331L75.4844 52.1832C75.5382 52.0582 75.5741 51.9332 75.592 51.7904H76.0944ZM75.1434 51.4512C75.1434 52.3617 74.4078 53.0937 73.4927 53.0937C72.5776 53.0937 71.842 52.3617 71.842 51.4512C71.842 50.5407 72.5776 49.8088 73.4927 49.8088C74.4078 49.7909 75.1434 50.5407 75.1434 51.4512Z" fill="#BFD4FF"/>
<path d="M73.4928 52.6295C74.1469 52.6295 74.6771 52.102 74.6771 51.4512C74.6771 50.8005 74.1469 50.2729 73.4928 50.2729C72.8388 50.2729 72.3086 50.8005 72.3086 51.4512C72.3086 52.102 72.8388 52.6295 73.4928 52.6295Z" fill="#BFD4FF"/>
<path d="M43.009 71.9998C66.7622 71.9998 86.018 70.2894 86.018 68.1794C86.018 66.0694 66.7622 64.3589 43.009 64.3589C19.2558 64.3589 0 66.0694 0 68.1794C0 70.2894 19.2558 71.9998 43.009 71.9998Z" fill="#BFD4FF"/>
<path d="M8.487 27.2251H4.89844V67.5008H8.487V27.2251Z" fill="#BFD4FF"/>
<path d="M14.6413 38.8828H11.0527V67.5186H14.6413V38.8828Z" fill="#BFD4FF"/>
<path d="M20.778 45.9702H17.1895V67.5184H20.778V45.9702Z" fill="#BFD4FF"/>
<path d="M26.9323 29.0283H23.3438V67.5009H26.9323V29.0283Z" fill="#BFD4FF"/>
<path d="M33.0866 33.7949H29.498V67.5187H33.0866V33.7949Z" fill="#BFD4FF"/>
<path d="M45.3776 40.4897H41.7891V67.5009H45.3776V40.4897Z" fill="#BFD4FF"/>
<path d="M51.5319 42.6143H47.9434V67.5188H51.5319V42.6143Z" fill="#BFD4FF"/>
<path d="M57.6686 48.4341H54.0801V67.5186H57.6686V48.4341Z" fill="#BFD4FF"/>
<path d="M63.8229 55.6108H60.2344V67.5186H63.8229V55.6108Z" fill="#BFD4FF"/>
<path d="M69.9597 57.9673H66.3711V67.5185H69.9597V57.9673Z" fill="#BFD4FF"/>
<path d="M76.114 60.6636H72.5254V67.519H76.114V60.6636Z" fill="#BFD4FF"/>
<path d="M82.2683 62.02H78.6797V67.5008H82.2683V62.02Z" fill="#BFD4FF"/>
<path d="M63.0317 60.2349L57.7565 51.255L53.1811 50.648L51.5303 35.6696L27.8637 24.7973L24.634 9.0155L17.8157 2.90987L11.8228 5.85557L8.28809 0.267667C8.23426 0.178404 8.25221 0.0712876 8.34192 0.0177295C8.43163 -0.017976 8.53929 -0.000123254 8.57518 0.0891403L11.9484 5.4271L17.8696 2.49926L24.939 8.81912L24.957 8.87268L28.1688 24.5474L51.8533 35.4375L53.504 50.3445L57.9897 50.9337L58.0256 51.0051L63.1752 59.7708L72.5952 54.772L81.6025 57.1464C81.6922 57.1643 81.7461 57.2714 81.7281 57.3606C81.7102 57.4499 81.6025 57.5035 81.5128 57.4856L72.6311 55.1291L63.0317 60.2349Z" fill="#B6BA65"/>
<path d="M77.6401 32.6882C77.1916 32.6882 76.8507 32.5454 76.5995 32.2776C76.3483 32.0098 76.2227 31.6349 76.2227 31.1886V29.8853C76.2227 29.4033 76.3303 29.0284 76.5636 28.7785C76.7968 28.5285 77.1557 28.3857 77.6222 28.3857C78.0887 28.3857 78.4476 28.5107 78.6808 28.7785C78.9141 29.0284 79.0397 29.4033 79.0397 29.8853V31.1886C79.0397 31.6349 78.9141 32.0098 78.6629 32.2776C78.4296 32.5454 78.0887 32.6882 77.6401 32.6882ZM77.6401 31.7599C77.7299 31.7599 77.8196 31.7242 77.8734 31.6528C77.9452 31.5813 77.9631 31.4921 77.9631 31.4028V29.6711C77.9631 29.5283 77.9452 29.4212 77.9093 29.3319C77.8734 29.2426 77.7837 29.2069 77.6401 29.2069C77.4966 29.2069 77.4069 29.2426 77.371 29.3319C77.3351 29.4212 77.2992 29.5283 77.2992 29.6711V31.4028C77.2992 31.5099 77.3351 31.5813 77.3889 31.6528C77.4607 31.7242 77.5504 31.7599 77.6401 31.7599ZM78.4476 34.5806L80.3854 28.2607H81.5517L79.6139 34.5806H78.4476ZM82.3053 34.6342C81.8567 34.6342 81.5158 34.4913 81.2646 34.2235C81.0134 33.9558 80.8878 33.5809 80.8878 33.1345V31.8313C80.8878 31.3493 80.9955 30.9744 81.2287 30.7244C81.462 30.4745 81.8208 30.3317 82.2873 30.3317C82.7539 30.3317 83.1127 30.4566 83.346 30.7244C83.5792 30.9744 83.7048 31.3493 83.7048 31.8313V33.1345C83.7048 33.5809 83.5792 33.9558 83.328 34.2235C83.0948 34.5092 82.7359 34.6342 82.3053 34.6342ZM82.3053 33.7058C82.395 33.7058 82.4847 33.6701 82.5385 33.5987C82.6103 33.5273 82.6283 33.438 82.6283 33.3488V31.6171C82.6283 31.4742 82.6103 31.3671 82.5744 31.2779C82.5385 31.1886 82.4488 31.1529 82.3053 31.1529C82.1617 31.1529 82.072 31.1886 82.0361 31.2779C82.0003 31.3671 81.9644 31.4742 81.9644 31.6171V33.3488C81.9644 33.4559 82.0002 33.5273 82.0541 33.5987C82.1258 33.6701 82.1976 33.7058 82.3053 33.7058Z" fill="#005AE2"/>
<path d="M5.25733 10.2654C4.80876 10.2654 4.46784 10.1225 4.21664 9.85475C3.96544 9.58696 3.83984 9.21205 3.83984 8.76574V7.46249C3.83984 6.98046 3.9475 6.60556 4.18076 6.35562C4.41401 6.10568 4.77287 5.96286 5.23938 5.96286C5.7059 5.96286 6.06475 6.08783 6.29801 6.35562C6.53127 6.60556 6.65687 6.98046 6.65687 7.46249V8.76574C6.65687 9.21205 6.53127 9.58696 6.28007 9.85475C6.02887 10.1225 5.7059 10.2654 5.25733 10.2654ZM5.25733 9.33702C5.34704 9.33702 5.43676 9.30132 5.49058 9.22991C5.56236 9.1585 5.5803 9.06923 5.5803 8.97997V7.24825C5.5803 7.10543 5.56236 6.99832 5.52647 6.90905C5.49058 6.81979 5.40087 6.78408 5.25733 6.78408C5.11378 6.78408 5.02407 6.81979 4.98818 6.90905C4.9523 6.99832 4.91641 7.10543 4.91641 7.24825V8.97997C4.91641 9.08709 4.9523 9.1585 5.00613 9.22991C5.0779 9.30132 5.16761 9.33702 5.25733 9.33702ZM6.06475 12.1578L8.00258 5.83789H9.16886L7.23104 12.1578H6.06475ZM9.90452 12.2292C9.45595 12.2292 9.11504 12.0863 8.86384 11.8186C8.61264 11.5508 8.48704 11.1759 8.48704 10.7295V9.42629C8.48704 8.94426 8.59469 8.56936 8.82795 8.31942C9.06121 8.06948 9.42006 7.92666 9.88658 7.92666C10.3531 7.92666 10.7119 8.05163 10.9452 8.31942C11.1785 8.56936 11.3041 8.94426 11.3041 9.42629V10.7295C11.3041 11.1759 11.1785 11.5508 10.9273 11.8186C10.7119 12.0863 10.3531 12.2292 9.90452 12.2292ZM9.90452 11.283C9.99424 11.283 10.0839 11.2473 10.1378 11.1759C10.2095 11.1044 10.2275 11.0152 10.2275 10.9259V9.1942C10.2275 9.05138 10.2095 8.94426 10.1737 8.855C10.1378 8.78359 10.0481 8.74788 9.90452 8.74788C9.76098 8.74788 9.67126 8.78359 9.63538 8.87285C9.59949 8.96212 9.56361 9.06923 9.56361 9.21205V10.9438C9.56361 11.0509 9.59949 11.1223 9.65332 11.1937C9.74304 11.2473 9.81481 11.283 9.90452 11.283Z" fill="#005AE2"/>
<path d="M7.66117 65.7157C7.62528 65.7157 7.5894 65.6978 7.55351 65.6799C7.48174 65.6264 7.4638 65.5193 7.51763 65.43C7.69705 65.1801 7.87648 64.948 8.07385 64.7338C8.14563 64.6623 8.25328 64.6623 8.32505 64.7159C8.39683 64.7873 8.39683 64.8944 8.343 64.9658C8.14563 65.1801 7.9662 65.3943 7.80471 65.6264C7.76883 65.6978 7.715 65.7157 7.66117 65.7157ZM8.82745 64.4124C8.77362 64.4124 8.73774 64.3946 8.70185 64.3588C8.63008 64.2874 8.64802 64.1803 8.7198 64.1089C8.93511 63.9125 9.16837 63.734 9.41957 63.5555C9.49134 63.5019 9.599 63.5198 9.67077 63.5912C9.7246 63.6626 9.70665 63.7697 9.63488 63.8411C9.40162 64.0018 9.16837 64.1982 8.971 64.3767C8.89922 64.4124 8.86334 64.4124 8.82745 64.4124ZM10.227 63.3948C10.1732 63.3948 10.1014 63.3591 10.0835 63.3055C10.0296 63.2163 10.0655 63.1092 10.1373 63.0735C10.3885 62.9306 10.6576 62.7878 10.9268 62.6628C11.0165 62.6271 11.1241 62.6628 11.16 62.7521C11.1959 62.8414 11.16 62.9485 11.0703 62.9842C10.8012 63.1092 10.55 63.252 10.3167 63.3948C10.2988 63.3948 10.2629 63.3948 10.227 63.3948ZM11.806 62.645C11.7342 62.645 11.6624 62.6093 11.6445 62.5379C11.6086 62.4486 11.6624 62.3415 11.7521 62.3058C12.0213 62.1987 12.3084 62.1094 12.5954 62.0023C12.6852 61.9666 12.7928 62.0201 12.8108 62.1094C12.8466 62.1987 12.7928 62.3058 12.7031 62.3236C12.416 62.4129 12.1469 62.5022 11.8957 62.6093C11.8598 62.6271 11.8239 62.645 11.806 62.645ZM13.4746 62.1094C13.4029 62.1094 13.3311 62.0559 13.3132 61.9844C13.2952 61.8952 13.349 61.7881 13.4388 61.7702C13.7258 61.6988 14.0129 61.6274 14.3 61.5738C14.3897 61.556 14.4794 61.6095 14.5153 61.7166C14.5333 61.8059 14.4794 61.8952 14.3718 61.9309C14.0847 61.9844 13.7976 62.0558 13.5285 62.1273C13.5105 62.1094 13.4926 62.1094 13.4746 62.1094ZM15.1972 61.7523C15.1074 61.7523 15.0357 61.6988 15.0177 61.6095C14.9998 61.5203 15.0716 61.431 15.1613 61.4132C15.4484 61.3774 15.7354 61.3239 16.0405 61.2882C16.1302 61.2703 16.2199 61.3417 16.2378 61.4489C16.2558 61.5381 16.184 61.6274 16.0764 61.6452C15.7893 61.6809 15.5022 61.7166 15.2151 61.7702C15.2151 61.7524 15.2151 61.7523 15.1972 61.7523ZM16.9376 61.556C16.8479 61.556 16.7761 61.4846 16.7582 61.3953C16.7582 61.306 16.83 61.2168 16.9197 61.1989C17.2068 61.1811 17.5118 61.1632 17.7989 61.1454C17.8886 61.1454 17.9783 61.2168 17.9783 61.306C17.9783 61.3953 17.9065 61.4846 17.8168 61.4846C17.5297 61.5203 17.2426 61.5381 16.9376 61.556C16.9556 61.556 16.9556 61.556 16.9376 61.556ZM18.696 61.4667C18.6063 61.4667 18.5166 61.3953 18.5166 61.2882C18.5166 61.1989 18.5884 61.1097 18.696 61.1097C18.9831 61.1097 19.2881 61.0918 19.5752 61.0918C19.6649 61.0918 19.7546 61.1632 19.7546 61.2703C19.7546 61.3596 19.6829 61.4489 19.5752 61.4489C19.2881 61.4489 18.9831 61.4667 18.696 61.4667ZM20.4544 61.431C20.3647 61.431 20.275 61.3596 20.275 61.2525C20.275 61.1632 20.3468 61.074 20.4544 61.074C20.7415 61.074 21.0286 61.0739 21.3336 61.0561C21.4233 61.0561 21.513 61.1275 21.513 61.2346C21.513 61.3239 21.4413 61.4132 21.3336 61.4132C21.0286 61.431 20.7415 61.431 20.4544 61.431ZM22.1949 61.3953C22.1051 61.3953 22.0154 61.3239 22.0154 61.2346C22.0154 61.1454 22.0872 61.0561 22.1769 61.0561C22.464 61.0561 22.7511 61.0382 23.0561 61.0204C23.1458 61.0204 23.2355 61.0918 23.2355 61.1811C23.2355 61.2703 23.1638 61.3596 23.0741 61.3596C22.787 61.3774 22.4999 61.3953 22.1949 61.3953C22.2128 61.3953 22.2128 61.3953 22.1949 61.3953ZM23.9533 61.3239C23.8635 61.3239 23.7918 61.2525 23.7738 61.1632C23.7738 61.074 23.8456 60.9847 23.9353 60.9847C24.2403 60.9668 24.5274 60.9311 24.7966 60.9133C24.8863 60.8954 24.976 60.9668 24.9939 61.074C25.0119 61.1632 24.9401 61.2525 24.8325 61.2703C24.5633 61.2703 24.2762 61.2882 23.9533 61.3239ZM25.6937 61.1275C25.604 61.1275 25.5322 61.0561 25.5143 60.9847C25.4963 60.8954 25.5681 60.8062 25.6578 60.7883C25.9449 60.7526 26.232 60.699 26.5191 60.6455C26.6088 60.6276 26.6985 60.6812 26.7165 60.7883C26.7344 60.8776 26.6806 60.9668 26.5729 60.9847C26.2858 61.0382 25.9987 61.0918 25.6937 61.1275C25.7117 61.1275 25.7117 61.1275 25.6937 61.1275ZM27.4162 60.8062C27.3445 60.8062 27.2727 60.7526 27.2547 60.6812C27.2368 60.5919 27.2906 60.4848 27.3803 60.467C27.6674 60.3955 27.9366 60.3063 28.2057 60.2349C28.2954 60.1992 28.4031 60.2527 28.421 60.342C28.4569 60.4313 28.4031 60.5384 28.3134 60.5562C28.0442 60.6455 27.7571 60.7347 27.4521 60.8062C27.4521 60.7883 27.4342 60.8062 27.4162 60.8062ZM29.0849 60.2527C29.0131 60.2527 28.9414 60.217 28.9234 60.1456C28.8875 60.0563 28.9234 59.9492 29.0131 59.9135C29.2823 59.8064 29.5335 59.6993 29.7847 59.5743L29.8026 59.5565C29.8923 59.5208 30 59.5565 30.0359 59.6279C30.0718 59.7171 30.0359 59.8243 29.9641 59.86L29.9462 59.8778C29.695 60.0028 29.4258 60.1278 29.1567 60.2349C29.1208 60.2527 29.1029 60.2527 29.0849 60.2527ZM30.6459 59.4851C30.5921 59.4851 30.5203 59.4494 30.5024 59.3958C30.4486 59.3065 30.4845 59.1994 30.5562 59.1637C30.7895 59.0209 31.0407 58.8602 31.2739 58.6995C31.3457 58.646 31.4713 58.6638 31.5251 58.7352C31.579 58.8067 31.561 58.9316 31.4893 58.9852C31.2381 59.1637 30.9869 59.3244 30.7357 59.4672C30.7177 59.4672 30.6818 59.4851 30.6459 59.4851ZM32.0814 58.4853C32.0275 58.4853 31.9737 58.4675 31.9378 58.4139C31.884 58.3425 31.884 58.2354 31.9737 58.164C32.189 57.9854 32.4223 57.8069 32.6376 57.6105C32.7094 57.5391 32.817 57.557 32.8888 57.6284C32.9606 57.6998 32.9426 57.8069 32.8708 57.8783C32.6376 58.0747 32.4223 58.2711 32.189 58.4496C32.1711 58.4675 32.1352 58.4853 32.0814 58.4853ZM33.4091 57.3249C33.3553 57.3249 33.3194 57.307 33.2835 57.2713C33.2118 57.1999 33.2118 57.0928 33.2835 57.0214C33.4809 56.825 33.6783 56.6286 33.8936 56.3965C33.9654 56.3251 34.073 56.3251 34.1448 56.3965C34.2166 56.4679 34.2166 56.5751 34.1448 56.6465C33.9295 56.8607 33.7321 57.0749 33.5168 57.2713C33.4809 57.307 33.445 57.3249 33.4091 57.3249ZM34.6113 56.0573C34.5754 56.0573 34.5216 56.0395 34.5036 56.0216C34.4319 55.9502 34.4319 55.8431 34.4857 55.7717C34.6831 55.5575 34.8625 55.3432 35.0599 55.1111C35.1137 55.0397 35.2393 55.0219 35.3111 55.0933C35.3828 55.1469 35.4008 55.2718 35.329 55.3432C35.1316 55.5575 34.9522 55.7895 34.7548 56.0038C34.701 56.0395 34.6472 56.0573 34.6113 56.0573ZM35.7417 54.7184C35.7058 54.7184 35.6699 54.7005 35.634 54.6827C35.5623 54.6291 35.5443 54.5042 35.6161 54.4327C35.7955 54.2007 35.975 53.9864 36.1544 53.7543C36.2082 53.6829 36.3338 53.6651 36.4056 53.7186C36.4774 53.7722 36.4953 53.8793 36.4415 53.9686C36.262 54.2007 36.0826 54.4327 35.8852 54.647C35.8314 54.7005 35.7955 54.7184 35.7417 54.7184ZM36.8183 53.3616C36.7824 53.3616 36.7465 53.3437 36.7106 53.3259C36.6388 53.2723 36.6209 53.1652 36.6747 53.0759C36.8542 52.8438 37.0336 52.6118 37.213 52.3797C37.2668 52.3083 37.3745 52.2904 37.4642 52.344C37.536 52.3975 37.5539 52.5046 37.5001 52.5939C37.3207 52.826 37.1412 53.0581 36.9618 53.2902C36.9259 53.3437 36.8721 53.3616 36.8183 53.3616ZM37.8948 51.9691C37.859 51.9691 37.8231 51.9512 37.7872 51.9334C37.7154 51.8798 37.6975 51.7727 37.7513 51.6834C37.9307 51.4513 38.0922 51.2193 38.2716 50.9872C38.3255 50.9158 38.4331 50.8979 38.5228 50.9515C38.5946 51.005 38.6126 51.1121 38.5587 51.2014C38.3793 51.4335 38.2178 51.6656 38.0384 51.8977C37.9846 51.9512 37.9307 51.9691 37.8948 51.9691ZM38.9355 50.5765C38.8996 50.5765 38.8638 50.5587 38.8279 50.5408C38.7561 50.4873 38.7382 50.3802 38.792 50.2909L39.3123 49.5947C39.3662 49.5232 39.4738 49.5054 39.5635 49.5589C39.6353 49.6125 39.6532 49.7196 39.5994 49.8089L39.0791 50.5051C39.0432 50.5408 38.9894 50.5765 38.9355 50.5765ZM39.9762 49.1662C39.9403 49.1662 39.9044 49.1483 39.8686 49.1305C39.7968 49.0769 39.7788 48.9698 39.8327 48.8805C40.0121 48.6485 40.1915 48.4164 40.353 48.1843C40.4068 48.1129 40.5145 48.095 40.6042 48.1486C40.676 48.2021 40.6939 48.3093 40.6401 48.3985C40.4607 48.6306 40.2812 48.8627 40.1198 49.0948C40.0839 49.1483 40.03 49.1662 39.9762 49.1662ZM41.0348 47.7737C40.999 47.7737 40.9631 47.7558 40.9272 47.738C40.8554 47.6844 40.8375 47.5773 40.8913 47.488C41.0707 47.2559 41.2502 47.0239 41.4296 46.7918C41.4834 46.7204 41.5911 46.7025 41.6808 46.7561C41.7526 46.8096 41.7705 46.9167 41.7167 47.006C41.5372 47.2381 41.3578 47.4702 41.1784 47.7023C41.1425 47.7558 41.0887 47.7737 41.0348 47.7737ZM43.2418 45.0601C43.2059 45.0601 43.1521 45.0422 43.1342 45.0244C43.0624 44.9529 43.0444 44.8458 43.1162 44.7744C43.3136 44.5602 43.493 44.3281 43.6904 44.1139C43.7621 44.0425 43.8698 44.0425 43.9416 44.096C44.0133 44.1674 44.0134 44.2745 43.9595 44.346C43.7621 44.5602 43.5648 44.7744 43.3854 45.0065C43.3315 45.0244 43.2956 45.0601 43.2418 45.0601ZM44.4081 43.7568C44.3722 43.7568 44.3184 43.739 44.2825 43.7033C44.2107 43.6318 44.2107 43.5247 44.2825 43.4533C44.4799 43.2391 44.6952 43.0249 44.8925 42.8285C44.9643 42.7571 45.072 42.7571 45.1437 42.8285C45.2155 42.8999 45.2155 43.007 45.1437 43.0784C44.9464 43.2926 44.7311 43.489 44.5337 43.7033C44.4978 43.739 44.4619 43.7568 44.4081 43.7568ZM45.6461 42.5071C45.5923 42.5071 45.5564 42.4893 45.5205 42.4536C45.4488 42.3822 45.4488 42.275 45.5205 42.2036C45.7359 41.9894 45.9512 41.793 46.1665 41.6145C46.2383 41.5431 46.3459 41.5609 46.4177 41.6323C46.4895 41.7038 46.4715 41.8109 46.3997 41.8823C46.1844 42.0787 45.9691 42.275 45.7538 42.4714C45.7359 42.4893 45.682 42.5071 45.6461 42.5071ZM46.956 41.3467C46.9021 41.3467 46.8483 41.3288 46.8124 41.2753C46.7586 41.2039 46.7586 41.0968 46.8304 41.0253C47.0636 40.829 47.2969 40.6504 47.5122 40.4719C47.584 40.4184 47.6916 40.4362 47.7634 40.5076C47.8172 40.579 47.7993 40.6861 47.7275 40.7576C47.4943 40.9361 47.2789 41.1146 47.0457 41.2931C47.0277 41.3288 46.9919 41.3467 46.956 41.3467ZM48.3555 40.2755C48.3017 40.2755 48.2479 40.2577 48.212 40.2041C48.1581 40.1327 48.1761 40.0077 48.2479 39.9542C48.4811 39.7935 48.7323 39.615 48.9835 39.4543C49.0732 39.4007 49.1809 39.4186 49.2347 39.5079C49.2885 39.5971 49.2706 39.7042 49.1809 39.7578C48.9476 39.9185 48.6964 40.0792 48.4632 40.2398C48.4093 40.2755 48.3735 40.2755 48.3555 40.2755ZM49.8268 39.3472C49.773 39.3472 49.7012 39.3115 49.6833 39.2579C49.6295 39.1687 49.6653 39.0616 49.7551 39.0258C50.0063 38.883 50.2754 38.7402 50.5266 38.5974C50.6163 38.5617 50.724 38.5795 50.7599 38.6688C50.7957 38.7581 50.7778 38.8652 50.6881 38.9009C50.4369 39.0258 50.1677 39.1687 49.9345 39.3115C49.8807 39.3293 49.8448 39.3472 49.8268 39.3472ZM51.3879 38.5438C51.3161 38.5438 51.2623 38.5081 51.2264 38.4367C51.1905 38.3474 51.2264 38.2403 51.3161 38.2046C51.4955 38.1332 51.6749 38.0439 51.8544 37.9725C51.9441 37.9368 52.0338 37.9011 52.1415 37.8654C52.2312 37.8297 52.3388 37.8833 52.3747 37.9725C52.4106 38.0618 52.3568 38.1689 52.2671 38.2046C52.1773 38.2403 52.0876 38.276 51.9979 38.3117C51.8185 38.3831 51.6391 38.4546 51.4776 38.5438C51.4237 38.5438 51.4058 38.5438 51.3879 38.5438ZM53.0027 37.9011C52.9309 37.9011 52.8592 37.8476 52.8412 37.7762C52.8053 37.6869 52.8592 37.5798 52.9489 37.5619C53.218 37.4727 53.4872 37.3834 53.7922 37.2941C53.8819 37.2584 53.9896 37.312 54.0075 37.4191C54.0434 37.5084 53.9896 37.6155 53.8819 37.6333C53.5948 37.7226 53.3257 37.8119 53.0565 37.9011C53.0386 37.9011 53.0207 37.9011 53.0027 37.9011ZM54.6893 37.4012C54.6176 37.4012 54.5458 37.3477 54.5279 37.2763C54.5099 37.187 54.5637 37.0799 54.6535 37.062C54.9405 36.9906 55.2276 36.9192 55.5147 36.8478C55.6044 36.83 55.7121 36.8835 55.73 36.9728C55.748 37.062 55.6941 37.1692 55.6044 37.187C55.3173 37.2584 55.0303 37.3298 54.7611 37.4012C54.7252 37.4012 54.7073 37.4012 54.6893 37.4012ZM56.3939 36.9906C56.3221 36.9906 56.2504 36.9371 56.2145 36.8478C56.1965 36.7585 56.2504 36.6514 56.3401 36.6336C56.6272 36.5622 56.9142 36.5086 57.2013 36.4372C57.291 36.4193 57.3808 36.4729 57.4166 36.5622C57.4346 36.6514 57.3808 36.7407 57.291 36.7764C57.004 36.8478 56.7169 36.9014 56.4298 36.9728C56.4118 36.9728 56.3939 36.9906 56.3939 36.9906ZM58.0985 36.5979C58.0267 36.5979 57.937 36.5443 57.919 36.4551C57.9011 36.3658 57.9549 36.2765 58.0446 36.2408C58.3317 36.1694 58.6188 36.1158 58.9059 36.0444C58.9956 36.0266 59.1033 36.0801 59.1212 36.1694C59.1392 36.2587 59.0853 36.3658 58.9956 36.3836C58.7085 36.4551 58.4214 36.5086 58.1344 36.58C58.1344 36.5979 58.1164 36.5979 58.0985 36.5979ZM59.821 36.2051C59.7492 36.2051 59.6774 36.1516 59.6595 36.0801C59.6416 35.9909 59.6954 35.8838 59.7851 35.8659C60.0722 35.7945 60.3593 35.7231 60.6284 35.6517C60.7181 35.6338 60.8258 35.6874 60.8437 35.7766C60.8617 35.8659 60.8078 35.973 60.7181 35.9909C60.431 36.0623 60.144 36.1337 59.8569 36.2051C59.8389 36.2051 59.821 36.2051 59.821 36.2051ZM61.5076 35.7588C61.4358 35.7588 61.3641 35.7052 61.3461 35.6338C61.3102 35.5446 61.3641 35.4374 61.4717 35.4196C61.7588 35.3303 62.0459 35.2411 62.2971 35.1518C62.3868 35.1161 62.4945 35.1697 62.5124 35.2589C62.5483 35.3482 62.4945 35.4553 62.4048 35.4732C62.1356 35.5624 61.8485 35.6517 61.5614 35.7409C61.5435 35.7588 61.5256 35.7588 61.5076 35.7588ZM63.1763 35.2054C63.1045 35.2054 63.0328 35.1697 63.0148 35.0982C62.9789 35.009 63.0328 34.9019 63.1225 34.8662C63.3916 34.759 63.6608 34.6519 63.9299 34.527C64.0196 34.4913 64.1273 34.527 64.1632 34.6162C64.199 34.7055 64.1632 34.8126 64.0734 34.8483C63.8222 34.9733 63.5352 35.0804 63.2481 35.1875C63.2122 35.2054 63.1942 35.2054 63.1763 35.2054ZM64.7732 34.4734C64.7194 34.4734 64.6476 34.4377 64.6117 34.3841C64.5579 34.2949 64.5938 34.1878 64.6835 34.1521C64.9347 34.0092 65.1859 33.8664 65.4371 33.7236C65.5268 33.67 65.6345 33.6879 65.6704 33.7771C65.7242 33.8664 65.7062 33.9735 65.6165 34.0092C65.3653 34.1699 65.1141 34.3127 64.845 34.4555C64.827 34.4734 64.7912 34.4734 64.7732 34.4734ZM66.2445 33.5451C66.1907 33.5451 66.1369 33.5272 66.101 33.4736C66.0471 33.4022 66.0651 33.2951 66.1369 33.2237C66.3701 33.0452 66.5854 32.8667 66.8008 32.6703C66.8725 32.5989 66.9802 32.6167 67.052 32.6881C67.1237 32.7595 67.1058 32.8667 67.034 32.9381C66.8187 33.1344 66.5854 33.3308 66.3522 33.5094C66.3163 33.5272 66.2804 33.5451 66.2445 33.5451ZM67.5185 32.3668C67.4826 32.3668 67.4288 32.3489 67.3929 32.3132C67.3211 32.2418 67.3211 32.1347 67.3749 32.0633L67.4467 31.974C67.6082 31.7955 67.7697 31.5991 67.9132 31.4027C67.967 31.3313 68.0747 31.3135 68.1644 31.367C68.2362 31.4206 68.2541 31.5277 68.2003 31.617C68.0568 31.8133 67.8773 32.0276 67.7158 32.2061L67.6261 32.2954C67.6261 32.3489 67.5723 32.3668 67.5185 32.3668ZM68.5771 30.9564C68.5412 30.9564 68.5233 30.9564 68.4874 30.9386C68.3977 30.885 68.3797 30.7779 68.4335 30.7065C68.5771 30.4744 68.7206 30.2066 68.8462 29.9567C68.8821 29.8674 68.9898 29.8317 69.0795 29.8853C69.1692 29.921 69.2051 30.0281 69.1513 30.1173C69.0257 30.3851 68.8821 30.6529 68.7206 30.885C68.6847 30.9386 68.6309 30.9564 68.5771 30.9564ZM69.3486 29.4032C69.3307 29.4032 69.3127 29.4032 69.2769 29.3854C69.1871 29.3497 69.1513 29.2426 69.1871 29.1533C69.2948 28.9034 69.4025 28.6177 69.4922 28.3499C69.5281 28.2607 69.6178 28.2071 69.7075 28.2428C69.7972 28.2785 69.851 28.3678 69.8151 28.457C69.7254 28.7427 69.6178 29.0283 69.5101 29.2783C69.4922 29.3675 69.4204 29.4032 69.3486 29.4032ZM69.9049 27.7608C69.8869 27.7608 69.869 27.7608 69.851 27.7608C69.7613 27.7429 69.7075 27.6358 69.7254 27.5465C69.7972 27.2788 69.869 26.9931 69.9407 26.7075C69.9587 26.6182 70.0484 26.5468 70.1561 26.5825C70.2458 26.6004 70.3176 26.6896 70.2817 26.7967C70.2099 27.0824 70.1381 27.3859 70.0663 27.6537C70.0484 27.7072 69.9766 27.7608 69.9049 27.7608ZM70.2996 26.0469C70.2817 26.0469 70.2817 26.0469 70.2637 26.0469C70.174 26.0291 70.1022 25.9398 70.1202 25.8505C70.174 25.5828 70.2278 25.2971 70.2637 24.9936C70.2817 24.9043 70.3714 24.8329 70.4611 24.8508C70.5508 24.8686 70.6226 24.9579 70.6046 25.0472C70.5508 25.3507 70.5149 25.6363 70.4611 25.9041C70.4431 25.9934 70.3714 26.0469 70.2996 26.0469ZM70.5687 24.3331H70.5508C70.4611 24.3152 70.3893 24.2259 70.4073 24.1367C70.4431 23.851 70.479 23.5654 70.5149 23.2798C70.5329 23.1905 70.6226 23.1191 70.7123 23.1191C70.802 23.1369 70.8738 23.2262 70.8738 23.3155C70.8379 23.6011 70.802 23.8867 70.7661 24.1902C70.7302 24.2617 70.6405 24.3331 70.5687 24.3331ZM70.7661 22.6013H70.7482C70.6585 22.5835 70.5867 22.5121 70.5867 22.405L70.6943 21.5302C70.7123 21.4409 70.802 21.3695 70.8917 21.3695C70.9814 21.3874 71.0532 21.4588 71.0532 21.5659L70.9455 22.4407C70.9455 22.5299 70.8558 22.6013 70.7661 22.6013ZM70.9814 20.8518H70.9635C70.8738 20.8339 70.802 20.7447 70.802 20.6554C70.8379 20.3698 70.8738 20.0663 70.9097 19.7806C70.9276 19.6914 71.0173 19.6199 71.107 19.6378C71.1967 19.6557 71.2685 19.7449 71.2506 19.8342C71.2147 20.1198 71.1788 20.4055 71.1429 20.6911C71.1429 20.7982 71.0711 20.8518 70.9814 20.8518ZM71.2147 19.1379C71.1967 19.1379 71.1967 19.1379 71.1788 19.1379C71.0891 19.1201 71.0173 19.0308 71.0353 18.9415C71.0891 18.638 71.1429 18.3524 71.1967 18.0846C71.2147 17.9953 71.3044 17.9239 71.3941 17.9418C71.4838 17.9596 71.5556 18.0489 71.5377 18.1382C71.4838 18.406 71.43 18.6916 71.3941 18.9951C71.3762 19.0665 71.3044 19.1379 71.2147 19.1379ZM71.5556 17.4241C71.5377 17.4241 71.5377 17.4241 71.5197 17.4241C71.43 17.4062 71.3582 17.3169 71.3941 17.2098C71.4659 16.9242 71.5377 16.6207 71.6094 16.3529C71.6274 16.2636 71.735 16.2101 71.8247 16.2279C71.9145 16.2458 71.9683 16.3529 71.9503 16.4422C71.8786 16.71 71.8068 16.9956 71.735 17.2812C71.6991 17.3527 71.6274 17.4241 71.5556 17.4241ZM72.0401 15.7459C72.0221 15.7459 72.0042 15.7459 71.9862 15.7281C71.8965 15.6923 71.8427 15.6031 71.8786 15.5138C71.9862 15.2282 72.0939 14.9604 72.2015 14.6926C72.2374 14.6033 72.3451 14.5676 72.4348 14.6033C72.5245 14.639 72.5604 14.7462 72.5245 14.8354C72.4169 15.0854 72.3092 15.371 72.2195 15.6388C72.1836 15.6923 72.1118 15.7459 72.0401 15.7459ZM72.7219 14.1392C72.686 14.1392 72.6681 14.1392 72.6501 14.1213C72.5604 14.0856 72.5245 13.9785 72.5783 13.8892C72.7219 13.6214 72.8654 13.3715 73.0269 13.1216C73.0807 13.0323 73.1884 13.0144 73.2602 13.068C73.3499 13.1216 73.3678 13.2287 73.314 13.3001C73.1705 13.5322 73.0269 13.7821 72.8834 14.0499C72.8475 14.1035 72.7937 14.1392 72.7219 14.1392ZM73.6549 12.6752C73.619 12.6752 73.5831 12.6574 73.5473 12.6395C73.4755 12.586 73.4575 12.4789 73.5114 12.3896C73.6011 12.2825 73.6729 12.1754 73.7626 12.0682C73.8702 11.9433 73.9779 11.8183 74.0855 11.7112C74.1573 11.6398 74.265 11.6398 74.3367 11.7112C74.4085 11.7826 74.4085 11.8897 74.3367 11.9611C74.2291 12.0682 74.1214 12.1932 74.0317 12.3003C73.942 12.4074 73.8702 12.4967 73.7805 12.6038C73.7626 12.6395 73.7087 12.6752 73.6549 12.6752ZM74.8571 11.3898C74.8033 11.3898 74.7674 11.372 74.7315 11.3363C74.6597 11.2649 74.6777 11.1578 74.7494 11.0863C74.9647 10.89 75.1801 10.7114 75.4313 10.5151C75.503 10.4615 75.6107 10.4615 75.6824 10.5329C75.7363 10.6043 75.7363 10.7114 75.6645 10.7829C75.4313 10.9792 75.2159 11.1578 75.0006 11.3363C74.9289 11.372 74.893 11.3898 74.8571 11.3898ZM76.2207 10.3008C76.1669 10.3008 76.1131 10.283 76.0772 10.2294C76.0234 10.158 76.0413 10.0509 76.1131 9.97948C76.3284 9.8188 76.5617 9.65813 76.8308 9.4796C76.9026 9.42604 77.0282 9.4439 77.082 9.53316C77.1358 9.60457 77.1179 9.72954 77.0282 9.7831C76.759 9.96163 76.5258 10.1223 76.3104 10.283C76.2925 10.283 76.2566 10.3008 76.2207 10.3008ZM77.6562 9.30107C77.6023 9.30107 77.5485 9.26537 77.5126 9.22966C77.4588 9.1404 77.4767 9.03328 77.5665 8.97973L78.3021 8.4977C78.3918 8.44414 78.4995 8.462 78.5533 8.55126C78.6071 8.64053 78.5892 8.74764 78.4995 8.8012L77.7638 9.28322C77.7279 9.30108 77.692 9.30107 77.6562 9.30107ZM79.1275 8.35488C79.0736 8.35488 79.0198 8.31918 78.9839 8.28347C78.9301 8.21206 78.9481 8.08709 79.0378 8.03353C79.289 7.87286 79.5222 7.71218 79.7555 7.53366C79.8272 7.4801 79.9349 7.49795 80.0067 7.56936C80.0605 7.64077 80.0426 7.76574 79.9708 7.8193C79.7375 7.97997 79.4863 8.1585 79.2531 8.31918C79.1992 8.33703 79.1634 8.35488 79.1275 8.35488ZM80.545 7.33728C80.4911 7.33728 80.4373 7.31942 80.4014 7.26587C80.3476 7.19446 80.3476 7.08734 80.4373 7.01593C80.6706 6.8374 80.9038 6.64102 81.1012 6.46249C81.173 6.39108 81.2806 6.40894 81.3524 6.48035C81.4242 6.55176 81.4062 6.65887 81.3344 6.73028C81.1191 6.90881 80.9038 7.10519 80.6526 7.30157C80.6347 7.31942 80.5988 7.33728 80.545 7.33728ZM81.8548 6.159C81.8189 6.159 81.7651 6.14114 81.7292 6.10544C81.6574 6.03403 81.6574 5.92691 81.7292 5.8555C81.9266 5.64127 82.1239 5.42704 82.2854 5.2128C82.3392 5.14139 82.4469 5.12354 82.5366 5.1771C82.6084 5.23066 82.6263 5.33777 82.5725 5.42704C82.3931 5.65912 82.1957 5.87335 81.9983 6.10544C81.9445 6.14114 81.9086 6.159 81.8548 6.159ZM82.9134 4.78434C82.8775 4.78434 82.8596 4.78434 82.8237 4.76649C82.734 4.71293 82.716 4.60581 82.7699 4.5344C82.9134 4.28446 83.039 4.03452 83.1646 3.78459C83.2005 3.69532 83.3082 3.65962 83.3979 3.69532C83.4876 3.73103 83.5235 3.83814 83.4876 3.92741C83.362 4.1952 83.2364 4.46299 83.0749 4.71293C83.039 4.74863 82.9852 4.78434 82.9134 4.78434Z" fill="#26D256"/>
<path d="M36.2436 66.8045C36.2436 66.8045 36.0103 69.0718 36.0821 69.3575C36.1538 69.661 43.2054 69.536 43.2054 69.536C43.2054 69.536 43.0618 68.1792 39.563 67.3937C36.0641 66.6082 36.2436 66.8045 36.2436 66.8045Z" fill="#4F2830"/>
<path d="M43.2787 66.8939C43.2787 66.8939 43.0455 69.1612 43.1172 69.4468C43.189 69.7503 50.2405 69.6254 50.2405 69.6254C50.2405 69.6254 50.097 68.2685 46.5981 67.483C43.0993 66.6975 43.2787 66.8939 43.2787 66.8939Z" fill="#4F2830"/>
<path d="M35.8667 36.3653C35.8847 39.918 35.9206 43.4707 35.9385 47.0056C35.9564 48.7194 35.9564 50.4333 35.8129 52.1471C35.6873 53.6468 35.4361 55.1642 35.454 56.6639C35.472 58.4849 35.8129 65.6259 35.8488 67.3398C36.7818 67.5719 38.5581 67.5719 39.4732 67.2862C40.5857 56.0569 42.7209 44.3277 42.9183 33.0447C42.9183 32.8484 41.9673 32.8662 41.8596 32.7055C41.734 32.5449 41.5367 32.4913 41.3393 32.4377C38.917 31.92 35.8488 33.9195 35.8667 36.3653Z" fill="#005AE2"/>
<path d="M47.0259 33.7412C47.8334 37.6152 48.4075 41.525 48.7843 45.4704C48.9099 46.7558 48.9996 48.0412 48.9279 49.3087C48.8382 50.8262 48.4972 52.308 48.2102 53.8076C47.3669 58.1994 46.9542 63.0375 46.5235 67.5007C45.5726 67.5007 43.7962 67.34 42.8453 67.34C42.8094 64.1086 43.3118 60.788 43.2938 57.5746C43.2759 55.5929 43.2759 53.522 44.1371 51.7367C44.2089 51.576 44.2986 51.4154 44.2807 51.2368C44.2627 51.0226 44.0833 50.8619 44.0115 50.6477C43.9218 50.4513 44.0115 50.1478 44.2269 50.1478C43.1503 46.1488 42.3429 41.6142 41.2663 37.6152C40.9613 36.5083 40.6742 35.3658 40.7998 34.2411C40.9254 33.0985 41.5893 31.9559 42.6838 31.5631C43.8859 31.1525 45.2137 31.7774 46.1288 32.6522C46.4697 33.0271 46.9183 33.2592 47.0259 33.7412Z" fill="#005AE2"/>
<path d="M42.5045 42.3107C42.7198 40.2576 42.9889 38.026 44.3705 36.3836C44.4243 36.3122 44.3346 36.2051 44.2629 36.2765C42.8633 37.9546 42.5762 40.2041 42.3609 42.3107C42.343 42.4178 42.4865 42.4178 42.5045 42.3107Z" fill="#0052B4"/>
<path d="M44.246 37.7402C44.4254 37.6866 44.5869 37.6152 44.7663 37.5616C44.8022 37.5438 44.8201 37.5081 44.8201 37.4724C44.8022 37.4367 44.7663 37.401 44.7304 37.4188C44.551 37.4724 44.3895 37.5438 44.2101 37.5973C44.1742 37.6152 44.1562 37.6509 44.1562 37.6866C44.1562 37.7223 44.2101 37.758 44.246 37.7402Z" fill="#0052B4"/>
<path d="M36.279 40.9718C37.1044 40.5433 37.7324 39.7935 38.0195 38.9009C38.0554 38.8116 37.9118 38.7759 37.8759 38.8652C37.5888 39.7043 36.9967 40.4184 36.2072 40.8468C36.1175 40.8825 36.1893 41.0075 36.279 40.9718Z" fill="#0052B4"/>
<path d="M36.9072 40.4893C36.6919 42.1496 36.8713 43.8277 37.0328 45.488C37.1943 47.1662 37.3019 48.8444 37.0328 50.5225C36.9072 51.3616 36.7278 52.2007 36.5842 53.0397C36.4586 53.861 36.3868 54.6822 36.3689 55.5034C36.333 57.2351 36.4766 58.9668 36.5842 60.6986C36.7098 62.6624 36.8354 64.644 36.961 66.6078C36.961 66.6971 37.1046 66.6971 37.1046 66.6078C36.9969 64.8582 36.8892 63.0908 36.7816 61.3413C36.6739 59.6274 36.5304 57.8957 36.5304 56.1818C36.5304 55.307 36.5663 54.4323 36.6739 53.5753C36.7816 52.7184 36.961 51.8793 37.1046 51.0224C37.2481 50.219 37.3378 49.4156 37.3558 48.6123C37.3737 47.7732 37.3199 46.9163 37.2481 46.0772C37.0866 44.2027 36.8354 42.3281 37.0687 40.4714C37.0687 40.4 36.9251 40.4 36.9072 40.4893Z" fill="#0052B4"/>
<path d="M46.7229 53.2009C46.9202 52.9331 47.1176 52.6474 47.315 52.3796C47.3329 52.3439 47.315 52.2904 47.297 52.2725C47.2612 52.2547 47.2253 52.2725 47.1894 52.2904C46.992 52.5582 46.7946 52.8438 46.5973 53.1116C46.5793 53.1473 46.5973 53.2009 46.6152 53.2187C46.6511 53.2544 46.7049 53.2366 46.7229 53.2009Z" fill="#0052B4"/>
<path d="M46.7947 52.0047C46.9383 51.8618 47.0639 51.7369 47.2074 51.594C47.2254 51.5583 47.2433 51.5226 47.2074 51.4869C47.1715 51.4691 47.1356 51.4512 47.0998 51.4869C46.9562 51.6297 46.8306 51.7547 46.6871 51.8975C46.6512 51.9154 46.6512 51.9689 46.6871 52.0047C46.723 52.0404 46.7768 52.0404 46.7947 52.0047Z" fill="#0052B4"/>
<path d="M38.5235 53.5041C38.7568 53.1649 38.99 52.8257 39.2233 52.5043C39.2771 52.4329 39.1515 52.3615 39.0977 52.4329C38.8644 52.7721 38.6312 53.1113 38.3979 53.4326C38.3441 53.5041 38.4697 53.5755 38.5235 53.5041Z" fill="#0052B4"/>
<path d="M39.0249 51.9153C39.2222 51.6832 39.4375 51.4511 39.6349 51.219C39.6529 51.1833 39.6708 51.1476 39.6349 51.1119C39.617 51.0941 39.5631 51.0762 39.5273 51.1119C39.3299 51.344 39.1146 51.5761 38.9172 51.8082C38.8993 51.8439 38.8813 51.8796 38.9172 51.9153C38.9531 51.9331 38.989 51.9331 39.0249 51.9153Z" fill="#0052B4"/>
<path d="M41.8788 15.7637L44.1037 16.085L47.2437 23.6903L45.9339 33.3843H40.4434L41.5199 15.7637H41.8788Z" fill="white"/>
<path d="M48.5179 38.7044C47.1902 38.4723 46.0059 37.6154 45.4497 36.4371C44.8755 35.2588 44.9473 33.8842 45.055 32.5809C45.4856 27.6357 46.3827 22.5477 44.9114 17.781C44.6961 17.0669 44.409 16.335 43.8887 15.7637C44.9114 15.8708 45.8803 16.4242 46.4904 17.2097C47.0825 17.9774 47.3157 18.9415 47.5131 19.8698C48.7512 26.0647 48.6435 32.3845 48.5179 38.7044Z" fill="#26D256"/>
<path d="M45.8066 10.6399C46.3269 10.6934 46.8293 10.265 46.9011 9.76508C46.919 9.58655 46.9011 9.40802 46.7934 9.2652C46.6858 9.12238 46.4704 9.06882 46.3269 9.17594C46.2731 8.99741 46.2192 8.80103 46.0757 8.65821C45.9322 8.51539 45.681 8.47968 45.5554 8.6225C45.5015 8.30115 45.0171 8.06907 44.712 7.92625C44.4788 7.81913 44.2096 7.71201 43.9584 7.69416C43.6534 7.67631 43.3484 7.74772 43.0613 7.83698C42.8101 7.92625 42.5769 8.03336 42.3974 8.21189C42.218 8.40827 42.1283 8.69391 42.2359 8.926C41.8233 8.74747 41.285 8.69391 40.9082 8.94385C40.5314 9.19379 40.334 9.72937 40.5673 10.1221C40.6211 10.2114 40.6929 10.2828 40.7287 10.3721C40.8723 10.7113 40.5493 11.0683 40.5134 11.4254C40.4775 11.7824 40.7108 12.1216 40.962 12.3716C41.2132 12.6215 41.5182 12.8536 41.6618 13.1928C41.7515 13.3892 41.8233 13.6213 42.0386 13.6748C42.1283 13.6927 42.218 13.6748 42.3077 13.6391C43.0613 13.3535 43.5458 12.6394 44.0123 11.9967C44.4608 11.354 45.0171 10.5506 45.8066 10.6399Z" fill="#4F2830"/>
<path d="M46.0025 11.1575C45.9845 12.6036 45.0515 14.4246 43.8493 14.2639C42.8625 14.1211 42.1447 13.3356 42.073 11.8895C41.9653 9.65792 43.2034 9.01522 44.2082 9.03307C45.213 9.03307 46.0025 9.71148 46.0025 11.1575Z" fill="#F9AC7C"/>
<path d="M42.4685 11.7112C42.4685 12.1932 42.3429 12.711 42.002 12.6931C41.6611 12.6753 41.2305 12.1754 41.2305 11.6934C41.2305 11.2113 41.5176 10.8364 41.8585 10.8364C42.1994 10.8364 42.4685 11.2292 42.4685 11.7112Z" fill="#F9AC7C"/>
<path d="M44.9813 10.997C44.9096 11.1755 44.8737 11.3541 44.8557 11.5326C44.8378 11.7111 44.8378 11.8718 44.8378 12.0325C44.8378 12.1574 44.8378 12.3003 44.7481 12.4074C44.6225 12.5502 44.4072 12.4788 44.2636 12.4074C44.1918 12.3717 44.1201 12.4788 44.1918 12.5145C44.3533 12.5859 44.5507 12.6573 44.7301 12.5681C44.8737 12.4966 44.9275 12.3538 44.9454 12.211C44.9634 12.0325 44.9454 11.8718 44.9634 11.6933C44.9813 11.4612 45.0351 11.247 45.1069 11.0149C45.1428 10.9613 45.0172 10.9256 44.9813 10.997Z" fill="#4F2830"/>
<path d="M43.564 12.0682C43.1693 12.0682 42.8104 11.7826 42.7207 11.372C42.631 10.9078 42.936 10.4615 43.4026 10.3901C43.6179 10.3544 43.8511 10.3901 44.0485 10.515C44.2279 10.64 44.3535 10.8364 44.4074 11.0506C44.4432 11.2649 44.4074 11.4969 44.2818 11.6933C44.1562 11.8719 43.9588 11.9968 43.7435 12.0504C43.6538 12.0682 43.6179 12.0682 43.564 12.0682ZM43.564 10.4972C43.5282 10.4972 43.4743 10.4972 43.4205 10.515C43.0258 10.5865 42.7746 10.9614 42.8463 11.3541C42.9181 11.7469 43.2949 11.9968 43.6896 11.9254C43.887 11.8897 44.0485 11.7826 44.1562 11.6219C44.2638 11.4612 44.2997 11.2649 44.2638 11.0863C44.2279 10.89 44.1203 10.7293 43.9588 10.6222C43.8511 10.5508 43.7076 10.4972 43.564 10.4972Z" fill="#281419"/>
<path d="M46.0401 12.4076C45.8786 12.4076 45.6992 12.354 45.5556 12.2648C45.3762 12.1398 45.2506 11.9434 45.1968 11.7292C45.1609 11.515 45.1968 11.2829 45.3224 11.0865C45.448 10.8901 45.6454 10.783 45.8607 10.7294C46.3272 10.6402 46.7758 10.9437 46.8475 11.4078C46.8834 11.6221 46.8475 11.8542 46.7219 12.0505C46.5963 12.2291 46.399 12.354 46.1836 12.4076C46.1478 12.3897 46.0939 12.4076 46.0401 12.4076ZM46.0401 10.8366C46.0042 10.8366 45.9504 10.8366 45.9145 10.8544C45.7171 10.8901 45.5556 10.9972 45.448 11.1579C45.3403 11.3186 45.3044 11.515 45.3403 11.6935C45.3762 11.8899 45.4839 12.0505 45.6454 12.1577C45.8068 12.2648 46.0042 12.3005 46.1836 12.2648C46.5784 12.1934 46.8296 11.8185 46.7578 11.4257C46.686 11.0686 46.381 10.8366 46.0401 10.8366Z" fill="#281419"/>
<path d="M45.1796 11.5506C45.0361 11.2828 44.5337 11.3721 44.3542 11.4257L44.3184 11.3007C44.3542 11.2828 45.0899 11.0686 45.3052 11.4792L45.1796 11.5506Z" fill="#281419"/>
<path d="M42.7754 11.1576C42.7575 11.1576 42.7575 11.1576 42.7396 11.1398L41.7886 10.4435C41.645 10.3364 41.4656 10.3186 41.3041 10.39L40.9991 10.5328C40.9632 10.5507 40.9273 10.5328 40.9094 10.4971C40.8914 10.4614 40.9094 10.4257 40.9453 10.4078L41.2503 10.265C41.4477 10.1757 41.6809 10.1936 41.8604 10.3364L42.8113 11.0327C42.8472 11.0505 42.8472 11.0862 42.8293 11.1219C42.8113 11.1576 42.7934 11.1576 42.7754 11.1576Z" fill="#281419"/>
<path d="M42.1643 12.5498L41.7695 15.7097C41.7695 15.7097 42.7026 17.0308 44.0303 16.5131L43.8688 14.0137L42.1643 12.5498Z" fill="#F9AC7C"/>
<path d="M44.0113 14.2105C43.2936 14.282 42.6656 13.6928 42.3785 13.0858C42.3427 13.0144 42.235 13.068 42.2709 13.1572C42.5759 13.7999 43.2398 14.4069 44.0113 14.3534C44.0831 14.3355 44.0831 14.2105 44.0113 14.2105Z" fill="#4F2830"/>
<path d="M35.042 39.1147C36.1007 39.0433 37.1413 38.8291 38.1282 38.4899C38.9536 38.2221 39.7789 37.8293 40.3711 37.1866C41.322 36.1512 41.5194 34.6515 41.6629 33.2412C42.1653 28.1532 42.6139 23.0473 42.4345 17.9593C42.3986 16.9595 42.2909 15.8348 41.5553 15.1385C39.8866 15.0314 38.1282 16.1383 37.1413 17.4772C36.1545 18.8162 35.6521 20.4408 35.2573 22.0654C33.8578 27.689 33.2836 33.509 33.5528 39.2932C34.0372 39.1683 34.5217 39.1504 35.042 39.1147Z" fill="#26D256"/>
<path d="M45.5559 16.8885C45.6995 16.6743 45.7712 16.4065 45.7353 16.1387C45.7174 15.9959 45.6815 15.853 45.6995 15.7102C45.7174 15.5674 45.843 15.4246 45.9865 15.4603C45.8609 15.4603 45.8071 15.6388 45.8968 15.7281C45.9865 15.8173 46.1301 15.8173 46.2377 15.7459C46.3454 15.6745 46.4172 15.5852 46.471 15.4781C46.5966 15.2817 46.7222 15.0854 46.7222 14.8533C46.7401 14.6033 46.5966 14.3534 46.4531 14.1392C46.2736 13.8892 46.0942 13.6572 45.8968 13.4429C46.166 13.2644 46.4351 13.0859 46.7043 12.9073C46.794 12.8538 46.8837 12.7645 46.8657 12.6574C46.8478 12.5146 46.6504 12.4967 46.5069 12.5324C46.0224 12.6574 45.6097 12.9609 45.215 13.2644C45.0176 13.4251 44.8023 13.5679 44.6588 13.7821C44.3537 14.2284 44.3537 14.8176 44.3896 15.3532C44.4076 15.6745 44.2999 15.9602 44.2461 16.2636C44.7126 16.4779 45.1073 16.6386 45.5559 16.8885Z" fill="#F9AC7C"/>
<path d="M40.1559 27.582C39.9585 27.5999 39.7611 27.5285 39.5637 27.4392C39.3664 27.35 39.169 27.2607 38.9716 27.1714C38.7922 27.1 38.6307 27.0108 38.4872 26.8858C38.3436 26.7608 38.236 26.5823 38.2539 26.3859C38.2719 26.2252 38.3616 26.0824 38.4692 25.9753C38.7384 25.6718 39.0972 25.4754 39.4561 25.2969C39.8508 25.1005 40.3173 24.9041 40.748 25.047C41.2324 25.2076 41.5016 25.7432 41.5195 26.2431C41.5195 26.5644 41.4298 27.0108 41.1248 27.1714C40.9992 27.2428 40.8556 27.2428 40.73 27.3321C40.5506 27.4214 40.3712 27.5642 40.1559 27.582Z" fill="#F9AC7C"/>
<path d="M41.4831 23.5833C41.537 23.4405 41.5908 23.3155 41.6446 23.1727C41.7882 23.1906 41.7164 23.0656 41.7702 23.2084C42.3623 20.5305 43.2774 18.1918 43.9772 15.5317C44.659 15.7995 45.3229 16.0673 46.0047 16.3351C45.9509 18.1561 45.6279 20.0128 45.3229 21.798C45.1435 22.8156 44.9461 23.8511 44.5872 24.8152C44.1746 25.9399 43.3312 27.618 42.1829 27.7073C41.7343 27.743 41.2858 27.6002 40.8731 27.4038C39.2403 26.6004 38.2175 24.4224 37.4998 22.6907C36.9436 21.3339 36.5668 19.7093 37.2127 18.3882C37.3742 18.0668 37.5895 17.7812 37.8946 17.6384C38.3431 17.442 38.8635 17.6027 39.2223 17.9419C39.5812 18.2632 39.8145 18.7274 40.0118 19.1915C40.6578 20.6198 41.2499 22.0658 41.4831 23.5833Z" fill="#26D256"/>
<path d="M41.1428 27.5823C43.906 27.3502 46.2565 26.5825 48.9659 25.9398C49.558 25.797 50.0424 25.0293 49.9886 24.4224C49.9168 23.8154 49.4324 22.9406 49.1812 22.405C48.6429 21.2981 48.1046 20.1734 47.5843 19.0665C47.3151 18.531 47.046 17.9597 46.6333 17.5312C46.5256 17.4241 46.4 17.317 46.2565 17.2634C45.9156 17.1563 45.5567 17.3705 45.3414 17.6562C44.9826 18.1203 44.9108 18.763 45.0005 19.3522C45.0902 19.9413 44.8211 20.6376 45.0902 21.1732C45.5029 22.0301 43.9778 23.0298 44.3904 23.8868C42.65 24.6544 43.3318 24.9222 41.4478 25.1186C41.2504 25.1365 41.0172 25.1722 40.9275 25.3507C40.8736 25.44 40.8736 25.5649 40.8916 25.672C40.8736 26.1898 41.0351 27.0646 41.1428 27.5823Z" fill="#26D256"/>
<path d="M45.8781 16.7455C45.6808 19.6733 45.3937 22.7083 44.0838 25.3862C43.7609 26.0289 43.402 26.7073 42.9176 27.225C42.6484 27.5106 42.3075 27.7249 41.8948 27.707C41.4821 27.707 41.0874 27.5106 40.7285 27.2964C39.5264 26.5644 38.701 25.3326 38.2345 24.0294C37.6065 22.2976 37.5885 20.4231 37.6244 18.6021C37.6244 18.5129 37.4988 18.5129 37.4988 18.6021C37.445 21.6192 37.6603 25.2255 40.3517 27.1893C40.89 27.5821 41.6436 27.9927 42.3254 27.7784C42.9714 27.5642 43.3841 26.8679 43.707 26.3145C44.5145 24.9934 45.0169 23.5116 45.3398 22.012C45.7166 20.2803 45.8781 18.5129 45.9858 16.7455C46.0037 16.674 45.8781 16.674 45.8781 16.7455Z" fill="#277489"/>
<path d="M42.5431 20.2806C41.9151 21.4588 41.4486 22.7085 41.1795 24.0296C41.1615 24.101 41.2871 24.1367 41.3051 24.0653C41.5742 22.7621 42.0228 21.5124 42.6508 20.352C42.6867 20.2806 42.579 20.2091 42.5431 20.2806Z" fill="#277489"/>
<path d="M41.7706 21.9409C41.4835 22.1551 41.2323 22.405 41.017 22.7085C40.9811 22.7799 41.0888 22.8335 41.1246 22.7799C41.3041 22.4943 41.5553 22.2622 41.8244 22.0658C41.8603 22.048 41.8603 22.0123 41.8424 21.9766C41.8424 21.923 41.8065 21.923 41.7706 21.9409Z" fill="#277489"/>
<path d="M45.0175 23.3687C45.8967 22.8867 46.8656 22.5832 47.8524 22.4583C47.9242 22.4404 47.9242 22.3154 47.8524 22.3333C46.8297 22.4583 45.8608 22.7796 44.9457 23.2616C44.8919 23.2973 44.9457 23.4044 45.0175 23.3687Z" fill="#277489"/>
<path d="M47.3163 22.5122C47.4598 22.2445 47.6751 22.0124 47.9622 21.8874C47.9981 21.8695 47.9981 21.8338 47.9801 21.7981C47.9622 21.7624 47.9263 21.7624 47.8904 21.7803C47.6033 21.9231 47.3521 22.173 47.2086 22.4587C47.1907 22.4944 47.2086 22.5301 47.2265 22.5479C47.2445 22.5479 47.2983 22.5479 47.3163 22.5122Z" fill="#277489"/>
<path d="M40.5508 15.4423C40.7841 16.4778 41.0173 17.4954 41.2506 18.5308C41.4659 19.4949 41.6812 20.4768 42.058 21.3873C42.0939 21.4587 42.2016 21.423 42.1836 21.3516C41.8068 20.4232 41.5915 19.4592 41.3762 18.4951C41.1429 17.4597 40.9097 16.4421 40.6764 15.4066C40.6405 15.3352 40.5329 15.3709 40.5508 15.4423Z" fill="#277489"/>
<path d="M36.4774 33.8481C37.3387 33.1162 38.2358 32.4378 39.1868 31.7951C39.2585 31.7415 39.1868 31.6344 39.115 31.6879C38.164 32.3306 37.2489 33.009 36.3877 33.7589C36.3339 33.7946 36.4236 33.8838 36.4774 33.8481Z" fill="#277489"/>
<path d="M47.1707 31.9561C47.5655 32.1703 47.9064 32.456 48.2114 32.7952C48.2652 32.8487 48.355 32.7595 48.3011 32.7059C47.9961 32.3667 47.6373 32.0811 47.2246 31.849C47.1707 31.8133 47.1169 31.9204 47.1707 31.9561Z" fill="#277489"/>
<path d="M60.7438 40.1753H74.5957V8.11181H60.7438V40.1753Z" fill="#005AE2"/>
<path d="M80.6714 39.2939L67.6629 52.2372L54.6543 39.2939H80.6714Z" fill="#005AE2"/>
<path d="M72.5788 16.4243V15.1032H71.6278C71.5919 14.8532 71.5201 14.6033 71.4304 14.3712L72.2558 13.8892L71.5919 12.7466L70.7665 13.2108C70.6051 13.0144 70.4256 12.8359 70.2283 12.6752L70.6948 11.854L69.5464 11.1934L69.062 12.0146C68.8287 11.9254 68.5775 11.854 68.3263 11.8183V10.8721H66.9985V11.8183C66.7473 11.854 66.4961 11.9254 66.2629 12.0146L65.7784 11.1934L64.6301 11.854L65.0966 12.6752C64.8992 12.8359 64.7198 13.0144 64.5583 13.2108L63.7329 12.7466L63.0691 13.8892L63.8944 14.3712C63.8047 14.6033 63.7329 14.8532 63.6971 15.1032H62.7461V16.4243H63.6971C63.7329 16.6742 63.8047 16.9241 63.8944 17.1562L63.0691 17.6382L63.7329 18.7808L64.5583 18.3167C64.7198 18.513 64.8992 18.6916 65.0966 18.8522L64.6301 19.6735L65.7784 20.334L66.2629 19.5128C66.4961 19.602 66.7473 19.6735 66.9985 19.7092V20.6554H68.3263V19.7092C68.5775 19.6735 68.8287 19.602 69.062 19.5128L69.5464 20.334L70.6948 19.6735L70.2283 18.8522C70.4256 18.6916 70.6051 18.513 70.7665 18.3167L71.5919 18.7808L72.2558 17.6382L71.4304 17.1562C71.5201 16.9241 71.5919 16.6742 71.6278 16.4243H72.5788ZM70.7845 15.7637C70.7845 17.4776 69.3849 18.8701 67.6624 18.8701C65.9399 18.8701 64.5404 17.4776 64.5404 15.7637C64.5404 14.0499 65.9399 12.6573 67.6624 12.6573C69.3849 12.6573 70.7845 14.0499 70.7845 15.7637Z" fill="white"/>
<path d="M67.662 17.9596C68.8809 17.9596 69.869 16.9765 69.869 15.7638C69.869 14.551 68.8809 13.5679 67.662 13.5679C66.4432 13.5679 65.4551 14.551 65.4551 15.7638C65.4551 16.9765 66.4432 17.9596 67.662 17.9596Z" fill="white"/>
<path d="M64.0996 28.9727H66.791V24.6523H64.0996V28.9727Z" fill="white"/>
<path d="M68.2894 28.5464L65.4545 31.3671L62.6016 28.5464H68.2894Z" fill="white"/>
<path d="M69.9562 38.2549H72.1094V34.8093H69.9562V38.2549Z" fill="white"/>
<path d="M73.2973 37.9189L71.0365 40.1862L68.7578 37.9189H73.2973Z" fill="white"/>
<path d="M24.5999 20.1733H10.748V52.2368H24.5999V20.1733Z" fill="#26D256"/>
<path d="M4.66602 21.0484L17.6746 8.12305L30.6831 21.0484H4.66602Z" fill="#26D256"/>
<path d="M22.5905 45.1494V43.8283H21.6395C21.6036 43.5783 21.5319 43.3284 21.4421 43.0963L22.2675 42.6143L21.6036 41.4717L20.7783 41.9359C20.6168 41.7395 20.4373 41.561 20.24 41.4003L20.7065 40.5791L19.5581 39.9185L19.0737 40.7397C18.8404 40.6505 18.5892 40.5791 18.338 40.5434V39.5972H17.0103V40.5434C16.7591 40.5791 16.5079 40.6505 16.2746 40.7397L15.7902 39.9185L14.6418 40.5791L15.1083 41.4003C14.911 41.561 14.7315 41.7395 14.57 41.9359L13.7447 41.4717L13.0808 42.6143L13.9062 43.0963C13.8164 43.3284 13.7447 43.5783 13.7088 43.8283H12.7578V45.1494H13.7088C13.7447 45.3993 13.8164 45.6492 13.9062 45.8813L13.0808 46.3633L13.7447 47.5059L14.57 47.0417C14.7315 47.2381 14.911 47.4167 15.1083 47.5773L14.6418 48.3986L15.7902 49.0591L16.2746 48.2379C16.5079 48.3271 16.7591 48.3986 17.0103 48.4343V49.3805H18.338V48.4343C18.5892 48.3986 18.8404 48.3271 19.0737 48.2379L19.5581 49.0591L20.7065 48.3986L20.24 47.5773C20.4373 47.4167 20.6168 47.2381 20.7783 47.0417L21.6036 47.5059L22.2675 46.3633L21.4421 45.8813C21.5319 45.6492 21.6036 45.3993 21.6395 45.1494H22.5905ZM20.7962 44.4888C20.7962 46.2027 19.3967 47.5952 17.6741 47.5952C15.9516 47.5952 14.5521 46.2027 14.5521 44.4888C14.5521 42.775 15.9516 41.3824 17.6741 41.3824C19.3967 41.3824 20.7962 42.775 20.7962 44.4888Z" fill="white"/>
<path d="M17.6738 46.6847C18.8926 46.6847 19.8807 45.7016 19.8807 44.4889C19.8807 43.2761 18.8926 42.293 17.6738 42.293C16.4549 42.293 15.4668 43.2761 15.4668 44.4889C15.4668 45.7016 16.4549 46.6847 17.6738 46.6847Z" fill="white"/>
<path d="M15.8633 18.1025H13.1719V22.4229H15.8633V18.1025Z" fill="white"/>
<path d="M11.6816 18.5312L14.5166 15.7104L17.3695 18.5312H11.6816Z" fill="white"/>
<path d="M20.7768 27.6899H18.7852V30.8677H20.7768V27.6899Z" fill="white"/>
<path d="M17.6914 28.0111L19.7728 25.9224L21.8721 28.0111H17.6914Z" fill="white"/>
</g>
<defs>
<clipPath id="clip0_1638_12263">
<rect width="86" height="72" fill="white"/>
</clipPath>
</defs>
</svg>
