<svg id="Layer_1" data-name="Layer 1" xmlns="http://www.w3.org/2000/svg" viewBox="0 0 120 120"><defs><style>.cls-1{fill:none;stroke:#231f20;stroke-linecap:round;stroke-miterlimit:10;}.cls-2{fill:#9b8ff9;}</style></defs><title>Artboard 7 copy</title><path class="cls-1" d="M94,62.33A35.63,35.63,0,1,1,58.39,26.7,35.62,35.62,0,0,1,94,62.33Z"/><path class="cls-2" d="M40.75,41.62A1.71,1.71,0,1,1,39,39.91,1.7,1.7,0,0,1,40.75,41.62Z"/><path class="cls-2" d="M79.63,81.65a1.71,1.71,0,1,1-1.71-1.71A1.71,1.71,0,0,1,79.63,81.65Z"/><path class="cls-2" d="M78.5,43.91a1.72,1.72,0,1,1,1.71-1.71A1.71,1.71,0,0,1,78.5,43.91Z"/><path class="cls-2" d="M38.47,82.79a1.72,1.72,0,1,1,1.71-1.72A1.72,1.72,0,0,1,38.47,82.79Z"/><path class="cls-2" d="M79.37,62.33a21,21,0,1,1-21-21A21,21,0,0,1,79.37,62.33Z"/><path class="cls-2" d="M61.79,34.83a3.4,3.4,0,1,1-3.4-3.4A3.4,3.4,0,0,1,61.79,34.83Z"/><path class="cls-2" d="M61.79,89.69a3.4,3.4,0,1,1-3.4-3.4A3.4,3.4,0,0,1,61.79,89.69Z"/><path class="cls-2" d="M85.82,65.65a3.4,3.4,0,1,1,3.4-3.39A3.39,3.39,0,0,1,85.82,65.65Z"/><path class="cls-2" d="M31,65.65a3.4,3.4,0,1,1,3.39-3.39A3.39,3.39,0,0,1,31,65.65Z"/><path class="cls-1" d="M62.1,62.26a3.71,3.71,0,1,1-3.71-3.71A3.71,3.71,0,0,1,62.1,62.26Z"/><line class="cls-1" x1="55.68" y1="59.73" x2="45.04" y2="49.39"/><line class="cls-1" x1="61.1" y1="59.73" x2="75.24" y2="45.7"/><line class="cls-1" x1="93.99" y1="40.48" x2="109.65" y2="40.48"/><line class="cls-1" x1="17.23" y1="97.95" x2="32.89" y2="97.95"/><line class="cls-1" x1="25.61" y1="26.51" x2="29.51" y2="26.51"/><line class="cls-1" x1="8.93" y1="65.97" x2="12.83" y2="65.97"/><line class="cls-1" x1="99.87" y1="81.65" x2="103.77" y2="81.65"/><line class="cls-1" x1="56.44" y1="105.35" x2="60.34" y2="105.35"/><line class="cls-1" x1="103.42" y1="54.56" x2="113.71" y2="54.56"/><line class="cls-1" x1="84.08" y1="97.95" x2="94.36" y2="97.95"/><line class="cls-1" x1="40.87" y1="18.04" x2="51.16" y2="18.03"/></svg>