<svg width="18" height="19" viewBox="0 0 18 19" fill="none" xmlns="http://www.w3.org/2000/svg">
<g clip-path="url(#clip0_1638_6947)">
<path fill-rule="evenodd" clip-rule="evenodd" d="M10.4573 1.12221C9.61639 0.405553 8.37952 0.405553 7.53857 1.12221L6.35536 2.13053C6.23523 2.2329 6.08588 2.29477 5.92855 2.30732L4.3789 2.43098C3.27751 2.51888 2.40291 3.39347 2.31502 4.49487L2.19135 6.04452C2.1788 6.20185 2.11693 6.3512 2.01457 6.47132L1.00624 7.65453C0.289586 8.49549 0.289586 9.73236 1.00624 10.5733L2.01457 11.7565C2.11693 11.8766 2.1788 12.026 2.19135 12.1833L2.31502 13.733C2.40291 14.8344 3.27751 15.709 4.37891 15.7969L5.92856 15.9205C6.08588 15.9331 6.23523 15.9949 6.35536 16.0973L7.53857 17.1056C8.37952 17.8223 9.61639 17.8223 10.4573 17.1056L11.6406 16.0973C11.7607 15.9949 11.91 15.9331 12.0674 15.9205L13.617 15.7969C14.7184 15.709 15.593 14.8344 15.6809 13.733L15.8046 12.1833C15.8171 12.026 15.879 11.8766 15.9813 11.7565L16.9897 10.5733C17.7063 9.73236 17.7063 8.49549 16.9897 7.65453L15.9813 6.47132C15.879 6.3512 15.8171 6.20185 15.8046 6.04452L15.6809 4.49487C15.593 3.39348 14.7184 2.51888 13.617 2.43098L12.0674 2.30732C11.91 2.29477 11.7607 2.2329 11.6406 2.13053L10.4573 1.12221Z" fill="#10172B"/>
<path d="M11.9998 7.23853L7.87492 11.3634L6 9.86353" stroke="white" stroke-width="1.5" stroke-linecap="round" stroke-linejoin="round"/>
</g>
<defs>
<clipPath id="clip0_1638_6947">
<rect width="18" height="18" fill="white" transform="translate(0 0.113525)"/>
</clipPath>
</defs>
</svg>
