<svg width="86" height="88" viewBox="0 0 86 88" fill="none" xmlns="http://www.w3.org/2000/svg">
<g clip-path="url(#clip0_1638_3544)">
<path d="M49.9939 49.1812H40.7891V51.5898H49.9939V49.1812Z" fill="#EBEBEB"/>
<path d="M46.1007 54.1291C46.1007 54.1291 46.1007 54.1105 46.1007 54.0918C46.1007 54.0544 46.1007 54.0171 46.1007 53.9611C46.1007 53.849 46.1007 53.681 46.1007 53.4943C46.1007 53.0835 46.1007 52.486 46.0818 51.7391L46.1196 51.7765C44.0216 51.7765 40.6761 51.7952 36.9337 51.7952C36.9526 51.7765 36.8959 51.8325 36.9715 51.7578V51.7765V51.7952V51.8325V51.9072V52.0566C36.9715 52.1499 36.9715 52.2619 36.9715 52.3553C36.9715 52.5607 36.9715 52.7661 36.9715 52.9528C36.9715 53.3449 36.9715 53.7557 36.9715 54.1291L36.9337 54.0918C39.5609 54.0918 41.8479 54.1105 43.4923 54.1105C44.3051 54.1105 44.9666 54.1291 45.4202 54.1291C45.6471 54.1291 45.8172 54.1291 45.9495 54.1291C46.0062 54.1291 46.044 54.1291 46.0818 54.1291C46.0818 54.1105 46.1007 54.1105 46.1007 54.1291C46.1007 54.1291 46.0818 54.1291 46.0629 54.1291C46.0251 54.1291 45.9873 54.1291 45.9306 54.1291C45.8172 54.1291 45.6282 54.1291 45.4202 54.1291C44.9666 54.1291 44.3051 54.1291 43.4923 54.1478C41.8479 54.1478 39.542 54.1665 36.9148 54.1665H36.877V54.1291C36.877 53.737 36.877 53.3449 36.877 52.9528C36.877 52.7474 36.877 52.542 36.877 52.3553C36.877 52.2619 36.877 52.1499 36.877 52.0566V51.9072V51.8325V51.7952V51.7765V51.7205C36.9715 51.6271 36.8959 51.7018 36.9337 51.6831C40.695 51.6831 44.0216 51.7018 46.1196 51.7018H46.1574V51.7391C46.1574 52.5047 46.1385 53.1022 46.1385 53.513C46.1385 53.7183 46.1385 53.8677 46.1385 53.9798C46.1385 54.0358 46.1385 54.0731 46.1385 54.0918C46.1007 54.1105 46.1007 54.1291 46.1007 54.1291Z" fill="#E0E0E0"/>
<path d="M83.2966 8.66357H74.0918V11.0722H83.2966V8.66357Z" fill="#EBEBEB"/>
<path d="M79.4034 13.5929C79.4034 13.5929 79.4034 13.5742 79.4034 13.5555C79.4034 13.5182 79.4034 13.4808 79.4034 13.4248C79.4034 13.3128 79.4034 13.1448 79.4034 12.958C79.4034 12.5473 79.4034 11.9498 79.3845 11.2029L79.4223 11.2402C77.3243 11.2402 73.9788 11.2589 70.2364 11.2589C70.2553 11.2402 70.1986 11.2962 70.2742 11.2216V11.2589V11.3336V11.483C70.2742 11.5763 70.2742 11.6884 70.2742 11.7817C70.2742 11.9871 70.2742 12.1925 70.2742 12.3792C70.2742 12.7713 70.2742 13.1821 70.2742 13.5555L70.2364 13.5182C72.8636 13.5182 75.1507 13.5369 76.7951 13.5369C77.6078 13.5369 78.2694 13.5555 78.723 13.5555C78.9498 13.5555 79.1199 13.5555 79.2522 13.5555C79.3089 13.5555 79.3467 13.5555 79.3845 13.5555C79.3845 13.5929 79.4034 13.5929 79.4034 13.5929C79.4034 13.5929 79.3845 13.5929 79.3656 13.5929C79.3278 13.5929 79.29 13.5929 79.2333 13.5929C79.1199 13.5929 78.9309 13.5929 78.723 13.5929C78.2694 13.5929 77.6078 13.5929 76.7951 13.6115C75.1507 13.6115 72.8447 13.6302 70.2175 13.6302H70.1797V13.5929C70.1797 13.2008 70.1797 12.8087 70.1797 12.4166C70.1797 12.2112 70.1797 12.0058 70.1797 11.8191C70.1797 11.7257 70.1797 11.6137 70.1797 11.5203V11.3709V11.2962V11.2589V11.2029C70.2742 11.1095 70.1986 11.1842 70.2364 11.1655C73.9977 11.1655 77.3243 11.1842 79.4223 11.1842H79.4601V11.2216C79.4601 11.9871 79.4412 12.5846 79.4412 12.9954C79.4412 13.2008 79.4412 13.3501 79.4412 13.4622C79.4412 13.5182 79.4412 13.5555 79.4412 13.5742C79.4034 13.5742 79.4034 13.5929 79.4034 13.5929Z" fill="#E0E0E0"/>
<path d="M13.1365 20.2964H3.93164V22.705H13.1365V20.2964Z" fill="#EBEBEB"/>
<path d="M9.24327 25.2256C9.24327 25.2256 9.24327 25.2069 9.24327 25.1882C9.24327 25.1509 9.24327 25.1135 9.24327 25.0575C9.24327 24.9455 9.24327 24.7774 9.24327 24.5907C9.24327 24.18 9.24327 23.5825 9.22437 22.8356L9.26217 22.8729C7.16415 22.8729 3.81865 22.8916 0.0762345 22.8916C0.0951356 22.8729 0.0384323 22.9289 0.114037 22.8543V22.8729V22.8916V22.9289V23.0036V23.153C0.114037 23.2464 0.114037 23.3584 0.114037 23.4518C0.114037 23.6571 0.114037 23.8625 0.114037 24.0493C0.114037 24.4414 0.114037 24.8521 0.114037 25.2256L0.0762345 25.1882C2.70349 25.1882 4.99052 25.2069 6.63492 25.2069C7.44766 25.2069 8.1092 25.2256 8.56283 25.2256C8.78964 25.2256 8.95975 25.2256 9.09206 25.2256C9.14876 25.2256 9.18656 25.2256 9.22437 25.2256H9.24327C9.24327 25.2256 9.22437 25.2256 9.20547 25.2256C9.16766 25.2256 9.12986 25.2256 9.07316 25.2256C8.95975 25.2256 8.77074 25.2256 8.56283 25.2256C8.1092 25.2256 7.44766 25.2256 6.63492 25.2442C4.99052 25.2442 2.68459 25.2629 0.0573335 25.2629H0.0195312V25.2256C0.0195312 24.8335 0.0195312 24.4414 0.0195312 24.0493C0.0195312 23.8439 0.0195312 23.6385 0.0195312 23.4518C0.0195312 23.3584 0.0195312 23.2464 0.0195312 23.153V23.0036V22.9289V22.8916V22.8729V22.8543C0.114037 22.7609 0.0384324 22.8356 0.0762345 22.8169C3.83755 22.8169 7.16415 22.8356 9.26217 22.8356H9.29997V22.8729C9.29997 23.6385 9.28107 24.236 9.28107 24.6467C9.28107 24.8521 9.28107 25.0015 9.28107 25.1135C9.28107 25.1696 9.28107 25.2069 9.28107 25.2256C9.24327 25.2069 9.24327 25.2256 9.24327 25.2256Z" fill="#E0E0E0"/>
<path d="M81.1241 47.3515C81.1241 47.3515 81.1241 47.3329 81.1241 47.3142C81.1241 47.2769 81.1241 47.2395 81.1241 47.1835C81.1241 47.0715 81.1241 46.9034 81.1241 46.7167C81.1241 46.3059 81.1241 45.7084 81.1052 44.9616L81.143 44.9989C79.045 44.9989 75.6995 45.0176 71.9571 45.0176C71.976 44.9989 71.9004 45.0549 71.9949 44.9802V44.9989V45.0176V45.0549V45.1296V45.279C71.9949 45.3723 71.9949 45.4844 71.9949 45.5777C71.9949 45.7831 71.9949 45.9885 71.9949 46.1752C71.9949 46.5673 71.9949 46.9781 71.9949 47.3515L71.9571 47.3142C74.5843 47.3142 76.8714 47.3329 78.5158 47.3329C79.3285 47.3329 79.9901 47.3515 80.4437 47.3515C80.6705 47.3515 80.8406 47.3515 80.9729 47.3515C81.0296 47.3515 81.0674 47.3515 81.1052 47.3515H81.1241C81.1241 47.3515 81.1052 47.3515 81.0863 47.3515C81.0485 47.3515 81.0107 47.3515 80.954 47.3515C80.8406 47.3515 80.6516 47.3515 80.4437 47.3515C79.9901 47.3515 79.3285 47.3515 78.5158 47.3702C76.8714 47.3702 74.5654 47.3889 71.9382 47.3889H71.9004V47.3515C71.9004 46.9594 71.9004 46.5673 71.9004 46.1752C71.9004 45.9698 71.9004 45.7644 71.9004 45.5777C71.9004 45.4844 71.9004 45.3723 71.9004 45.279V45.1296V45.0549V45.0176V44.9989V44.9802C71.9949 44.8869 71.9193 44.9616 71.9571 44.9429C75.7184 44.9429 79.045 44.9616 81.143 44.9616H81.1808V44.9989C81.1808 45.7644 81.1619 46.3619 81.1619 46.7727C81.1619 46.9781 81.1619 47.1275 81.1619 47.2395C81.1619 47.2955 81.1619 47.3329 81.1619 47.3515C81.1241 47.3329 81.1241 47.3515 81.1241 47.3515Z" fill="#E0E0E0"/>
<path d="M82.3716 44.9427C82.3716 44.9427 82.3716 44.924 82.3716 44.9053C82.3716 44.868 82.3716 44.8306 82.3716 44.7746C82.3716 44.6626 82.3716 44.4946 82.3716 44.2892C82.3716 43.8597 82.3527 43.2809 82.3527 42.534L82.3905 42.5714C80.954 42.5714 79.0072 42.5714 76.8714 42.59C76.8336 42.6274 76.9281 42.534 76.9092 42.5527V42.5714V42.59V42.6274V42.7021V42.8514C76.9092 42.9635 76.9092 43.0568 76.9092 43.1689C76.9092 43.3743 76.9092 43.5796 76.9092 43.785C76.9092 44.1958 76.9092 44.5692 76.9092 44.9427L76.8714 44.9053C78.4591 44.9053 79.8388 44.924 80.8217 44.924C81.3131 44.924 81.6911 44.924 81.9747 44.9427C81.6911 44.9427 81.3131 44.9427 80.8406 44.9614C79.8577 44.9614 78.459 44.98 76.8525 44.98H76.8147V44.9427C76.8147 44.5692 76.8147 44.1771 76.8147 43.785C76.8147 43.5796 76.8147 43.3743 76.8147 43.1689C76.8147 43.0568 76.8147 42.9635 76.8147 42.8514V42.7021V42.6274V42.59V42.5714V42.5527C76.7958 42.5714 76.9092 42.4593 76.8525 42.5153C79.0072 42.5153 80.954 42.534 82.3716 42.534H82.4094V42.5714C82.4094 43.3182 82.3905 43.9157 82.3905 44.3452C82.3905 44.5506 82.3905 44.6999 82.3905 44.812C82.3716 44.8867 82.3716 44.9427 82.3716 44.9427Z" fill="#E0E0E0"/>
<path d="M43.3605 4.85448C43.3605 4.85448 43.3605 4.83581 43.3605 4.81713C43.3605 4.77979 43.3605 4.74245 43.3605 4.68643C43.3605 4.5744 43.3605 4.40635 43.3605 4.21964C43.3605 3.80886 43.3605 3.21136 43.3416 2.46449L43.3794 2.50184C41.2813 2.50184 37.9358 2.52051 34.1934 2.52051C34.2123 2.50184 34.1367 2.55785 34.2312 2.48316V2.50184V2.52051V2.55785V2.61387V2.76324C34.2312 2.8566 34.2312 2.96863 34.2312 3.06199C34.2312 3.26738 34.2312 3.47277 34.2312 3.65948C34.2312 4.05159 34.2312 4.46237 34.2312 4.83581L34.1934 4.79846C36.8207 4.79846 39.1077 4.81713 40.7521 4.81713C41.5649 4.81713 42.2264 4.83581 42.68 4.83581C42.9068 4.83581 43.0769 4.83581 43.2092 4.83581C43.2659 4.83581 43.3038 4.83581 43.3416 4.83581C43.3416 4.85448 43.3605 4.85448 43.3605 4.85448C43.3605 4.85448 43.3416 4.85448 43.3227 4.85448C43.2848 4.85448 43.247 4.85448 43.1903 4.85448C43.0769 4.85448 42.8879 4.85448 42.68 4.85448C42.2264 4.85448 41.5649 4.85448 40.7521 4.87315C39.1077 4.87315 36.8018 4.89182 34.1745 4.89182H34.1367V4.85448C34.1367 4.46237 34.1367 4.07026 34.1367 3.67816C34.1367 3.47277 34.1367 3.26738 34.1367 3.08066C34.1367 2.9873 34.1367 2.87527 34.1367 2.78191V2.63254V2.55785V2.52051V2.50184V2.48316C34.2312 2.3898 34.1556 2.46449 34.1934 2.44582C37.9547 2.44582 41.2813 2.46449 43.3794 2.46449H43.4172V2.50184C43.4172 3.26738 43.3983 3.86487 43.3983 4.27565C43.3983 4.48104 43.3983 4.63042 43.3983 4.74245C43.3983 4.79846 43.3983 4.83581 43.3983 4.85448C43.3605 4.85448 43.3605 4.85448 43.3605 4.85448Z" fill="#E0E0E0"/>
<path d="M44.6079 2.46465C44.6079 2.46465 44.6079 2.44598 44.6079 2.42731C44.6079 2.38996 44.6079 2.35262 44.6079 2.2966C44.6079 2.18457 44.6079 2.01653 44.6079 1.81114C44.6079 1.38169 44.589 0.802864 44.589 0.0559937L44.6268 0.0933372C43.1903 0.0933372 41.2435 0.0933372 39.1077 0.112009C39.0699 0.149352 39.1644 0.0559937 39.1455 0.0746654V0.0933372V0.112009V0.149352V0.224039V0.373414C39.1455 0.485444 39.1455 0.578803 39.1455 0.690834C39.1455 0.896223 39.1455 1.10161 39.1455 1.307C39.1455 1.71778 39.1455 2.09122 39.1455 2.46465L39.1077 2.42731C40.6954 2.42731 42.0752 2.44598 43.058 2.44598C43.5494 2.44598 43.9275 2.44598 44.211 2.46465C43.9275 2.46465 43.5494 2.46465 43.0769 2.48332C42.0941 2.48332 40.6954 2.50199 39.0888 2.50199H39.051V2.46465C39.051 2.09122 39.051 1.69911 39.051 1.307C39.051 1.10161 39.051 0.896223 39.051 0.690834C39.051 0.578803 39.051 0.485444 39.051 0.373414V0.224039V0.130681V0.0933372V0.0746654C39.0321 0.0933372 39.1455 -0.0186934 39.0888 0.0373219C41.2435 0.0373219 43.1903 0.0559937 44.6079 0.0559937H44.6457V0.0933372C44.6457 0.840208 44.6268 1.4377 44.6268 1.86715C44.6268 2.07254 44.6268 2.22192 44.6268 2.33395C44.6268 2.40864 44.6079 2.46465 44.6079 2.46465Z" fill="#E0E0E0"/>
<path d="M69.01 62.3447C69.01 62.4194 69.01 66.8073 69.01 66.8073H68.2539V67.2927H69.01V70.2802H83.1291V67.5541H82.0895V66.9567H83.1291V66.0978H83.6016V65.687H83.0535V62.3447H69.01Z" fill="#F5F5F5"/>
<path d="M79.3867 62.3634V70.2429H83.1291V67.5168H82.0896V66.9753L83.1291 66.994V66.0978L83.6017 66.1164V65.6496L83.0346 65.631V62.3447L79.3867 62.3634Z" fill="#E0E0E0"/>
<path d="M79.6506 67.2367C79.6506 67.2554 77.099 67.2927 73.9425 67.2927C70.786 67.2927 68.2344 67.274 68.2344 67.2367C68.2344 67.218 70.786 67.1807 73.9425 67.1807C77.0801 67.1807 79.6506 67.218 79.6506 67.2367Z" fill="#E0E0E0"/>
<path d="M79.6506 66.7884C79.6506 66.8071 77.099 66.8445 73.9425 66.8445C70.786 66.8445 68.2344 66.8258 68.2344 66.7884C68.2344 66.7698 70.786 66.7324 73.9425 66.7324C77.0801 66.7324 79.6506 66.7511 79.6506 66.7884Z" fill="#E0E0E0"/>
<path d="M80.3694 65.5565C80.3694 65.5752 77.8177 65.6125 74.6613 65.6125C71.5048 65.6125 68.9531 65.5939 68.9531 65.5565C68.9531 65.5378 71.5048 65.5005 74.6613 65.5005C77.8177 65.5192 80.3694 65.5378 80.3694 65.5565Z" fill="#E0E0E0"/>
<path d="M80.4436 68.8988C80.4436 68.9175 77.892 68.9548 74.7355 68.9548C71.579 68.9548 69.0273 68.9361 69.0273 68.8988C69.0273 68.8801 71.579 68.8428 74.7355 68.8428C77.892 68.8428 80.4436 68.8614 80.4436 68.8988Z" fill="#E0E0E0"/>
<path d="M70.0666 70.0754C70.0666 70.1501 70.0666 74.538 70.0666 74.538H69.3105V75.0234H70.0666V78.0109H84.1857V75.2849H83.1461V74.6874H84.1857V73.7911H84.6582V73.3803H84.1101V70.0381H70.0666V70.0754Z" fill="#F5F5F5"/>
<path d="M80.4434 70.0939V77.9734H84.1858V75.2473H83.1462V74.7058L84.1858 74.7245V73.8282H84.6583V73.3801L84.1102 73.3614V70.0752L80.4434 70.0939Z" fill="#E0E0E0"/>
<path d="M80.7073 74.9676C80.7073 74.9863 78.1556 75.0236 74.9991 75.0236C71.8427 75.0236 69.291 75.005 69.291 74.9676C69.291 74.949 71.8427 74.9116 74.9991 74.9116C78.1556 74.9116 80.7073 74.9303 80.7073 74.9676Z" fill="#E0E0E0"/>
<path d="M80.7073 74.5194C80.7073 74.5381 78.1556 74.5754 74.9991 74.5754C71.8427 74.5754 69.291 74.5567 69.291 74.5194C69.291 74.5007 71.8427 74.4634 74.9991 74.4634C78.1556 74.4634 80.7073 74.4821 80.7073 74.5194Z" fill="#E0E0E0"/>
<path d="M81.4456 73.287C81.4456 73.3056 78.8939 73.343 75.7374 73.343C72.5809 73.343 70.0293 73.3243 70.0293 73.287C70.0293 73.2683 72.5809 73.231 75.7374 73.231C78.8939 73.231 81.4456 73.2683 81.4456 73.287Z" fill="#E0E0E0"/>
<path d="M81.5198 76.6107C81.5198 76.6294 78.9681 76.6667 75.8116 76.6667C72.6552 76.6667 70.1035 76.648 70.1035 76.6107C70.1035 76.592 72.6552 76.5547 75.8116 76.5547C78.9492 76.5734 81.5198 76.592 81.5198 76.6107Z" fill="#E0E0E0"/>
<path d="M68.8381 77.6929C68.8381 77.7676 68.8381 82.1554 68.8381 82.1554H68.082V82.6409H68.8381V85.6284H82.9572V82.9023H81.9176V82.3048H82.9572V81.4086H83.4297V81.0351H82.8816V77.6929H68.8381Z" fill="#F5F5F5"/>
<path d="M79.1953 77.7115V85.591H82.9566V82.8649H81.9171V82.3235L82.9566 82.3421V81.4646H83.4292L83.4103 80.9978L82.8621 80.9791V77.6929L79.1953 77.7115Z" fill="#E0E0E0"/>
<path d="M79.4788 82.5848C79.4788 82.6035 76.9271 82.6408 73.7706 82.6408C70.6141 82.6408 68.0625 82.6222 68.0625 82.5848C68.0625 82.5661 70.6141 82.5288 73.7706 82.5288C76.9082 82.5288 79.4788 82.5661 79.4788 82.5848Z" fill="#E0E0E0"/>
<path d="M79.4788 82.1366C79.4788 82.1553 76.9271 82.1926 73.7706 82.1926C70.6141 82.1926 68.0625 82.1739 68.0625 82.1366C68.0625 82.1179 70.6141 82.0806 73.7706 82.0806C76.9082 82.0806 79.4788 82.0992 79.4788 82.1366Z" fill="#E0E0E0"/>
<path d="M80.1975 80.9046C80.1975 80.9233 77.6459 80.9607 74.4894 80.9607C71.3329 80.9607 68.7812 80.942 68.7812 80.9046C68.7812 80.886 71.3329 80.8486 74.4894 80.8486C77.6459 80.8673 80.1975 80.886 80.1975 80.9046Z" fill="#E0E0E0"/>
<path d="M80.2717 84.2469C80.2717 84.2656 77.7201 84.3029 74.5636 84.3029C71.4071 84.3029 68.8555 84.2843 68.8555 84.2469C68.8555 84.2283 71.4071 84.1909 74.5636 84.1909C77.7201 84.1909 80.2717 84.2096 80.2717 84.2469Z" fill="#E0E0E0"/>
<path d="M71.4084 55.4923C71.4084 55.567 71.4084 59.9549 71.4084 59.9549H70.6523V60.4403H71.4084V63.4278H85.5275V60.7017H84.488V60.1229H85.5275V59.2267H86V58.8159H85.433V55.4736H71.4084V55.4923Z" fill="#F5F5F5"/>
<path d="M81.7656 55.5109V63.3903H85.5269V60.6643H84.4874V60.1228L85.5269 60.1415V59.2452H85.9995V58.7971L85.4324 58.7784V55.4922L81.7656 55.5109Z" fill="#E0E0E0"/>
<path d="M82.0491 60.3841C82.0491 60.4028 79.4974 60.4402 76.3409 60.4402C73.1845 60.4402 70.6328 60.4215 70.6328 60.3841C70.6328 60.3655 73.1845 60.3281 76.3409 60.3281C79.4785 60.3281 82.0491 60.3468 82.0491 60.3841Z" fill="#E0E0E0"/>
<path d="M82.0491 59.9173C82.0491 59.936 79.4974 59.9734 76.3409 59.9734C73.1845 59.9734 70.6328 59.9547 70.6328 59.9173C70.6328 59.8987 73.1845 59.8613 76.3409 59.8613C79.4785 59.88 82.0491 59.8987 82.0491 59.9173Z" fill="#E0E0E0"/>
<path d="M82.7678 58.704C82.7678 58.7226 80.2162 58.76 77.0597 58.76C73.9032 58.76 71.3516 58.7413 71.3516 58.704C71.3516 58.6853 73.9032 58.6479 77.0597 58.6479C80.2162 58.6479 82.7678 58.6853 82.7678 58.704Z" fill="#E0E0E0"/>
<path d="M82.842 62.0277C82.842 62.0464 80.2904 62.0837 77.1339 62.0837C73.9774 62.0837 71.4258 62.065 71.4258 62.0277C71.4258 62.009 73.9774 61.9717 77.1339 61.9717C80.2904 61.9904 82.842 62.009 82.842 62.0277Z" fill="#E0E0E0"/>
<path d="M24.4963 70.1125C24.4963 70.1872 24.4963 74.5751 24.4963 74.5751H23.7402V75.0606H24.4963V78.048H38.6154V75.322H37.5758V74.7245H38.6154V73.8282H39.0879V73.4174H38.5398V70.0752H24.4963V70.1125Z" fill="#F5F5F5"/>
<path d="M34.873 70.131V78.0105H38.6155V75.3031H37.5759V74.7616L38.6155 74.7802V73.884H39.1069L39.088 73.4172H38.5399V70.1123L34.873 70.131Z" fill="#E0E0E0"/>
<path d="M35.137 75.0047C35.137 75.0234 32.5853 75.0608 29.4288 75.0608C26.2724 75.0608 23.7207 75.0421 23.7207 75.0047C23.7207 74.9861 26.2724 74.9487 29.4288 74.9487C32.5853 74.9674 35.137 74.9861 35.137 75.0047Z" fill="#E0E0E0"/>
<path d="M35.137 74.5565C35.137 74.5752 32.5853 74.6125 29.4288 74.6125C26.2724 74.6125 23.7207 74.5938 23.7207 74.5565C23.7207 74.5378 26.2724 74.5005 29.4288 74.5005C32.5853 74.5005 35.137 74.5378 35.137 74.5565Z" fill="#E0E0E0"/>
<path d="M35.8752 73.3426C35.8752 73.3613 33.3236 73.3987 30.1671 73.3987C27.0106 73.3987 24.459 73.38 24.459 73.3426C24.459 73.324 27.0106 73.2866 30.1671 73.2866C33.3236 73.2866 35.8752 73.3053 35.8752 73.3426Z" fill="#E0E0E0"/>
<path d="M35.9495 76.6664C35.9495 76.685 33.3978 76.7224 30.2413 76.7224C27.0849 76.7224 24.5332 76.7037 24.5332 76.6664C24.5332 76.6477 27.0849 76.6104 30.2413 76.6104C33.3789 76.6104 35.9495 76.6477 35.9495 76.6664Z" fill="#E0E0E0"/>
<path d="M25.5744 77.8428C25.5744 77.9175 25.5744 82.3053 25.5744 82.3053H24.8184V82.7908H25.5744V85.7783H39.6935V83.0522H38.654V82.4547H39.6935V81.5958H40.1661V81.185H39.6179V77.8428H25.5744Z" fill="#F5F5F5"/>
<path d="M35.9316 77.8614V85.7409H39.693V83.0149H38.6345V82.4734L39.693 82.492V81.6145H40.1655L40.1466 81.1477L39.5985 81.129V77.8428L35.9316 77.8614Z" fill="#E0E0E0"/>
<path d="M36.2151 82.7347C36.2151 82.7534 33.6634 82.7907 30.507 82.7907C27.3505 82.7907 24.7988 82.7721 24.7988 82.7347C24.7988 82.7161 27.3505 82.6787 30.507 82.6787C33.6445 82.6974 36.2151 82.7161 36.2151 82.7347Z" fill="#E0E0E0"/>
<path d="M36.2151 82.2865C36.2151 82.3052 33.6634 82.3425 30.507 82.3425C27.3505 82.3425 24.7988 82.3238 24.7988 82.2865C24.7988 82.2678 27.3505 82.2305 30.507 82.2305C33.6445 82.2305 36.2151 82.2491 36.2151 82.2865Z" fill="#E0E0E0"/>
<path d="M36.9338 81.0546C36.9338 81.0732 34.3822 81.1106 31.2257 81.1106C28.0692 81.1106 25.5176 81.0919 25.5176 81.0546C25.5176 81.0359 28.0692 80.9985 31.2257 80.9985C34.3822 81.0172 36.9338 81.0359 36.9338 81.0546Z" fill="#E0E0E0"/>
<path d="M37.0081 84.3968C37.0081 84.4155 34.4564 84.4528 31.2999 84.4528C28.1434 84.4528 25.5918 84.4342 25.5918 84.3968C25.5918 84.3782 28.1434 84.3408 31.2999 84.3408C34.4564 84.3408 37.0081 84.3595 37.0081 84.3968Z" fill="#E0E0E0"/>
<path d="M26.8967 63.26C26.8967 63.3347 26.8967 67.7226 26.8967 67.7226H26.1406V68.208H26.8967V71.1955H41.0158V68.4694H39.9762V67.8719H41.0158V66.9757H41.4883V66.5649H40.9402V63.2227H26.8967V63.26Z" fill="#F5F5F5"/>
<path d="M37.2734 63.2784V71.1579H41.0159V68.4318H39.9763V67.8904L41.0159 67.909V67.0315H41.4884V66.5647L40.9403 66.546V63.2598L37.2734 63.2784Z" fill="#E0E0E0"/>
<path d="M37.5374 68.1522C37.5374 68.1709 34.9857 68.2082 31.8292 68.2082C28.6727 68.2082 26.1211 68.1895 26.1211 68.1522C26.1211 68.1335 28.6727 68.0962 31.8292 68.0962C34.9857 68.1149 37.5374 68.1335 37.5374 68.1522Z" fill="#E0E0E0"/>
<path d="M37.5374 67.704C37.5374 67.7226 34.9857 67.76 31.8292 67.76C28.6727 67.76 26.1211 67.7413 26.1211 67.704C26.1211 67.6853 28.6727 67.6479 31.8292 67.6479C34.9857 67.6479 37.5374 67.6666 37.5374 67.704Z" fill="#E0E0E0"/>
<path d="M38.2756 66.4715C38.2756 66.4902 35.724 66.5276 32.5675 66.5276C29.411 66.5276 26.8594 66.5089 26.8594 66.4715C26.8594 66.4529 29.411 66.4155 32.5675 66.4155C35.724 66.4342 38.2756 66.4529 38.2756 66.4715Z" fill="#E0E0E0"/>
<path d="M38.3499 69.8138C38.3499 69.8325 35.7982 69.8698 32.6417 69.8698C29.4852 69.8698 26.9336 69.8512 26.9336 69.8138C26.9336 69.7952 29.4852 69.7578 32.6417 69.7578C35.7793 69.7578 38.3499 69.7765 38.3499 69.8138Z" fill="#E0E0E0"/>
<path d="M47.7059 77.8613C47.7059 77.936 47.7059 82.1932 47.7059 82.1932H46.9688V82.66H47.7059V85.5541H61.3903V82.9214H60.3696V82.3426H61.3903V81.4836H61.8439V81.0915H61.3147V77.8613H47.7059Z" fill="#F5F5F5"/>
<path d="M57.7598 77.88V85.5167H61.3888V82.884H60.387V82.3426L61.3888 82.3612V81.5023H61.8613L61.8424 81.0542H61.3132V77.8613L57.7598 77.88Z" fill="#E0E0E0"/>
<path d="M58.0253 82.6039C58.0253 82.6225 55.5492 82.6599 52.4872 82.6599C49.4253 82.6599 46.9492 82.6412 46.9492 82.6039C46.9492 82.5852 49.4253 82.5479 52.4872 82.5479C55.5492 82.5479 58.0253 82.5665 58.0253 82.6039Z" fill="#E0E0E0"/>
<path d="M58.0253 82.1556C58.0253 82.1743 55.5492 82.2116 52.4872 82.2116C49.4253 82.2116 46.9492 82.193 46.9492 82.1556C46.9492 82.137 49.4253 82.0996 52.4872 82.0996C55.5492 82.1183 58.0253 82.137 58.0253 82.1556Z" fill="#E0E0E0"/>
<path d="M58.7245 80.9798C58.7245 80.9985 56.2484 81.0359 53.1865 81.0359C50.1245 81.0359 47.6484 81.0172 47.6484 80.9798C47.6484 80.9612 50.1245 80.9238 53.1865 80.9238C56.2484 80.9238 58.7245 80.9425 58.7245 80.9798Z" fill="#E0E0E0"/>
<path d="M58.7987 84.2098C58.7987 84.2285 56.3227 84.2658 53.2607 84.2658C50.1987 84.2658 47.7227 84.2472 47.7227 84.2098C47.7227 84.1911 50.1987 84.1538 53.2607 84.1538C56.3227 84.1538 58.7987 84.1725 58.7987 84.2098Z" fill="#E0E0E0"/>
<path d="M3.13949 77.8613C3.13949 77.936 3.13949 82.1932 3.13949 82.1932H2.40234V82.66H3.13949V85.5541H16.8239V82.9214H15.8032V82.3426H16.8239V81.4836H17.2775V81.0915H16.7483V77.8613H3.13949Z" fill="#F5F5F5"/>
<path d="M13.1934 77.88V85.5167H16.8224V82.884H15.8017V82.3426L16.8224 82.3612V81.5023H17.276V81.0542H16.7468V77.8613L13.1934 77.88Z" fill="#E0E0E0"/>
<path d="M13.4393 82.6039C13.4393 82.6225 10.9633 82.6599 7.9013 82.6599C4.83932 82.6599 2.36328 82.6412 2.36328 82.6039C2.36328 82.5852 4.83932 82.5479 7.9013 82.5479C10.9633 82.5479 13.4393 82.5665 13.4393 82.6039Z" fill="#E0E0E0"/>
<path d="M13.4393 82.1556C13.4393 82.1743 10.9633 82.2116 7.9013 82.2116C4.83932 82.2116 2.36328 82.193 2.36328 82.1556C2.36328 82.137 4.83932 82.0996 7.9013 82.0996C10.9633 82.1183 13.4393 82.137 13.4393 82.1556Z" fill="#E0E0E0"/>
<path d="M14.1581 80.9794C14.1581 80.998 11.682 81.0354 8.62005 81.0354C5.55807 81.0354 3.08203 81.0167 3.08203 80.9794C3.08203 80.9607 5.55807 80.9233 8.62005 80.9233C11.682 80.9233 14.1581 80.942 14.1581 80.9794Z" fill="#E0E0E0"/>
<path d="M14.2323 84.2098C14.2323 84.2285 11.7562 84.2658 8.69427 84.2658C5.63229 84.2658 3.15625 84.2472 3.15625 84.2098C3.15625 84.1911 5.63229 84.1538 8.69427 84.1538C11.7562 84.1538 14.2323 84.1725 14.2323 84.2098Z" fill="#E0E0E0"/>
<path d="M84.6965 85.6288C84.6965 85.6474 65.8521 85.6848 42.6227 85.6848C19.3743 85.6848 0.548828 85.6661 0.548828 85.6288C0.548828 85.6101 19.3932 85.5728 42.6227 85.5728C65.871 85.5728 84.6965 85.5914 84.6965 85.6288Z" fill="#263238"/>
<path d="M72.5804 49.667C70.6903 50.6379 69.2349 52.2997 68.1765 54.1482C67.1369 55.9967 66.4565 58.0133 65.7949 60.0111L65.209 70.3553C67.4204 66.6396 69.1782 62.2891 69.6696 58.0133C69.1782 57.9759 68.6868 57.9199 68.1954 57.8826C69.1782 57.7332 70.0099 57.0237 70.5391 56.2021C71.0683 55.3619 71.3329 54.4096 71.5976 53.4574C70.9927 53.5507 70.4068 53.6254 69.8019 53.7188C71.2195 52.7852 72.2402 51.2914 72.5804 49.667Z" fill="#455A64"/>
<g opacity="0.3">
<path d="M72.5804 49.667C70.6903 50.6379 69.2349 52.2997 68.1765 54.1482C67.1369 55.9967 66.4565 58.0133 65.7949 60.0111L65.209 70.3553C67.4204 66.6396 69.1782 62.2891 69.6696 58.0133C69.1782 57.9759 68.6868 57.9199 68.1954 57.8826C69.1782 57.7332 70.0099 57.0237 70.5391 56.2021C71.0683 55.3619 71.3329 54.4096 71.5976 53.4574C70.9927 53.5507 70.4068 53.6254 69.8019 53.7188C71.2195 52.7852 72.2402 51.2914 72.5804 49.667Z" fill="black"/>
</g>
<path d="M64.8874 72.7641C64.8874 72.7641 60.1055 67.1065 60.1622 61.6917H62.0901C62.0901 61.6917 59.992 60.3287 60.1622 59.5632C60.3323 58.7976 60.389 55.9035 60.389 55.9035L62.1657 56.3329C62.1657 56.3329 60.8426 55.6794 60.6725 54.6338C60.5024 53.5882 61.0505 48.7896 61.0505 48.7896C61.0505 48.7896 63.2052 51.0302 63.8668 53.3268C64.5283 55.6234 66.2672 58.2935 65.7569 65.2767C65.2466 72.2973 64.8874 72.7641 64.8874 72.7641Z" fill="#455A64"/>
<path d="M67.3262 73.3058C67.3262 73.3058 72.524 69.8888 73.6581 65.5383L72.1082 65.1275C72.1082 65.1275 74.0928 64.4927 74.1306 63.8392C74.1684 63.1857 74.7543 60.8517 74.7543 60.8517L73.2422 60.8144C73.2422 60.8144 74.4519 60.5716 74.811 59.7687C75.1702 58.9659 75.7939 54.9888 75.7939 54.9888C75.7939 54.9888 73.5636 56.3145 72.524 58.0323C71.4844 59.7314 69.4998 61.5052 68.3469 67.2374C67.2317 72.951 67.3262 73.3058 67.3262 73.3058Z" fill="#455A64"/>
<path d="M62.3724 53.8124C62.3913 53.8497 62.3913 53.9057 62.4102 53.9804C62.448 54.1485 62.5047 54.3725 62.5614 54.6526C62.637 54.9513 62.7126 55.3061 62.7882 55.7169C62.8827 56.1277 62.9773 56.6131 63.0718 57.1359C63.2797 58.1816 63.4876 59.4326 63.7144 60.8329C63.9223 62.2333 64.1491 63.7644 64.3381 65.3889C64.5271 67.0133 64.6783 68.5631 64.7918 69.9634C64.9052 71.3825 64.9808 72.6522 65.0186 73.7165C65.0375 74.2579 65.0564 74.7247 65.0753 75.1542C65.0942 75.5836 65.0942 75.9384 65.0942 76.2371C65.0942 76.5359 65.0942 76.76 65.0942 76.928C65.0942 77.0027 65.0942 77.0587 65.0942 77.1147C65.0942 77.0774 65.0942 77.0027 65.0942 76.928C65.0942 76.76 65.0753 76.5359 65.0753 76.2371C65.0753 75.9384 65.0564 75.565 65.0375 75.1542C65.0186 74.7247 64.9997 74.2393 64.9619 73.7165C64.9052 72.6522 64.8296 71.3825 64.7162 69.9634C64.6027 68.5631 64.4515 67.0133 64.2625 65.3889C64.0735 63.7644 63.8656 62.2333 63.6388 60.8329C63.412 59.4326 63.2041 58.1816 63.0151 57.1359C62.9205 56.6131 62.826 56.1277 62.7504 55.7169C62.6748 55.3061 62.5992 54.9327 62.5425 54.6526C62.4858 54.3725 62.448 54.1298 62.4102 53.9804C62.3913 53.9057 62.3913 53.8497 62.3724 53.8124Z" fill="#263238"/>
<path d="M64.2257 76.2371C64.2257 76.2371 59.8406 71.3264 58.4798 68.3576L59.5004 67.9281C58.7633 68.0588 57.9883 67.7414 57.4213 67.256C56.8354 66.7705 56.4195 66.1356 56.0037 65.5195L57.3646 65.2954C56.136 64.9593 55.0587 64.1191 54.416 63.0361C56.0037 63.2975 57.4591 64.1564 58.6499 65.2394C59.6138 66.117 60.4266 67.1439 61.2204 68.1709C61.5984 68.675 61.9387 69.2165 62.2222 69.7953C62.9404 71.289 64.2257 74.4259 64.2257 76.2371Z" fill="#455A64"/>
<path d="M73.7323 57.8452C73.7323 57.8452 73.7323 57.8639 73.7134 57.9012C73.6945 57.9386 73.6756 57.9946 73.6378 58.0506C73.5811 58.1813 73.4866 58.368 73.3732 58.5921C73.1464 59.0589 72.8062 59.7497 72.4092 60.6086C71.5965 62.3078 70.538 64.6791 69.4985 67.3678C68.4589 70.0379 67.6273 72.5025 67.0602 74.295C66.7767 75.1913 66.5499 75.9195 66.4176 76.4236C66.342 76.6663 66.2853 76.8717 66.2475 77.0024C66.2286 77.0585 66.2097 77.1145 66.1908 77.1518C66.2097 77.1145 66.2097 77.0585 66.2286 77.0024C66.2664 76.8531 66.3231 76.6663 66.3798 76.4236C66.5121 75.9195 66.72 75.1913 67.0035 74.2764C67.5517 72.4839 68.3644 70.0005 69.4229 67.3305C70.4624 64.6604 71.5398 62.2704 72.3714 60.59C72.7873 59.7497 73.1275 59.0589 73.3732 58.5921C73.4866 58.368 73.5811 58.1813 73.6567 58.0506C73.6945 57.9946 73.7134 57.9572 73.7323 57.9199C73.7134 57.8639 73.7323 57.8452 73.7323 57.8452Z" fill="#263238"/>
<path d="M64.6051 78.3466C64.6051 78.3466 64.5862 78.3093 64.5862 78.2533C64.5673 78.1786 64.5673 78.1039 64.5484 77.9919C64.5106 77.7678 64.4539 77.4317 64.3783 77.0396C64.3027 76.6288 64.1892 76.162 64.038 75.6392C63.8868 75.1164 63.7167 74.5563 63.4899 73.9588C63.2631 73.3799 63.0174 72.8385 62.7906 72.3343C62.5449 71.8489 62.318 71.4194 62.1101 71.0646C61.9022 70.7099 61.7321 70.4298 61.5998 70.2431C61.5431 70.1497 61.5053 70.075 61.4675 70.019C61.4297 69.963 61.4297 69.9443 61.4297 69.9443C61.4297 69.9443 61.4486 69.963 61.4864 70.019C61.5242 70.075 61.5809 70.1497 61.6376 70.2244C61.7699 70.4111 61.9589 70.6912 62.1668 71.046C62.3936 71.4007 62.6205 71.8302 62.8662 72.3156C63.1119 72.8011 63.3576 73.3426 63.5844 73.9401C63.8112 74.5189 63.9813 75.0977 64.1325 75.6205C64.2649 76.1434 64.3783 76.6288 64.4539 77.0209C64.5295 77.4317 64.5673 77.7491 64.5862 77.9919C64.6051 78.1039 64.6051 78.1786 64.6051 78.2533C64.6051 78.3093 64.6051 78.3466 64.6051 78.3466Z" fill="#263238"/>
<path d="M70.368 77.189H60.7852V79.1308H70.368V77.189Z" fill="url(#paint0_linear_1638_3544)"/>
<path d="M61.7129 79.1123L62.7525 85.6287H68.5362L69.5001 79.1123H61.7129Z" fill="url(#paint1_linear_1638_3544)"/>
<path d="M69.8026 79.1127C69.8026 79.1313 67.9881 79.1687 65.7577 79.1687C63.5274 79.1687 61.7129 79.15 61.7129 79.1127C61.7129 79.0753 63.5274 79.0566 65.7577 79.0566C67.9881 79.0753 69.8026 79.094 69.8026 79.1127Z" fill="#263238"/>
<path d="M75.1692 38.9305H59.0277C59.0277 30.9017 52.3745 24.1798 44.247 24.1798C36.1196 24.1798 29.4853 30.9017 29.4853 38.9305H13.3438C13.3438 22.0886 27.2172 8.1968 44.2659 8.1968C61.3147 8.17812 75.1692 22.0886 75.1692 38.9305Z" fill="#E0E0E0"/>
<path d="M44.2659 10.1763C41.0717 10.1763 38.0097 10.6804 35.1367 11.6327L39.1059 23.8067C40.7314 23.2652 42.4703 22.9664 44.2659 22.9664C46.2317 22.9664 48.1029 23.3212 49.8607 23.956L53.9811 11.8381C50.938 10.7551 47.6681 10.1763 44.2659 10.1763Z" fill="url(#paint2_linear_1638_3544)"/>
<path d="M73.375 38.9305C73.375 33.0303 71.5794 27.5594 68.4796 22.9849L58.084 30.659C59.5772 33.0676 60.4277 35.9057 60.4277 38.9305H73.375Z" fill="url(#paint3_linear_1638_3544)"/>
<path d="M15.1582 38.9307H28.1055C28.1055 35.8872 28.9749 33.0305 30.487 30.6218L20.1859 22.7983C17.0105 27.3916 15.1582 32.9558 15.1582 38.9307Z" fill="url(#paint4_linear_1638_3544)"/>
<path d="M20.1855 22.7985L30.4866 30.622C32.4524 27.4665 35.4954 25.0205 39.1055 23.8068L35.1363 11.6328C28.9935 13.6307 23.7579 17.6078 20.1855 22.7985Z" fill="url(#paint5_linear_1638_3544)"/>
<path d="M53.9818 11.8193L49.8613 23.9373C53.3013 25.1883 56.2121 27.5783 58.0833 30.6405L68.4789 22.9664C65.02 17.869 59.9356 13.9106 53.9818 11.8193Z" fill="url(#paint6_linear_1638_3544)"/>
<g opacity="0.5">
<path d="M15.1582 38.9307H28.1055C28.1055 35.8872 28.9749 33.0305 30.487 30.6218L20.1859 22.7983C17.0105 27.3916 15.1582 32.9558 15.1582 38.9307Z" fill="white"/>
</g>
<g opacity="0.3">
<path d="M20.1855 22.798L30.4866 30.6215C32.4524 27.466 35.4954 25.02 39.1055 23.8063L35.1363 11.6323C28.9935 13.6302 23.7579 17.6073 20.1855 22.798Z" fill="white"/>
</g>
<g opacity="0.3">
<path d="M53.9798 11.8193L49.8594 23.9373C53.2994 25.1883 56.2101 27.5783 58.0814 30.6405L68.477 22.9664C65.0181 17.869 59.9337 13.9106 53.9798 11.8193Z" fill="black"/>
</g>
<g opacity="0.5">
<path d="M73.373 38.9305C73.373 33.0303 71.5774 27.5594 68.4776 22.9849L58.082 30.659C59.5752 33.0676 60.4258 35.9057 60.4258 38.9305H73.373Z" fill="black"/>
</g>
<path d="M68.4789 22.9848C68.4789 22.9848 68.7057 23.3022 69.1026 23.9371C69.4996 24.5719 70.0666 25.5429 70.6903 26.8499C70.8415 27.186 71.0116 27.5221 71.1628 27.8955C71.2385 28.0822 71.3141 28.2689 71.4086 28.4743C71.4842 28.6797 71.5598 28.8851 71.6354 29.0905C71.8055 29.5013 71.9378 29.9494 72.089 30.3975C72.1646 30.6216 72.2213 30.8643 72.2969 31.107C72.3347 31.2191 72.3725 31.3498 72.4103 31.4805C72.4481 31.6112 72.467 31.7232 72.5048 31.8539C72.7694 32.8622 72.9963 33.9638 73.1475 35.1401C73.2987 36.3165 73.3932 37.5861 73.4121 38.9118V38.9492H73.3743C69.613 38.9492 65.2468 38.9492 60.427 38.9492H60.3892V38.9118C60.3892 37.2314 60.1246 35.4949 59.5198 33.7958C58.9338 32.0966 58.0266 30.4349 56.8169 28.9411C55.6072 27.4474 54.0763 26.1404 52.3185 25.1321C51.4301 24.6279 50.485 24.1985 49.5022 23.8624C48.5193 23.5263 47.4798 23.2836 46.4213 23.1342C44.3044 22.8541 42.093 22.9848 39.9571 23.5823C38.8798 23.8811 37.8402 24.2919 36.8385 24.796C35.8367 25.3188 34.8727 25.935 34.0033 26.6632C32.2266 28.1009 30.7523 29.9494 29.7316 32.0593C28.711 34.1692 28.1629 36.5219 28.1629 38.9118V38.9679H28.1061C27.0855 38.9679 25.9892 38.9679 24.893 38.9679C21.5664 38.9679 18.2776 38.9679 15.1589 38.9679H15.1211V38.9118C15.1211 36.3165 15.4802 33.7771 16.1418 31.3498C16.8222 28.9224 17.805 26.6445 19.0336 24.5346C20.2622 22.4433 21.7365 20.5388 23.3809 18.877C24.1936 18.0368 25.0631 17.2713 25.9514 16.5617C26.8398 15.8335 27.7659 15.1987 28.711 14.6012C30.6011 13.4249 32.5668 12.4726 34.5703 11.7818C36.5549 11.0722 38.5585 10.6241 40.5242 10.3627C44.4367 9.85858 48.1602 10.176 51.3923 10.9976C54.6433 11.8004 57.3839 13.0888 59.6332 14.4705C60.7483 15.1614 61.7501 15.8709 62.6195 16.5804C63.5079 17.2713 64.245 17.9808 64.9066 18.6156C65.5492 19.2691 66.0974 19.8666 66.5699 20.4081C66.7967 20.6882 67.0046 20.9309 67.1936 21.155C67.3826 21.3977 67.5338 21.6031 67.685 21.7898C67.8363 21.9766 67.9497 22.1446 68.0631 22.294C68.1765 22.4433 68.2521 22.574 68.3277 22.6674C68.4033 22.8728 68.4789 22.9848 68.4789 22.9848C68.4789 22.9848 68.4033 22.8915 68.2521 22.6861C68.1765 22.5927 68.1009 22.462 67.9875 22.3126C67.8741 22.1633 67.7607 21.9952 67.6094 21.8085C67.0424 21.043 66.1352 19.9413 64.831 18.6343C64.1694 17.9995 63.4323 17.2899 62.5439 16.5991C61.6745 15.9082 60.6727 15.18 59.5576 14.5078C57.3272 13.1448 54.5677 11.8565 51.3356 11.0722C48.1035 10.2694 44.3989 9.95194 40.4864 10.4561C38.5396 10.6988 36.536 11.1656 34.5514 11.8751C32.5668 12.566 30.6011 13.5182 28.711 14.6759C27.7848 15.2734 26.8398 15.9082 25.9703 16.6364C25.082 17.3646 24.2125 18.1115 23.4187 18.9517C21.7932 20.6135 20.3189 22.4994 19.0903 24.5906C17.8807 26.6818 16.8978 28.9598 16.2174 31.3871C15.5558 33.7958 15.2156 36.3538 15.1967 38.9305L15.14 38.8745C18.2398 38.8745 21.5286 38.8745 24.8741 38.8745C25.9703 38.8745 27.0666 38.8745 28.0872 38.8745L28.0305 38.9305C28.0305 36.5219 28.5787 34.1505 29.6182 32.0406C30.6389 29.9307 32.1321 28.0635 33.9088 26.6071C34.7971 25.879 35.7611 25.2441 36.7628 24.74C37.7646 24.2172 38.8231 23.8064 39.9004 23.5076C42.0552 22.9101 44.2855 22.7794 46.4024 23.0595C47.4609 23.2089 48.5004 23.4516 49.5022 23.7877C50.485 24.1238 51.449 24.5533 52.3374 25.0574C54.1141 26.0843 55.645 27.3914 56.8547 28.8851C58.0833 30.3788 58.9905 32.0406 59.5765 33.7584C60.1813 35.4762 60.427 37.2314 60.4459 38.9118L60.4081 38.8745C65.2279 38.8745 69.5941 38.8745 73.3554 38.8745L73.3176 38.9118C73.3176 37.5861 73.2231 36.3165 73.0719 35.1401C72.9207 33.9638 72.6938 32.8622 72.4292 31.8539C72.3914 31.7232 72.3725 31.6112 72.3347 31.4805C72.2969 31.3498 72.2591 31.2377 72.2213 31.107C72.1457 30.8643 72.089 30.6216 72.0134 30.3975C71.8622 29.9494 71.7299 29.5013 71.5598 29.0905C71.4842 28.8851 71.4086 28.6797 71.333 28.4743C71.2574 28.2876 71.1818 28.0822 71.0872 27.8955C70.936 27.5221 70.7659 27.1673 70.6147 26.8499C69.991 25.5429 69.4239 24.5719 69.0459 23.9371C68.8569 23.6197 68.6868 23.3769 68.5923 23.2089C68.5356 23.0595 68.4789 22.9848 68.4789 22.9848Z" fill="#263238"/>
<path d="M17.0293 35.6069L17.1427 35.1401L18.8249 35.5509L19.0895 34.5239L19.4864 34.6173L19.1084 36.111L17.0293 35.6069Z" fill="white"/>
<path d="M19.5627 33.9827C19.4115 34.1134 19.2603 34.2067 19.0713 34.2627C18.8822 34.3001 18.6932 34.3001 18.4853 34.2441C18.2774 34.188 18.1262 34.076 17.9939 33.9266C17.8616 33.7773 17.786 33.6092 17.7482 33.4225C17.7104 33.2358 17.7293 33.0304 17.786 32.825C17.8427 32.6196 17.9561 32.4516 18.1073 32.3022C18.2585 32.1715 18.4097 32.0781 18.5987 32.0221C18.7877 31.9848 18.9768 31.9848 19.1847 32.0408C19.3926 32.0968 19.5438 32.2088 19.6761 32.3582C19.8084 32.5076 19.884 32.6756 19.9218 32.8623C19.9596 33.0491 19.9407 33.2545 19.884 33.4598C19.8084 33.6652 19.695 33.8333 19.5627 33.9827ZM19.4871 32.9744C19.4682 32.8623 19.4115 32.769 19.3359 32.6756C19.2603 32.5823 19.1469 32.5263 19.0335 32.4889C18.9011 32.4516 18.7877 32.4516 18.6743 32.4702C18.5609 32.4889 18.4664 32.5449 18.3719 32.6196C18.2774 32.6943 18.2207 32.7877 18.1829 32.9184C18.1451 33.0304 18.1451 33.1611 18.164 33.2731C18.1829 33.3852 18.2396 33.4785 18.3152 33.5719C18.3908 33.6652 18.5042 33.7213 18.6176 33.7586C18.7499 33.7959 18.8633 33.7959 18.9768 33.7773C19.0902 33.7586 19.1847 33.7026 19.2792 33.6279C19.3737 33.5532 19.4304 33.4598 19.4682 33.3291C19.506 33.2171 19.506 33.0864 19.4871 32.9744Z" fill="white"/>
<path d="M19.4851 28.3623L21.2051 29.7814L20.9972 30.2668L19.4851 30.1548L20.6381 31.1257L20.4491 31.6112L18.2188 31.4618L18.4078 30.995L19.9766 31.1071L18.7669 30.0988L18.937 29.688L20.5247 29.8L19.315 28.7918L19.4851 28.3623Z" fill="white"/>
<path d="M39.4082 14.6014L39.1436 13.369L38.7466 14.508L38.5387 14.5453L37.7071 13.6864L37.9717 14.9001L37.5181 14.9935L37.0645 12.9396L37.4614 12.8462L38.5198 13.9665L39.0113 12.5288L39.4082 12.4541L39.8618 14.508L39.4082 14.6014Z" fill="white"/>
<path d="M41.9037 13.873L41.9415 14.2651L40.2971 14.4518L40.0703 12.3605L41.6769 12.1738L41.7147 12.5659L40.5995 12.6966L40.6562 13.1448L41.6391 13.0327L41.6769 13.4062L40.694 13.5182L40.7508 14.0037L41.9037 13.873Z" fill="white"/>
<path d="M42.2246 12.1365L43.1886 12.0991C43.4154 12.0991 43.6233 12.1178 43.8123 12.2112C44.0013 12.2858 44.1336 12.4165 44.247 12.5659C44.3604 12.7153 44.4171 12.902 44.4171 13.1074C44.4171 13.3128 44.3793 13.4995 44.2848 13.6675C44.1903 13.8356 44.058 13.9663 43.8879 14.0597C43.7178 14.153 43.5099 14.209 43.2831 14.209L42.3191 14.2464L42.2246 12.1365ZM43.2264 13.7983C43.4343 13.7983 43.6044 13.7236 43.7367 13.5929C43.8501 13.4622 43.9068 13.3128 43.9068 13.1074C43.9068 12.902 43.8312 12.7526 43.6989 12.6406C43.5666 12.5286 43.3965 12.4726 43.1886 12.4912L42.7349 12.5099L42.7916 13.8169L43.2264 13.7983Z" fill="white"/>
<path d="M44.8327 12.062L45.3242 12.0807L45.2864 14.1906L44.7949 14.1719L44.8327 12.062Z" fill="white"/>
<path d="M46.0037 13.9851C45.8525 13.7984 45.7769 13.5556 45.7958 13.2569L45.8903 12.0806L46.3818 12.1179L46.3062 13.2756C46.2873 13.649 46.4196 13.8544 46.7409 13.8731C46.8921 13.8917 47.0244 13.8544 47.1 13.761C47.1945 13.6677 47.2323 13.537 47.2512 13.3502L47.3268 12.1926L47.8182 12.2299L47.7237 13.4063C47.7048 13.705 47.5914 13.9477 47.4213 14.0971C47.2323 14.2465 47.0055 14.3212 46.7031 14.3025C46.4007 14.2652 46.1738 14.1531 46.0037 13.9851Z" fill="white"/>
<path d="M50.0106 14.6757L50.2185 13.4247L49.4246 14.3397L49.1978 14.3023L48.7631 13.2007L48.5552 14.4143L48.1016 14.3397L48.4607 12.2671L48.8576 12.3418L49.4246 13.7608L50.4264 12.6032L50.8233 12.6779L50.4642 14.7504L50.0106 14.6757Z" fill="white"/>
<path d="M69.8761 30.416L67.8914 31.1816L67.7024 30.7334L68.5152 30.416L68.1561 29.5198L67.3433 29.8372L67.1543 29.3891L69.1389 28.6235L69.3279 29.0717L68.553 29.3704L68.9121 30.2667L69.687 29.9679L69.8761 30.416Z" fill="white"/>
<path d="M70.0654 30.958L70.2166 31.4248L68.1942 32.097L68.043 31.6302L70.0654 30.958Z" fill="white"/>
<path d="M69.8205 33.609L69.9528 34.0385L69.1212 34.2812C69.0078 34.1878 68.8944 34.0945 68.8187 33.9638C68.7242 33.8331 68.6675 33.7024 68.6297 33.553C68.573 33.3476 68.5541 33.1422 68.5919 32.9555C68.6297 32.7688 68.7242 32.6007 68.8565 32.4514C68.9889 32.302 69.159 32.2086 69.3669 32.1526C69.5748 32.0966 69.7638 32.0966 69.9528 32.1339C70.1418 32.19 70.3119 32.2833 70.4442 32.414C70.5766 32.5634 70.69 32.7314 70.7467 32.9555C70.8034 33.1235 70.8223 33.3103 70.8034 33.4596C70.7845 33.6277 70.7278 33.7771 70.6522 33.9078L70.2741 33.6837C70.3875 33.497 70.4064 33.2916 70.3497 33.0862C70.3119 32.9555 70.2552 32.8435 70.1607 32.7688C70.0851 32.6754 69.9717 32.6194 69.8583 32.6007C69.7449 32.5821 69.6126 32.5821 69.4992 32.6194C69.3669 32.6567 69.2724 32.7128 69.1779 32.8061C69.1023 32.8995 69.0456 32.9928 69.0078 33.1049C68.9889 33.2169 68.9889 33.3476 69.0267 33.4596C69.0645 33.5903 69.1401 33.7024 69.2157 33.7957L69.8205 33.609Z" fill="white"/>
<path d="M71.5021 36.186L69.423 36.6341L69.3096 36.1674L70.1602 35.9806L69.9522 35.047L69.1017 35.2338L68.9883 34.767L71.0674 34.3188L71.1808 34.7856L70.3681 34.9537L70.576 35.8873L71.3887 35.7192L71.5021 36.186Z" fill="white"/>
<path d="M17.0293 35.6069L17.1427 35.1401L18.8249 35.5509L19.0895 34.5239L19.4864 34.6173L19.1084 36.111L17.0293 35.6069Z" fill="white"/>
<path d="M19.5627 33.9827C19.4115 34.1134 19.2603 34.2067 19.0713 34.2627C18.8822 34.3001 18.6932 34.3001 18.4853 34.2441C18.2774 34.188 18.1262 34.076 17.9939 33.9266C17.8616 33.7773 17.786 33.6092 17.7482 33.4225C17.7104 33.2358 17.7293 33.0304 17.786 32.825C17.8427 32.6196 17.9561 32.4516 18.1073 32.3022C18.2585 32.1715 18.4097 32.0781 18.5987 32.0221C18.7877 31.9848 18.9768 31.9848 19.1847 32.0408C19.3926 32.0968 19.5438 32.2088 19.6761 32.3582C19.8084 32.5076 19.884 32.6756 19.9218 32.8623C19.9596 33.0491 19.9407 33.2545 19.884 33.4598C19.8084 33.6652 19.695 33.8333 19.5627 33.9827ZM19.4871 32.9744C19.4682 32.8623 19.4115 32.769 19.3359 32.6756C19.2603 32.5823 19.1469 32.5263 19.0335 32.4889C18.9011 32.4516 18.7877 32.4516 18.6743 32.4702C18.5609 32.4889 18.4664 32.5449 18.3719 32.6196C18.2774 32.6943 18.2207 32.7877 18.1829 32.9184C18.1451 33.0304 18.1451 33.1611 18.164 33.2731C18.1829 33.3852 18.2396 33.4785 18.3152 33.5719C18.3908 33.6652 18.5042 33.7213 18.6176 33.7586C18.7499 33.7959 18.8633 33.7959 18.9768 33.7773C19.0902 33.7586 19.1847 33.7026 19.2792 33.6279C19.3737 33.5532 19.4304 33.4598 19.4682 33.3291C19.506 33.2171 19.506 33.0864 19.4871 32.9744Z" fill="white"/>
<path d="M19.4851 28.3623L21.2051 29.7814L20.9972 30.2668L19.4851 30.1548L20.6381 31.1257L20.4491 31.6112L18.2188 31.4618L18.4078 30.995L19.9766 31.1071L18.7669 30.0988L18.937 29.688L20.5247 29.8L19.315 28.7918L19.4851 28.3623Z" fill="white"/>
<path d="M39.4082 14.6014L39.1436 13.369L38.7466 14.508L38.5387 14.5453L37.7071 13.6864L37.9717 14.9001L37.5181 14.9935L37.0645 12.9396L37.4614 12.8462L38.5198 13.9665L39.0113 12.5288L39.4082 12.4541L39.8618 14.508L39.4082 14.6014Z" fill="white"/>
<path d="M41.9037 13.873L41.9415 14.2651L40.2971 14.4518L40.0703 12.3605L41.6769 12.1738L41.7147 12.5659L40.5995 12.6966L40.6562 13.1448L41.6391 13.0327L41.6769 13.4062L40.694 13.5182L40.7508 14.0037L41.9037 13.873Z" fill="white"/>
<path d="M42.2246 12.1365L43.1886 12.0991C43.4154 12.0991 43.6233 12.1178 43.8123 12.2112C44.0013 12.2858 44.1336 12.4165 44.247 12.5659C44.3604 12.7153 44.4171 12.902 44.4171 13.1074C44.4171 13.3128 44.3793 13.4995 44.2848 13.6675C44.1903 13.8356 44.058 13.9663 43.8879 14.0597C43.7178 14.153 43.5099 14.209 43.2831 14.209L42.3191 14.2464L42.2246 12.1365ZM43.2264 13.7983C43.4343 13.7983 43.6044 13.7236 43.7367 13.5929C43.8501 13.4622 43.9068 13.3128 43.9068 13.1074C43.9068 12.902 43.8312 12.7526 43.6989 12.6406C43.5666 12.5286 43.3965 12.4726 43.1886 12.4912L42.7349 12.5099L42.7916 13.8169L43.2264 13.7983Z" fill="white"/>
<path d="M44.8327 12.062L45.3242 12.0807L45.2864 14.1906L44.7949 14.1719L44.8327 12.062Z" fill="white"/>
<path d="M46.0037 13.9851C45.8525 13.7984 45.7769 13.5556 45.7958 13.2569L45.8903 12.0806L46.3818 12.1179L46.3062 13.2756C46.2873 13.649 46.4196 13.8544 46.7409 13.8731C46.8921 13.8917 47.0244 13.8544 47.1 13.761C47.1945 13.6677 47.2323 13.537 47.2512 13.3502L47.3268 12.1926L47.8182 12.2299L47.7237 13.4063C47.7048 13.705 47.5914 13.9477 47.4213 14.0971C47.2323 14.2465 47.0055 14.3212 46.7031 14.3025C46.4007 14.2652 46.1738 14.1531 46.0037 13.9851Z" fill="white"/>
<path d="M50.0106 14.6757L50.2185 13.4247L49.4246 14.3397L49.1978 14.3023L48.7631 13.2007L48.5552 14.4143L48.1016 14.3397L48.4607 12.2671L48.8576 12.3418L49.4246 13.7608L50.4264 12.6032L50.8233 12.6779L50.4642 14.7504L50.0106 14.6757Z" fill="white"/>
<path d="M69.8761 30.416L67.8914 31.1816L67.7024 30.7334L68.5152 30.416L68.1561 29.5198L67.3433 29.8372L67.1543 29.3891L69.1389 28.6235L69.3279 29.0717L68.553 29.3704L68.9121 30.2667L69.687 29.9679L69.8761 30.416Z" fill="white"/>
<path d="M70.0654 30.958L70.2166 31.4248L68.1942 32.097L68.043 31.6302L70.0654 30.958Z" fill="white"/>
<path d="M69.8205 33.609L69.9528 34.0385L69.1212 34.2812C69.0078 34.1878 68.8944 34.0945 68.8187 33.9638C68.7242 33.8331 68.6675 33.7024 68.6297 33.553C68.573 33.3476 68.5541 33.1422 68.5919 32.9555C68.6297 32.7688 68.7242 32.6007 68.8565 32.4514C68.9889 32.302 69.159 32.2086 69.3669 32.1526C69.5748 32.0966 69.7638 32.0966 69.9528 32.1339C70.1418 32.19 70.3119 32.2833 70.4442 32.414C70.5766 32.5634 70.69 32.7314 70.7467 32.9555C70.8034 33.1235 70.8223 33.3103 70.8034 33.4596C70.7845 33.6277 70.7278 33.7771 70.6522 33.9078L70.2741 33.6837C70.3875 33.497 70.4064 33.2916 70.3497 33.0862C70.3119 32.9555 70.2552 32.8435 70.1607 32.7688C70.0851 32.6754 69.9717 32.6194 69.8583 32.6007C69.7449 32.5821 69.6126 32.5821 69.4992 32.6194C69.3669 32.6567 69.2724 32.7128 69.1779 32.8061C69.1023 32.8995 69.0456 32.9928 69.0078 33.1049C68.9889 33.2169 68.9889 33.3476 69.0267 33.4596C69.0645 33.5903 69.1401 33.7024 69.2157 33.7957L69.8205 33.609Z" fill="white"/>
<path d="M71.5021 36.186L69.423 36.6341L69.3096 36.1674L70.1602 35.9806L69.9522 35.047L69.1017 35.2338L68.9883 34.767L71.0674 34.3188L71.1808 34.7856L70.3681 34.9537L70.576 35.8873L71.3887 35.7192L71.5021 36.186Z" fill="white"/>
<path d="M50.3294 35.9352C50.7036 34.3802 49.7309 32.8198 48.1567 32.4501C46.5826 32.0804 45.0031 33.0414 44.6288 34.5964C44.2546 36.1515 45.2273 37.7118 46.8014 38.0815C48.3756 38.4512 49.9551 37.4903 50.3294 35.9352Z" fill="#263238"/>
<path d="M24.5163 27.6528C24.3651 28.0262 24.573 28.4557 24.9699 28.5864L47.4811 36.8953L48.7286 33.9825L25.4424 27.2233C25.0644 27.1113 24.6486 27.298 24.5163 27.6528Z" fill="#263238"/>
<path d="M50.3294 35.9352C50.7036 34.3802 49.7309 32.8198 48.1567 32.4501C46.5826 32.0804 45.0031 33.0414 44.6288 34.5964C44.2546 36.1515 45.2273 37.7118 46.8014 38.0815C48.3756 38.4512 49.9551 37.4903 50.3294 35.9352Z" fill="#263238"/>
<path d="M24.5163 27.6528C24.3651 28.0262 24.573 28.4557 24.9699 28.5864L47.4811 36.8953L48.7286 33.9825L25.4424 27.2233C25.0644 27.1113 24.6486 27.298 24.5163 27.6528Z" fill="#263238"/>
<path d="M42.3958 34.711C42.3958 34.599 42.3958 34.4869 42.3958 34.3749C42.3958 34.3189 42.4147 34.2629 42.4147 34.2068C42.3958 34.3002 42.4147 34.1695 42.4336 34.1322C42.4525 34.0201 42.4903 33.9081 42.5092 33.8147C42.5281 33.7587 42.547 33.7027 42.5659 33.6467C42.5659 33.628 42.5848 33.5907 42.5848 33.572C42.6226 33.4973 42.5659 33.6093 42.5848 33.5533C42.6793 33.3479 42.7927 33.1612 42.925 32.9745C42.925 32.9745 42.9817 32.8998 42.9439 32.9372C42.9061 32.9745 42.9628 32.9185 42.9628 32.8998C43.0006 32.8625 43.0384 32.8065 43.0762 32.7691C43.1518 32.6758 43.2463 32.6011 43.3408 32.5264C43.5298 32.377 43.5109 32.0222 43.3408 31.8729C43.1329 31.6862 42.8683 31.7048 42.6793 31.8729C41.8665 32.5637 41.394 33.6467 41.4318 34.6923C41.4507 34.935 41.6397 35.1778 41.9043 35.1591C42.1689 35.1778 42.4147 34.9724 42.3958 34.711Z" fill="#B56F57"/>
<path d="M42.3949 34.2628C42.376 34.2815 42.187 34.2068 41.9413 34.1881C41.6956 34.1508 41.4877 34.1881 41.4688 34.1508C41.4688 34.1321 41.6767 34.0574 41.9413 34.0948C42.2248 34.1135 42.4138 34.2442 42.3949 34.2628Z" fill="#263238"/>
<path d="M42.622 33.5162C42.6031 33.5348 42.433 33.4041 42.2062 33.2921C41.9794 33.1801 41.7715 33.1427 41.7715 33.124C41.7715 33.1054 41.9983 33.0867 42.244 33.2174C42.5086 33.3108 42.6409 33.4975 42.622 33.5162Z" fill="#263238"/>
<path d="M42.9812 32.9742C42.9623 32.9928 42.8489 32.8061 42.6599 32.6381C42.4709 32.47 42.3008 32.358 42.3008 32.3393C42.3008 32.3207 42.5276 32.3767 42.7166 32.5634C42.9245 32.7501 43.0001 32.9555 42.9812 32.9742Z" fill="#263238"/>
<path d="M39.3352 33.6465C39.3352 33.5345 39.3352 33.4225 39.3352 33.3104C39.3352 33.2544 39.3541 33.1984 39.3541 33.1424C39.3352 33.2357 39.3541 33.105 39.373 33.0677C39.3919 32.9557 39.4297 32.8436 39.4486 32.7503C39.4675 32.6943 39.4864 32.6383 39.5053 32.5822C39.5053 32.5636 39.5242 32.5262 39.5242 32.5076C39.562 32.4329 39.5053 32.5449 39.5242 32.4889C39.6187 32.2835 39.7321 32.0968 39.8644 31.9101C39.8644 31.9101 39.9211 31.8354 39.8833 31.8727C39.8455 31.9101 39.9022 31.854 39.9022 31.8354C39.94 31.798 39.9778 31.742 40.0156 31.7047C40.0912 31.6113 40.1858 31.5366 40.2803 31.4619C40.4693 31.3126 40.4504 30.9578 40.2803 30.8084C40.0723 30.6217 39.8077 30.6404 39.6187 30.8084C38.806 31.4993 38.3334 32.5822 38.3712 33.6279C38.3902 33.8706 38.5792 34.1133 38.8438 34.0947C39.1084 34.0947 39.3541 33.9079 39.3352 33.6465Z" fill="#B56F57"/>
<path d="M39.3344 33.1798C39.3155 33.1985 39.1264 33.1238 38.8807 33.1051C38.635 33.0678 38.4271 33.1051 38.4082 33.0678C38.4082 33.0491 38.6161 32.9744 38.8807 33.0118C39.1642 33.0491 39.3533 33.1611 39.3344 33.1798Z" fill="#263238"/>
<path d="M39.581 32.4331C39.5621 32.4518 39.392 32.3211 39.1652 32.2091C38.9384 32.097 38.7305 32.0597 38.7305 32.041C38.7305 32.0224 38.9573 32.0037 39.203 32.1344C39.4487 32.2464 39.5999 32.4145 39.581 32.4331Z" fill="#263238"/>
<path d="M39.9207 31.8912C39.9018 31.9098 39.7884 31.7231 39.5994 31.5551C39.4103 31.387 39.2402 31.275 39.2402 31.2563C39.2402 31.2377 39.467 31.2937 39.6561 31.4804C39.864 31.6671 39.9396 31.8725 39.9207 31.8912Z" fill="#263238"/>
<path d="M43.6067 35.1402C43.6067 35.0282 43.6067 34.9161 43.6067 34.8041C43.6067 34.7481 43.6256 34.6921 43.6256 34.636C43.6067 34.7294 43.6256 34.5987 43.6445 34.5614C43.6634 34.4493 43.7012 34.3373 43.7201 34.2439C43.739 34.1879 43.7579 34.1319 43.7768 34.0759C43.7768 34.0572 43.7957 34.0199 43.7957 34.0012C43.8335 33.9265 43.7768 34.0385 43.7957 33.9825C43.8902 33.7771 44.0036 33.5904 44.1359 33.4037C44.1359 33.4037 44.1926 33.329 44.1548 33.3664C44.117 33.4037 44.1737 33.3477 44.1737 33.329C44.2115 33.2917 44.2493 33.2357 44.2871 33.1983C44.3627 33.105 44.4572 33.0303 44.5517 32.9556C44.7408 32.8062 44.7219 32.4514 44.5517 32.3021C44.3438 32.1154 44.0792 32.134 43.8902 32.3021C43.0775 32.9929 42.6049 34.0759 42.6427 35.1215C42.6616 35.3642 42.8506 35.607 43.1153 35.5883C43.3799 35.607 43.6256 35.4016 43.6067 35.1402Z" fill="#B56F57"/>
<path d="M43.6058 34.692C43.5869 34.7107 43.3979 34.636 43.1522 34.6173C42.9065 34.58 42.6986 34.6173 42.6797 34.58C42.6797 34.5613 42.8876 34.4866 43.1522 34.524C43.4357 34.5427 43.6247 34.6734 43.6058 34.692Z" fill="#263238"/>
<path d="M43.833 33.9263C43.8141 33.945 43.644 33.8143 43.4171 33.7022C43.1903 33.5902 42.9824 33.5529 42.9824 33.5342C42.9824 33.5155 43.2092 33.4969 43.4549 33.6276C43.7196 33.7396 43.8519 33.9263 43.833 33.9263Z" fill="#263238"/>
<path d="M44.1922 33.3848C44.1733 33.4035 44.0599 33.2168 43.8708 33.0487C43.6818 32.8807 43.5117 32.7687 43.5117 32.75C43.5117 32.7313 43.7385 32.7873 43.9275 32.974C44.1355 33.1794 44.2111 33.3848 44.1922 33.3848Z" fill="#263238"/>
<path d="M16.0124 82.5664L17.9592 85.2178C17.9592 85.2178 13.8199 87.2157 13.8577 87.9999L22.1553 87.1784L22.0797 86.3381C22.0608 86.0767 21.9852 85.834 21.8528 85.6099L19.339 80.8486L16.0124 82.5664Z" fill="#263238"/>
<path d="M22.1551 87.197L22.0606 86.5435L14.1221 87.5704C14.1221 87.5704 13.763 87.7571 13.8386 88.0185L22.1551 87.197Z" fill="#455A64"/>
<path d="M17.9209 85.2179C17.9209 85.2553 18.1289 85.2553 18.3368 85.3673C18.5447 85.4793 18.677 85.6287 18.7148 85.61C18.7526 85.5914 18.6581 85.3673 18.4124 85.2366C18.1478 85.1246 17.902 85.1806 17.9209 85.2179Z" fill="white"/>
<path d="M17.0332 85.6846C17.0332 85.722 17.2033 85.778 17.3734 85.9274C17.5246 86.0768 17.5813 86.2635 17.6191 86.2448C17.6569 86.2448 17.6569 86.0021 17.4679 85.8153C17.2789 85.6473 17.0332 85.6473 17.0332 85.6846Z" fill="white"/>
<path d="M16.6546 86.8049C16.6924 86.8049 16.7302 86.5995 16.5979 86.3941C16.4656 86.1887 16.2766 86.114 16.2577 86.1513C16.2388 86.1887 16.3711 86.3007 16.4656 86.4688C16.579 86.6368 16.6168 86.8049 16.6546 86.8049Z" fill="white"/>
<path d="M17.5813 84.658C17.6191 84.6767 17.7515 84.546 17.9594 84.4713C18.1673 84.3779 18.3563 84.3779 18.3752 84.3219C18.3752 84.2846 18.1673 84.2286 17.9027 84.3406C17.6569 84.434 17.5435 84.6393 17.5813 84.658Z" fill="white"/>
<path d="M41.3578 78.1973L44.7222 82.2304L48.3134 84.6577C48.578 84.8257 48.6347 85.1805 48.4268 85.4232C48.3134 85.5539 48.1433 85.6286 47.9732 85.6286C46.858 85.5726 42.7376 85.3486 42.5107 85.0311C42.2461 84.6764 38.6738 81.0167 38.6738 81.0167L41.3578 78.1973Z" fill="#263238"/>
<path d="M48.4456 85.4235L42.3027 84.77L42.4539 84.9381C42.5863 85.0874 42.7564 85.1808 42.9454 85.1995C43.4557 85.2742 44.8733 85.4609 47.992 85.6289C48.1621 85.6476 48.3322 85.5729 48.4456 85.4235Z" fill="#455A64"/>
<path d="M46.0073 84.4897C46.0452 84.4897 45.9506 84.191 46.083 83.8735C46.2153 83.5561 46.4799 83.4254 46.461 83.3881C46.461 83.3694 46.3854 83.3881 46.272 83.4628C46.1586 83.5375 46.0452 83.6495 45.9695 83.8362C45.8939 84.0042 45.8939 84.191 45.9128 84.303C45.9506 84.415 46.0073 84.4897 46.0073 84.4897Z" fill="white"/>
<path d="M46.7647 84.7696C46.8025 84.7696 46.8214 84.5269 46.9726 84.3028C47.1238 84.0601 47.3317 83.9481 47.3128 83.9107C47.3128 83.8734 47.0482 83.9667 46.8592 84.2282C46.6891 84.5082 46.7269 84.7696 46.7647 84.7696Z" fill="white"/>
<path d="M44.891 84.2468C44.9288 84.2468 44.9477 83.892 45.1556 83.4999C45.3636 83.1078 45.6471 82.8837 45.6282 82.865C45.6093 82.8464 45.269 83.0331 45.0422 83.4625C44.8343 83.8733 44.8532 84.2654 44.891 84.2468Z" fill="white"/>
<path d="M43.759 83.1079C43.7968 83.1266 43.9291 82.8465 44.2126 82.5851C44.4961 82.3237 44.7797 82.2117 44.7608 82.1743C44.7608 82.137 44.4205 82.2304 44.1181 82.5104C43.8346 82.7905 43.7212 83.1079 43.759 83.1079Z" fill="white"/>
<path d="M42.7379 81.9502C42.7757 81.9688 42.8702 81.6327 43.1915 81.39C43.4939 81.1286 43.8341 81.1099 43.8341 81.0726C43.8341 81.0539 43.7396 81.0539 43.6073 81.0726C43.475 81.0913 43.286 81.166 43.1159 81.2967C42.9458 81.4274 42.8324 81.5954 42.7757 81.7261C42.7379 81.8568 42.719 81.9502 42.7379 81.9502Z" fill="white"/>
<path d="M43.0026 81.1845C43.0026 81.1845 42.9648 81.1285 42.8703 81.0352C42.7758 80.9418 42.6246 80.8298 42.3977 80.7551C42.2843 80.7177 42.1709 80.6617 42.0008 80.6991C41.9252 80.7177 41.8496 80.7924 41.8496 80.8858C41.8496 80.9792 41.8874 81.0538 41.9441 81.1098C42.1709 81.3526 42.6057 81.4086 42.9081 81.2032C43.2294 80.9978 43.3428 80.6057 43.2672 80.2883C43.2483 80.2136 43.1916 80.1202 43.116 80.0829C43.0215 80.0456 42.927 80.0829 42.8703 80.1389C42.7758 80.251 42.7569 80.3817 42.7191 80.4937C42.6813 80.7177 42.7002 80.9045 42.7191 81.0352C42.738 81.1659 42.7758 81.2219 42.7758 81.2219C42.7947 81.2219 42.7002 80.9418 42.7947 80.5124C42.8136 80.4003 42.8514 80.2883 42.927 80.1949C42.9648 80.1576 43.0215 80.1389 43.0593 80.1576C43.0971 80.1763 43.1349 80.2323 43.1538 80.2883C43.2105 80.5497 43.0971 80.9045 42.8325 81.0725C42.5679 81.2592 42.1898 81.2032 42.0008 80.9978C41.963 80.9418 41.9252 80.8858 41.9252 80.8298C41.9252 80.7738 41.963 80.7364 42.0008 80.7177C42.1142 80.6804 42.2276 80.7177 42.341 80.7551C42.7947 80.9605 42.9837 81.2032 43.0026 81.1845Z" fill="white"/>
<path d="M13.7244 62.3078C13.7244 62.3078 6.37185 70.1126 7.05229 71.9984C8.14855 75.0606 16.4461 84.4338 16.4461 84.4338L20.7556 82.3799L15.3877 73.6416L13.9134 71.513L19.8294 66.0235L20.3398 65.9675C20.3398 65.9675 31.6804 73.1934 31.7938 73.1188C31.9072 73.0627 40.545 83.3695 40.545 83.3695L44.6088 80.8675C44.6088 80.8675 35.8765 69.5524 35.6875 69.291C35.4984 69.0296 25.5187 61.5423 25.5187 61.5423L22.5134 57.5278L14.0646 59.0029L13.7244 62.3078Z" fill="#455A64"/>
<path d="M19.6771 65.7621C19.6582 65.7621 19.5259 65.5193 19.2424 65.1459C19.1101 64.9592 18.9211 64.7538 18.6943 64.5297C18.4675 64.3057 18.2029 64.1003 17.9193 63.8949C17.6169 63.6895 17.3145 63.5214 17.031 63.3907C16.7475 63.26 16.4829 63.1667 16.256 63.092C15.8024 62.9613 15.5 62.9239 15.5 62.9053C15.5 62.9053 15.5756 62.9053 15.7079 62.9239C15.7835 62.9239 15.8591 62.9426 15.9536 62.9613C16.0481 62.98 16.1615 62.9986 16.2749 63.036C16.5018 63.092 16.7853 63.1854 17.0688 63.3161C17.3523 63.4468 17.6736 63.6148 17.976 63.8202C18.2785 64.0256 18.5431 64.2496 18.7699 64.4737C18.9967 64.6978 19.1668 64.9218 19.318 65.1085C19.3936 65.2019 19.4503 65.2953 19.4881 65.3699C19.5448 65.4446 19.5826 65.5193 19.6015 65.5753C19.6393 65.6874 19.6771 65.7621 19.6771 65.7621Z" fill="#263238"/>
<path d="M24.346 61.8223C24.346 61.8409 24.0436 61.9343 23.6089 62.177C23.382 62.2891 23.1363 62.4758 22.8717 62.6625C22.6071 62.8679 22.3425 63.1293 22.0779 63.4094C21.5486 63.9695 21.1706 64.567 20.9249 65.0151C20.6792 65.4633 20.5658 65.7433 20.5469 65.7433C20.5469 65.7433 20.5658 65.6686 20.6225 65.5379C20.6414 65.4633 20.6792 65.3886 20.717 65.2952C20.7548 65.2019 20.8115 65.0898 20.8682 64.9778C21.095 64.5297 21.473 63.9135 22.0023 63.3347C22.2669 63.0546 22.5504 62.7932 22.815 62.5878C23.0796 62.3824 23.3442 62.2144 23.5711 62.1023C23.6845 62.0463 23.7979 61.9903 23.8924 61.953C23.9869 61.9156 24.0625 61.8783 24.1381 61.8596C24.2704 61.8223 24.346 61.8036 24.346 61.8223Z" fill="#263238"/>
<path d="M15.5566 44.0093C15.5566 44.0093 16.4261 44.14 17.7492 44.9429C19.0911 45.7644 22.9281 48.1171 22.9281 48.1171L27.332 44.1026L29.3733 45.9325C29.3733 45.9325 24.9694 51.1232 24.667 51.3846C23.5896 52.3369 22.5689 51.8141 22.5689 51.8141L18.1272 49.6855L15.5566 44.0093Z" fill="#455A64"/>
<path d="M21.1512 54.9697L15.651 43.9907L11.7763 44.4575L10.5855 44.0654L6.42727 45.1857L6.27607 47.3143C6.27607 47.3143 3.3653 50.2084 3.4409 50.3951L12.7213 59.8804C12.7213 59.8804 12.778 63.4467 12.8347 63.3533C13.7609 61.5608 15.84 62.5318 18.6941 63.5214L18.9587 59.2642L20.9622 62.9799L26.0088 60.3659L21.1512 54.9697Z" fill="#455A64"/>
<path d="M6.67351 46.0632L13.6858 51.31L11.0586 44.4201L10.3781 43.7666L6.37109 45.2417L6.67351 46.0632Z" fill="#E0E0E0"/>
<path d="M3.13977 36.1485C3.12087 35.8125 3.34768 35.495 3.669 35.383C3.85801 34.9349 4.38724 34.6548 4.85977 34.7482C5.02988 34.4681 5.3512 34.2627 5.69142 34.2627C6.03164 34.2627 6.37186 34.4307 6.54197 34.7295C6.80658 34.5241 7.22241 34.5054 7.50593 34.6921C7.78944 34.8789 7.94065 35.2523 7.84614 35.5697C8.22417 35.495 8.63999 35.7378 8.7534 36.1112C8.8668 36.4846 8.65889 36.9141 8.29977 37.0635L3.7068 36.8767C3.38549 36.7834 3.13977 36.466 3.13977 36.1485Z" fill="#263238"/>
<path d="M8.44986 37.082C7.4859 35.6629 5.55799 35.1961 4.0459 36.055L3.89469 36.1297C2.3259 37.1193 2.307 39.0052 3.34656 40.5363L6.54085 45.7083L10.4723 46.3245L10.3778 43.7478L10.1888 43.2997C10.1888 43.2997 11.6252 42.198 10.7558 40.6296C10.34 39.9014 9.35711 38.4077 8.44986 37.082Z" fill="#FFBF9D"/>
<path d="M10.2077 43.2993C10.2077 43.2993 9.24375 43.9155 7.82617 43.8408C7.82617 43.8408 8.90353 44.7557 10.3967 43.7474L10.2077 43.2993Z" fill="#FF9A6C"/>
<path d="M8.77209 38.7063C8.84769 38.8183 8.80989 38.9677 8.67758 39.0424C8.56418 39.1171 8.41297 39.0798 8.33736 38.9677C8.26176 38.8557 8.29956 38.7063 8.43187 38.6316C8.56417 38.5569 8.71538 38.5943 8.77209 38.7063Z" fill="#263238"/>
<path d="M8.59999 38.1086C8.58108 38.146 8.35427 38.1273 8.10856 38.258C7.86284 38.3887 7.76834 38.6128 7.71163 38.5941C7.69273 38.5941 7.69273 38.5194 7.73054 38.4261C7.76834 38.3327 7.88174 38.202 8.01405 38.1273C8.16526 38.0526 8.31647 38.034 8.42988 38.0526C8.56218 38.034 8.61889 38.0713 8.59999 38.1086Z" fill="#263238"/>
<path d="M6.74865 39.9011C6.82425 40.0132 6.78645 40.1625 6.65414 40.2372C6.54074 40.3119 6.38953 40.2746 6.31392 40.1625C6.23832 40.0505 6.27612 39.9011 6.40843 39.8265C6.52184 39.7518 6.67304 39.7891 6.74865 39.9011Z" fill="#263238"/>
<path d="M6.29334 39.3411C6.27444 39.3784 6.04763 39.3597 5.80192 39.4904C5.5562 39.6211 5.4617 39.8452 5.40499 39.8265C5.38609 39.8265 5.38609 39.7518 5.42389 39.6585C5.4617 39.5651 5.5751 39.4344 5.70741 39.3597C5.85862 39.2851 6.00983 39.2664 6.12324 39.2851C6.23664 39.2851 6.29334 39.3224 6.29334 39.3411Z" fill="#263238"/>
<path d="M8.09043 40.6669C8.09043 40.6482 8.22273 40.5548 8.44955 40.3868C8.50625 40.3495 8.56295 40.2934 8.54405 40.2561C8.52515 40.2001 8.46845 40.1441 8.39285 40.1067C8.26054 39.9947 8.10933 39.864 7.95812 39.752C7.33438 39.2292 6.84295 38.7997 6.86186 38.7624C6.88076 38.7437 7.40999 39.1358 8.03372 39.6586C8.18493 39.7893 8.33614 39.9013 8.46845 40.032C8.52515 40.0881 8.61966 40.1441 8.63856 40.2561C8.63856 40.3121 8.61966 40.3681 8.58186 40.4055C8.54405 40.4428 8.50625 40.4615 8.48735 40.4802C8.24164 40.5922 8.09043 40.6669 8.09043 40.6669Z" fill="#263238"/>
<path d="M7.4664 41.2271C7.5042 41.2084 7.65541 41.4512 7.97673 41.5258C8.29805 41.5819 8.56266 41.3951 8.58156 41.4325C8.60047 41.4512 8.54376 41.5258 8.43036 41.5819C8.31695 41.6565 8.12794 41.7126 7.92003 41.6752C7.71211 41.6379 7.57981 41.5258 7.5042 41.4138C7.4664 41.3018 7.4475 41.2271 7.4664 41.2271Z" fill="#263238"/>
<path d="M6.14396 38.7997C6.12506 38.8744 5.87934 38.837 5.59583 38.8744C5.31231 38.9117 5.0855 39.0051 5.04769 38.9491C5.02879 38.9117 5.06659 38.8557 5.1611 38.781C5.25561 38.7063 5.40681 38.6316 5.57692 38.613C5.74703 38.5943 5.89824 38.613 6.01165 38.669C6.10616 38.7063 6.16286 38.7623 6.14396 38.7997Z" fill="#263238"/>
<path d="M8.18548 37.4742C8.18548 37.5489 7.97757 37.6049 7.78856 37.7356C7.59955 37.8477 7.46724 37.997 7.39163 37.9784C7.35383 37.9597 7.35383 37.9037 7.39163 37.7916C7.42944 37.6983 7.52394 37.5862 7.65625 37.4929C7.78856 37.4182 7.93977 37.3809 8.03427 37.3809C8.12878 37.3995 8.18548 37.4369 8.18548 37.4742Z" fill="#263238"/>
<path d="M7.90124 36.4657C7.90124 36.4657 6.93729 35.7189 6.33245 35.7562C5.61421 35.7936 5.70872 36.5591 5.08498 36.7085C4.46124 36.8578 3.7619 36.8952 3.44058 37.6234C3.08146 38.4263 3.55399 38.5756 3.91311 39.2852C5.3496 42.1419 5.27399 43.2249 4.38564 41.9926C4.29113 41.8619 3.81861 41.9739 3.42168 41.3951C2.89245 40.6482 2.32542 39.7146 2.19311 39.0611C2.07971 38.501 2.15531 38.0342 2.43883 37.3993C2.89245 36.4097 3.93201 35.8122 4.68806 35.4761C5.4252 35.1774 7.27751 35.2147 7.90124 36.4657Z" fill="#263238"/>
<path d="M4.46176 41.8994C4.31055 41.6754 4.00813 41.6007 3.78132 41.7501C3.4978 41.9368 3.27099 42.2916 3.63011 42.8704C4.27275 43.916 5.18 43.0571 5.18 43.0384C5.1422 43.0198 4.72637 42.3289 4.46176 41.8994Z" fill="#FFBF9D"/>
<path d="M4.68866 42.777C4.68866 42.777 4.66976 42.7957 4.65086 42.833C4.63195 42.8704 4.57525 42.9077 4.51855 42.9264C4.38624 42.9451 4.17833 42.833 4.06492 42.6463C4.00822 42.553 3.97042 42.4596 3.95151 42.3662C3.93261 42.2729 3.95151 42.1795 4.00822 42.1422C4.06492 42.1048 4.12162 42.1048 4.14053 42.1235C4.17833 42.1422 4.17833 42.1609 4.17833 42.1609C4.17833 42.1609 4.19723 42.1235 4.15943 42.0862C4.14053 42.0675 4.12162 42.0488 4.08382 42.0488C4.04602 42.0488 4.00822 42.0488 3.97042 42.0862C3.89481 42.1422 3.85701 42.2542 3.87591 42.3662C3.87591 42.4783 3.91371 42.5903 3.98932 42.7023C4.12162 42.9077 4.34844 43.0384 4.53745 42.9824C4.63195 42.9637 4.66976 42.9077 4.68866 42.8517C4.70756 42.8144 4.70756 42.777 4.68866 42.777Z" fill="#FF9A6C"/>
<path d="M3.30917 39.8456C3.49818 39.8643 3.70609 39.883 3.8762 39.8083C4.04631 39.7336 4.19752 39.5282 4.12191 39.3601C4.08411 39.2855 4.02741 39.2108 4.04631 39.1174C4.06521 39.0241 4.17862 38.9867 4.27312 38.9307C4.59444 38.8 4.80235 38.3892 4.70785 38.0531C4.85906 38.1278 5.02917 38.0158 5.10477 37.8664C5.18037 37.717 5.18037 37.549 5.21818 37.3996C5.25598 37.2502 5.33158 37.0822 5.48279 37.0075C5.5773 36.9702 5.6718 36.9888 5.74741 36.9328C5.87971 36.8395 5.86081 36.6341 5.80411 36.4847C5.74741 36.3353 5.6718 36.1673 5.74741 36.0179C5.82301 35.8872 5.99312 35.8499 6.12543 35.7938C6.25774 35.7378 6.40895 35.6258 6.37114 35.4764C6.35224 35.4017 6.27664 35.3457 6.21993 35.3084C5.89862 35.1403 5.48279 35.2337 5.25598 35.4951C4.95356 35.1963 4.46213 35.1217 4.08411 35.2897C3.68719 35.4578 3.42257 35.8685 3.44147 36.2793C3.10125 36.2046 2.72323 36.298 2.45862 36.5407C2.194 36.7648 2.06169 37.1382 2.09949 37.4743C1.79708 37.549 1.57026 37.8104 1.51356 38.1091C1.47576 38.4079 1.62697 38.7253 1.89158 38.8934C1.75928 39.1174 1.70257 39.3975 1.81598 39.6029C1.92939 39.8269 2.2696 39.9203 2.45862 39.7523C2.47752 39.9763 2.66653 40.163 2.89334 40.163C3.12015 40.163 3.32807 39.9763 3.32807 39.7523" fill="#263238"/>
<path d="M2.40234 39.8082C2.40234 39.8082 2.44015 39.9015 2.59135 39.9762C2.66696 40.0136 2.76146 40.0136 2.87487 39.9762C2.98828 39.9389 3.08278 39.8455 3.12059 39.7148L3.06388 39.7335C3.17729 39.7895 3.2907 39.8455 3.423 39.8828C3.51751 39.9015 3.59311 39.9015 3.68762 39.9015C3.78212 39.8828 3.85773 39.8455 3.91443 39.8082C4.04674 39.7148 4.12234 39.5841 4.12234 39.4534C4.12234 39.3414 4.10344 39.248 4.08454 39.192C4.06564 39.136 4.04674 39.0986 4.04674 39.0986C4.04674 39.0986 4.04674 39.136 4.06564 39.192C4.08454 39.248 4.10344 39.3414 4.08454 39.4534C4.06564 39.6588 3.78212 39.9202 3.4419 39.8268C3.3096 39.8082 3.19619 39.7521 3.10168 39.6961L3.06388 39.6775L3.04498 39.7148C3.00718 39.8268 2.93157 39.9015 2.83707 39.9389C2.74256 39.9762 2.64806 39.9762 2.59135 39.9389C2.45905 39.9015 2.40234 39.8082 2.40234 39.8082Z" fill="#455A64"/>
<path d="M3.04492 36.2791C3.04492 36.2791 3.08272 36.2791 3.13943 36.2604C3.19613 36.2604 3.29064 36.2604 3.38514 36.3165L3.40404 36.3351V36.3165C3.42294 36.1297 3.49855 35.8683 3.68756 35.6069C3.78206 35.4762 3.89547 35.3642 4.06558 35.2895C4.21679 35.1962 4.4058 35.1588 4.59481 35.1588C4.74602 35.1588 4.87833 35.1962 5.01064 35.2708C5.12404 35.3269 5.23745 35.4202 5.31305 35.5322L5.33195 35.5696L5.35086 35.5509C5.48316 35.4202 5.67217 35.3642 5.82338 35.3642C5.97459 35.3642 6.1258 35.4202 6.22031 35.4949C6.40932 35.6256 6.44712 35.775 6.46602 35.775C6.46602 35.775 6.46602 35.7376 6.42822 35.6816C6.39042 35.6256 6.33371 35.5509 6.23921 35.4762C6.1447 35.4015 5.99349 35.3269 5.82338 35.3269C5.65327 35.3269 5.46426 35.3829 5.29415 35.5322H5.35086C5.27525 35.4202 5.16184 35.3269 5.02954 35.2522C4.89723 35.1775 4.74602 35.1401 4.59481 35.1401C4.3869 35.1401 4.19789 35.1775 4.02778 35.2708C3.85767 35.3642 3.74426 35.4949 3.64976 35.6256C3.46075 35.887 3.40404 36.1671 3.38514 36.3538L3.40404 36.3351C3.29064 36.2791 3.19613 36.2978 3.13943 36.2978C3.06382 36.2604 3.04492 36.2791 3.04492 36.2791Z" fill="#455A64"/>
<path d="M13.8755 51.8143C13.8755 51.8143 13.8377 51.8143 13.781 51.7957C13.7054 51.777 13.6109 51.7397 13.4975 51.7023C13.2329 51.609 12.8738 51.4969 12.4391 51.3476C11.5318 51.0488 10.3032 50.6194 8.96125 50.1712C8.62103 50.0592 8.28081 49.9472 7.9595 49.8351L7.92169 49.8165L7.94059 49.7791C8.054 49.331 8.14851 48.9016 8.24301 48.5094L8.28081 48.5655C7.73268 48.5841 7.24125 48.6028 6.82543 48.6215H6.80653V48.6028C6.65532 48.2107 6.54191 47.8933 6.44741 47.6692C6.40961 47.5759 6.3718 47.4825 6.3529 47.4078C6.334 47.3518 6.3151 47.3145 6.334 47.3145C6.334 47.3145 6.3529 47.3331 6.3718 47.3891C6.40961 47.4638 6.42851 47.5385 6.48521 47.6319C6.57972 47.8559 6.71202 48.1734 6.88213 48.5655L6.84433 48.5468C7.26015 48.5281 7.75158 48.4908 8.29972 48.4721H8.35642L8.33752 48.5281C8.24301 48.9202 8.14851 49.3497 8.054 49.7978L8.0162 49.7418C8.33752 49.8538 8.67774 49.9658 9.01796 50.0779C10.3788 50.5447 11.5885 50.9741 12.4958 51.2915C12.9305 51.4409 13.2896 51.5716 13.5542 51.665C13.6676 51.7023 13.7621 51.7397 13.8377 51.777C13.8377 51.7957 13.8755 51.8143 13.8755 51.8143Z" fill="#263238"/>
<path d="M18.9583 59.2457C18.9583 59.2457 18.9394 59.2083 18.9016 59.1523C18.8638 59.0776 18.826 59.0029 18.7882 58.8909C18.6937 58.6668 18.5425 58.3494 18.3724 57.9573C18.1834 57.5652 17.9377 57.1171 17.6352 56.6316C17.484 56.3889 17.3139 56.1462 17.1438 55.8848C16.9548 55.642 16.7658 55.3806 16.5579 55.1192C15.7451 54.0736 15.0269 53.1213 14.4977 52.4118C14.2519 52.0757 14.044 51.7956 13.8928 51.5902C13.8361 51.4969 13.7794 51.4222 13.7227 51.3662C13.6849 51.3102 13.666 51.2915 13.666 51.2915C13.666 51.2915 13.6849 51.3102 13.7416 51.3662C13.7983 51.4222 13.855 51.4969 13.9117 51.5902C14.0629 51.7956 14.2898 52.057 14.5544 52.3931C15.0836 53.084 15.8207 54.0176 16.6335 55.0819C16.8414 55.3433 17.0304 55.6047 17.2194 55.8474C17.4084 56.1088 17.5596 56.3515 17.7108 56.5943C18.0133 57.0797 18.2401 57.5465 18.4291 57.9386C18.5992 58.3308 18.7315 58.6668 18.826 58.8909C18.8638 59.0029 18.9016 59.0776 18.9205 59.1523C18.9583 59.2083 18.9772 59.2457 18.9583 59.2457Z" fill="#263238"/>
<path d="M25.2906 60.7206C25.2906 60.7206 25.2717 60.7393 25.215 60.758C25.1583 60.7953 25.0827 60.8326 24.9881 60.87C24.7802 60.982 24.4967 61.1314 24.1187 61.3181C23.7407 61.5235 23.287 61.7476 22.7578 62.0276C22.4932 62.1583 22.2097 62.3077 21.9073 62.4758C21.7561 62.5504 21.6048 62.6438 21.4536 62.7185C21.378 62.7558 21.3024 62.7932 21.2268 62.8492L21.1134 62.9239L21.0567 62.9612L21.0189 62.9799H21C21.0189 62.9612 21 62.9052 20.9811 62.9239L20.9433 62.9799C20.3574 61.8969 19.6769 60.6459 18.9398 59.2642L19.0343 59.2455C19.1099 60.1418 19.1666 61.094 19.2422 62.065C19.28 62.5504 19.3178 63.0359 19.3556 63.5027V63.5961L19.28 63.5587C19.1288 63.484 18.9965 63.4093 18.8453 63.316C18.6941 63.2413 18.5618 63.1479 18.4106 63.0919C18.1081 62.9612 17.8246 62.8305 17.5222 62.7372C17.2198 62.6251 16.9363 62.5691 16.6339 62.5131C16.4827 62.4758 16.3314 62.4758 16.1991 62.4571C16.0479 62.4384 15.9156 62.4384 15.7644 62.4384C14.6114 62.4011 13.5719 62.7932 12.8725 63.3533L12.8158 63.3907V63.316C12.7969 62.1957 12.7591 61.2994 12.7591 60.6646C12.7591 60.3658 12.7402 60.1231 12.7402 59.9364C12.7402 59.8617 12.7402 59.8057 12.7402 59.7497C12.7402 59.8057 12.7402 59.8617 12.7591 59.9364C12.7591 60.1044 12.778 60.3472 12.7969 60.6646C12.8158 61.2994 12.8536 62.1957 12.8914 63.316L12.8347 63.2973C13.553 62.7185 14.6114 62.3264 15.7833 62.3637C15.9345 62.3637 16.0857 62.3637 16.218 62.3824C16.3692 62.4011 16.5205 62.4197 16.6717 62.4384C16.9741 62.4944 17.2765 62.5504 17.5789 62.6625C17.8813 62.7558 18.1838 62.8865 18.4673 63.0172C18.6185 63.0733 18.7508 63.1666 18.902 63.2413C19.0532 63.316 19.1855 63.3907 19.3367 63.484L19.2611 63.5214C19.2233 63.0546 19.1855 62.5691 19.1477 62.0837C19.0721 61.1127 18.9965 60.1605 18.9398 59.2455L18.9209 59.0215L19.0343 59.2269C19.7714 60.6086 20.4519 61.8596 21.0378 62.9426V62.9612L20.9811 62.9986C20.9622 63.0172 20.9433 62.9426 20.9622 62.9426H20.9811L21 62.9239L21.0378 62.9052L21.0945 62.8679L21.2079 62.8118C21.2835 62.7745 21.3591 62.7185 21.4536 62.6812C21.6048 62.6065 21.7561 62.5131 21.9073 62.4384C22.2097 62.289 22.4932 62.1397 22.7578 62.009C23.287 61.7476 23.7407 61.5048 24.1187 61.3181C24.4967 61.1314 24.7802 60.982 24.9881 60.8887C25.0827 60.8326 25.1583 60.814 25.215 60.7766C25.2528 60.7393 25.2906 60.7206 25.2906 60.7206Z" fill="#263238"/>
<path d="M14.2334 51.6834C14.2334 51.6834 14.2145 51.646 14.2145 51.59C14.1956 51.5153 14.1767 51.4406 14.1578 51.3286C14.12 51.0859 14.0633 50.7498 14.0066 50.3577C13.8743 49.5361 13.7042 48.4158 13.5152 47.1648C13.4774 46.8474 13.4207 46.5299 13.3829 46.2312L13.4207 46.2685C12.9859 46.2312 12.5512 46.1939 12.1732 46.1565H12.1165L12.1543 46.1005C12.3244 45.7644 12.4945 45.447 12.6457 45.1856L12.6646 45.2229C12.3244 44.9802 12.0598 44.7748 11.8519 44.6254C11.7574 44.5507 11.7007 44.4947 11.644 44.4574C11.5873 44.42 11.5684 44.4014 11.5684 44.4014C11.5684 44.4014 11.6062 44.42 11.644 44.4574C11.7007 44.4947 11.7763 44.5507 11.8708 44.6068C12.0787 44.7561 12.3622 44.9428 12.7024 45.1856L12.7213 45.2043L12.7024 45.2229C12.5701 45.503 12.4 45.8017 12.2299 46.1565L12.1921 46.1005C12.5701 46.1378 13.0048 46.1752 13.4396 46.1939H13.4774V46.2312C13.5152 46.5299 13.5719 46.8474 13.6097 47.1648C13.7987 48.4158 13.9499 49.5548 14.0633 50.3763C14.12 50.7684 14.1578 51.1045 14.1956 51.3473C14.2145 51.4593 14.2145 51.534 14.2334 51.6087C14.2334 51.646 14.2523 51.6834 14.2334 51.6834Z" fill="#263238"/>
<path d="M16.01 45.3351C16.0289 45.3164 17.1252 47.333 18.4672 49.835C19.7902 52.337 20.8487 54.3722 20.8298 54.3722C20.8109 54.3909 19.7146 52.3743 18.3727 49.8723C17.0496 47.3703 15.9911 45.3351 16.01 45.3351Z" fill="#263238"/>
<path d="M10.4531 46.474C10.4531 46.4553 10.4531 47.1275 10.4531 47.1275L11.0013 47.3515L11.3415 47.1648L11.247 46.5673L10.5665 46.3433L10.4531 46.474Z" fill="#FF725E"/>
<path d="M11.002 47.3701L11.6257 49.76L13.6859 51.3098L12.6274 48.5277L11.3422 47.146L11.002 47.3701Z" fill="#FF725E"/>
<path d="M10.4724 46.418C10.4913 46.418 10.4913 46.642 10.4913 47.0155C10.4913 47.1088 10.4913 47.2209 10.4913 47.3142C10.4913 47.3702 10.4913 47.4262 10.4913 47.4823V47.5196V47.5383C10.4913 47.5943 10.4157 47.5756 10.4346 47.5756H10.4157L10.3212 47.5569C10.0755 47.4823 9.81087 47.4076 9.54626 47.3329C8.99813 47.1835 8.4878 47.0341 8.12868 46.9034C7.76956 46.7914 7.54274 46.7167 7.56164 46.698C7.56164 46.698 7.61835 46.698 7.73175 46.7354C7.86406 46.7727 7.99637 46.8101 8.16648 46.8474C8.5256 46.9408 9.03593 47.0902 9.58406 47.2395C9.86758 47.3142 10.1133 47.3889 10.359 47.4636L10.4535 47.4823H10.4724C10.4724 47.4449 10.4535 47.5196 10.4535 47.5196H10.4157V47.5009V47.4636C10.4157 47.4076 10.4157 47.3516 10.4157 47.2955C10.4157 47.1835 10.4157 47.0902 10.4346 46.9968C10.4535 46.642 10.4724 46.418 10.4724 46.418Z" fill="#263238"/>
<path d="M11.6458 45.8955C11.6647 45.8955 11.6836 46.2129 11.6836 46.6424V46.6984L11.6269 46.6797C11.5513 46.661 11.4946 46.6424 11.419 46.6237C10.8897 46.493 10.4739 46.3436 10.4928 46.325C10.4928 46.3063 10.9275 46.3996 11.4568 46.5303C11.5324 46.549 11.608 46.5677 11.6647 46.5864L11.608 46.6237C11.5891 46.2129 11.608 45.8955 11.6458 45.8955Z" fill="#263238"/>
<path d="M20.5667 56.1459C20.5667 56.1459 20.4911 56.2019 20.3588 56.2579C20.2265 56.3326 20.0186 56.4259 19.7728 56.538C19.2814 56.762 18.601 57.0795 17.826 57.3782C17.0511 57.6956 16.3517 57.957 15.8414 58.1251C15.5768 58.2184 15.3689 58.2744 15.2366 58.3305C15.0854 58.3678 15.0098 58.4052 15.0098 58.3865C15.0098 58.3865 15.0854 58.3491 15.2177 58.2931C15.3878 58.2371 15.5768 58.1624 15.8225 58.0691C16.3328 57.8823 17.0322 57.6023 17.8071 57.3035C18.5821 56.9861 19.2625 56.706 19.7728 56.482C19.9997 56.3886 20.2076 56.2952 20.3588 56.2392C20.4911 56.1645 20.5667 56.1272 20.5667 56.1459Z" fill="#263238"/>
<path d="M27.6543 44.4945L29.8468 42.7954L30.773 43.7663L29.0341 45.6522L27.6543 44.4945Z" fill="#FFBF9D"/>
<path d="M32.2842 41.0032C32.2842 41.0032 32.1897 40.6298 31.7927 40.8538C31.6415 40.9285 30.7532 41.638 30.7532 41.638C30.7532 41.638 30.1484 42.0675 30.1295 42.1048C30.1106 42.1422 30.2051 42.4783 30.2051 42.4783L30.9422 42.1795L32.2842 41.0032Z" fill="#FF9A6C"/>
<path d="M14.1206 73.7346C14.1017 73.6785 13.1 68.077 10.0947 62.1581C9.26303 60.515 9.71665 58.4797 11.1909 57.3221L44.1545 31.5737L44.8538 32.4513L11.8903 58.1997C10.8318 59.0212 10.5105 60.4776 11.1153 61.6539C14.1962 67.7223 15.2169 73.3051 15.2547 73.5292L14.1206 73.7346Z" fill="#B56F57"/>
<path d="M11.7387 62.9612C11.7387 62.9799 11.4552 62.9052 11.1528 63.0545C10.8503 63.1853 10.7369 63.4467 10.718 63.4467C10.6991 63.4467 10.718 63.372 10.7747 63.2786C10.8314 63.1852 10.9448 63.0545 11.1149 62.9799C11.2851 62.9052 11.4552 62.8865 11.5686 62.9052C11.682 62.9238 11.7576 62.9612 11.7387 62.9612Z" fill="#263238"/>
<path d="M11.0766 61.5793C11.0766 61.598 10.7931 61.5233 10.4906 61.6727C10.1882 61.8034 10.0748 62.0648 10.0559 62.0648C10.037 62.0648 10.0559 61.9901 10.1126 61.8968C10.1693 61.8034 10.2827 61.6727 10.4528 61.598C10.6229 61.5233 10.7931 61.5047 10.9065 61.5233C11.0199 61.5233 11.0766 61.5607 11.0766 61.5793Z" fill="#263238"/>
<path d="M15.3291 55.53C15.3102 55.53 15.3102 55.2499 15.1023 54.9885C14.8944 54.7271 14.6109 54.6711 14.6298 54.6524C14.6298 54.6337 14.7054 54.6337 14.8188 54.6711C14.9322 54.7084 15.0834 54.7831 15.1779 54.9325C15.2913 55.0819 15.348 55.2312 15.348 55.3433C15.348 55.474 15.3291 55.53 15.3291 55.53Z" fill="#263238"/>
<path d="M16.294 54.7453C16.2751 54.7453 16.2751 54.4652 16.0672 54.2038C15.8593 53.9424 15.5757 53.8864 15.5946 53.8677C15.5946 53.8491 15.6703 53.8491 15.7837 53.8864C15.8971 53.9237 16.0483 53.9984 16.1428 54.1478C16.2562 54.2972 16.3129 54.4466 16.3129 54.5586C16.3318 54.6893 16.3129 54.7453 16.294 54.7453Z" fill="#263238"/>
<path d="M18.4483 53.1022C18.4294 53.1022 18.4294 52.8222 18.2215 52.5608C18.0136 52.2994 17.73 52.2433 17.7489 52.2247C17.7489 52.206 17.8245 52.206 17.938 52.2433C18.0514 52.2807 18.2026 52.3554 18.2971 52.5047C18.4105 52.6541 18.4672 52.8035 18.4672 52.9155C18.4861 53.0276 18.4672 53.1022 18.4483 53.1022Z" fill="#263238"/>
<path d="M19.4873 52.2995C19.4684 52.2995 19.4684 52.0194 19.2605 51.758C19.0526 51.4966 18.7691 51.4406 18.788 51.4219C18.788 51.4033 18.8636 51.4033 18.977 51.4406C19.0904 51.4779 19.2416 51.5526 19.3361 51.702C19.4495 51.8514 19.5062 52.0008 19.5062 52.1128C19.5251 52.2435 19.5062 52.2995 19.4873 52.2995Z" fill="#263238"/>
<path d="M20.6026 51.4406C20.5837 51.4406 20.5837 51.1605 20.3758 50.8991C20.1679 50.6377 19.8843 50.5817 19.9032 50.563C19.9032 50.5444 19.9788 50.5444 20.0923 50.5817C20.2057 50.6191 20.3569 50.6937 20.4514 50.8431C20.5648 50.9925 20.6215 51.1419 20.6215 51.2539C20.6404 51.3659 20.6215 51.4406 20.6026 51.4406Z" fill="#263238"/>
<path d="M21.7178 50.5627C21.6989 50.5627 21.6989 50.2826 21.491 50.0212C21.2831 49.7598 20.9996 49.7038 21.0185 49.6851C21.0185 49.6664 21.0941 49.6664 21.2075 49.7038C21.3209 49.7411 21.4721 49.8158 21.5666 49.9652C21.68 50.1146 21.7367 50.2639 21.7367 50.376C21.7556 50.488 21.7367 50.5627 21.7178 50.5627Z" fill="#263238"/>
<path d="M22.8526 49.6852C22.8337 49.6852 22.8337 49.4052 22.6258 49.1438C22.4179 48.8824 22.1343 48.8263 22.1532 48.8077C22.1532 48.789 22.2288 48.789 22.3423 48.8263C22.4557 48.8637 22.6069 48.9384 22.7014 49.0878C22.8148 49.2371 22.8715 49.3865 22.8715 49.4985C22.8904 49.6292 22.8526 49.6852 22.8526 49.6852Z" fill="#263238"/>
<path d="M23.9496 48.8262C23.9307 48.8262 23.9118 48.5462 23.7228 48.3034C23.5338 48.042 23.2692 47.9673 23.2881 47.9487C23.2881 47.93 23.3637 47.93 23.4771 47.986C23.5905 48.0234 23.7228 48.1167 23.8173 48.2661C23.9118 48.3968 23.9685 48.5648 23.9874 48.6769C23.9685 48.7702 23.9496 48.8262 23.9496 48.8262Z" fill="#263238"/>
<path d="M24.9691 48.0235C24.9502 48.0235 24.9313 47.7434 24.7423 47.5007C24.5533 47.2393 24.2887 47.1646 24.3076 47.1459C24.3076 47.1273 24.3832 47.1273 24.4966 47.1833C24.61 47.2206 24.7423 47.314 24.8368 47.4634C24.9313 47.5941 24.988 47.7621 25.0069 47.8741C25.0069 47.9488 24.988 48.0235 24.9691 48.0235Z" fill="#263238"/>
<path d="M26.0453 47.1646C26.0264 47.1646 26.0075 46.8845 25.8185 46.6418C25.6295 46.3804 25.3649 46.3057 25.3838 46.287C25.3838 46.2684 25.4594 46.2684 25.5728 46.3244C25.6862 46.3617 25.8185 46.4551 25.913 46.6045C26.0075 46.7352 26.0642 46.9032 26.0831 47.0152C26.0831 47.0899 26.0642 47.1646 26.0453 47.1646Z" fill="#263238"/>
<path d="M27.1605 46.3243C27.1416 46.3243 27.1227 46.0442 26.9337 45.8015C26.7447 45.5401 26.4801 45.4654 26.499 45.4467C26.499 45.428 26.5746 45.428 26.688 45.4841C26.8014 45.5214 26.9337 45.6148 27.0282 45.7641C27.1227 45.8948 27.1794 46.0629 27.1983 46.1749C27.1983 46.2683 27.1794 46.343 27.1605 46.3243Z" fill="#263238"/>
<path d="M28.3344 45.3907C28.3155 45.3907 28.2966 45.1106 28.1076 44.8679C27.9185 44.6065 27.6539 44.5318 27.6728 44.5131C27.6728 44.4944 27.7484 44.4945 27.8618 44.5505C27.9753 44.5878 28.1076 44.6812 28.2021 44.8305C28.2966 44.9612 28.3533 45.1293 28.3722 45.2413C28.3533 45.316 28.3344 45.3907 28.3344 45.3907Z" fill="#263238"/>
<path d="M29.5043 44.4385C29.4854 44.4385 29.4665 44.1585 29.2775 43.9157C29.0885 43.6543 28.8239 43.5796 28.8428 43.561C28.8428 43.5423 28.9184 43.5423 29.0318 43.5983C29.1452 43.6357 29.2775 43.729 29.372 43.8784C29.4665 44.0091 29.5232 44.1771 29.5421 44.2892C29.5232 44.3825 29.5043 44.4385 29.5043 44.4385Z" fill="#263238"/>
<path d="M30.6586 43.4864C30.6397 43.4864 30.6208 43.2063 30.4318 42.9636C30.2428 42.7022 29.9782 42.6275 29.9971 42.6088C29.9971 42.5902 30.0727 42.5902 30.1861 42.6462C30.2995 42.6835 30.4318 42.7769 30.5263 42.9262C30.6208 43.0569 30.6775 43.225 30.6964 43.337C30.6964 43.4304 30.6775 43.5051 30.6586 43.4864Z" fill="#263238"/>
<path d="M33.4359 41.3765C33.417 41.3765 33.3981 41.0965 33.2091 40.8537C33.0201 40.5923 32.7555 40.5176 32.7744 40.499C32.7744 40.4803 32.85 40.4803 32.9634 40.5363C33.0768 40.5736 33.2091 40.667 33.3036 40.8164C33.3981 40.9471 33.4548 41.1151 33.4737 41.2272C33.4737 41.3018 33.4548 41.3765 33.4359 41.3765Z" fill="#263238"/>
<path d="M34.6078 40.4425C34.5889 40.4425 34.57 40.1624 34.381 39.9196C34.192 39.6582 33.9274 39.5835 33.9463 39.5649C33.9463 39.5462 34.0219 39.5462 34.1353 39.6022C34.2487 39.6396 34.381 39.7329 34.4755 39.8823C34.57 40.013 34.6267 40.181 34.6456 40.2931C34.6267 40.3678 34.6267 40.4425 34.6078 40.4425Z" fill="#263238"/>
<path d="M35.7797 39.5465C35.7608 39.5465 35.7419 39.2664 35.5529 39.0236C35.3639 38.7622 35.0992 38.6876 35.1181 38.6689C35.1181 38.6502 35.1938 38.6502 35.3072 38.7062C35.4206 38.7436 35.5529 38.8369 35.6474 38.9863C35.7419 39.117 35.7986 39.285 35.8175 39.3971C35.7986 39.4718 35.7797 39.5465 35.7797 39.5465Z" fill="#263238"/>
<path d="M36.934 38.6505C36.9151 38.6505 36.8962 38.3704 36.7072 38.1276C36.5182 37.8662 36.2535 37.7916 36.2724 37.7729C36.2724 37.7542 36.348 37.7542 36.4615 37.8102C36.5749 37.8476 36.7072 37.9409 36.8017 38.0903C36.8962 38.221 36.9529 38.3891 36.9718 38.5011C36.9718 38.5944 36.9529 38.6505 36.934 38.6505Z" fill="#263238"/>
<path d="M38.1039 37.7725C38.085 37.7725 38.0661 37.4925 37.8771 37.2497C37.6881 36.9883 37.4235 36.9136 37.4424 36.895C37.4424 36.8763 37.518 36.8763 37.6314 36.9323C37.7448 36.9696 37.8771 37.063 37.9716 37.2124C38.0661 37.3431 38.1228 37.5111 38.1417 37.6232C38.1417 37.6978 38.1228 37.7725 38.1039 37.7725Z" fill="#263238"/>
<path d="M39.2191 36.7833C39.2002 36.7833 39.1813 36.5032 38.9923 36.2605C38.8033 35.9991 38.5387 35.9244 38.5576 35.9057C38.5576 35.887 38.6332 35.887 38.7466 35.943C38.86 35.9804 38.9923 36.0737 39.0868 36.2231C39.1813 36.3538 39.238 36.5219 39.2569 36.6339C39.2569 36.7273 39.238 36.7833 39.2191 36.7833Z" fill="#263238"/>
<path d="M40.4301 35.9053C40.4112 35.9053 40.3923 35.6253 40.2033 35.3825C40.0143 35.1211 39.7496 35.0464 39.7685 35.0278C39.7685 35.0091 39.8441 35.0091 39.9575 35.0651C40.071 35.1025 40.2033 35.1958 40.2978 35.3452C40.3923 35.4759 40.449 35.6439 40.4679 35.756C40.449 35.8307 40.4301 35.9053 40.4301 35.9053Z" fill="#263238"/>
<path d="M41.602 35.0093C41.583 35.0093 41.5641 34.7293 41.3751 34.4865C41.1861 34.2251 40.9215 34.1504 40.9404 34.1318C40.9404 34.1131 41.016 34.1131 41.1294 34.1691C41.2428 34.2065 41.3751 34.2998 41.4696 34.4492C41.5641 34.5799 41.6209 34.7479 41.6398 34.86C41.6209 34.9533 41.602 35.0093 41.602 35.0093Z" fill="#263238"/>
<path d="M42.7738 34.0758C42.7549 34.0758 42.736 33.7957 42.547 33.5529C42.358 33.2915 42.0934 33.2169 42.1123 33.1982C42.1123 33.1795 42.1879 33.1795 42.3013 33.2355C42.4147 33.2729 42.547 33.3662 42.6415 33.5156C42.736 33.6463 42.7927 33.8143 42.8116 33.9264C42.8116 34.0011 42.7927 34.0758 42.7738 34.0758Z" fill="#263238"/>
<path d="M17.4092 53.8679C17.3903 53.8679 17.3903 53.5878 17.1824 53.3264C16.9745 53.065 16.691 53.009 16.7099 52.9903C16.7099 52.9716 16.7855 52.9716 16.8989 53.009C17.0123 53.0463 17.1635 53.121 17.258 53.2704C17.3714 53.4197 17.4281 53.5691 17.4281 53.6811C17.447 53.8119 17.4281 53.8679 17.4092 53.8679Z" fill="#263238"/>
<path d="M12.2856 64.137C12.2856 64.1556 12.002 64.081 11.6996 64.2303C11.3972 64.361 11.2838 64.6224 11.2649 64.6224C11.246 64.6224 11.2649 64.5477 11.3216 64.4544C11.3783 64.361 11.4917 64.2303 11.6618 64.1556C11.8319 64.081 12.002 64.0623 12.1154 64.081C12.2289 64.081 12.2856 64.1183 12.2856 64.137Z" fill="#263238"/>
<path d="M12.8539 65.4817C12.8539 65.5004 12.5704 65.4257 12.268 65.5751C11.9656 65.7058 11.8522 65.9672 11.8333 65.9672C11.8144 65.9672 11.8333 65.8925 11.89 65.7991C11.9467 65.7058 12.0601 65.5751 12.2302 65.5004C12.4003 65.4257 12.5704 65.407 12.6838 65.4257C12.7972 65.4257 12.8728 65.463 12.8539 65.4817Z" fill="#263238"/>
<path d="M13.4018 66.9568C13.4018 66.9754 13.1183 66.9007 12.8159 67.0128C12.5135 67.1248 12.3812 67.3862 12.3623 67.3675C12.3434 67.3675 12.3623 67.2928 12.4379 67.1995C12.4946 67.1061 12.6269 66.9941 12.797 66.9194C12.9671 66.8447 13.1372 66.8447 13.2506 66.8634C13.3451 66.9007 13.4018 66.9381 13.4018 66.9568Z" fill="#263238"/>
<path d="M13.8745 68.3386C13.8745 68.3573 13.591 68.2826 13.2886 68.3946C12.9862 68.5066 12.8538 68.768 12.8349 68.7494C12.816 68.7494 12.8349 68.6747 12.9105 68.5813C12.9673 68.488 13.0996 68.3759 13.2697 68.3013C13.4398 68.2266 13.6099 68.2266 13.7233 68.2452C13.8178 68.2826 13.8934 68.3199 13.8745 68.3386Z" fill="#263238"/>
<path d="M14.3088 69.7952C14.3088 69.8139 14.0442 69.7019 13.7229 69.7952C13.4016 69.8886 13.2504 70.1313 13.2315 70.1126C13.2126 70.1126 13.2504 70.038 13.3071 69.9446C13.3827 69.8512 13.515 69.7579 13.6851 69.7019C13.8552 69.6458 14.0253 69.6645 14.1387 69.7019C14.271 69.7392 14.3277 69.7952 14.3088 69.7952Z" fill="#263238"/>
<path d="M14.7612 71.4381C14.7423 71.4567 14.4966 71.326 14.1753 71.4007C13.854 71.4754 13.6839 71.6995 13.665 71.6808C13.6461 71.6808 13.6839 71.6061 13.7595 71.5314C13.8351 71.4381 13.9863 71.3634 14.1564 71.326C14.3265 71.2887 14.4966 71.3073 14.61 71.3447C14.7234 71.382 14.7801 71.4381 14.7612 71.4381Z" fill="#263238"/>
<path d="M15.1968 73.2491C15.1779 73.2678 14.9322 73.1371 14.6109 73.2117C14.2895 73.2864 14.1194 73.5105 14.1005 73.4918C14.0816 73.4918 14.1194 73.4171 14.195 73.3424C14.2706 73.2491 14.4218 73.1744 14.5919 73.1371C14.7621 73.0997 14.9322 73.1184 15.0456 73.1557C15.1401 73.1931 15.1968 73.2491 15.1968 73.2491Z" fill="#263238"/>
<path d="M31.8854 40.9654C31.9232 40.9281 32.4335 40.7414 32.8304 41.0401C33.2085 41.3202 33.3408 41.5443 33.3408 41.5443C33.3408 41.5443 33.4542 41.7683 33.2463 41.9364C33.0384 42.1044 32.4524 42.0857 32.4524 42.0857L32.717 41.8803L32.3012 41.5069C32.3012 41.5069 31.961 41.5816 31.8098 41.3202C31.6586 41.0401 31.8854 40.9654 31.8854 40.9654Z" fill="#FFBF9D"/>
<path d="M30.1853 41.9926C30.1853 41.9926 30.4121 41.6938 30.7145 41.6938C31.0169 41.6938 31.4139 41.8432 31.4139 41.8432C31.4139 41.8432 32.1132 42.5901 32.1699 42.7395C32.2266 42.9075 31.8864 43.1316 31.8864 43.1316C31.8864 43.1316 31.9809 43.5237 31.8108 43.7291C31.6596 43.9345 30.2042 44.8494 30.2042 44.8494L29.2402 44.5693C29.2402 44.5693 30.2042 43.4677 30.4499 43.2809C30.6956 43.0756 30.5822 43.1689 30.5822 43.1689L30.5066 42.9822C30.4499 42.8142 30.2987 42.6835 30.1097 42.6274L29.9963 42.5901L29.5238 42.9635C29.5238 42.9635 29.4103 42.7581 29.5805 42.5154C29.7695 42.2727 30.1853 41.9926 30.1853 41.9926Z" fill="#FFBF9D"/>
<path d="M31.226 42.1414C31.226 42.1414 30.9425 41.7493 31.1504 41.5999C31.3583 41.4505 31.5851 41.5626 31.8119 41.6186C32.0388 41.6933 32.3223 41.9173 32.379 42.1601C32.4357 42.4028 32.4924 42.7202 32.1711 42.7389C31.8497 42.7576 31.226 42.1414 31.226 42.1414Z" fill="#FFBF9D"/>
<path d="M30.1289 42.0484C30.1289 42.0484 30.2423 41.9551 30.4691 41.9364C30.6959 41.9177 31.0173 42.0111 31.2819 42.2352C31.5465 42.4592 31.7166 42.7206 31.8111 42.926C31.9056 43.1314 31.9245 43.2621 31.9056 43.2621C31.8867 43.2621 31.8489 43.1314 31.7355 42.9447C31.641 42.758 31.452 42.5152 31.2063 42.3098C30.9606 42.1045 30.6581 42.0111 30.4502 42.0111C30.2612 41.9924 30.1289 42.0484 30.1289 42.0484Z" fill="#FF9A6C"/>
<path d="M32.1699 42.8325C32.151 42.8325 32.151 42.7392 32.0943 42.5898C32.0565 42.4404 31.962 42.235 31.7919 42.0857C31.6218 41.9363 31.395 41.8616 31.2438 41.8243C31.0926 41.7682 30.998 41.7496 30.998 41.7496C30.998 41.7309 31.0926 41.7309 31.2627 41.7682C31.4139 41.8056 31.6596 41.8616 31.8486 42.0296C32.0376 42.2164 32.1321 42.4404 32.151 42.5898C32.2077 42.7205 32.1888 42.8325 32.1699 42.8325Z" fill="#FF9A6C"/>
<path d="M28.5039 45.1666C28.5039 45.1666 29.6569 45.2786 30.2806 44.8305C30.9043 44.3824 30.0727 43.6729 30.0727 43.6729L28.5039 45.1666Z" fill="#FFBF9D"/>
<path d="M30.7723 43.4679C30.7534 43.4866 30.6967 43.4119 30.64 43.3185C30.5833 43.2251 30.5644 43.1505 30.5833 43.1318C30.6022 43.1131 30.6589 43.1878 30.7156 43.2812C30.7723 43.3745 30.7912 43.4492 30.7723 43.4679Z" fill="#FF9A6C"/>
<path d="M3.44203 50.376C3.44203 50.376 1.98664 58.5729 2.10005 60.0106C2.23236 61.6537 2.9128 61.7471 3.85785 61.8404C4.7273 61.9151 11.3805 61.0002 11.3805 61.0002L10.6055 57.9567L6.22049 58.1808L7.29785 53.7182L3.44203 50.376Z" fill="#455A64"/>
<path d="M12.7977 59.9172C12.7788 59.9358 10.9076 58.05 8.63942 55.6974C6.35239 53.3447 4.53789 51.4402 4.55679 51.4215C4.57569 51.4029 6.4469 53.2887 8.71503 55.6413C10.9832 57.994 12.8166 59.8985 12.7977 59.9172Z" fill="#263238"/>
<path d="M11.059 57.9943C11.059 57.9943 11.3047 56.6499 11.9096 56.2018C12.4955 55.7537 14.0643 55.2495 14.0643 55.2495C14.0643 55.2495 14.1021 55.4176 13.8942 55.735C13.6674 56.0524 12.9113 56.4632 12.9113 56.4632L14.5935 56.1458L16.1245 55.3242C16.1812 55.2869 16.2568 55.3055 16.2946 55.3429C16.3702 55.4362 16.4458 55.6043 16.1812 55.847C15.7654 56.2204 14.5179 57.0607 14.5179 57.0607C14.5179 57.0607 14.6502 58.4611 14.1966 58.6851C13.743 58.9092 11.9474 59.5067 11.9474 59.5067L11.0968 59.7868L10.6621 58.0129L11.059 57.9943Z" fill="#FFBF9D"/>
<path d="M4.36815 59.5438C4.34924 59.5438 4.36815 59.3944 4.44375 59.1704C4.53826 58.9463 4.72727 58.6476 5.02968 58.4422C5.351 58.2368 5.69122 58.1621 5.93694 58.1621C6.18265 58.1621 6.33386 58.2181 6.33386 58.2181C6.33386 58.2368 6.18265 58.1995 5.95584 58.2368C5.72902 58.2555 5.40771 58.3302 5.10529 58.5355C4.80287 58.7409 4.63276 59.0023 4.51935 59.2264C4.40595 59.3944 4.38705 59.5438 4.36815 59.5438Z" fill="#263238"/>
</g>
<defs>
<linearGradient id="paint0_linear_1638_3544" x1="61.5576" y1="77.3111" x2="61.9142" y2="79.8551" gradientUnits="userSpaceOnUse">
<stop offset="0.078125" stop-color="#0094E8"/>
<stop offset="1" stop-color="#005ECE"/>
</linearGradient>
<linearGradient id="paint1_linear_1638_3544" x1="62.3406" y1="79.522" x2="66.1148" y2="86.0423" gradientUnits="userSpaceOnUse">
<stop offset="0.078125" stop-color="#0094E8"/>
<stop offset="1" stop-color="#005ECE"/>
</linearGradient>
<linearGradient id="paint2_linear_1638_3544" x1="36.6557" y1="11.0427" x2="44.0697" y2="25.7002" gradientUnits="userSpaceOnUse">
<stop offset="0.078125" stop-color="#0094E8"/>
<stop offset="1" stop-color="#005ECE"/>
</linearGradient>
<linearGradient id="paint3_linear_1638_3544" x1="59.3166" y1="23.9874" x2="69.423" y2="37.9983" gradientUnits="userSpaceOnUse">
<stop offset="0.078125" stop-color="#0094E8"/>
<stop offset="1" stop-color="#005ECE"/>
</linearGradient>
<linearGradient id="paint4_linear_1638_3544" x1="16.3938" y1="23.8127" x2="26.6479" y2="37.8983" gradientUnits="userSpaceOnUse">
<stop offset="0.078125" stop-color="#0094E8"/>
<stop offset="1" stop-color="#005ECE"/>
</linearGradient>
<linearGradient id="paint5_linear_1638_3544" x1="21.7106" y1="12.8267" x2="33.5939" y2="29.9435" gradientUnits="userSpaceOnUse">
<stop offset="0.078125" stop-color="#0094E8"/>
<stop offset="1" stop-color="#005ECE"/>
</linearGradient>
<linearGradient id="paint6_linear_1638_3544" x1="51.362" y1="13.0027" x2="63.1696" y2="29.888" gradientUnits="userSpaceOnUse">
<stop offset="0.078125" stop-color="#0094E8"/>
<stop offset="1" stop-color="#005ECE"/>
</linearGradient>
<clipPath id="clip0_1638_3544">
<rect width="86" height="88" fill="white"/>
</clipPath>
</defs>
</svg>
