<svg width="27" height="27" viewBox="0 0 27 27" fill="none" xmlns="http://www.w3.org/2000/svg">
<mask id="path-1-inside-1_1593_8787" fill="white">
<path d="M13.5 0C10.83 -3.184e-08 8.21987 0.791761 5.9998 2.27516C3.77974 3.75856 2.04941 5.86697 1.02763 8.33377C0.00584329 10.8006 -0.261502 13.515 0.259399 16.1337C0.780299 18.7525 2.06605 21.1579 3.95406 23.0459C5.84207 24.934 8.24754 26.2197 10.8663 26.7406C13.485 27.2615 16.1994 26.9942 18.6662 25.9724C21.133 24.9506 23.2414 23.2203 24.7248 21.0002C26.2082 18.7801 27 16.17 27 13.5H18.9C18.9 14.568 18.5833 15.6121 17.9899 16.5001C17.3966 17.3881 16.5532 18.0802 15.5665 18.4889C14.5798 18.8977 13.494 19.0046 12.4465 18.7962C11.399 18.5879 10.4368 18.0736 9.68162 17.3184C8.92642 16.5632 8.41212 15.601 8.20376 14.5535C7.9954 13.506 8.10234 12.4202 8.51105 11.4335C8.91976 10.4468 9.6119 9.60342 10.4999 9.01006C11.3879 8.4167 12.432 8.1 13.5 8.1L13.5 0Z"/>
</mask>
<path d="M13.5 0C10.83 -3.184e-08 8.21987 0.791761 5.9998 2.27516C3.77974 3.75856 2.04941 5.86697 1.02763 8.33377C0.00584329 10.8006 -0.261502 13.515 0.259399 16.1337C0.780299 18.7525 2.06605 21.1579 3.95406 23.0459C5.84207 24.934 8.24754 26.2197 10.8663 26.7406C13.485 27.2615 16.1994 26.9942 18.6662 25.9724C21.133 24.9506 23.2414 23.2203 24.7248 21.0002C26.2082 18.7801 27 16.17 27 13.5H18.9C18.9 14.568 18.5833 15.6121 17.9899 16.5001C17.3966 17.3881 16.5532 18.0802 15.5665 18.4889C14.5798 18.8977 13.494 19.0046 12.4465 18.7962C11.399 18.5879 10.4368 18.0736 9.68162 17.3184C8.92642 16.5632 8.41212 15.601 8.20376 14.5535C7.9954 13.506 8.10234 12.4202 8.51105 11.4335C8.91976 10.4468 9.6119 9.60342 10.4999 9.01006C11.3879 8.4167 12.432 8.1 13.5 8.1L13.5 0Z" fill="#080E80" stroke="#080E80" stroke-width="2" mask="url(#path-1-inside-1_1593_8787)"/>
<path d="M27 13.5C27 11.7272 26.6508 9.97167 25.9724 8.33377C25.2939 6.69588 24.2995 5.20765 23.0459 3.95406C21.7924 2.70047 20.3041 1.70607 18.6662 1.02763C17.0283 0.349188 15.2728 7.74935e-08 13.5 0L13.5 8.1C14.2091 8.1 14.9113 8.23968 15.5665 8.51105C16.2216 8.78243 16.8169 9.18019 17.3184 9.68162C17.8198 10.1831 18.2176 10.7784 18.4889 11.4335C18.7603 12.0887 18.9 12.7909 18.9 13.5L27 13.5Z" fill="#8FBFFA"/>
</svg>
