<svg width="52" height="65" viewBox="0 0 52 65" fill="none" xmlns="http://www.w3.org/2000/svg">
<path d="M37.659 40.4961L40.8016 59.0648C40.9189 59.7168 40.4104 60.2384 39.9801 59.8994L38.8326 58.9866L38.2588 58.5302L32.8082 54.214L29.3135 61.425L28.9484 62.1944L28.2051 63.72C27.9313 64.2808 27.3184 64.1243 27.201 63.4723L25.8188 55.3354L25.571 53.8619L24.1758 45.6207" fill="#F34522"/>
<path d="M33.3438 29.4905L38.2598 58.5302L38.8335 58.9866L33.8132 29.334" fill="#FFEB4A"/>
<path d="M23.9297 32.5287L28.95 62.1943L29.3282 61.425L24.3991 32.3853" fill="#FFEB4A"/>
<path opacity="0.78" d="M27.6844 44.4082L26.0805 53.849L25.8328 55.3225L25.585 53.849L23.9941 44.4212" fill="#D73E16"/>
<path d="M26.9801 45.6209L25.5848 53.849L23.9548 63.4463C23.8505 64.0983 23.2246 64.2548 22.9507 63.6941L22.2075 62.1684L21.8424 61.4121L18.3477 54.2011L12.9101 58.5303L12.3363 58.9867L11.1888 59.8995C10.7715 60.2385 10.263 59.7169 10.3673 59.0649L13.5229 40.418" fill="#F34522"/>
<path d="M17.8257 29.4905L12.9097 58.5302L12.3359 58.9866L17.3563 29.334" fill="#FFEB4A"/>
<path d="M27.2409 32.5287L22.2206 62.1943L21.8555 61.425L26.7715 32.3853" fill="#FFEB4A"/>
<path d="M47.0883 29.4516C47.3752 30.1296 47.5447 30.7947 47.3752 31.4075C47.2187 31.9943 46.7754 32.4638 46.2147 32.881C45.5887 33.3635 45.2627 34.1329 45.3671 34.9153C45.4583 35.5933 45.4453 36.2192 45.1454 36.7278C44.8324 37.2755 44.2326 37.6275 43.5415 37.8883C42.7982 38.1752 42.2636 38.8663 42.1723 39.6618C42.0941 40.392 41.9115 41.044 41.4682 41.4873C41.0378 41.9046 40.438 42.0872 39.7469 42.1784C38.9645 42.2697 38.2864 42.7913 37.9865 43.5215C37.7257 44.1605 37.3867 44.6951 36.8781 44.9951C36.3305 45.308 35.6524 45.308 34.9222 45.2037C34.1267 45.0863 33.3313 45.4123 32.8488 46.0513C32.4055 46.6511 31.923 47.1205 31.3101 47.2901C30.7364 47.4465 30.1235 47.2901 29.4976 47.0293C28.7804 46.7163 27.9328 46.8206 27.3069 47.3031C26.7592 47.7334 26.1855 48.0203 25.5726 48.0203C24.9336 48.0203 24.3338 47.6943 23.7601 47.2379C23.1472 46.7424 22.2996 46.6381 21.5694 46.938C20.8913 47.2249 20.2263 47.3944 19.6134 47.2249C19.0266 47.0684 18.5572 46.625 18.1399 46.0643C17.6705 45.4384 16.8881 45.1124 16.1057 45.2167C15.4276 45.308 14.8017 45.2819 14.2931 44.9951C13.9411 44.7995 13.6803 44.4865 13.4716 44.1083C13.3412 43.8867 13.2369 43.6519 13.1326 43.3912C12.8457 42.6479 12.1546 42.1132 11.3592 42.022C10.6289 41.9437 9.97695 41.7612 9.53359 41.3048C9.11632 40.8745 8.93376 40.2746 8.85552 39.5835C8.79032 39.0228 8.51648 38.5273 8.09921 38.1752C7.92969 38.0318 7.73409 37.9144 7.51242 37.8231C6.87346 37.5623 6.33883 37.2233 6.03891 36.7148C5.72596 36.1671 5.72596 35.489 5.83028 34.7588C5.94764 33.9634 5.62164 33.1679 4.98269 32.6854C4.38285 32.2421 3.91342 31.7596 3.7439 31.1337C3.60046 30.56 3.7439 29.9601 4.0047 29.3212C4.31766 28.5909 4.21334 27.7564 3.73086 27.1305C3.31359 26.5828 3.01367 26.0091 3.01367 25.3962C3.01367 24.7572 3.33967 24.1574 3.8091 23.5836C4.30462 22.9577 4.40893 22.1232 4.10902 21.3929C3.82214 20.7149 3.65262 20.0498 3.82214 19.437C3.97862 18.8502 4.42197 18.3807 4.98269 17.9635C5.6086 17.481 5.9346 16.7116 5.83028 15.9293C5.739 15.2512 5.75204 14.6253 6.05195 14.1167C6.36491 13.569 6.96474 13.217 7.65586 12.9562C8.39913 12.6693 8.93376 11.9782 9.02504 11.1828C9.10328 10.4525 9.28583 9.80053 9.72919 9.35718C10.1595 8.9399 10.7593 8.75734 11.4504 8.66607C12.2328 8.57479 12.9109 8.05319 13.2108 7.32296C13.4716 6.68401 13.8107 6.14938 14.3192 5.84946C14.8669 5.5365 15.545 5.5365 16.2752 5.64082C17.0706 5.75818 17.866 5.43219 18.3485 4.79323C18.7919 4.1934 19.2744 3.72397 19.8872 3.55445C20.461 3.39797 21.0738 3.55445 21.6998 3.81525C22.417 4.1282 23.2645 4.02388 23.8905 3.54141C24.4381 3.1111 25.0119 2.82422 25.6248 2.82422C26.2637 2.82422 26.8635 3.15021 27.4373 3.60661C27.5546 3.69789 27.672 3.77613 27.8024 3.84133C28.3631 4.1282 29.0282 4.15428 29.628 3.90653C30.3061 3.61965 30.9711 3.45013 31.584 3.61965C32.1708 3.77613 32.6402 4.21948 33.0575 4.78019C33.5269 5.40611 34.3093 5.7321 35.0917 5.62778C35.7437 5.5365 36.3435 5.54954 36.839 5.81034C36.8651 5.82338 36.8912 5.83642 36.9173 5.84946C37.4649 6.16242 37.817 6.76225 38.0778 7.45336C38.3647 8.19663 39.0558 8.73127 39.8512 8.82254C40.5814 8.90078 41.2334 9.08334 41.6768 9.53974C42.0941 9.97005 42.2766 10.5699 42.3549 11.261C42.4461 12.0434 42.9677 12.7215 43.698 13.0214C44.3369 13.2822 44.8716 13.6212 45.1715 14.1298C45.4844 14.6774 45.4844 15.3555 45.3801 16.0857C45.2627 16.8812 45.5887 17.6766 46.2277 18.1591C46.8275 18.6024 47.297 19.0849 47.4665 19.7108C47.6099 20.2846 47.4665 20.8844 47.2057 21.5233C46.8927 22.2536 46.9971 23.0881 47.4795 23.714C47.8968 24.2617 48.1967 24.8355 48.1967 25.4483C48.1967 26.0873 47.8707 26.6871 47.4013 27.2609C46.8927 27.8868 46.7754 28.7213 47.0883 29.4516Z" fill="#EAA773"/>
<path d="M38.3095 38.173C45.3369 31.1456 45.3369 19.7519 38.3095 12.7245C31.2821 5.69708 19.8884 5.69708 12.861 12.7245C5.83356 19.7519 5.83356 31.1456 12.861 38.173C19.8884 45.2004 31.2821 45.2004 38.3095 38.173Z" fill="#FFD745"/>
<path d="M45.8615 28.4733C45.9267 27.9517 45.7311 27.4171 45.4312 26.9085C45.0921 26.3217 45.0922 25.5915 45.4442 24.9917C45.7441 24.4831 45.9397 23.9746 45.8745 23.466C45.8093 22.9183 45.4442 22.4489 44.9878 21.9925C44.4923 21.51 44.2967 20.7798 44.4923 20.1148C44.6749 19.5019 44.7531 18.9151 44.5445 18.4196C44.3489 17.9371 43.9186 17.585 43.397 17.2982C42.7971 16.9591 42.432 16.3202 42.4451 15.6291C42.4451 15.0292 42.3668 14.4946 42.0539 14.0773C41.7279 13.647 41.1802 13.4123 40.5673 13.2558C39.8893 13.0863 39.3546 12.5517 39.1981 11.8736C39.0417 11.2477 38.82 10.7 38.3766 10.361C37.9724 10.048 37.4378 9.95673 36.8379 9.96977C36.1599 9.96977 35.5209 9.60466 35.1819 9.01786C34.882 8.49627 34.5299 8.06596 34.0344 7.85732C33.5258 7.63564 32.926 7.70084 32.3131 7.8834C31.6481 8.06596 30.9439 7.87036 30.4615 7.38788C30.0181 6.93149 29.5356 6.57941 28.988 6.50117C28.4664 6.43598 27.9317 6.63157 27.4232 6.93149C26.8364 7.27053 26.1061 7.27053 25.5063 6.91845C24.9978 6.61853 24.4892 6.42294 23.9807 6.48814C23.433 6.55333 22.9635 6.91845 22.5072 7.37484C22.0247 7.87036 21.2944 8.06596 20.6294 7.87036C20.0165 7.6878 19.4297 7.60956 18.9342 7.8182C18.4518 8.0138 18.0997 8.44411 17.8128 8.9657C17.4738 9.56554 16.8348 9.93065 16.1437 9.91761C15.5439 9.91761 15.0092 9.99585 14.592 10.3088C14.1617 10.6348 13.9269 11.1825 13.7705 11.7953C13.6009 12.4734 13.0663 13.0081 12.3882 13.1645C11.7623 13.321 11.2147 13.5427 10.8756 13.986C10.5627 14.3903 10.4714 14.9249 10.4844 15.5247C10.4844 16.2028 10.1193 16.8418 9.53251 17.1808C9.01092 17.4807 8.5806 17.8328 8.37197 18.3283C8.15029 18.8369 8.21549 19.4367 8.39805 20.0496C8.5806 20.7146 8.38501 21.4188 7.90253 21.9012C7.44614 22.3446 7.09406 22.8271 7.01582 23.3747C6.95062 23.8963 7.14622 24.431 7.44614 24.9395C7.78517 25.5263 7.78517 26.2565 7.4331 26.8564C7.13318 27.3649 6.93758 27.8735 7.00278 28.382C7.06798 28.9297 7.4331 29.3991 7.88949 29.8555C8.38501 30.338 8.5806 31.0682 8.38501 31.7333C8.20245 32.3461 8.12421 32.9329 8.33285 33.4284C8.52844 33.9109 8.95876 34.263 9.48035 34.5499C10.0802 34.8889 10.4453 35.5279 10.4323 36.219C10.4323 36.8188 10.5105 37.3534 10.8235 37.7707C11.1495 38.201 11.6971 38.4357 12.31 38.5922C12.9881 38.7617 13.5227 39.2964 13.6792 39.9744C13.8357 40.6004 14.0573 41.148 14.5007 41.4871C14.9049 41.8 15.4396 41.8913 16.0394 41.8783C16.7175 41.8783 17.3564 42.2434 17.6954 42.8302C17.9954 43.3518 18.3474 43.7821 18.843 43.9907C19.3515 44.2124 19.9513 44.1472 20.5642 43.9646C21.2292 43.7821 21.9334 43.9777 22.4159 44.4601C22.8592 44.9165 23.3417 45.2686 23.8894 45.3469C24.411 45.4121 24.9456 45.2165 25.4542 44.9165C26.0409 44.5775 26.7712 44.5775 27.371 44.9296C27.8796 45.2295 28.3881 45.4251 28.8967 45.3599C29.4443 45.2947 29.9138 44.9296 30.3702 44.4732C30.8526 43.9777 31.5829 43.7821 32.2479 43.9777C32.8608 44.1602 33.4476 44.2385 33.9431 44.0298C34.4256 43.8342 34.7776 43.4039 35.0645 42.8823C35.4035 42.2825 36.0425 41.9174 36.7336 41.9304C37.3334 41.9304 37.8681 41.8522 38.2854 41.5392C38.7157 41.2132 38.9504 40.6656 39.1069 40.0527C39.2764 39.3746 39.811 38.84 40.4891 38.6835C41.115 38.527 41.6627 38.3053 42.0017 37.862C42.3147 37.4578 42.4059 36.9231 42.3929 36.3233C42.3929 35.6452 42.758 35.0063 43.3448 34.6672C43.8664 34.3673 44.2967 34.0152 44.5054 33.5197C44.727 33.0112 44.6618 32.4113 44.4793 31.7985C44.2967 31.1334 44.4923 30.4293 44.9748 29.9468C45.4312 29.5035 45.7833 29.034 45.8615 28.4733Z" fill="#CA633A"/>
<path d="M44.5842 26.4264C44.8841 26.948 45.0797 27.4696 45.0145 27.9912C44.9363 28.5388 44.5842 29.0213 44.1278 29.4647C43.6323 29.9471 43.4367 30.6513 43.6323 31.3163C43.8018 31.9292 43.867 32.516 43.6584 33.0376C43.4497 33.5331 43.0194 33.8852 42.4978 34.1851C41.898 34.5241 41.5329 35.1631 41.5459 35.8412C41.5459 36.4279 41.4547 36.9756 41.1547 37.3799C40.8157 37.8232 40.268 38.0449 39.6421 38.2014C38.964 38.3709 38.4294 38.8925 38.2599 39.5705C38.1034 40.1965 37.8817 40.7311 37.4384 41.0571C37.0211 41.37 36.4865 41.4613 35.8866 41.4483C35.1955 41.4483 34.5696 41.8134 34.2175 42.4002C33.9176 42.9218 33.5786 43.3391 33.0961 43.5477C32.5876 43.7563 32.0138 43.6781 31.4009 43.4955C30.7359 43.2999 30.0057 43.4955 29.5232 43.9911C29.0799 44.4474 28.5974 44.8126 28.0497 44.8778C27.5412 44.943 27.0326 44.7474 26.524 44.4474C25.9373 44.0954 25.207 44.0954 24.6072 44.4344C24.0856 44.7343 23.564 44.9299 23.0424 44.8647C22.4947 44.7865 22.0123 44.4344 21.5689 43.978C21.0864 43.4825 20.3823 43.2869 19.7172 43.4825C19.1044 43.652 18.5176 43.7172 17.996 43.5086C17.5005 43.2999 17.1484 42.8696 16.8485 42.348C16.5094 41.7612 15.8835 41.3961 15.1924 41.3961C14.5926 41.3961 14.058 41.3048 13.6537 41.0049C13.2234 40.6659 12.9887 40.1182 12.8322 39.4923C12.7409 39.1011 12.5193 38.7621 12.2324 38.5143C12.0107 38.3318 11.7499 38.1883 11.463 38.1101C10.8371 37.9536 10.3025 37.7319 9.97649 37.2886C9.66353 36.8713 9.57225 36.3367 9.58529 35.7368C9.58529 35.6716 9.58529 35.6064 9.57225 35.5412C9.52009 34.9284 9.16802 34.3807 8.62035 34.0808C8.09875 33.7809 7.68148 33.4288 7.47284 32.9593C7.2642 32.4638 7.34244 31.877 7.51196 31.2642C7.70756 30.5991 7.51196 29.8689 7.01645 29.3864C6.56005 28.9431 6.19494 28.4606 6.12974 27.9129C6.06454 27.4044 6.26013 26.8958 6.56005 26.3873C6.91213 25.8005 6.91213 25.0702 6.57309 24.4835C6.27317 23.9619 6.07758 23.4403 6.14278 22.9187C6.22102 22.371 6.57309 21.8885 7.02949 21.4452C7.525 20.9627 7.7206 20.2585 7.525 19.5935C7.35548 18.9806 7.29028 18.3938 7.49892 17.8723C7.70756 17.3767 8.13787 17.0247 8.65947 16.7247C9.24626 16.3857 9.62441 15.7468 9.61137 15.0687C9.61137 14.4819 9.70265 13.9342 10.0026 13.53C10.3416 13.0866 10.8893 12.865 11.5152 12.7085C12.1933 12.539 12.7279 12.0174 12.8974 11.3393C13.0539 10.7134 13.2886 10.1787 13.7189 9.85275C14.1362 9.5398 14.6708 9.44852 15.2707 9.46156C15.9618 9.46156 16.5877 9.09644 16.9398 8.50965C17.2397 7.98806 17.5787 7.57078 18.0612 7.36214C18.5697 7.15351 19.1435 7.23175 19.7564 7.4143C20.4214 7.6099 21.1516 7.4143 21.6341 6.91879C22.0775 6.4624 22.5599 6.09728 23.1076 6.03208C23.6162 5.96688 24.1247 6.16248 24.6333 6.4624C25.0897 6.73623 25.6373 6.78839 26.1328 6.64495C26.2763 6.60583 26.4197 6.54063 26.5501 6.4624C27.0717 6.16248 27.5933 5.96688 28.1149 6.03208C28.6235 6.09728 29.0538 6.3972 29.471 6.80143C29.5102 6.84055 29.5493 6.87967 29.5884 6.91879C30.0709 7.4143 30.775 7.6099 31.4401 7.4143C32.0529 7.24479 32.6397 7.17959 33.1613 7.38822C33.6568 7.59686 34.0089 8.02718 34.3088 8.54877C34.6479 9.13556 35.2738 9.51372 35.9649 9.50068C36.5647 9.50068 37.0994 9.59196 37.5036 9.89187C37.9339 10.2309 38.1686 10.7786 38.3251 11.4045C38.4946 12.0826 39.0162 12.6172 39.6943 12.7867C40.3202 12.9432 40.8548 13.1649 41.1808 13.6082C41.4938 14.0255 41.5851 14.5601 41.572 15.16C41.559 15.8511 41.9371 16.477 42.5239 16.8291C43.0455 17.129 43.4628 17.4811 43.6714 17.9505C43.8801 18.446 43.8018 19.0328 43.6323 19.6457C43.4367 20.3107 43.6323 21.0409 44.1278 21.5234C44.5842 21.9668 44.9493 22.4492 45.0145 22.9969C45.0797 23.5055 44.8841 24.014 44.5842 24.5226C44.2452 25.1094 44.2452 25.8396 44.5842 26.4264Z" fill="#E38E4E"/>
<path d="M25.5854 40.2484C33.7593 40.2484 40.3856 33.6221 40.3856 25.4482C40.3856 17.2742 33.7593 10.6479 25.5854 10.6479C17.4114 10.6479 10.7852 17.2742 10.7852 25.4482C10.7852 33.6221 17.4114 40.2484 25.5854 40.2484Z" fill="#EAA773"/>
<path d="M35.5039 35.4544C40.7643 30.1941 40.7643 21.6653 35.5039 16.4049C30.2436 11.1446 21.7148 11.1446 16.4544 16.4049C11.1941 21.6653 11.1941 30.1941 16.4544 35.4544C21.7148 40.7148 30.2436 40.7148 35.5039 35.4544Z" fill="#CA633A"/>
<path d="M39.0555 25.448C39.0555 32.8938 33.0181 38.9182 25.5854 38.9182C24.5944 38.9182 23.6425 38.8139 22.7166 38.6052C21.8169 38.4096 20.9562 38.1228 20.1347 37.7576C19.6914 37.562 19.248 37.3404 18.8308 37.0926C18.5048 36.9101 18.1918 36.7145 17.8919 36.4928C17.3964 36.1537 16.9269 35.7756 16.4836 35.3583C16.3923 35.2801 16.3141 35.2018 16.2228 35.1106C16.0402 34.928 15.8577 34.7454 15.6882 34.5629C15.3752 34.2238 15.0753 33.8587 14.7884 33.4936C14.1234 32.6069 13.5627 31.642 13.1454 30.5988C13.028 30.3249 12.9237 30.0381 12.8324 29.7642C12.376 28.4081 12.1152 26.9476 12.1152 25.435C12.1152 18.9281 16.7313 13.4905 22.8731 12.2387C23.1339 12.1865 23.3947 12.1344 23.6555 12.1083C23.8641 12.0822 24.0597 12.0561 24.2684 12.03C24.6987 11.9909 25.142 11.9648 25.5854 11.9648C25.9244 11.9648 26.2504 11.9779 26.5764 12.004C26.9285 12.03 27.2675 12.0692 27.6066 12.1213C28.0108 12.1865 28.402 12.2648 28.7932 12.356C28.8323 12.3691 28.8714 12.3691 28.9105 12.3821C29.2887 12.4864 29.6669 12.5908 30.045 12.7212C30.5275 12.8907 31.01 13.0863 31.4664 13.3079C31.8836 13.5035 32.2879 13.7252 32.6791 13.973C36.4997 16.3593 39.0555 20.6103 39.0555 25.448Z" fill="#EAA773"/>
<path opacity="0.2" d="M28.7005 22.1752L27.0966 23.8573L25.584 20.7799V15.877L28.7005 22.1752Z" fill="white"/>
<path d="M25.584 15.877V20.7799L24.0713 23.8573L22.4805 22.1752L25.584 15.877Z" fill="#CA633A"/>
<path opacity="0.2" d="M24.0717 23.8574L20.6814 24.3399L15.5176 23.1924L22.4809 22.1753L24.0717 23.8574Z" fill="white"/>
<path d="M23.1328 26.7392L20.551 28.0954L15.5176 23.1924L20.6814 24.3399L23.1328 26.7392Z" fill="#CA633A"/>
<path opacity="0.2" d="M23.1337 26.7393L22.547 30.1166L19.3652 35.0196L20.5519 28.0954L23.1337 26.7393Z" fill="white"/>
<path d="M25.5852 28.5254V31.7462L19.3652 35.0192L22.547 30.1163L25.5852 28.5254Z" fill="#CA633A"/>
<path opacity="0.2" d="M31.804 35.0192L25.584 31.7462V28.5254L28.6223 30.1163L31.804 35.0192Z" fill="white"/>
<path d="M31.8037 35.0196L28.6219 30.1166L28.0352 26.7393L30.617 28.0954L31.8037 35.0196Z" fill="#CA633A"/>
<path opacity="0.2" d="M35.6504 23.1924L30.617 28.0954L28.0352 26.7392L30.4866 24.3399L35.6504 23.1924Z" fill="white"/>
<path d="M35.6518 23.1924L30.488 24.3399L27.0977 23.8574L28.7016 22.1753L35.6518 23.1924Z" fill="#CA633A"/>
<path d="M28.0361 26.739L28.6229 30.1163L25.5846 28.5254L22.5463 30.1163L23.1331 26.739L20.6816 24.3397L24.072 23.8572L25.5846 20.7798L27.0972 23.8572L30.4876 24.3397L28.0361 26.739Z" fill="#EAA773"/>
</svg>
