<svg width="100" height="100" viewBox="0 0 100 100" fill="none" xmlns="http://www.w3.org/2000/svg">
<rect width="99.6208" height="99.6208" rx="16" fill="#D9D9D9"/>
<mask id="mask0_1565_3874" style="mask-type:luminance" maskUnits="userSpaceOnUse" x="12" y="6" width="75" height="87">
<path d="M19.5527 16.077C4.99656 24.961 15.7453 83.2634 24.0336 87.9256C32.3218 92.5877 65.138 94.841 76.7933 87.5888C88.4486 80.3366 90.5206 32.6794 78.0883 18.175C65.656 3.6706 40.7913 3.12668 19.5527 16.077Z" fill="white"/>
</mask>
<g mask="url(#mask0_1565_3874)">
<path d="M69.6977 50.6277C69.4409 50.9102 69.1585 51.0145 68.876 50.9656C68.8713 50.9648 68.8669 50.9646 68.8621 50.9638V50.9638C68.8203 50.9572 68.7894 50.9716 68.7869 51.0138C68.7471 51.7119 68.6932 52.4091 68.636 53.0838C68.6067 53.4295 68.8328 53.7617 69.1797 53.7617V53.7617C69.2056 53.7617 69.2315 53.7617 69.2833 53.7617C71.6403 53.7617 73.6346 51.0939 73.7123 47.8045V47.8045C73.7686 45.5804 71.51 45.9533 70.8566 48.08C70.4855 49.2878 70.0916 50.186 69.6977 50.6277Z" fill="#FFDDAA"/>
<path d="M29.4968 52.8428C29.4527 52.5626 29.2642 52.3452 29.0683 52.1401C28.4136 51.4546 27.7552 49.8248 27.1818 47.8877C26.5756 45.8396 24.2984 45.4621 24.2407 47.5972V47.5972C24.1889 49.229 24.6033 50.783 25.4062 51.9744C26.1832 53.1141 27.271 53.7875 28.4107 53.8134C28.4366 53.8134 28.4625 53.8134 28.5143 53.8134C28.6223 53.8134 28.7303 53.8065 28.8383 53.7941C29.286 53.7426 29.5669 53.2879 29.4968 52.8428V52.8428Z" fill="#FFDDAA"/>
<path d="M48.2139 71.3285C49.1645 71.7609 50.239 71.7628 51.1884 71.328C52.8738 70.5562 54.9472 69.1683 55.7944 68.5824C55.9852 68.4504 56.0892 68.2377 56.0806 68.0058V68.0058C56.0646 67.5751 55.651 67.2737 55.235 67.3865C53.2643 67.9205 51.166 68.2402 49.0277 68.2402C47.4207 68.2402 45.6881 68.0517 43.9616 67.7124C43.6626 67.6536 43.3855 67.8706 43.3735 68.1751V68.1751C43.3665 68.3526 43.4475 68.532 43.5963 68.629C44.4684 69.1973 46.5314 70.563 48.2139 71.3285Z" fill="#FFDDAA"/>
<path d="M31.7525 60.988C33.3842 64.1738 42.4495 67.6703 49.0283 67.6703C57.5755 67.6703 65.9673 62.1794 67.107 59.3303C67.3615 58.6709 67.5798 57.5825 67.762 56.2498C68.2654 52.5676 67.5734 48.6062 67.4152 44.8932C67.4075 44.7103 67.3997 44.5238 67.3919 44.3338C67.2624 41.1739 67.1328 37.5996 66.045 36.719C62.3671 33.8181 56.4877 32.3418 48.588 32.3418C38.6162 32.3418 32.7885 35.7089 31.2604 36.719C30.3539 37.3147 30.5093 41.7178 30.6129 45.2403C30.7424 49.1254 30.7942 51.5342 30.1985 52.1817V52.1817C30.0871 52.3302 29.9596 52.4972 29.9874 52.6807C30.5685 56.513 31.1728 59.8789 31.7525 60.988Z" fill="#FFDDAA"/>
<path d="M55.4348 77.3305C55.4756 77.1238 55.2732 76.9431 55.0625 76.9431V76.9431C54.933 76.9431 54.8294 76.9172 54.7258 76.8654V76.8654C54.043 76.5551 53.2291 76.6514 52.6966 77.1796V77.1796C52.4127 77.4612 52.2018 77.8574 52.2254 78.2566L53.0439 92.0742C53.0576 92.306 53.2459 92.4891 53.478 92.4964V92.4964C53.7139 92.5037 53.912 92.3269 53.9204 92.091C53.9278 91.8828 53.9342 91.6434 53.9487 91.3957C54.0496 88.7239 54.3221 82.9612 55.4348 77.3305Z" fill="white"/>
<path d="M48.0205 78.587C48.0663 78.0388 47.7505 77.506 47.3367 77.1435V77.1435C46.6312 76.5254 45.5716 76.3852 44.7355 76.8104C44.7149 76.8208 44.695 76.8305 44.6759 76.8393C44.5723 76.8911 44.4687 76.917 44.3392 76.917V76.917C44.1655 76.917 44.0163 77.0543 44.051 77.2244C45.2046 82.8886 45.455 88.7064 45.5565 91.3696C45.5634 91.4587 45.5684 91.5459 45.5726 91.6304C45.5902 91.9853 45.8739 92.2555 46.2291 92.2626V92.2626C46.6067 92.2702 46.9235 91.9835 46.9515 91.6069C47.1697 88.6732 47.739 81.96 48.0205 78.587Z" fill="white"/>
<path d="M51.7937 79.5345C51.7477 78.7611 50.8913 78.264 50.1166 78.264V78.264C50.0389 78.264 49.9871 78.264 49.9094 78.264V78.264C49.2531 78.2254 48.5556 78.6303 48.4992 79.2853C48.1747 83.0537 47.7803 87.7386 47.5543 90.5626C47.4436 91.9446 48.4841 93.0698 49.8704 93.0904V93.0904C51.3456 93.1123 52.5283 91.8757 52.4406 90.4029L51.7937 79.5345Z" fill="#ED343A"/>
<path d="M51.7801 77.2543C52.7994 76.5844 52.4619 75.1512 51.5594 74.3306C51.5083 74.2842 51.4577 74.2379 51.4073 74.192C50.442 73.3095 49.1359 73.1383 48.1721 74.0224V74.0224C47.382 74.7472 46.925 76.1089 47.7445 76.8003C48.3627 77.3218 49.1403 77.7027 49.9339 77.746C49.9857 77.746 50.0634 77.746 50.1152 77.746C50.7583 77.7571 51.316 77.5594 51.7801 77.2543Z" fill="#ED343A"/>
<path d="M43.7009 75.6939C43.7953 76.0864 44.1092 76.5794 44.4702 76.3989V76.3989C44.8027 76.243 45.406 75.7789 46.1063 75.1868C47.5487 73.9674 47.0447 71.3771 45.4338 70.391C44.9292 70.0822 44.4612 69.78 44.0689 69.5199C43.5889 69.2018 42.9353 69.3585 42.6111 69.8344C42.4297 70.1007 42.26 70.3281 42.1312 70.4961C42.1209 70.5095 42.1222 70.5284 42.1342 70.5403V70.5403C42.1375 70.5436 42.1401 70.5475 42.1417 70.5519C42.7673 72.1517 43.2684 73.8967 43.7009 75.6939Z" fill="white"/>
<path d="M38.4399 81.3477C38.6947 80.431 37.7219 79.7958 37.2176 78.9889V78.9889V78.9889C36.0139 77.0974 33.7427 75.66 31.6226 76.3891C30.4424 76.7949 29.4178 77.255 28.8517 77.7457C27.867 78.6024 26.9013 81.612 26.1447 84.6362C25.2157 88.3494 28.0477 91.8087 31.8726 91.9546V91.9546C36.1021 92.1159 39.448 88.1609 38.7463 83.9869C38.5344 82.7266 38.3919 81.8472 38.3831 81.8121C38.3652 81.693 38.3885 81.5327 38.4399 81.3477Z" fill="#A5656A"/>
<path d="M45.0388 91.4216C44.9284 88.7726 44.6743 83.0402 43.5527 77.4443C42.7862 73.6204 38.1018 71.3013 35.9995 74.5861V74.5861C35.8161 74.8694 36.2011 75.9247 36.7266 77.0207C37.2922 78.2003 38.3084 78.938 39.6057 78.7697C39.6986 78.7577 39.7918 78.7445 39.8846 78.7302C39.9882 78.7043 40.0918 78.7561 40.1436 78.8338C40.1954 78.9115 40.1954 79.041 40.1436 79.1187C39.5997 79.9994 38.8226 81.4239 38.9003 81.8124C39.0552 82.9479 40.6756 92.4396 41.0717 93.1495C41.0753 93.1559 41.079 93.1595 41.0831 93.1656V93.1656C41.1129 93.2093 41.1471 93.2567 41.1998 93.2523L43.617 93.0496C44.4306 92.9813 45.0603 92.2378 45.0388 91.4216V91.4216Z" fill="#A5656A"/>
<path d="M57.1241 71.2054C57.2705 70.8105 57.2932 70.4837 57.0468 70.142V70.142C56.6289 69.5624 55.7405 69.2468 55.144 69.6402C54.806 69.8632 54.4231 70.1098 54.0159 70.3608C52.412 71.3494 51.8999 73.9598 53.3395 75.1752C54.0326 75.7604 54.6289 76.2184 54.9587 76.373V76.373C55.3877 76.5875 55.7396 75.9694 55.8476 75.502C56.19 74.0215 56.6192 72.567 57.1241 71.2054Z" fill="#D7E5EC"/>
<path d="M67.8604 76.3831C65.7406 75.6533 63.4675 77.0974 62.2638 78.9889V78.9889V78.9889C61.7994 79.7784 60.81 80.4715 61.044 81.357C61.083 81.5046 61.1051 81.6378 61.1045 81.7488C61.1041 81.8087 61.0952 81.8656 61.0862 81.9248C61.0484 82.1743 60.9247 82.938 60.7523 83.9619C60.0442 88.1652 63.4019 92.1409 67.6612 91.9785V91.9785C71.4781 91.8329 74.2926 88.4156 73.368 84.7095C72.6095 81.6695 71.6324 78.6328 70.6297 77.7716C70.0638 77.256 69.0399 76.7892 67.8604 76.3831Z" fill="#A5656A"/>
<path d="M70.992 77.3573C69.8107 76.3206 66.9238 75.4635 64.5457 74.9112C64.2416 74.8406 64.0818 74.5428 63.9212 74.2751V74.2751C63.6033 73.7586 60.9081 71.901 59.1202 70.9233C58.3168 70.4839 57.5072 69.955 57.0189 69.1803C56.9365 69.0495 56.8544 68.9129 56.7758 68.7724C56.6667 68.5775 56.6115 68.3795 56.6002 68.1565V68.1565C56.5645 67.4476 57.0251 66.8017 57.691 66.5561C62.8463 64.6549 66.8015 61.5437 67.5991 59.5376C67.9744 58.6228 68.2435 56.9008 68.464 54.8525C68.5009 54.5098 68.8343 54.2798 69.179 54.2798V54.2798C69.2049 54.2798 69.2567 54.2798 69.2826 54.2798C71.9504 54.2798 74.126 51.4566 74.2296 47.8305V47.8305C74.3574 43.9535 72.5309 39.8763 72.8546 36.0107C73.1009 33.0702 73.1695 30.302 72.9864 28.3791C72.313 21.36 56.6949 17.3713 48.4843 16.8274C44.9619 16.5943 41.3099 16.5425 37.7615 16.4907C32.3741 16.413 27.712 16.3612 25.2773 15.6101C24.7852 15.4547 24.3449 15.377 24.0082 15.377C23.0499 15.377 22.7909 15.9209 22.7132 16.2576C22.5609 17.038 23.1361 18.1543 24.0378 19.0922C24.3382 19.4046 24.1308 19.9873 23.6974 19.9873V19.9873C21.962 19.9873 19.6051 20.065 18.1287 20.4017C17.1963 20.6348 17.0927 21.2305 17.1186 21.5672V21.5672C17.4359 26.3266 23.9499 29.1604 24.6893 33.8727C25.0501 36.1724 25.3887 38.4668 25.5622 40.0085V40.0085C25.7227 41.3996 25.1934 42.7862 24.5703 44.0402C24.0719 45.0431 23.7688 46.2411 23.7233 47.5456C23.6715 49.281 24.1118 50.9645 24.9924 52.2077C25.873 53.5028 27.0904 54.228 28.4113 54.2798C28.4372 54.2798 28.489 54.2798 28.5149 54.2798V54.2798C29.1438 54.2798 29.7662 54.6466 29.8693 55.267C30.3299 58.0381 30.8081 60.3103 31.2863 61.2212C32.4822 63.5631 37.2009 65.9769 42.2614 67.2639C42.6136 67.3535 42.8699 67.6685 42.8553 68.0316C42.852 68.1142 42.8474 68.1974 42.841 68.2807C42.8391 68.3048 42.8202 68.3252 42.8136 68.3484V68.3484C42.8094 68.3633 42.8086 68.377 42.8018 68.3909C42.6535 68.6934 42.4798 68.9897 42.3078 69.2585C41.83 70.005 41.0659 70.5179 40.29 70.9463C38.5119 71.9278 35.8834 73.7437 35.5599 74.2492V74.2492C35.3989 74.5175 35.2407 74.8168 34.9364 74.8898C32.5611 75.4599 29.6946 76.2946 28.489 77.3314C26.3188 79.2364 24.4405 89.874 24.1915 91.4377C24.1708 91.5678 24.133 91.712 24.2089 91.8196V91.8196C24.2849 91.9272 24.4503 91.9447 24.5589 91.8702C24.6155 91.8314 24.6557 91.7722 24.6557 91.7063V91.7063C24.6557 91.6891 24.6565 91.675 24.6589 91.6579C24.906 89.9541 26.8145 79.4734 28.8257 77.7458C29.4012 77.2454 30.4237 76.7874 31.5957 76.3861C33.7154 75.6605 35.9888 77.0989 37.1916 78.9891V78.9891V78.9891C37.6561 79.7786 38.6455 80.4716 38.4115 81.3572C38.3725 81.5047 38.3504 81.6379 38.351 81.7489C38.3513 81.8088 38.3603 81.8657 38.3693 81.9249C38.4976 82.7718 39.6154 89.5462 40.2738 92.302C40.4033 92.8718 40.5328 93.2603 40.6105 93.3898C40.6623 93.4675 40.74 93.5193 40.8177 93.5193V93.5193C40.9151 93.5193 40.9986 93.4427 41.0435 93.3563C41.0647 93.3155 41.0767 93.2719 41.0767 93.2344V93.2344C41.0767 93.1612 41.0322 93.101 41.0062 93.0325C40.5513 91.8327 39.0252 82.8866 38.8752 81.7863C38.8234 81.3978 39.5745 79.9733 40.1184 79.0927C40.1702 79.015 40.1702 78.8855 40.1184 78.8078C40.0666 78.7301 39.963 78.6783 39.8594 78.7042C39.7661 78.7209 39.6722 78.7361 39.5788 78.7498C38.2844 78.9392 37.267 78.1742 36.7014 76.9946C36.1759 75.8986 35.791 74.8433 35.9743 74.56V74.56C38.0405 71.2542 42.7582 73.5963 43.5245 77.4188C44.6487 83.0273 44.9032 88.7625 45.0137 91.3955C45.0618 92.3335 45.0652 92.6908 45.1069 92.8615C45.1129 92.8858 45.1174 92.9108 45.1286 92.9333V92.9333C45.1417 92.9598 45.1478 92.9902 45.1634 93.0154C45.2282 93.1202 45.3643 93.177 45.4799 93.1308C45.6094 93.079 45.6871 92.9236 45.6353 92.7941C45.6094 92.7423 45.6094 92.5351 45.5835 92.2761C45.5835 92.043 45.5576 91.7322 45.5317 91.3955C45.4048 88.7323 45.1538 82.9147 44.0246 77.2506C43.9906 77.08 44.1403 76.9429 44.3143 76.9429V76.9429C44.4438 76.9429 44.5474 76.917 44.651 76.8652C44.674 76.8546 44.698 76.8427 44.723 76.8296C45.5544 76.3927 46.5957 76.5382 47.3003 77.1592V77.1592C47.7199 77.529 48.041 78.0707 47.9939 78.628C47.684 82.2972 47.0186 89.8854 46.8526 92.3279C46.8267 92.7423 46.8008 93.0013 46.8008 93.079C46.8008 93.2344 46.9044 93.338 47.0598 93.338C47.1893 93.338 47.3188 93.2344 47.3188 93.079C47.3188 92.6481 47.9828 84.9352 48.4515 79.3114C48.506 78.6574 49.202 78.2512 49.8571 78.2897V78.2897C49.9348 78.2897 49.9866 78.2897 50.0643 78.2897V78.2897C50.8546 78.2897 51.6942 78.7687 51.7411 79.5576L52.5508 93.1826V93.2085C52.5508 93.338 52.6803 93.4416 52.8098 93.4416H52.8357V93.4416C52.9911 93.4416 53.0947 93.3121 53.0688 93.1567L53.017 92.4833L52.1743 78.2564C52.1506 77.8571 52.3615 77.461 52.6455 77.1793V77.1793C53.1779 76.6512 53.9919 76.5549 54.6746 76.8652V76.8652C54.7782 76.917 54.8818 76.9429 55.0113 76.9429V76.9429C55.2217 76.9429 55.4235 77.124 55.3821 77.3302C54.2465 82.9854 53.9977 88.7485 53.8717 91.3955C53.8458 91.8358 53.8458 92.2502 53.8199 92.5092V92.5092C53.8199 92.7154 53.7163 92.9646 53.8676 93.1047C53.8913 93.1266 53.9189 93.1446 53.9494 93.1567C54.0638 93.2025 54.1985 93.1674 54.264 93.0514C54.2818 93.0198 54.2903 92.983 54.3051 92.9499V92.9499C54.3127 92.9329 54.3136 92.9145 54.3163 92.8962C54.3408 92.729 54.3667 92.3758 54.4156 91.4214C54.526 88.7724 54.7801 83.04 55.9017 77.4441C56.6682 73.6202 61.3527 71.3011 63.4549 74.5859V74.5859C63.6407 74.8731 63.2427 75.9534 62.7063 77.0581C62.1538 78.1957 61.169 78.9306 59.9161 78.7582C59.8015 78.7424 59.6857 78.7244 59.5698 78.7042C59.4662 78.6783 59.3626 78.7301 59.3108 78.8078C59.259 78.8855 59.259 79.015 59.3108 79.0927C59.8547 79.9733 60.6318 81.3978 60.5541 81.7863C60.404 82.8868 58.8774 91.8362 58.4228 93.0332C58.397 93.1011 58.3525 93.1618 58.3525 93.2344V93.2344C58.3525 93.338 58.3784 93.4157 58.482 93.4675C58.5338 93.4934 58.5597 93.5193 58.6115 93.5193V93.5193C58.7832 93.5193 58.8631 93.3148 58.9203 93.153C58.9897 92.9572 59.0725 92.6667 59.1554 92.302C59.8548 89.4011 61.0462 81.9417 61.0721 81.8381C61.0903 81.7107 61.0658 81.542 61.0124 81.3491C60.7583 80.4322 61.7333 79.7959 62.2376 78.9891V78.9891V78.9891C63.4413 77.0976 65.7125 75.6601 67.8326 76.3892C69.0128 76.795 70.0374 77.2551 70.6035 77.7458C72.5939 79.4777 74.5069 90.0068 74.772 91.6706C74.7732 91.6781 74.7735 91.6842 74.7735 91.6919V91.6919C74.7735 91.7015 74.7744 91.7111 74.7768 91.7203C74.8089 91.8432 74.9337 91.9385 75.0585 91.9135V91.9135C75.3057 91.8641 75.2571 91.4974 75.2199 91.248C74.9087 89.166 73.0863 79.1956 70.992 77.3573ZM55.8288 75.5294C55.7173 75.9966 55.3632 76.6138 54.9336 76.399V76.399C54.6007 76.243 53.9963 75.7778 53.2948 75.1846C51.8537 73.9661 52.3574 71.3781 53.9671 70.393C54.381 70.1397 54.7705 69.8907 55.1138 69.6658C55.7134 69.273 56.6046 69.5898 57.024 70.1711V70.1711C57.2692 70.511 57.2482 70.8353 57.105 71.2293C56.6148 72.5772 56.1857 74.033 55.8288 75.5294ZM50.1161 77.7717C50.0643 77.7717 50.0125 77.7717 49.9348 77.7717C49.1411 77.7284 48.3636 77.3475 47.7454 76.826C46.9259 76.1346 47.3829 74.7729 48.173 74.0481V74.0481C49.1368 73.164 50.4463 73.3316 51.4131 74.2123C51.4633 74.258 51.5138 74.304 51.5647 74.3501C52.4682 75.1699 52.7884 76.6025 51.7672 77.27C51.3059 77.5716 50.7529 77.7717 50.1161 77.7717ZM42.1126 70.5193C42.1006 70.5074 42.0945 70.4837 42.1048 70.4703C42.2336 70.3023 42.4033 70.0749 42.5847 69.8086C42.9089 69.3327 43.5621 69.1765 44.0411 69.4961C44.4275 69.7539 44.8875 70.0532 45.3835 70.359C46.9886 71.3486 47.5012 73.9613 46.0602 75.1777C45.3683 75.7617 44.7732 76.2187 44.4438 76.3731V76.3731C44.0981 76.5805 43.7719 76.0591 43.6805 75.6665C43.2625 73.8698 42.7407 72.1255 42.1153 70.5261C42.1136 70.5218 42.1159 70.5226 42.1126 70.5193V70.5193ZM28.4372 53.7877C27.2976 53.7618 26.2357 53.1143 25.4327 51.9487C24.6298 50.7832 24.2154 49.2292 24.2672 47.5715V47.5715C24.3246 45.4765 26.6088 45.8456 27.2031 47.8554C27.7744 49.7872 28.4304 51.4103 29.0833 52.1029C29.2829 52.3146 29.4688 52.5593 29.5088 52.8475V52.8475C29.5676 53.271 29.3348 53.7033 28.9092 53.7447C28.8238 53.753 28.737 53.7581 28.6488 53.7604C28.5778 53.7622 28.5083 53.7877 28.4372 53.7877V53.7877ZM23.6456 25.4523C20.7447 25.1933 17.7402 22.7846 17.6625 21.5413C17.6366 21.3341 17.6884 21.0492 18.2841 20.9197C19.7087 20.583 22.0397 20.5053 23.7492 20.5053C25.1478 20.5053 26.2098 20.5571 26.2357 20.5571C26.3652 20.5571 26.4688 20.4794 26.4947 20.3499V20.3499C26.542 20.1132 26.2252 20.0217 26.0105 19.9114C24.3753 19.0704 23.087 17.2601 23.2571 16.3612C23.283 16.2576 23.3348 15.9209 24.0341 15.9209C24.3449 15.9209 24.7334 15.9986 25.1737 16.1281C27.6861 16.8792 32.3741 16.9569 37.8133 17.0346C41.3358 17.0864 44.9878 17.1382 48.5102 17.3713C57.964 18.0188 71.9504 22.3442 72.5202 28.4568C73.1159 34.673 71.1215 48.3485 69.3344 50.2911C69.2049 50.4206 69.1013 50.4983 69.0236 50.4724C68.1948 50.2652 68.0653 47.1312 67.9617 44.3598C67.8322 40.915 67.7027 37.3666 66.4076 36.3565C62.6261 33.3779 56.669 31.8757 48.6398 31.8757C38.7975 31.8757 33.0216 35.0097 31.0014 36.3565C29.9395 37.0558 29.9654 40.3711 30.1467 45.3182C30.2503 48.1413 30.3539 51.353 29.8617 51.8969C29.8099 51.9487 29.784 51.9746 29.7581 51.9746C28.8516 51.9746 26.7796 45.6549 26.132 39.9826C25.6399 35.709 23.9305 25.789 23.9046 25.6854C23.8528 25.5559 23.7751 25.4782 23.6456 25.4523ZM73.7116 47.8305C73.608 51.1199 71.6137 53.7877 69.2826 53.7877C69.2567 53.7877 69.2308 53.7877 69.179 53.7877V53.7877C68.8292 53.7877 68.6058 53.4582 68.6353 53.1096C68.6925 52.435 68.7464 51.7378 68.7862 51.0398C68.7887 50.9976 68.8196 50.9832 68.8614 50.9899V50.9899C68.8662 50.9906 68.8706 50.9909 68.8753 50.9917C69.1578 51.0405 69.4402 50.9362 69.697 50.6537C70.0895 50.2136 70.482 49.3148 70.8519 48.1101C71.5061 45.9798 73.7962 45.6037 73.7116 47.8305V47.8305ZM30.0071 52.724C29.9828 52.5603 30.0639 52.3845 30.1943 52.2826V52.2826C30.2108 52.2697 30.2312 52.2524 30.2447 52.2364C30.8189 51.5563 30.7668 49.1585 30.6388 45.3182C30.5352 41.7957 30.3798 37.3925 31.2863 36.7968C32.8403 35.7608 38.6421 32.4196 48.6138 32.4196C56.5136 32.4196 62.393 33.896 66.0709 36.7968C67.1846 37.6775 67.3141 41.2517 67.4178 44.4116C67.4247 44.58 67.4316 44.7456 67.4385 44.9084C67.5974 48.6598 68.276 52.6685 67.771 56.3892C67.594 57.6938 67.3834 58.7589 67.1328 59.4081C66.0191 62.2572 57.6014 67.7482 49.0542 67.7482C42.4495 67.7482 33.4101 64.2516 31.7784 61.0658C31.1719 59.8781 30.5654 56.4962 30.0071 52.724ZM49.0542 68.2144C51.1729 68.2144 53.2716 67.8937 55.2621 67.3583C55.6776 67.2465 56.0907 67.5653 56.107 67.9953V67.9953C56.1158 68.2278 56.0111 68.4249 55.8197 68.5573C54.9803 69.1378 52.9408 70.5031 51.2655 71.2789C50.2836 71.7336 49.1701 71.7398 48.1868 71.2881C46.4962 70.5114 44.4445 69.1266 43.6146 68.5426C43.4837 68.4505 43.4073 68.2917 43.4131 68.1318V68.1318C43.4245 67.8119 43.7318 67.5846 44.045 67.6507C45.7403 68.0081 47.4591 68.2144 49.0542 68.2144Z" fill="#674940"/>
<path d="M58.3984 93.1445C58.4064 93.1189 58.4091 93.0979 58.4207 93.0737C58.8365 92.201 60.4267 82.8844 60.58 81.7601C60.6318 81.3716 59.8806 79.9471 59.3367 79.0665C59.2849 78.9888 59.2849 78.8593 59.3367 78.7816C59.3885 78.7039 59.4921 78.6521 59.5957 78.678C59.6896 78.6944 59.7834 78.7093 59.8766 78.7228C61.1713 78.9099 62.1877 78.1478 62.7542 76.9686C63.2794 75.8751 63.6641 74.8263 63.4808 74.5598V74.5598C61.4147 71.2539 56.6969 73.5961 55.9307 77.4185C54.8064 83.027 54.552 88.7622 54.4415 91.3952V91.3952C54.4022 92.1621 55.075 92.9593 55.8402 93.0234L58.2525 93.2258C58.3129 93.2308 58.3803 93.2023 58.3984 93.1445V93.1445Z" fill="#A5656A"/>
<path d="M29.707 51.9742V51.9742C29.7964 51.9742 29.8436 51.865 29.8851 51.7857C30.2915 51.0074 30.1935 47.9887 30.0955 45.3177C29.9401 40.3448 29.9142 37.0554 30.9502 36.3561C32.9704 35.0092 38.7204 31.8752 48.5886 31.8752C56.6178 31.8752 62.5749 33.3775 66.3564 36.3561C67.6515 37.3662 67.781 40.9146 67.9105 44.3594C68.0141 47.1307 68.1436 50.2647 68.9724 50.4719C69.0501 50.4978 69.1796 50.4201 69.2832 50.2906C71.0704 48.3481 73.0388 34.6725 72.469 28.4563C71.8992 22.3438 57.9128 18.0184 48.4591 17.3708C44.9366 17.1377 41.2846 17.0859 37.7621 17.0341C32.3229 16.9564 27.6349 16.9046 25.1225 16.1276C24.6822 15.9981 24.2937 15.9204 23.9829 15.9204C23.2836 15.9204 23.2318 16.2571 23.2059 16.3607C23.0246 17.319 24.5009 19.3134 26.2881 20.0645C26.3917 20.1163 26.4694 20.2458 26.4435 20.3494V20.3494C26.3962 20.5856 26.0643 20.5508 25.8236 20.5422C25.3916 20.5269 24.611 20.5048 23.698 20.5048C21.9885 20.5048 19.6575 20.5825 18.2329 20.9192C17.6631 21.0487 17.6113 21.3337 17.6113 21.5409C17.7408 22.7841 20.7453 25.1929 23.6462 25.4519C23.7498 25.4519 23.8534 25.5555 23.8793 25.6591C23.9052 25.7627 25.6146 35.6826 26.1068 39.9563C26.7543 45.6544 28.8004 51.9742 29.707 51.9742Z" fill="#935C4B"/>
<path d="M31.5966 49.9288C31.3376 47.5978 31.7779 41.3039 32.8916 39.3872C34.0054 37.4965 42.8116 34.2848 51.7214 34.9064C60.6054 35.5021 63.1954 38.7138 64.4905 41.1226C65.7855 43.5313 65.1898 57.1033 62.6774 60.7294V60.7294C61.5191 62.4211 62.0014 64.0951 63.6808 62.9191C65.493 61.6502 66.7385 60.3625 67.1323 59.3826C67.3869 58.7231 67.6052 57.6347 67.7874 56.302C68.2908 52.6199 67.5988 48.6585 67.4406 44.9454C67.4329 44.7625 67.4251 44.5761 67.4172 44.3861C67.2877 41.2262 67.1582 37.6519 66.0704 36.7713C62.3925 33.8704 56.5131 32.394 48.6133 32.394C38.6416 32.394 32.8139 35.7611 31.2858 36.7713C30.3793 37.367 30.5347 41.7701 30.6383 45.2926C30.7678 49.1777 30.8196 51.5865 30.2239 52.234V52.234C30.1088 52.3874 30.095 52.4142 30.2786 52.3589C30.8044 52.2006 31.7881 51.6523 31.5966 49.9288Z" fill="#FCC58D"/>
<path d="M29.4634 52.6493C29.4373 52.5009 29.3373 52.3787 29.2207 52.2833C29.1587 52.2327 29.0967 52.1731 29.0346 52.105C28.6632 51.698 26.5785 52.0226 26.1937 52.417V52.417C26.0084 52.607 26.1288 52.7856 26.333 52.9552C26.9568 53.4733 27.674 53.7657 28.4093 53.7874C28.4352 53.7874 28.4611 53.7874 28.5129 53.7874C28.6256 53.7874 28.7384 53.7799 28.8511 53.7664C29.2896 53.714 29.5652 53.2821 29.4961 52.8459C29.4857 52.7801 29.4748 52.7147 29.4634 52.6493Z" fill="#FCC58D"/>
<path d="M69.2833 53.7878C70.0156 53.7878 70.6999 53.5322 71.3112 53.0837C71.5662 52.8967 71.5145 52.5184 71.2767 52.3099C70.8001 51.8919 70.537 51.3729 70.4138 50.8264C70.3634 50.6028 69.85 50.4824 69.6977 50.6538V50.6538C69.4409 50.9363 69.1585 51.0405 68.876 50.9917C68.8713 50.9909 68.8669 50.9907 68.8621 50.9899V50.9899C68.8203 50.9833 68.7894 50.9977 68.7869 51.0399C68.7471 51.738 68.6932 52.4352 68.636 53.1099C68.6067 53.4556 68.8328 53.7878 69.1797 53.7878V53.7878C69.2056 53.7878 69.2574 53.7878 69.2833 53.7878Z" fill="#FCC58D"/>
<path d="M56.0829 68.0509C56.0842 67.583 55.6153 67.2587 55.1634 67.3798C53.2134 67.9023 51.1398 68.2143 49.0272 68.2143V68.2143C48.3407 68.2143 48.0765 69.3031 48.7426 69.4693C49.2098 69.5858 49.651 69.6736 50.0373 69.7165V69.7165C51.4019 69.8649 53.1239 70.3232 54.282 69.5865C54.9124 69.1855 55.4465 68.8247 55.7824 68.5948C55.9656 68.4694 56.0823 68.2729 56.0829 68.0509V68.0509Z" fill="#FCC58D"/>
<path d="M69.4132 41.3811C69.5945 38.4544 70.009 35.3463 65.9684 32.5749C61.902 29.8035 47.3976 26.8768 47.3199 27.4725V27.4725C47.2374 28.1053 46.9731 29.0698 46.3349 29.0706C41.2743 29.0775 32.5566 30.7557 32.5566 31.2022C32.5566 31.7202 34.8099 31.9792 34.1106 32.1605C33.4113 32.3418 30.3032 33.1188 29.1895 35.0096C28.0757 36.9003 28.8528 42.0028 29.2672 47.2606C29.417 49.0582 29.4179 50.1925 29.3481 50.9081C29.3074 51.3259 29.3136 51.9745 29.7334 51.9745V51.9745V51.9745C29.8229 51.9745 29.8701 51.8654 29.9115 51.7861C30.3179 51.0077 30.2199 47.989 30.1219 45.3181C29.9665 40.3451 29.9406 37.0557 30.9766 36.3564C32.9969 35.0096 38.7468 31.8756 48.615 31.8756C56.6442 31.8756 62.6014 33.3778 66.3829 36.3564C67.6779 37.3665 67.8074 40.9149 67.9369 44.3597C68.0405 47.1311 68.17 50.2651 68.9988 50.4723C69.0765 50.4982 69.206 50.4205 69.3096 50.291V50.291C69.7513 49.8493 69.5534 49.0955 69.3882 48.4931C68.8903 46.6777 69.2847 43.3737 69.4132 41.3811Z" fill="#845142"/>
<path d="M38.1506 17.8112C44.7812 17.863 54.7011 18.5105 62.1864 20.2458C57.7574 18.6659 52.655 17.6558 48.4591 17.3708C44.9366 17.1377 41.2846 17.0859 37.7621 17.0341C32.3229 16.9564 27.6349 16.9046 25.1225 16.1276C24.6822 15.9981 24.2937 15.9204 23.9829 15.9204C23.2836 15.9204 23.2318 16.2571 23.2059 16.3607C23.0246 17.319 24.5009 19.3134 26.2881 20.0645C26.3917 20.1163 26.4694 20.2458 26.4435 20.3494V20.3494C26.3962 20.5856 26.0643 20.5508 25.8236 20.5422C25.3916 20.5269 24.611 20.5048 23.698 20.5048C21.9885 20.5048 19.6575 20.5825 18.2329 20.9192C17.6631 21.0487 17.6113 21.3337 17.6113 21.5409C17.7408 22.7841 20.7453 25.1929 23.6462 25.4519V25.4519C23.867 25.4519 23.8956 25.7677 23.9321 25.9855C24.1061 27.0249 24.6803 30.3825 25.2002 33.7401C24.9412 30.0881 24.5786 25.0893 24.4232 24.8821C24.1642 24.5453 18.9841 23.1467 18.8028 21.8517C18.6215 20.5566 27.868 21.515 28.0493 20.7379C28.2306 19.9609 24.4232 18.6659 24.4232 17.3708C24.4232 16.0758 28.5673 17.7076 38.1506 17.8112Z" fill="#A86956"/>
<path d="M25.8471 29.778C25.8212 29.6485 25.5881 29.6226 25.5622 29.778C25.3809 30.9953 25.4068 32.2903 25.3809 33.5336C25.3809 33.7149 25.6658 33.7667 25.6917 33.5854C25.9507 32.368 26.0802 30.9694 25.8471 29.778Z" fill="#A86956"/>
<path d="M26.7287 29.6743C26.6769 29.5448 26.4956 29.5448 26.4697 29.6743C26.3661 29.9851 26.392 30.3477 26.4438 30.6585C26.4697 30.8657 26.7287 30.8657 26.7546 30.6585C26.7805 30.3477 26.8323 29.9851 26.7287 29.6743Z" fill="#A86956"/>
<path d="M62.4175 21.3343C61.1225 20.635 59.3871 20.1947 57.9108 20.2983C57.7813 20.2983 57.7295 20.5055 57.8849 20.5314C58.6101 20.7386 59.3612 20.8163 60.1124 21.0235C60.8376 21.2048 61.5628 21.4897 62.288 21.671C62.4952 21.7228 62.6247 21.4379 62.4175 21.3343Z" fill="#A86956"/>
<path d="M64.1802 21.7487C64.0248 21.6192 63.8953 21.5156 63.6881 21.4638C63.4808 21.412 63.2477 21.3861 63.0146 21.412C62.7556 21.4379 62.7297 21.8523 63.0146 21.8264C63.2194 21.8107 63.4241 21.8428 63.6289 21.8995C63.8968 21.9738 64.3768 21.9453 64.1802 21.7487V21.7487Z" fill="#A86956"/>
<path d="M27.1414 18.6405C26.5975 18.4851 26.1831 18.1484 25.7428 17.7858C25.6133 17.6822 25.4061 17.8117 25.4838 17.9671C25.8205 18.511 26.4421 18.7959 27.0637 18.8995C27.2191 18.9254 27.2968 18.6923 27.1414 18.6405Z" fill="#A86956"/>
<path d="M29.4717 33.5849C28.5392 33.8957 27.6586 34.88 27.7622 35.916C27.7881 36.0714 27.9953 36.0973 28.0471 35.9419C28.2025 35.5016 28.332 35.0872 28.6169 34.7245C28.876 34.3878 29.2386 34.1029 29.6012 33.8698C29.7566 33.7921 29.653 33.5331 29.4717 33.5849Z" fill="#845142"/>
<path d="M30.3539 32.1865C29.9395 32.2642 29.6028 32.4973 29.3697 32.834C29.2661 32.9894 29.5251 33.1966 29.6287 33.0412C29.7436 32.8976 29.8824 32.7699 30.0363 32.6669C30.2811 32.5031 30.6371 32.1056 30.3539 32.1865V32.1865Z" fill="#845142"/>
<path d="M67.7547 32.6268C67.0813 31.7203 65.9417 31.021 64.9575 30.4771C64.8021 30.3994 64.6726 30.6325 64.828 30.7102C65.346 31.0469 65.864 31.4095 66.3302 31.798C66.625 32.0375 66.8805 32.3033 67.162 32.5487C67.3924 32.7495 67.9243 32.8811 67.7547 32.6268V32.6268Z" fill="#845142"/>
<path d="M68.9988 33.5849C68.7398 33.3518 68.5585 33.0668 68.6621 32.7042C68.7139 32.4711 68.3513 32.3675 68.2995 32.6006C68.1699 33.0927 68.3772 33.6626 68.8693 33.818C68.9988 33.8698 69.1024 33.6885 68.9988 33.5849Z" fill="#845142"/>
<path d="M44.8065 28.3789C44.1849 28.3789 43.5373 28.4566 42.9157 28.4825C42.7862 28.4825 42.7603 28.6638 42.8898 28.6897C43.5373 28.8192 44.2108 28.8451 44.8583 28.6897C45.0396 28.6379 44.9878 28.3789 44.8065 28.3789Z" fill="#845142"/>
<path d="M46.5155 28.3532C46.2824 28.1719 46.0493 28.1201 45.7643 28.2237C45.5312 28.3014 45.583 28.6381 45.8162 28.6381C45.8939 28.6381 45.9975 28.6381 46.0752 28.6381C46.1788 28.6381 46.2824 28.6381 46.3601 28.664C46.5932 28.7158 46.6709 28.4827 46.5155 28.3532Z" fill="#845142"/>
<path d="M33.4622 39.8533C32.996 40.5008 32.7111 41.4591 32.4521 42.2102C32.4003 42.3657 32.6593 42.4952 32.737 42.3398C33.0996 41.6145 33.5658 40.7339 33.6694 39.931C33.6953 39.7756 33.514 39.7756 33.4622 39.8533Z" fill="#FCC58D"/>
<path d="M34.4716 39.3606C34.1349 39.5937 34.0572 40.034 34.0312 40.4225C34.0312 40.578 34.2385 40.6038 34.2903 40.4484C34.3939 40.1376 34.6011 39.8527 34.7047 39.516C34.7306 39.4124 34.5752 39.2829 34.4716 39.3606Z" fill="#FCC58D"/>
<path d="M49.2655 72.2586C49.2612 72.255 49.258 72.2569 49.2532 72.2598C48.0644 72.9831 46.8497 73.6289 45.5834 74.1974C45.4207 74.273 45.2462 74.3446 45.067 74.4042C44.5745 74.5678 43.6483 75.5202 43.7621 76.0266V76.0266C43.7993 76.192 43.9143 76.3406 44.0785 76.3827C44.2218 76.4195 44.3436 76.4232 44.4438 76.3731C45.2689 75.9863 47.7626 73.6999 49.2671 72.274C49.2748 72.2667 49.2737 72.2654 49.2655 72.2586V72.2586Z" fill="#D7E5EC"/>
<path d="M53.3791 73.7829C53.545 73.8684 53.714 73.9539 53.885 74.0355C55.1258 74.6267 56.2859 73.6792 56.7119 72.3724C56.8397 71.9801 56.9745 71.5926 57.1175 71.2111C57.2669 70.8127 57.2916 70.4813 57.0429 70.1361V70.1361C56.6269 69.5585 55.7437 69.2415 55.1491 69.633C54.6481 69.9628 54.048 70.3455 53.4171 70.7176C52.3357 71.3554 52.2562 73.2215 53.3791 73.7829V73.7829Z" fill="white"/>
<path d="M46.1522 85.3347C46.0486 83.3404 45.9968 81.346 45.9709 79.3517C45.9709 78.4174 46.013 77.3989 46.4772 76.638C46.5666 76.4913 46.5704 76.3038 46.4752 76.1608V76.1608C46.3363 75.9522 46.0386 75.8866 45.8426 76.0428C45.3585 76.4286 44.9435 76.7158 44.6759 76.8393C44.5723 76.8911 44.4687 76.917 44.3392 76.917V76.917C44.1655 76.917 44.0163 77.0543 44.051 77.2244C45.2046 82.8886 45.455 88.7064 45.5565 91.3696C45.566 91.4925 45.572 91.612 45.577 91.7254C45.5905 92.0261 45.8332 92.2548 46.134 92.261V92.261C46.5163 92.2688 46.8081 91.9216 46.744 91.5447C46.399 89.5154 46.2447 87.4148 46.1522 85.3347Z" fill="#D7E5EC"/>
<path d="M55.0628 76.9429C54.9333 76.9429 54.8297 76.917 54.7261 76.8652C54.6745 76.8394 54.6164 76.8072 54.5531 76.7693C54.3546 76.6505 54.0372 76.8706 54.0786 77.0983V77.0983C54.234 77.9013 54.1822 78.756 54.1304 79.5848C53.9271 83.2691 53.7238 87.0033 53.007 90.6162C52.9794 90.7554 52.9693 90.8974 52.978 91.039L53.0433 92.1005C53.0575 92.3321 53.2458 92.5148 53.4778 92.522V92.522C53.714 92.5294 53.9124 92.3523 53.9208 92.1162C53.9281 91.9081 53.9345 91.6689 53.9491 91.4214C54.075 88.7776 54.3233 83.0251 55.4554 77.3763C55.5027 77.1403 55.3035 76.9429 55.0628 76.9429V76.9429Z" fill="#D7E5EC"/>
<path d="M52.9631 75.9938C53.064 75.8252 53.0148 75.6124 52.8653 75.4849C52.3898 75.0793 51.8925 74.6352 51.4274 74.2102C50.4505 73.3179 48.9482 73.315 47.9708 74.2066C47.6189 74.5276 47.2499 74.8593 46.8877 75.177C46.7428 75.3042 46.6808 75.4885 46.7738 75.6573V75.6573C46.9775 76.0273 47.6112 75.8081 47.8146 75.438C47.898 75.2863 48.0007 75.1466 48.1209 75.0265C48.6389 74.5084 49.4159 74.3012 50.1411 74.4048C51.0217 74.5602 51.8247 75.1819 52.1614 76.0366V76.0366C52.2706 76.3098 52.6608 76.4453 52.8281 76.2033C52.8759 76.1341 52.921 76.0642 52.9631 75.9938Z" fill="#D82E35"/>
<path d="M51.7557 78.7297C51.727 78.3349 51.3014 78.0932 50.915 78.179C50.6642 78.2347 50.3986 78.264 50.1155 78.264C50.0378 78.264 49.986 78.264 49.9083 78.264C49.5033 78.2402 49.0983 78.1506 48.7134 77.9953C48.6659 77.9761 48.6133 78.0082 48.6133 78.0594V78.0594C48.6133 78.0731 48.6172 78.0888 48.6246 78.1002C48.8581 78.4553 49.2157 78.759 49.6234 78.9374C50.1673 79.1705 50.763 79.2482 51.3588 79.3V79.3C51.5941 79.3392 51.7843 79.1233 51.767 78.8854L51.7557 78.7297Z" fill="#D82E35"/>
<path d="M70.6551 77.7457C70.0797 77.2453 69.0572 76.7872 67.8852 76.386C65.7655 75.6604 63.4921 77.0987 62.2892 78.9889V78.9889V78.9889C61.8248 79.7784 60.8354 80.4715 61.0694 81.357C61.1084 81.5046 61.1305 81.6378 61.1298 81.7488C61.1295 81.8087 61.1205 81.8656 61.1116 81.9248C60.9952 82.693 60.0646 88.339 59.4012 91.4382C59.3078 91.8744 59.6477 92.2864 60.0935 92.2708V92.2708C60.4313 92.2589 60.7078 91.999 60.7449 91.663C61.0697 88.7252 61.6449 85.7945 62.4705 82.9776C62.5741 82.6409 62.6777 82.2783 62.9108 82.0193C63.2734 81.6049 63.8174 81.4754 64.3354 81.3459C64.9052 81.2164 65.475 81.0869 66.0448 81.1646C67.4694 81.3718 68.3241 82.8222 68.8421 84.1691C69.5751 86.0017 70.0639 87.9349 70.3192 89.8938C70.4645 91.0087 71.403 91.8807 72.5266 91.8401V91.8401C73.7427 91.7962 74.6397 90.7139 74.4135 89.5182C73.7125 85.8128 72.2074 79.0963 70.6551 77.7457Z" fill="#985D61"/>
<path d="M38.1569 92.2308C39.235 92.2666 40.0616 91.2636 39.8538 90.2052C39.1857 86.802 38.4048 81.9217 38.3838 81.838C38.3656 81.7106 38.3901 81.5419 38.4435 81.349C38.6976 80.432 37.7226 79.7958 37.2183 78.9889V78.9889C37.0578 78.7366 36.1051 77.1235 35.6733 75.8043C35.5857 75.5369 35.3183 75.3654 35.0452 75.433V75.433C34.6875 75.5216 34.5266 75.9586 34.716 76.2747C35.1001 76.9155 35.3903 77.6355 35.6384 78.3414C36.4672 80.6725 37.0111 83.1071 37.037 85.5677C37.0532 86.9757 36.8874 88.4038 36.5142 89.7701C36.2008 90.918 36.9676 92.1914 38.1569 92.2308V92.2308Z" fill="#985D61"/>
<path d="M43.0496 91.9788C43.024 92.5586 43.5115 93.0345 44.0898 92.9852V92.9852C44.6428 92.938 45.0683 92.4254 45.0377 91.8713C45.03 91.7319 45.0216 91.5742 45.0124 91.3953C44.9008 89.0723 44.712 84.3607 43.898 79.4533C43.8289 79.0368 43.5839 79.0625 43.6397 79.481V79.481C43.9246 81.8898 43.4843 84.2985 43.2771 86.7332C43.1488 88.4866 43.1264 90.24 43.0496 91.9788Z" fill="#985D61"/>
<path d="M55.3734 80.7759C54.7259 85.2049 54.5446 89.2972 54.4669 91.4211C54.4583 91.5878 54.4512 91.7362 54.445 91.8685C54.4197 92.4081 54.8812 92.9675 55.4194 93.0135V93.0135C55.9613 93.0597 56.4018 92.5837 56.3178 92.0464C55.7294 88.2811 55.3024 84.5177 55.3734 80.7759Z" fill="#985D61"/>
<path d="M58.1205 71.8664C57.5248 73.1355 57.1621 74.5341 56.8772 75.9069C56.8513 76.0364 57.0585 76.0882 57.0844 75.9587C57.4471 74.6118 57.9133 73.2909 58.3277 71.9441C58.3536 71.8146 58.1723 71.7369 58.1205 71.8664Z" fill="#BF757A"/>
<path d="M56.9281 77.1502C56.9022 76.9948 56.6691 76.9948 56.6691 77.1502C56.695 77.4093 56.695 77.6424 56.6431 77.9014V77.9014C56.6032 78.1012 56.8726 77.8598 56.9098 77.6594C56.9402 77.4956 56.9442 77.328 56.9281 77.1502Z" fill="#BF757A"/>
<path d="M42.7861 75.6997C42.4753 74.4824 42.1645 73.2133 41.5947 72.0996C41.5429 71.97 41.3357 72.0737 41.3616 72.2032C41.6983 73.3946 42.1904 74.5601 42.553 75.7516C42.6048 75.907 42.8379 75.8552 42.7861 75.6997Z" fill="#BF757A"/>
<path d="M43.2509 77.5129C43.1732 77.3057 43.0696 77.0726 43.0178 76.8654C42.966 76.6841 42.707 76.7618 42.7588 76.9431C42.8106 77.2021 42.8883 77.4352 43.0696 77.6424C43.1214 77.7201 43.3027 77.6165 43.2509 77.5129Z" fill="#BF757A"/>
<path d="M28.2296 79.3772C27.5044 81.5269 26.831 83.6767 26.2871 85.8783C26.2352 86.0855 26.5461 86.1632 26.5979 85.956C27.2972 83.8062 27.9188 81.6305 28.5922 79.4808C28.6958 79.2218 28.3073 79.1441 28.2296 79.3772Z" fill="#BF757A"/>
<path d="M26.1067 87.0962C26.029 87.5365 25.9254 87.9768 25.9513 88.443C25.9513 88.5725 26.1326 88.5984 26.1844 88.4689C26.3139 88.0286 26.3398 87.5883 26.3916 87.148C26.4175 86.9667 26.1326 86.9408 26.1067 87.0962Z" fill="#BF757A"/>
<path d="M39.4983 82.3823C39.4724 82.2787 39.2911 82.3046 39.317 82.4341C39.6796 84.1435 39.9645 85.853 40.3012 87.5365C40.3271 87.666 40.5343 87.6401 40.5343 87.5106C40.3789 85.7753 40.0163 84.0658 39.4983 82.3823Z" fill="#BF757A"/>
<path d="M40.7661 89.6602C40.9086 89.8502 40.9583 89.4443 40.8913 89.2165C40.7895 88.8709 40.7207 88.5291 40.7402 88.1579C40.7402 88.0284 40.533 88.0025 40.5071 88.132C40.4294 88.65 40.4294 89.2198 40.7661 89.6602V89.6602Z" fill="#BF757A"/>
<path d="M59.8543 82.3954C59.8543 82.3879 59.8477 82.3811 59.8412 82.3847C59.8316 82.3899 59.8316 82.4008 59.8412 82.406C59.8477 82.4096 59.8543 82.4028 59.8543 82.3954V82.3954Z" fill="#BF757A"/>
<path d="M60.0375 82.175C59.8044 83.3664 59.5454 84.5319 59.3382 85.7493C59.3123 85.9047 59.5195 85.9565 59.5713 85.8011C59.8894 84.7784 60.068 83.7357 60.247 82.6906C60.2969 82.3992 60.0793 81.8822 60.0375 82.175V82.175Z" fill="#BF757A"/>
<path d="M48.7417 83.6251V83.6251C48.7417 83.464 48.5781 83.7055 48.5621 83.8658C48.3912 85.5771 48.2461 87.3325 48.1719 89.0642C48.1719 89.2196 48.4309 89.2714 48.4568 89.116C48.8453 87.3548 48.923 85.4122 48.7417 83.6251Z" fill="#F05C51"/>
<path d="M48.3286 90.2042C48.3027 90.0488 48.0955 90.0747 48.0437 90.2042C47.9142 90.6186 47.9142 91.1626 47.966 91.6029C47.9919 91.7583 48.1991 91.8101 48.2509 91.6288C48.3545 91.1885 48.4322 90.6445 48.3286 90.2042Z" fill="#F05C51"/>
<path d="M50.2961 77.202C49.6486 77.0207 49.001 76.8912 48.3535 76.6322C48.224 76.5804 48.1722 76.7617 48.2758 76.8394C48.8715 77.202 49.5709 77.4869 50.2702 77.5128C50.4256 77.5128 50.4774 77.2538 50.2961 77.202Z" fill="#F05C51"/>
<path d="M44.2381 45.2666C44.9634 45.163 44.6267 43.8162 44.3158 43.4017C44.005 42.9614 38.4882 42.4434 37.4522 42.7542C36.4161 43.0909 35.924 43.9975 36.0535 44.5414C36.2348 45.1371 42.6582 45.5256 44.2381 45.2666Z" fill="#935C4B"/>
<path d="M42.7102 45.6033C42.6325 45.6033 36.0797 45.5515 35.8466 44.619C35.6653 43.9197 36.261 42.8837 37.4006 42.5211C37.6337 42.4434 38.0481 42.4175 38.6697 42.4175C39.9907 42.4175 44.1348 42.7283 44.5492 43.2722C44.8341 43.6607 45.0931 44.5672 44.86 45.0853C44.7564 45.3443 44.5492 45.4997 44.2902 45.5256C43.8758 45.5774 43.2024 45.6033 42.7102 45.6033ZM37.5819 43.0132C36.3408 43.4033 37.0328 44.6863 38.3252 44.8346C39.6002 44.9808 41.2677 45.0853 42.7102 45.0853C43.3154 45.0853 43.7951 45.0643 44.1117 45.0225C44.179 45.0136 44.2455 45.0034 44.3035 44.9681V44.9681C44.3752 44.9246 44.4134 44.8396 44.4266 44.7568C44.4416 44.663 44.4406 44.5521 44.428 44.4352C44.3645 43.8446 43.8814 43.4528 43.2972 43.3459C42.1526 43.1366 40.1493 42.9355 38.6956 42.9355C37.9704 42.9355 37.6855 42.9873 37.5819 43.0132V43.0132Z" fill="#674940"/>
<path d="M49.625 56.0412C49.1847 56.0412 48.7444 55.8858 48.4077 55.7045V55.7045C48.1594 55.6052 48.4115 55.1266 48.6408 55.2642V55.2642C48.9775 55.4455 49.625 55.6786 50.0394 55.4455C50.3243 55.2901 50.4797 54.9275 50.5056 54.3836C50.5315 54.021 50.4538 53.7361 50.2207 53.5029C49.8403 53.1034 49.1663 53.0113 48.8353 52.9906C48.7055 52.9825 48.5574 53.0087 48.461 52.9213C48.4108 52.8758 48.3818 52.8081 48.3818 52.7259C48.3818 52.5705 48.4854 52.4669 48.6408 52.4669C48.6926 52.4669 49.9358 52.441 50.6092 53.1403C50.9201 53.477 51.0755 53.8915 51.0237 54.4095C50.9719 55.1347 50.7128 55.6527 50.2984 55.8858C50.0912 55.9894 49.8581 56.0412 49.625 56.0412Z" fill="#674940"/>
<path d="M40.8682 50.5762C41.8266 50.5762 42.6035 49.7992 42.6035 48.8408C42.6035 47.8824 41.8266 47.1055 40.8682 47.1055C39.9098 47.1055 39.1328 47.8824 39.1328 48.8408C39.1328 49.7992 39.9098 50.5762 40.8682 50.5762Z" fill="#674940"/>
<path d="M40.8174 48.1421C40.8174 48.4529 40.5584 48.7119 40.2475 48.7119C39.9367 48.7119 39.6777 48.4529 39.6777 48.1421C39.6777 47.8313 39.9367 47.5723 40.2475 47.5723C40.5843 47.5723 40.8174 47.8313 40.8174 48.1421Z" fill="white"/>
<path d="M54.1832 45.2666C53.458 45.163 53.7947 43.8162 54.1055 43.4017C54.4163 42.9614 59.9331 42.4434 60.9692 42.7542C62.0052 43.0909 62.4973 43.9975 62.3678 44.5414C62.1865 45.1371 55.7631 45.5256 54.1832 45.2666Z" fill="#935C4B"/>
<path d="M55.7108 45.6033C55.2187 45.6033 54.5453 45.5774 54.1309 45.5256C53.8719 45.4738 53.6647 45.3184 53.5611 45.0853C53.328 44.5413 53.587 43.6607 53.8719 43.2722C54.2604 42.7283 58.4304 42.4175 59.7513 42.4175C60.373 42.4175 60.7874 42.4434 61.0205 42.5211C62.1601 42.8837 62.7558 43.9197 62.5745 44.619C62.5227 44.8003 62.445 45.1112 59.9326 45.3702C58.6117 45.5256 56.98 45.6033 55.7108 45.6033ZM55.2745 43.3087C54.6106 43.4239 54.0177 43.8555 53.999 44.5291C53.9968 44.6081 54.0021 44.6821 54.0169 44.7472C54.0332 44.8195 54.0523 44.8919 54.1082 44.9407V44.9407C54.1733 44.9974 54.2772 44.9895 54.3629 45.0001C54.6795 45.0396 55.1489 45.0594 55.7367 45.0594C57.1744 45.0594 58.8434 44.9556 60.1194 44.8101C61.4163 44.6623 62.1329 43.3632 60.891 42.9614V42.9614C60.7874 42.9355 60.5025 42.8837 59.7772 42.8837C58.3568 42.9017 56.4371 43.1069 55.2745 43.3087Z" fill="#674940"/>
<path d="M57.5498 50.5762C58.5082 50.5762 59.2851 49.7992 59.2851 48.8408C59.2851 47.8824 58.5082 47.1055 57.5498 47.1055C56.5914 47.1055 55.8145 47.8824 55.8145 48.8408C55.8145 49.7992 56.5914 50.5762 57.5498 50.5762Z" fill="#674940"/>
<path d="M57.5244 48.1416C57.5244 48.4524 57.2654 48.7114 56.9546 48.7114C56.6438 48.7114 56.3848 48.4524 56.3848 48.1416C56.3848 47.8308 56.6438 47.5718 56.9546 47.5718C57.2654 47.5718 57.5244 47.8308 57.5244 48.1416Z" fill="white"/>
<path d="M49.4684 61.3253C47.992 61.3253 47.0078 60.9109 46.956 60.885C46.8265 60.8332 46.7747 60.6778 46.8265 60.5483V60.5483C46.9247 60.3029 47.2895 60.4697 47.5435 60.5427C48.2612 60.7491 49.9219 61.0791 51.903 60.4188C52.0325 60.367 52.1879 60.4447 52.2397 60.5742C52.2915 60.7037 52.2138 60.8591 52.0843 60.9109C51.1001 61.2217 50.2195 61.3253 49.4684 61.3253Z" fill="#674940"/>
</g>
<g clip-path="url(#clip0_1565_3874)">
<mask id="mask1_1565_3874" style="mask-type:luminance" maskUnits="userSpaceOnUse" x="12" y="6" width="75" height="87">
<path d="M19.5628 16.0685C4.98228 24.9434 15.749 83.1862 24.0511 87.8435C32.3531 92.5009 65.2241 94.752 76.8989 87.5072C88.5736 80.2624 90.6492 32.6539 78.1961 18.1643C65.743 3.67478 40.8368 3.13142 19.5628 16.0685Z" fill="white"/>
</mask>
<g mask="url(#mask1_1565_3874)">
<path d="M69.8148 50.585C69.5554 50.8696 69.27 50.9731 68.9846 50.9214C68.9587 50.9214 68.9327 50.8955 68.9068 50.8955C68.8549 51.827 68.7771 52.7584 68.6992 53.6382C68.9068 53.6899 69.0884 53.7158 69.2959 53.7158C69.3219 53.7158 69.3478 53.7158 69.3997 53.7158C71.7606 53.7158 73.7583 51.0507 73.8361 47.7647C73.888 45.7207 73.2135 43.8836 72.1498 42.771C71.5271 46.5228 70.671 49.6277 69.8148 50.585Z" fill="#FFDDAA"/>
<path d="M29.4978 52.3699C28.2006 51.723 26.8256 46.8845 26.0732 42.874C25.0355 43.9607 24.3609 45.6426 24.309 47.5573C24.2571 49.1873 24.6722 50.7398 25.4765 51.93C26.2548 53.0685 27.3445 53.7412 28.486 53.7671C28.5119 53.7671 28.5379 53.7671 28.5898 53.7671C28.953 53.7671 29.3162 53.6894 29.6794 53.5859C29.6016 53.1461 29.5497 52.758 29.4978 52.3699Z" fill="#FFDDAA"/>
<path d="M49.786 71.776C51.6539 71.4655 55.5714 68.7487 56.1941 68.3089C56.1682 67.9207 56.1682 67.5068 56.1422 67.0928C53.937 67.7655 51.5501 68.1795 49.1114 68.1795C47.3213 68.1795 45.3755 67.9466 43.4556 67.5326C43.4556 67.8173 43.4556 68.1019 43.4297 68.4124C44.2858 68.9557 47.9699 71.4655 49.786 71.776Z" fill="#FFDDAA"/>
<path d="M31.8063 60.9347C33.4408 64.1173 42.5212 67.6103 49.1109 67.6103C57.6724 67.6103 66.0783 62.1249 67.2198 59.2788C67.7906 57.804 68.1797 54.1816 68.3873 50.4816C67.7387 49.6018 67.6349 47.4284 67.5052 44.2976C67.3755 41.141 67.2457 37.5703 66.1561 36.6906C62.472 33.7927 56.5828 32.3179 48.6699 32.3179C38.6815 32.3179 32.8441 35.6815 31.3134 36.6906C30.4053 37.2857 30.561 41.6843 30.6648 45.2032C30.7945 49.0843 30.8464 51.4907 30.2497 52.1375C30.1718 52.241 30.0681 52.2928 29.9902 52.3186C30.5869 56.2774 31.2096 59.7963 31.8063 60.9347Z" fill="#FFDDAA"/>
<path d="M55.6495 76.7958C55.4938 76.8475 55.3122 76.8734 55.1825 76.8734C55.0528 76.8734 54.949 76.8475 54.8452 76.7958C54.5599 76.6664 54.1448 76.3559 53.6518 75.9678C53.3664 76.537 52.8994 77.1062 52.3027 77.5461L53.1848 92.3979L54.015 92.4238C54.041 92.165 54.041 91.751 54.0669 91.3112C54.1707 88.5685 54.4301 82.5657 55.6495 76.7958Z" fill="white"/>
<path d="M48.1759 77.6232C47.3457 77.1316 46.6711 76.4071 46.3079 75.6567C45.6593 76.2001 45.0885 76.6141 44.7513 76.7693C44.6475 76.8211 44.5437 76.847 44.414 76.847C44.3102 76.847 44.1805 76.8211 44.0508 76.7952C45.2701 82.5651 45.5296 88.568 45.6334 91.2848C45.6593 91.6211 45.6593 91.9316 45.6852 92.1645L46.9824 92.1903C47.1641 89.5512 47.9164 80.754 48.1759 77.6232Z" fill="white"/>
<path d="M51.7838 77.8301C51.3168 78.0629 50.7979 78.1923 50.2012 78.1923C50.1234 78.1923 50.0715 78.1923 49.9937 78.1923C49.5526 78.1664 49.1116 78.0629 48.6965 77.8818C48.2035 83.5483 47.4512 92.5007 47.4512 92.9665L52.6918 93.0441L51.7838 77.8301Z" fill="#ED343A"/>
<path d="M53.2106 75.6313C51.9393 74.5704 50.4346 73.1473 49.786 72.5264C49.1893 73.0956 47.8921 74.3117 46.7246 75.3208C47.2175 76.4334 48.5926 77.5977 50.0195 77.6753C50.0714 77.6753 50.1492 77.6753 50.2011 77.6753C51.7058 77.7012 52.7436 76.5886 53.2106 75.6313Z" fill="#ED343A"/>
<path d="M43.9218 76.2521C44.1813 76.3556 44.3888 76.4073 44.5445 76.3297C45.3747 75.9416 47.8913 73.6388 49.396 72.2157C47.4243 71.6982 44.1813 69.4989 43.2473 68.8521C42.8841 69.5248 42.443 70.1199 42.1836 70.4563L42.2095 70.4821C42.91 72.2674 43.4548 74.2339 43.9218 76.2521Z" fill="white"/>
<path d="M39.5121 79.2019C38.63 79.3054 37.5663 79.3313 37.3069 78.9173C37.1253 78.6327 35.9318 76.6145 35.6205 75.2432C33.2077 75.7865 30.0945 76.6662 28.927 77.6753C26.9293 79.4089 25.0094 89.9656 24.75 91.5957L40.3942 92.1908C39.6937 89.2929 38.5003 81.8411 38.4743 81.7376C38.3706 81.2201 39.0711 79.9264 39.5121 79.2019Z" fill="#A5656A"/>
<path d="M45.1165 91.3371C44.9608 87.6112 44.5198 77.779 41.7697 70.8188C40.8617 71.0517 36.4771 73.872 36.062 74.5189C35.7766 74.9587 36.8663 77.2615 37.7224 78.6846C37.8781 78.8398 38.9418 78.814 39.9536 78.6587C40.0574 78.6329 40.1612 78.6846 40.2131 78.7622C40.2649 78.8399 40.2649 78.9692 40.2131 79.0468C39.6682 79.9266 38.8899 81.3496 38.9678 81.7378C39.1234 82.8762 40.7579 92.4238 41.147 93.0707C41.173 93.0965 41.173 93.1483 41.173 93.1742L45.1943 92.8378C45.1684 92.6567 45.1424 92.3203 45.1165 91.3371Z" fill="#A5656A"/>
<path d="M57.4655 70.508C57.206 70.1716 56.739 69.5506 56.3499 68.8262C55.4159 69.473 52.1729 71.6982 50.2012 72.1898C51.7059 73.6129 54.2225 75.9157 55.0527 76.3038C55.2084 76.3814 55.4678 76.3297 55.7791 76.1744C56.1942 74.208 56.765 72.2674 57.4655 70.508Z" fill="#D7E5EC"/>
<path d="M64.0803 75.2432C63.769 76.6145 62.5756 78.6327 62.394 78.9173C62.1345 79.3572 61.0449 79.3313 60.1887 79.2019C60.6298 79.9264 61.3043 81.2201 61.2265 81.7635C61.2265 81.8411 60.0071 89.2929 59.3066 92.2166L74.9508 91.6215C74.7173 89.9915 72.7975 79.4348 70.7739 77.7012C69.5804 76.6404 66.4672 75.7865 64.0803 75.2432Z" fill="#A5656A"/>
<path d="M71.1113 77.2871C69.84 76.1745 66.597 75.2689 64.1324 74.7255C64.1324 74.5185 64.1064 74.3374 64.0286 74.208C63.6135 73.5353 59.1511 70.5857 57.9318 70.2752C57.7242 69.9906 57.1275 69.2402 56.7124 68.4122C56.6865 67.9465 56.6605 67.429 56.6605 66.8856C62.3682 65.0486 66.8565 61.6332 67.7126 59.4856C68.1277 58.4765 68.4131 56.4842 68.6466 54.1555C68.8542 54.2073 69.0617 54.2332 69.2952 54.2332C69.3212 54.2332 69.3731 54.2332 69.399 54.2332C72.0712 54.2332 74.2505 51.4129 74.3543 47.7905C74.4321 45.4359 73.576 43.366 72.2269 42.1499C73.0052 37.3114 73.4203 31.6191 73.109 28.359C72.4344 21.3471 56.7902 17.3624 48.566 16.8191C45.0376 16.5862 41.3795 16.5345 37.8252 16.4827C32.4289 16.4051 27.759 16.3533 25.3203 15.603C24.8273 15.4477 24.3863 15.3701 24.049 15.3701C23.0891 15.3701 22.8296 15.9135 22.7518 16.2498C22.5442 17.3107 23.6858 18.9925 25.1646 20.0016C24.7754 20.0016 24.2825 19.9757 23.7377 19.9757C21.9994 19.9757 19.6385 20.0533 18.1597 20.3897C17.2257 20.6226 17.122 21.2177 17.1479 21.5541C17.2517 23.1065 20.3909 25.5387 23.4263 25.9268C23.6598 27.324 25.1646 36.0695 25.6056 39.9765C25.6835 40.6492 25.7872 41.3996 25.9429 42.2017C24.6717 43.366 23.8414 45.2807 23.7636 47.5059C23.7117 49.2394 24.1528 50.9213 25.0349 52.1632C25.917 53.4569 27.1363 54.1814 28.4595 54.2332C28.4854 54.2332 28.5373 54.2332 28.5632 54.2332C28.9783 54.2332 29.3675 54.1555 29.7307 54.052C30.2496 57.3381 30.7944 60.1325 31.3392 61.1674C32.5846 63.5996 37.6436 66.1094 42.9362 67.3514C42.9362 67.636 42.9362 67.9465 42.9102 68.257C42.8843 68.2828 42.8843 68.2829 42.8843 68.3087C42.4432 69.2143 41.7687 70.0682 41.5871 70.301C40.238 70.7409 36.0351 73.5353 35.62 74.1822C35.5422 74.3115 35.5162 74.4927 35.5162 74.6996C33.0515 75.2689 29.8345 76.1486 28.5373 77.2612C26.2023 79.3053 24.2047 91.4144 24.2047 91.5438C24.1787 91.6731 24.2825 91.8284 24.4122 91.8284C24.5419 91.8542 24.6976 91.7507 24.6976 91.6214V91.5955C24.9311 89.9654 26.8509 79.4088 28.8746 77.6752C30.068 76.6402 33.1813 75.7864 35.5681 75.243C35.8794 76.6143 37.0729 78.6325 37.2545 78.9171C37.5139 79.357 38.6035 79.3311 39.4597 79.2018C39.0186 79.9262 38.3441 81.22 38.4219 81.7633C38.4219 81.8409 39.6413 89.2927 40.3418 92.2165C40.4715 92.7857 40.6012 93.1738 40.6791 93.3032C40.7309 93.3808 40.8088 93.4326 40.8866 93.4326C40.9385 93.4326 40.9904 93.4326 41.0163 93.3808C41.0942 93.3291 41.1461 93.2256 41.1461 93.148C41.1461 93.0962 41.1461 93.0703 41.1201 93.0445C40.7309 92.3976 39.0965 82.85 38.9408 81.7116C38.8889 81.3234 39.6413 79.9004 40.1861 79.0206C40.238 78.943 40.238 78.8136 40.1861 78.736C40.1342 78.6584 40.0305 78.6067 39.9267 78.6325C38.9149 78.8136 37.8512 78.8137 37.6955 78.6584C36.8394 77.2353 35.7497 74.9325 36.0351 74.4927C36.4243 73.8717 40.8347 71.0255 41.7428 70.7927C44.4928 77.7787 44.9339 87.6109 45.0895 91.3109C45.1414 92.32 45.1414 92.6563 45.1933 92.8116C45.1933 92.8375 45.2192 92.8633 45.2192 92.8892C45.2711 93.0186 45.4268 93.0962 45.5565 93.0445C45.6862 92.9927 45.7641 92.8375 45.7122 92.7081C45.6862 92.6563 45.6862 92.4493 45.6603 92.1906C45.6603 91.9577 45.6344 91.6473 45.6084 91.3109C45.4787 88.5941 45.2192 82.5913 44.0258 76.8213C44.1555 76.8472 44.2853 76.8731 44.389 76.8731C44.5188 76.8731 44.6225 76.8472 44.7263 76.7955C45.0636 76.6402 45.6344 76.2004 46.2829 75.6829C46.6462 76.4332 47.3207 77.1577 48.1509 77.6493C47.8915 80.7801 47.1132 89.5773 46.9315 92.2424C46.9056 92.6563 46.8797 92.9151 46.8797 92.9927C46.8797 93.148 46.9834 93.2515 47.1391 93.2515C47.2688 93.2515 47.3985 93.148 47.3985 92.9927C47.3985 92.527 48.1769 83.5486 48.6438 77.908C49.059 78.0892 49.5 78.1927 49.941 78.2185C50.0189 78.2185 50.0708 78.2185 50.1486 78.2185C50.7453 78.2185 51.2642 78.0633 51.7312 77.8563L52.6392 93.0962V93.1221C52.6392 93.2515 52.7689 93.3549 52.8987 93.3549C52.8987 93.3549 52.8987 93.3549 52.9246 93.3549C53.0803 93.3549 53.184 93.2256 53.1581 93.0703L53.1062 92.3976L52.2241 77.5458C52.8208 77.1059 53.2878 76.5367 53.5732 75.9675C54.0661 76.3556 54.4812 76.6661 54.7666 76.7955C54.8704 76.8472 54.9742 76.8731 55.1039 76.8731C55.2595 76.8731 55.4152 76.8472 55.5709 76.7955C54.3515 82.5913 54.0921 88.5941 53.9624 91.3109C53.9364 91.7507 53.9364 92.1647 53.9105 92.4235C53.9105 92.5787 53.8845 92.6822 53.8845 92.734C53.8326 92.8633 53.9105 93.0186 54.0402 93.0703C54.1699 93.1221 54.3256 93.0703 54.3775 92.9151C54.3775 92.8892 54.4034 92.8633 54.4034 92.8375C54.4293 92.6822 54.4553 92.3459 54.5072 91.3368C54.6628 87.6109 55.1039 77.7787 57.8539 70.8185C58.762 71.0514 63.1465 73.8717 63.5616 74.5185C63.847 74.9584 62.7573 77.2612 61.9012 78.6584C61.7455 78.8137 60.7078 78.8136 59.67 78.6325C59.5662 78.6067 59.4625 78.6584 59.4106 78.736C59.3587 78.8136 59.3587 78.943 59.4106 79.0206C59.9554 79.9004 60.7337 81.3234 60.6559 81.7116C60.5002 82.85 58.8658 92.3976 58.4766 93.0445C58.4507 93.0703 58.4507 93.1221 58.4507 93.148C58.4507 93.2515 58.4766 93.3291 58.5804 93.3808C58.6323 93.4067 58.6582 93.4326 58.7101 93.4326C58.7879 93.4326 58.8917 93.3808 58.9176 93.3032C58.9955 93.1738 59.1252 92.7857 59.2549 92.2165C59.9554 89.3186 61.1488 81.8668 61.1748 81.7633C61.2526 81.22 60.5521 79.9262 60.137 79.2018C61.0191 79.3053 62.0828 79.3311 62.3422 78.9171C62.5239 78.6325 63.7173 76.6143 64.0286 75.243C66.4414 75.7864 69.5547 76.6661 70.7221 77.6752C72.7198 79.4088 74.6397 89.9654 74.8991 91.5955V91.6214C74.9251 91.7507 75.0548 91.8542 75.1845 91.8284C75.3142 91.8025 75.418 91.6731 75.392 91.5438C75.4439 91.4403 73.4722 79.3311 71.1113 77.2871ZM55.7525 76.2004C55.4412 76.3556 55.1817 76.4074 55.0261 76.3297C54.1958 75.9416 51.6793 73.6388 50.1745 72.2157C52.1463 71.6982 55.3893 69.4989 56.3232 68.8521C56.7124 69.5766 57.1794 70.1975 57.4388 70.5339C56.7643 72.2675 56.1935 74.208 55.7525 76.2004ZM50.2005 77.7011C50.1486 77.7011 50.0967 77.7011 50.0189 77.7011C48.592 77.6234 47.2169 76.4591 46.724 75.3465C47.8915 74.3374 49.1887 73.1213 49.7854 72.5521C50.434 73.1731 51.9647 74.5962 53.21 75.657C52.743 76.5885 51.7052 77.7011 50.2005 77.7011ZM42.1579 70.4304C42.4173 70.094 42.8584 69.4989 43.2216 68.8262C44.1555 69.4731 47.3985 71.6982 49.3703 72.1899C47.8655 73.6129 45.349 75.9157 44.5188 76.3039C44.389 76.3815 44.1555 76.3297 43.8961 76.2262C43.4551 74.208 42.8843 72.2416 42.1838 70.4563C42.1838 70.4563 42.1838 70.4563 42.1579 70.4304ZM28.4854 53.7415C27.3439 53.7157 26.2802 53.0688 25.4759 51.9045C24.6717 50.7401 24.2565 49.1877 24.3084 47.5317C24.3603 45.6429 25.0608 43.9611 26.0726 42.8485C26.825 46.8849 28.2 51.6975 29.4972 52.3443C29.5491 52.7325 29.601 53.1464 29.6788 53.5346C29.3416 53.6639 28.9783 53.7157 28.5892 53.7157C28.5373 53.7416 28.5114 53.7415 28.4854 53.7415ZM23.6858 25.4352C20.7801 25.1764 17.7706 22.7701 17.6927 21.5282C17.6668 21.3212 17.7187 21.0366 18.3154 20.9072C19.7423 20.5708 22.0773 20.4932 23.7896 20.4932C25.1905 20.4932 26.2542 20.545 26.2802 20.545C26.4099 20.545 26.5137 20.4673 26.5396 20.338C26.5656 20.2086 26.5137 20.0792 26.384 20.0533C24.5679 19.303 23.0891 17.3107 23.2707 16.3533C23.2966 16.2498 23.3485 15.9135 24.049 15.9135C24.3603 15.9135 24.7495 15.9911 25.1905 16.1205C27.7071 16.8708 32.4029 16.9484 37.8512 17.0261C41.3795 17.0778 45.0376 17.1296 48.566 17.3624C58.0356 18.0093 72.0453 22.3303 72.616 28.4366C73.2128 34.6464 71.2151 48.308 69.4249 50.2485C69.2952 50.3779 69.1914 50.4555 69.1136 50.4297C68.2834 50.2227 68.1537 47.0919 68.0499 44.3233C67.9202 40.8821 67.7905 37.3373 66.4933 36.3282C62.7055 33.3527 56.7384 31.852 48.6957 31.852C38.837 31.852 33.0515 34.9828 31.0279 36.3282C29.9642 37.0268 29.9902 40.3387 30.1718 45.2807C30.2755 48.101 30.3793 51.3094 29.8864 51.8527C29.8345 51.9045 29.8086 51.9304 29.7826 51.9304C28.8746 51.9304 26.7991 45.6171 26.1505 39.9506C25.6575 35.6814 23.9452 25.7715 23.9193 25.668C23.8933 25.5387 23.8155 25.4611 23.6858 25.4352ZM73.8354 47.7905C73.7316 51.0765 71.7339 53.7415 69.399 53.7415C69.3731 53.7415 69.3471 53.7415 69.2952 53.7415C69.0877 53.7415 68.8801 53.7157 68.6985 53.6639C68.7763 52.7842 68.8542 51.8527 68.9061 50.9213C68.932 50.9213 68.9579 50.9471 68.9839 50.9471C69.2693 50.9989 69.5547 50.8954 69.8141 50.6108C70.6702 49.6534 71.5264 46.5227 72.1491 42.7968C73.2387 43.9094 73.9132 45.7464 73.8354 47.7905ZM30.0161 52.3961C30.0939 52.3702 30.1718 52.2926 30.2755 52.215C30.8723 51.5681 30.8204 49.1618 30.6906 45.2807C30.5869 41.7618 30.4312 37.3632 31.3392 36.7681C32.8959 35.7331 38.7073 32.3953 48.6957 32.3953C56.6086 32.3953 62.4979 33.8702 66.1819 36.7681C67.2975 37.6478 67.4273 41.2184 67.531 44.3751C67.6608 47.5059 67.7645 49.6793 68.4131 50.559C68.1796 54.259 67.8164 57.8814 67.2456 59.3563C66.1301 62.2024 57.6983 67.6877 49.1368 67.6877C42.5211 67.6877 33.4666 64.1947 31.8322 61.0122C31.2095 59.7961 30.5869 56.2772 30.0161 52.3961ZM49.1368 68.1535C51.5496 68.1535 53.9364 67.7395 56.1676 67.0668C56.1935 67.5066 56.1935 67.9206 56.2195 68.2829C55.5968 68.7227 51.6793 71.4395 49.8113 71.75C47.9953 71.4654 44.3112 68.9297 43.481 68.3346C43.481 68.0241 43.5069 67.7395 43.5069 67.4549C45.4009 67.8947 47.3467 68.1535 49.1368 68.1535Z" fill="#674940"/>
<path d="M58.5029 93.0184C58.892 92.3716 60.5265 82.824 60.6822 81.6855C60.7341 81.2974 59.9817 79.8743 59.4369 78.9946C59.385 78.917 59.385 78.7876 59.4369 78.71C59.4888 78.6324 59.5925 78.5806 59.6963 78.6065C60.7341 78.7876 61.7718 78.7876 61.9275 78.6324C62.7836 77.2093 63.8733 74.9065 63.5879 74.4925C63.1987 73.8715 58.7883 71.0253 57.8802 70.7925C55.1302 77.7785 54.6891 87.6107 54.5335 91.3107C54.4816 92.3198 54.4816 92.6562 54.4297 92.8114L58.451 93.1478C58.4769 93.096 58.5029 93.0702 58.5029 93.0184Z" fill="#A5656A"/>
<path d="M29.7838 51.9305C29.8097 51.9305 29.8616 51.9046 29.8876 51.8528C30.3805 51.3095 30.2767 48.1011 30.1729 45.2808C30.0173 40.3129 29.9913 37.0269 31.055 36.3024C33.0787 34.957 38.8382 31.8262 48.7229 31.8262C56.7655 31.8262 62.7326 33.3269 66.5204 36.3024C67.8176 37.3115 67.9473 40.8563 68.077 44.2976C68.1808 47.0661 68.3105 50.1969 69.1407 50.4039C69.2186 50.4298 69.3483 50.3521 69.4521 50.2228C71.2422 48.2822 73.2139 34.6206 72.6432 28.4108C72.0465 22.3304 58.0367 18.0094 48.5672 17.3625C45.0388 17.1297 41.3807 17.0779 37.8524 17.0262C32.4041 16.9485 27.7083 16.8968 25.1917 16.1206C24.7507 15.9912 24.3615 15.9136 24.0502 15.9136C23.3497 15.9136 23.2978 16.2499 23.2719 16.3534C23.0903 17.3108 24.5691 19.3031 26.3592 20.0534C26.463 20.1052 26.5408 20.2346 26.5149 20.3381C26.4889 20.4674 26.3851 20.5451 26.2554 20.5451C26.2554 20.5451 25.1658 20.4933 23.7648 20.4933C22.0525 20.4933 19.7175 20.5709 18.2906 20.9073C17.7199 21.0367 17.668 21.3213 17.668 21.5283C17.7717 22.7702 20.7812 25.1765 23.687 25.4353C23.7907 25.4353 23.8945 25.5388 23.9205 25.6423C23.9464 25.7458 25.6587 35.6556 26.1516 39.9248C26.8002 45.6172 28.8498 51.9305 29.7838 51.9305Z" fill="#935C4B"/>
<path d="M31.652 49.8865C31.3926 47.5578 31.8337 41.2704 32.9492 39.3557C34.0648 37.4668 42.8858 34.2584 51.8105 34.8794C60.7093 35.4745 63.3037 38.6829 64.6008 41.0892C65.898 43.4955 65.3013 57.0536 62.7848 60.676C60.813 63.548 54.9756 66.239 49.8906 67.6362C58.1927 67.3257 66.1315 62.0991 67.2471 59.3305C67.8179 57.8557 68.2071 54.2333 68.4146 50.5333C67.766 49.6536 67.6622 47.4802 67.5325 44.3494C67.4028 41.1927 67.2731 37.6221 66.1834 36.7424C62.4994 33.8445 56.6101 32.3696 48.6972 32.3696C38.7088 32.3696 32.8714 35.7333 31.3407 36.7424C30.4327 37.3375 30.5883 41.7361 30.6921 45.255C30.8218 49.1361 30.8737 51.5424 30.277 52.1893C30.1992 52.2928 30.0954 52.3445 30.0176 52.3704C30.0176 52.3963 31.9115 52.2151 31.652 49.8865Z" fill="#FCC58D"/>
<path d="M29.4974 52.3698C28.771 52.0076 28.0186 50.3258 27.37 48.2041C27.5776 50.7656 26.7474 51.9817 26.0469 52.5768C26.7474 53.3013 27.6035 53.7153 28.4856 53.7412C28.5115 53.7412 28.5375 53.7412 28.5894 53.7412C28.9526 53.7412 29.3158 53.6636 29.679 53.5601C29.6012 53.1461 29.5493 52.758 29.4974 52.3698Z" fill="#FCC58D"/>
<path d="M69.3997 53.7419C70.3337 53.7419 71.1898 53.3279 71.9163 52.6293C70.6191 51.9048 70.3596 50.637 70.4634 49.4985C70.2559 49.9901 70.0224 50.3783 69.8148 50.6111C69.5554 50.8957 69.27 50.9992 68.9846 50.9475C68.9587 50.9475 68.9327 50.9216 68.9068 50.9216C68.8549 51.8531 68.7771 52.7846 68.6992 53.6643C68.9068 53.716 69.0884 53.7419 69.2959 53.7419C69.3219 53.7419 69.3738 53.7419 69.3997 53.7419Z" fill="#FCC58D"/>
<path d="M56.1417 67.0669C53.9364 67.7396 51.5496 68.1536 49.1109 68.1536C47.3207 68.1536 45.3749 67.9207 43.4551 67.5068C43.4551 67.5068 47.7877 69.3956 50.1227 69.6543C51.3161 69.7837 51.9128 70.1977 52.2241 70.7928C53.9624 69.8613 55.7525 68.6193 56.1676 68.3347C56.1936 67.9207 56.1676 67.5068 56.1417 67.0669Z" fill="#FCC58D"/>
<path d="M69.5282 41.3478C69.7098 38.424 70.1249 35.3191 66.0777 32.5506C62.0045 29.782 47.4759 26.8582 47.3981 27.4534C47.3202 28.0485 48.5136 29.1869 48.5136 29.1869C44.3626 28.4883 32.61 30.6618 32.61 31.1792C32.61 31.6967 34.8671 31.9555 34.1666 32.1366C33.4662 32.3177 30.3529 33.0939 29.2373 34.9827C28.1217 36.8716 28.9 41.9688 29.3151 47.2212C29.5227 49.7052 29.4448 50.9213 29.2892 51.5164C29.4708 51.7751 29.6524 51.9303 29.7821 51.9303C29.8081 51.9303 29.86 51.9045 29.8859 51.8527C30.3788 51.3094 30.2751 48.101 30.1713 45.2807C30.0156 40.3128 29.9897 37.0268 31.0534 36.3023C33.077 34.9569 38.8366 31.8261 48.7212 31.8261C56.7638 31.8261 62.7309 33.3268 66.5187 36.3023C67.8159 37.3114 67.9456 40.8562 68.0754 44.2975C68.1791 47.066 68.3089 50.1968 69.1391 50.4038C69.2169 50.4296 69.3466 50.352 69.4504 50.2226C69.632 50.0415 69.7877 49.731 69.9693 49.3429C68.8277 48.0751 69.3726 43.7541 69.5282 41.3478Z" fill="#845142"/>
<path d="M38.2161 17.8024C44.8578 17.8541 54.7943 18.501 62.2921 20.2346C57.8557 18.6562 52.7447 17.6471 48.5418 17.3625C45.0134 17.1297 41.3553 17.0779 37.827 17.0262C32.3787 16.9485 27.6829 16.8968 25.1663 16.1206C24.7253 15.9912 24.3361 15.9136 24.0248 15.9136C23.3243 15.9136 23.2724 16.2499 23.2465 16.3534C23.0649 17.3108 24.5437 19.3031 26.3338 20.0534C26.4376 20.1052 26.5154 20.2346 26.4895 20.3381C26.4635 20.4674 26.3597 20.5451 26.23 20.5451C26.23 20.5451 25.1404 20.4933 23.7394 20.4933C22.0271 20.4933 19.6921 20.5709 18.2652 20.9073C17.6945 21.0367 17.6426 21.3213 17.6426 21.5283C17.7723 22.7702 20.7818 25.1765 23.6875 25.4353C23.7913 25.4353 23.8951 25.5388 23.921 25.6423C23.921 25.694 24.6215 29.7045 25.2442 33.715C24.9847 30.0668 24.6215 25.073 24.4658 24.866C24.2064 24.5297 19.0176 23.1325 18.836 21.8388C18.6544 20.5451 27.9164 21.5024 28.098 20.7262C28.2796 19.9499 24.4658 18.6562 24.4658 17.3625C24.4658 16.0688 28.6169 17.6989 38.2161 17.8024Z" fill="#A86956"/>
<path d="M25.8908 29.7559C25.8649 29.6265 25.6314 29.6006 25.6054 29.7559C25.4238 30.972 25.4498 32.2657 25.4238 33.5076C25.4238 33.6888 25.7092 33.7405 25.7352 33.5594C25.9946 32.3433 26.1243 30.9461 25.8908 29.7559Z" fill="#A86956"/>
<path d="M26.7741 29.6527C26.7223 29.5233 26.5406 29.5233 26.5147 29.6527C26.4109 29.9632 26.4369 30.3254 26.4888 30.6359C26.5147 30.8429 26.7741 30.8429 26.8001 30.6359C26.826 30.3254 26.8779 29.9632 26.7741 29.6527Z" fill="#A86956"/>
<path d="M62.5502 21.321C61.2531 20.6224 59.5148 20.1825 58.036 20.286C57.9063 20.286 57.8544 20.493 58.0101 20.5189C58.7365 20.7259 59.4889 20.8035 60.2412 21.0105C60.9677 21.1916 61.6941 21.4763 62.4205 21.6574C62.6021 21.7091 62.7319 21.4245 62.5502 21.321Z" fill="#A86956"/>
<path d="M64.2879 21.7352C64.1323 21.6058 64.0025 21.5023 63.795 21.4506C63.5874 21.3988 63.3539 21.3729 63.1204 21.3988C62.861 21.4247 62.8351 21.8387 63.1204 21.8128C63.4577 21.7869 63.795 21.8904 64.1323 22.0198C64.2879 22.0457 64.3917 21.8387 64.2879 21.7352Z" fill="#A86956"/>
<path d="M27.1872 18.6303C26.6423 18.4751 26.2272 18.1387 25.7862 17.7765C25.6565 17.673 25.4489 17.8023 25.5268 17.9576C25.864 18.5009 26.4867 18.7855 27.1093 18.889C27.2909 18.9149 27.3428 18.682 27.1872 18.6303Z" fill="#A86956"/>
<path d="M29.5234 33.5595C28.5894 33.87 27.7073 34.8532 27.8111 35.8882C27.837 36.0434 28.0446 36.0693 28.0965 35.9141C28.2521 35.4742 28.3818 35.0602 28.6672 34.698C28.9267 34.3616 29.2899 34.077 29.6531 33.8441C29.8088 33.7665 29.705 33.5078 29.5234 33.5595Z" fill="#845142"/>
<path d="M30.4064 32.1621C29.9913 32.2397 29.654 32.4725 29.4205 32.8089C29.3168 32.9642 29.5762 33.1712 29.68 33.0159C29.8875 32.7572 30.1729 32.5502 30.4842 32.4467C30.6399 32.3691 30.588 32.1103 30.4064 32.1621Z" fill="#845142"/>
<path d="M67.8691 32.6026C67.1946 31.697 66.053 30.9984 65.0672 30.4551C64.9115 30.3775 64.7818 30.6103 64.9375 30.6879C65.4563 31.0243 65.9752 31.3865 66.4422 31.7747C66.8573 32.111 67.1946 32.4991 67.6356 32.8096C67.7913 32.939 67.9729 32.7579 67.8691 32.6026Z" fill="#845142"/>
<path d="M69.1133 33.5598C68.8538 33.3269 68.6722 33.0423 68.776 32.6801C68.8279 32.4472 68.4647 32.3437 68.4128 32.5766C68.2831 33.0682 68.4906 33.6374 68.9836 33.7927C69.1133 33.8444 69.2171 33.6633 69.1133 33.5598Z" fill="#845142"/>
<path d="M44.8821 28.3589C44.2594 28.3589 43.6108 28.4365 42.9882 28.4624C42.8585 28.4624 42.8325 28.6435 42.9622 28.6694C43.6108 28.7987 44.2854 28.8246 44.934 28.6694C45.1156 28.6176 45.0637 28.3589 44.8821 28.3589Z" fill="#845142"/>
<path d="M46.5951 28.333C46.3616 28.1519 46.1281 28.1001 45.8427 28.2036C45.6092 28.2813 45.6611 28.6176 45.8946 28.6176C45.9724 28.6176 46.0762 28.6176 46.1541 28.6176C46.2578 28.6176 46.3616 28.6176 46.4394 28.6435C46.6729 28.6952 46.7508 28.4624 46.5951 28.333Z" fill="#845142"/>
<path d="M33.5186 39.821C33.0516 40.4679 32.7662 41.4252 32.5068 42.1756C32.4549 42.3308 32.7144 42.4602 32.7922 42.3049C33.1554 41.5805 33.6224 40.7007 33.7262 39.8986C33.7521 39.7434 33.5705 39.7434 33.5186 39.821Z" fill="#FCC58D"/>
<path d="M34.5309 39.3298C34.1936 39.5627 34.1158 40.0026 34.0898 40.3907C34.0898 40.5459 34.2974 40.5718 34.3493 40.4165C34.4531 40.1061 34.6606 39.8214 34.7644 39.4851C34.7903 39.3816 34.6606 39.2522 34.5309 39.3298Z" fill="#FCC58D"/>
<path d="M49.3455 72.1899C48.152 72.9144 46.9327 73.5613 45.6614 74.1305C44.935 74.4669 43.9751 74.7256 43.4043 74.1823C43.5859 74.855 43.7416 75.5277 43.8972 76.2263C44.1567 76.3298 44.3642 76.3816 44.5199 76.3039C45.3501 75.9158 47.8667 73.613 49.3714 72.1899C49.3714 72.2158 49.3714 72.1899 49.3455 72.1899Z" fill="#D7E5EC"/>
<path d="M53.4701 73.7164C54.3263 74.1563 55.2603 74.5961 56.1683 74.4926C56.5315 73.1213 56.9466 71.7758 57.4655 70.508C57.2061 70.1716 56.7391 69.5506 56.3499 68.8262C55.4419 69.4472 52.3546 71.5688 50.3828 72.1381C51.4206 72.6814 52.4324 73.1989 53.4701 73.7164Z" fill="white"/>
<path d="M46.2301 85.2561C46.1263 83.2638 46.0744 81.2714 46.0485 79.2791C46.0485 78.2442 46.1004 77.1057 46.723 76.3295C46.5673 76.1225 46.4117 75.8896 46.3079 75.6567C45.6593 76.2001 45.0885 76.6141 44.7513 76.7693C44.6475 76.8211 44.5437 76.847 44.414 76.847C44.3102 76.847 44.1805 76.8211 44.0508 76.7952C45.2701 82.5651 45.5296 88.568 45.6334 91.2848C45.6593 91.6211 45.6593 91.9316 45.6852 92.1645L46.9565 92.1903C46.5155 89.9393 46.3338 87.5847 46.2301 85.2561Z" fill="#D7E5EC"/>
<path d="M55.1561 76.8729C55.0264 76.8729 54.9227 76.8471 54.8189 76.7953C54.6113 76.6918 54.3 76.4848 53.9627 76.2261C54.0665 76.4848 54.1184 76.7436 54.1703 77.0282C54.3259 77.8303 54.2741 78.6841 54.2222 79.5121C54.0146 83.2639 53.8071 87.0674 53.0547 90.7415L53.1585 92.4233L53.9887 92.4492C54.0146 92.1905 54.0146 91.7765 54.0406 91.3366C54.1703 88.6198 54.4297 82.617 55.6491 76.8212C55.4675 76.8471 55.3118 76.8729 55.1561 76.8729Z" fill="#D7E5EC"/>
<path d="M53.2106 75.6313C51.9393 74.5704 50.4346 73.1473 49.786 72.5264C49.1893 73.0956 47.8921 74.3117 46.7246 75.3208C46.9062 75.7606 47.2435 76.2005 47.6586 76.5886C47.5808 76.0194 47.7883 75.3725 48.2034 74.9585C48.7223 74.4411 49.5006 74.2341 50.227 74.3376C51.1091 74.4928 51.9134 75.1138 52.2507 75.9676C52.3544 76.2264 52.4063 76.4851 52.4063 76.7439C52.7436 76.4075 53.029 76.0194 53.2106 75.6313Z" fill="#D82E35"/>
<path d="M51.7826 77.8301C51.3156 78.0629 50.7968 78.1923 50.2001 78.1923C50.1222 78.1923 50.0703 78.1923 49.9925 78.1923C49.5515 78.1664 49.1104 78.0629 48.6953 77.8818C48.6953 77.9336 48.6953 77.9595 48.6953 78.0112C48.9288 78.3734 49.292 78.6839 49.7071 78.865C50.2519 79.0979 50.8487 79.1755 51.4454 79.2273C51.601 79.2532 51.7308 79.2532 51.8864 79.2532L51.7826 77.8301Z" fill="#D82E35"/>
<path d="M70.7739 77.6753C69.5804 76.6404 66.4672 75.7865 64.0803 75.2432C63.769 76.6145 62.5756 78.6327 62.394 78.9173C62.1345 79.3572 61.0449 79.3313 60.1887 79.2019C60.6298 79.9264 61.3043 81.2201 61.2265 81.7635C61.2265 81.8411 60.0071 89.2929 59.3066 92.2166L60.7854 92.1649C61.0968 89.0341 61.6935 85.9033 62.5756 82.9019C62.6794 82.5656 62.7831 82.2033 63.0166 81.9446C63.3798 81.5306 63.9247 81.4012 64.4435 81.2718C65.0143 81.1425 65.5851 81.0131 66.1558 81.0907C67.5828 81.2977 68.4389 82.7467 68.9578 84.0921C69.9437 86.5502 70.4885 89.1894 70.6182 91.8285L74.9249 91.6733C74.6914 89.9915 72.7715 79.4089 70.7739 77.6753Z" fill="#985D61"/>
<path d="M40.3672 92.2166C39.6667 89.3187 38.4733 81.867 38.4474 81.7635C38.3695 81.2201 39.07 79.9264 39.4851 79.2019C38.603 79.3054 37.5393 79.3313 37.2799 78.9173C37.0983 78.6327 35.9048 76.6145 35.5935 75.2432C35.1784 75.3467 34.7633 75.4502 34.3223 75.5537C34.9449 76.3299 35.36 77.3131 35.6973 78.2704C36.5275 80.5991 37.0723 83.0313 37.0983 85.4893C37.1242 87.7404 36.6832 90.0432 35.6714 92.0614L40.3672 92.2166Z" fill="#985D61"/>
<path d="M43.0664 92.9927L45.1938 92.8116C45.1679 92.6563 45.1419 92.32 45.09 91.3109C44.9603 88.62 44.7268 82.7206 43.5334 77.0283C43.4556 77.8045 43.6112 78.6325 43.715 79.4087C44.0004 81.8151 43.5593 84.2214 43.3518 86.6535C43.1961 88.7752 43.2221 90.8969 43.0664 92.9927Z" fill="#985D61"/>
<path d="M55.4669 80.7026C54.8183 85.1271 54.6367 89.2152 54.5589 91.3369C54.507 92.346 54.507 92.6824 54.4551 92.8376L56.5825 93.0188C55.9079 88.9048 55.3891 84.7908 55.4669 80.7026Z" fill="#985D61"/>
<path d="M58.2183 71.8018C57.6215 73.0697 57.2583 74.4669 56.9729 75.8382C56.947 75.9676 57.1546 76.0193 57.1805 75.89C57.5437 74.5445 58.0107 73.2249 58.4258 71.8795C58.4517 71.7501 58.2701 71.6725 58.2183 71.8018Z" fill="#BF757A"/>
<path d="M57.0242 77.0798C56.9983 76.9246 56.7648 76.9246 56.7648 77.0798C56.7907 77.3386 56.7907 77.5714 56.7389 77.8302C56.7129 77.9595 56.8945 78.0113 56.9205 77.8819C57.0242 77.6232 57.0502 77.3644 57.0242 77.0798Z" fill="#BF757A"/>
<path d="M42.8588 75.6311C42.5475 74.415 42.2362 73.1471 41.6654 72.0346C41.6135 71.9052 41.406 72.0087 41.4319 72.138C41.7692 73.3283 42.2621 74.4926 42.6253 75.6828C42.6772 75.8381 42.9107 75.7863 42.8588 75.6311Z" fill="#BF757A"/>
<path d="M43.3259 77.4423C43.2481 77.2353 43.1443 77.0025 43.0924 76.7955C43.0405 76.6144 42.7811 76.692 42.833 76.8731C42.8849 77.1318 42.9627 77.3647 43.1443 77.5717C43.1962 77.6493 43.3778 77.5458 43.3259 77.4423Z" fill="#BF757A"/>
<path d="M28.2778 79.3048C27.5513 81.4523 26.8768 83.5999 26.332 85.7992C26.2801 86.0062 26.5914 86.0838 26.6433 85.8768C27.3438 83.7293 27.9665 81.5558 28.641 79.4083C28.7448 79.1495 28.3556 79.0719 28.2778 79.3048Z" fill="#BF757A"/>
<path d="M26.1498 87.016C26.072 87.4559 25.9941 87.8957 25.9941 88.3615C25.9941 88.4908 26.1757 88.5167 26.2276 88.3873C26.3574 87.9475 26.3833 87.5076 26.4352 87.0677C26.4611 86.8866 26.1757 86.8608 26.1498 87.016Z" fill="#BF757A"/>
<path d="M39.563 82.3065C39.5371 82.203 39.3555 82.2289 39.3814 82.3583C39.7447 84.066 40.03 85.7737 40.3673 87.4555C40.3932 87.5849 40.6008 87.559 40.6008 87.4296C40.4451 85.6961 40.0819 83.9884 39.563 82.3065Z" fill="#BF757A"/>
<path d="M41.0685 89.474C40.9128 89.0082 40.7831 88.5684 40.809 88.0768C40.809 87.9474 40.6015 87.9215 40.5755 88.0509C40.4977 88.5684 40.4977 89.1376 40.835 89.5775C40.9128 89.6809 41.0944 89.6292 41.0685 89.474Z" fill="#BF757A"/>
<path d="M59.9574 82.3066C59.9309 82.3066 59.9309 82.3332 59.9574 82.3332V82.3066Z" fill="#BF757A"/>
<path d="M60.1363 82.0997C59.9028 83.2899 59.6434 84.4542 59.4358 85.6703C59.4099 85.8256 59.6174 85.8773 59.6693 85.7221C60.0325 84.5577 60.2141 83.3675 60.4217 82.1773C60.4217 81.9962 60.1623 81.9186 60.1363 82.0997Z" fill="#BF757A"/>
<path d="M48.8247 83.5483C48.8247 83.4448 48.695 83.4448 48.669 83.5483C48.4874 85.3336 48.3317 87.1707 48.2539 88.9819C48.2539 89.1372 48.5133 89.1889 48.5393 89.0337C48.9284 87.2742 49.0063 85.3336 48.8247 83.5483Z" fill="#F05C51"/>
<path d="M48.4113 90.1211C48.3853 89.9659 48.1778 89.9917 48.1259 90.1211C47.9962 90.5351 47.9962 91.0785 48.048 91.5183C48.074 91.6736 48.2815 91.7253 48.3334 91.5442C48.4631 91.1043 48.515 90.561 48.4113 90.1211Z" fill="#F05C51"/>
<path d="M50.3835 77.1316C49.7349 76.9505 49.0863 76.8211 48.4377 76.5624C48.308 76.5106 48.2561 76.6917 48.3599 76.7694C48.9566 77.1316 49.6571 77.4162 50.3576 77.4421C50.5132 77.4421 50.5651 77.1834 50.3835 77.1316Z" fill="#F05C51"/>
<path d="M44.6235 46.7565C45.3758 46.7823 45.298 45.4369 45.0904 44.9453C44.8829 44.4537 39.5644 42.8236 38.5007 42.9271C37.411 43.0306 36.7365 43.8327 36.7624 44.4019C36.8143 44.997 43.0409 46.6788 44.6235 46.7565Z" fill="#935C4B"/>
<path d="M44.6763 47.0148H44.6244C43.7164 46.9631 41.6149 46.4715 40.0583 46.0316C36.5559 45.0225 36.5299 44.6344 36.5299 44.4274C36.504 43.7029 37.2823 42.7973 38.5017 42.668C38.5536 42.668 38.6054 42.668 38.6573 42.668C39.8508 42.668 45.0655 44.1687 45.3768 44.8414C45.5584 45.2554 45.6362 46.1869 45.3249 46.6785C45.1433 46.9113 44.9358 47.0148 44.6763 47.0148ZM37.0229 44.3498C37.5417 44.8673 42.964 46.4197 44.6244 46.4973H44.6504C44.7023 46.4973 44.7801 46.4715 44.832 46.3939C45.0395 46.0834 44.9876 45.3848 44.8579 45.0743C44.4428 44.6603 39.8507 43.1855 38.6054 43.1855C38.5795 43.1855 38.5276 43.1855 38.5017 43.1855C37.5936 43.2889 37.0488 43.9358 37.0229 44.3498Z" fill="#674940"/>
<path d="M49.7074 55.9931C49.2663 55.9931 48.8253 55.8379 48.488 55.6568C48.3583 55.605 48.3064 55.4498 48.3842 55.3204C48.4361 55.191 48.5918 55.1393 48.7215 55.2169C49.0588 55.398 49.7074 55.6309 50.1225 55.398C50.4079 55.2428 50.5635 54.8805 50.5895 54.3372C50.6154 53.9749 50.5376 53.6903 50.3041 53.4575C49.863 53.0176 49.0328 52.9141 48.7215 52.94C48.5658 52.94 48.4621 52.8365 48.4621 52.6812C48.4621 52.526 48.5658 52.4225 48.7215 52.4225C48.7734 52.4225 50.0187 52.3966 50.6932 53.0952C51.0046 53.4316 51.1602 53.8456 51.1083 54.3631C51.0565 55.0875 50.797 55.605 50.3819 55.8379C50.1744 55.9414 49.9409 55.9931 49.7074 55.9931Z" fill="#674940"/>
<path d="M40.9355 50.534C41.8955 50.534 42.6738 49.7579 42.6738 48.8005C42.6738 47.843 41.8955 47.0669 40.9355 47.0669C39.9755 47.0669 39.1973 47.843 39.1973 48.8005C39.1973 49.7579 39.9755 50.534 40.9355 50.534Z" fill="#674940"/>
<path d="M40.9111 48.1015C40.9111 48.412 40.6516 48.6707 40.3403 48.6707C40.029 48.6707 39.7695 48.412 39.7695 48.1015C39.7695 47.791 40.029 47.5322 40.3403 47.5322C40.6516 47.5322 40.9111 47.791 40.9111 48.1015Z" fill="white"/>
<path d="M53.9386 46.7044C53.2122 46.782 53.1863 45.4106 53.3679 44.919C53.5495 44.4274 58.7383 42.4869 59.8279 42.5386C60.9176 42.5904 61.644 43.3407 61.644 43.9099C61.6699 44.505 55.5472 46.5491 53.9386 46.7044Z" fill="#935C4B"/>
<path d="M53.886 46.963C53.6266 46.963 53.419 46.8595 53.2634 46.6266C52.9261 46.1609 52.952 45.2553 53.1336 44.8155C53.3931 44.091 58.7635 42.2539 59.8012 42.2539C59.8272 42.2539 59.8272 42.2539 59.8531 42.2539C61.0465 42.3057 61.9027 43.1595 61.9027 43.884C61.9027 44.091 61.9027 44.4791 58.4781 45.6693C56.9474 46.2127 54.8719 46.8336 53.9639 46.9113C53.9379 46.963 53.912 46.963 53.886 46.963ZM53.6006 45.0483C53.4969 45.3588 53.4969 46.0574 53.6785 46.342C53.7563 46.4455 53.8341 46.4455 53.886 46.4455C55.5464 46.2644 60.8649 44.4273 61.3579 43.8581C61.306 43.4182 60.7352 42.8231 59.8012 42.7973H59.7753C58.6856 42.7973 54.0157 44.5826 53.6006 45.0483Z" fill="#674940"/>
<path d="M57.6484 50.5335C58.6084 50.5335 59.3866 49.7574 59.3866 48.8C59.3866 47.8426 58.6084 47.0664 57.6484 47.0664C56.6884 47.0664 55.9102 47.8426 55.9102 48.8C55.9102 49.7574 56.6884 50.5335 57.6484 50.5335Z" fill="#674940"/>
<path d="M57.622 48.1015C57.622 48.412 57.3626 48.6707 57.0512 48.6707C56.7399 48.6707 56.4805 48.412 56.4805 48.1015C56.4805 47.791 56.7399 47.5322 57.0512 47.5322C57.3626 47.5322 57.622 47.791 57.622 48.1015Z" fill="white"/>
<path d="M51.914 60.7533C51.8621 60.7533 51.8361 60.7532 51.7843 60.7274C49.4752 59.4078 47.3997 60.7015 47.3738 60.7274C47.2441 60.805 47.0884 60.7791 47.0106 60.6498C46.9327 60.5204 46.9587 60.3651 47.0884 60.2875C47.1922 60.2358 49.4493 58.7868 52.0178 60.2875C52.1475 60.3651 52.1734 60.5204 52.1215 60.6498C52.0956 60.7274 52.0178 60.7533 51.914 60.7533Z" fill="#674940"/>
</g>
</g>
<defs>
<clipPath id="clip0_1565_3874">
<rect x="12.375" y="6.80615" width="74.2515" height="86.6268" rx="16" fill="white"/>
</clipPath>
</defs>
</svg>
