<svg width="20" height="20" viewBox="0 0 20 20" fill="none" xmlns="http://www.w3.org/2000/svg">
<path d="M7.1875 17.5H5.83333C3.99238 17.5 2.5 16.0076 2.5 14.1667V5.83333C2.5 3.99238 3.99238 2.5 5.83333 2.5H14.1667C16.0076 2.5 17.5 3.99238 17.5 5.83333V6.71875" stroke="white" stroke-width="1.5" stroke-linecap="round"/>
<path d="M12.2249 16.8845L10.0477 10.3529C9.81319 9.64925 10.4826 8.97982 11.1863 9.21437L17.7179 11.3916C18.5385 11.6651 18.5385 12.8258 17.7179 13.0994L15.306 13.9033C15.0372 13.9929 14.8263 14.2038 14.7367 14.4726L13.9327 16.8845C13.6592 17.7051 12.4985 17.7051 12.2249 16.8845Z" stroke="white" stroke-width="1.5" stroke-linecap="round" stroke-linejoin="round"/>
</svg>
