<svg width="20" height="20" viewBox="0 0 20 20" fill="none" xmlns="http://www.w3.org/2000/svg">
<path d="M7.1875 17.5H5.83333C3.99238 17.5 2.5 16.0076 2.5 14.1667V5.83333C2.5 3.99238 3.99238 2.5 5.83333 2.5H14.1667C16.0076 2.5 17.5 3.99238 17.5 5.83333V7.1875" stroke="white" stroke-width="1.5" stroke-linecap="round"/>
<g clip-path="url(#clip0_1910_14113)">
<path d="M9.00195 16.7008C9.03271 16.5163 9.06128 16.3273 9.16895 16.1713C9.26782 16.0285 9.37329 15.8835 9.50293 15.7714C10.907 14.5497 12.3176 13.3324 13.7283 12.1173C13.8469 12.0163 13.9041 11.9064 13.8997 11.7482C13.8909 11.456 13.8975 11.1637 13.8975 10.8715C13.8953 10.6254 13.981 10.4145 14.1545 10.2409C14.4314 9.96402 14.7061 9.68497 14.9873 9.41031C15.5125 8.89615 16.3079 8.88297 16.8286 9.37516C16.9648 9.5048 16.9714 9.65421 16.8396 9.78824C16.6023 10.0277 16.3628 10.2629 16.1277 10.5024C15.9739 10.6606 16.0244 10.8913 16.2244 10.9528C16.3364 10.9879 16.4287 10.9462 16.51 10.8649C16.7341 10.6386 16.9604 10.4145 17.1868 10.1881C17.356 10.019 17.4944 10.0233 17.6548 10.1991C18.0833 10.6693 18.1096 11.4186 17.6855 11.902C17.3801 12.2514 17.0374 12.5678 16.7056 12.893C16.5496 13.0468 16.3496 13.0995 16.1365 13.0995C15.8354 13.0995 15.5344 13.1039 15.2334 13.0973C15.095 13.0951 14.9961 13.1391 14.906 13.2445C13.9106 14.3981 12.9131 15.5473 11.9177 16.6986C11.6584 16.9997 11.3992 17.3007 11.1355 17.5973C10.9443 17.8127 10.7004 17.9379 10.4148 17.9796C10.4016 17.9818 10.3884 17.9906 10.3752 17.995C10.2808 17.995 10.1885 17.995 10.094 17.995C10.0786 17.9906 10.061 17.9818 10.0457 17.9796C9.6084 17.9027 9.29199 17.6654 9.11182 17.2589C9.06128 17.1447 9.0415 17.015 9.00854 16.892C9.00195 16.8305 9.00195 16.7646 9.00195 16.7008ZM10.5488 16.7074C10.5488 16.5624 10.4302 16.446 10.2874 16.446C10.1445 16.4482 10.0237 16.5668 10.0259 16.7096C10.0281 16.8525 10.1467 16.9689 10.2917 16.9689C10.4346 16.9689 10.5488 16.8525 10.5488 16.7074Z" fill="white"/>
<path d="M16.1963 17.9991C16.0754 17.9705 15.9524 17.9485 15.8337 17.9112C15.5393 17.8167 15.2954 17.6475 15.0999 17.408C14.6099 16.8126 14.1221 16.2149 13.6321 15.6194C13.6211 15.6063 13.6101 15.5931 13.5947 15.5711C13.72 15.4239 13.8452 15.2789 13.9727 15.1338C14.3879 14.6548 14.8032 14.1758 15.2163 13.6924C15.2734 13.6243 15.3174 13.6177 15.3899 13.6705C16.0205 14.1253 16.6555 14.5735 17.2861 15.0262C18.2397 15.7095 18.2178 17.0828 17.24 17.7354C17.0356 17.8716 16.8071 17.9529 16.5632 17.9837C16.5413 17.9859 16.5171 17.9947 16.4951 17.9991C16.394 17.9991 16.2952 17.9991 16.1963 17.9991Z" fill="white"/>
<path d="M9.00195 9.96402C9.05469 9.8959 9.10083 9.82119 9.16016 9.75967C9.3667 9.54873 9.57764 9.33999 9.78638 9.13345C9.91821 9.00161 10.0105 8.98623 10.1797 9.07193C10.6477 9.30923 11.1157 9.54654 11.5859 9.78164C11.687 9.83218 11.7485 9.90469 11.7837 10.0124C11.8826 10.3244 11.988 10.6342 12.0935 10.9418C12.1089 10.9901 12.1396 11.0363 12.1748 11.0714C12.4736 11.3725 12.7747 11.6713 13.0823 11.9789C12.6824 12.3261 12.2847 12.6688 11.8826 13.016C11.6782 12.8095 11.4673 12.6139 11.2783 12.4008C11.1003 12.203 10.896 12.0712 10.6367 12.0053C10.4258 11.9525 10.2214 11.8668 10.0127 11.8031C9.89185 11.7658 9.81274 11.6955 9.75781 11.5834C9.50952 11.0846 9.25464 10.5858 9.00195 10.0871C9.00195 10.0453 9.00195 10.0058 9.00195 9.96402Z" fill="white"/>
</g>
<defs>
<clipPath id="clip0_1910_14113">
<rect width="9" height="9" fill="white" transform="translate(9 9)"/>
</clipPath>
</defs>
</svg>
