<svg width="20" height="20" viewBox="0 0 20 20" fill="none" xmlns="http://www.w3.org/2000/svg">
<path d="M15.1998 7.4794L14.4546 7.56398L14.4546 7.56398L15.1998 7.4794ZM15.5724 10.7628L16.3176 10.6782L16.3176 10.6782L15.5724 10.7628ZM4.42789 10.7628L3.68268 10.6782L3.68268 10.6782L4.42789 10.7628ZM4.80055 7.4794L5.54577 7.56398L4.80055 7.4794ZM3.70665 12.3935L3.13554 11.9074L3.13554 11.9074L3.70665 12.3935ZM16.2937 12.3935L15.7226 12.8797L15.7226 12.8797L16.2937 12.3935ZM11.8918 3.6448H11.1418C11.1418 3.96538 11.3455 4.25052 11.6488 4.35436L11.8918 3.6448ZM8.10854 3.6448L8.35149 4.35436C8.65478 4.25052 8.85854 3.96538 8.85854 3.6448H8.10854ZM13.2025 16.93C13.3478 16.5421 13.1512 16.1098 12.7634 15.9644C12.3755 15.8191 11.9432 16.0157 11.7979 16.4035L13.2025 16.93ZM8.20246 16.4035C8.0571 16.0157 7.62483 15.8191 7.23696 15.9644C6.84909 16.1098 6.6525 16.5421 6.79786 16.93L8.20246 16.4035ZM14.8145 14.2501H5.18584V15.7501H14.8145V14.2501ZM14.4546 7.56398L14.8272 10.8474L16.3176 10.6782L15.945 7.39482L14.4546 7.56398ZM5.17311 10.8474L5.54577 7.56398L4.05533 7.39482L3.68268 10.6782L5.17311 10.8474ZM4.27776 12.8797C4.77413 12.2965 5.08832 11.5944 5.17311 10.8474L3.68268 10.6782C3.63323 11.1139 3.4486 11.5396 3.13554 11.9074L4.27776 12.8797ZM14.8272 10.8474C14.912 11.5944 15.2262 12.2965 15.7226 12.8797L16.8648 11.9074C16.5517 11.5396 16.3671 11.1139 16.3176 10.6782L14.8272 10.8474ZM5.18584 14.2501C4.68317 14.2501 4.33949 14.0028 4.18434 13.7294C4.0366 13.469 4.03742 13.162 4.27776 12.8797L3.13554 11.9074C2.46169 12.699 2.44028 13.6953 2.87977 14.4697C3.31186 15.2311 4.16487 15.7501 5.18584 15.7501V14.2501ZM14.8145 15.7501C15.8355 15.7501 16.6885 15.2311 17.1206 14.4697C17.56 13.6953 17.5386 12.699 16.8648 11.9074L15.7226 12.8797C15.9629 13.162 15.9637 13.469 15.816 13.7294C15.6608 14.0028 15.3172 14.2501 14.8145 14.2501V15.7501ZM12.6418 3.6448V3.55837H11.1418V3.6448H12.6418ZM15.945 7.39482C15.7059 5.28857 14.1453 3.62364 12.1347 2.93524L11.6488 4.35436C13.2089 4.88851 14.2917 6.12932 14.4546 7.56398L15.945 7.39482ZM8.85854 3.6448V3.55837H7.35854V3.6448H8.85854ZM5.54577 7.56398C5.7086 6.12932 6.79143 4.88851 8.35149 4.35436L7.8656 2.93524C5.855 3.62364 4.29439 5.28857 4.05533 7.39482L5.54577 7.56398ZM10.0002 2.41675C10.6307 2.41675 11.1418 2.92787 11.1418 3.55837H12.6418C12.6418 2.09944 11.4591 0.916748 10.0002 0.916748V2.41675ZM10.0002 0.916748C8.54124 0.916748 7.35854 2.09944 7.35854 3.55837H8.85854C8.85854 2.92787 9.36966 2.41675 10.0002 2.41675V0.916748ZM11.7979 16.4035C11.5479 17.0704 10.8539 17.5834 10.0002 17.5834V19.0834C11.4548 19.0834 12.7246 18.205 13.2025 16.93L11.7979 16.4035ZM10.0002 17.5834C9.14642 17.5834 8.4524 17.0704 8.20246 16.4035L6.79786 16.93C7.27574 18.205 8.54552 19.0834 10.0002 19.0834V17.5834Z" fill="#0341A3"/>
</svg>
