<svg width="20" height="20" viewBox="0 0 20 20" fill="none" xmlns="http://www.w3.org/2000/svg">
<g clip-path="url(#clip0_1910_14119)">
<path d="M12.0832 6.75008C11.669 6.75008 11.3332 7.08587 11.3332 7.50008C11.3332 7.9143 11.669 8.25008 12.0832 8.25008V6.75008ZM14.3968 7.96074L13.726 8.29615L13.726 8.29615L14.3968 7.96074ZM14.329 9.50216C14.5143 9.87264 14.9648 10.0228 15.3352 9.83757C15.7057 9.65233 15.8559 9.20182 15.6707 8.83134L14.329 9.50216ZM14.3771 8.32794L14.7883 7.70071L13.5338 6.87832L13.1226 7.50556L14.3771 8.32794ZM11.4702 11.3941L10.843 10.9829L10.843 10.9829L11.4702 11.3941ZM10.0604 11.3688L9.41875 11.7572L9.41875 11.7572L10.0604 11.3688ZM8.47021 8.7418L7.8286 9.13018L7.8286 9.13018L8.47021 8.7418ZM7.02521 8.77525L6.36631 8.41698L7.02521 8.77525ZM4.34094 12.1418C4.14308 12.5057 4.27767 12.9611 4.64157 13.159C5.00546 13.3568 5.46086 13.2223 5.65873 12.8584L4.34094 12.1418ZM4.99984 2.41675H14.9998V0.916748H4.99984V2.41675ZM17.5832 5.00008V15.0001H19.0832V5.00008H17.5832ZM14.9998 17.5834H4.99984V19.0834H14.9998V17.5834ZM2.4165 15.0001V5.00008H0.916504V15.0001H2.4165ZM4.99984 17.5834C3.5731 17.5834 2.4165 16.4268 2.4165 15.0001H0.916504C0.916504 17.2552 2.74467 19.0834 4.99984 19.0834V17.5834ZM17.5832 15.0001C17.5832 16.4268 16.4266 17.5834 14.9998 17.5834V19.0834C17.255 19.0834 19.0832 17.2552 19.0832 15.0001H17.5832ZM14.9998 2.41675C16.4266 2.41675 17.5832 3.57335 17.5832 5.00008H19.0832C19.0832 2.74492 17.255 0.916748 14.9998 0.916748V2.41675ZM4.99984 0.916748C2.74467 0.916748 0.916504 2.74492 0.916504 5.00008H2.4165C2.4165 3.57335 3.5731 2.41675 4.99984 2.41675V0.916748ZM12.0832 8.25008H13.6515V6.75008H12.0832V8.25008ZM13.726 8.29615L14.329 9.50216L15.6707 8.83134L15.0677 7.62533L13.726 8.29615ZM13.6515 8.25008C13.683 8.25008 13.7119 8.26792 13.726 8.29615L15.0677 7.62533C14.7994 7.08892 14.2512 6.75008 13.6515 6.75008V8.25008ZM13.1226 7.50556L10.843 10.9829L12.0974 11.8053L14.3771 8.32794L13.1226 7.50556ZM10.702 10.9804L9.11182 8.35342L7.8286 9.13018L9.41875 11.7572L10.702 10.9804ZM6.36631 8.41698L4.34094 12.1418L5.65873 12.8584L7.6841 9.13352L6.36631 8.41698ZM9.11182 8.35342C8.47889 7.3078 6.95019 7.34319 6.36631 8.41698L7.6841 9.13352C7.6946 9.11421 7.70492 9.10601 7.71316 9.10119C7.72339 9.09518 7.73795 9.09042 7.75538 9.09002C7.77282 9.08962 7.78758 9.0937 7.79808 9.09922C7.80653 9.10366 7.81722 9.11137 7.8286 9.13018L9.11182 8.35342ZM10.843 10.9829C10.8093 11.0342 10.7337 11.0329 10.702 10.9804L9.41875 11.7572C10.022 12.7538 11.4587 12.7796 12.0974 11.8053L10.843 10.9829Z" fill="white"/>
</g>
<defs>
<clipPath id="clip0_1910_14119">
<rect width="20" height="20" fill="white"/>
</clipPath>
</defs>
</svg>
