<svg width="363" height="344" viewBox="0 0 363 344" fill="none" xmlns="http://www.w3.org/2000/svg">
<g clip-path="url(#clip0_1192_1847)">
<path opacity="0.13" d="M101.048 295.37L89.906 277.613C90.5665 277.043 91.1564 276.397 91.6633 275.687C93.0344 273.709 93.7019 271.329 93.5587 268.926C93.489 267.89 93.2693 266.869 92.9064 265.895C92.6563 265.222 92.3374 264.577 91.9549 263.969C91.8781 263.846 91.8014 263.739 91.7247 263.624C90.3386 261.594 88.2898 260.11 85.9293 259.425C83.5688 258.741 81.0437 258.898 78.7867 259.871L67.207 241.454C67.0466 241.198 66.837 240.975 66.5904 240.799C66.3438 240.624 66.0649 240.499 65.7698 240.431C65.4747 240.363 65.1691 240.354 64.8706 240.405C64.5721 240.455 64.2865 240.564 64.0301 240.725C63.9117 240.793 63.7988 240.87 63.6925 240.956V241.032C63.4361 241.282 63.2415 241.589 63.1243 241.927C63.0071 242.265 62.9704 242.626 63.0172 242.982C59.0648 254.44 52.2435 264.696 43.2036 272.771L37.4099 277.92L36.9572 278.235L27.2575 284.98C24.8328 286.693 23.1488 289.263 22.5459 292.17C22.5261 292.251 22.5107 292.333 22.4998 292.416C22.4384 292.73 22.377 293.053 22.3387 293.375C22.3387 293.513 22.3387 293.644 22.3003 293.774C22.3003 294.073 22.2543 294.38 22.2466 294.687C22.2466 294.833 22.2466 294.986 22.2466 295.132C22.2466 295.424 22.2466 295.715 22.285 296.007C22.285 296.168 22.285 296.329 22.285 296.491C22.3157 296.777 22.354 297.061 22.4001 297.342C22.4001 297.511 22.4538 297.672 22.4921 297.841C22.5305 298.01 22.6149 298.401 22.6917 298.678C22.7684 298.954 22.7761 299.015 22.8298 299.184C22.8835 299.353 22.9526 299.568 23.0216 299.76L22.9295 299.813C22.157 300.298 21.4875 300.931 20.9595 301.675C20.4314 302.419 20.0551 303.259 19.852 304.149C19.6489 305.038 19.623 305.959 19.7758 306.858C19.9286 307.757 20.2571 308.618 20.7425 309.39C21.2157 310.152 21.8347 310.812 22.5641 311.333C23.2935 311.855 24.1188 312.227 24.9925 312.428C25.8662 312.629 26.771 312.655 27.6549 312.505C28.5389 312.355 29.3844 312.032 30.1429 311.554L30.5879 311.278C33.0081 313.478 36.1497 314.717 39.4204 314.762C40.9762 314.755 42.5152 314.44 43.9479 313.833C48.5511 319.416 52.0088 325.852 54.1233 332.772C56.7324 341.482 61.2983 343.016 64.575 341.85H64.644C65.0614 341.698 65.4604 341.5 65.8334 341.259L65.9102 341.205C66.2628 340.984 66.5919 340.727 66.8924 340.438L66.9768 340.346C67.1224 340.204 67.2583 340.053 67.3835 339.893C67.4986 339.74 67.6061 339.586 67.7058 339.425L67.7826 339.302C67.8747 339.141 67.9667 338.98 68.0435 338.811C70.1154 334.245 68.1509 326.74 64.2603 319.274C62.9345 316.736 61.4479 314.286 59.8096 311.938C59.257 311.17 58.6969 310.403 58.1213 309.636C57.4153 308.699 56.6863 307.802 55.9497 306.927L62.9865 303.857C69.1709 301.153 75.7163 299.364 82.4164 298.547C83.9512 298.363 85.4168 298.232 86.9286 298.14C88.4403 298.048 89.9597 298.01 91.4868 298.018C93.4666 298.018 95.4541 298.125 97.4416 298.294C97.8091 298.672 98.2954 298.913 98.8193 298.976C99.3431 299.039 99.8726 298.92 100.319 298.639L100.404 298.57C100.657 298.403 100.874 298.187 101.044 297.936C101.213 297.684 101.331 297.401 101.391 297.104C101.451 296.807 101.452 296.5 101.393 296.203C101.334 295.905 101.217 295.622 101.048 295.37Z" fill="#606060"/>
<path d="M34.2246 312.782C39.7117 318.741 43.7712 325.871 46.0959 333.631C49.9788 346.554 58.1744 343.73 60.0314 339.64C63.7071 331.529 54.6598 314.109 44.6839 304.172" fill="#FFAF00"/>
<path d="M44.6609 304.172L34.2246 312.782C34.2246 312.782 34.8001 313.357 35.7133 314.439C35.8868 314.129 36.1431 313.874 36.4535 313.702C36.7639 313.53 37.1161 313.448 37.4706 313.465C45.2671 313.465 50.7615 320.148 54.2147 326.441C57.1461 331.812 58.2818 337.629 55.8953 342.924C56.7856 342.719 57.619 342.318 58.3346 341.749C59.0501 341.181 59.6299 340.46 60.0314 339.64C63.6918 331.506 54.6521 314.109 44.6609 304.172Z" fill="#ED9F03"/>
<path d="M83.928 264.852C85.0452 266.627 85.6105 268.694 85.5521 270.791C85.4938 272.888 84.8144 274.92 83.6002 276.63C82.3859 278.341 80.6914 279.653 78.7311 280.399C76.7708 281.146 74.6331 281.294 72.5885 280.825C70.544 280.356 68.6847 279.29 67.2461 277.764C65.8075 276.237 64.8544 274.318 64.5074 272.249C64.1603 270.18 64.4351 268.055 65.2968 266.143C66.1584 264.23 67.5683 262.616 69.3478 261.506C71.7269 260.023 74.5962 259.543 77.3283 260.17C80.0604 260.797 82.4332 262.48 83.928 264.852Z" fill="#191919"/>
<path d="M64.3522 270.361C64.3337 272.008 64.6992 273.636 65.4198 275.117C66.1403 276.598 67.1961 277.89 68.5032 278.892C69.8104 279.894 71.333 280.577 72.9503 280.888C74.5676 281.198 76.235 281.128 77.8202 280.681C79.4054 280.235 80.8648 279.426 82.0827 278.317C83.3005 277.209 84.2432 275.831 84.836 274.295C85.4288 272.759 85.6554 271.105 85.4978 269.466C85.3402 267.827 84.8027 266.247 83.9279 264.851C83.8589 264.736 83.7745 264.621 83.6977 264.506C81.4033 271.689 71.1742 274.536 64.3522 270.361Z" fill="black"/>
<path d="M23.1285 311.777L22.1232 312.406C20.5954 313.364 18.7498 313.677 16.9916 313.275C15.2335 312.874 13.7065 311.791 12.7459 310.265C12.2566 309.494 11.925 308.634 11.7701 307.735C11.6152 306.835 11.6402 305.914 11.8435 305.024C12.0469 304.134 12.4246 303.294 12.9549 302.551C13.4852 301.808 14.1575 301.177 14.9329 300.696L15.8231 300.135L23.1285 311.777Z" fill="#FF5E1E"/>
<path d="M73.4836 268.282L55.6498 241.815L54.9822 243.749C51.0548 255.257 44.2346 265.563 35.1763 273.676L29.3826 278.825L28.9375 279.14L47.178 308.177L47.8763 307.763L54.9668 304.648C66.1007 299.813 78.2915 297.926 90.3658 299.168L92.3994 299.368L75.8855 272.057L74.65 270.008L73.4836 268.282Z" fill="#EF470C"/>
<path d="M70.0924 287.251C63.8843 290.106 57.8144 293.244 51.6754 296.329C48.6519 297.864 45.6566 299.442 42.6895 301.064L47.1556 308.178L47.8539 307.763L54.9674 304.648C66.1013 299.813 78.2921 297.927 90.3664 299.169L92.4 299.368L82.5162 283.015C78.22 283.924 74.0488 285.346 70.0924 287.251Z" fill="#D13809"/>
<path d="M92.3008 299.429C92.0444 299.59 91.7588 299.699 91.4603 299.75C91.1617 299.801 90.8562 299.792 90.5611 299.724C90.266 299.656 89.9871 299.531 89.7405 299.355C89.4939 299.18 89.2843 298.957 89.1238 298.7L55.2519 244.792C55.0913 244.533 54.9838 244.245 54.9354 243.944C54.8871 243.643 54.8989 243.336 54.9703 243.04C55.0417 242.744 55.1712 242.464 55.3512 242.219C55.5313 241.973 55.7584 241.765 56.0193 241.608C56.2757 241.447 56.5613 241.338 56.8598 241.287C57.1584 241.237 57.4639 241.245 57.759 241.313C58.0541 241.381 58.333 241.506 58.5796 241.682C58.8262 241.857 59.0358 242.08 59.1962 242.337L93.0451 296.268C93.3642 296.786 93.465 297.41 93.3256 298.002C93.1861 298.595 92.8176 299.108 92.3008 299.429Z" fill="#FFAF00"/>
<path d="M19.2386 285.862C13.7212 289.699 12.5624 297.733 16.6449 303.895L18.1412 306.182L19.7911 308.868C23.674 315.168 31.4322 317.478 37.2258 314.071L47.2017 308.208L28.9382 279.117L19.2386 285.862Z" fill="#191919"/>
<path d="M27.0196 303.466C21.8551 302.023 17.0437 297.764 14.519 293.045C14.1325 294.901 14.1215 296.817 14.4865 298.677C14.8516 300.538 15.5854 302.307 16.6447 303.88L18.141 306.182L19.7909 308.868C23.6738 315.168 31.432 317.478 37.2256 314.071L47.2015 308.208L42.5973 300.88C37.8856 302.867 32.0152 304.862 27.0196 303.466Z" fill="black"/>
<path d="M88.8766 252.098C88.707 252.097 88.5424 252.041 88.4085 251.937C88.2614 251.809 88.1685 251.63 88.1486 251.436C88.1286 251.242 88.1831 251.048 88.3011 250.893L102.382 233.504C102.519 233.407 102.683 233.356 102.851 233.361C103.019 233.366 103.18 233.426 103.311 233.531C103.441 233.636 103.534 233.782 103.574 233.944C103.614 234.107 103.6 234.279 103.533 234.433L89.4521 251.822C89.3816 251.906 89.2938 251.975 89.1944 252.022C89.0951 252.07 88.9867 252.096 88.8766 252.098Z" fill="#010101"/>
<path d="M117.493 271.351H117.409L95.2468 268.282C95.1306 268.295 95.0129 268.282 94.9026 268.243C94.7923 268.204 94.6923 268.141 94.6104 268.057C94.5284 267.974 94.4666 267.873 94.4298 267.762C94.3929 267.651 94.3819 267.533 94.3976 267.417C94.4133 267.301 94.4553 267.19 94.5203 267.093C94.5854 266.995 94.6719 266.914 94.7731 266.856C94.8742 266.797 94.9875 266.762 95.1042 266.754C95.2209 266.746 95.3379 266.764 95.4463 266.808L117.608 269.878C117.765 269.934 117.9 270.04 117.992 270.18C118.083 270.32 118.127 270.486 118.115 270.652C118.104 270.819 118.039 270.978 117.929 271.104C117.82 271.23 117.672 271.317 117.508 271.351H117.493Z" fill="#010101"/>
<path d="M95.845 258.743C95.687 258.725 95.5385 258.659 95.4199 258.553C95.3014 258.447 95.2187 258.307 95.1833 258.151C95.1479 257.996 95.1616 257.834 95.2224 257.687C95.2832 257.54 95.3881 257.416 95.5227 257.331L115.728 247.716C115.817 247.639 115.923 247.583 116.037 247.553C116.152 247.523 116.271 247.52 116.387 247.544C116.503 247.569 116.611 247.619 116.704 247.692C116.797 247.765 116.872 247.859 116.923 247.965C116.974 248.072 117 248.189 116.998 248.307C116.996 248.425 116.967 248.542 116.913 248.647C116.859 248.752 116.781 248.843 116.686 248.913C116.591 248.983 116.481 249.031 116.365 249.051L96.1596 258.666C96.0628 258.718 95.9546 258.744 95.845 258.743Z" fill="#010101"/>
<path d="M67.1754 225.255C67.3879 225.035 67.6612 224.884 67.9603 224.82C68.2594 224.757 68.5707 224.784 68.8542 224.899C69.1376 225.013 69.3804 225.21 69.5514 225.464C69.7223 225.717 69.8136 226.016 69.8136 226.322C69.8136 226.627 69.7223 226.926 69.5514 227.18C69.3804 227.433 69.1376 227.63 68.8542 227.744C68.5707 227.859 68.2594 227.886 67.9603 227.823C67.6612 227.759 67.3879 227.608 67.1754 227.388C66.8988 227.102 66.7441 226.72 66.7441 226.322C66.7441 225.924 66.8988 225.541 67.1754 225.255Z" fill="#FFAF00"/>
<path d="M50.4937 208.572C50.7063 208.352 50.9796 208.201 51.2787 208.138C51.5778 208.074 51.889 208.102 52.1725 208.216C52.456 208.331 52.6988 208.527 52.8697 208.781C53.0407 209.034 53.132 209.333 53.132 209.639C53.132 209.945 53.0407 210.244 52.8697 210.497C52.6988 210.751 52.456 210.947 52.1725 211.062C51.889 211.176 51.5778 211.204 51.2787 211.14C50.9796 211.077 50.7063 210.925 50.4937 210.706C50.2171 210.419 50.0625 210.037 50.0625 209.639C50.0625 209.241 50.2171 208.859 50.4937 208.572Z" fill="#FFAF00"/>
<path d="M33.8102 191.889C34.0227 191.67 34.296 191.518 34.5951 191.455C34.8942 191.391 35.2054 191.419 35.4889 191.533C35.7724 191.648 36.0152 191.845 36.1861 192.098C36.3571 192.352 36.4484 192.65 36.4484 192.956C36.4484 193.262 36.3571 193.561 36.1861 193.814C36.0152 194.068 35.7724 194.264 35.4889 194.379C35.2054 194.494 34.8942 194.521 34.5951 194.457C34.296 194.394 34.0227 194.243 33.8102 194.023C33.5335 193.737 33.3789 193.354 33.3789 192.956C33.3789 192.558 33.5335 192.176 33.8102 191.889Z" fill="#FFAF00"/>
<path d="M18.1876 177.778C19.0183 177.778 19.6917 177.104 19.6917 176.274C19.6917 175.443 19.0183 174.77 18.1876 174.77C17.357 174.77 16.6836 175.443 16.6836 176.274C16.6836 177.104 17.357 177.778 18.1876 177.778Z" fill="#FFAF00"/>
<path d="M0.437109 158.524C0.649615 158.304 0.922945 158.153 1.22205 158.09C1.52116 158.026 1.8324 158.053 2.11587 158.168C2.39934 158.283 2.64212 158.479 2.81307 158.733C2.98402 158.986 3.07536 159.285 3.07536 159.591C3.07536 159.897 2.98402 160.195 2.81307 160.449C2.64212 160.702 2.39934 160.899 2.11587 161.014C1.8324 161.128 1.52116 161.156 1.22205 161.092C0.922945 161.029 0.649615 160.877 0.437109 160.658C0.160486 160.371 0.00585937 159.989 0.00585938 159.591C0.00585938 159.193 0.160486 158.81 0.437109 158.524Z" fill="#FFAF00"/>
<path d="M82.109 210.353C82.3211 210.132 82.5944 209.979 82.8938 209.915C83.1931 209.851 83.5049 209.877 83.789 209.992C84.0731 210.106 84.3165 210.302 84.4879 210.556C84.6594 210.81 84.751 211.109 84.751 211.415C84.751 211.722 84.6594 212.021 84.4879 212.275C84.3165 212.528 84.0731 212.725 83.789 212.839C83.5049 212.953 83.1931 212.98 82.8938 212.916C82.5944 212.852 82.3211 212.699 82.109 212.478C81.9687 212.339 81.8572 212.174 81.7812 211.991C81.7052 211.809 81.666 211.613 81.666 211.415C81.666 211.218 81.7052 211.022 81.7812 210.84C81.8572 210.657 81.9687 210.492 82.109 210.353Z" fill="#FFAF00"/>
<path d="M65.4039 193.662C65.6164 193.442 65.8897 193.291 66.1888 193.228C66.4879 193.164 66.7992 193.191 67.0827 193.306C67.3661 193.421 67.6089 193.617 67.7799 193.871C67.9508 194.124 68.0422 194.423 68.0422 194.729C68.0422 195.035 67.9508 195.333 67.7799 195.587C67.6089 195.84 67.3661 196.037 67.0827 196.152C66.7992 196.266 66.4879 196.294 66.1888 196.23C65.8897 196.167 65.6164 196.015 65.4039 195.795C65.1273 195.509 64.9727 195.127 64.9727 194.729C64.9727 194.331 65.1273 193.948 65.4039 193.662Z" fill="#FFAF00"/>
<path d="M48.7125 176.98C48.925 176.76 49.1983 176.608 49.4974 176.545C49.7965 176.481 50.1078 176.509 50.3913 176.623C50.6747 176.738 50.9175 176.935 51.0885 177.188C51.2594 177.442 51.3507 177.74 51.3507 178.046C51.3507 178.352 51.2594 178.651 51.0885 178.904C50.9175 179.158 50.6747 179.354 50.3913 179.469C50.1078 179.584 49.7965 179.611 49.4974 179.548C49.1983 179.484 48.925 179.333 48.7125 179.113C48.4359 178.827 48.2813 178.444 48.2812 178.046C48.2812 177.648 48.4359 177.266 48.7125 176.98Z" fill="#FFAF00"/>
<path d="M33.0959 162.867C33.9265 162.867 34.5999 162.194 34.5999 161.363C34.5999 160.533 33.9265 159.859 33.0959 159.859C32.2652 159.859 31.5918 160.533 31.5918 161.363C31.5918 162.194 32.2652 162.867 33.0959 162.867Z" fill="#FFAF00"/>
<path d="M16.4142 146.185C17.2449 146.185 17.9183 145.511 17.9183 144.681C17.9183 143.85 17.2449 143.177 16.4142 143.177C15.5835 143.177 14.9102 143.85 14.9102 144.681C14.9102 145.511 15.5835 146.185 16.4142 146.185Z" fill="#FFAF00"/>
<path d="M98.0548 198.013C98.8855 198.013 99.5589 197.34 99.5589 196.509C99.5589 195.679 98.8855 195.005 98.0548 195.005C97.2242 195.005 96.5508 195.679 96.5508 196.509C96.5508 197.34 97.2242 198.013 98.0548 198.013Z" fill="#FFAF00"/>
<path d="M81.3732 181.323C82.2039 181.323 82.8772 180.65 82.8772 179.819C82.8772 178.988 82.2039 178.315 81.3732 178.315C80.5425 178.315 79.8691 178.988 79.8691 179.819C79.8691 180.65 80.5425 181.323 81.3732 181.323Z" fill="#FFAF00"/>
<path d="M63.6229 162.077C63.8349 161.856 64.1082 161.704 64.4076 161.639C64.707 161.575 65.0188 161.602 65.3029 161.716C65.5869 161.83 65.8304 162.027 66.0018 162.281C66.1732 162.535 66.2648 162.834 66.2648 163.14C66.2648 163.446 66.1732 163.745 66.0018 163.999C65.8304 164.253 65.5869 164.45 65.3029 164.564C65.0188 164.678 64.707 164.705 64.4076 164.64C64.1082 164.576 63.8349 164.424 63.6229 164.203C63.3485 163.917 63.1953 163.536 63.1953 163.14C63.1953 162.744 63.3485 162.363 63.6229 162.077Z" fill="#FFAF00"/>
<path d="M46.9393 145.394C47.1513 145.173 47.4246 145.021 47.724 144.957C48.0234 144.892 48.3352 144.919 48.6193 145.033C48.9034 145.148 49.1468 145.344 49.3182 145.598C49.4896 145.852 49.5812 146.151 49.5812 146.457C49.5812 146.763 49.4896 147.063 49.3182 147.316C49.1468 147.57 48.9034 147.767 48.6193 147.881C48.3352 147.995 48.0234 148.022 47.724 147.958C47.4246 147.893 47.1513 147.741 46.9393 147.52C46.6649 147.234 46.5117 146.853 46.5117 146.457C46.5117 146.061 46.6649 145.68 46.9393 145.394Z" fill="#FFAF00"/>
<path d="M30.2574 128.704C30.4699 128.484 30.7433 128.333 31.0424 128.27C31.3415 128.206 31.6527 128.233 31.9362 128.348C32.2197 128.463 32.4624 128.659 32.6334 128.913C32.8043 129.166 32.8957 129.465 32.8957 129.771C32.8957 130.077 32.8043 130.375 32.6334 130.629C32.4624 130.882 32.2197 131.079 31.9362 131.194C31.6527 131.308 31.3415 131.336 31.0424 131.272C30.7433 131.209 30.4699 131.057 30.2574 130.837C29.9808 130.551 29.8262 130.169 29.8262 129.771C29.8262 129.373 29.9808 128.99 30.2574 128.704Z" fill="#FFAF00"/>
<path d="M111.898 180.532C112.111 180.312 112.384 180.161 112.683 180.098C112.982 180.034 113.293 180.061 113.577 180.176C113.86 180.291 114.103 180.487 114.274 180.741C114.445 180.994 114.536 181.293 114.536 181.599C114.536 181.905 114.445 182.204 114.274 182.457C114.103 182.711 113.86 182.907 113.577 183.022C113.293 183.136 112.982 183.164 112.683 183.1C112.384 183.037 112.111 182.885 111.898 182.666C111.621 182.379 111.467 181.997 111.467 181.599C111.467 181.201 111.621 180.818 111.898 180.532Z" fill="#FFAF00"/>
<path d="M95.2166 163.85C95.4287 163.629 95.702 163.477 96.0013 163.412C96.3007 163.348 96.6125 163.375 96.8966 163.489C97.1807 163.603 97.4241 163.8 97.5955 164.054C97.767 164.307 97.8586 164.606 97.8586 164.913C97.8586 165.219 97.767 165.518 97.5955 165.772C97.4241 166.026 97.1807 166.222 96.8966 166.337C96.6125 166.451 96.3007 166.478 96.0013 166.413C95.702 166.349 95.4287 166.196 95.2166 165.975C94.9423 165.69 94.7891 165.309 94.7891 164.913C94.7891 164.517 94.9423 164.136 95.2166 163.85Z" fill="#FFAF00"/>
<path d="M78.533 147.167C78.7451 146.946 79.0184 146.794 79.3178 146.729C79.6171 146.665 79.9289 146.692 80.213 146.806C80.4971 146.92 80.7405 147.117 80.9119 147.371C81.0834 147.624 81.175 147.924 81.175 148.23C81.175 148.536 81.0834 148.835 80.9119 149.089C80.7405 149.343 80.4971 149.539 80.213 149.654C79.9289 149.768 79.6171 149.795 79.3178 149.73C79.0184 149.666 78.7451 149.514 78.533 149.293C78.2587 149.007 78.1055 148.626 78.1055 148.23C78.1055 147.834 78.2587 147.453 78.533 147.167Z" fill="#FFAF00"/>
<path d="M62.9162 133.055C63.7468 133.055 64.4202 132.382 64.4202 131.551C64.4202 130.72 63.7468 130.047 62.9162 130.047C62.0855 130.047 61.4121 130.72 61.4121 131.551C61.4121 132.382 62.0855 133.055 62.9162 133.055Z" fill="#FFAF00"/>
<path d="M45.1676 113.802C45.3797 113.581 45.653 113.428 45.9524 113.364C46.2517 113.3 46.5635 113.326 46.8476 113.44C47.1317 113.555 47.3751 113.751 47.5465 114.005C47.718 114.259 47.8096 114.558 47.8096 114.864C47.8096 115.171 47.718 115.47 47.5465 115.724C47.3751 115.977 47.1317 116.174 46.8476 116.288C46.5635 116.402 46.2517 116.429 45.9524 116.365C45.653 116.3 45.3797 116.148 45.1676 115.927C45.0273 115.788 44.9158 115.622 44.8398 115.44C44.7638 115.258 44.7246 115.062 44.7246 114.864C44.7246 114.667 44.7638 114.471 44.8398 114.289C44.9158 114.106 45.0273 113.941 45.1676 113.802Z" fill="#FFAF00"/>
<path d="M126.808 165.622C127.021 165.403 127.294 165.251 127.593 165.188C127.892 165.124 128.203 165.152 128.487 165.266C128.77 165.381 129.013 165.577 129.184 165.831C129.355 166.084 129.446 166.383 129.446 166.689C129.446 166.995 129.355 167.294 129.184 167.547C129.013 167.801 128.77 167.997 128.487 168.112C128.203 168.227 127.892 168.254 127.593 168.19C127.294 168.127 127.021 167.976 126.808 167.756C126.532 167.47 126.377 167.087 126.377 166.689C126.377 166.291 126.532 165.909 126.808 165.622Z" fill="#FFAF00"/>
<path d="M110.127 148.94C110.339 148.72 110.612 148.569 110.912 148.505C111.211 148.442 111.522 148.469 111.805 148.584C112.089 148.698 112.332 148.895 112.503 149.148C112.674 149.402 112.765 149.701 112.765 150.006C112.765 150.312 112.674 150.611 112.503 150.864C112.332 151.118 112.089 151.315 111.805 151.429C111.522 151.544 111.211 151.571 110.912 151.508C110.612 151.444 110.339 151.293 110.127 151.073C109.985 150.934 109.873 150.768 109.796 150.585C109.719 150.402 109.68 150.205 109.68 150.006C109.68 149.808 109.719 149.611 109.796 149.428C109.873 149.245 109.985 149.079 110.127 148.94Z" fill="#FFAF00"/>
<path d="M93.443 132.257C93.6555 132.037 93.9288 131.886 94.2279 131.822C94.527 131.759 94.8383 131.786 95.1218 131.901C95.4052 132.015 95.648 132.212 95.819 132.466C95.9899 132.719 96.0812 133.018 96.0812 133.324C96.0812 133.629 95.9899 133.928 95.819 134.182C95.648 134.435 95.4052 134.632 95.1218 134.746C94.8383 134.861 94.527 134.888 94.2279 134.825C93.9288 134.761 93.6555 134.61 93.443 134.39C93.3015 134.251 93.1891 134.085 93.1123 133.902C93.0356 133.719 92.9961 133.522 92.9961 133.324C92.9961 133.125 93.0356 132.928 93.1123 132.745C93.1891 132.562 93.3015 132.396 93.443 132.257Z" fill="#FFAF00"/>
<path d="M77.8185 118.145C78.6492 118.145 79.3226 117.472 79.3226 116.641C79.3226 115.81 78.6492 115.137 77.8185 115.137C76.9878 115.137 76.3145 115.81 76.3145 116.641C76.3145 117.472 76.9878 118.145 77.8185 118.145Z" fill="#FFAF00"/>
<path d="M61.1369 101.462C61.9675 101.462 62.6409 100.789 62.6409 99.9581C62.6409 99.1275 61.9675 98.4541 61.1369 98.4541C60.3062 98.4541 59.6328 99.1275 59.6328 99.9581C59.6328 100.789 60.3062 101.462 61.1369 101.462Z" fill="#FFAF00"/>
<path d="M142.785 153.283C143.616 153.283 144.289 152.61 144.289 151.779C144.289 150.948 143.616 150.275 142.785 150.275C141.955 150.275 141.281 150.948 141.281 151.779C141.281 152.61 141.955 153.283 142.785 153.283Z" fill="#FFAF00"/>
<path d="M126.096 136.6C126.927 136.6 127.6 135.927 127.6 135.096C127.6 134.266 126.927 133.592 126.096 133.592C125.265 133.592 124.592 134.266 124.592 135.096C124.592 135.927 125.265 136.6 126.096 136.6Z" fill="#FFAF00"/>
<path d="M108.353 117.347C108.566 117.127 108.839 116.976 109.138 116.912C109.437 116.849 109.748 116.876 110.032 116.991C110.315 117.105 110.558 117.302 110.729 117.556C110.9 117.809 110.991 118.108 110.991 118.414C110.991 118.719 110.9 119.018 110.729 119.272C110.558 119.525 110.315 119.722 110.032 119.837C109.748 119.951 109.437 119.978 109.138 119.915C108.839 119.852 108.566 119.7 108.353 119.48C108.077 119.194 107.922 118.812 107.922 118.414C107.922 118.016 108.077 117.633 108.353 117.347Z" fill="#FFAF00"/>
<path d="M91.6695 100.664C91.882 100.444 92.1554 100.293 92.4545 100.229C92.7536 100.166 93.0648 100.193 93.3483 100.308C93.6318 100.423 93.8745 100.619 94.0455 100.873C94.2164 101.126 94.3078 101.425 94.3078 101.731C94.3078 102.037 94.2164 102.335 94.0455 102.589C93.8745 102.842 93.6318 103.039 93.3483 103.154C93.0648 103.268 92.7536 103.296 92.4545 103.232C92.1554 103.169 91.882 103.017 91.6695 102.797C91.3929 102.511 91.2383 102.129 91.2383 101.731C91.2383 101.333 91.3929 100.95 91.6695 100.664Z" fill="#FFAF00"/>
<path d="M74.9801 83.9815C75.1926 83.7617 75.4659 83.6103 75.765 83.5469C76.0641 83.4834 76.3754 83.5107 76.6588 83.6253C76.9423 83.7399 77.1851 83.9366 77.356 84.1901C77.527 84.4436 77.6183 84.7424 77.6183 85.0482C77.6183 85.3539 77.527 85.6527 77.356 85.9062C77.1851 86.1598 76.9423 86.3564 76.6588 86.471C76.3754 86.5856 76.0641 86.613 75.765 86.5495C75.4659 86.486 75.1926 86.3347 74.9801 86.1148C74.7035 85.8286 74.5488 85.4462 74.5488 85.0482C74.5488 84.6502 74.7035 84.2677 74.9801 83.9815Z" fill="#FFAF00"/>
<path d="M266.586 281.772L304.448 319.627" stroke="#010101" stroke-width="1.26617" stroke-linecap="round" stroke-linejoin="round"/>
<path d="M258.951 257.346L297.366 295.761" stroke="#FFAF00" stroke-width="1.26617" stroke-linecap="round" stroke-linejoin="round"/>
<path d="M238.262 278.204L276.676 316.626" stroke="#FFAF00" stroke-width="1.26617" stroke-linecap="round" stroke-linejoin="round"/>
<path d="M262.742 238.692L282.717 258.667" stroke="#010101" stroke-width="1.26617" stroke-linecap="round" stroke-linejoin="round"/>
<path d="M221.004 271.313L231.394 281.703" stroke="#FFAF00" stroke-width="1.26617" stroke-linecap="round" stroke-linejoin="round"/>
<path d="M290.941 260.8L317.285 287.144" stroke="#FFAF00" stroke-width="1.26617" stroke-linecap="round" stroke-linejoin="round"/>
<path d="M238.262 300.696L244.646 307.08" stroke="#010101" stroke-width="1.26617" stroke-linecap="round" stroke-linejoin="round"/>
<path d="M304.447 247.348L308.852 251.753" stroke="#010101" stroke-width="1.26617" stroke-linecap="round" stroke-linejoin="round"/>
<path d="M101.54 40.1414L65.3965 0.636963" stroke="#010101" stroke-width="1.26617" stroke-linecap="round" stroke-linejoin="round"/>
<path d="M108.085 64.8739L71.4121 24.7939" stroke="#FFAF00" stroke-width="1.26617" stroke-linecap="round" stroke-linejoin="round"/>
<path d="M129.679 44.9528L93.0059 4.8728" stroke="#FFAF00" stroke-width="1.26617" stroke-linecap="round" stroke-linejoin="round"/>
<path d="M103.473 83.3522L84.3965 62.5027" stroke="#010101" stroke-width="1.26617" stroke-linecap="round" stroke-linejoin="round"/>
<path d="M146.614 52.6111L136.691 41.7681" stroke="#FFAF00" stroke-width="1.26617" stroke-linecap="round" stroke-linejoin="round"/>
<path d="M76.2777 60.0086L51.1309 32.5212" stroke="#FFAF00" stroke-width="1.26617" stroke-linecap="round" stroke-linejoin="round"/>
<path d="M130.677 22.484L124.584 15.8232" stroke="#010101" stroke-width="1.26617" stroke-linecap="round" stroke-linejoin="round"/>
<path d="M62.1876 72.8391L57.9824 68.2502" stroke="#010101" stroke-width="1.26617" stroke-linecap="round" stroke-linejoin="round"/>
<path d="M342.824 95.6992C350.113 95.6992 356.023 89.7899 356.023 82.5004C356.023 75.2108 350.113 69.3015 342.824 69.3015C335.534 69.3015 329.625 75.2108 329.625 82.5004C329.625 89.7899 335.534 95.6992 342.824 95.6992Z" fill="#FFAF00"/>
<path d="M338.082 90.9568C345.371 90.9568 351.28 85.0474 351.28 77.7579C351.28 70.4684 345.371 64.5591 338.082 64.5591C330.792 64.5591 324.883 70.4684 324.883 77.7579C324.883 85.0474 330.792 90.9568 338.082 90.9568Z" stroke="#010101" stroke-width="1.53475" stroke-linecap="round" stroke-linejoin="round"/>
<path d="M170.257 326.779C177.547 326.779 183.456 320.869 183.456 313.58C183.456 306.29 177.547 300.381 170.257 300.381C162.968 300.381 157.059 306.29 157.059 313.58C157.059 320.869 162.968 326.779 170.257 326.779Z" fill="#FFAF00"/>
<path d="M165.515 322.029C172.805 322.029 178.714 316.119 178.714 308.83C178.714 301.54 172.805 295.631 165.515 295.631C158.226 295.631 152.316 301.54 152.316 308.83C152.316 316.119 158.226 322.029 165.515 322.029Z" stroke="#010101" stroke-width="1.53475" stroke-linecap="round" stroke-linejoin="round"/>
<path d="M333.608 305.975C332.749 305.976 331.906 305.742 331.169 305.3C330.432 304.858 329.83 304.224 329.426 303.466C327.453 299.738 327.041 295.38 328.282 291.349C329.522 287.318 332.313 283.945 336.041 281.972C339.768 279.999 344.127 279.587 348.158 280.827C352.189 282.068 355.562 284.859 357.535 288.586C358.12 289.698 358.24 290.996 357.868 292.195C357.683 292.789 357.384 293.341 356.986 293.819C356.589 294.298 356.101 294.693 355.551 294.983C354.44 295.568 353.142 295.687 351.942 295.315C350.743 294.943 349.74 294.11 349.155 292.999C348.758 292.25 348.217 291.586 347.564 291.046C346.91 290.505 346.157 290.099 345.346 289.85C344.535 289.601 343.684 289.514 342.84 289.594C341.995 289.674 341.175 289.92 340.426 290.317C339.677 290.714 339.013 291.255 338.473 291.908C337.933 292.562 337.526 293.315 337.277 294.126C337.028 294.936 336.941 295.788 337.021 296.632C337.101 297.476 337.347 298.297 337.744 299.046C338.12 299.764 338.304 300.567 338.279 301.377C338.255 302.187 338.022 302.977 337.603 303.671C337.184 304.365 336.594 304.939 335.889 305.339C335.184 305.738 334.388 305.95 333.577 305.952L333.608 305.975Z" fill="#EF470C"/>
<path d="M48.0377 159.974C46.9002 159.971 45.7891 159.632 44.8443 158.998C43.8995 158.365 43.1633 157.466 42.7284 156.415C42.2935 155.364 42.1794 154.207 42.4005 153.092C42.6215 151.976 43.1679 150.95 43.9706 150.144C45.4215 148.664 46.2293 146.671 46.2185 144.598C46.2076 142.525 45.3791 140.54 43.9129 139.075C42.4467 137.61 40.4614 136.783 38.3886 136.774C36.3158 136.764 34.3231 137.573 32.8437 139.025C32.3091 139.56 31.6744 139.984 30.9759 140.273C30.2775 140.562 29.5288 140.711 28.7728 140.711C28.0167 140.711 27.2681 140.562 26.5696 140.273C25.8711 139.984 25.2365 139.56 24.7019 139.025C24.1673 138.491 23.7432 137.856 23.4539 137.157C23.1645 136.459 23.0156 135.71 23.0156 134.954C23.0156 134.198 23.1645 133.45 23.4539 132.751C23.7432 132.053 24.1673 131.418 24.7019 130.883C28.3357 127.249 33.2643 125.208 38.4033 125.208C43.5424 125.208 48.4709 127.249 52.1048 130.883C55.7386 134.517 57.7801 139.446 57.7801 144.585C57.7801 149.724 55.7386 154.652 52.1048 158.286C51.5724 158.823 50.9387 159.248 50.2406 159.538C49.5424 159.828 48.7936 159.976 48.0377 159.974Z" fill="#010101"/>
<path d="M356.061 193.187C354.718 193.187 353.405 192.788 352.288 192.042C351.171 191.296 350.301 190.235 349.786 188.994C349.272 187.753 349.138 186.388 349.4 185.07C349.662 183.753 350.309 182.543 351.259 181.593C352.208 180.643 353.419 179.997 354.736 179.734C356.053 179.472 357.419 179.607 358.66 180.121C359.901 180.635 360.961 181.505 361.708 182.622C362.454 183.739 362.852 185.052 362.852 186.395C362.85 188.196 362.134 189.922 360.861 191.195C359.588 192.468 357.861 193.185 356.061 193.187ZM356.061 183.978C355.581 183.978 355.112 184.12 354.714 184.387C354.315 184.653 354.004 185.032 353.82 185.475C353.637 185.918 353.589 186.406 353.682 186.876C353.776 187.346 354.007 187.778 354.346 188.118C354.685 188.457 355.117 188.688 355.588 188.781C356.058 188.875 356.546 188.827 356.989 188.643C357.432 188.46 357.811 188.149 358.077 187.75C358.343 187.351 358.486 186.883 358.486 186.403C358.486 185.759 358.23 185.142 357.776 184.686C357.321 184.23 356.705 183.972 356.061 183.97V183.978Z" fill="#010101"/>
<path d="M23.0216 218.702C21.6781 218.703 20.3643 218.306 19.2465 217.561C18.1287 216.816 17.257 215.755 16.7418 214.515C16.2266 213.274 16.091 211.908 16.3522 210.59C16.6134 209.272 17.2596 208.062 18.2091 207.111C19.1585 206.16 20.3686 205.513 21.6862 205.25C23.0038 204.988 24.3697 205.122 25.611 205.635C26.8524 206.149 27.9135 207.02 28.6601 208.137C29.4067 209.254 29.8052 210.567 29.8052 211.91C29.8032 213.71 29.0881 215.435 27.8165 216.708C26.545 217.981 24.8208 218.698 23.0216 218.702ZM23.0216 209.493C22.542 209.493 22.0732 209.635 21.6744 209.902C21.2756 210.168 20.9648 210.547 20.7813 210.99C20.5977 211.433 20.5497 211.921 20.6433 212.391C20.7369 212.862 20.9678 213.294 21.3069 213.633C21.6461 213.972 22.0781 214.203 22.5485 214.296C23.0189 214.39 23.5065 214.342 23.9496 214.158C24.3927 213.975 24.7714 213.664 25.0378 213.265C25.3043 212.866 25.4465 212.398 25.4465 211.918C25.4465 211.275 25.191 210.658 24.7363 210.203C24.2815 209.749 23.6647 209.493 23.0216 209.493Z" fill="#FFAF00"/>
<path d="M251.699 147.336C251.911 147.116 252.185 146.965 252.484 146.901C252.783 146.838 253.094 146.865 253.378 146.98C253.661 147.094 253.904 147.291 254.075 147.544C254.246 147.798 254.337 148.097 254.337 148.402C254.337 148.708 254.246 149.007 254.075 149.26C253.904 149.514 253.661 149.711 253.378 149.825C253.094 149.94 252.783 149.967 252.484 149.904C252.185 149.84 251.911 149.689 251.699 149.469C251.422 149.183 251.268 148.8 251.268 148.402C251.268 148.004 251.422 147.622 251.699 147.336Z" fill="#FF5E1E"/>
<path d="M234.978 130.645C235.191 130.425 235.464 130.274 235.763 130.211C236.062 130.147 236.373 130.175 236.657 130.289C236.94 130.404 237.183 130.6 237.354 130.854C237.525 131.107 237.616 131.406 237.616 131.712C237.616 132.018 237.525 132.317 237.354 132.57C237.183 132.824 236.94 133.02 236.657 133.135C236.373 133.249 236.062 133.277 235.763 133.213C235.464 133.15 235.191 132.998 234.978 132.779C234.702 132.492 234.547 132.11 234.547 131.712C234.547 131.314 234.702 130.932 234.978 130.645Z" fill="#FF5E1E"/>
<path d="M218.295 113.963C218.507 113.743 218.78 113.592 219.079 113.528C219.379 113.465 219.69 113.492 219.973 113.607C220.257 113.721 220.5 113.918 220.67 114.171C220.841 114.425 220.933 114.724 220.933 115.029C220.933 115.335 220.841 115.634 220.67 115.887C220.5 116.141 220.257 116.338 219.973 116.452C219.69 116.567 219.379 116.594 219.079 116.531C218.78 116.467 218.507 116.316 218.295 116.096C218.018 115.81 217.863 115.427 217.863 115.029C217.863 114.631 218.018 114.249 218.295 113.963Z" fill="#FF5E1E"/>
<path d="M202.678 99.8506C203.509 99.8506 204.182 99.1773 204.182 98.3466C204.182 97.5159 203.509 96.8425 202.678 96.8425C201.847 96.8425 201.174 97.5159 201.174 98.3466C201.174 99.1773 201.847 99.8506 202.678 99.8506Z" fill="#FF5E1E"/>
<path d="M184.937 80.5742C185.149 80.3533 185.423 80.2009 185.722 80.1366C186.021 80.0722 186.333 80.0989 186.617 80.2132C186.901 80.3275 187.145 80.5241 187.316 80.7779C187.488 81.0316 187.579 81.3308 187.579 81.637C187.579 81.9433 187.488 82.2425 187.316 82.4962C187.145 82.75 186.901 82.9466 186.617 83.0609C186.333 83.1752 186.021 83.2019 185.722 83.1375C185.423 83.0732 185.149 82.9208 184.937 82.6999C184.663 82.414 184.51 82.0332 184.51 81.637C184.51 81.2409 184.663 80.86 184.937 80.5742Z" fill="#FF5E1E"/>
<path d="M266.57 132.418C266.782 132.198 267.056 132.047 267.355 131.983C267.654 131.92 267.965 131.947 268.249 132.062C268.532 132.176 268.775 132.373 268.946 132.627C269.117 132.88 269.208 133.179 269.208 133.485C269.208 133.79 269.117 134.089 268.946 134.343C268.775 134.596 268.532 134.793 268.249 134.908C267.965 135.022 267.654 135.049 267.355 134.986C267.056 134.923 266.782 134.771 266.57 134.551C266.293 134.265 266.139 133.883 266.139 133.485C266.139 133.087 266.293 132.704 266.57 132.418Z" fill="#FF5E1E"/>
<path d="M249.888 115.735C250.101 115.516 250.374 115.364 250.673 115.301C250.972 115.237 251.284 115.265 251.567 115.379C251.851 115.494 252.093 115.691 252.264 115.944C252.435 116.198 252.527 116.496 252.527 116.802C252.527 117.108 252.435 117.407 252.264 117.66C252.093 117.914 251.851 118.11 251.567 118.225C251.284 118.34 250.972 118.367 250.673 118.303C250.374 118.24 250.101 118.089 249.888 117.869C249.612 117.583 249.457 117.2 249.457 116.802C249.457 116.404 249.612 116.022 249.888 115.735Z" fill="#FF5E1E"/>
<path d="M233.205 99.0526C233.417 98.8327 233.691 98.6814 233.99 98.6179C234.289 98.5544 234.6 98.5818 234.883 98.6964C235.167 98.811 235.41 99.0076 235.581 99.2612C235.752 99.5147 235.843 99.8135 235.843 100.119C235.843 100.425 235.752 100.724 235.581 100.977C235.41 101.231 235.167 101.427 234.883 101.542C234.6 101.657 234.289 101.684 233.99 101.621C233.691 101.557 233.417 101.406 233.205 101.186C232.928 100.9 232.773 100.517 232.773 100.119C232.773 99.7212 232.928 99.3388 233.205 99.0526Z" fill="#FF5E1E"/>
<path d="M217.59 84.9407C218.421 84.9407 219.094 84.2673 219.094 83.4367C219.094 82.606 218.421 81.9326 217.59 81.9326C216.759 81.9326 216.086 82.606 216.086 83.4367C216.086 84.2673 216.759 84.9407 217.59 84.9407Z" fill="#FF5E1E"/>
<path d="M200.906 68.2579C201.737 68.2579 202.41 67.5845 202.41 66.7538C202.41 65.9231 201.737 65.2498 200.906 65.2498C200.076 65.2498 199.402 65.9231 199.402 66.7538C199.402 67.5845 200.076 68.2579 200.906 68.2579Z" fill="#FF5E1E"/>
<path d="M282.547 120.079C283.378 120.079 284.051 119.405 284.051 118.575C284.051 117.744 283.378 117.071 282.547 117.071C281.716 117.071 281.043 117.744 281.043 118.575C281.043 119.405 281.716 120.079 282.547 120.079Z" fill="#FF5E1E"/>
<path d="M265.865 103.396C266.696 103.396 267.369 102.723 267.369 101.892C267.369 101.061 266.696 100.388 265.865 100.388C265.035 100.388 264.361 101.061 264.361 101.892C264.361 102.723 265.035 103.396 265.865 103.396Z" fill="#FF5E1E"/>
<path d="M248.115 84.1427C248.327 83.9228 248.601 83.7715 248.9 83.708C249.199 83.6445 249.51 83.6718 249.794 83.7865C250.077 83.9011 250.32 84.0977 250.491 84.3512C250.662 84.6048 250.753 84.9035 250.753 85.2093C250.753 85.5151 250.662 85.8139 250.491 86.0674C250.32 86.3209 250.077 86.5176 249.794 86.6322C249.51 86.7468 249.199 86.7741 248.9 86.7106C248.601 86.6472 248.327 86.4958 248.115 86.276C247.838 85.9898 247.684 85.6073 247.684 85.2093C247.684 84.8113 247.838 84.4288 248.115 84.1427Z" fill="#FF5E1E"/>
<path d="M231.433 67.4598C231.646 67.24 231.919 67.0886 232.218 67.0251C232.517 66.9617 232.829 66.989 233.112 67.1036C233.395 67.2182 233.638 67.4149 233.809 67.6684C233.98 67.9219 234.071 68.2207 234.071 68.5264C234.071 68.8322 233.98 69.131 233.809 69.3845C233.638 69.638 233.395 69.8347 233.112 69.9493C232.829 70.0639 232.517 70.0912 232.218 70.0278C231.919 69.9643 231.646 69.8129 231.433 69.5931C231.157 69.3069 231.002 68.9245 231.002 68.5264C231.002 68.1284 231.157 67.746 231.433 67.4598Z" fill="#FF5E1E"/>
<path d="M214.75 50.7772C214.962 50.5573 215.235 50.406 215.535 50.3425C215.834 50.279 216.145 50.3064 216.428 50.421C216.712 50.5356 216.955 50.7323 217.126 50.9858C217.297 51.2393 217.388 51.5381 217.388 51.8438C217.388 52.1496 217.297 52.4484 217.126 52.7019C216.955 52.9554 216.712 53.1521 216.428 53.2667C216.145 53.3813 215.834 53.4086 215.535 53.3452C215.235 53.2817 214.962 53.1303 214.75 52.9105C214.473 52.6243 214.318 52.2418 214.318 51.8438C214.318 51.4458 214.473 51.0634 214.75 50.7772Z" fill="#FF5E1E"/>
<path d="M296.39 102.605C296.602 102.385 296.876 102.232 297.175 102.168C297.474 102.103 297.786 102.13 298.07 102.244C298.354 102.359 298.598 102.555 298.769 102.809C298.941 103.063 299.032 103.362 299.032 103.668C299.032 103.975 298.941 104.274 298.769 104.527C298.598 104.781 298.354 104.978 298.07 105.092C297.786 105.206 297.474 105.233 297.175 105.169C296.876 105.104 296.602 104.952 296.39 104.731C296.25 104.592 296.138 104.426 296.062 104.244C295.986 104.062 295.947 103.866 295.947 103.668C295.947 103.471 295.986 103.275 296.062 103.093C296.138 102.91 296.25 102.745 296.39 102.605Z" fill="#FF5E1E"/>
<path d="M279.709 85.9458C279.921 85.7249 280.194 85.5725 280.493 85.5081C280.793 85.4438 281.105 85.4705 281.389 85.5848C281.673 85.6991 281.916 85.8957 282.088 86.1495C282.259 86.4032 282.351 86.7024 282.351 87.0086C282.351 87.3148 282.259 87.6141 282.088 87.8678C281.916 88.1215 281.673 88.3182 281.389 88.4325C281.105 88.5468 280.793 88.5735 280.493 88.5091C280.194 88.4448 279.921 88.2923 279.709 88.0714C279.568 87.9323 279.457 87.7668 279.381 87.5844C279.305 87.4019 279.266 87.2063 279.266 87.0086C279.266 86.811 279.305 86.6153 279.381 86.4329C279.457 86.2505 279.568 86.0849 279.709 85.9458Z" fill="#FF5E1E"/>
<path d="M263.025 69.2402C263.237 69.0193 263.51 68.8669 263.81 68.8026C264.109 68.7382 264.421 68.7649 264.705 68.8792C264.989 68.9935 265.233 69.1901 265.404 69.4439C265.575 69.6976 265.667 69.9968 265.667 70.3031C265.667 70.6093 265.575 70.9085 265.404 71.1622C265.233 71.416 264.989 71.6126 264.705 71.7269C264.421 71.8412 264.109 71.8679 263.81 71.8036C263.51 71.7392 263.237 71.5868 263.025 71.3659C262.885 71.2268 262.773 71.0612 262.697 70.8788C262.621 70.6964 262.582 70.5007 262.582 70.3031C262.582 70.1054 262.621 69.9098 262.697 69.7273C262.773 69.5449 262.885 69.3794 263.025 69.2402Z" fill="#FF5E1E"/>
<path d="M247.401 55.1204C248.231 55.1204 248.905 54.447 248.905 53.6164C248.905 52.7857 248.231 52.1123 247.401 52.1123C246.57 52.1123 245.896 52.7857 245.896 53.6164C245.896 54.447 246.57 55.1204 247.401 55.1204Z" fill="#FF5E1E"/>
<path d="M229.66 35.8748C229.872 35.6539 230.145 35.5014 230.445 35.4371C230.744 35.3728 231.056 35.3994 231.34 35.5137C231.624 35.628 231.867 35.8247 232.039 36.0784C232.21 36.3321 232.302 36.6314 232.302 36.9376C232.302 37.2438 232.21 37.543 232.039 37.7968C231.867 38.0505 231.624 38.2471 231.34 38.3614C231.056 38.4757 230.744 38.5024 230.445 38.4381C230.145 38.3737 229.872 38.2213 229.66 38.0004C229.519 37.8613 229.408 37.6957 229.332 37.5133C229.256 37.3309 229.217 37.1352 229.217 36.9376C229.217 36.7399 229.256 36.5443 229.332 36.3619C229.408 36.1794 229.519 36.0139 229.66 35.8748Z" fill="#FF5E1E"/>
<path d="M311.3 87.6954C311.513 87.4755 311.786 87.3242 312.085 87.2607C312.384 87.1973 312.696 87.2246 312.979 87.3392C313.263 87.4538 313.505 87.6505 313.676 87.904C313.847 88.1575 313.939 88.4563 313.939 88.762C313.939 89.0678 313.847 89.3666 313.676 89.6201C313.505 89.8736 313.263 90.0703 312.979 90.1849C312.696 90.2995 312.384 90.3268 312.085 90.2634C311.786 90.1999 311.513 90.0485 311.3 89.8287C311.159 89.6894 311.046 89.5234 310.97 89.3403C310.893 89.1572 310.854 88.9606 310.854 88.762C310.854 88.5635 310.893 88.3669 310.97 88.1838C311.046 88.0007 311.159 87.8346 311.3 87.6954Z" fill="#FF5E1E"/>
<path d="M294.619 71.0128C294.831 70.7929 295.105 70.6416 295.404 70.5781C295.703 70.5146 296.014 70.542 296.298 70.6566C296.581 70.7712 296.824 70.9678 296.995 71.2214C297.166 71.4749 297.257 71.7737 297.257 72.0794C297.257 72.3852 297.166 72.684 296.995 72.9375C296.824 73.191 296.581 73.3877 296.298 73.5023C296.014 73.6169 295.703 73.6442 295.404 73.5808C295.105 73.5173 294.831 73.3659 294.619 73.1461C294.477 73.0068 294.365 72.8408 294.288 72.6577C294.211 72.4745 294.172 72.278 294.172 72.0794C294.172 71.8809 294.211 71.6843 294.288 71.5012C294.365 71.3181 294.477 71.152 294.619 71.0128Z" fill="#FF5E1E"/>
<path d="M277.928 54.3301C278.14 54.1092 278.413 53.9568 278.712 53.8924C279.012 53.8281 279.323 53.8548 279.608 53.9691C279.892 54.0833 280.135 54.28 280.306 54.5337C280.478 54.7875 280.569 55.0867 280.569 55.3929C280.569 55.6991 280.478 55.9983 280.306 56.2521C280.135 56.5058 279.892 56.7025 279.608 56.8168C279.323 56.931 279.012 56.9577 278.712 56.8934C278.413 56.8291 278.14 56.6766 277.928 56.4557C277.653 56.1699 277.5 55.7891 277.5 55.3929C277.5 54.9967 277.653 54.6159 277.928 54.3301Z" fill="#FF5E1E"/>
<path d="M262.311 40.2181C263.141 40.2181 263.815 39.5447 263.815 38.714C263.815 37.8833 263.141 37.21 262.311 37.21C261.48 37.21 260.807 37.8833 260.807 38.714C260.807 39.5447 261.48 40.2181 262.311 40.2181Z" fill="#FF5E1E"/>
<path d="M245.629 23.5355C246.46 23.5355 247.133 22.8621 247.133 22.0314C247.133 21.2007 246.46 20.5273 245.629 20.5273C244.798 20.5273 244.125 21.2007 244.125 22.0314C244.125 22.8621 244.798 23.5355 245.629 23.5355Z" fill="#FF5E1E"/>
<path d="M327.27 75.3563C328.1 75.3563 328.774 74.6829 328.774 73.8522C328.774 73.0215 328.1 72.3481 327.27 72.3481C326.439 72.3481 325.766 73.0215 325.766 73.8522C325.766 74.6829 326.439 75.3563 327.27 75.3563Z" fill="#FF5E1E"/>
<path d="M310.586 58.6734C311.417 58.6734 312.09 58 312.09 57.1693C312.09 56.3387 311.417 55.6653 310.586 55.6653C309.755 55.6653 309.082 56.3387 309.082 57.1693C309.082 58 309.755 58.6734 310.586 58.6734Z" fill="#FF5E1E"/>
<path d="M292.837 39.42C293.05 39.2002 293.323 39.0488 293.622 38.9853C293.922 38.9219 294.233 38.9492 294.516 39.0638C294.8 39.1784 295.043 39.3751 295.213 39.6286C295.384 39.8821 295.476 40.1809 295.476 40.4867C295.476 40.7924 295.384 41.0912 295.213 41.3447C295.043 41.5982 294.8 41.7949 294.516 41.9095C294.233 42.0241 293.922 42.0514 293.622 41.988C293.323 41.9245 293.05 41.7732 292.837 41.5533C292.561 41.2671 292.406 40.8847 292.406 40.4867C292.406 40.0886 292.561 39.7062 292.837 39.42Z" fill="#FF5E1E"/>
<path d="M276.156 22.7374C276.368 22.5175 276.642 22.3662 276.941 22.3027C277.24 22.2392 277.551 22.2666 277.835 22.3812C278.118 22.4958 278.361 22.6925 278.532 22.946C278.703 23.1995 278.794 23.4983 278.794 23.804C278.794 24.1098 278.703 24.4086 278.532 24.6621C278.361 24.9156 278.118 25.1123 277.835 25.2269C277.551 25.3415 277.24 25.3688 276.941 25.3054C276.642 25.2419 276.368 25.0905 276.156 24.8707C275.879 24.5845 275.725 24.2021 275.725 23.804C275.725 23.406 275.879 23.0236 276.156 22.7374Z" fill="#FF5E1E"/>
<path d="M259.472 6.05446C259.685 5.83354 259.958 5.68112 260.257 5.61678C260.557 5.55244 260.868 5.57913 261.152 5.69341C261.437 5.8077 261.68 6.00436 261.851 6.2581C262.023 6.51183 262.114 6.81105 262.114 7.11727C262.114 7.42349 262.023 7.7227 261.851 7.97644C261.68 8.23018 261.437 8.42684 261.152 8.54112C260.868 8.65541 260.557 8.6821 260.257 8.61776C259.958 8.55342 259.685 8.40099 259.472 8.18008C259.198 7.89427 259.045 7.51344 259.045 7.11727C259.045 6.72109 259.198 6.34026 259.472 6.05446Z" fill="#FF5E1E"/>
<path opacity="0.13" d="M319.52 134.137L90.5508 127.315L112.927 232.952H113.25L112.881 232.998L161.533 254.799L148.679 273.055L191.821 268.374L197.63 232.952H306.774L319.52 134.137Z" fill="#606060"/>
<path d="M183.333 259.304L140.199 263.985L160.673 234.886L183.333 259.304Z" fill="#FFAF00"/>
<path d="M104.4 223.927L183.333 259.303L190.999 212.57L104.4 223.927Z" fill="#EF470C"/>
<path d="M311.039 125.067L82.0625 118.245L104.447 223.882H298.286L311.039 125.067Z" fill="#FFAF00"/>
<path d="M120.77 154.196C120.77 146.392 126.747 140.752 134.774 140.752C139.033 140.752 142.693 142.286 145.118 145.126L141.964 148.103C141.087 147.122 140.01 146.341 138.806 145.811C137.601 145.282 136.297 145.017 134.981 145.034C129.61 145.034 125.65 148.871 125.65 154.242C125.65 159.614 129.571 163.451 134.981 163.451C136.298 163.476 137.605 163.215 138.811 162.685C140.017 162.155 141.093 161.369 141.964 160.381L145.103 163.374C142.678 166.213 139.018 167.74 134.72 167.74C126.747 167.641 120.77 162 120.77 154.196Z" fill="#EDA006"/>
<path d="M147.336 154.196C147.336 146.469 153.314 140.752 161.417 140.752C169.521 140.752 175.491 146.43 175.491 154.196C175.491 161.962 169.521 167.641 161.417 167.641C153.314 167.641 147.336 161.916 147.336 154.196ZM170.603 154.196C170.603 152.375 170.063 150.594 169.051 149.08C168.039 147.566 166.601 146.386 164.918 145.689C163.236 144.992 161.384 144.809 159.598 145.165C157.811 145.52 156.171 146.397 154.883 147.685C153.595 148.973 152.718 150.613 152.363 152.4C152.007 154.186 152.19 156.037 152.887 157.72C153.584 159.403 154.764 160.841 156.278 161.853C157.793 162.865 159.573 163.405 161.394 163.405C162.617 163.45 163.835 163.242 164.974 162.796C166.113 162.349 167.148 161.673 168.014 160.809C168.88 159.945 169.559 158.912 170.008 157.774C170.457 156.637 170.668 155.419 170.626 154.196H170.603Z" fill="#EDA006"/>
<path d="M204.682 167.287L204.643 149.968L196.056 164.302H193.892L185.305 150.19V167.287H180.701V141.128H184.699L195.082 158.455L205.272 141.128H209.271L209.309 167.264L204.682 167.287Z" fill="#EDA006"/>
<path d="M216.338 141.128H221.195V167.287H216.338V141.128Z" fill="#EDA006"/>
<path d="M251.476 141.128V167.287H247.478L233.067 149.592V167.287H228.248V141.128H232.246L246.657 158.846V141.128H251.476Z" fill="#EDA006"/>
<path d="M276.347 153.897H280.951V164.318C278.006 166.533 274.406 167.702 270.722 167.641C262.618 167.641 256.641 162 256.641 154.196C256.641 146.392 262.618 140.752 270.791 140.752C275.165 140.752 278.818 142.21 281.289 145.011L278.219 147.996C277.289 147.028 276.169 146.263 274.929 145.75C273.688 145.236 272.356 144.984 271.014 145.011C265.45 145.011 261.529 148.786 261.529 154.219C261.529 159.652 265.45 163.428 270.975 163.428C272.854 163.468 274.709 163.005 276.347 162.085V153.897Z" fill="#EDA006"/>
<path d="M141.051 209.317L142.731 205.549C145.222 207.41 148.247 208.419 151.357 208.427C155.424 208.427 157.143 206.969 157.143 205.027C157.143 199.387 141.611 203.086 141.611 193.378C141.611 189.158 144.972 185.574 152.139 185.574C155.197 185.524 158.209 186.321 160.841 187.876L159.307 191.652C157.126 190.347 154.641 189.638 152.101 189.595C148.072 189.595 146.422 191.13 146.422 193.141C146.422 198.704 161.923 195.082 161.923 204.651C161.923 208.833 158.524 212.417 151.357 212.417C147.282 212.455 143.215 211.189 141.051 209.317Z" fill="#EDA006"/>
<path d="M164.879 199.011C164.879 191.283 170.849 185.574 178.953 185.574C187.056 185.574 193.034 191.245 193.034 199.011C193.034 206.777 187.056 212.455 178.953 212.455C170.849 212.455 164.879 206.746 164.879 199.011ZM188.138 199.011C188.138 197.19 187.598 195.409 186.586 193.895C185.574 192.381 184.136 191.2 182.453 190.503C180.771 189.806 178.919 189.624 177.133 189.979C175.347 190.335 173.706 191.212 172.418 192.5C171.13 193.787 170.253 195.428 169.898 197.214C169.543 199.001 169.725 200.852 170.422 202.535C171.119 204.218 172.299 205.656 173.814 206.668C175.328 207.679 177.108 208.219 178.93 208.219C180.15 208.261 181.366 208.052 182.502 207.604C183.638 207.156 184.67 206.479 185.534 205.615C186.397 204.752 187.074 203.72 187.522 202.584C187.97 201.448 188.18 200.231 188.138 199.011Z" fill="#EDA006"/>
<path d="M196.318 199.011C196.318 191.283 202.296 185.574 210.4 185.574C218.503 185.574 224.473 191.245 224.473 199.011C224.473 206.777 218.503 212.455 210.4 212.455C202.296 212.455 196.318 206.746 196.318 199.011ZM219.585 199.011C219.585 197.19 219.045 195.409 218.033 193.895C217.021 192.381 215.583 191.2 213.901 190.503C212.218 189.806 210.366 189.624 208.58 189.979C206.794 190.335 205.153 191.212 203.865 192.5C202.577 193.787 201.7 195.428 201.345 197.214C200.99 199.001 201.172 200.852 201.869 202.535C202.566 204.218 203.746 205.656 205.261 206.668C206.775 207.679 208.555 208.219 210.377 208.219C211.597 208.261 212.813 208.052 213.949 207.604C215.085 207.156 216.117 206.479 216.981 205.615C217.844 204.752 218.521 203.72 218.969 202.584C219.417 201.448 219.627 200.231 219.585 199.011Z" fill="#EDA006"/>
<path d="M252.857 185.942V212.079H248.859L234.448 194.383V212.079H229.637V185.942H233.627L248.038 203.646V185.942H252.857Z" fill="#EDA006"/>
<path d="M258.605 209.432C258.607 209.042 258.688 208.656 258.842 208.298C258.996 207.94 259.222 207.617 259.504 207.349C259.786 207.08 260.12 206.871 260.485 206.734C260.85 206.598 261.239 206.536 261.629 206.554C262.014 206.541 262.398 206.605 262.757 206.744C263.117 206.883 263.445 207.093 263.721 207.362C263.997 207.631 264.215 207.953 264.364 208.309C264.512 208.664 264.587 209.046 264.583 209.432C264.588 209.819 264.514 210.203 264.366 210.562C264.219 210.92 264.001 211.245 263.725 211.517C263.449 211.789 263.122 212.003 262.762 212.145C262.401 212.288 262.016 212.357 261.629 212.348C261.237 212.361 260.847 212.296 260.481 212.155C260.115 212.015 259.782 211.802 259.5 211.53C259.217 211.258 258.993 210.932 258.839 210.572C258.686 210.211 258.606 209.824 258.605 209.432ZM258.866 185.942H264.391L263.463 203.423H259.764L258.866 185.942Z" fill="#EDA006"/>
<path d="M136.71 145.381C135.813 144.311 134.755 143.477 133.535 142.879C132.34 142.256 131.132 141.945 129.912 141.945C128.443 141.945 127.099 142.306 125.879 143.028C124.659 143.75 123.7 144.734 123.003 145.979C122.306 147.224 121.957 148.606 121.957 150.124C121.957 151.643 122.306 153.038 123.003 154.307C123.7 155.552 124.659 156.548 125.879 157.295C127.099 158.017 128.443 158.378 129.912 158.378C131.083 158.378 132.265 158.105 133.46 157.557C134.68 156.984 135.764 156.225 136.71 155.279L140.183 159.051C138.789 160.495 137.145 161.64 135.253 162.487C133.386 163.333 131.506 163.757 129.614 163.757C127.049 163.757 124.721 163.171 122.629 162.001C120.538 160.806 118.895 159.175 117.7 157.109C116.504 155.042 115.907 152.739 115.907 150.199C115.907 147.684 116.517 145.406 117.737 143.364C118.957 141.323 120.625 139.717 122.742 138.547C124.883 137.376 127.248 136.791 129.838 136.791C131.73 136.791 133.597 137.19 135.44 137.986C137.282 138.758 138.851 139.816 140.146 141.161L136.71 145.381ZM155.408 136.791C158.022 136.791 160.4 137.376 162.541 138.547C164.682 139.717 166.363 141.335 167.583 143.402C168.828 145.444 169.451 147.722 169.451 150.237C169.451 152.751 168.828 155.042 167.583 157.109C166.363 159.175 164.682 160.806 162.541 162.001C160.4 163.171 158.022 163.757 155.408 163.757C152.793 163.757 150.416 163.171 148.274 162.001C146.133 160.806 144.44 159.188 143.195 157.146C141.975 155.079 141.365 152.776 141.365 150.237C141.365 147.722 141.975 145.444 143.195 143.402C144.44 141.335 146.12 139.717 148.237 138.547C150.378 137.376 152.768 136.791 155.408 136.791ZM155.482 141.945C154.038 141.945 152.694 142.319 151.449 143.066C150.204 143.788 149.22 144.784 148.498 146.054C147.776 147.323 147.415 148.718 147.415 150.237C147.415 151.78 147.776 153.187 148.498 154.457C149.245 155.727 150.229 156.735 151.449 157.482C152.694 158.229 154.038 158.602 155.482 158.602C156.927 158.602 158.246 158.241 159.441 157.519C160.661 156.772 161.62 155.764 162.317 154.494C163.039 153.199 163.4 151.78 163.4 150.237C163.4 148.718 163.039 147.323 162.317 146.054C161.62 144.784 160.661 143.788 159.441 143.066C158.246 142.319 156.927 141.945 155.482 141.945ZM173.322 137.202H179.896L188.037 153.262L196.105 137.202H202.641V163.346H197.337V145.68L189.905 160.694H186.095L178.626 145.68V163.346H173.322V137.202ZM208.446 137.202H214.347V163.346H208.446V137.202ZM238.23 137.202H243.832V163.346H238.454L225.793 146.539V163.346H220.153V137.202H225.531L238.23 154.083V137.202ZM267.14 150.162H272.257V160.321C270.863 161.341 269.195 162.175 267.252 162.823C265.31 163.445 263.443 163.757 261.65 163.757C259.036 163.757 256.67 163.171 254.554 162.001C252.438 160.806 250.769 159.188 249.549 157.146C248.329 155.079 247.719 152.776 247.719 150.237C247.719 147.722 248.342 145.444 249.587 143.402C250.832 141.335 252.537 139.717 254.703 138.547C256.895 137.376 259.322 136.791 261.986 136.791C263.928 136.791 265.821 137.14 267.663 137.837C269.531 138.534 271.137 139.48 272.481 140.675L269.157 144.896C268.186 143.974 267.066 143.252 265.796 142.73C264.526 142.207 263.256 141.945 261.986 141.945C260.468 141.945 259.073 142.319 257.803 143.066C256.558 143.788 255.575 144.784 254.853 146.054C254.131 147.298 253.77 148.693 253.77 150.237C253.77 151.78 254.131 153.199 254.853 154.494C255.6 155.764 256.596 156.772 257.841 157.519C259.111 158.241 260.505 158.602 262.024 158.602C262.796 158.602 263.63 158.478 264.526 158.229C265.422 157.955 266.294 157.594 267.14 157.146V150.162Z" fill="white"/>
<path d="M152.499 189.3C151.154 188.478 149.722 187.831 148.204 187.358C146.71 186.86 145.427 186.611 144.357 186.611C143.336 186.611 142.527 186.797 141.929 187.171C141.332 187.544 141.033 188.092 141.033 188.814C141.033 189.735 141.456 190.445 142.303 190.943C143.174 191.416 144.506 191.914 146.299 192.437C148.092 192.96 149.561 193.483 150.706 194.005C151.876 194.528 152.872 195.313 153.694 196.358C154.515 197.404 154.926 198.786 154.926 200.504C154.926 202.172 154.478 203.616 153.582 204.836C152.71 206.032 151.503 206.94 149.959 207.563C148.415 208.185 146.66 208.497 144.693 208.497C142.576 208.497 140.497 208.123 138.456 207.376C136.414 206.629 134.646 205.608 133.152 204.314L135.505 199.496C136.825 200.691 138.344 201.649 140.062 202.371C141.78 203.094 143.348 203.455 144.768 203.455C145.988 203.455 146.934 203.23 147.606 202.782C148.303 202.334 148.652 201.687 148.652 200.84C148.652 200.168 148.415 199.62 147.942 199.197C147.494 198.749 146.909 198.388 146.187 198.114C145.49 197.84 144.519 197.529 143.274 197.18C141.481 196.682 140.012 196.184 138.867 195.686C137.746 195.188 136.775 194.429 135.953 193.408C135.132 192.387 134.721 191.03 134.721 189.337C134.721 187.768 135.144 186.399 135.991 185.229C136.837 184.034 138.02 183.125 139.539 182.502C141.058 181.855 142.825 181.531 144.842 181.531C146.635 181.531 148.403 181.793 150.146 182.316C151.889 182.838 153.432 183.536 154.777 184.407L152.499 189.3ZM171.237 181.606C173.851 181.606 176.229 182.191 178.37 183.361C180.512 184.531 182.192 186.15 183.412 188.217C184.657 190.258 185.28 192.536 185.28 195.051C185.28 197.566 184.657 199.857 183.412 201.923C182.192 203.99 180.512 205.621 178.37 206.816C176.229 207.986 173.851 208.571 171.237 208.571C168.623 208.571 166.245 207.986 164.103 206.816C161.962 205.621 160.269 204.002 159.024 201.961C157.804 199.894 157.194 197.591 157.194 195.051C157.194 192.536 157.804 190.258 159.024 188.217C160.269 186.15 161.95 184.531 164.066 183.361C166.207 182.191 168.598 181.606 171.237 181.606ZM171.312 186.76C169.867 186.76 168.523 187.133 167.278 187.88C166.033 188.602 165.05 189.598 164.327 190.868C163.605 192.138 163.244 193.532 163.244 195.051C163.244 196.595 163.605 198.002 164.327 199.272C165.074 200.541 166.058 201.55 167.278 202.297C168.523 203.044 169.867 203.417 171.312 203.417C172.756 203.417 174.075 203.056 175.27 202.334C176.491 201.587 177.449 200.579 178.146 199.309C178.868 198.014 179.229 196.595 179.229 195.051C179.229 193.532 178.868 192.138 178.146 190.868C177.449 189.598 176.491 188.602 175.27 187.88C174.075 187.133 172.756 186.76 171.312 186.76ZM200.67 181.606C203.285 181.606 205.663 182.191 207.804 183.361C209.945 184.531 211.626 186.15 212.846 188.217C214.091 190.258 214.713 192.536 214.713 195.051C214.713 197.566 214.091 199.857 212.846 201.923C211.626 203.99 209.945 205.621 207.804 206.816C205.663 207.986 203.285 208.571 200.67 208.571C198.056 208.571 195.678 207.986 193.537 206.816C191.396 205.621 189.703 204.002 188.458 201.961C187.238 199.894 186.628 197.591 186.628 195.051C186.628 192.536 187.238 190.258 188.458 188.217C189.703 186.15 191.383 184.531 193.5 183.361C195.641 182.191 198.031 181.606 200.67 181.606ZM200.745 186.76C199.301 186.76 197.956 187.133 196.712 187.88C195.467 188.602 194.483 189.598 193.761 190.868C193.039 192.138 192.678 193.532 192.678 195.051C192.678 196.595 193.039 198.002 193.761 199.272C194.508 200.541 195.491 201.55 196.712 202.297C197.956 203.044 199.301 203.417 200.745 203.417C202.189 203.417 203.509 203.056 204.704 202.334C205.924 201.587 206.883 200.579 207.58 199.309C208.302 198.014 208.663 196.595 208.663 195.051C208.663 193.532 208.302 192.138 207.58 190.868C206.883 189.598 205.924 188.602 204.704 187.88C203.509 187.133 202.189 186.76 200.745 186.76ZM236.661 182.017H242.264V208.16H236.886L224.225 191.354V208.16H218.585V182.017H223.963L236.661 198.898V182.017ZM247.234 182.203H252.724V188.814L251.716 199.346H248.243L247.234 188.814V182.203ZM249.923 202.558C250.77 202.558 251.454 202.832 251.977 203.38C252.525 203.928 252.799 204.637 252.799 205.509C252.799 206.38 252.525 207.102 251.977 207.675C251.454 208.223 250.77 208.497 249.923 208.497C249.102 208.497 248.417 208.21 247.869 207.638C247.321 207.065 247.047 206.355 247.047 205.509C247.047 204.637 247.321 203.928 247.869 203.38C248.417 202.832 249.102 202.558 249.923 202.558Z" fill="white"/>
</g>
<defs>
<clipPath id="clip0_1192_1847">
<rect width="362.815" height="343.07" fill="white"/>
</clipPath>
</defs>
</svg>
