<svg width="326" height="186" viewBox="0 0 326 186" fill="none" xmlns="http://www.w3.org/2000/svg">
<g clip-path="url(#clip0_2182_729)">
<path opacity="0.54" d="M314.123 106.661C319.501 89.8069 310.843 70.9198 287.558 64.0994C278.637 61.4762 267.29 60.886 261.78 53.3443C255.024 44.0975 256.992 27.1122 239.15 12.8813C223.736 0.617778 196.515 1.208 181.429 16.6193C175.329 22.8495 160.57 34.9162 148.895 14.4552C138.597 -3.57936 112.753 -2.85797 104.161 12.3566C99.6348 20.3574 92.2228 29.2763 83.0399 28.6861C80.1538 28.4894 77.5301 27.0466 74.9064 25.8662C65.9858 21.8658 55.163 21.2755 46.5704 25.9317C37.9778 30.5879 30.8937 42.7203 37.1906 55.0494C46.8983 74.1988 29.5163 72.4281 21.2516 72.6904C-6.23167 73.4774 -11.0199 124.958 42.8972 124.958H268.273C290.378 124.302 308.351 124.761 314.123 106.661Z" fill="#A1D9FF"/>
<path d="M278.702 100.431H38.3052C37.7804 100.431 37.3213 99.9715 37.3213 99.4469C37.3213 98.9223 37.7804 98.4632 38.3052 98.4632H278.637C279.161 98.4632 279.62 98.9223 279.62 99.4469C279.686 100.037 279.227 100.431 278.702 100.431Z" fill="#C1DFF7"/>
<g opacity="0.58">
<path d="M114.851 49.2125V41.7364C114.851 41.2773 114.458 40.8838 113.999 40.8838H111.506C111.178 40.8838 110.85 40.6871 110.719 40.3592C110.588 40.0313 110.653 39.6378 110.916 39.3755L112.687 37.6048C113.015 37.2769 113.015 36.6867 112.687 36.3588L107.374 31.0468C107.046 30.7189 106.455 30.7189 106.128 31.0468L104.357 32.8174C104.094 33.0798 103.701 33.1453 103.373 33.0142C103.045 32.883 102.848 32.5551 102.848 32.2272V29.7352C102.848 29.2761 102.454 28.8826 101.995 28.8826H94.5176C94.0585 28.8826 93.6649 29.2761 93.6649 29.7352V32.2272C93.6649 32.5551 93.4681 32.883 93.1402 33.0142C92.8122 33.1453 92.4186 33.0798 92.1563 32.8174L90.3853 31.0468C90.0573 30.7189 89.467 30.7189 89.139 31.0468L83.826 36.3588C83.4981 36.6867 83.4981 37.2769 83.826 37.6048L85.597 39.3755C85.8594 39.6378 85.925 40.0313 85.7938 40.3592C85.6626 40.6871 85.3346 40.8838 85.0067 40.8838H82.383C81.9238 40.8838 81.5303 41.2773 81.5303 41.7364V49.2125C81.5303 49.6716 81.9238 50.065 82.383 50.065H84.8755C85.2035 50.065 85.5314 50.2618 85.6626 50.5897C85.7938 50.9176 85.7282 51.3111 85.4658 51.5734L83.6948 53.3441C83.3669 53.672 83.3669 54.2622 83.6948 54.5901L89.0078 59.9021C89.3358 60.23 89.9261 60.23 90.2541 59.9021L92.0251 58.1314C92.2875 57.8691 92.681 57.8035 93.009 57.9347C93.3369 58.0658 93.5337 58.3937 93.5337 58.7216V61.2793C93.5337 61.7383 93.9273 62.1318 94.3864 62.1318H101.864C102.323 62.1318 102.717 61.7383 102.717 61.2793V58.7872C102.717 58.4593 102.913 58.1314 103.241 58.0003C103.569 57.8691 103.963 57.9347 104.225 58.197L105.996 59.9677C106.324 60.2956 106.915 60.2956 107.243 59.9677L112.556 54.6557C112.884 54.3278 112.884 53.7375 112.556 53.4096L110.785 51.639C110.522 51.3766 110.457 50.9832 110.588 50.6553C110.719 50.3274 111.047 50.1306 111.375 50.1306H113.867C114.458 50.065 114.851 49.6716 114.851 49.2125ZM106.39 45.4744C106.39 49.9995 102.717 53.672 98.1908 53.672C93.6649 53.672 89.9917 49.9995 89.9917 45.4744C89.9917 40.9494 93.6649 37.2769 98.1908 37.2769C102.717 37.2769 106.39 40.9494 106.39 45.4744Z" fill="white"/>
<path d="M240.265 70.5261H245.709C246.037 70.5261 246.365 70.2637 246.365 69.8703V68.034C246.365 67.7717 246.496 67.5094 246.759 67.4438C247.021 67.3126 247.283 67.3782 247.48 67.5749L248.792 68.8865C249.054 69.1489 249.448 69.1489 249.71 68.8865L253.58 65.0173C253.843 64.755 253.843 64.3615 253.58 64.0992L252.268 62.7876C252.072 62.5909 252.006 62.3285 252.137 62.0662C252.268 61.8039 252.465 61.6727 252.727 61.6727H254.564C254.892 61.6727 255.22 61.4104 255.22 61.0169V55.5738C255.22 55.2459 254.958 54.918 254.564 54.918H252.727C252.465 54.918 252.203 54.7868 252.137 54.5245C252.006 54.2622 252.072 53.9998 252.268 53.8031L253.58 52.4915C253.843 52.2292 253.843 51.8357 253.58 51.5734L249.71 47.7041C249.448 47.4418 249.054 47.4418 248.792 47.7041L247.48 49.0157C247.283 49.2125 247.021 49.2781 246.759 49.1469C246.496 49.0157 246.365 48.819 246.365 48.5567V46.7204C246.365 46.3925 246.103 46.0646 245.709 46.0646H240.265C239.937 46.0646 239.609 46.327 239.609 46.7204V48.5567C239.609 48.819 239.478 49.0813 239.215 49.1469C238.953 49.2781 238.691 49.2125 238.494 49.0157L237.182 47.7041C236.92 47.4418 236.526 47.4418 236.264 47.7041L232.394 51.5734C232.131 51.8357 232.131 52.2292 232.394 52.4915L233.706 53.8031C233.902 53.9998 233.968 54.2622 233.837 54.5245C233.706 54.7868 233.509 54.918 233.246 54.918H231.41C231.082 54.918 230.754 55.1803 230.754 55.5738V61.0169C230.754 61.3448 231.016 61.6727 231.41 61.6727H233.246C233.509 61.6727 233.771 61.8039 233.837 62.0662C233.968 62.3285 233.902 62.5909 233.706 62.7876L232.394 64.0992C232.131 64.3615 232.131 64.755 232.394 65.0173L236.264 68.8865C236.526 69.1489 236.92 69.1489 237.182 68.8865L238.494 67.5749C238.691 67.3782 238.953 67.3126 239.215 67.4438C239.478 67.5749 239.609 67.7717 239.609 68.034V69.8703C239.609 70.2637 239.937 70.5261 240.265 70.5261ZM243.02 64.3615C239.674 64.3615 237.051 61.6727 237.051 58.3937C237.051 55.0491 239.74 52.4259 243.02 52.4259C246.365 52.4259 248.989 55.1147 248.989 58.3937C248.989 61.6727 246.299 64.3615 243.02 64.3615Z" fill="white"/>
<path d="M212.388 78.986H215.405C215.602 78.986 215.733 78.8548 215.733 78.6581V77.6744C215.733 77.5432 215.799 77.412 215.93 77.3465C216.061 77.2809 216.192 77.3465 216.323 77.412L217.045 78.1334C217.176 78.2646 217.439 78.2646 217.57 78.1334L219.734 75.9693C219.865 75.8381 219.865 75.5758 219.734 75.4446L219.013 74.7233C218.882 74.5921 218.882 74.4609 218.947 74.3298C219.013 74.1986 219.144 74.133 219.275 74.133H220.259C220.456 74.133 220.587 74.0019 220.587 73.8051V70.7884C220.587 70.5917 220.456 70.4605 220.259 70.4605H219.275C219.144 70.4605 219.013 70.395 218.947 70.2638C218.882 70.1326 218.947 70.0015 219.013 69.8703L219.734 69.1489C219.865 69.0178 219.865 68.7555 219.734 68.6243L217.57 66.4601C217.439 66.329 217.176 66.329 217.045 66.4601L216.323 67.1815C216.192 67.3127 216.061 67.3127 215.93 67.2471C215.799 67.1815 215.733 67.0504 215.733 66.9192V65.9355C215.733 65.7388 215.602 65.6076 215.405 65.6076H212.388C212.191 65.6076 212.06 65.7388 212.06 65.9355V66.9192C212.06 67.0504 211.994 67.1815 211.863 67.2471C211.732 67.3127 211.601 67.2471 211.47 67.1815L210.748 66.4601C210.617 66.329 210.355 66.329 210.223 66.4601L208.059 68.6243C207.928 68.7555 207.928 69.0178 208.059 69.1489L208.78 69.8703C208.911 70.0015 208.911 70.1326 208.846 70.2638C208.78 70.395 208.649 70.4605 208.518 70.4605H207.534C207.337 70.4605 207.206 70.5917 207.206 70.7884V73.8051C207.206 74.0019 207.337 74.133 207.534 74.133H208.518C208.649 74.133 208.78 74.1986 208.846 74.3298C208.911 74.4609 208.846 74.5921 208.78 74.7233L208.059 75.4446C207.928 75.5758 207.928 75.8381 208.059 75.9693L210.223 78.1334C210.355 78.2646 210.617 78.2646 210.748 78.1334L211.47 77.412C211.601 77.2809 211.732 77.2809 211.863 77.3465C211.994 77.412 212.06 77.5432 212.06 77.6744V78.6581C212.06 78.7892 212.191 78.986 212.388 78.986ZM213.897 75.5102C212.06 75.5102 210.551 74.0019 210.551 72.1656C210.551 70.3294 212.06 68.821 213.897 68.821C215.733 68.821 217.242 70.3294 217.242 72.1656C217.242 74.0675 215.733 75.5102 213.897 75.5102Z" fill="white"/>
<path d="M51.0959 48.2941H54.1787C54.3755 48.2941 54.5067 48.1629 54.5067 47.9662V46.9825C54.5067 46.8513 54.5723 46.7202 54.7035 46.6546C54.8347 46.589 54.9658 46.6546 55.097 46.7202L55.8185 47.4416C55.9497 47.5727 56.2121 47.5727 56.3433 47.4416L58.5078 45.2774C58.639 45.1463 58.639 44.8839 58.5078 44.7528L57.7863 44.0314C57.6551 43.9002 57.6551 43.7691 57.7207 43.6379C57.7863 43.5067 57.9175 43.4412 58.0487 43.4412H59.0326C59.2294 43.4412 59.3605 43.31 59.3605 43.1133V40.0966C59.3605 39.8998 59.2294 39.7687 59.0326 39.7687H58.0487C57.9175 39.7687 57.7863 39.7031 57.7207 39.5719C57.6551 39.4408 57.7207 39.3096 57.7863 39.1785L58.5078 38.4571C58.639 38.3259 58.639 38.0636 58.5078 37.9324L56.3433 35.7027C56.2121 35.5715 55.9497 35.5715 55.8185 35.7027L55.097 36.4241C54.9658 36.5552 54.8347 36.5552 54.7035 36.4897C54.5723 36.4241 54.5067 36.2929 54.5067 36.1618V35.1781C54.5067 34.9813 54.3755 34.8502 54.1787 34.8502H51.1615C50.9647 34.8502 50.8335 34.9813 50.8335 35.1781V36.1618C50.8335 36.2929 50.7679 36.4241 50.6367 36.4897C50.5055 36.5552 50.3744 36.4897 50.2432 36.4241L49.4561 35.7027C49.3249 35.5715 49.0625 35.5715 48.9313 35.7027L46.7668 37.8668C46.6356 37.998 46.6356 38.2603 46.7668 38.3915L47.4883 39.1129C47.6195 39.244 47.6195 39.3752 47.5539 39.5064C47.4883 39.6375 47.3571 39.7031 47.2259 39.7031H46.242C46.0452 39.7031 45.9141 39.8343 45.9141 40.031V43.0477C45.9141 43.2444 46.0452 43.3756 46.242 43.3756H47.2259C47.3571 43.3756 47.4883 43.4412 47.5539 43.5723C47.6195 43.7035 47.5539 43.8346 47.4883 43.9658L46.7668 44.6872C46.6356 44.8183 46.6356 45.0807 46.7668 45.2118L48.9313 47.376C49.0625 47.5071 49.3249 47.5071 49.4561 47.376L50.1776 46.6546C50.3088 46.5234 50.44 46.5234 50.5711 46.589C50.7023 46.6546 50.7679 46.7858 50.7679 46.9169V47.9006C50.7679 48.1629 50.8991 48.2941 51.0959 48.2941ZM52.6045 44.8839C50.7679 44.8839 49.2593 43.3756 49.2593 41.5393C49.2593 39.7031 50.7679 38.1947 52.6045 38.1947C54.4411 38.1947 55.9497 39.7031 55.9497 41.5393C55.9497 43.3756 54.4411 44.8839 52.6045 44.8839Z" fill="white"/>
<path d="M215.406 36.8832H217.177C217.308 36.8832 217.373 36.8176 217.373 36.6865V36.0963C217.373 36.0307 217.439 35.9651 217.505 35.8995C217.57 35.8995 217.701 35.8995 217.701 35.9651L218.161 36.3586C218.226 36.4242 218.357 36.4242 218.423 36.3586L219.669 35.1125C219.735 35.047 219.735 34.9158 219.669 34.8502L219.276 34.4567C219.21 34.3912 219.21 34.3256 219.21 34.26C219.21 34.1944 219.341 34.1288 219.407 34.1288H219.997C220.128 34.1288 220.194 34.0633 220.194 33.9321V32.1614C220.194 32.0303 220.128 31.9647 219.997 31.9647H219.407C219.341 31.9647 219.276 31.8991 219.21 31.8335C219.21 31.768 219.21 31.6368 219.276 31.6368L219.669 31.2433C219.735 31.1777 219.735 31.0466 219.669 30.981L218.423 29.735C218.357 29.6694 218.226 29.6694 218.161 29.735L217.767 30.1285C217.701 30.194 217.636 30.194 217.57 30.194C217.505 30.194 217.439 30.0629 217.439 29.9973V29.4071C217.439 29.2759 217.373 29.2103 217.242 29.2103H215.471C215.34 29.2103 215.274 29.2759 215.274 29.4071V29.9973C215.274 30.0629 215.209 30.1285 215.143 30.194C215.078 30.194 214.946 30.194 214.946 30.1285L214.553 29.735C214.487 29.6694 214.356 29.6694 214.291 29.735L213.044 30.981C212.979 31.0466 212.979 31.1777 213.044 31.2433L213.438 31.6368C213.503 31.7024 213.503 31.768 213.503 31.8335C213.503 31.8991 213.372 31.9647 213.307 31.9647H212.716C212.585 31.9647 212.52 32.0303 212.52 32.1614V33.9321C212.52 34.0633 212.585 34.1288 212.716 34.1288H213.307C213.372 34.1288 213.438 34.1944 213.503 34.26C213.503 34.3256 213.503 34.4567 213.438 34.4567L213.044 34.8502C212.979 34.9158 212.979 35.047 213.044 35.1125L214.291 36.3586C214.356 36.4242 214.487 36.4242 214.553 36.3586L214.946 35.9651C215.012 35.8995 215.078 35.8995 215.143 35.8995C215.209 35.8995 215.274 36.0307 215.274 36.0963V36.6865C215.209 36.8176 215.274 36.8832 215.406 36.8832ZM216.258 34.9158C215.209 34.9158 214.356 34.0633 214.356 33.014C214.356 31.9647 215.209 31.1122 216.258 31.1122C217.308 31.1122 218.161 31.9647 218.161 33.014C218.226 34.0633 217.373 34.9158 216.258 34.9158Z" fill="white"/>
</g>
<g opacity="0.54">
<path d="M91.1076 16.6191V12.7499C91.1076 12.4876 90.9109 12.2908 90.6485 12.2908H89.3366C89.1399 12.2908 89.0087 12.1597 88.9431 12.0285C88.8775 11.8318 88.8775 11.635 89.0087 11.5039L89.927 10.5857C90.1237 10.389 90.1237 10.1267 89.927 9.92993L87.1721 7.17556C86.9753 6.97882 86.7129 6.97882 86.5161 7.17556L85.5978 8.09368C85.4667 8.22484 85.2699 8.29042 85.0731 8.15926C84.8763 8.09368 84.8107 7.89694 84.8107 7.76578V6.45418C84.8107 6.19186 84.614 5.99512 84.3516 5.99512H80.4816C80.2193 5.99512 80.0225 6.19186 80.0225 6.45418V7.76578C80.0225 7.96252 79.8913 8.09368 79.7601 8.15926C79.5633 8.22484 79.3665 8.22484 79.2354 8.09368L78.3171 7.17556C78.1203 6.97882 77.8579 6.97882 77.6611 7.17556L74.9063 9.92993C74.7095 10.1267 74.7095 10.389 74.9063 10.5857L75.8245 11.5039C75.9557 11.635 76.0213 11.8318 75.8901 12.0285C75.8245 12.2252 75.6278 12.2908 75.4966 12.2908H74.1847C73.9224 12.2908 73.7256 12.4876 73.7256 12.7499V16.6191C73.7256 16.8814 73.9224 17.0782 74.1847 17.0782H75.4966C75.6934 17.0782 75.8245 17.2093 75.8901 17.3405C75.9557 17.5372 75.9557 17.734 75.8245 17.8651L74.9063 18.7833C74.7095 18.98 74.7095 19.2423 74.9063 19.4391L77.6611 22.1934C77.8579 22.3902 78.1203 22.3902 78.3171 22.1934L79.2354 21.2753C79.3665 21.1441 79.5633 21.0786 79.7601 21.2097C79.9569 21.2753 80.0225 21.472 80.0225 21.6032V22.9148C80.0225 23.1771 80.2193 23.3739 80.4816 23.3739H84.3516C84.614 23.3739 84.8107 23.1771 84.8107 22.9148V21.6032C84.8107 21.4065 84.9419 21.2753 85.0731 21.2097C85.2699 21.1441 85.4667 21.1441 85.5978 21.2753L86.5161 22.1934C86.7129 22.3902 86.9753 22.3902 87.1721 22.1934L89.927 19.4391C90.1237 19.2423 90.1237 18.98 89.927 18.7833L89.0087 17.8651C88.8775 17.734 88.8119 17.5372 88.9431 17.3405C89.0087 17.1438 89.2054 17.0782 89.3366 17.0782H90.6485C90.8453 17.0782 91.1076 16.8814 91.1076 16.6191ZM86.7129 14.6517C86.7129 17.0126 84.8107 18.9144 82.4494 18.9144C80.0881 18.9144 78.1859 17.0126 78.1859 14.6517C78.1859 12.2908 80.0881 10.389 82.4494 10.389C84.8107 10.389 86.7129 12.3564 86.7129 14.6517Z" fill="#CBEAFF"/>
<path d="M268.929 52.2291H271.946C272.143 52.2291 272.274 52.098 272.274 51.9012V50.9175C272.274 50.7864 272.34 50.6552 272.471 50.5896C272.602 50.524 272.733 50.5896 272.864 50.6552L273.586 51.3766C273.717 51.5078 273.98 51.5078 274.111 51.3766L276.275 49.2124C276.406 49.0813 276.406 48.819 276.275 48.6878L275.554 47.9664C275.423 47.8353 275.423 47.7041 275.488 47.5729C275.554 47.4418 275.685 47.3762 275.816 47.3762H276.8C276.997 47.3762 277.128 47.245 277.128 47.0483V44.0316C277.128 43.8349 276.997 43.7037 276.8 43.7037H275.816C275.685 43.7037 275.554 43.6381 275.488 43.507C275.423 43.3758 275.488 43.2446 275.554 43.1135L276.275 42.3921C276.406 42.2609 276.406 41.9986 276.275 41.8675L274.111 39.7033C273.98 39.5722 273.717 39.5722 273.586 39.7033L272.864 40.4247C272.733 40.5559 272.602 40.5559 272.471 40.4903C272.34 40.4247 272.274 40.2935 272.274 40.1624V39.1787C272.274 38.9819 272.143 38.8508 271.946 38.8508H268.929C268.732 38.8508 268.601 38.9819 268.601 39.1787V40.1624C268.601 40.2935 268.535 40.4247 268.404 40.4903C268.273 40.5559 268.142 40.4903 268.011 40.4247L267.289 39.7033C267.158 39.5722 266.896 39.5722 266.764 39.7033L264.6 41.8675C264.469 41.9986 264.469 42.2609 264.6 42.3921L265.321 43.1135C265.452 43.2446 265.452 43.3758 265.387 43.507C265.321 43.6381 265.19 43.7037 265.059 43.7037H264.075C263.878 43.7037 263.747 43.8349 263.747 44.0316V47.0483C263.747 47.245 263.878 47.3762 264.075 47.3762H265.059C265.19 47.3762 265.321 47.4418 265.387 47.5729C265.452 47.7041 265.387 47.8353 265.321 47.9664L264.6 48.6878C264.469 48.819 264.469 49.0813 264.6 49.2124L266.764 51.3766C266.896 51.5078 267.158 51.5078 267.289 51.3766L268.011 50.6552C268.142 50.5241 268.273 50.524 268.404 50.5896C268.535 50.6552 268.601 50.7864 268.601 50.9175V51.9012C268.601 52.0324 268.732 52.2291 268.929 52.2291ZM270.438 48.819C268.601 48.819 267.092 47.3106 267.092 45.4744C267.092 43.6381 268.601 42.1298 270.438 42.1298C272.274 42.1298 273.783 43.6381 273.783 45.4744C273.783 47.3106 272.274 48.819 270.438 48.819Z" fill="#CBEAFF"/>
<path d="M259.746 37.4084H261.517C261.648 37.4084 261.713 37.3428 261.713 37.2116V36.6214C261.713 36.5558 261.779 36.4902 261.845 36.4247C261.91 36.4247 262.041 36.4247 262.041 36.4902L262.435 36.8837C262.501 36.9493 262.632 36.9493 262.697 36.8837L263.944 35.6377C264.009 35.5721 264.009 35.441 263.944 35.3754L263.55 34.9819C263.484 34.9163 263.484 34.8507 263.484 34.7851C263.484 34.7196 263.616 34.654 263.681 34.654H264.271C264.403 34.654 264.468 34.5884 264.468 34.4572V32.6866C264.468 32.5554 264.403 32.4898 264.271 32.4898H263.681C263.616 32.4898 263.55 32.4243 263.484 32.3587C263.484 32.2931 263.484 32.1619 263.55 32.1619L263.944 31.7685C264.009 31.7029 264.009 31.5717 263.944 31.5061L262.697 30.2601C262.632 30.1945 262.501 30.1945 262.435 30.2601L262.041 30.6536C261.976 30.7192 261.91 30.7192 261.845 30.7192C261.779 30.7192 261.713 30.588 261.713 30.5224V29.9322C261.713 29.8011 261.648 29.7355 261.517 29.7355H259.746C259.614 29.7355 259.549 29.8011 259.549 29.9322V30.4569C259.549 30.5224 259.483 30.588 259.418 30.6536C259.352 30.6536 259.221 30.6536 259.221 30.588L258.827 30.1945C258.762 30.129 258.631 30.129 258.565 30.1945L257.319 31.4406C257.253 31.5061 257.253 31.6373 257.319 31.7029L257.712 32.0964C257.778 32.1619 257.778 32.2275 257.778 32.2931C257.778 32.3587 257.647 32.4243 257.581 32.4243H256.991C256.86 32.4243 256.794 32.4898 256.794 32.621V34.3917C256.794 34.5228 256.86 34.5884 256.991 34.5884H257.581C257.647 34.5884 257.712 34.654 257.778 34.7196C257.778 34.7851 257.778 34.9163 257.712 34.9163L257.319 35.3098C257.253 35.3754 257.253 35.5065 257.319 35.5721L258.565 36.8181C258.631 36.8837 258.762 36.8837 258.827 36.8181L259.221 36.4247C259.286 36.3591 259.352 36.3591 259.418 36.3591C259.483 36.3591 259.549 36.4902 259.549 36.5558V37.146C259.549 37.3428 259.614 37.4084 259.746 37.4084ZM260.598 35.441C259.549 35.441 258.696 34.5884 258.696 33.5391C258.696 32.4898 259.549 31.6373 260.598 31.6373C261.648 31.6373 262.501 32.4898 262.501 33.5391C262.501 34.5884 261.648 35.441 260.598 35.441Z" fill="#CBEAFF"/>
<path d="M157.488 9.92999H159.259C159.39 9.92999 159.455 9.86441 159.455 9.73325V9.14303C159.455 9.07745 159.521 9.01187 159.587 8.94629C159.652 8.94629 159.783 8.94629 159.783 9.01187L160.177 9.40535C160.243 9.47093 160.374 9.47093 160.439 9.40535L161.751 8.15933C161.817 8.09375 161.817 7.96259 161.751 7.89701L161.358 7.50353C161.292 7.43795 161.292 7.37236 161.292 7.30678C161.292 7.2412 161.423 7.17562 161.489 7.17562H162.079C162.21 7.17562 162.276 7.11004 162.276 6.97888V5.14264C162.276 5.01148 162.21 4.9459 162.079 4.9459H161.489C161.423 4.9459 161.358 4.88032 161.292 4.81474C161.292 4.74916 161.292 4.618 161.358 4.618L161.751 4.22451C161.817 4.15893 161.817 4.02777 161.751 3.96219L160.505 2.71617C160.439 2.65059 160.308 2.65059 160.243 2.71617L159.849 3.10965C159.783 3.17523 159.718 3.17523 159.652 3.17523C159.587 3.17523 159.521 3.04407 159.521 2.97849V2.38827C159.521 2.25711 159.455 2.19153 159.324 2.19153H157.553C157.422 2.19153 157.356 2.25711 157.356 2.38827V2.91291C157.356 2.97849 157.291 3.04407 157.225 3.10965C157.16 3.10965 157.028 3.10965 157.028 3.04407L156.635 2.65059C156.569 2.58501 156.438 2.58501 156.373 2.65059L155.126 3.89661C155.061 3.96219 155.061 4.09335 155.126 4.15893L155.52 4.55242C155.585 4.618 155.585 4.68358 155.585 4.74916C155.585 4.81474 155.454 4.88032 155.389 4.88032H154.798C154.667 4.88032 154.602 4.9459 154.602 5.07706V6.84772C154.602 6.97888 154.667 7.04446 154.798 7.04446H155.389C155.454 7.04446 155.52 7.11004 155.585 7.17562C155.585 7.2412 155.585 7.37237 155.52 7.37237L155.126 7.76585C155.061 7.83143 155.061 7.96259 155.126 8.02817L156.373 9.27419C156.438 9.33977 156.569 9.33977 156.635 9.27419L157.028 8.88071C157.094 8.81513 157.16 8.81513 157.225 8.81513C157.291 8.81513 157.356 8.94629 157.356 9.01187V9.60209C157.291 9.86441 157.422 9.92999 157.488 9.92999ZM158.406 7.96259C157.356 7.96259 156.504 7.11004 156.504 6.06076C156.504 5.01148 157.356 4.15893 158.406 4.15893C159.455 4.15893 160.308 5.01148 160.308 6.06076C160.308 7.11004 159.455 7.96259 158.406 7.96259Z" fill="#CBEAFF"/>
</g>
<path d="M172.245 94.7255V80.757H141.219V94.7255L136.431 97.152C135.775 97.4799 135.972 98.5292 136.759 98.5292H176.639C177.426 98.5292 177.623 97.4799 176.967 97.152L172.245 94.7255Z" fill="url(#paint0_linear_2182_729)"/>
<path opacity="0.5" d="M172.245 83.249H141.22V90.6595H172.245V83.249Z" fill="#2134A3"/>
<path d="M205.894 86.7902H109.014C106.652 86.7902 104.75 84.8884 104.75 82.5275V17.6687C104.75 15.3078 106.652 13.4059 109.014 13.4059H205.894C208.255 13.4059 210.157 15.3078 210.157 17.6687V82.5275C210.157 84.8884 208.255 86.7902 205.894 86.7902Z" fill="url(#paint1_linear_2182_729)"/>
<path d="M204.253 83.5113H109.931C108.554 83.5113 107.438 82.3964 107.438 81.0192V18.6524C107.438 17.2753 108.554 16.1604 109.931 16.1604H204.253C205.631 16.1604 206.746 17.2753 206.746 18.6524V81.0192C206.746 82.3964 205.631 83.5113 204.253 83.5113Z" fill="#D6ECF6"/>
<path d="M152.764 41.015H113.737C112.621 41.015 111.703 40.0969 111.703 38.9821V22.587C111.703 21.4721 112.621 20.554 113.671 20.554C120.886 20.554 145.483 20.554 152.699 20.554C153.814 20.554 154.666 21.4721 154.666 22.587C154.666 26.5218 154.666 35.1128 154.666 39.0476C154.732 40.1625 153.814 41.015 152.764 41.015Z" fill="white"/>
<path d="M202.221 46.5896H162.997C161.947 46.5896 161.095 45.7371 161.095 44.6878V22.3905C161.095 21.3413 161.947 20.4887 162.997 20.4887H202.221C203.271 20.4887 204.123 21.3413 204.123 22.3905V44.7534C204.123 45.7371 203.271 46.5896 202.221 46.5896Z" fill="white"/>
<path d="M141.087 53.9343H114.85C114.26 53.9343 113.801 53.4753 113.801 52.885C113.801 52.2948 114.26 51.8358 114.85 51.8358H141.087C141.678 51.8358 142.137 52.2948 142.137 52.885C142.071 53.4753 141.612 53.9343 141.087 53.9343Z" fill="white"/>
<path d="M153.812 57.6721H114.85C114.457 57.6721 114.194 57.3442 114.194 57.0163C114.194 56.6228 114.522 56.3605 114.85 56.3605H153.812C154.206 56.3605 154.468 56.6884 154.468 57.0163C154.468 57.3442 154.206 57.6721 153.812 57.6721ZM154.468 61.0822C154.468 60.6888 154.14 60.4264 153.812 60.4264H114.85C114.457 60.4264 114.194 60.7543 114.194 61.0822C114.194 61.4757 114.522 61.8036 114.85 61.8036H153.812C154.206 61.8036 154.468 61.4757 154.468 61.0822ZM154.468 65.2138C154.468 64.8203 154.14 64.558 153.812 64.558H114.85C114.457 64.558 114.194 64.8859 114.194 65.2138C114.194 65.6073 114.522 65.8696 114.85 65.8696H153.812C154.206 65.8696 154.468 65.6073 154.468 65.2138ZM154.468 69.2798C154.468 68.8863 154.14 68.624 153.812 68.624H114.85C114.457 68.624 114.194 68.9519 114.194 69.2798C114.194 69.6733 114.522 69.9356 114.85 69.9356H153.812C154.206 70.0012 154.468 69.6733 154.468 69.2798ZM154.468 73.4113C154.468 73.0178 154.14 72.7555 153.812 72.7555H114.85C114.457 72.7555 114.194 73.0834 114.194 73.4113C114.194 73.8048 114.522 74.0671 114.85 74.0671H153.812C154.206 74.1327 154.468 73.8048 154.468 73.4113Z" fill="white"/>
<path opacity="0.52" d="M114.196 36.4903V25.1449C114.196 24.358 114.787 23.7678 115.574 23.7678C118.263 23.7678 124.232 23.7678 126.921 23.7678C127.708 23.7678 128.299 24.358 128.299 25.1449V36.4903C128.299 37.2773 127.708 37.8675 126.921 37.8675C124.232 37.8675 118.263 37.8675 115.574 37.8675C114.787 37.8675 114.196 37.2773 114.196 36.4903Z" fill="#D6ECF6"/>
<path opacity="0.52" d="M151.912 26.7848H130.988C130.792 26.7848 130.595 26.5881 130.595 26.3913C130.595 26.1946 130.792 25.9979 130.988 25.9979H151.912C152.109 25.9979 152.306 26.1946 152.306 26.3913C152.24 26.5881 152.109 26.7848 151.912 26.7848ZM152.24 28.6211C152.24 28.4243 152.044 28.2276 151.847 28.2276H130.923C130.726 28.2276 130.529 28.4243 130.529 28.6211C130.529 28.8178 130.726 29.0146 130.923 29.0146H151.912C152.109 28.949 152.24 28.8178 152.24 28.6211ZM152.24 30.7852C152.24 30.5885 152.044 30.3917 151.847 30.3917H130.923C130.726 30.3917 130.529 30.5885 130.529 30.7852C130.529 30.982 130.726 31.1787 130.923 31.1787H151.912C152.109 31.1787 152.24 31.0475 152.24 30.7852ZM152.24 33.0149C152.24 32.8182 152.044 32.6215 151.847 32.6215H130.923C130.726 32.6215 130.529 32.8182 130.529 33.0149C130.529 33.2117 130.726 33.4084 130.923 33.4084H151.912C152.109 33.4084 152.24 33.2117 152.24 33.0149ZM152.24 35.2447C152.24 35.0479 152.044 34.8512 151.847 34.8512H130.923C130.726 34.8512 130.529 35.0479 130.529 35.2447C130.529 35.4414 130.726 35.6382 130.923 35.6382H151.912C152.109 35.5726 152.24 35.4414 152.24 35.2447Z" fill="#D6ECF6"/>
<g opacity="0.52">
<path d="M164.963 39.9659V27.1121C164.963 26.2596 165.684 25.5382 166.537 25.5382C169.62 25.5382 176.376 25.5382 179.459 25.5382C180.312 25.5382 181.033 26.2596 181.033 27.1121V40.0314C181.033 40.884 180.312 41.6054 179.459 41.6054C176.376 41.6054 169.62 41.6054 166.537 41.6054C165.684 41.5398 164.963 40.884 164.963 39.9659Z" fill="#D6ECF6"/>
<path d="M184.182 39.9658V27.1121C184.182 26.2595 184.903 25.5381 185.756 25.5381C188.839 25.5381 195.595 25.5381 198.678 25.5381C199.53 25.5381 200.252 26.2595 200.252 27.1121V40.0314C200.252 40.8839 199.53 41.6053 198.678 41.6053C195.595 41.6053 188.839 41.6053 185.756 41.6053C184.903 41.5397 184.182 40.8839 184.182 39.9658Z" fill="#D6ECF6"/>
</g>
<path d="M84.3527 61.0828L62.1824 72.4282C61.0674 73.0184 59.6243 72.5593 59.0996 71.4444L53.1306 59.8368C52.5403 58.7219 52.9995 57.2791 54.1145 56.7545L76.2848 45.4091C77.3999 44.8189 78.843 45.2779 79.3677 46.3928L85.3366 58.0005C85.927 59.0498 85.5334 60.4925 84.3527 61.0828Z" fill="#EBF2FF"/>
<g opacity="0.52">
<path d="M59.6242 68.1004L56.1478 61.2801C55.8854 60.821 56.0822 60.2308 56.5413 60.034C58.1812 59.1815 61.7232 57.4108 63.363 56.5583C63.8221 56.296 64.4125 56.4927 64.6092 56.9518L68.0856 63.7065C68.348 64.1656 68.1512 64.7558 67.6921 64.9526C66.0523 65.8051 62.5103 67.5758 60.8705 68.4283C60.4113 68.6906 59.821 68.5595 59.6242 68.1004Z" fill="#BCD8E2"/>
<path d="M79.2364 50.7214L66.7082 57.1483C66.577 57.2139 66.4458 57.1483 66.3802 57.0171C66.3146 56.886 66.3802 56.7548 66.5114 56.6892L79.0396 50.2624C79.1708 50.1968 79.302 50.2624 79.3676 50.3935C79.3676 50.5247 79.3676 50.6558 79.2364 50.7214ZM80.0235 51.7051C79.9579 51.574 79.8267 51.5084 79.6955 51.574L67.1017 58.0008C66.9706 58.0664 66.905 58.1976 66.9706 58.3287C67.0362 58.4599 67.1673 58.5255 67.2985 58.4599L79.8267 52.033C80.0235 51.9674 80.0891 51.8363 80.0235 51.7051ZM80.6794 53.0167C80.6138 52.8856 80.4826 52.82 80.3515 52.8856L67.8233 59.3124C67.6921 59.378 67.6265 59.5092 67.6921 59.6403C67.7577 59.7715 67.8889 59.8371 68.02 59.7715L80.5482 53.3446C80.6794 53.2791 80.745 53.1479 80.6794 53.0167ZM81.3353 54.3283C81.2697 54.1972 81.1386 54.1316 81.0074 54.1972L68.4792 60.624C68.348 60.6896 68.2824 60.8208 68.348 60.9519C68.4136 61.0831 68.5448 61.1487 68.676 61.0831L81.2042 54.6562C81.4009 54.5907 81.4009 54.4595 81.3353 54.3283ZM82.0569 55.6399C81.9913 55.5088 81.8601 55.4432 81.7289 55.5088L69.1351 61.9356C69.0039 62.0012 68.9383 62.1324 69.0039 62.2635C69.0695 62.3947 69.2007 62.4603 69.3319 62.3947L81.8601 55.9678C82.0569 55.9023 82.1225 55.7711 82.0569 55.6399Z" fill="#BCD8E2"/>
</g>
<path d="M93.0089 66.853L69.002 60.2294C67.7558 59.9015 67.0342 58.5899 67.3622 57.4095L70.8386 44.8181C71.1666 43.5721 72.4784 42.8507 73.6591 43.1786L97.666 49.8022C98.9123 50.1301 99.6338 51.4417 99.3058 52.6221L95.8294 65.2135C95.5014 66.4596 94.2552 67.1809 93.0089 66.853Z" fill="white"/>
<g opacity="0.52">
<path d="M69.9862 55.3106L72.0196 47.9656C72.1507 47.441 72.6755 47.1786 73.2002 47.3098C74.9712 47.7689 78.7756 48.8837 80.5466 49.3428C81.0713 49.4739 81.3337 49.9986 81.2025 50.5232L79.1691 57.8682C79.038 58.3929 78.5132 58.6552 77.9885 58.524C76.2175 58.0649 72.4131 56.9501 70.6421 56.491C70.183 56.3599 69.855 55.8352 69.9862 55.3106Z" fill="#D6ECF6"/>
<path d="M96.2237 55.7696L82.646 52.0315C82.5148 51.966 82.4493 51.8348 82.4493 51.7036C82.5148 51.5725 82.646 51.5069 82.7772 51.5069L96.3549 55.245C96.4861 55.3106 96.5517 55.4417 96.5517 55.5729C96.4861 55.704 96.3549 55.8352 96.2237 55.7696ZM96.0925 57.0156C96.1581 56.8845 96.0269 56.7533 95.8957 56.6877L82.3837 52.9497C82.2525 52.8841 82.1213 53.0152 82.0557 53.1464C81.9901 53.2776 82.1213 53.4087 82.2525 53.4743L95.8301 57.2124C95.9613 57.2124 96.0925 57.1468 96.0925 57.0156ZM95.699 58.4584C95.7646 58.3272 95.6334 58.1961 95.5022 58.1305L81.9245 54.3924C81.7933 54.3268 81.6621 54.458 81.5966 54.5892C81.531 54.7203 81.6621 54.8515 81.7933 54.9171L95.371 58.6551C95.5678 58.6551 95.699 58.5896 95.699 58.4584ZM95.3054 59.9012C95.371 59.77 95.2398 59.6388 95.1086 59.5733L81.531 55.8352C81.3998 55.7696 81.2686 55.9008 81.203 56.0319C81.1374 56.1631 81.2686 56.2943 81.3998 56.3598L94.9774 60.0979C95.1742 60.0979 95.3054 60.0323 95.3054 59.9012ZM94.9119 61.3439C94.9774 61.2128 94.8463 61.0816 94.7151 61.016L81.1374 57.278C81.0062 57.2124 80.875 57.3435 80.8094 57.4747C80.7438 57.6059 80.875 57.737 81.0062 57.8026L94.5839 61.5407C94.7807 61.5407 94.9119 61.4751 94.9119 61.3439Z" fill="#D6ECF6"/>
</g>
<path d="M53.7197 79.8377H101.012V63.377H63.4275L47.4229 67.9021L53.7197 79.8377Z" fill="url(#paint2_linear_2182_729)"/>
<path d="M49.8498 83.5108H102.324V78.1988H49.5874C49.1283 78.1988 48.8003 78.8546 48.9315 79.4448L49.8498 83.5108Z" fill="url(#paint3_linear_2182_729)"/>
<path d="M127.381 83.5105C128.037 83.5105 128.496 82.9859 128.496 82.3957V73.7391C128.496 73.0833 127.971 72.6242 127.381 72.6242V83.5105Z" fill="url(#paint4_linear_2182_729)"/>
<path d="M118.591 58.852L121.411 70.5253L127.38 72.6894V83.5102H124.56H110.654H100.159V58.852H118.591Z" fill="url(#paint5_linear_2182_729)"/>
<path d="M51.4904 86.6579H101.144V83.5101H49.8506V85.0184C49.8506 85.9365 50.5721 86.6579 51.4904 86.6579Z" fill="url(#paint6_linear_2182_729)"/>
<path d="M93.797 86.6582H130.398C131.316 86.6582 131.972 85.609 131.71 84.4941L130.922 80.8216C130.726 79.7723 129.939 79.1165 129.086 79.1165H96.0272C94.7809 79.1165 93.7314 80.4281 93.7314 82.002V86.6582H93.797Z" fill="url(#paint7_linear_2182_729)"/>
<path d="M100.159 58.8524H118.722C119.247 58.8524 119.64 58.4589 119.64 57.9343C119.64 57.4097 119.247 57.0162 118.722 57.0162H101.012C100.553 57.0162 100.159 57.4097 100.159 57.8687V58.8524Z" fill="#455FE8"/>
<path d="M113.803 69.3448V60.8193C113.803 60.1635 114.328 59.7045 114.918 59.7045H118.788L121.412 70.5252H114.918C114.262 70.5252 113.803 70.0006 113.803 69.3448ZM108.228 70.5252H111.573C112.229 70.5252 112.688 70.0006 112.688 69.4103V60.8849C112.688 60.2291 112.163 59.77 111.573 59.77H103.046C102.39 59.77 101.931 60.2947 101.931 60.8849V64.8853C101.931 65.4755 102.193 66.0658 102.652 66.4592L106.916 70.0661C107.244 70.3285 107.768 70.5252 108.228 70.5252Z" fill="#B8E4FF"/>
<path d="M98.1914 86.6583H124.56L120.427 78.6575C120.034 77.8705 119.181 77.3459 118.263 77.3459H104.423C103.504 77.3459 102.652 77.8705 102.258 78.6575L98.1914 86.6583Z" fill="url(#paint8_linear_2182_729)"/>
<path d="M100.618 86.6578H122.133L118.919 80.3621C118.525 79.5752 117.672 79.0505 116.754 79.0505H105.997C105.078 79.0505 104.226 79.5752 103.832 80.3621L100.618 86.6578Z" fill="#0B257A"/>
<path d="M54.5068 86.6583H80.8751L76.7427 78.6575C76.3492 77.8705 75.4965 77.3459 74.5782 77.3459H60.7381C59.8198 77.3459 58.9671 77.8705 58.5736 78.6575L54.5068 86.6583Z" fill="url(#paint9_linear_2182_729)"/>
<path d="M56.9346 86.6579H78.449L75.2349 80.3622C74.8414 79.5752 73.9887 79.0506 73.0704 79.0506H62.3132C61.3949 79.0506 60.5422 79.5752 60.1486 80.3622L56.9346 86.6579Z" fill="#0B257A"/>
<path d="M111.375 98.4628C116.519 98.4628 120.689 94.2935 120.689 89.1504C120.689 84.0073 116.519 79.838 111.375 79.838C106.231 79.838 102.061 84.0073 102.061 89.1504C102.061 94.2935 106.231 98.4628 111.375 98.4628Z" fill="#2134A3"/>
<path d="M112.217 94.1354C114.968 93.6713 116.821 91.0657 116.357 88.3156C115.893 85.5655 113.287 83.7123 110.536 84.1764C107.785 84.6405 105.932 87.2461 106.396 89.9961C106.86 92.7462 109.466 94.5994 112.217 94.1354Z" fill="#87A0FF"/>
<path d="M108.554 89.1506C108.554 90.7246 109.8 91.9706 111.374 91.9706C112.948 91.9706 114.195 90.7246 114.195 89.1506C114.195 87.5767 112.948 86.3307 111.374 86.3307C109.8 86.3307 108.554 87.5767 108.554 89.1506Z" fill="url(#paint10_linear_2182_729)"/>
<path d="M67.6257 98.4628C72.7697 98.4628 76.9398 94.2935 76.9398 89.1504C76.9398 84.0073 72.7697 79.838 67.6257 79.838C62.4816 79.838 58.3115 84.0073 58.3115 89.1504C58.3115 94.2935 62.4816 98.4628 67.6257 98.4628Z" fill="#2134A3"/>
<path d="M71.1983 92.7443C73.1707 90.7723 73.1707 87.575 71.1983 85.603C69.2259 83.631 66.0281 83.631 64.0557 85.603C62.0833 87.575 62.0833 90.7723 64.0557 92.7443C66.0281 94.7163 69.2259 94.7163 71.1983 92.7443Z" fill="#87A0FF"/>
<path d="M64.8701 89.1506C64.8701 90.7246 66.1164 91.9706 67.6906 91.9706C69.2648 91.9706 70.5111 90.7246 70.5111 89.1506C70.5111 87.5767 69.2648 86.3307 67.6906 86.3307C66.1164 86.3307 64.8701 87.5767 64.8701 89.1506Z" fill="url(#paint11_linear_2182_729)"/>
<path d="M117.016 55.0485C116.82 55.2452 116.557 55.3764 116.229 55.3764H100.881C100.356 55.3764 99.8312 55.7699 99.7656 56.2945L98.8473 61.0819C98.7161 61.6065 98.257 62 97.7322 62H92.8784C92.0257 62 91.4353 61.0819 91.8945 60.2949L95.4365 53.6057C95.6333 53.2122 96.0268 53.0155 96.4204 53.0155H116.229C117.279 53.0155 117.738 54.3271 117.016 55.0485Z" fill="#FECD07"/>
<path d="M60.2788 76.2963H95.9612L99.2409 58.852H50.9647L45.9141 66.9184L60.2788 76.2963Z" fill="url(#paint12_linear_2182_729)"/>
<path d="M51.883 60.7538L47.4227 67.9021L45.9141 66.9184L50.9647 58.852H99.2409L98.9129 60.7538H51.883Z" fill="#FECD07"/>
<path d="M181.822 48.8848C181.756 48.8848 181.691 48.8192 181.691 48.7536V20.423C181.691 20.3574 181.756 20.2918 181.822 20.2918C181.888 20.2918 181.953 20.3574 181.953 20.423V48.7536C181.953 48.8192 181.888 48.8848 181.822 48.8848ZM179.001 48.8848C178.936 48.8848 178.87 48.8192 178.87 48.7536V20.423C178.87 20.3574 178.936 20.2918 179.001 20.2918C179.067 20.2918 179.133 20.3574 179.133 20.423V48.7536C179.133 48.8192 179.067 48.8848 179.001 48.8848ZM176.181 48.8848C176.115 48.8848 176.05 48.8192 176.05 48.7536V20.423C176.05 20.3574 176.115 20.2918 176.181 20.2918C176.247 20.2918 176.312 20.3574 176.312 20.423V48.7536C176.312 48.8192 176.247 48.8848 176.181 48.8848Z" fill="#455FE8"/>
<path d="M237.773 91.9713H225.967C225.77 91.9713 225.639 91.7745 225.639 91.5778V8.88115C225.639 8.68441 225.77 8.48767 225.967 8.48767H237.773C237.97 8.48767 238.101 8.68441 238.101 8.88115V91.6434C238.101 91.7746 237.97 91.9713 237.773 91.9713ZM226.36 91.1843H237.511V9.20905H226.36V91.1843Z" fill="#455FE8"/>
<path d="M237.772 32.555H225.966C225.769 32.555 225.638 32.4239 225.638 32.2271C225.638 32.0304 225.769 31.8992 225.966 31.8992H237.772C237.969 31.8992 238.1 32.0304 238.1 32.2271C238.1 32.4239 237.969 32.555 237.772 32.555Z" fill="#455FE8"/>
<path d="M237.772 20.8167H225.966C225.769 20.8167 225.638 20.6855 225.638 20.4888C225.638 20.292 225.769 20.1609 225.966 20.1609H237.772C237.969 20.1609 238.1 20.292 238.1 20.4888C238.1 20.62 237.969 20.8167 237.772 20.8167Z" fill="#455FE8"/>
<path d="M237.772 44.4914H225.966C225.769 44.4914 225.638 44.3602 225.638 44.1635C225.638 43.9667 225.769 43.8356 225.966 43.8356H237.772C237.969 43.8356 238.1 43.9667 238.1 44.1635C238.1 44.2946 237.969 44.4914 237.772 44.4914Z" fill="#455FE8"/>
<path d="M237.772 56.3609H225.966C225.769 56.3609 225.638 56.2297 225.638 56.033C225.638 55.8362 225.769 55.7051 225.966 55.7051H237.772C237.969 55.7051 238.1 55.8362 238.1 56.033C238.1 56.2297 237.969 56.3609 237.772 56.3609Z" fill="#455FE8"/>
<path d="M237.772 68.2964H225.966C225.769 68.2964 225.638 68.1652 225.638 67.9685C225.638 67.7717 225.769 67.6406 225.966 67.6406H237.772C237.969 67.6406 238.1 67.7717 238.1 67.9685C238.1 68.0996 237.969 68.2964 237.772 68.2964Z" fill="#455FE8"/>
<path d="M237.772 79.9703H225.966C225.769 79.9703 225.638 79.8392 225.638 79.6424C225.638 79.4457 225.769 79.3145 225.966 79.3145H237.772C237.969 79.3145 238.1 79.4457 238.1 79.6424C238.1 79.8392 237.969 79.9703 237.772 79.9703Z" fill="#455FE8"/>
<path d="M237.773 32.5562C237.707 32.5562 237.576 32.5562 237.511 32.4907L225.704 20.6862C225.573 20.5551 225.573 20.3583 225.704 20.2272C225.835 20.096 226.032 20.096 226.163 20.2272L237.97 32.0316C238.101 32.1628 238.101 32.3595 237.97 32.4907C237.97 32.5562 237.904 32.5562 237.773 32.5562Z" fill="#455FE8"/>
<path d="M226.032 32.5551C225.966 32.5551 225.835 32.5551 225.769 32.4895C225.638 32.3583 225.638 32.1616 225.769 32.0304L237.576 20.226C237.707 20.0948 237.904 20.0948 238.035 20.226C238.166 20.3572 238.166 20.5539 238.035 20.6851L226.228 32.4895C226.163 32.5551 226.097 32.5551 226.032 32.5551Z" fill="#455FE8"/>
<path d="M237.773 20.8821C237.707 20.8821 237.576 20.8821 237.511 20.8165L225.704 9.01208C225.573 8.88092 225.573 8.68418 225.704 8.55302C225.835 8.42186 226.032 8.42186 226.163 8.55302L237.97 20.3575C238.101 20.4886 238.101 20.6854 237.97 20.8165C237.97 20.8821 237.904 20.8821 237.773 20.8821Z" fill="#455FE8"/>
<path d="M226.032 20.8823C225.966 20.8823 225.835 20.8823 225.769 20.8167C225.638 20.6855 225.638 20.4888 225.769 20.3576L237.576 8.5532C237.707 8.42204 237.904 8.42204 238.035 8.5532C238.166 8.68436 238.166 8.88111 238.035 9.01227L226.228 20.8167C226.163 20.8823 226.097 20.8823 226.032 20.8823Z" fill="#455FE8"/>
<path d="M237.773 44.4252C237.707 44.4252 237.576 44.4252 237.511 44.3596L225.704 32.5552C225.573 32.424 225.573 32.2273 225.704 32.0961C225.835 31.965 226.032 31.965 226.163 32.0961L237.97 43.9005C238.101 44.0317 238.101 44.2284 237.97 44.3596C237.97 44.4252 237.904 44.4252 237.773 44.4252Z" fill="#455FE8"/>
<path d="M226.032 44.4252C225.966 44.4252 225.835 44.4252 225.769 44.3596C225.638 44.2284 225.638 44.0317 225.769 43.9005L237.576 32.0961C237.707 31.965 237.904 31.965 238.035 32.0961C238.166 32.2273 238.166 32.424 238.035 32.5552L226.228 44.3596C226.163 44.4252 226.097 44.4252 226.032 44.4252Z" fill="#455FE8"/>
<path d="M237.773 56.2958C237.707 56.2958 237.576 56.2958 237.511 56.2302L225.704 44.4258C225.573 44.2946 225.573 44.0979 225.704 43.9667C225.835 43.8356 226.032 43.8356 226.163 43.9667L237.97 55.7712C238.101 55.9023 238.101 56.0991 237.97 56.2302C237.97 56.2302 237.904 56.2958 237.773 56.2958Z" fill="#455FE8"/>
<path d="M226.032 56.2958C225.966 56.2958 225.835 56.2958 225.769 56.2302C225.638 56.0991 225.638 55.9023 225.769 55.7712L237.576 43.9667C237.707 43.8356 237.904 43.8356 238.035 43.9667C238.166 44.0979 238.166 44.2946 238.035 44.4258L226.228 56.2302C226.163 56.2302 226.097 56.2958 226.032 56.2958Z" fill="#455FE8"/>
<path d="M237.773 68.1656C237.707 68.1656 237.576 68.1656 237.511 68.1L225.704 56.2956C225.573 56.1644 225.573 55.9677 225.704 55.8365C225.835 55.7054 226.032 55.7054 226.163 55.8365L237.97 67.641C238.101 67.7721 238.101 67.9689 237.97 68.1C237.97 68.1 237.904 68.1656 237.773 68.1656Z" fill="#455FE8"/>
<path d="M226.032 68.1656C225.966 68.1656 225.835 68.1656 225.769 68.1C225.638 67.9689 225.638 67.7721 225.769 67.641L237.576 55.8365C237.707 55.7054 237.904 55.7054 238.035 55.8365C238.166 55.9677 238.166 56.1644 238.035 56.2956L226.228 68.1C226.163 68.1 226.097 68.1656 226.032 68.1656Z" fill="#455FE8"/>
<path d="M237.773 79.9699C237.707 79.9699 237.576 79.9699 237.511 79.9043L225.704 68.0999C225.573 67.9687 225.573 67.772 225.704 67.6408C225.835 67.5096 226.032 67.5096 226.163 67.6408L237.97 79.4452C238.101 79.5764 238.101 79.7731 237.97 79.9043C237.97 79.9699 237.904 79.9699 237.773 79.9699Z" fill="#455FE8"/>
<path d="M226.032 79.9698C225.966 79.9698 225.835 79.9698 225.769 79.9042C225.638 79.7731 225.638 79.5763 225.769 79.4452L237.576 67.6407C237.707 67.5096 237.904 67.5096 238.035 67.6407C238.166 67.7719 238.166 67.9686 238.035 68.0998L226.228 79.9042C226.163 79.9698 226.097 79.9698 226.032 79.9698Z" fill="#455FE8"/>
<path d="M237.773 91.7747C237.707 91.7747 237.576 91.7747 237.511 91.7092L225.704 79.9047C225.573 79.7736 225.573 79.5768 225.704 79.4457C225.835 79.3145 226.032 79.3145 226.163 79.4457L237.97 91.2501C238.101 91.3813 238.101 91.578 237.97 91.7092C237.97 91.7092 237.904 91.7747 237.773 91.7747Z" fill="#455FE8"/>
<path d="M226.032 91.7745C225.966 91.7745 225.835 91.7745 225.769 91.7089C225.638 91.5778 225.638 91.381 225.769 91.2499L237.576 79.4454C237.707 79.3143 237.904 79.3143 238.035 79.4454C238.166 79.5766 238.166 79.7733 238.035 79.9045L226.228 91.7089C226.163 91.7089 226.097 91.7745 226.032 91.7745Z" fill="#455FE8"/>
<path d="M225.9 20.8822H166.867C166.736 20.8822 166.604 20.8166 166.539 20.6855C166.473 20.5543 166.539 20.4231 166.604 20.3576L178.411 8.55313C178.477 8.48755 178.542 8.48755 178.674 8.48755H225.9C226.097 8.48755 226.228 8.61871 226.228 8.81545V20.6199C226.228 20.751 226.097 20.8822 225.9 20.8822ZM167.654 20.2264H225.572V9.07777H178.805L167.654 20.2264Z" fill="#455FE8"/>
<path d="M202.483 20.8823C202.286 20.8823 202.155 20.7511 202.155 20.5544V8.81551C202.155 8.61877 202.286 8.48761 202.483 8.48761C202.68 8.48761 202.811 8.61877 202.811 8.81551V20.62C202.811 20.7511 202.614 20.8823 202.483 20.8823Z" fill="#455FE8"/>
<path d="M214.223 20.8823C214.027 20.8823 213.896 20.7511 213.896 20.5544V8.81551C213.896 8.61877 214.027 8.48761 214.223 8.48761C214.42 8.48761 214.551 8.61877 214.551 8.81551V20.62C214.551 20.7511 214.42 20.8823 214.223 20.8823Z" fill="#455FE8"/>
<path d="M190.545 20.8823C190.348 20.8823 190.217 20.7512 190.217 20.5544V8.81557C190.217 8.61883 190.348 8.48767 190.545 8.48767C190.742 8.48767 190.873 8.61883 190.873 8.81557V20.62C190.873 20.7512 190.742 20.8823 190.545 20.8823Z" fill="#455FE8"/>
<path d="M178.673 20.8823C178.476 20.8823 178.345 20.7512 178.345 20.5544V8.81557C178.345 8.61883 178.476 8.48767 178.673 8.48767C178.869 8.48767 179.001 8.61883 179.001 8.81557V20.62C179.001 20.7512 178.869 20.8823 178.673 20.8823Z" fill="#455FE8"/>
<path d="M202.483 20.8823C202.417 20.8823 202.286 20.8823 202.22 20.8167C202.089 20.6855 202.089 20.4888 202.22 20.3576L214.027 8.5532C214.158 8.42204 214.355 8.42204 214.486 8.5532C214.617 8.68436 214.617 8.88111 214.486 9.01227L202.68 20.8167C202.614 20.8823 202.548 20.8823 202.483 20.8823Z" fill="#455FE8"/>
<path d="M214.224 20.8823C214.158 20.8823 214.027 20.8823 213.962 20.8167L202.155 9.01227C202.024 8.88111 202.024 8.68436 202.155 8.5532C202.286 8.42204 202.483 8.42204 202.614 8.5532L214.421 20.3576C214.552 20.4888 214.552 20.6855 214.421 20.8167C214.421 20.8823 214.355 20.8823 214.224 20.8823Z" fill="#455FE8"/>
<path d="M214.159 20.8822C214.093 20.8822 213.962 20.8822 213.896 20.8166C213.765 20.6855 213.765 20.4887 213.896 20.3576L225.703 8.55314C225.834 8.42198 226.031 8.42198 226.162 8.55314C226.293 8.6843 226.293 8.88104 226.162 9.0122L214.355 20.8166C214.29 20.8822 214.224 20.8822 214.159 20.8822Z" fill="#455FE8"/>
<path d="M225.901 20.8823C225.835 20.8823 225.704 20.8823 225.638 20.8167L213.832 9.01227C213.701 8.88111 213.701 8.68436 213.832 8.5532C213.963 8.42204 214.16 8.42204 214.291 8.5532L226.098 20.3576C226.229 20.4888 226.229 20.6855 226.098 20.8167C226.098 20.8823 225.966 20.8823 225.901 20.8823Z" fill="#455FE8"/>
<path d="M190.61 20.8822C190.544 20.8822 190.413 20.8822 190.347 20.8166C190.216 20.6854 190.216 20.4887 190.347 20.3575L202.154 8.55308C202.285 8.42192 202.482 8.42192 202.613 8.55308C202.744 8.68424 202.744 8.88098 202.613 9.01214L190.807 20.8166C190.741 20.8822 190.675 20.8822 190.61 20.8822Z" fill="#455FE8"/>
<path d="M202.353 20.8823C202.287 20.8823 202.156 20.8823 202.091 20.8167L190.284 9.01227C190.153 8.88111 190.153 8.68436 190.284 8.5532C190.415 8.42204 190.612 8.42204 190.743 8.5532L202.55 20.3576C202.681 20.4888 202.681 20.6855 202.55 20.8167C202.55 20.8823 202.484 20.8823 202.353 20.8823Z" fill="#455FE8"/>
<path d="M178.739 20.8822C178.673 20.8822 178.542 20.8822 178.476 20.8166C178.345 20.6855 178.345 20.4887 178.476 20.3576L190.283 8.55314C190.414 8.42198 190.611 8.42198 190.742 8.55314C190.873 8.6843 190.873 8.88104 190.742 9.0122L178.935 20.8166C178.935 20.8822 178.804 20.8822 178.739 20.8822Z" fill="#455FE8"/>
<path d="M190.545 20.8822C190.48 20.8822 190.349 20.8822 190.283 20.8166L178.476 9.0122C178.345 8.88104 178.345 8.6843 178.476 8.55314C178.608 8.42198 178.804 8.42198 178.935 8.55314L190.742 20.3576C190.873 20.4887 190.873 20.6855 190.742 20.8166C190.677 20.8822 190.611 20.8822 190.545 20.8822Z" fill="#455FE8"/>
<path d="M251.81 98.5293H212.061C211.142 98.5293 210.486 97.8079 210.486 96.9554V92.7582C210.486 91.8401 211.208 91.1843 212.061 91.1843H251.81C252.728 91.1843 253.384 91.9057 253.384 92.7582V96.9554C253.384 97.8079 252.662 98.5293 251.81 98.5293Z" fill="url(#paint13_linear_2182_729)"/>
<path d="M179.789 53.344L184.052 51.311C184.708 50.9831 185.102 50.3273 185.102 49.6715V47.7697C185.102 47.0483 184.511 46.5237 183.855 46.5237H174.148C173.426 46.5237 172.901 47.1139 172.901 47.7697V49.6715C172.901 50.3929 173.295 51.0487 173.951 51.311L178.214 53.344H179.789Z" fill="url(#paint14_linear_2182_729)"/>
<path d="M181.428 58.5249C180.904 58.5249 180.51 58.9184 180.51 59.4431C180.51 60.23 179.854 60.9514 179.001 60.9514C178.214 60.9514 177.493 60.2956 177.493 59.4431C177.493 58.6561 178.149 57.9347 179.001 57.9347C179.526 57.9347 179.92 57.5412 179.92 57.0166V54.0655H178.083V56.2296C176.706 56.6231 175.656 57.9347 175.656 59.4431C175.656 61.2793 177.165 62.7877 179.001 62.7877C180.838 62.7877 182.347 61.2793 182.347 59.4431C182.347 58.9184 181.888 58.5249 181.428 58.5249Z" fill="url(#paint15_linear_2182_729)"/>
<path d="M180.445 55.1148H177.625C177.1 55.1148 176.641 54.6557 176.641 54.1311C176.641 53.6065 177.1 53.1474 177.625 53.1474H180.445C180.97 53.1474 181.429 53.6065 181.429 54.1311C181.429 54.6557 180.97 55.1148 180.445 55.1148Z" fill="#2134A3"/>
<path opacity="0.31" d="M196.974 94.8566H163.653C162.407 94.8566 161.357 93.8073 161.357 92.5612V74.3955C161.357 73.1495 162.407 72.1002 163.653 72.1002H196.974C198.22 72.1002 199.27 73.1495 199.27 74.3955V92.4957C199.27 93.8073 198.22 94.8566 196.974 94.8566Z" fill="#A5B3CE"/>
<path d="M195.137 93.6104H161.816C160.57 93.6104 159.521 92.5612 159.521 91.3151V73.215C159.521 71.969 160.57 70.9197 161.816 70.9197H195.137C196.384 70.9197 197.433 71.969 197.433 73.215V91.3151C197.433 92.5612 196.384 93.6104 195.137 93.6104Z" fill="white"/>
<path d="M189.496 70.9197C189.43 70.9197 189.43 70.9197 189.365 70.8541L179.067 60.8203C179.001 60.7547 179.001 60.6892 179.067 60.6236C179.132 60.558 179.198 60.558 179.264 60.6236L189.562 70.6574C189.627 70.7229 189.627 70.7885 189.562 70.8541C189.562 70.9197 189.496 70.9197 189.496 70.9197Z" fill="#455FE8"/>
<path d="M167.457 70.92C167.391 70.92 167.391 70.92 167.326 70.8544C167.26 70.7888 167.26 70.7233 167.326 70.6577L177.164 62.0011C177.23 61.9355 177.296 61.9355 177.361 62.0011C177.427 62.0667 177.427 62.1323 177.361 62.1978L167.522 70.8544C167.522 70.92 167.522 70.92 167.457 70.92Z" fill="#455FE8"/>
<g opacity="0.52">
<path d="M162.013 87.1185V77.2815C162.013 76.6257 162.537 76.101 163.193 76.101C165.555 76.101 170.671 76.101 173.032 76.101C173.688 76.101 174.213 76.6257 174.213 77.2815V87.1185C174.213 87.7743 173.688 88.2989 173.032 88.2989C170.671 88.2989 165.555 88.2989 163.193 88.2989C162.537 88.3645 162.013 87.8399 162.013 87.1185Z" fill="#D6ECF6"/>
<path d="M194.612 78.7245H176.509C176.312 78.7245 176.181 78.5934 176.181 78.3966C176.181 78.1999 176.312 78.0687 176.509 78.0687H194.612C194.809 78.0687 194.94 78.1999 194.94 78.3966C194.94 78.5934 194.809 78.7245 194.612 78.7245ZM194.94 80.364C194.94 80.1673 194.809 80.0361 194.612 80.0361H176.509C176.312 80.0361 176.181 80.1673 176.181 80.364C176.181 80.5608 176.312 80.6919 176.509 80.6919H194.612C194.809 80.6264 194.94 80.4952 194.94 80.364ZM194.94 82.2659C194.94 82.0691 194.809 81.938 194.612 81.938H176.509C176.312 81.938 176.181 82.0691 176.181 82.2659C176.181 82.4626 176.312 82.5938 176.509 82.5938H194.612C194.809 82.5938 194.94 82.397 194.94 82.2659ZM194.94 84.1677C194.94 83.9709 194.809 83.8398 194.612 83.8398H176.509C176.312 83.8398 176.181 83.9709 176.181 84.1677C176.181 84.3644 176.312 84.4956 176.509 84.4956H194.612C194.809 84.4956 194.94 84.3644 194.94 84.1677ZM194.94 86.0695C194.94 85.8728 194.809 85.7416 194.612 85.7416H176.509C176.312 85.7416 176.181 85.8728 176.181 86.0695C176.181 86.2663 176.312 86.3974 176.509 86.3974H194.612C194.809 86.3974 194.94 86.2663 194.94 86.0695Z" fill="#D6ECF6"/>
</g>
<path d="M229.771 97.7418H221.638L225.245 86.5931C225.376 86.1341 226.032 86.1341 226.164 86.5931L229.771 97.7418Z" fill="url(#paint16_linear_2182_729)"/>
<path d="M230.557 98.5285H220.85C220.653 98.5285 220.456 98.3317 220.456 98.135C220.456 97.9383 220.653 97.7415 220.85 97.7415H230.557C230.754 97.7415 230.951 97.9383 230.951 98.135C230.951 98.3317 230.754 98.5285 230.557 98.5285Z" fill="white"/>
<mask id="mask0_2182_729" style="mask-type:luminance" maskUnits="userSpaceOnUse" x="221" y="86" width="9" height="12">
<path d="M229.771 97.741H221.638L225.245 86.5924C225.376 86.1333 226.032 86.1333 226.164 86.5924L229.771 97.741Z" fill="white"/>
</mask>
<g mask="url(#mask0_2182_729)">
<path d="M230.033 95.7084H221.703V93.6099H230.033V95.7084ZM230.033 89.4127H221.703V91.5113H230.033V89.4127Z" fill="white"/>
</g>
<path d="M159.389 97.7418H151.256L154.863 86.5931C154.995 86.1341 155.651 86.1341 155.782 86.5931L159.389 97.7418Z" fill="#FECD07"/>
<path d="M160.176 98.5285H150.469C150.272 98.5285 150.075 98.3318 150.075 98.1351C150.075 97.9383 150.272 97.7416 150.469 97.7416H160.176C160.373 97.7416 160.57 97.9383 160.57 98.1351C160.57 98.3318 160.373 98.5285 160.176 98.5285Z" fill="white"/>
<path d="M159.389 97.7417H151.256L154.863 86.593C154.995 86.134 155.651 86.134 155.782 86.593L159.389 97.7417Z" fill="url(#paint17_linear_2182_729)"/>
<mask id="mask1_2182_729" style="mask-type:luminance" maskUnits="userSpaceOnUse" x="151" y="86" width="9" height="12">
<path d="M159.388 97.7413H151.255L154.862 86.5927C154.994 86.1336 155.65 86.1336 155.781 86.5927L159.388 97.7413Z" fill="white"/>
</mask>
<g mask="url(#mask1_2182_729)">
<path d="M159.651 95.7085H151.32V93.61H159.651V95.7085ZM159.651 89.4128H151.32V91.5114H159.651V89.4128Z" fill="white"/>
</g>
<path d="M269.914 97.7418H261.78L265.388 86.5931C265.519 86.1341 266.175 86.1341 266.306 86.5931L269.914 97.7418Z" fill="url(#paint18_linear_2182_729)"/>
<path d="M270.701 98.5285H260.993C260.796 98.5285 260.6 98.3318 260.6 98.1351C260.6 97.9383 260.796 97.7416 260.993 97.7416H270.701C270.898 97.7416 271.094 97.9383 271.094 98.1351C271.094 98.3318 270.963 98.5285 270.701 98.5285Z" fill="white"/>
<mask id="mask2_2182_729" style="mask-type:luminance" maskUnits="userSpaceOnUse" x="261" y="86" width="9" height="12">
<path d="M269.914 97.7413H261.78L265.388 86.5927C265.519 86.1336 266.175 86.1336 266.306 86.5927L269.914 97.7413Z" fill="white"/>
</mask>
<g mask="url(#mask2_2182_729)">
<path d="M270.177 95.7085H261.847V93.61H270.177V95.7085ZM270.177 89.4128H261.847V91.5114H270.177V89.4128Z" fill="white"/>
</g>
<path d="M262.534 94.1158V93.1976H237.937V94.1158H262.534Z" fill="#87A0FF"/>
<path d="M237.969 98.5279C237.575 98.5279 237.247 98.2 237.247 97.8065V76.0339C237.247 75.6404 237.575 75.3125 237.969 75.3125C238.362 75.3125 238.69 75.6404 238.69 76.0339V97.8065C238.69 98.2 238.362 98.5279 237.969 98.5279Z" fill="#87A0FF"/>
<path d="M238.952 98.5277H236.985C236.722 98.5277 236.525 98.3309 236.525 98.0686C236.525 97.8063 236.722 97.6096 236.985 97.6096H238.952C239.215 97.6096 239.411 97.8063 239.411 98.0686C239.411 98.2654 239.215 98.5277 238.952 98.5277Z" fill="#87A0FF"/>
<path d="M262.435 98.5279C262.042 98.5279 261.714 98.2 261.714 97.8065V76.0339C261.714 75.6404 262.042 75.3125 262.435 75.3125C262.829 75.3125 263.157 75.6404 263.157 76.0339V97.8065C263.157 98.2 262.829 98.5279 262.435 98.5279Z" fill="#87A0FF"/>
<path d="M263.419 98.5277H261.451C261.189 98.5277 260.992 98.3309 260.992 98.0686C260.992 97.8063 261.189 97.6096 261.451 97.6096H263.419C263.681 97.6096 263.878 97.8063 263.878 98.0686C263.878 98.2654 263.681 98.5277 263.419 98.5277Z" fill="#87A0FF"/>
<path d="M265.125 85.4123H234.821V76.8213H265.125V85.4123ZM265.125 86.4616H234.821V90.3964H265.125V86.4616Z" fill="#455FE8"/>
<mask id="mask3_2182_729" style="mask-type:luminance" maskUnits="userSpaceOnUse" x="234" y="76" width="32" height="10">
<path d="M265.124 76.8214H234.82V85.4124H265.124V76.8214Z" fill="white"/>
</mask>
<g mask="url(#mask3_2182_729)">
<path d="M231.148 96.9547H226.753L241.905 66.0665H246.3L231.148 96.9547ZM253.318 66.0665H248.923L233.771 96.9547H238.166L253.318 66.0665ZM260.336 66.0665H255.942L240.79 96.9547H245.184L260.336 66.0665ZM267.289 66.0665H262.894L247.743 96.9547H252.137L267.289 66.0665ZM274.308 66.0665H269.913L254.761 96.9547H259.156L274.308 66.0665Z" fill="url(#paint19_linear_2182_729)"/>
</g>
<mask id="mask4_2182_729" style="mask-type:luminance" maskUnits="userSpaceOnUse" x="234" y="86" width="32" height="5">
<path d="M265.124 86.4613H234.82V90.3961H265.124V86.4613Z" fill="white"/>
</mask>
<g mask="url(#mask4_2182_729)">
<path d="M231.148 96.9539H226.753L241.905 66.0656H246.3L231.148 96.9539ZM253.318 66.0656H248.923L233.771 96.9539H238.166L253.318 66.0656ZM260.336 66.0656H255.942L240.79 96.9539H245.184L260.336 66.0656ZM267.289 66.0656H262.894L247.743 96.9539H252.137L267.289 66.0656ZM274.308 66.0656H269.913L254.761 96.9539H259.156L274.308 66.0656Z" fill="url(#paint20_linear_2182_729)"/>
</g>
<path d="M198.614 81.8716C197.958 81.9372 197.434 81.5437 197.04 81.7404C196.647 81.9372 195.728 83.1176 197.565 83.052C199.401 82.9865 199.074 83.052 199.074 83.052L198.614 81.8716Z" fill="#FFC0B3"/>
<path d="M200.648 79.182C199.992 79.2475 199.467 78.8541 199.073 79.0508C198.68 79.2475 197.762 80.428 199.598 80.3624C201.435 80.2968 201.107 80.3624 201.107 80.3624L200.648 79.182Z" fill="#FFC0B3"/>
<path d="M204.911 81.0841C203.927 78.592 203.731 77.4771 203.271 77.2148C203.927 78.9199 203.665 80.3627 203.075 81.1496C202.484 82.0022 198.877 83.2482 198.877 83.2482L198.549 81.9366C198.549 81.9366 200.32 80.8217 201.238 80.0348C202.156 79.2478 199.402 74.1325 201.041 72.4275C201.041 72.4275 201.435 72.034 201.632 71.9028C202.878 70.9847 204.124 71.0503 204.124 71.0503C204.124 71.0503 207.994 71.247 210.552 78.5264C208.453 80.0348 207.404 80.1659 204.911 81.0841Z" fill="#455FE8"/>
<path d="M202.419 70.9191C202.681 71.5749 203.206 72.2963 203.206 72.6242C203.14 73.0833 202.484 73.3456 202.287 73.2144C201.828 72.821 201.435 71.9684 201.5 71.9028C201.566 71.8373 202.419 70.9191 202.419 70.9191Z" fill="#FFC0B3"/>
<path d="M199.139 70.4603C199.926 71.6407 201.894 73.1491 202.55 71.5096C203.271 69.8701 202.484 68.3617 202.484 68.3617C202.484 68.3617 197.237 64.886 199.139 70.4603Z" fill="#FFC0B3"/>
<path d="M201.829 70.5258C201.698 69.87 202.419 69.2797 202.616 69.87C202.747 70.5913 202.485 70.5258 202.485 70.7881C202.485 71.116 202.616 71.1816 202.681 71.3127C204.19 70.1979 203.075 66.9844 201.566 66.5909C200.845 66.1975 199.795 65.9351 198.746 67.1156C197.828 68.1649 198.418 69.0174 198.615 70.5913C200.714 70.329 200.582 69.3453 201.238 69.3453C201.566 69.4109 201.698 70.5913 201.829 70.5258Z" fill="#0B257A"/>
<path d="M203.6 79.4446C201.304 77.0181 200.845 72.2963 200.845 72.2963L201.304 72.034C201.304 72.034 202.419 75.5097 202.681 75.6409C203.272 75.9032 203.993 75.1818 203.993 75.1818C203.534 73.9358 203.272 72.6242 203.206 71.1159L203.731 70.9191C204.715 75.313 206.223 75.3786 207.929 77.9362L209.897 76.2967C209.897 76.2967 210.815 76.9525 211.143 80.1004C211.536 84.0352 212.192 87.8388 212.192 87.8388L216.259 96.0364L214.357 96.4298L209.503 88.7569L207.404 82.4613L206.682 88.9537L207.535 96.8233H205.502L203.731 88.8225C203.731 88.8225 204.256 85.0845 204.387 81.0185C203.928 79.0511 204.19 80.0348 203.6 79.4446Z" fill="url(#paint21_linear_2182_729)"/>
<path d="M204.912 75.9694L202.747 77.4121C202.747 77.4121 203.665 79.8386 204.256 79.6419C204.912 79.3795 206.814 78.1991 206.683 77.6744C206.617 77.1498 204.912 75.9694 204.912 75.9694Z" fill="#FB7C09"/>
<path d="M204.19 70.9848C208.257 71.3127 207.01 79.3135 206.486 80.1004C205.961 80.8874 200.451 80.7562 200.451 80.7562V78.9856C200.451 78.9856 204.256 78.9856 204.977 78.4609C205.633 77.9363 204.846 73.4113 204.846 73.4113L204.19 70.9848Z" fill="#455FE8"/>
<path d="M214.422 96.3645C214.422 96.3645 211.274 98.0696 211.471 98.3975C211.668 98.791 216.849 97.4794 216.981 97.217C217.112 96.8891 216.259 95.971 216.259 95.971L214.422 96.3645Z" fill="#0B257A"/>
<path d="M207.535 96.7578H205.502C205.502 96.7578 202.353 98.0038 202.484 98.3317C202.616 98.6596 207.797 98.7252 207.929 98.3973C208.06 98.0694 207.535 96.7578 207.535 96.7578Z" fill="#0B257A"/>
<path d="M203.272 68.7549C200.386 69.4107 198.222 70.0009 198.222 70.0009C197.959 70.0665 197.566 66.9842 199.73 66.394C202.748 65.5414 203.272 68.7549 203.272 68.7549Z" fill="#FEB605"/>
<path d="M198.09 69.5415C196.188 71.968 200.517 69.8694 200.911 69.4103L198.09 69.5415Z" fill="#FEB605"/>
<path d="M150.732 71.6412C151.716 71.051 153.094 70.1984 153.028 70.3952C153.028 70.5919 152.241 71.1166 152.175 71.3133C152.11 71.5101 152.635 71.838 152.569 72.0347C152.503 72.2314 150.732 73.0184 150.732 73.0184V71.6412Z" fill="#FFC0B3"/>
<path d="M144.041 75.7074C143.254 73.281 142.664 72.3628 142.86 71.8382C143.451 73.4777 144.172 74.6582 145.091 74.9205C146.009 75.1828 151.387 73.2154 151.387 73.2154L150.797 71.4447C150.797 71.4447 147.189 72.6907 146.074 72.6907C144.959 72.6907 143.844 67.2476 141.549 66.9853C141.549 66.9853 141.024 66.9197 140.761 66.9853C139.318 67.1164 138.4 67.9034 138.4 67.9034C138.4 67.9034 137.482 72.6907 137.351 77.1502C139.974 76.8879 141.614 76.56 144.041 75.7074Z" fill="#455FE8"/>
<path d="M139.384 66.1329C139.843 67.5101 139.777 68.4282 140.368 68.4282C140.958 68.4282 140.827 66.264 140.696 66.264C140.63 66.3296 139.384 66.1329 139.384 66.1329Z" fill="#FFC0B3"/>
<path d="M141.876 64.0336C141.876 65.4764 140.958 67.7717 139.515 66.7224C138.072 65.6731 137.94 64.0336 137.94 64.0336C137.94 64.0336 140.564 58.2625 141.876 64.0336Z" fill="#FFC0B3"/>
<path d="M139.056 65.0832C138.728 64.2307 137.678 65.0832 138.662 65.739C137.547 65.9358 136.694 63.1814 137.809 62.0009C138.269 61.2796 138.925 60.4926 140.499 60.9517C141.876 61.3451 141.745 62.3944 142.401 63.8372C140.433 64.6897 139.515 63.706 138.99 64.0995C138.728 64.2963 139.187 65.0832 139.056 65.0832Z" fill="#0B257A"/>
<path d="M144.238 74.7892C143.779 72.6907 141.942 66.9196 141.942 66.9196H141.549C141.549 66.9196 142.336 70.5921 142.073 70.7233C141.483 70.9856 139.909 71.1168 139.909 71.1168L139.056 67.2475L138.4 67.5754C138.4 67.5754 138.99 71.3135 139.056 73.1497C139.122 74.986 137.219 75.5762 137.219 75.5762C137.219 75.5762 137.154 78.8552 137.351 80.298C137.613 81.7407 138.334 87.1183 138.334 87.1183L136.563 97.0865H138.4L141.417 87.1183L141.811 80.1012L142.992 87.1183L143.647 96.8898L145.287 97.0209L145.943 86.5937C146.074 86.6593 144.697 76.8878 144.238 74.7892Z" fill="url(#paint22_linear_2182_729)"/>
<path d="M145.747 74.0023L144.698 78.7897C144.632 78.9864 144.829 79.1176 144.96 79.1176L148.502 78.7241C148.633 78.7241 148.699 78.6585 148.699 78.5274L149.617 73.8712C149.617 73.6744 149.486 73.5433 149.355 73.5433L145.944 73.8056C145.878 73.8056 145.813 73.9368 145.747 74.0023Z" fill="#FECD07"/>
<path d="M145.091 75.8386C145.681 75.9042 146.206 75.5107 146.599 75.7075C146.927 75.9042 147.846 77.0191 146.14 76.9535C144.435 76.8879 144.697 76.9535 144.697 76.9535L145.091 75.8386Z" fill="#FFC0B3"/>
<path d="M140.17 73.2155L142.597 72.6909C142.597 72.6909 143.712 74.9206 143.122 75.1829C142.532 75.4452 140.498 76.0354 140.17 75.642C139.842 75.1829 140.17 73.2155 140.17 73.2155Z" fill="#FB7C09"/>
<path d="M138.4 67.772C136.104 68.8869 135.842 75.6417 136.301 76.363C136.76 77.0844 145.156 77.4779 145.156 77.4779L145.418 75.5761C145.418 75.5761 139.122 74.9859 138.466 74.4612C137.81 74.0022 138.597 70.1985 138.597 70.1985L138.4 67.772Z" fill="#455FE8"/>
<path d="M138.597 96.5618C138.597 96.5618 141.68 98.0701 141.549 98.4636C141.484 98.8571 136.564 98.2013 136.367 97.9389C136.171 97.6766 136.761 96.6273 136.761 96.6273L138.597 96.5618Z" fill="#0B257A"/>
<path d="M143.713 96.9554L145.418 96.8898C145.418 96.8898 148.632 98.1359 148.501 98.4638C148.37 98.7917 143.582 98.7917 143.451 98.5293C143.319 98.2014 143.713 96.9554 143.713 96.9554Z" fill="#0B257A"/>
<path d="M137.416 64.7553C140.237 63.7716 142.401 63.1814 142.401 63.1814C142.598 63.1158 141.352 60.2959 139.187 60.8861C136.17 61.7386 137.416 64.7553 137.416 64.7553Z" fill="#FEB605"/>
<path d="M142.27 62.6567C145.156 63.7715 140.368 64.2306 139.777 63.9683L142.27 62.6567Z" fill="#FEB605"/>
<path d="M147.058 73.543L146.992 74.0021L148.829 73.8709L148.96 73.4119L147.058 73.543Z" fill="#87A0FF"/>
</g>
<defs>
<linearGradient id="paint0_linear_2182_729" x1="156.713" y1="107.14" x2="156.713" y2="79.405" gradientUnits="userSpaceOnUse">
<stop stop-color="#2134A3"/>
<stop offset="1" stop-color="#5351F0"/>
</linearGradient>
<linearGradient id="paint1_linear_2182_729" x1="157.468" y1="6.92964" x2="157.468" y2="78.3847" gradientUnits="userSpaceOnUse">
<stop offset="0.00060096" stop-color="#7DBCFF"/>
<stop offset="1" stop-color="#496DFF"/>
</linearGradient>
<linearGradient id="paint2_linear_2182_729" x1="74.2022" y1="85.1484" x2="74.2022" y2="65.1693" gradientUnits="userSpaceOnUse">
<stop stop-color="#2134A3"/>
<stop offset="1" stop-color="#5351F0"/>
</linearGradient>
<linearGradient id="paint3_linear_2182_729" x1="75.6001" y1="92.6599" x2="75.6001" y2="73.0063" gradientUnits="userSpaceOnUse">
<stop stop-color="#FECD07"/>
<stop offset="0.2528" stop-color="#FDBD07"/>
<stop offset="0.7431" stop-color="#FC9408"/>
<stop offset="1" stop-color="#FB7C09"/>
</linearGradient>
<linearGradient id="paint4_linear_2182_729" x1="127.976" y1="83.7358" x2="127.976" y2="74.131" gradientUnits="userSpaceOnUse">
<stop stop-color="#2134A3"/>
<stop offset="1" stop-color="#5351F0"/>
</linearGradient>
<linearGradient id="paint5_linear_2182_729" x1="113.788" y1="59.1396" x2="113.788" y2="89.1467" gradientUnits="userSpaceOnUse">
<stop stop-color="#FECD07"/>
<stop offset="0.2528" stop-color="#FDBD07"/>
<stop offset="0.7431" stop-color="#FC9408"/>
<stop offset="1" stop-color="#FB7C09"/>
</linearGradient>
<linearGradient id="paint6_linear_2182_729" x1="96.5242" y1="85.0814" x2="72.7966" y2="85.0814" gradientUnits="userSpaceOnUse">
<stop stop-color="#2134A3"/>
<stop offset="1" stop-color="#5351F0"/>
</linearGradient>
<linearGradient id="paint7_linear_2182_729" x1="90.2314" y1="82.8532" x2="140.54" y2="82.8532" gradientUnits="userSpaceOnUse">
<stop stop-color="#2134A3"/>
<stop offset="1" stop-color="#5351F0"/>
</linearGradient>
<linearGradient id="paint8_linear_2182_729" x1="111.368" y1="68.6088" x2="111.368" y2="94.5896" gradientUnits="userSpaceOnUse">
<stop offset="0.00060096" stop-color="#7DBCFF"/>
<stop offset="1" stop-color="#496DFF"/>
</linearGradient>
<linearGradient id="paint9_linear_2182_729" x1="67.6544" y1="68.6088" x2="67.6544" y2="94.5896" gradientUnits="userSpaceOnUse">
<stop offset="0.00060096" stop-color="#7DBCFF"/>
<stop offset="1" stop-color="#496DFF"/>
</linearGradient>
<linearGradient id="paint10_linear_2182_729" x1="111.366" y1="97.1082" x2="111.366" y2="82.5188" gradientUnits="userSpaceOnUse">
<stop stop-color="#2134A3"/>
<stop offset="1" stop-color="#5351F0"/>
</linearGradient>
<linearGradient id="paint11_linear_2182_729" x1="67.6541" y1="97.3211" x2="67.6541" y2="79.7458" gradientUnits="userSpaceOnUse">
<stop stop-color="#2134A3"/>
<stop offset="1" stop-color="#5351F0"/>
</linearGradient>
<linearGradient id="paint12_linear_2182_729" x1="72.5664" y1="49.4235" x2="72.5664" y2="81.1526" gradientUnits="userSpaceOnUse">
<stop stop-color="#FECD07"/>
<stop offset="0.2528" stop-color="#FDBD07"/>
<stop offset="0.7431" stop-color="#FC9408"/>
<stop offset="1" stop-color="#FB7C09"/>
</linearGradient>
<linearGradient id="paint13_linear_2182_729" x1="231.9" y1="113.271" x2="231.9" y2="77.2601" gradientUnits="userSpaceOnUse">
<stop stop-color="#2134A3"/>
<stop offset="1" stop-color="#5351F0"/>
</linearGradient>
<linearGradient id="paint14_linear_2182_729" x1="178.997" y1="43.7321" x2="178.997" y2="53.9459" gradientUnits="userSpaceOnUse">
<stop offset="0.00060096" stop-color="#87A0FF"/>
<stop offset="1" stop-color="#5351F0"/>
</linearGradient>
<linearGradient id="paint15_linear_2182_729" x1="178.997" y1="51.8362" x2="178.997" y2="63.4393" gradientUnits="userSpaceOnUse">
<stop stop-color="#FECD07"/>
<stop offset="0.2528" stop-color="#FDBD07"/>
<stop offset="0.7431" stop-color="#FC9408"/>
<stop offset="1" stop-color="#FB7C09"/>
</linearGradient>
<linearGradient id="paint16_linear_2182_729" x1="225.684" y1="83.3557" x2="225.684" y2="100.581" gradientUnits="userSpaceOnUse">
<stop stop-color="#FECD07"/>
<stop offset="0.2528" stop-color="#FDBD07"/>
<stop offset="0.7431" stop-color="#FC9408"/>
<stop offset="1" stop-color="#FB7C09"/>
</linearGradient>
<linearGradient id="paint17_linear_2182_729" x1="155.296" y1="84.2622" x2="155.296" y2="102.819" gradientUnits="userSpaceOnUse">
<stop stop-color="#FECD07"/>
<stop offset="0.2528" stop-color="#FDBD07"/>
<stop offset="0.7431" stop-color="#FC9408"/>
<stop offset="1" stop-color="#FB7C09"/>
</linearGradient>
<linearGradient id="paint18_linear_2182_729" x1="265.863" y1="81.7134" x2="265.863" y2="102.671" gradientUnits="userSpaceOnUse">
<stop stop-color="#FECD07"/>
<stop offset="0.2528" stop-color="#FDBD07"/>
<stop offset="0.7431" stop-color="#FC9408"/>
<stop offset="1" stop-color="#FB7C09"/>
</linearGradient>
<linearGradient id="paint19_linear_2182_729" x1="226.768" y1="81.5143" x2="274.294" y2="81.5143" gradientUnits="userSpaceOnUse">
<stop stop-color="#FECD07"/>
<stop offset="0.2528" stop-color="#FDBD07"/>
<stop offset="0.7431" stop-color="#FC9408"/>
<stop offset="1" stop-color="#FB7C09"/>
</linearGradient>
<linearGradient id="paint20_linear_2182_729" x1="226.768" y1="81.5134" x2="274.294" y2="81.5134" gradientUnits="userSpaceOnUse">
<stop stop-color="#FECD07"/>
<stop offset="0.2528" stop-color="#FDBD07"/>
<stop offset="0.7431" stop-color="#FC9408"/>
<stop offset="1" stop-color="#FB7C09"/>
</linearGradient>
<linearGradient id="paint21_linear_2182_729" x1="204.938" y1="72.9825" x2="210.961" y2="96.5751" gradientUnits="userSpaceOnUse">
<stop stop-color="#FECD07"/>
<stop offset="0.2528" stop-color="#FDBD07"/>
<stop offset="0.7431" stop-color="#FC9408"/>
<stop offset="1" stop-color="#FB7C09"/>
</linearGradient>
<linearGradient id="paint22_linear_2182_729" x1="141.266" y1="64.1293" x2="141.381" y2="92.9079" gradientUnits="userSpaceOnUse">
<stop stop-color="#FECD07"/>
<stop offset="0.2528" stop-color="#FDBD07"/>
<stop offset="0.7431" stop-color="#FC9408"/>
<stop offset="1" stop-color="#FB7C09"/>
</linearGradient>
<clipPath id="clip0_2182_729">
<rect width="325.405" height="184.266" fill="white" transform="translate(0.393555 0.945679)"/>
</clipPath>
</defs>
</svg>
