<svg width="18" height="18" viewBox="0 0 18 18" fill="none" xmlns="http://www.w3.org/2000/svg">
<path fill-rule="evenodd" clip-rule="evenodd" d="M11.5116 0H13.186C14.7647 0 15.554 0 16.0445 0.508152C16.5349 1.0163 16.5349 1.83416 16.5349 3.46988V16.6988H17.3721C17.7189 16.6988 18 16.9901 18 17.3494C18 17.7087 17.7189 18 17.3721 18H0.627907C0.281124 18 0 17.7087 0 17.3494C0 16.9901 0.281124 16.6988 0.627907 16.6988H1.46512V6.07229C1.46512 4.43657 1.46512 3.61871 1.95554 3.11056C2.44597 2.60241 3.2353 2.60241 4.81395 2.60241H8.16279C9.74145 2.60241 10.5308 2.60241 11.0212 3.11056C11.5116 3.61871 11.5116 4.43657 11.5116 6.07229V16.6988H12.7674V6.07229L12.7674 5.99466C12.7675 5.24375 12.7676 4.55527 12.6949 3.99521C12.6149 3.37847 12.4266 2.72661 11.9092 2.19047C11.3918 1.65433 10.7626 1.45925 10.1674 1.37633C9.63451 1.30209 8.98112 1.30112 8.26828 1.3012C8.33886 0.965273 8.45664 0.711834 8.65322 0.508152C9.14364 0 9.93297 0 11.5116 0ZM3.34884 5.20482C3.34884 4.8455 3.62996 4.55422 3.97674 4.55422H9C9.34678 4.55422 9.62791 4.8455 9.62791 5.20482C9.62791 5.56414 9.34678 5.85542 9 5.85542H3.97674C3.62996 5.85542 3.34884 5.56414 3.34884 5.20482ZM3.34884 7.80723C3.34884 7.44791 3.62996 7.15663 3.97674 7.15663H9C9.34678 7.15663 9.62791 7.44791 9.62791 7.80723C9.62791 8.16655 9.34678 8.45783 9 8.45783H3.97674C3.62996 8.45783 3.34884 8.16655 3.34884 7.80723ZM3.34884 10.4096C3.34884 10.0503 3.62996 9.75904 3.97674 9.75904H9C9.34678 9.75904 9.62791 10.0503 9.62791 10.4096C9.62791 10.769 9.34678 11.0602 9 11.0602H3.97674C3.62996 11.0602 3.34884 10.769 3.34884 10.4096ZM6.48837 14.0964C6.83516 14.0964 7.11628 14.3877 7.11628 14.747V16.6988H5.86046V14.747C5.86046 14.3877 6.14159 14.0964 6.48837 14.0964Z" fill="#F1F5F9"/>
</svg>
