<svg width="16" height="15" viewBox="0 0 16 15" fill="none" xmlns="http://www.w3.org/2000/svg">
<path d="M15.5 7.60275V12.2917C15.5 13.7874 14.2874 15 12.7917 15H12.6491C11.2321 15 10.0833 13.8513 10.0833 12.4342V11.9517C10.0833 10.8012 9.1506 9.86841 8.00001 9.86841C6.84942 9.86841 5.91668 10.8012 5.91668 11.9517V12.4342C5.91668 13.8512 4.76794 15 3.3509 15H3.20835C1.71258 15 0.500009 13.7874 0.500008 12.2917L0.500004 7.60276L0.500004 7.60273C0.500002 6.13449 0.5 5.40036 0.727022 4.75557C0.92774 4.18548 1.25504 3.66828 1.68433 3.24284C2.16987 2.76164 2.83334 2.44737 4.16026 1.81883L4.16026 1.81883L5.26029 1.29777C6.26695 0.820933 6.77028 0.582515 7.29593 0.488519C7.76164 0.405242 8.23844 0.405243 8.70415 0.488522C9.2298 0.58252 9.73312 0.820939 10.7398 1.29778L10.7398 1.29778L11.8398 1.81882C13.1667 2.44737 13.8301 2.76164 14.3157 3.24283C14.745 3.66828 15.0723 4.18547 15.273 4.75556C15.5 5.40036 15.5 6.13449 15.5 7.60275Z" fill="#0341A3"/>
</svg>
