<svg width="18" height="19" viewBox="0 0 18 19" fill="none" xmlns="http://www.w3.org/2000/svg">
<path d="M16.5 9.60275V14.2917C16.5 15.7874 15.2874 17 13.7917 17H13.6491C12.2321 17 11.0833 15.8513 11.0833 14.4342V13.9517C11.0833 12.8012 10.1506 11.8684 9.00001 11.8684C7.84942 11.8684 6.91668 12.8012 6.91668 13.9517V14.4342C6.91668 15.8512 5.76794 17 4.3509 17H4.20835C2.71258 17 1.50001 15.7874 1.50001 14.2917L1.5 9.60276L1.5 9.60273C1.5 8.13449 1.5 7.40036 1.72702 6.75557C1.92774 6.18548 2.25504 5.66828 2.68433 5.24284C3.16987 4.76164 3.83334 4.44737 5.16026 3.81883L5.16026 3.81883L6.26029 3.29777C7.26695 2.82093 7.77028 2.58251 8.29593 2.48852C8.76164 2.40524 9.23844 2.40524 9.70415 2.48852C10.2298 2.58252 10.7331 2.82094 11.7398 3.29778L11.7398 3.29778L12.8398 3.81882C14.1667 4.44737 14.8301 4.76164 15.3157 5.24283C15.745 5.66828 16.0723 6.18547 16.273 6.75556C16.5 7.40036 16.5 8.13449 16.5 9.60275Z" fill="white"/>
</svg>
