<?xml version="1.0" encoding="UTF-8"?>
<svg xmlns="http://www.w3.org/2000/svg" xmlns:xlink="http://www.w3.org/1999/xlink" viewBox="0 0 123.95 40.14">
  <defs>
    <style>
      .cls-1 {
        isolation: isolate;
      }

      .cls-2 {
        opacity: .6;
      }

      .cls-2, .cls-3 {
        fill: url(#_10_ppp_10_);
        mix-blend-mode: soft-light;
      }

      .cls-3 {
        opacity: .8;
      }

      .cls-4 {
        fill: none;
      }

      .cls-5 {
        fill: #ffdf8d;
      }

      .cls-6 {
        fill: #1d1d1b;
      }
    </style>
    <pattern id="_10_ppp_10_" data-name="10 ppp 10%" x="0" y="0" width="28.8" height="28.8" patternTransform="translate(387.47 30.82)" patternUnits="userSpaceOnUse" viewBox="0 0 28.8 28.8">
      <g>
        <rect class="cls-4" x="0" width="28.8" height="28.8"/>
        <path class="cls-6" d="m28.8,29.52c.4,0,.72-.32.72-.72s-.32-.72-.72-.72-.72.32-.72.72.32.72.72.72Z"/>
        <path class="cls-6" d="m14.4,29.52c.4,0,.72-.32.72-.72s-.32-.72-.72-.72-.72.32-.72.72.32.72.72.72Z"/>
        <path class="cls-6" d="m0,29.52c.4,0,.72-.32.72-.72s-.32-.72-.72-.72-.72.32-.72.72.32.72.72.72Z"/>
        <path class="cls-6" d="m28.8,15.12c.4,0,.72-.32.72-.72s-.32-.72-.72-.72-.72.32-.72.72.32.72.72.72Z"/>
        <path class="cls-6" d="m14.4,15.12c.4,0,.72-.32.72-.72s-.32-.72-.72-.72-.72.32-.72.72.32.72.72.72Z"/>
        <path class="cls-6" d="m0,15.12c.4,0,.72-.32.72-.72s-.32-.72-.72-.72-.72.32-.72.72.32.72.72.72Z"/>
        <circle class="cls-6" cx="28.8" r=".72"/>
        <circle class="cls-6" cx="14.4" r=".72"/>
        <path class="cls-6" d="m0,.72c.4,0,.72-.32.72-.72s-.32-.72-.72-.72-.72.32-.72.72.32.72.72.72Z"/>
        <circle class="cls-6" cx="-14.4" r=".72"/>
        <path class="cls-6" d="m-14.4,0"/>
        <path class="cls-6" d="m7.2,22.32c.4,0,.72-.32.72-.72s-.32-.72-.72-.72-.72.32-.72.72.32.72.72.72Z"/>
        <path class="cls-6" d="m21.6,22.32c.4,0,.72-.32.72-.72s-.32-.72-.72-.72-.72.32-.72.72.32.72.72.72Z"/>
        <path class="cls-6" d="m7.2,7.92c.4,0,.72-.32.72-.72s-.32-.72-.72-.72-.72.32-.72.72.32.72.72.72Z"/>
        <path class="cls-6" d="m21.6,7.92c.4,0,.72-.32.72-.72s-.32-.72-.72-.72-.72.32-.72.72.32.72.72.72Z"/>
        <path class="cls-6" d="m-7.2,7.92c.4,0,.72-.32.72-.72s-.32-.72-.72-.72-.72.32-.72.72.32.72.72.72Z"/>
        <path class="cls-6" d="m-7.2,7.2"/>
      </g>
    </pattern>
  </defs>
  <g class="cls-1">
    <g id="Layer_1" data-name="Layer 1">
      <g>
        <path class="cls-5" d="m60.2,10.03h0c0-5.54,4.49-10.03,10.03-10.03h53.71v40.14H10.03c-5.54,0-10.03-4.49-10.03-10.03h0c0-5.54,4.49-10.03,10.03-10.03h40.14c5.54,0,10.03-4.49,10.03-10.03Z"/>
        <path class="cls-2" d="m60.2,10.03h0c0-5.54,4.49-10.03,10.03-10.03h53.71v40.14H10.03c-5.54,0-10.03-4.49-10.03-10.03h0c0-5.54,4.49-10.03,10.03-10.03h40.14c5.54,0,10.03-4.49,10.03-10.03Z"/>
        <path class="cls-3" d="m60.2,10.03h0c0-5.54,4.49-10.03,10.03-10.03h53.71v40.14H10.03c-5.54,0-10.03-4.49-10.03-10.03h0c0-5.54,4.49-10.03,10.03-10.03h40.14c5.54,0,10.03-4.49,10.03-10.03Z"/>
      </g>
    </g>
  </g>
</svg>