<svg width="100" height="100" viewBox="0 0 100 100" fill="none" xmlns="http://www.w3.org/2000/svg">
<rect width="99.6208" height="99.6208" rx="16" fill="#D9D9D9"/>
<mask id="mask0_1801_3570" style="mask-type:luminance" maskUnits="userSpaceOnUse" x="15" y="7" width="75" height="87">
<path d="M22.1897 16.3457C7.60924 25.3019 18.376 84.0783 26.678 88.7783C34.9801 93.4784 67.8511 95.75 79.5258 88.4389C91.2006 81.1277 93.2761 33.0831 80.823 18.4608C68.3699 3.83846 43.4638 3.29013 22.1897 16.3457Z" fill="white"/>
</mask>
<g mask="url(#mask0_1801_3570)">
<path d="M72.5961 51.6483C72.3388 51.9331 72.056 52.0382 71.773 51.989C71.7683 51.9882 71.7638 51.9879 71.759 51.9872C71.7172 51.9804 71.6862 51.9948 71.6838 52.0371C71.6438 52.7423 71.5897 53.4466 71.5323 54.1282C71.5031 54.4747 71.7295 54.8078 72.0772 54.8078C72.1031 54.8078 72.1291 54.8078 72.181 54.8078C74.5419 54.8078 76.5395 52.1183 76.6174 48.8022C76.6739 46.5564 74.3959 46.9245 73.7467 49.0751C73.3788 50.294 72.9902 51.2036 72.5961 51.6483Z" fill="#FFDDAA"/>
<path d="M32.3302 53.8758C32.2866 53.5921 32.0948 53.3523 31.8977 53.1437C31.2425 52.4503 30.5837 50.8079 30.01 48.8566C29.405 46.7989 27.1225 46.4229 27.0649 48.567C27.013 50.212 27.4281 51.7786 28.2324 52.9798C29.0107 54.1286 30.1003 54.8075 31.2419 54.8337C31.2678 54.8337 31.2937 54.8337 31.3456 54.8337C31.4531 54.8337 31.5606 54.8268 31.6681 54.8144C32.1174 54.7627 32.3988 54.3227 32.3302 53.8758Z" fill="#FFDDAA"/>
<path d="M51.1115 72.5166C52.0426 72.9373 53.0949 72.9317 54.0241 72.5068C55.7185 71.7321 57.8182 70.3176 58.6726 69.7229C58.8638 69.5897 58.9679 69.3762 58.9593 69.1433C58.9433 68.7086 58.5254 68.4047 58.1058 68.519C56.1337 69.0564 54.0341 69.3779 51.8946 69.3779C50.2864 69.3779 48.5524 69.1882 46.8246 68.8468C46.5229 68.7871 46.243 69.006 46.2309 69.3133C46.2239 69.4917 46.305 69.6721 46.4541 69.7703C47.3333 70.3494 49.4204 71.7524 51.1115 72.5166Z" fill="#FFDDAA"/>
<path d="M34.5895 62.0924C36.224 65.3041 45.3044 68.8291 51.8941 68.8291C60.4556 68.8291 68.8615 63.2935 70.003 60.4213C70.2628 59.7439 70.4849 58.6176 70.6695 57.2392C71.1601 53.5743 70.4724 49.6375 70.315 45.9432C70.3062 45.7344 70.2973 45.521 70.2884 45.3029C70.1586 42.1173 70.0289 38.514 68.9393 37.6262C65.2552 34.7017 59.366 33.2134 51.4531 33.2134C41.4647 33.2134 35.6273 36.6078 34.0966 37.6262C33.1885 38.2267 33.3442 42.6656 33.448 46.2168C33.5777 50.1335 33.6296 52.5618 33.0329 53.2146C32.9215 53.3641 32.7935 53.5319 32.8213 53.7163C33.4034 57.5789 34.0087 60.9488 34.5895 62.0924Z" fill="#FFDDAA"/>
<path d="M58.3122 78.539C58.3528 78.3318 58.1495 78.1512 57.9384 78.1512C57.8087 78.1512 57.7049 78.1251 57.6011 78.0729C56.9178 77.7603 56.0988 77.8608 55.5667 78.3914C55.2838 78.6735 55.0727 79.0703 55.0962 79.4692L55.9166 93.4081C55.9302 93.6402 56.1187 93.8235 56.3511 93.8309C56.5874 93.8383 56.7859 93.661 56.7943 93.4248C56.8018 93.2143 56.8081 92.9719 56.8228 92.7213C56.9238 90.0524 57.1969 84.241 58.3122 78.539Z" fill="white"/>
<path d="M50.8874 79.8258C50.9328 79.278 50.6189 78.7462 50.2062 78.3831C49.4977 77.7599 48.4307 77.6205 47.5889 78.047C47.5709 78.0561 47.5533 78.0646 47.5364 78.0725C47.4326 78.1247 47.3289 78.1508 47.1992 78.1508C47.0252 78.1508 46.8755 78.2881 46.9101 78.4586C48.0659 84.1695 48.3169 90.0357 48.4185 92.7209C48.4255 92.8121 48.4306 92.9014 48.4348 92.9878C48.4522 93.3433 48.7365 93.614 49.0923 93.6212C49.4704 93.6288 49.7877 93.3415 49.8155 92.9644C50.0341 90.0066 50.6055 83.225 50.8874 79.8258Z" fill="white"/>
<path d="M54.6619 80.7802C54.6161 80.0063 53.7577 79.5091 52.9825 79.5091C52.9046 79.5091 52.8528 79.5091 52.7749 79.5091C52.1181 79.4702 51.4192 79.8752 51.3631 80.5307C51.0373 84.3383 50.641 89.0766 50.4146 91.9238C50.3045 93.3084 51.3474 94.4353 52.7362 94.4561C54.2138 94.4781 55.3987 93.2398 55.3115 91.7645L54.6619 80.7802Z" fill="#ED343A"/>
<path d="M54.6582 78.4753C55.675 77.8035 55.3402 76.3748 54.4411 75.5523C54.3896 75.5052 54.3384 75.4582 54.2877 75.4115C53.3172 74.519 51.9967 74.3473 51.0278 75.2416C50.2409 75.968 49.7845 77.3278 50.5987 78.0234C51.2197 78.554 52.003 78.9423 52.8027 78.9862C52.8546 78.9862 52.9324 78.9862 52.9843 78.9862C53.6314 78.9862 54.1921 78.7834 54.6582 78.4753Z" fill="#ED343A"/>
<path d="M46.5393 76.8941C46.6294 77.2878 46.9415 77.7843 47.3023 77.6028C47.6383 77.4443 48.2507 76.9691 48.9604 76.3645C50.4005 75.1375 49.8938 72.5471 48.2825 71.5554C47.7745 71.2428 47.3028 70.9364 46.9075 70.6727C46.4238 70.3502 45.763 70.5082 45.4369 70.9896C45.2564 71.256 45.0877 71.4835 44.9594 71.6519C44.949 71.6655 44.9504 71.6846 44.9625 71.6967C44.9657 71.7 44.9682 71.7038 44.9699 71.7081C45.62 73.3216 46.1245 75.0815 46.5393 76.8941Z" fill="white"/>
<path d="M41.29 82.6074C41.5479 81.6881 40.5664 81.0512 40.0627 80.24C38.8572 78.3334 36.5709 76.8858 34.4398 77.6255C33.2655 78.033 32.247 78.4946 31.6828 78.9867C30.6919 79.8545 29.7202 82.913 28.9607 85.9763C28.0376 89.6993 30.876 93.1639 34.7089 93.3111C38.9476 93.4738 42.3021 89.5155 41.6029 85.3317C41.3858 84.0328 41.2391 83.122 41.2302 83.0862C41.212 82.9638 41.2365 82.7984 41.29 82.6074Z" fill="#A5656A"/>
<path d="M47.8997 92.7472C47.7889 90.0725 47.5338 84.2793 46.4057 78.6294C45.6401 74.7947 40.9435 72.4752 38.8452 75.7749C38.6608 76.0618 39.0506 77.1338 39.5806 78.244C40.1433 79.4227 41.1557 80.1617 42.4509 79.9934C42.5462 79.981 42.6417 79.9674 42.7368 79.9527C42.8406 79.9266 42.9444 79.9788 42.9963 80.0572C43.0482 80.1355 43.0482 80.2661 42.9963 80.3444C42.4514 81.2322 41.6731 82.6683 41.751 83.06C41.9061 84.2047 43.5292 93.7737 43.9259 94.4892C43.9295 94.4957 43.9332 94.4992 43.9374 94.5054C43.9673 94.5495 44.0018 94.5973 44.0549 94.5928L46.4658 94.3893C47.2804 94.3205 47.9205 93.5645 47.8997 92.7472Z" fill="#A5656A"/>
<path d="M60.007 72.3874C60.1526 71.9926 60.1756 71.6672 59.9304 71.3252C59.5107 70.7397 58.6147 70.4216 58.0144 70.82C57.6734 71.0463 57.2871 71.2966 56.8765 71.551C55.2722 72.5453 54.7575 75.1558 56.1949 76.379C56.8974 76.9768 57.5026 77.4455 57.8359 77.6028C58.2654 77.8189 58.6178 77.1976 58.7254 76.7289C59.0689 75.2328 59.4999 73.763 60.007 72.3874Z" fill="#D7E5EC"/>
<path d="M70.7737 77.6023C68.6445 76.8574 66.3573 78.307 65.1518 80.2137C64.6879 81.0073 63.6902 81.7022 63.9271 82.5904C63.9793 82.7859 64.0026 82.9569 63.9843 83.0859C63.9843 83.1126 63.8429 84.0022 63.6287 85.2806C62.9229 89.4934 66.2894 93.4726 70.5578 93.3088C74.3827 93.162 77.2036 89.7391 76.285 86.0233C75.5238 82.9443 74.5406 79.8587 73.5317 78.9864C72.9674 78.4816 71.9484 78.0133 70.7737 77.6023Z" fill="#A5656A"/>
<path d="M73.8939 78.5951C72.7111 77.5504 69.8214 76.6865 67.4398 76.1297C67.1334 76.0581 66.9724 75.7581 66.8112 75.4878C66.4933 74.9678 63.801 73.0998 62.0101 72.113C61.2009 71.6671 60.3852 71.1311 59.8952 70.3478C59.8133 70.217 59.7318 70.0803 59.6537 69.9399C59.5446 69.7437 59.4894 69.5445 59.4782 69.3203C59.4423 68.6049 59.9065 67.9528 60.578 67.7033C65.7384 65.7864 69.6967 62.6519 70.4953 60.6305C70.8715 59.7077 71.1411 57.9699 71.3622 55.9032C71.3988 55.5601 71.7328 55.3299 72.0779 55.3299C72.1038 55.3299 72.1557 55.3299 72.1816 55.3299C74.8539 55.3299 77.0332 52.4838 77.1369 48.8282C77.2649 44.9215 75.4347 40.8138 75.7591 36.9184C76.0062 33.9517 76.0752 31.1585 75.8916 29.2187C75.2171 22.1425 59.5729 18.1214 51.3487 17.5731C47.8203 17.3381 44.1622 17.2858 40.6079 17.2336C35.2375 17.1553 30.5676 17.1031 28.1288 16.3458C27.6359 16.1892 27.1949 16.1108 26.8576 16.1108C25.8977 16.1108 25.6382 16.6592 25.5604 16.9986C25.4077 17.7862 25.9852 18.913 26.8899 19.8591C27.1911 20.174 26.982 20.7586 26.5463 20.7586C24.808 20.7586 22.4471 20.837 20.9683 21.1764C20.0343 21.4114 19.9306 22.012 19.9565 22.3514C20.273 27.1295 26.7968 29.9937 27.5348 34.725C27.8981 37.0541 28.2396 39.3812 28.4142 40.9426C28.5751 42.3459 28.043 43.7446 27.4185 45.0115C26.9206 46.0216 26.6177 47.2277 26.5722 48.541C26.5203 50.2905 26.9614 51.9877 27.8435 53.241C28.7256 54.5466 29.9449 55.2777 31.2681 55.3299C31.294 55.3299 31.3459 55.3299 31.3718 55.3299C32.0013 55.3299 32.6248 55.697 32.7273 56.3181C33.189 59.1149 33.6684 61.4087 34.1478 62.3277C35.3454 64.6881 40.0698 67.1208 45.1371 68.4186C45.4924 68.5096 45.7508 68.8276 45.7362 69.1941C45.7328 69.2772 45.7282 69.3609 45.7218 69.4447C45.72 69.4689 45.7009 69.4895 45.6944 69.5129C45.6902 69.5279 45.6894 69.5417 45.6826 69.5557C45.5348 69.8591 45.3619 70.1563 45.1904 70.4262C44.7106 71.1814 43.9406 71.7013 43.1587 72.1363C41.3778 73.1268 38.7522 74.9528 38.4286 75.4617C38.2671 75.7326 38.1077 76.0341 37.8011 76.1082C35.4224 76.6829 32.553 77.5242 31.3459 78.5689C29.1714 80.49 27.2894 91.2205 27.041 92.7914C27.0205 92.9214 26.9829 93.0658 27.0579 93.1739C27.1339 93.2833 27.3016 93.3013 27.4108 93.2249C27.4666 93.1857 27.5062 93.1265 27.5062 93.0607V93.0346C27.7397 91.3896 29.6595 80.7362 31.6832 78.9867C32.2565 78.4849 33.273 78.0253 34.4391 77.6224C36.5698 76.8862 38.8583 78.3347 40.0631 80.2401C40.5269 81.0337 41.5246 81.7286 41.2877 82.6169C41.2356 82.8124 41.2122 82.9833 41.2305 83.1123C41.2305 83.1906 42.4499 90.7107 43.1504 93.6612C43.2801 94.2357 43.4098 94.6274 43.4877 94.7579C43.5395 94.8363 43.6174 94.8885 43.6952 94.8885C43.7929 94.8885 43.8762 94.8111 43.9211 94.7244C43.9425 94.6832 43.9546 94.6391 43.9546 94.6012C43.9546 94.5275 43.91 94.4667 43.884 94.3976C43.4283 93.188 41.8997 84.1693 41.7494 83.0601C41.6975 82.6684 42.4499 81.2323 42.9947 80.3445C43.0466 80.2662 43.0466 80.1356 42.9947 80.0573C42.9428 79.9789 42.8391 79.9267 42.7353 79.9528C42.6396 79.9701 42.5434 79.9858 42.4475 79.9998C41.1552 80.1892 40.1417 79.4228 39.579 78.2441C39.0491 77.1339 38.6593 76.0619 38.8437 75.775C40.9058 72.4544 45.6357 74.7969 46.4011 78.63C47.5318 84.2927 47.7873 90.0887 47.8981 92.7473C47.9463 93.693 47.9497 94.0532 47.9915 94.2253C47.9975 94.2498 48.0021 94.275 48.0132 94.2976C48.0264 94.3244 48.0325 94.355 48.0481 94.3805C48.113 94.4861 48.2494 94.5434 48.3651 94.4968C48.4948 94.4446 48.5727 94.2879 48.5208 94.1573C48.4948 94.1051 48.4948 93.8962 48.4689 93.6351C48.4689 93.4001 48.4429 93.0868 48.417 92.7473C48.29 90.0622 48.0385 84.1961 46.907 78.4853C46.8731 78.3143 47.0233 78.1773 47.1976 78.1773C47.3274 78.1773 47.4311 78.1512 47.5349 78.0989C47.5557 78.0893 47.5775 78.0785 47.6 78.0667C48.4372 77.6284 49.4855 77.7731 50.1931 78.3993C50.6116 78.7697 50.9308 79.3105 50.8841 79.8673C50.5739 83.5631 49.9065 91.223 49.7401 93.6873C49.7142 94.1051 49.6883 94.3662 49.6883 94.4446C49.6883 94.6012 49.792 94.7057 49.9477 94.7057C50.0774 94.7057 50.2071 94.6012 50.2071 94.4446C50.2071 94.0099 50.8729 86.2272 51.3423 80.557C51.3965 79.9025 52.094 79.4962 52.7496 79.5351C52.8275 79.5351 52.8794 79.5351 52.9572 79.5351C53.7481 79.5351 54.5896 80.0139 54.6362 80.8034L55.4478 94.549V94.5751C55.4478 94.7057 55.5775 94.8101 55.7072 94.8101C55.7072 94.8101 55.7072 94.8101 55.7332 94.8101C55.8889 94.8101 55.9926 94.6796 55.9667 94.5229L55.9148 93.844L55.0703 79.4953C55.0468 79.0964 55.2579 78.6996 55.5409 78.4174C56.0729 77.8868 56.8919 77.7863 57.5752 78.0989C57.679 78.1512 57.7828 78.1773 57.9125 78.1773C58.1232 78.1773 58.3256 78.3583 58.2844 78.565C57.1464 84.267 56.8972 90.0784 56.7709 92.7473C56.745 93.1912 56.745 93.609 56.7191 93.8701C56.7191 94.078 56.6149 94.329 56.7671 94.4706C56.7908 94.4927 56.8184 94.5107 56.8488 94.5229C56.9634 94.5691 57.0983 94.5337 57.1639 94.4167C57.1818 94.3848 57.1903 94.3477 57.2051 94.3144C57.2127 94.2973 57.2136 94.2787 57.2163 94.2602C57.2409 94.0917 57.2667 93.7356 57.3158 92.7735C57.4265 90.0987 57.6817 84.3055 58.8097 78.6556C59.5754 74.8209 64.2719 72.5014 66.3702 75.8011C66.5571 76.0919 66.1543 77.1889 65.6135 78.3075C65.0639 79.4443 64.0827 80.1807 62.8318 80.0082C62.7149 79.9921 62.5968 79.9736 62.4786 79.9528C62.3748 79.9267 62.2711 79.9789 62.2192 80.0573C62.1673 80.1356 62.1673 80.2662 62.2192 80.3445C62.764 81.2323 63.5423 82.6684 63.4645 83.0601C63.3142 84.1695 61.785 93.1915 61.3296 94.3983C61.3038 94.4668 61.2593 94.528 61.2593 94.6012C61.2593 94.7057 61.2852 94.784 61.389 94.8362C61.4409 94.8624 61.4668 94.8885 61.5187 94.8885C61.691 94.8885 61.7705 94.6825 61.8277 94.5199C61.8972 94.3225 61.9804 94.0294 62.0635 93.6612C62.764 90.7368 63.9574 83.2167 63.9834 83.1123C64.0019 82.9815 63.9762 82.8076 63.9206 82.6086C63.6637 81.689 64.6471 81.0512 65.1508 80.2401C66.3564 78.3334 68.6427 76.8859 70.7738 77.6255C71.9481 78.033 72.9666 78.4946 73.5307 78.9867C75.5245 80.7327 77.4406 91.3473 77.7061 93.0247C77.7073 93.0323 77.7077 93.0384 77.7077 93.0462C77.7077 93.0558 77.7085 93.0655 77.7109 93.0749C77.7431 93.1987 77.8681 93.2947 77.9931 93.2696C78.2456 93.2187 78.188 92.8547 78.148 92.6003C77.8185 90.5022 75.9924 80.4255 73.8939 78.5951ZM58.7063 76.7307C58.5941 77.1991 58.2389 77.8193 57.8087 77.6028C57.4722 77.4441 56.8587 76.9679 56.1479 76.3622C54.7091 75.136 55.2154 72.548 56.8254 71.5573C57.242 71.301 57.6341 71.0489 57.9799 70.8211C58.5844 70.4226 59.4848 70.742 59.9069 71.3303C60.1503 71.6694 60.1299 71.9907 59.9892 72.3838C59.4964 73.761 59.065 75.2327 58.7063 76.7307ZM52.9831 78.9867C52.9312 78.9867 52.8794 78.9867 52.8015 78.9867C52.0019 78.9428 51.2185 78.5545 50.5976 78.024C49.7833 77.3283 50.2397 75.9685 51.0267 75.2422C51.9956 74.3478 53.3195 74.5158 54.2915 75.4068C54.3453 75.4561 54.3994 75.5056 54.4539 75.5553C55.3507 76.3738 55.6777 77.7961 54.6672 78.4692C54.1991 78.781 53.6349 78.9867 52.9831 78.9867ZM44.9615 71.6966C44.9495 71.6846 44.9481 71.6656 44.9584 71.6521C45.0867 71.4837 45.2555 71.2561 45.436 70.9896C45.7621 70.5083 46.4225 70.3507 46.9052 70.6747C47.2947 70.9362 47.7583 71.2396 48.2578 71.5492C49.8633 72.5445 50.3784 75.1573 48.9396 76.3814C48.2384 76.978 47.6343 77.4458 47.3014 77.6028C46.9555 77.8117 46.6287 77.2877 46.5377 76.894C46.1188 75.0815 45.5959 73.3217 44.969 71.7083C44.9673 71.7039 44.9648 71.7 44.9615 71.6966ZM31.2681 54.8077C30.1265 54.7816 29.0628 54.1288 28.2586 52.9538C27.4543 51.7788 27.0392 50.2121 27.0911 48.541C27.1483 46.4374 29.438 46.805 30.031 48.8241C30.603 50.7714 31.2599 52.408 31.9137 53.1075C32.1142 53.322 32.3014 53.5694 32.3415 53.8602C32.4004 54.2873 32.166 54.7232 31.7369 54.7648C31.6526 54.7729 31.567 54.778 31.4801 54.7802C31.4089 54.7821 31.3393 54.8077 31.2681 54.8077ZM26.4684 26.2681C23.5627 25.9809 20.5532 23.5787 20.4754 22.3253C20.4494 22.1164 20.5013 21.8292 21.098 21.6986C22.525 21.3592 24.8599 21.2809 26.5722 21.2809C27.9732 21.2809 29.0369 21.3331 29.0628 21.3331C29.1925 21.3331 29.2963 21.2548 29.3223 21.1242C29.3696 20.8861 29.0519 20.7932 28.8363 20.6816C27.1988 19.8335 25.909 18.0091 26.0793 17.1031C26.1052 16.9986 26.1571 16.6592 26.8576 16.6592C27.1689 16.6592 27.5581 16.7375 27.9991 16.8681C30.5157 17.6253 35.2115 17.7036 40.6598 17.782C44.1881 17.8342 47.8462 17.8864 51.3746 18.1214C60.8441 18.7742 74.8539 23.1348 75.4246 29.297C76.0213 35.5637 74.0237 49.3505 72.2335 51.3088C72.1038 51.4394 72 51.5177 71.9222 51.4916C71.092 51.2827 70.9623 48.1232 70.8585 45.3293C70.7288 41.8565 70.5991 38.2793 69.3019 37.2609C65.5141 34.2582 59.5469 32.7437 51.5043 32.7437C41.6456 32.7437 35.8601 35.9032 33.8365 37.2609C32.7728 37.966 32.7988 41.3082 32.9804 46.2954C33.0841 49.1416 33.1879 52.3794 32.695 52.9277C32.6431 52.9799 32.6171 53.006 32.5912 53.006C31.6832 53.006 29.6076 46.6349 28.959 40.9165C28.4661 36.6082 26.7538 26.6076 26.7279 26.5031C26.676 26.3726 26.5722 26.2681 26.4684 26.2681ZM76.6181 48.8021C76.5143 52.1182 74.5166 54.8077 72.1816 54.8077C72.1557 54.8077 72.1298 54.8077 72.0779 54.8077C71.7272 54.8077 71.5035 54.4773 71.533 54.1279C71.5904 53.4464 71.6445 52.7421 71.6845 52.0371C71.6869 51.9947 71.7179 51.9804 71.7597 51.9871C71.7645 51.9879 71.7689 51.9881 71.7737 51.989C72.0567 52.0382 72.3395 51.9331 72.5967 51.6482C72.9909 51.2034 73.3851 50.2937 73.7565 49.0744C74.4026 46.9534 76.6738 46.5856 76.6181 48.8021ZM32.8401 53.7342C32.8161 53.5697 32.8974 53.3932 33.028 53.2904C33.0446 53.2774 33.0651 53.2599 33.0786 53.2438C33.6537 52.558 33.6015 50.1407 33.4733 46.2693C33.3695 42.7182 33.2139 38.2793 34.1219 37.6787C35.6785 36.6343 41.49 33.2659 51.4784 33.2659C59.3913 33.2659 65.2806 34.7543 68.9646 37.6787C70.0802 38.5665 70.2099 42.1699 70.3137 45.3554C70.3217 45.5516 70.3297 45.7441 70.3377 45.9328C70.4958 49.6651 71.17 53.6501 70.6779 57.3533C70.4984 58.7036 70.2842 59.8065 70.0283 60.4738C68.9127 63.3461 60.4809 68.8817 51.9194 68.8817C45.3037 68.8817 36.2493 65.3566 34.6148 62.145C34.0072 60.9473 33.3995 57.5613 32.8401 53.7342ZM51.9194 69.3517C54.0394 69.3517 56.1394 69.0291 58.1313 68.4903C58.5504 68.377 58.9677 68.6985 58.9841 69.1324C58.9929 69.3659 58.8881 69.5639 58.6963 69.6974C57.8577 70.281 55.8234 71.6518 54.1477 72.4349C53.1563 72.8983 52.03 72.9045 51.0372 72.4441C49.3452 71.6594 47.2969 70.2677 46.469 69.6813C46.339 69.5892 46.2632 69.431 46.2688 69.2719C46.2801 68.9495 46.5925 68.722 46.9075 68.7913C48.6039 69.1649 50.3235 69.3517 51.9194 69.3517Z" fill="#674940"/>
<path d="M61.2739 94.4843C61.281 94.4718 61.2859 94.4681 61.2926 94.4554C61.6963 93.682 63.3089 84.1746 63.4634 83.0339C63.5153 82.6422 62.7629 81.2061 62.2181 80.3183C62.1662 80.2399 62.1662 80.1094 62.2181 80.0311C62.27 79.9527 62.3738 79.9005 62.4776 79.9266C62.5738 79.9436 62.67 79.9589 62.7655 79.9728C64.0582 80.1599 65.0707 79.3964 65.6342 78.2181C66.164 77.1104 66.5535 76.0448 66.3691 75.7749C64.307 72.4543 59.5772 74.7967 58.8118 78.6299C57.6811 84.2926 57.4256 90.0886 57.3147 92.7472C57.2753 93.521 57.9532 94.3243 58.7253 94.3895L61.1129 94.5911C61.1849 94.5971 61.2379 94.547 61.2739 94.4843Z" fill="#A5656A"/>
<path d="M32.5396 52.9797C32.6295 52.9797 32.6765 52.8697 32.7179 52.7899C33.1252 52.0056 33.027 48.962 32.9288 46.2691C32.7731 41.2557 32.7472 37.9396 33.785 37.2346C35.8086 35.8768 41.5681 32.7173 51.4528 32.7173C59.4954 32.7173 65.4625 34.2318 69.2503 37.2346C70.5475 38.2529 70.6772 41.8302 70.807 45.303C70.9107 48.0969 71.0405 51.2563 71.8707 51.4652C71.9485 51.4913 72.0782 51.413 72.182 51.2824C73.9721 49.3241 75.9439 35.5374 75.3731 29.2707C74.8023 23.1084 60.7926 18.7478 51.3231 18.095C47.7947 17.86 44.1366 17.8078 40.6082 17.7556C35.16 17.6773 30.4641 17.625 27.9476 16.8417C27.5065 16.7111 27.1174 16.6328 26.806 16.6328C26.1056 16.6328 26.0537 16.9723 26.0277 17.0767C25.8461 18.0428 27.3249 20.0534 29.115 20.8106C29.2188 20.8628 29.2967 20.9934 29.2707 21.0978C29.2236 21.3351 28.8906 21.3008 28.6488 21.2922C28.216 21.2767 27.4345 21.2545 26.5207 21.2545C24.8084 21.2545 22.4734 21.3328 21.0465 21.6723C20.4757 21.8028 20.4238 22.0901 20.4238 22.299C20.5017 23.5523 23.5112 25.9806 26.4169 26.2417C26.5207 26.2417 26.6244 26.3462 26.6504 26.4506C26.6763 26.5551 28.3886 36.5557 28.8816 40.864C29.582 46.6085 31.6316 52.9797 32.5396 52.9797Z" fill="#935C4B"/>
<path d="M34.4333 50.9171C34.1739 48.567 34.6149 42.222 35.7305 40.2898C36.8461 38.3837 45.667 35.1459 54.5917 35.7725C63.4905 36.3731 66.0849 39.6109 67.3821 42.0392C68.6793 44.4676 68.0826 58.1499 65.566 61.8054C64.4028 63.5153 64.8902 65.1988 66.5801 64.0066C68.3904 62.7294 69.6345 61.434 70.0284 60.4477C70.2882 59.7703 70.5103 58.6439 70.6948 57.2656C71.1855 53.6007 70.4978 49.6638 70.3404 45.9696C70.3315 45.7608 70.3227 45.5473 70.3138 45.3293C70.184 42.1437 70.0543 38.5403 68.9647 37.6525C65.2806 34.7281 59.3914 33.2397 51.4785 33.2397C41.49 33.2397 35.6527 36.6342 34.122 37.6525C33.2139 38.2531 33.3696 42.692 33.4734 46.2431C33.6031 50.1598 33.655 52.5882 33.0583 53.241C32.9432 53.3954 32.9294 53.4226 33.1137 53.3667C33.6405 53.2069 34.625 52.6539 34.4333 50.9171Z" fill="#FCC58D"/>
<path d="M32.2955 53.662C32.2702 53.5116 32.1699 53.3868 32.0523 53.2897C31.9923 53.2402 31.9323 53.1822 31.8722 53.1163C31.4998 52.7078 29.4049 53.0321 29.0198 53.4285C28.8353 53.6185 28.9554 53.7958 29.1585 53.9659C29.784 54.4899 30.5037 54.7857 31.2415 54.8075C31.2674 54.8075 31.2934 54.8075 31.3452 54.8075C31.4574 54.8075 31.5695 54.8001 31.6817 54.7867C32.1218 54.7341 32.3959 54.299 32.3277 53.861C32.3174 53.7952 32.3068 53.7289 32.2955 53.662Z" fill="#FCC58D"/>
<path d="M72.181 54.8076C72.916 54.8076 73.6029 54.5489 74.2162 54.095C74.4702 53.907 74.4183 53.5294 74.1811 53.3207C73.701 52.8983 73.4364 52.3732 73.3129 51.8202C73.2628 51.5961 72.7481 51.4761 72.5961 51.6482C72.3388 51.933 72.056 52.0381 71.773 51.9889C71.7683 51.9881 71.7638 51.9878 71.759 51.9871C71.7172 51.9803 71.6862 51.9947 71.6838 52.037C71.6438 52.7422 71.5897 53.4465 71.5323 54.1281C71.5031 54.4746 71.7295 54.8076 72.0772 54.8076C72.1031 54.8076 72.1291 54.8076 72.181 54.8076Z" fill="#FCC58D"/>
<path d="M58.9615 69.2021C58.9629 68.7307 58.4901 68.4154 58.035 68.5381C56.0833 69.064 54.0082 69.3779 51.8941 69.3779C51.2031 69.3779 50.9354 70.4738 51.6055 70.6422C52.0748 70.7602 52.5179 70.849 52.9059 70.8924C54.2728 71.0419 55.9997 71.5027 57.1578 70.7612C57.7885 70.3574 58.323 69.994 58.6595 69.7622C58.8437 69.6354 58.9609 69.4257 58.9615 69.2021Z" fill="#FCC58D"/>
<path d="M72.3114 42.3C72.493 39.3495 72.9081 36.2161 68.8609 33.4222C64.7877 30.6283 50.2591 27.6777 50.1813 28.2783C50.0985 28.9168 49.8292 29.8883 49.1853 29.8895C44.1149 29.8984 35.3932 31.5884 35.3932 32.0383C35.3932 32.5605 37.6503 32.8216 36.9498 33.0044C36.2494 33.1872 33.1361 33.9705 32.0205 35.8767C30.9049 37.7828 31.6832 42.9267 32.0983 48.2273C32.2485 50.0415 32.2493 51.1855 32.1792 51.9068C32.1384 52.3266 32.1435 52.9795 32.5653 52.9795C32.6552 52.9795 32.7022 52.8695 32.7436 52.7898C33.1509 52.0055 33.0527 48.9619 32.9545 46.2689C32.7988 41.2556 32.7729 37.9394 33.8106 37.2344C35.8343 35.8767 41.5938 32.7172 51.4785 32.7172C59.5211 32.7172 65.4882 34.2317 69.276 37.2344C70.5732 38.2528 70.7029 41.83 70.8326 45.3028C70.9364 48.0967 71.0661 51.2562 71.8963 51.4651C71.9742 51.4912 72.1039 51.4129 72.2077 51.2823C72.6512 50.8359 72.4518 50.0775 72.286 49.4704C71.7878 47.6455 72.1827 44.3299 72.3114 42.3Z" fill="#845142"/>
<path d="M40.9974 18.5389C47.639 18.5912 57.5756 19.2439 65.0733 20.9934C60.6369 19.4006 55.526 18.3823 51.3231 18.095C47.7947 17.86 44.1366 17.8078 40.6082 17.7556C35.16 17.6773 30.4641 17.625 27.9476 16.8417C27.5065 16.7111 27.1174 16.6328 26.806 16.6328C26.1056 16.6328 26.0537 16.9723 26.0277 17.0767C25.8461 18.0428 27.3249 20.0534 29.115 20.8106C29.2188 20.8628 29.2967 20.9934 29.2707 21.0978C29.2236 21.3351 28.8906 21.3008 28.6488 21.2922C28.216 21.2767 27.4345 21.2545 26.5207 21.2545C24.8084 21.2545 22.4734 21.3328 21.0465 21.6723C20.4757 21.8028 20.4238 22.0901 20.4238 22.299C20.5017 23.5523 23.5112 25.9806 26.4169 26.2417C26.6387 26.2417 26.6667 26.5599 26.7031 26.7787C26.8772 27.8253 27.4526 31.2113 27.9735 34.5973C27.7141 30.9157 27.3509 25.8762 27.1952 25.6673C26.9358 25.3279 21.747 23.9178 21.5654 22.6123C21.3838 21.3067 30.6457 22.2728 30.8273 21.4895C31.009 20.7062 27.1952 19.4006 27.1952 18.095C27.1952 16.7895 31.3981 18.4606 40.9974 18.5389Z" fill="#A86956"/>
<path d="M28.674 30.6026C28.6481 30.472 28.4146 30.4459 28.3886 30.6026C28.207 31.8298 28.233 33.1353 28.207 34.3887C28.207 34.5715 28.4924 34.6237 28.5184 34.4409C28.7778 33.2137 28.9075 31.8298 28.674 30.6026Z" fill="#A86956"/>
<path d="M29.5554 30.5242C29.5035 30.3936 29.3219 30.3936 29.296 30.5242C29.1922 30.8375 29.2181 31.2031 29.27 31.5164C29.296 31.7253 29.5554 31.7253 29.5813 31.5164C29.6073 31.2031 29.6332 30.8375 29.5554 30.5242Z" fill="#A86956"/>
<path d="M65.3061 22.0904C64.0089 21.3854 62.2707 20.9415 60.7919 21.0459C60.6621 21.0459 60.6103 21.2548 60.7659 21.2809C61.4923 21.4898 62.2447 21.5682 62.9971 21.7771C63.7235 21.9598 64.45 22.2471 65.1764 22.4298C65.3839 22.5082 65.5137 22.1948 65.3061 22.0904Z" fill="#A86956"/>
<path d="M67.0711 22.5079C66.9155 22.3773 66.7857 22.2729 66.5782 22.2207C66.3706 22.1684 66.1371 22.1423 65.9036 22.1684C65.6442 22.1946 65.6183 22.6123 65.9036 22.5862C66.2409 22.5601 66.5782 22.6646 66.9155 22.7951C67.0452 22.8473 67.1749 22.6123 67.0711 22.5079Z" fill="#A86956"/>
<path d="M29.9723 19.3748C29.4275 19.2181 29.0124 18.8787 28.5713 18.5131C28.4416 18.4087 28.2341 18.5392 28.3119 18.6959C28.5764 19.1259 29.0164 19.3953 29.4942 19.542C29.756 19.6223 30.232 19.4619 29.9723 19.3748Z" fill="#A86956"/>
<path d="M32.3066 34.4668C31.3726 34.7801 30.4905 35.7724 30.5943 36.8168C30.6202 36.9735 30.8278 36.9996 30.8797 36.8429C31.0353 36.399 31.165 35.9813 31.4504 35.6157C31.7099 35.2763 32.0731 34.989 32.4363 34.754C32.592 34.6757 32.4882 34.4146 32.3066 34.4668Z" fill="#845142"/>
<path d="M33.1896 33.0308C32.7745 33.1092 32.4372 33.3442 32.2037 33.6836C32.1 33.8403 32.3594 34.0492 32.4632 33.8925C32.58 33.7455 32.7215 33.6151 32.8783 33.5105C33.1195 33.3498 33.4765 32.9896 33.1896 33.0308Z" fill="#845142"/>
<path d="M70.6504 33.5009C69.9758 32.587 68.8343 31.882 67.8484 31.3336C67.6928 31.2553 67.563 31.4903 67.7187 31.5686C68.2376 31.9081 68.7565 32.2736 69.2235 32.6653C69.5208 32.9084 69.7781 33.1783 70.0623 33.427C70.2895 33.6259 70.8382 33.7372 70.6504 33.5009Z" fill="#845142"/>
<path d="M71.8965 34.467C71.637 34.232 71.4554 33.9448 71.5592 33.5792C71.6111 33.3442 71.2479 33.2397 71.196 33.4747C71.0663 33.9709 71.2738 34.5453 71.7668 34.702C71.8965 34.7542 72.0003 34.5453 71.8965 34.467Z" fill="#845142"/>
<path d="M47.6653 29.1924C47.0426 29.1924 46.394 29.2707 45.7714 29.2968C45.6417 29.2968 45.6157 29.4796 45.7454 29.5057C46.394 29.6363 47.0686 29.6624 47.7172 29.5057C47.8728 29.4796 47.8469 29.1924 47.6653 29.1924Z" fill="#845142"/>
<path d="M49.3764 29.1926C49.1429 29.0098 48.9094 28.9576 48.624 29.062C48.3905 29.1404 48.4424 29.4798 48.6759 29.4798C48.7537 29.4798 48.8575 29.4798 48.9353 29.4798C49.1266 29.4798 49.4 29.5626 49.4514 29.3783C49.4694 29.3139 49.4468 29.2399 49.3764 29.1926Z" fill="#845142"/>
<path d="M36.2999 40.7599C35.8329 41.4127 35.5475 42.3788 35.2881 43.136C35.2362 43.2927 35.4956 43.4232 35.5734 43.2666C35.9367 42.5354 36.4036 41.6477 36.5074 40.8382C36.5334 40.7077 36.3518 40.6815 36.2999 40.7599Z" fill="#FCC58D"/>
<path d="M37.3141 40.29C36.9768 40.525 36.899 40.9689 36.873 41.3606C36.873 41.5172 37.0806 41.5433 37.1325 41.3867C37.2363 41.0733 37.4438 40.7861 37.5476 40.4467C37.5735 40.3422 37.4179 40.2117 37.3141 40.29Z" fill="#FCC58D"/>
<path d="M52.1293 73.4512C52.1276 73.4512 52.1259 73.4516 52.1245 73.4525C50.9318 74.1831 49.7131 74.8354 48.4427 75.4095C48.2828 75.4842 48.1117 75.5551 47.9358 75.6144C47.4411 75.7813 46.5047 76.7449 46.6185 77.2545C46.6556 77.4206 46.7709 77.5702 46.9357 77.6127C47.0791 77.6496 47.2009 77.6533 47.3011 77.6029C48.1283 77.2126 50.6295 74.9043 52.1361 73.467C52.1422 73.4612 52.1378 73.4512 52.1293 73.4512Z" fill="#D7E5EC"/>
<path d="M56.2514 74.9917C56.4119 75.0749 56.5752 75.1581 56.7405 75.2378C57.992 75.8405 59.1637 74.8842 59.592 73.5628C59.72 73.1677 59.855 72.7774 59.9983 72.3931C60.1467 71.9948 60.1718 71.6649 59.9243 71.3193C59.5064 70.7358 58.6156 70.4164 58.0172 70.8128C57.5169 71.1442 56.9187 71.528 56.2899 71.9012C55.2122 72.5409 55.1434 74.4062 56.2514 74.9917Z" fill="white"/>
<path d="M48.9898 86.637C48.8861 84.6264 48.8342 82.6158 48.8082 80.6053C48.8082 79.6627 48.8505 78.635 49.3165 77.8677C49.4056 77.7209 49.4095 77.5336 49.3146 77.3904C49.175 77.1797 48.8744 77.1135 48.6772 77.2716C48.1933 77.6595 47.7787 77.9482 47.511 78.0725C47.4073 78.1247 47.3035 78.1508 47.1738 78.1508C46.9998 78.1508 46.8502 78.2881 46.8847 78.4586C48.0405 84.1695 48.2915 90.0357 48.3931 92.7209C48.4026 92.8443 48.4086 92.9643 48.4136 93.0784C48.4271 93.3821 48.6723 93.6134 48.9763 93.6196C49.3588 93.6275 49.6526 93.283 49.5924 92.9051C49.2634 90.8406 49.1059 88.7388 48.9898 86.637Z" fill="#D7E5EC"/>
<path d="M57.9374 78.1508C57.8077 78.1508 57.7039 78.1247 57.6001 78.0725C57.5492 78.0469 57.492 78.0149 57.4297 77.9775C57.2301 77.8575 56.9101 78.0783 56.9515 78.3075C57.1072 79.1169 57.0553 79.9786 57.0034 80.8142C56.7998 84.5289 56.5961 88.2938 55.878 91.9364C55.8504 92.0759 55.8403 92.2183 55.849 92.3603L55.9147 93.4343C55.9289 93.6663 56.1174 93.8493 56.3496 93.8566C56.5862 93.864 56.785 93.6866 56.7933 93.45C56.8008 93.2396 56.8072 92.9975 56.8218 92.747C56.9479 90.0812 57.1967 84.2804 58.3312 78.5848C58.3784 78.3482 58.1786 78.1508 57.9374 78.1508Z" fill="#D7E5EC"/>
<path d="M55.8299 77.2203C55.9331 77.05 55.8865 76.8333 55.7354 76.7036C55.2632 76.2981 54.7698 75.8547 54.3076 75.4299C53.3256 74.5274 51.8098 74.5244 50.8272 75.4263C50.477 75.7477 50.1101 76.0796 49.7499 76.3976C49.6054 76.5251 49.5438 76.7094 49.6362 76.8785C49.8397 77.2511 50.4764 77.0319 50.6799 76.6593C50.7634 76.5064 50.8663 76.3656 50.9866 76.2445C51.5055 75.7223 52.2838 75.5134 53.0102 75.6178C53.8923 75.7745 54.6966 76.4012 55.0339 77.2628C55.1431 77.5376 55.5316 77.6699 55.698 77.4255C55.7446 77.357 55.7887 77.2884 55.8299 77.2203Z" fill="#D82E35"/>
<path d="M54.6263 79.9799C54.5975 79.5819 54.1678 79.3384 53.7782 79.4248C53.5287 79.4801 53.2646 79.5091 52.9833 79.5091C52.9054 79.5091 52.8535 79.5091 52.7757 79.5091C52.3703 79.4851 51.9648 79.3949 51.5795 79.2385C51.5316 79.2191 51.4785 79.2514 51.4785 79.3031C51.4785 79.3167 51.4824 79.3324 51.4898 79.3439C51.7237 79.7019 52.0819 80.0082 52.4903 80.188C53.0352 80.423 53.6319 80.5013 54.2286 80.5536C54.4643 80.5931 54.655 80.3768 54.6377 80.1384L54.6263 79.9799Z" fill="#D82E35"/>
<path d="M73.5571 78.9867C72.9837 78.4849 71.9672 78.0253 70.8011 77.6224C68.6704 76.8862 66.3819 78.3347 65.1772 80.24C64.7133 81.0337 63.7156 81.7286 63.9525 82.6168C64.0047 82.8123 64.028 82.9833 64.0097 83.1123C64.0097 83.1838 62.993 89.46 62.283 92.7965C62.1901 93.2335 62.5307 93.6456 62.9772 93.6299C63.3159 93.6179 63.593 93.3572 63.63 93.0203C63.9552 90.0576 64.5315 87.1019 65.3588 84.2612C65.4626 83.9217 65.5663 83.5562 65.7998 83.295C66.163 82.8773 66.7079 82.7467 67.2267 82.6162C67.7975 82.4856 68.3683 82.355 68.939 82.4334C70.366 82.6423 71.2221 84.1045 71.741 85.4623C72.4764 87.3126 72.9664 89.2646 73.2217 91.2425C73.3662 92.3614 74.3081 93.2365 75.4356 93.1955C76.6529 93.1513 77.5512 92.0689 77.3268 90.8717C76.6269 87.1366 75.1157 80.3516 73.5571 78.9867Z" fill="#985D61"/>
<path d="M41.0012 93.5631C42.0826 93.5992 42.9124 92.5939 42.7051 91.5319C42.0354 88.1006 41.2515 83.1703 41.2306 83.0859C41.212 82.9551 41.2377 82.7812 41.2933 82.5822C41.5503 81.6626 40.5668 81.0248 40.0631 80.2137C39.9022 79.9593 38.9478 78.3328 38.5153 77.0028C38.4278 76.7336 38.1586 76.561 37.8839 76.6294C37.5259 76.7187 37.3647 77.1556 37.5537 77.4724C37.9399 78.1197 38.2314 78.8474 38.4805 79.5609C39.3107 81.9109 39.8555 84.3653 39.8815 86.8459C39.8977 88.2707 39.7303 89.7161 39.3535 91.0982C39.0399 92.2489 39.8092 93.5234 41.0012 93.5631Z" fill="#985D61"/>
<path d="M45.9044 93.342C45.879 93.9233 46.368 94.3999 46.9476 94.3501C47.5016 94.3025 47.9274 93.7893 47.8969 93.2342C47.8891 93.092 47.8806 92.9307 47.8713 92.7474C47.7594 90.4056 47.5704 85.6558 46.7551 80.7086C46.6862 80.291 46.4407 80.3166 46.4963 80.7362C46.7816 83.1646 46.3406 85.5929 46.133 88.0474C46.0041 89.7993 45.982 91.5691 45.9044 93.342Z" fill="#985D61"/>
<path d="M58.2501 82.0156C57.6015 86.4806 57.4199 90.6062 57.3421 92.7473C57.3333 92.919 57.326 93.0714 57.3197 93.2069C57.2946 93.7471 57.7557 94.3063 58.2945 94.3526C58.838 94.3992 59.28 93.9219 59.1954 93.383C58.6025 89.6072 58.1552 85.8114 58.2501 82.0156Z" fill="#985D61"/>
<path d="M60.9995 73.0332C60.4028 74.3127 60.0396 75.7227 59.7542 77.1066C59.7282 77.2371 59.9358 77.2893 59.9617 77.1588C60.325 75.801 60.792 74.4693 61.2071 73.1115C61.233 73.0071 61.0514 72.9288 60.9995 73.0332Z" fill="#BF757A"/>
<path d="M59.8074 78.3861C59.7815 78.2294 59.548 78.2294 59.548 78.3861C59.5739 78.6472 59.5739 78.8822 59.5221 79.1433C59.4961 79.2738 59.6777 79.3261 59.7037 79.1955C59.7815 78.9344 59.8334 78.6733 59.8074 78.3861Z" fill="#BF757A"/>
<path d="M45.642 76.9238C45.3307 75.6966 45.0194 74.4172 44.4486 73.2944C44.3967 73.1638 44.1892 73.2683 44.2151 73.3988C44.5524 74.5999 45.0453 75.7749 45.4085 76.9761C45.4604 77.1327 45.6939 77.0805 45.642 76.9238Z" fill="#BF757A"/>
<path d="M46.1091 78.7514C46.0313 78.5425 45.9275 78.3075 45.8756 78.0987C45.8237 77.9159 45.5643 77.9942 45.6162 78.177C45.6681 78.4381 45.7459 78.6731 45.9275 78.882C45.9794 78.9603 46.1351 78.8559 46.1091 78.7514Z" fill="#BF757A"/>
<path d="M31.061 80.6056C30.3346 82.7728 29.66 84.9401 29.1152 87.1595C29.0633 87.3684 29.3746 87.4468 29.4265 87.2379C30.127 85.0706 30.7497 82.8773 31.4242 80.7101C31.528 80.4751 31.1388 80.3706 31.061 80.6056Z" fill="#BF757A"/>
<path d="M28.933 88.413C28.8552 88.8569 28.7773 89.3008 28.7773 89.7708C28.7773 89.9014 28.959 89.9275 29.0108 89.7969C29.1406 89.3531 29.1665 88.9092 29.2184 88.4653C29.2443 88.2825 28.959 88.2303 28.933 88.413Z" fill="#BF757A"/>
<path d="M42.3462 83.6606C42.3203 83.5562 42.1387 83.5823 42.1646 83.7129C42.5279 85.4362 42.8132 87.1595 43.1505 88.8568C43.1765 88.9873 43.384 88.9612 43.384 88.8307C43.2283 87.0551 42.8651 85.3579 42.3462 83.6606Z" fill="#BF757A"/>
<path d="M43.8263 90.8935C43.6706 90.4235 43.5409 89.9796 43.5668 89.4835C43.5668 89.353 43.3593 89.3269 43.3333 89.4574C43.2555 89.9796 43.2555 90.5541 43.5928 90.998C43.6965 91.1024 43.8782 91.0241 43.8263 90.8935Z" fill="#BF757A"/>
<path d="M62.7127 83.6602C62.6869 83.6602 62.6869 83.6862 62.7127 83.6862C62.7386 83.6862 62.7386 83.6602 62.7127 83.6602Z" fill="#BF757A"/>
<path d="M62.9215 83.4517C62.688 84.6528 62.4285 85.8278 62.221 87.055C62.195 87.2117 62.4026 87.2639 62.4545 87.1073C62.7733 86.0758 62.9522 85.0243 63.1316 83.9702C63.1814 83.6773 62.9632 83.1575 62.9215 83.4517Z" fill="#BF757A"/>
<path d="M51.6079 84.9138C51.6079 84.7519 51.444 84.9946 51.428 85.1557C51.2568 86.8812 51.1115 88.6511 51.0371 90.3971C51.0371 90.5538 51.2966 90.606 51.3225 90.4494C51.7117 88.6738 51.7895 86.7155 51.6079 84.9138Z" fill="#F05C51"/>
<path d="M51.1925 91.5459C51.1666 91.3893 50.959 91.4154 50.9071 91.5459C50.7774 91.9637 50.7774 92.512 50.8293 92.9559C50.8552 93.1126 51.0628 93.1648 51.1147 92.982C51.2184 92.5381 51.2703 91.9898 51.1925 91.5459Z" fill="#F05C51"/>
<path d="M53.1648 78.4382C52.5162 78.2554 51.8676 78.1248 51.219 77.8637C51.0893 77.8115 51.0374 77.9943 51.1411 78.0726C51.613 78.3617 52.1498 78.6018 52.7001 78.7025C52.9891 78.7554 53.4556 78.48 53.1648 78.4382Z" fill="#F05C51"/>
<path d="M47.0956 46.0598C47.822 45.9553 47.4848 44.5975 47.1734 44.1798C46.8621 43.7359 41.336 43.2136 40.2983 43.527C39.2605 43.8664 38.7676 44.7803 38.8973 45.3286C39.0789 45.9031 45.513 46.2948 47.0956 46.0598Z" fill="#935C4B"/>
<path d="M45.5636 46.3992C45.4857 46.3992 38.9219 46.347 38.6884 45.407C38.5068 44.702 39.1035 43.6575 40.245 43.2919C40.4785 43.2136 40.8936 43.1875 41.5163 43.1875C42.8394 43.1875 46.9905 43.5008 47.4056 44.0492C47.691 44.4408 47.9504 45.3547 47.7169 45.877C47.6131 46.1381 47.4056 46.2947 47.1461 46.3208C46.731 46.3731 46.0565 46.3992 45.5636 46.3992ZM40.4267 43.7881C39.1796 44.1825 39.8783 45.4753 41.1776 45.625C42.4539 45.772 44.121 45.877 45.5636 45.877C46.1693 45.877 46.6495 45.8559 46.9666 45.8138C47.0345 45.8048 47.1015 45.7945 47.1599 45.7586C47.2313 45.7148 47.2693 45.6296 47.2826 45.5468C47.2977 45.4524 47.2968 45.3406 47.2843 45.2227C47.221 44.6269 46.7349 44.2306 46.1456 44.1224C44.9982 43.9118 42.9958 43.7097 41.5422 43.7097C40.8158 43.7097 40.5304 43.7619 40.4267 43.7881Z" fill="#674940"/>
<path d="M52.4906 57.1049C52.0495 57.1049 51.6085 56.9483 51.2712 56.7655C51.0223 56.6653 51.275 56.1829 51.5047 56.3216C51.842 56.5044 52.4906 56.7394 52.9057 56.5044C53.1911 56.3477 53.3467 55.9822 53.3727 55.4338C53.3986 55.0683 53.3208 54.781 53.0873 54.546C52.7065 54.1437 52.0324 54.0506 51.7004 54.0296C51.5698 54.0213 51.4205 54.0477 51.3241 53.9592C51.2741 53.9133 51.2453 53.8452 51.2453 53.7627C51.2453 53.606 51.349 53.5016 51.5047 53.5016C51.5566 53.5016 52.8019 53.4755 53.4764 54.1805C53.7878 54.5199 53.9434 54.9377 53.8915 55.4599C53.8397 56.191 53.5802 56.7133 53.1651 56.9483C52.9576 57.0527 52.7241 57.1049 52.4906 57.1049Z" fill="#674940"/>
<path d="M57.0316 46.0598C56.3051 45.9553 56.6424 44.5975 56.9537 44.1798C57.2651 43.7359 62.7911 43.2136 63.8289 43.527C64.8666 43.8664 65.3596 44.7803 65.2299 45.3286C65.0742 45.9031 58.6401 46.2948 57.0316 46.0598Z" fill="#935C4B"/>
<path d="M58.5876 46.3992C58.0947 46.3992 57.4201 46.3731 57.005 46.3208C56.7456 46.2686 56.538 46.112 56.4343 45.877C56.2008 45.3286 56.4602 44.4408 56.7456 44.0492C57.1348 43.5008 61.3117 43.1875 62.6349 43.1875C63.2575 43.1875 63.6726 43.2136 63.9061 43.2919C65.0477 43.6575 65.6444 44.702 65.4628 45.407C65.4109 45.5897 65.333 45.9031 62.8165 46.1642C61.4933 46.3208 59.8589 46.3992 58.5876 46.3992ZM58.4851 44.0307C57.5974 44.1698 56.5274 44.8372 56.9272 45.642C56.9779 45.795 57.1885 45.7875 57.3489 45.8037C57.6606 45.8351 58.0903 45.8508 58.6136 45.8508C60.0511 45.8508 61.7197 45.7466 62.9969 45.6004C64.3009 45.4511 65.0244 44.1422 63.7764 43.7358C63.6726 43.7097 63.3872 43.6575 62.6608 43.6575C61.367 43.674 59.6597 43.8465 58.4851 44.0307Z" fill="#674940"/>
<path d="M60.0932 59.9511C59.1593 59.5333 54.5931 59.1416 50.3383 59.1416C48.5639 59.1416 47.3131 59.2042 46.4585 59.2921C45.3633 59.4048 44.4859 60.214 44.7455 61.2839C44.8349 61.6526 44.9961 62.031 45.2274 62.4055C46.1873 63.9461 48.626 65.8 52.4138 65.9305C56.6168 66.0611 59.9376 62.6405 60.3267 60.8127C60.4305 60.3688 60.3527 60.0816 60.0932 59.9511Z" fill="#F16560"/>
<path d="M60.3264 59.4549C59.2108 58.9588 54.2555 58.5933 50.3379 58.5933C44.76 58.5933 44.4746 59.1938 44.3708 59.4027C43.9298 60.3688 44.0595 61.5438 44.76 62.6927C45.7718 64.3638 48.3922 66.3483 52.3875 66.4789C52.4654 66.4789 52.5432 66.4789 52.621 66.4789C57.1612 66.4789 60.4301 62.7972 60.8452 60.9172C61.0268 60.2122 60.8193 59.6899 60.3264 59.4549ZM52.4135 65.9305C48.6256 65.8261 46.1869 63.9722 45.227 62.4055C45.1015 62.1968 44.9966 61.9892 44.9127 61.7843C44.3634 60.4434 45.5443 59.3672 46.9887 59.2516C47.8067 59.1861 48.9005 59.1416 50.3379 59.1416C54.5928 59.1416 59.1589 59.5072 60.0929 59.951C60.3523 60.0816 60.4301 60.3688 60.3523 60.8127C59.9372 62.6405 56.6164 66.0611 52.4135 65.9305Z" fill="#674940"/>
<path d="M60.0932 59.9511C59.1593 59.5333 54.5931 59.1416 50.3383 59.1416C48.5639 59.1416 47.3131 59.2042 46.4585 59.2921C45.3633 59.4048 44.4859 60.214 44.7455 61.2839C44.8349 61.6526 44.9961 62.031 45.2274 62.4055C45.4635 62.7858 46 62.8098 46.3385 62.5168C46.837 62.0853 47.3687 61.691 47.9515 61.3611C49.4822 60.4733 51.2982 60.0033 53.0365 60.2905C53.7629 60.3949 54.4634 60.6561 55.1379 60.8911C55.816 61.1438 56.494 61.4149 57.1574 61.7132C58.38 62.2631 60.0574 62.0942 60.3527 60.7866C60.4305 60.3688 60.3527 60.0816 60.0932 59.9511Z" fill="#EF504C"/>
<path d="M47.0438 50.4727C46.032 49.1149 44.6829 48.1488 42.9706 48.436C41.5956 48.671 40.1427 49.2977 39.7276 50.7338C39.6498 51.021 40.013 51.1516 40.1686 50.9166C40.8172 49.9505 41.7253 49.5849 42.8409 49.3499C44.4494 49.0366 45.2277 50.1071 46.3433 51.021C46.7065 51.3344 47.3811 50.9166 47.0438 50.4727Z" fill="#674940"/>
<path d="M57.3688 50.4732C58.3806 49.1154 59.7297 48.1493 61.442 48.4365C62.817 48.6715 64.2699 49.2982 64.685 50.7343C64.7628 51.0215 64.3996 51.1521 64.2439 50.9171C63.5953 49.9509 62.6873 49.5854 61.5717 49.3504C59.9632 49.037 59.1849 50.1076 58.0693 51.0215C57.732 51.3348 57.0315 50.9171 57.3688 50.4732Z" fill="#674940"/>
</g>
</svg>
