<svg width="81" height="80" viewBox="0 0 81 80" fill="none" xmlns="http://www.w3.org/2000/svg">
<g clip-path="url(#clip0_1636_4407)">
<path d="M60.4245 49.5254H73.6055V39.3774H60.4245V49.5254Z" fill="#EBEBEB"/>
<path d="M61.367 48.626H62.9531V46.8405H61.367V48.626Z" fill="white"/>
<path d="M69.5867 39.3901H68.0918V41.5582H69.5867V39.3901Z" fill="#FAFAFA"/>
<path d="M69.5867 47.3154H68.0918V49.4835H69.5867V47.3154Z" fill="#FAFAFA"/>
<path d="M63.7181 49.5925C63.6999 49.5925 63.6816 47.3515 63.6816 44.6004C63.6816 41.8493 63.6999 39.6084 63.7181 39.6084C63.7363 39.6084 63.7546 41.8493 63.7546 44.6004C63.7728 47.3515 63.7363 49.5925 63.7181 49.5925Z" fill="#E0E0E0"/>
<path d="M55.059 67.0034H77.793V49.4767H55.059V67.0034Z" fill="#EBEBEB"/>
<path d="M56.6931 65.4722H59.4277V62.3749H56.6931V65.4722Z" fill="white"/>
<path d="M70.8642 49.5195H68.2754V53.2544H70.8642V49.5195Z" fill="#FAFAFA"/>
<path d="M70.8642 63.2202H68.2754V66.9551H70.8642V63.2202Z" fill="#FAFAFA"/>
<path d="M60.7272 67.1187C60.6908 67.1187 60.6543 63.2563 60.6543 58.5193C60.6543 53.7642 60.6908 49.9199 60.7272 49.9199C60.7637 49.9199 60.8001 53.7642 60.8001 58.5193C60.8001 63.2745 60.7819 67.1187 60.7272 67.1187Z" fill="#E0E0E0"/>
<path d="M77.0609 13.0454L78.2824 15.505L80.9988 15.9058L79.0299 17.8188L79.5039 20.5335L77.0609 19.2581L74.6362 20.5335L75.092 17.8188L73.123 15.9058L75.8577 15.505L77.0609 13.0454Z" fill="#EBEBEB"/>
<path d="M4.55753 44.874L5.32323 46.4409L7.03694 46.6777L5.79723 47.8984L6.08893 49.5928L4.55753 48.7911L3.02613 49.5928L3.31783 47.8984L2.07812 46.6777L3.79183 46.4409L4.55753 44.874Z" fill="#EBEBEB"/>
<path d="M5.50574 31.3369L7.21945 34.7985L11.0297 35.3451L8.27684 38.0233L8.91492 41.8311L5.50574 40.0274L2.11479 41.8311L2.75287 38.0233L0 35.3451L3.81026 34.7985L5.50574 31.3369Z" fill="#EBEBEB"/>
<path d="M75.9859 24.1768L76.7151 25.6707L78.3559 25.9076L77.1709 27.0554L77.4444 28.6951L75.9859 27.9299L74.5092 28.6951L74.8009 27.0554L73.5977 25.9076L75.2567 25.6707L75.9859 24.1768Z" fill="#EBEBEB"/>
<path d="M51.8863 0.0732422L52.6155 1.56721L54.2563 1.80406L53.0713 2.97008L53.3448 4.59158L51.8863 3.82637L50.4096 4.59158L50.6831 2.97008L49.498 1.80406L51.1388 1.56721L51.8863 0.0732422Z" fill="#EBEBEB"/>
<path d="M68.6746 15.9966L69.1669 16.9622L70.2425 17.1262L69.4586 17.8731L69.6409 18.9481L68.6746 18.4379L67.7266 18.9481L67.9089 17.8731L67.125 17.1262L68.2006 16.9622L68.6746 15.9966Z" fill="#EBEBEB"/>
<path d="M24.3213 65.1333L25.2693 67.0281L27.3658 67.3378L25.8344 68.8136L26.199 70.8905L24.3213 69.9067L22.4617 70.8905L22.8081 68.8136L21.2949 67.3378L23.3915 67.0281L24.3213 65.1333Z" fill="#EBEBEB"/>
<path d="M26.7989 63.2388L27.1818 64.0222L28.0569 64.1497L27.4188 64.7692L27.5646 65.6255L26.7989 65.2246L26.0333 65.6255L26.1791 64.7692L25.541 64.1497L26.4161 64.0222L26.7989 63.2388Z" fill="#EBEBEB"/>
<path d="M61.385 55.9873L62.2054 57.6452L64.0467 57.9185L62.7159 59.2121L63.0258 61.0522L61.385 60.1777L59.726 61.0522L60.0359 59.2121L58.7051 57.9185L60.5464 57.6452L61.385 55.9873Z" fill="url(#paint0_linear_1636_4407)"/>
<path d="M65.3029 54.5117L65.6857 55.2951L66.5608 55.4227L65.9227 56.0239L66.0686 56.8984L65.3029 56.4794L64.5189 56.8984L64.683 56.0239L64.0449 55.4227L64.92 55.2951L65.3029 54.5117Z" fill="url(#paint1_linear_1636_4407)"/>
<path d="M60.1637 11.1138L60.8018 9.09144C60.3096 8.08939 60.0543 6.94159 60.1637 5.73913C60.4737 2.29572 63.5365 -0.254953 66.9821 0.054771C70.446 0.364495 72.9801 3.4253 72.6701 6.86871C72.3602 10.3121 69.2974 12.8628 65.8518 12.5531C64.4115 12.4255 63.2265 11.8972 62.2421 10.9862L60.1637 11.1138Z" fill="#FAFAFA"/>
<path d="M60.1633 11.1137C60.1633 11.1137 60.218 11.1137 60.3091 11.0954C60.4003 11.0954 60.5279 11.0772 60.7102 11.059C61.0566 11.0408 61.5853 11.0043 62.2598 10.9497C62.8615 11.4963 63.7548 12.0975 64.9945 12.3708C65.3044 12.4436 65.6143 12.4801 65.9607 12.5165C66.1248 12.5165 66.3071 12.5347 66.4712 12.5347C66.6353 12.5347 66.8176 12.5165 66.9999 12.4983C67.7109 12.4254 68.4583 12.2432 69.1694 11.8971C69.8804 11.5509 70.5731 11.0408 71.1383 10.3849C71.7035 9.729 72.1775 8.94558 72.4327 8.05284C72.6879 7.16011 72.7608 6.1945 72.5968 5.22889C72.5603 4.99204 72.4874 4.75519 72.4327 4.51834C72.4145 4.39081 72.3598 4.28149 72.3051 4.17218C72.2686 4.06286 72.2139 3.93533 72.1775 3.82602C71.9587 3.37054 71.7217 2.93328 71.4118 2.53246C71.2659 2.33205 71.0836 2.14986 70.9195 1.96767C70.8466 1.87658 70.7372 1.8037 70.6461 1.7126C70.5549 1.63973 70.4638 1.54863 70.3726 1.45754L70.0809 1.23891L69.9351 1.12959L69.771 1.0385L69.4611 0.856306C69.3517 0.801649 69.2423 0.746992 69.1329 0.692335C68.2578 0.273296 67.2916 0.0728858 66.3618 0.0911049C65.432 0.109324 64.5387 0.327953 63.773 0.710554C62.9891 1.09315 62.3328 1.60329 61.8041 2.20452C61.2754 2.80575 60.8925 3.46164 60.6373 4.13574C60.6008 4.22684 60.5826 4.29971 60.5461 4.39081C60.5097 4.4819 60.4914 4.55478 60.4732 4.64588C60.4367 4.80985 60.3821 4.97382 60.3456 5.13779C60.3091 5.46573 60.2362 5.79368 60.2362 6.1034C60.1815 7.36052 60.5097 8.38079 60.8743 9.10955C60.6555 9.76544 60.4914 10.2574 60.3821 10.6035C60.3274 10.7675 60.2909 10.895 60.2544 10.9861C60.1633 11.0772 60.1633 11.1137 60.1633 11.1137C60.1633 11.1137 60.1815 11.0772 60.1997 10.9861C60.2362 10.895 60.2727 10.7675 60.3091 10.6035C60.4185 10.2574 60.5826 9.74722 60.7831 9.09133V9.10955C60.4185 8.38079 60.0721 7.3423 60.1268 6.08518C60.1268 5.77546 60.1997 5.44752 60.2362 5.11957C60.2727 4.9556 60.3091 4.79163 60.3638 4.62766C60.3821 4.53656 60.4003 4.46369 60.4367 4.37259C60.4732 4.28149 60.4914 4.20862 60.5279 4.11752C60.7831 3.44342 61.166 2.76931 61.6947 2.16808C62.2234 1.56685 62.8979 1.0385 63.6818 0.655896C64.4658 0.273296 65.3773 0.0364476 66.3071 0.0182285C67.2369 9.45292e-06 68.2213 0.200419 69.1147 0.619458C69.2241 0.674116 69.3334 0.728773 69.4428 0.78343L69.771 0.98384L69.9351 1.07494L70.0809 1.18425L70.3908 1.40288C70.482 1.47576 70.5731 1.56685 70.6825 1.65795C70.7737 1.74904 70.8831 1.82192 70.956 1.91301C71.1201 2.0952 71.3024 2.27739 71.4482 2.49602C71.7764 2.89684 72.0134 3.35232 72.2322 3.8078C72.2868 3.91711 72.3233 4.04465 72.3598 4.15396C72.3962 4.28149 72.4509 4.39081 72.4874 4.51834C72.5421 4.75519 72.6332 4.99204 72.6515 5.24711C72.8155 6.23094 72.7608 7.21477 72.4874 8.1075C72.2322 9.01846 71.7581 9.8201 71.1748 10.476C70.5914 11.1319 69.8986 11.642 69.1694 11.9882C68.4401 12.3343 67.6926 12.5347 66.9634 12.5894C66.7811 12.5894 66.5988 12.6076 66.4347 12.6076C66.2524 12.6076 66.0883 12.5894 65.9243 12.5894C65.5779 12.5712 65.2679 12.5165 64.958 12.4436C63.7183 12.1704 62.8068 11.5509 62.2234 11.0043H62.2416C61.5671 11.0408 61.0384 11.059 60.6737 11.0772C60.5097 11.0772 60.3638 11.0954 60.2727 11.0954C60.1997 11.1137 60.1633 11.1137 60.1633 11.1137Z" fill="#263238"/>
<path d="M62.8613 6.08479L63.9005 5.19205L65.6324 6.97752L69.5521 3.71631L70.3725 4.7548L65.3772 8.81765L62.8613 6.08479Z" fill="url(#paint2_linear_1636_4407)"/>
<path d="M49.3316 55.9143L14.3829 63.6938C13.5261 63.876 12.6875 63.3477 12.5051 62.5096L1.14728 11.6237C0.964973 10.7674 1.49367 9.92931 2.33229 9.74712L37.2992 1.96757C38.1561 1.78538 38.9947 2.31373 39.177 3.15181L50.5166 54.0195C50.7172 54.8758 50.1885 55.7139 49.3316 55.9143Z" fill="#E0E0E0"/>
<path d="M49.3319 55.9144C49.3319 55.9144 49.3684 55.8962 49.4413 55.878C49.5142 55.8598 49.6236 55.8051 49.7694 55.7323C49.8971 55.6594 50.0611 55.5318 50.207 55.3497C50.3528 55.1675 50.4805 54.9124 50.5351 54.6209C50.5534 54.4751 50.5534 54.3112 50.5351 54.129C50.4987 53.965 50.4622 53.7828 50.4258 53.6006C50.3346 53.2362 50.2435 52.8172 50.1523 52.3799C49.9518 51.5054 49.733 50.4852 49.4778 49.3374C48.4568 44.7461 46.9619 38.1144 45.1388 29.9158C44.2272 25.8165 43.2245 21.3164 42.1489 16.5066C41.602 14.1017 41.0551 11.6056 40.4717 9.03675C40.18 7.76141 39.8883 6.44964 39.5966 5.13786C39.4507 4.48198 39.3049 3.80787 39.1408 3.15198C39.0679 2.82404 38.8674 2.53253 38.5939 2.31391C38.3204 2.1135 37.9923 1.98596 37.6459 1.98596C37.4818 1.98596 37.3177 2.0224 37.1354 2.05884C36.9713 2.09528 36.789 2.13171 36.6249 2.16815C36.2786 2.24103 35.9504 2.31391 35.604 2.405C34.9112 2.55075 34.2185 2.71473 33.5257 2.86048C32.1401 3.1702 30.7364 3.47993 29.3143 3.80787C26.4703 4.44554 23.5716 5.08321 20.6182 5.73909C14.7296 7.03265 8.62224 8.38086 2.35081 9.78373C1.96796 9.87483 1.62157 10.1117 1.4028 10.4214C1.18403 10.7493 1.09287 11.1502 1.16579 11.5328C1.32987 12.3162 1.51218 13.0814 1.67626 13.8648C2.02265 15.4134 2.36904 16.9438 2.69719 18.4742C3.37174 21.5168 4.04628 24.523 4.70259 27.4745C6.01522 33.3774 7.29139 39.0618 8.49463 44.4911C9.69787 49.9204 10.8464 55.0582 11.922 59.8862C12.0497 60.4874 12.1955 61.0887 12.3231 61.6717C12.396 61.9632 12.4507 62.2729 12.5237 62.5462C12.5966 62.8377 12.7607 63.0928 12.9794 63.2932C13.1982 63.4936 13.4717 63.6211 13.7451 63.6758C13.891 63.694 14.0368 63.694 14.1827 63.694C14.3285 63.6758 14.4744 63.6393 14.602 63.6029C15.1671 63.4754 15.7323 63.3478 16.2975 63.2203C18.5399 62.7284 20.6911 62.2365 22.733 61.781C30.9369 59.9591 37.573 58.4833 42.1671 57.4631C44.4642 56.9529 46.2509 56.5521 47.4541 56.2971C48.0557 56.1695 48.5115 56.0602 48.8214 55.9873C49.1861 55.9327 49.3319 55.9144 49.3319 55.9144C49.3319 55.9144 49.1678 55.9509 48.8579 56.0238C48.548 56.0966 48.0922 56.206 47.4906 56.3335C46.2873 56.6068 44.5007 57.0076 42.2036 57.5177C37.6094 58.538 30.9734 60.032 22.7694 61.8539C20.7093 62.3093 18.5763 62.783 16.3339 63.2932C15.7688 63.4207 15.2036 63.5482 14.6385 63.6758C14.4926 63.7122 14.3468 63.7487 14.2009 63.7669C14.0551 63.7851 13.9092 63.7851 13.7451 63.7487C13.4534 63.694 13.1617 63.5665 12.943 63.3478C12.7242 63.1474 12.5419 62.8741 12.469 62.5826C12.396 62.2911 12.3414 61.9996 12.2684 61.6899C12.1408 61.0887 11.995 60.5057 11.8673 59.9044C10.81 55.0764 9.66141 49.9204 8.43993 44.5093C7.23669 39.08 5.96053 33.3957 4.6479 27.4927C3.99159 24.5412 3.31704 21.535 2.6425 18.4925C2.29611 16.962 1.96796 15.4316 1.62157 13.883C1.43926 13.0996 1.27518 12.3344 1.09287 11.551C1.01995 11.1502 1.1111 10.7129 1.3481 10.385C1.56688 10.0388 1.93149 9.80195 2.33257 9.71085C8.58578 8.30798 14.7114 6.95977 20.6 5.648C23.5534 4.99211 26.4521 4.35444 29.2961 3.71678C30.7181 3.40705 32.1219 3.07911 33.5075 2.7876C34.2002 2.64185 34.893 2.47788 35.5858 2.33212C35.9322 2.25925 36.2786 2.18637 36.6067 2.09528C36.7708 2.05884 36.9531 2.0224 37.1172 1.98596C37.2813 1.94952 37.4636 1.91309 37.6459 1.91309C38.0105 1.91309 38.3569 2.04062 38.6303 2.25925C38.9038 2.47788 39.1044 2.7876 39.1955 3.13376C39.3414 3.80787 39.4872 4.46376 39.6513 5.11964C39.943 6.43142 40.2347 7.74319 40.5264 9.03675C41.0915 11.6056 41.6567 14.1017 42.1854 16.5066C43.261 21.3346 44.2637 25.8165 45.1753 29.9158C46.9983 38.1144 48.4751 44.7461 49.496 49.3374C49.7512 50.4852 49.97 51.5054 50.1705 52.3799C50.2617 52.8172 50.3528 53.2362 50.444 53.6006C50.4805 53.7828 50.5351 53.965 50.5534 54.129C50.5716 54.293 50.5898 54.4751 50.5534 54.6209C50.4987 54.9306 50.3711 55.1857 50.2252 55.3679C50.0794 55.5501 49.9153 55.6776 49.7694 55.7505C49.6236 55.8234 49.5142 55.8598 49.4413 55.8962C49.3684 55.8962 49.3319 55.9144 49.3319 55.9144Z" fill="#263238"/>
<g opacity="0.3">
<path d="M16.1512 61.8906L48.0006 54.6212L46.9979 48.3721L45.193 44.874L14.7109 56.844L16.1512 61.8906Z" fill="black"/>
</g>
<g opacity="0.3">
<path d="M29.4414 3.82617L30.6446 5.81205L30.8816 6.86876L30.0613 7.05095L29.4414 3.82617Z" fill="black"/>
</g>
<path d="M2.9707 11.9157L14.0186 61.4716L48.6574 53.7649L46.6885 44.8922L37.6095 4.20898L2.9707 11.9157Z" fill="white"/>
<path d="M2.9707 11.9155C3.22594 11.8608 16.5527 8.87289 37.6095 4.17236H37.6459V4.2088C40.7269 17.9824 44.5554 35.163 48.7121 53.7647V53.8011H48.6756C36.2968 56.5522 24.5379 59.1758 14.0369 61.5078H14.0004V61.4714C7.47374 32.2115 3.0254 12.2252 2.9707 11.9155C3.04363 12.2252 7.5102 32.2115 14.0551 61.4714L14.0186 61.4532C24.5197 59.1211 36.2786 56.4976 48.6574 53.7283L48.6209 53.7647C44.4825 35.163 40.654 17.9824 37.573 4.2088L37.6095 4.22702C16.5527 8.90933 3.20771 11.8608 2.9707 11.9155Z" fill="#263238"/>
<path d="M30.2616 7.45179L12.7234 11.3507L11.8484 7.39713C11.7025 6.77768 12.1036 6.15823 12.7234 6.0307L28.001 2.62373C28.6208 2.47798 29.2407 2.8788 29.3865 3.49824L30.2616 7.45179Z" fill="#263238"/>
<path d="M22.1677 1.91309L17.7012 2.91514L19.0685 6.61361L22.4412 5.86663L22.1677 1.91309Z" fill="#263238"/>
<path d="M28.0015 2.62386C28.0015 2.64208 24.5923 3.4255 20.3809 4.35467C16.1696 5.30207 12.7422 6.03083 12.7422 6.01261C12.7422 5.99439 16.1514 5.21097 20.3809 4.2818C24.5741 3.35262 28.0015 2.60564 28.0015 2.62386Z" fill="#455A64"/>
<path d="M12.9417 10.4577C12.9235 10.4577 12.7412 9.74714 12.5406 8.85441C12.3401 7.96167 12.1942 7.25113 12.2125 7.23291C12.2307 7.23291 12.413 7.94345 12.6136 8.83619C12.8141 9.72892 12.9599 10.4395 12.9417 10.4577Z" fill="#455A64"/>
<path d="M29.4217 6.37697C29.4035 6.37697 29.2394 5.7393 29.0571 4.91944C28.8748 4.1178 28.7472 3.46191 28.7654 3.46191C28.7836 3.46191 28.9477 4.09958 29.13 4.91944C29.3123 5.72108 29.4399 6.37697 29.4217 6.37697Z" fill="#455A64"/>
<path d="M28.73 7.25125C28.73 7.26947 25.2297 8.07111 20.8907 9.03672C16.5518 10.0023 13.0514 10.7675 13.0332 10.7493C13.0332 10.7311 16.5335 9.92945 20.8725 8.96384C25.2115 7.98001 28.73 7.21481 28.73 7.25125Z" fill="#455A64"/>
<path d="M19.5062 21.6626C19.5062 21.6808 17.1544 22.2274 14.2193 22.8833C11.3023 23.5391 8.93229 24.0493 8.91406 24.0311C8.91406 24.0128 11.2659 23.4663 14.201 22.8104C17.118 22.1545 19.488 21.6444 19.5062 21.6626Z" fill="#263238"/>
<path d="M37.1355 19.6769C37.1355 19.6952 30.9552 21.098 23.3347 22.7924C15.7141 24.4868 9.51562 25.8532 9.51562 25.835C9.51562 25.8168 15.6959 24.4139 23.3164 22.7195C30.937 21.0069 37.1355 19.6587 37.1355 19.6769Z" fill="#263238"/>
<path d="M37.5183 21.3713C37.5183 21.3895 31.338 22.7924 23.7175 24.4867C16.097 26.1811 9.89844 27.5475 9.89844 27.5293C9.89844 27.5111 16.0787 26.1082 23.6992 24.4139C31.3198 22.7195 37.5001 21.3531 37.5183 21.3713Z" fill="#263238"/>
<path d="M37.8816 23.0837C37.8816 23.1019 31.7013 24.5048 24.0808 26.1991C16.4602 27.8935 10.2617 29.2599 10.2617 29.2417C10.2617 29.2235 16.442 27.8206 24.0625 26.1263C31.7013 24.4137 37.8816 23.0655 37.8816 23.0837Z" fill="#263238"/>
<path d="M38.2663 24.778C38.2663 24.7962 32.0861 26.1991 24.4655 27.8935C16.845 29.5879 10.6465 30.9543 10.6465 30.9361C10.6465 30.9178 16.8268 29.515 24.4473 27.8206C32.0861 26.1262 38.2663 24.7598 38.2663 24.778Z" fill="#263238"/>
<path d="M38.6491 26.4904C38.6491 26.5086 32.4689 27.9115 24.8483 29.6059C17.2278 31.3003 11.0293 32.6667 11.0293 32.6485C11.0293 32.6302 17.2096 31.2274 24.8301 29.533C32.4506 27.8204 38.6491 26.4722 38.6491 26.4904Z" fill="#263238"/>
<path d="M16.3875 38.4788C16.3875 38.4788 16.3875 38.4606 16.3693 38.4241C16.3511 38.3877 16.3511 38.3331 16.3328 38.2602C16.2964 38.1144 16.2417 37.914 16.187 37.6589C16.0594 37.1306 15.8953 36.3836 15.6948 35.5091L15.7312 35.5273C14.8561 35.7277 13.8352 35.9464 12.7414 36.2014C12.7414 36.2196 12.796 36.1103 12.7778 36.165V36.1832V36.2014L12.796 36.2561L12.8143 36.3654C12.8325 36.4383 12.8507 36.4929 12.8507 36.5658C12.8872 36.6933 12.9054 36.8391 12.9419 36.9666C12.9966 37.2217 13.0513 37.495 13.106 37.7318C13.2154 38.242 13.3247 38.7157 13.4159 39.1347L13.3794 39.1165C14.2728 38.9343 15.0202 38.7703 15.5489 38.661C15.8042 38.6063 16.0047 38.5699 16.1688 38.5335C16.0229 38.5699 15.8224 38.6246 15.5671 38.6792C15.0385 38.8067 14.291 38.9707 13.3977 39.1894H13.3612V39.1529C13.2701 38.7157 13.1607 38.242 13.0513 37.75C12.9966 37.495 12.9419 37.2399 12.869 36.9848C12.8325 36.8573 12.8143 36.7116 12.7778 36.584C12.7596 36.5111 12.7414 36.4565 12.7414 36.3836L12.7231 36.2743L12.7049 36.2196V36.2014V36.1832C12.6867 36.2196 12.7414 36.1285 12.7414 36.1285C13.8352 35.8917 14.8561 35.6548 15.7312 35.4727H15.7677V35.5091C15.9682 36.4018 16.1141 37.1488 16.2417 37.6954C16.2964 37.9505 16.3328 38.1509 16.3693 38.2966C16.3875 38.3695 16.3875 38.4059 16.4058 38.4606C16.3875 38.4606 16.3875 38.4788 16.3875 38.4788Z" fill="#263238"/>
<path d="M38.6021 31.117L17.7461 35.7612L18.1347 37.504L38.9907 32.8598L38.6021 31.117Z" fill="#E0E0E0"/>
<path d="M17.536 43.6531C17.536 43.6531 17.536 43.6349 17.5177 43.5985C17.4995 43.562 17.4995 43.5074 17.4813 43.4345C17.4448 43.2887 17.3901 43.0883 17.3354 42.8333C17.2078 42.3049 17.0437 41.5579 16.8432 40.6834L16.8797 40.7016C16.0046 40.902 14.9836 41.1207 13.8898 41.3757C13.8898 41.394 13.9445 41.2846 13.9263 41.3393V41.3575V41.3757L13.9445 41.4304L13.9627 41.5397C13.9809 41.6126 13.9992 41.6672 13.9992 41.7401C14.0356 41.8677 14.0539 42.0134 14.0903 42.1409C14.145 42.396 14.1997 42.6693 14.2544 42.9061C14.3638 43.4163 14.4732 43.89 14.5643 44.309L14.5279 44.2908C15.4212 44.1086 16.1687 43.9446 16.6974 43.8353C16.9526 43.7807 17.1531 43.7442 17.3172 43.7078C17.1714 43.7442 16.9708 43.7989 16.7156 43.8535C16.1869 43.9811 15.4394 44.145 14.5461 44.3637H14.5096V44.3272C14.4185 43.89 14.3091 43.4163 14.1997 42.9244C14.145 42.6693 14.0903 42.4142 14.0174 42.1592C13.9809 42.0316 13.9627 41.8859 13.9263 41.7583C13.908 41.6855 13.8898 41.6308 13.8898 41.5579L13.8716 41.4486L13.8533 41.394V41.3757V41.3575C13.8351 41.394 13.8898 41.3029 13.8898 41.3029C14.9836 41.066 16.0046 40.8292 16.8797 40.647H16.9161V40.6834C17.1167 41.5761 17.2625 42.3231 17.3901 42.8697C17.4448 43.1248 17.4813 43.3252 17.5177 43.4709C17.536 43.5438 17.536 43.5802 17.5542 43.6349C17.536 43.6349 17.536 43.6531 17.536 43.6531Z" fill="#263238"/>
<path d="M39.7681 36.2894L18.9121 40.9336L19.3007 42.6764L40.1567 38.0322L39.7681 36.2894Z" fill="#E0E0E0"/>
<path d="M18.7039 48.8455C18.7039 48.8455 18.7039 48.8273 18.6857 48.7908C18.6675 48.7544 18.6675 48.6997 18.6493 48.6269C18.6128 48.4811 18.5581 48.2807 18.5034 48.0256C18.3758 47.4973 18.2117 46.7503 18.0112 45.8758L18.0476 45.894C17.1725 46.0944 16.1516 46.3131 15.0578 46.5681C15.0578 46.5863 15.1125 46.477 15.0942 46.5317V46.5499V46.5681L15.1125 46.6228L15.1307 46.7321C15.1489 46.805 15.1671 46.8596 15.1671 46.9325C15.2036 47.06 15.2218 47.2058 15.2583 47.3333C15.313 47.5884 15.3677 47.8617 15.4224 48.0985C15.5318 48.6087 15.6412 49.0824 15.7323 49.5014L15.6958 49.4832C16.5892 49.301 17.3366 49.137 17.8653 49.0277C18.1206 48.973 18.3211 48.9366 18.4852 48.9002C18.5581 48.8819 18.6128 48.8819 18.6493 48.8637C18.6675 48.8455 18.7039 48.8455 18.7039 48.8455C18.7039 48.8455 18.6857 48.8455 18.6493 48.8637C18.6128 48.8819 18.5581 48.8819 18.4852 48.9002C18.3393 48.9366 18.1388 48.9913 17.8836 49.0459C17.3549 49.1734 16.6074 49.3374 15.7141 49.556H15.6776V49.5196C15.5865 49.0823 15.4771 48.6087 15.3677 48.1167C15.313 47.8617 15.2583 47.6066 15.1854 47.3515C15.1489 47.224 15.1307 47.0783 15.0942 46.9507C15.076 46.8778 15.0578 46.8232 15.0578 46.7503L15.0395 46.641L15.0213 46.5863V46.5681V46.5499C15.0031 46.5863 15.0578 46.4952 15.0578 46.4952C16.1516 46.2584 17.1725 46.0215 18.0476 45.8394H18.0841V45.8758C18.2846 46.7685 18.4305 47.5155 18.5581 48.0621C18.6128 48.3171 18.6493 48.5176 18.6857 48.6633C18.7039 48.7362 18.7039 48.7726 18.7222 48.8273C18.7039 48.8273 18.7039 48.8455 18.7039 48.8455Z" fill="#263238"/>
<path d="M40.9185 41.4837L20.0625 46.1279L20.4511 47.8707L41.3071 43.2265L40.9185 41.4837Z" fill="#E0E0E0"/>
<path d="M13.5078 37.4036L13.8177 36.9117L14.7657 37.4219L15.9508 35.6182L16.4248 35.9461L14.8751 38.2235L13.5078 37.4036Z" fill="url(#paint3_linear_1636_4407)"/>
<path d="M14.6387 42.4139L14.9486 41.922L15.8784 42.4321L17.0816 40.6284L17.5374 40.9564L15.9878 43.2337L14.6387 42.4139Z" fill="url(#paint4_linear_1636_4407)"/>
<path d="M15.7695 47.5521L16.0977 47.0602L17.0275 47.5703L18.2125 45.7666L18.6865 46.0945L17.1369 48.3719L15.7695 47.5521Z" fill="url(#paint5_linear_1636_4407)"/>
<path d="M25.3217 54.0016C25.3217 54.0198 23.5716 54.4389 21.3838 54.9126C19.2144 55.4045 17.446 55.7689 17.4277 55.7507C17.4277 55.7324 19.1779 55.3134 21.3656 54.8397C23.5533 54.3478 25.3217 53.9834 25.3217 54.0016Z" fill="#263238"/>
<path d="M29.26 53.054C29.26 53.0722 28.622 53.2362 27.8198 53.4184C27.0176 53.6005 26.3613 53.7281 26.3613 53.7099C26.3613 53.6916 26.9994 53.5277 27.8016 53.3455C28.5855 53.1633 29.2418 53.0358 29.26 53.054Z" fill="#263238"/>
<path d="M42.2578 48.9729C42.2578 48.9911 40.6718 49.3555 38.721 49.7928C36.7703 50.23 35.166 50.558 35.166 50.5397C35.166 50.5215 36.7521 50.1571 38.7028 49.7199C40.6535 49.2826 42.2578 48.9547 42.2578 48.9729Z" fill="#263238"/>
<path d="M40.5631 53.7647C40.5631 53.7647 40.5813 53.7101 40.5995 53.619C40.6178 53.5279 40.6178 53.3821 40.5813 53.1999C40.5266 53.0178 40.4355 52.8173 40.3261 52.5805C40.2167 52.3437 40.0708 52.0521 40.0708 51.706C40.0708 51.3598 40.2167 50.9954 40.5266 50.7222C40.8365 50.4489 41.3105 50.3578 41.7299 50.5035C41.9486 50.5764 42.1492 50.7039 42.3132 50.8861C42.3862 50.9772 42.4409 51.1048 42.4591 51.2323C42.4773 51.3598 42.3679 51.5056 42.2403 51.542C42.1127 51.5967 42.0033 51.5967 41.8757 51.6331C41.7481 51.6513 41.6387 51.6878 41.5111 51.706C41.2741 51.7606 41.0188 51.7971 40.7636 51.8335C40.2531 51.9064 39.7427 51.9064 39.2687 51.8335C39.0317 51.8153 38.7947 51.7971 38.6124 51.9428C38.4301 52.0704 38.3571 52.289 38.2113 52.4712C38.1384 52.5623 38.0654 52.6534 37.9561 52.6898C37.8467 52.7445 37.719 52.7445 37.6279 52.708C37.4091 52.6352 37.2633 52.4894 37.0992 52.3983C37.008 52.3437 36.9351 52.3072 36.844 52.3072C36.7528 52.3072 36.6617 52.3254 36.607 52.3619C36.4611 52.453 36.3882 52.6352 36.297 52.7627C36.1147 53.0542 35.7866 53.1999 35.5313 53.1999C35.2579 53.2182 35.0391 53.0906 34.8933 52.9813C34.7474 52.8538 34.6745 52.7263 34.638 52.6352C34.6016 52.5441 34.6016 52.4894 34.6016 52.4894C34.6016 52.4894 34.6198 52.5441 34.6563 52.6352C34.6927 52.7263 34.7656 52.8538 34.9115 52.9631C35.0573 53.0724 35.2579 53.1817 35.5313 53.1635C35.7866 53.1453 36.0783 53.0178 36.2606 52.7263C36.3517 52.5987 36.4247 52.4165 36.5887 52.3072C36.6617 52.2526 36.771 52.2161 36.8804 52.2343C36.9898 52.2526 37.081 52.289 37.1539 52.3436C37.3362 52.4347 37.482 52.5805 37.6826 52.6352C37.7737 52.6716 37.8831 52.6716 37.9743 52.6169C38.0654 52.5805 38.1384 52.5076 38.1931 52.4165C38.3207 52.2343 38.4118 52.0157 38.5941 51.87C38.6853 51.7971 38.8129 51.7606 38.9405 51.7424C39.0681 51.7242 39.1775 51.7424 39.3051 51.7424C39.7791 51.8153 40.2714 51.7971 40.7818 51.7242C41.0371 51.6878 41.2741 51.6513 41.5293 51.5967C41.6569 51.5785 41.7663 51.542 41.8939 51.5238C42.0033 51.4874 42.1309 51.4874 42.2403 51.4327C42.3497 51.3963 42.4226 51.3052 42.4044 51.1958C42.4044 51.0865 42.3497 50.9772 42.2768 50.9043C42.1309 50.7404 41.9304 50.6128 41.7299 50.54C41.3288 50.4124 40.873 50.4853 40.5813 50.7404C40.2896 50.9954 40.1438 51.3416 40.1255 51.6695C40.1255 51.9975 40.2531 52.2708 40.3625 52.5258C40.4719 52.7627 40.5631 52.9813 40.5995 53.1635C40.636 53.3457 40.636 53.4915 40.5995 53.6008C40.5813 53.7101 40.5631 53.7647 40.5631 53.7647Z" fill="#263238"/>
<path d="M44.3362 51.4326C44.3362 51.4326 44.2997 51.4508 44.245 51.4691C44.1721 51.4873 44.081 51.5055 43.9716 51.5419C43.7163 51.5966 43.37 51.6877 42.9506 51.7788C42.0938 51.9792 40.9088 52.2525 39.5962 52.5804C38.3018 52.9084 37.1168 53.2363 36.2599 53.4549C35.8406 53.5643 35.4942 53.6553 35.2572 53.7282C35.1478 53.7647 35.0567 53.7829 34.9837 53.8011C34.929 53.8193 34.8926 53.8193 34.8926 53.8193C34.8926 53.8193 34.929 53.8011 34.9837 53.7829C35.0567 53.7647 35.1478 53.7282 35.2572 53.6918C35.4942 53.6189 35.8406 53.5096 36.2599 53.4003C37.0985 53.1452 38.2835 52.8355 39.5779 52.4893C40.8906 52.1614 42.0756 51.8881 42.9324 51.7059C43.37 51.6148 43.7163 51.5419 43.9534 51.4873C44.0627 51.4691 44.1539 51.4508 44.2268 51.4326C44.2997 51.4326 44.3362 51.4326 44.3362 51.4326Z" fill="#263238"/>
<path d="M29.3896 11.4453L15.2246 14.5996L15.8154 17.2494L29.9804 14.0951L29.3896 11.4453Z" fill="#E0E0E0"/>
<path d="M42.7676 54.6035L47.3435 78.7438L51.5367 71.0371L59.4489 75.6829L51.0444 52.1621L42.7676 54.6035Z" fill="url(#paint6_linear_1636_4407)"/>
<g opacity="0.3">
<path d="M44.3171 62.7293C45.1557 62.9115 46.1584 62.6018 46.7418 61.9823C47.1611 61.5451 47.4346 60.9621 47.9633 60.6706C48.4373 60.4155 49.0207 60.4519 49.5312 60.5977C50.0416 60.7434 50.5339 60.9803 51.0626 61.1078C52.0835 61.3811 53.2138 61.1989 54.1071 60.6523L52.7945 56.9903L46.6689 56.2251L43.752 59.7232L44.3171 62.7293Z" fill="black"/>
</g>
<path d="M51.2257 70.0716C51.2075 70.0716 50.5147 67.5756 49.7126 64.4783C48.8922 61.3811 48.2541 58.8669 48.2906 58.8486C48.3088 58.8486 49.0016 61.3446 49.8037 64.4601C50.6059 67.5391 51.2622 70.0716 51.2257 70.0716Z" fill="#263238"/>
<path d="M43.443 55.8603L38.8671 80.0006L34.6922 72.2939L26.7617 76.9398L35.1844 53.4189L43.443 55.8603Z" fill="url(#paint7_linear_1636_4407)"/>
<g opacity="0.3">
<path d="M32.6699 60.4516C32.6699 60.4516 33.9643 61.5266 35.5322 61.0347C37.0818 60.5427 38.048 60.4334 38.8867 61.0347C39.7253 61.6359 42.0042 63.5853 42.0042 63.5853L42.5329 60.7978L39.4883 56.6074L36.2979 57.2451L34.019 57.4637L33.1804 59.067L32.6699 60.4516Z" fill="black"/>
</g>
<path d="M70.2604 34.0516C70.2604 35.7825 68.0362 37.2764 67.7263 38.9161C67.3982 40.6105 68.8566 42.8332 68.2186 44.3819C67.5622 45.9669 64.937 46.4953 64.0072 47.8981C63.0592 49.3192 63.5697 51.9428 62.3664 53.127C61.1632 54.3295 58.5379 53.8194 57.1341 54.7667C55.7304 55.7141 55.2017 58.3195 53.6156 58.9754C52.0659 59.613 49.8418 58.1555 48.1463 58.4834C46.5055 58.8114 45.0106 61.0159 43.2786 61.0159C41.5467 61.0159 40.0518 58.7932 38.411 58.4834C36.7155 58.1555 34.4913 59.613 32.9417 58.9754C31.3556 58.3195 30.8269 55.6959 29.4231 54.7667C28.0011 53.8194 25.3759 54.3295 24.1909 53.127C22.9876 51.9246 23.4981 49.301 22.5501 47.8981C21.6021 46.4953 18.9951 45.9669 18.3387 44.3819C17.7007 42.8332 19.1591 40.6105 18.831 38.9161C18.5028 37.2764 16.2969 35.7825 16.2969 34.0516C16.2969 32.3208 18.521 30.8269 18.831 29.1871C19.1591 27.4928 17.7007 25.27 18.3387 23.7214C18.9951 22.1364 21.6203 21.608 22.5501 20.2051C23.4981 18.7841 22.9876 16.1605 24.1909 14.9763C25.3941 13.7738 28.0194 14.2839 29.4231 13.3365C30.8269 12.3892 31.3556 9.78383 32.9417 9.12794C34.4913 8.49027 36.7155 9.9478 38.411 9.61985C40.0518 9.29191 41.5467 7.0874 43.2786 7.0874C45.0106 7.0874 46.4873 9.29191 48.1281 9.61985C49.8235 9.9478 52.0477 8.49027 53.5973 9.12794C55.1834 9.78383 55.7121 12.4074 57.1159 13.3365C58.5379 14.2839 61.1632 13.7738 62.3482 14.9763C63.5514 16.1787 63.041 18.8023 63.989 20.2051C64.937 21.608 67.544 22.1364 68.2003 23.7214C68.8384 25.27 67.3799 27.4928 67.7081 29.1871C68.0545 30.8269 70.2604 32.3208 70.2604 34.0516Z" fill="url(#paint8_linear_1636_4407)"/>
<path d="M36.9541 18.9299C36.9541 18.9299 36.9359 18.9117 36.8994 18.857C36.8629 18.8024 36.8265 18.7295 36.7718 18.6384C36.6624 18.438 36.5165 18.1647 36.3342 17.8003C35.9878 17.0898 35.5321 16.106 35.0945 14.9764C34.657 13.8468 34.3106 12.8083 34.0918 12.0613C33.9824 11.6787 33.8913 11.369 33.8366 11.1504C33.8184 11.0593 33.8001 10.9682 33.7819 10.8953C33.7637 10.8406 33.7637 10.8042 33.7637 10.8042C33.7637 10.8042 33.7819 10.8406 33.8001 10.8953C33.8184 10.9682 33.8548 11.041 33.8731 11.1321C33.946 11.3508 34.0371 11.6605 34.1465 12.0249C34.3835 12.7719 34.7299 13.8103 35.1675 14.9399C35.605 16.0695 36.0425 17.0533 36.3889 17.7639C36.553 18.1101 36.6989 18.4016 36.79 18.602C36.8265 18.6931 36.8629 18.7659 36.8994 18.8388C36.9359 18.8935 36.9541 18.9299 36.9541 18.9299Z" fill="#263238"/>
<path d="M39.3608 18.0192C39.3608 18.0192 39.3243 17.9463 39.2878 17.8188C39.2514 17.6912 39.1967 17.4908 39.142 17.254C39.0144 16.7803 38.8685 16.1244 38.7409 15.3956C38.6133 14.6669 38.5039 13.9928 38.4492 13.5009C38.4128 13.264 38.3945 13.0636 38.3945 12.9178C38.3763 12.7903 38.3763 12.6992 38.3945 12.6992C38.3945 12.6992 38.4128 12.7721 38.431 12.8996C38.4492 13.0454 38.4857 13.2458 38.5221 13.4644C38.5951 13.9381 38.7045 14.6122 38.8321 15.341C38.9597 16.0697 39.1055 16.7256 39.2149 17.1993C39.2696 17.418 39.3061 17.6184 39.3425 17.7641C39.3425 17.9463 39.3608 18.0192 39.3608 18.0192Z" fill="#263238"/>
<path d="M43.5882 17.6001C43.57 17.6001 43.4971 15.5595 43.4424 13.0271C43.3877 10.5129 43.3695 8.4541 43.3877 8.4541C43.4059 8.4541 43.4789 10.4946 43.5335 13.0271C43.5882 15.5595 43.6247 17.6001 43.5882 17.6001Z" fill="#263238"/>
<path d="M47.8538 13.3916C47.872 13.3916 47.5803 14.4301 47.1975 15.669C46.8146 16.9261 46.4683 17.9282 46.45 17.9282C46.4318 17.9282 46.7235 16.8897 47.1063 15.6508C47.4892 14.3937 47.8356 13.3916 47.8538 13.3916Z" fill="#263238"/>
<path d="M49.6055 18.6751C49.6055 18.6751 49.6055 18.6386 49.6237 18.584C49.6419 18.5111 49.6784 18.4382 49.7149 18.3471C49.7878 18.1467 49.8972 17.837 50.043 17.4726C50.3347 16.7438 50.7358 15.7236 51.2098 14.6122C51.6838 13.5008 52.1031 12.4988 52.4313 11.77C52.5953 11.4239 52.723 11.1324 52.8141 10.9137C52.8506 10.8226 52.887 10.7498 52.9235 10.6769C52.9417 10.6222 52.96 10.604 52.96 10.604C52.96 10.604 52.96 10.6404 52.9417 10.6951C52.9235 10.768 52.887 10.8409 52.8506 10.9319C52.7594 11.1506 52.6318 11.4421 52.486 11.7882C52.176 12.5352 51.7567 13.5191 51.3009 14.6304C50.8452 15.7418 50.4259 16.7438 50.1159 17.4726C49.9701 17.8188 49.8425 18.1103 49.7513 18.3289C49.7149 18.42 49.6784 18.4929 49.6602 18.5657C49.6055 18.6568 49.6055 18.6751 49.6055 18.6751Z" fill="#263238"/>
<path d="M51.8848 19.8593C51.8848 19.8593 51.9212 19.7864 51.9942 19.6771C52.0671 19.5678 52.1765 19.4038 52.3041 19.1852C52.5775 18.7844 52.9786 18.2378 53.4344 17.6366C53.8902 17.0536 54.3277 16.5434 54.6559 16.1791C54.8199 15.9969 54.9476 15.8511 55.0569 15.76C55.1481 15.6689 55.2028 15.6143 55.2028 15.6143C55.2028 15.6143 55.1663 15.6871 55.0752 15.7782C54.984 15.9058 54.8564 16.0515 54.7106 16.2155C54.4006 16.5981 53.9631 17.1082 53.5073 17.6912C53.0515 18.2742 52.6505 18.8208 52.3588 19.2034C52.2312 19.3856 52.1035 19.5496 52.0124 19.6771C51.9212 19.8046 51.8848 19.8775 51.8848 19.8593Z" fill="#263238"/>
<path d="M55.1838 22.5738C55.1655 22.5556 56.6058 21.1892 58.4106 19.513C60.2155 17.8369 61.674 16.5069 61.6922 16.5251C61.7104 16.5433 60.2702 17.9097 58.4653 19.5859C56.6787 21.262 55.202 22.592 55.1838 22.5738Z" fill="#263238"/>
<path d="M60.9815 23.1387C60.9815 23.1569 60.7809 23.2662 60.4346 23.4302C60.0882 23.6124 59.6324 23.8674 59.1037 24.1589C58.5932 24.4504 58.1192 24.7055 57.7728 24.8695C57.5905 24.9424 57.4629 25.0152 57.3535 25.0517C57.2441 25.0881 57.1895 25.1063 57.1895 25.1063C57.1895 25.0881 57.39 24.9788 57.7364 24.8148C58.0828 24.6326 58.5385 24.3776 59.0672 24.0861C59.5777 23.7946 60.0517 23.5395 60.3981 23.3755C60.5804 23.3026 60.708 23.2298 60.8174 23.1933C60.9268 23.1569 60.9815 23.1387 60.9815 23.1387Z" fill="#263238"/>
<path d="M66.3419 25.3617C66.3419 25.38 64.6282 26.0176 62.5134 26.7646C60.3804 27.5116 58.6484 28.0946 58.6484 28.0764C58.6484 28.0582 60.3621 27.4205 62.4769 26.6735C64.61 25.9265 66.3419 25.3435 66.3419 25.3617Z" fill="#263238"/>
<path d="M68.0542 35.1087C68.0542 35.1269 66.1946 34.9812 63.8793 34.7625C61.5822 34.5439 59.7227 34.3435 59.7227 34.3253C59.7227 34.307 61.5822 34.4528 63.8975 34.6714C66.1946 34.8901 68.0542 35.0905 68.0542 35.1087Z" fill="#263238"/>
<path d="M66.6707 43.8537C66.6524 43.872 64.9205 43.0703 62.7692 42.0683C60.6362 41.0662 58.9043 40.2099 58.9043 40.1917C58.9225 40.1735 60.6545 40.9751 62.8057 41.9772C64.957 42.9792 66.6889 43.8173 66.6707 43.8537Z" fill="#263238"/>
<path d="M60.9447 52.1617C60.9265 52.1799 59.6686 50.7224 58.1372 48.9005C56.6058 47.0786 55.3843 45.6029 55.4025 45.5846C55.4208 45.5664 56.6787 47.024 58.2101 48.8459C59.7233 50.6495 60.963 52.1435 60.9447 52.1617Z" fill="#263238"/>
<path d="M56.1507 53.2549C56.1507 53.2549 56.096 53.182 56.0049 53.0545C55.9137 52.9269 55.7861 52.7265 55.622 52.4715C55.3121 51.9795 54.8745 51.2872 54.437 50.522C53.9812 49.7386 53.5984 49.028 53.3431 48.5179C53.2155 48.2628 53.1061 48.0442 53.0332 47.8985C52.9603 47.7527 52.9238 47.6616 52.9238 47.6616C52.9238 47.6616 52.9785 47.7345 53.0514 47.8802C53.1426 48.0442 53.252 48.2446 53.3978 48.4815C53.6895 48.9916 54.0724 49.7022 54.5282 50.4674C54.9839 51.2326 55.385 51.9431 55.6949 52.435C55.8408 52.6719 55.9502 52.8723 56.0595 53.0363C56.1142 53.182 56.1507 53.2549 56.1507 53.2549Z" fill="#263238"/>
<path d="M53.1793 57.445C53.1793 57.445 53.1611 57.4268 53.1246 57.3722C53.0882 57.3175 53.0517 57.2446 52.997 57.1535C52.8876 56.9531 52.76 56.6798 52.5777 56.3155C52.2495 55.6049 51.812 54.6029 51.3927 53.4915C50.9916 52.3619 50.6817 51.3234 50.4811 50.5765C50.39 50.1939 50.2988 49.8841 50.2624 49.6655C50.2442 49.5744 50.2259 49.4833 50.2077 49.4104C50.1895 49.3558 50.1895 49.3193 50.1895 49.3193C50.1895 49.3193 50.2077 49.3558 50.2259 49.4104C50.2441 49.4833 50.2624 49.5562 50.2988 49.6473C50.3535 49.8659 50.4447 50.1756 50.5541 50.54C50.7728 51.287 51.0828 52.3255 51.5021 53.4551C51.9032 54.5846 52.3407 55.5685 52.6506 56.279C52.8147 56.6252 52.9423 56.9167 53.0335 57.1171C53.0699 57.2082 53.1064 57.2811 53.1429 57.3539C53.1611 57.4086 53.1793 57.445 53.1793 57.445Z" fill="#263238"/>
<path d="M47.1455 54.5121C47.1273 54.5121 47.109 54.2753 47.0726 53.8744C47.0361 53.4736 46.9632 52.9453 46.872 52.344C46.7809 51.7428 46.6533 51.2145 46.5803 50.8319C46.4892 50.4492 46.4345 50.2124 46.4527 50.2124C46.4527 50.2124 46.4892 50.2671 46.5074 50.3764C46.5439 50.4857 46.5803 50.6314 46.635 50.8319C46.7444 51.2145 46.872 51.7428 46.9632 52.344C47.0543 52.9453 47.1273 53.4918 47.1455 53.8744C47.1637 54.0748 47.1637 54.2388 47.1637 54.3481C47.1455 54.4392 47.1455 54.5121 47.1455 54.5121Z" fill="#263238"/>
<path d="M43.207 59.7591C43.207 59.7591 43.207 59.7226 43.207 59.668C43.207 59.5951 43.207 59.504 43.207 59.3947C43.207 59.1578 43.207 58.8299 43.207 58.4109C43.2253 57.5728 43.2617 56.425 43.3346 55.1679C43.4076 53.8925 43.4805 52.7629 43.5534 51.9249C43.5899 51.5058 43.6263 51.1779 43.6446 50.941C43.6628 50.8317 43.6628 50.7406 43.681 50.6678C43.681 50.6131 43.6993 50.5767 43.6993 50.5767C43.6993 50.5767 43.6993 50.6131 43.6993 50.6678C43.6993 50.7406 43.6993 50.8317 43.681 50.941C43.6628 51.1961 43.6446 51.5241 43.6263 51.9249C43.5717 52.7629 43.517 53.9107 43.444 55.1679C43.3711 56.4432 43.3346 57.5728 43.2982 58.4109C43.28 58.8117 43.2617 59.1396 43.2617 59.3947C43.2617 59.504 43.2435 59.5951 43.2435 59.668C43.207 59.7226 43.207 59.7591 43.207 59.7591Z" fill="#263238"/>
<path d="M39.9976 50.5767C40.0158 50.5767 39.9976 50.7589 39.9429 51.0504C39.8882 51.3419 39.8152 51.7245 39.7241 52.1617C39.6147 52.599 39.5236 52.9816 39.4324 53.2549C39.3412 53.5281 39.2865 53.6921 39.2683 53.6921C39.2501 53.6921 39.2865 53.5099 39.3595 53.2366C39.4324 52.9269 39.5236 52.5443 39.6147 52.1435C39.7059 51.7245 39.797 51.3601 39.8699 51.0504C39.9429 50.7406 39.9793 50.5767 39.9976 50.5767Z" fill="#263238"/>
<path d="M34.1994 47.7891C34.2177 47.8073 33.8713 48.3174 33.3973 48.9187C32.9415 49.5199 32.5404 50.0118 32.5222 49.9936C32.5039 49.9754 32.8503 49.4652 33.3243 48.864C33.7801 48.2628 34.1812 47.7708 34.1994 47.7891Z" fill="#263238"/>
<path d="M31.155 45.7487C31.1732 45.7669 30.0429 47.0969 28.6209 48.7184C27.1989 50.3399 26.0504 51.6335 26.0139 51.6153C25.9957 51.597 27.126 50.2671 28.548 48.6456C29.97 47.0423 31.1368 45.7305 31.155 45.7487Z" fill="#263238"/>
<path d="M29.6439 43.4892C29.6621 43.5075 29.024 44.054 28.2401 44.7099C27.4379 45.3658 26.7816 45.8759 26.7816 45.8577C26.7634 45.8395 27.4015 45.2929 28.1854 44.637C28.9693 43.9812 29.6257 43.471 29.6439 43.4892Z" fill="#263238"/>
<path d="M27.857 40.0824C27.8752 40.1006 26.2891 40.884 24.3384 41.8314C22.3877 42.7788 20.7834 43.5258 20.7834 43.4893C20.7651 43.4711 22.3512 42.6877 24.3019 41.7403C26.2526 40.8111 27.857 40.0641 27.857 40.0824Z" fill="#263238"/>
<path d="M27.1456 38.3885C27.1456 38.3885 27.0909 38.4067 26.9815 38.4432C26.8721 38.4614 26.7263 38.4978 26.5257 38.5343C26.1429 38.6072 25.6142 38.68 25.0126 38.7529C24.411 38.8076 23.8823 38.844 23.4812 38.844C23.2806 38.844 23.1348 38.844 23.0254 38.844C22.916 38.844 22.8613 38.844 22.8613 38.8258C22.8613 38.8076 23.0983 38.8076 23.4994 38.7711C23.8823 38.7529 24.4292 38.7165 25.0126 38.6436C25.596 38.5889 26.1429 38.5161 26.5257 38.4614C26.9086 38.4067 27.1456 38.3703 27.1456 38.3885Z" fill="#263238"/>
<path d="M26.5613 34.4529C26.5613 34.4529 26.4519 34.4529 26.2514 34.4529C26.0326 34.4346 25.7409 34.4346 25.3763 34.4164C24.6471 34.38 23.6261 34.3435 22.5141 34.3618C21.402 34.3618 20.381 34.4164 19.6518 34.4529C19.3054 34.4711 19.0137 34.4893 18.7767 34.5075C18.5762 34.5257 18.4668 34.5257 18.4668 34.5257C18.4668 34.5257 18.5762 34.5075 18.7767 34.4711C18.9773 34.4529 19.269 34.4164 19.6336 34.38C20.3628 34.3253 21.3837 34.2707 22.4958 34.2524C23.6079 34.2524 24.6289 34.2889 25.3581 34.3435C25.7227 34.3618 26.0144 34.3982 26.2332 34.4164C26.4519 34.4346 26.5613 34.4529 26.5613 34.4529Z" fill="#263238"/>
<path d="M26.9265 31.0093C26.9265 31.0275 25.7415 30.736 24.283 30.3169C22.8428 29.9161 21.6578 29.57 21.676 29.5335C21.676 29.5153 22.861 29.8068 24.3195 30.2258C25.7597 30.6449 26.9265 30.991 26.9265 31.0093Z" fill="#263238"/>
<path d="M27.6902 28.1123C27.6902 28.1123 27.6537 28.1123 27.599 28.0941C27.5261 28.0759 27.4532 28.0577 27.362 28.0212C27.1615 27.9484 26.8516 27.8573 26.487 27.7297C25.7577 27.4564 24.755 27.0556 23.6794 26.5273C22.6038 25.9989 21.674 25.4523 21.0177 25.0333C20.6895 24.8147 20.4161 24.6507 20.252 24.5232C20.1791 24.4685 20.1061 24.4138 20.0514 24.3774C19.9967 24.341 19.9785 24.3228 19.9785 24.3228C19.9785 24.3228 20.015 24.341 20.0514 24.3592C20.1061 24.3956 20.1791 24.4321 20.2702 24.4867C20.4525 24.596 20.726 24.7782 21.0541 24.9786C21.7287 25.3795 22.6585 25.926 23.7341 26.4362C24.8097 26.9645 25.7942 27.3836 26.5234 27.6568C26.888 27.8026 27.1797 27.9119 27.3803 27.9848C27.4714 28.0212 27.5443 28.0577 27.6173 28.0759C27.6537 28.1123 27.6902 28.1123 27.6902 28.1123Z" fill="#263238"/>
<path d="M29.4056 25.2158C29.3874 25.234 28.4758 24.6145 27.3455 23.8311C26.2152 23.0477 25.3219 22.3736 25.3401 22.3554C25.3583 22.3372 26.2699 22.9566 27.4002 23.74C28.5123 24.5417 29.4238 25.1975 29.4056 25.2158Z" fill="#263238"/>
<path d="M25.7773 16.3613C25.7773 16.3613 25.7956 16.3795 25.8503 16.416C25.905 16.4524 25.9597 16.5071 26.0326 16.58C26.1967 16.7257 26.4337 16.9261 26.7071 17.1812C27.2905 17.6913 28.0562 18.3836 28.9131 19.1488C29.7699 19.914 30.5538 20.6064 31.1372 21.1165C31.4107 21.3534 31.6295 21.5538 31.8118 21.7177C31.8847 21.7906 31.9394 21.8453 31.9941 21.8817C32.0306 21.9181 32.0488 21.9364 32.0488 21.9364C32.0488 21.9364 32.0306 21.9181 31.9759 21.8817C31.9212 21.8453 31.8665 21.7906 31.7935 21.736C31.6295 21.6084 31.3925 21.408 31.1008 21.1712C30.5174 20.6793 29.7335 20.0051 28.8584 19.2399C28.0015 18.4747 27.2176 17.7642 26.6707 17.2541C26.3972 16.999 26.1784 16.7804 26.0143 16.6346C25.9414 16.5617 25.8867 16.5071 25.832 16.4706C25.7956 16.3795 25.7773 16.3613 25.7773 16.3613Z" fill="#263238"/>
<path d="M31.4644 16.5254C31.4644 16.5254 31.5191 16.5618 31.592 16.6529C31.665 16.744 31.7743 16.8716 31.902 17.0173C32.1572 17.327 32.4853 17.7825 32.85 18.2926C33.1964 18.8028 33.4881 19.2765 33.6886 19.6226C33.798 19.8048 33.8709 19.9506 33.9256 20.0417C33.9803 20.151 33.9985 20.2056 33.9985 20.2056C33.9803 20.2056 33.8527 20.0052 33.6339 19.6591C33.4151 19.3129 33.1052 18.8574 32.7588 18.3473C32.4124 17.8372 32.0843 17.3817 31.8473 17.0537C31.592 16.7258 31.4462 16.5254 31.4644 16.5254Z" fill="#263238"/>
<g opacity="0.2">
<path d="M24.1719 14.9766L32.1023 21.9181L34.0713 20.333L29.4771 13.2822C29.4771 13.2822 29.1307 13.5373 28.2009 13.8106C27.3258 14.0656 24.7006 14.1385 24.1719 14.9766Z" fill="black"/>
</g>
<g opacity="0.2">
<path d="M32.9961 9.11L36.861 18.8026L39.3405 18.0191L38.5201 9.62014C38.5201 9.62014 38.1008 9.71123 37.1527 9.60192C36.2412 9.47439 34.017 8.61809 32.9961 9.11Z" fill="black"/>
</g>
<g opacity="0.3">
<path d="M43.334 7.06935L43.5892 17.5818L45.9045 17.6911L48.2563 9.62003C48.2199 9.62003 47.6 9.51071 46.889 9.05524C46.0869 8.56332 44.4461 6.99648 43.334 7.06935Z" fill="black"/>
</g>
<g opacity="0.2">
<path d="M53.4522 9.05518L49.6055 18.7659L51.702 19.768L57.0072 13.2273C56.9708 13.2091 56.4603 12.7901 56.0045 12.0431C55.4758 11.2415 54.619 9.38312 53.4522 9.05518Z" fill="black"/>
</g>
<g opacity="0.2">
<path d="M62.4773 15.1221L55.3125 22.5919L56.9168 24.7417L63.9175 20.0777C63.9175 20.0777 63.6258 19.604 63.4617 18.7112C63.2976 17.7821 63.2612 16.1423 62.4773 15.1221Z" fill="black"/>
</g>
<g opacity="0.2">
<path d="M68.1468 23.5396L58.4844 27.5113L59.2865 29.9709L67.691 29.0599C67.691 29.0599 67.6363 28.8049 67.7457 27.8575C67.8551 26.9465 68.8213 24.906 68.1468 23.5396Z" fill="black"/>
</g>
<g opacity="0.2">
<path d="M70.2784 34.0518L59.7591 34.4161L59.668 36.73L67.6896 39.0802C67.6896 39.0438 67.7625 38.5883 67.9995 38.1146C68.6011 37.0215 70.2784 35.4364 70.2784 34.0518Z" fill="black"/>
</g>
<g opacity="0.2">
<path d="M68.3467 43.9999L58.6661 40.2285L57.6816 42.3237L64.2812 47.5526C64.2995 47.5161 64.6823 47.1518 65.4298 46.6781C66.2137 46.1679 68.1097 45.3481 68.3467 43.9999Z" fill="black"/>
</g>
<g opacity="0.2">
<path d="M54.0901 43.854L51.6836 45.8581C51.8659 46.0403 55.0563 51.4696 57.0253 54.8401C57.0435 54.8219 57.08 54.8037 57.0982 54.7855C58.3926 53.9109 60.7079 54.2571 62.0023 53.4008L54.0901 43.854Z" fill="black"/>
<path d="M49.6768 47.6436L46.1035 48.8642L47.799 58.575C47.9084 58.5386 48.0178 58.5021 48.1271 58.4839C49.8226 58.156 52.0468 59.6135 53.5964 58.9758C53.8152 58.8847 53.9975 58.7572 54.1798 58.6114L49.6768 47.6436Z" fill="black"/>
<path d="M43.1515 61.0349L43.7167 48.3362L40.6174 47.5527L38.3203 58.4842C38.3568 58.4842 38.375 58.4842 38.4115 58.5024C39.9976 58.8121 41.456 60.9255 43.1515 61.0349Z" fill="black"/>
<path d="M35.3678 46.186C35.3678 46.186 31.2841 51.67 29.1328 54.6033C29.224 54.6579 29.3334 54.7126 29.4245 54.7672C30.8283 55.7146 31.357 58.3199 32.9431 58.9758C33.016 59.0123 33.0889 59.0305 33.1618 59.0487L38.8681 48.2448L35.3678 46.186Z" fill="black"/>
<path d="M31.1564 41.7769L22.4238 47.7709C22.4603 47.8074 22.4968 47.862 22.515 47.8985C23.463 49.3196 22.9525 51.9431 24.1558 53.1273C24.2652 53.2367 24.3928 53.3278 24.5204 53.4189C27.6014 49.939 33.1436 43.7081 33.3442 43.4894L31.1564 41.7769Z" fill="black"/>
<path d="M29.1672 37.4956L18.8485 39.1535C19.0126 40.8115 17.6999 42.8885 18.3198 44.3824C18.3563 44.4735 18.411 44.5646 18.4474 44.6375C22.0571 42.8338 29.6047 39.0989 29.9147 39.0807L29.1672 37.4956Z" fill="black"/>
<path d="M28.6034 31.7564L18.8499 28.9507C18.8499 29.0418 18.8316 29.1147 18.8134 29.2058C18.4852 30.8455 16.2793 32.3394 16.2793 34.0702C16.2793 34.1796 16.2975 34.3071 16.3158 34.4164H28.2206L28.6034 31.7564Z" fill="black"/>
<path d="M18.3574 23.649C22.0036 25.5985 29.1319 29.552 29.1319 29.552L30.8821 26.2179L22.6417 20.0234C22.6052 20.0963 22.5688 20.151 22.5323 20.2056C21.6025 21.5903 19.0684 22.1369 18.3574 23.649Z" fill="black"/>
</g>
<path d="M70.2617 34.052C70.2617 34.052 70.2617 34.0155 70.2435 33.9427C70.2253 33.8698 70.2435 33.7423 70.1888 33.5965C70.1341 33.305 69.97 32.8677 69.6419 32.3758C69.3319 31.8657 68.8579 31.3191 68.3657 30.5904C68.1287 30.226 67.8735 29.8252 67.7458 29.3332C67.6182 28.8413 67.6365 28.2948 67.7458 27.7482C67.8552 27.2016 68.0193 26.6186 68.1652 26.0174C68.2928 25.4161 68.4386 24.7603 68.311 24.0861C68.2381 23.7582 68.074 23.4303 67.8552 23.157C67.6365 22.8837 67.3448 22.6468 67.0531 22.4464C66.4515 22.0092 65.7587 21.6812 65.0841 21.2257C64.756 21.0071 64.4278 20.7521 64.1544 20.4241C63.8809 20.1144 63.6986 19.7136 63.5892 19.2945C63.3522 18.4747 63.2975 17.5819 63.1334 16.6892C63.0423 16.2519 62.9146 15.7965 62.6776 15.3956C62.4406 14.9948 62.076 14.6851 61.6385 14.5029C61.2009 14.3025 60.7269 14.2114 60.2529 14.1385C59.7607 14.0656 59.2685 14.011 58.7762 13.9199C58.284 13.8288 57.7735 13.7195 57.3178 13.4644C56.862 13.2094 56.4974 12.8085 56.1874 12.3713C55.8775 11.934 55.6223 11.4785 55.3488 11.0048C55.0754 10.5494 54.7837 10.0757 54.4008 9.69307C54.018 9.31047 53.5257 9.01896 52.9606 8.98252C52.4136 8.94608 51.8485 9.0554 51.3016 9.18293C50.7546 9.31047 50.1895 9.47444 49.6243 9.58375C49.0592 9.69307 48.4393 9.72951 47.8559 9.54731C47.2907 9.3469 46.7803 9.00074 46.3063 8.65458C45.814 8.2902 45.34 7.92582 44.8296 7.59787C44.3191 7.28815 43.7175 7.03308 43.1159 7.10596H43.0065C42.97 7.10596 42.9336 7.12418 42.8971 7.12418C42.8242 7.1424 42.7512 7.16061 42.6783 7.17883C42.5325 7.23349 42.3866 7.26993 42.2408 7.34281C41.9491 7.47034 41.6939 7.63431 41.4386 7.8165C40.9282 8.16266 40.4359 8.5817 39.9072 8.94608C39.652 9.12828 39.3603 9.29225 39.0686 9.438C38.7769 9.56553 38.4488 9.65663 38.1206 9.67485C37.4643 9.71129 36.808 9.56553 36.1699 9.40156C35.5318 9.23759 34.8937 9.0554 34.2374 9.00074C33.9093 8.9643 33.5811 8.98252 33.2529 9.07362C32.9248 9.14649 32.6513 9.32869 32.3961 9.54731C31.8856 9.98457 31.5392 10.5676 31.1928 11.1506C30.8465 11.7336 30.5183 12.3348 30.0443 12.8632C29.8073 13.1183 29.5338 13.3551 29.2239 13.5191C28.914 13.683 28.5676 13.7741 28.2212 13.8652C27.5284 14.011 26.8356 14.0839 26.1429 14.2114C25.4683 14.3389 24.7573 14.5211 24.2469 15.013C24.0099 15.2681 23.8275 15.5778 23.6999 15.9058C23.5723 16.2337 23.4994 16.5799 23.4265 16.9443C23.2989 17.6548 23.2442 18.3654 23.0618 19.0759C22.9889 19.4221 22.8613 19.7864 22.679 20.0962C22.4967 20.4241 22.2415 20.6974 21.9498 20.916C21.3664 21.3715 20.7101 21.7177 20.0902 22.1003C19.7803 22.3007 19.4704 22.5011 19.1787 22.7197C18.9052 22.9566 18.65 23.2298 18.4677 23.5396C18.2853 23.8493 18.2124 24.2137 18.2124 24.5963C18.2124 24.9607 18.2671 25.325 18.34 25.6894C18.4859 26.4182 18.7229 27.1287 18.8505 27.8757C18.9234 28.2401 18.9417 28.6409 18.887 29.0235C18.8323 29.4061 18.6864 29.7705 18.5041 30.0984C18.1213 30.7725 17.629 31.3556 17.1915 31.975C16.9727 32.2847 16.7722 32.6127 16.6081 32.9406C16.444 33.2868 16.3346 33.6512 16.3346 34.0338C16.3346 34.4164 16.444 34.7807 16.6081 35.1269C16.7722 35.4731 16.9727 35.7828 17.1915 36.0925C17.629 36.712 18.1213 37.295 18.5041 37.9691C18.6864 38.297 18.8323 38.6614 18.887 39.044C18.9417 39.4266 18.9234 39.8092 18.8505 40.1918C18.7229 40.9388 18.5041 41.6676 18.34 42.3781C18.2671 42.7425 18.2124 43.1069 18.2124 43.4712C18.2124 43.8356 18.2853 44.2 18.4677 44.528C18.6317 44.8559 18.887 45.111 19.1787 45.3478C19.4704 45.5847 19.7621 45.7851 20.0902 45.9673C20.7101 46.3499 21.3664 46.696 21.9498 47.1515C22.2415 47.3883 22.4967 47.6616 22.679 47.9714C22.8613 48.2993 22.9889 48.6455 23.0618 48.9916C23.2259 49.7022 23.2989 50.4309 23.4265 51.1233C23.4994 51.4694 23.5723 51.8156 23.6999 52.1618C23.8275 52.4897 23.9916 52.7994 24.2469 53.0545C24.7573 53.5464 25.4683 53.7468 26.1429 53.8561C26.8356 53.9837 27.5284 54.0383 28.2212 54.2023C28.5676 54.2752 28.8957 54.3845 29.2239 54.5484C29.5338 54.7124 29.8073 54.9493 30.0443 55.2043C30.5001 55.7327 30.8465 56.3339 31.1928 56.9169C31.5392 57.4999 31.8856 58.083 32.3961 58.5202C32.6513 58.7388 32.9248 58.921 33.2529 58.9939C33.5629 59.0668 33.9093 59.085 34.2374 59.0668C34.8937 59.0121 35.5318 58.8117 36.1699 58.666C36.808 58.502 37.4461 58.3562 38.1206 58.3927C38.4488 58.4109 38.7769 58.502 39.0686 58.6295C39.3603 58.7753 39.652 58.9392 39.9072 59.1214C40.4359 59.4858 40.9282 59.8866 41.4569 60.251C41.7121 60.415 41.9855 60.5972 42.259 60.7247C42.4049 60.7976 42.5507 60.834 42.6966 60.8887C42.7695 60.9069 42.8424 60.9251 42.9153 60.9433C42.9518 60.9433 42.9883 60.9616 43.0247 60.9616H43.1341C43.754 61.0344 44.3373 60.7794 44.8478 60.4697C45.3765 60.1599 45.8505 59.7773 46.3245 59.4129C46.8167 59.0668 47.309 58.7206 47.8741 58.5202C48.4575 58.338 49.0591 58.3745 49.6425 58.4838C50.2259 58.5931 50.7729 58.7571 51.3198 58.8846C51.8667 59.0121 52.4319 59.1214 52.9788 59.085C53.5257 59.0486 54.0362 58.7753 54.419 58.3745C54.8019 57.9736 55.0936 57.5182 55.3671 57.0627C55.6405 56.6072 55.8957 56.1335 56.2057 55.6963C56.5156 55.259 56.862 54.8582 57.336 54.6031C57.7918 54.348 58.3022 54.2387 58.7945 54.1476C59.2867 54.0565 59.7789 54.0019 60.2712 53.929C60.7452 53.8561 61.2374 53.7468 61.6567 53.5646C62.0943 53.3824 62.4589 53.0727 62.6959 52.6719C62.9329 52.2711 63.0605 51.8338 63.1517 51.3783C63.334 50.4856 63.3887 49.6111 63.6074 48.773C63.735 48.354 63.8991 47.9714 64.1726 47.6434C64.446 47.3155 64.7742 47.0786 65.1024 46.8418C65.7769 46.3863 66.4697 46.0584 67.0713 45.6211C67.363 45.4025 67.6547 45.1838 67.8735 44.9106C68.0922 44.6373 68.2563 44.3275 68.3292 43.9814C68.4022 43.6534 68.3839 43.3073 68.3657 42.9976C68.3292 42.6696 68.2563 42.3599 68.2016 42.0502C68.0558 41.4489 67.8917 40.8659 67.7823 40.3193C67.6729 39.7728 67.6547 39.2262 67.7823 38.7343C67.9099 38.2424 68.1652 37.8416 68.4022 37.4772C68.8944 36.7666 69.3684 36.2018 69.6783 35.6917C70.0065 35.1998 70.1706 34.7625 70.2253 34.471C70.2617 34.3253 70.2617 34.216 70.2799 34.1249C70.2617 34.0884 70.2617 34.052 70.2617 34.052C70.2617 34.052 70.2617 34.0884 70.2617 34.1613C70.2617 34.2342 70.2617 34.3617 70.2253 34.5075C70.1706 34.799 70.0065 35.2362 69.6783 35.7281C69.3684 36.2383 68.8944 36.8031 68.4022 37.5136C68.1652 37.878 67.9099 38.2788 67.7823 38.7525C67.6547 39.2262 67.6729 39.7728 67.7823 40.3193C67.8917 40.8659 68.0558 41.4489 68.2016 42.0502C68.2745 42.3599 68.3475 42.6696 68.3839 42.9976C68.4204 43.3255 68.4386 43.6717 68.3657 43.9996C68.2928 44.3458 68.1287 44.6555 67.9099 44.947C67.6729 45.2203 67.3995 45.4571 67.0895 45.6758C66.4879 46.113 65.7769 46.4592 65.1206 46.8964C64.7924 47.1151 64.4643 47.3701 64.209 47.6799C63.9356 47.9896 63.7715 48.3722 63.6439 48.7912C63.4069 49.6111 63.3704 50.5038 63.1881 51.3965C63.097 51.8338 62.9693 52.2893 62.7323 52.7083C62.4953 53.1274 62.1125 53.4371 61.6749 53.6375C61.2374 53.8379 60.7452 53.929 60.2712 54.0201C59.7789 54.093 59.2867 54.1659 58.7945 54.2387C58.3022 54.3298 57.7918 54.4391 57.3542 54.6942C56.8984 54.9311 56.5521 55.3319 56.2604 55.7691C55.9687 56.2064 55.6952 56.6619 55.4217 57.1356C55.1483 57.591 54.8566 58.0647 54.4737 58.4655C54.0909 58.8664 53.5622 59.1579 52.997 59.1943C52.4319 59.2308 51.8667 59.1214 51.3016 58.9939C50.7364 58.8664 50.1895 58.7024 49.6243 58.5931C49.0592 58.4838 48.4575 58.4473 47.9106 58.6295C47.3637 58.8299 46.8532 59.1579 46.3792 59.5223C45.887 59.8866 45.413 60.251 44.9025 60.579C44.7749 60.6518 44.629 60.7429 44.5014 60.7976C44.4285 60.834 44.3556 60.8705 44.2826 60.8887L44.0639 60.9616C43.7722 61.0527 43.444 61.1073 43.1341 61.0709L43.0247 61.0527C42.9883 61.0527 42.9518 61.0344 42.9153 61.0344C42.8424 61.0162 42.7512 60.998 42.6783 60.9798C42.5325 60.9251 42.3684 60.8887 42.2408 60.8158C41.9491 60.6883 41.6756 60.5061 41.4204 60.3421C40.8917 59.9777 40.3995 59.5769 39.8708 59.2308C39.6155 59.0486 39.3238 58.8846 39.0504 58.7571C38.7587 58.6295 38.4487 58.5566 38.1388 58.5202C37.5007 58.4838 36.8627 58.6295 36.2246 58.7935C35.5865 58.9575 34.9484 59.1397 34.2739 59.1943C33.9457 59.2308 33.5993 59.2125 33.2712 59.1214C32.943 59.0486 32.6331 58.8481 32.3779 58.6295C31.8674 58.174 31.5028 57.5728 31.1564 57.008C30.81 56.425 30.4818 55.8238 30.0261 55.3137C29.7891 55.0586 29.5338 54.84 29.2239 54.676C28.914 54.5302 28.5858 54.4209 28.2577 54.348C27.5831 54.2023 26.8903 54.1294 26.1793 54.0019C25.833 53.929 25.4866 53.8561 25.1402 53.7286C24.812 53.6011 24.4839 53.4189 24.2286 53.1638C23.9734 52.9087 23.7911 52.5808 23.6635 52.2346C23.5359 51.8885 23.4629 51.5423 23.39 51.1961C23.2624 50.4856 23.2077 49.7751 23.0254 49.0645C22.9525 48.7183 22.8248 48.3722 22.6425 48.0625C22.4602 47.7527 22.2232 47.4794 21.9315 47.2608C21.3664 46.8053 20.7101 46.4592 20.0902 46.0766C19.7803 45.8762 19.4704 45.6758 19.1787 45.4389C18.887 45.2021 18.6317 44.9106 18.4494 44.5826C18.2671 44.2547 18.176 43.8721 18.1942 43.4895C18.1942 43.1069 18.2489 42.7425 18.3218 42.3781C18.4859 41.6493 18.7047 40.9206 18.8323 40.1918C18.887 39.8274 18.9234 39.4448 18.8687 39.0804C18.814 38.7161 18.6682 38.3699 18.5041 38.042C18.1395 37.3861 17.629 36.8031 17.1915 36.1836C16.9727 35.8739 16.7539 35.5459 16.5899 35.1998C16.4258 34.8536 16.3164 34.471 16.3164 34.0702C16.3164 33.6694 16.444 33.2868 16.6081 32.9406C16.7722 32.5945 16.9727 32.2665 17.2097 31.9568C17.6473 31.3373 18.1395 30.7543 18.5223 30.0984C18.7047 29.7705 18.8505 29.4243 18.887 29.06C18.9417 28.6956 18.9052 28.313 18.8505 27.9486C18.7229 27.2016 18.5041 26.4911 18.34 25.7623C18.2671 25.3979 18.2124 25.0153 18.2124 24.6509C18.2124 24.2683 18.2853 23.8857 18.4859 23.5578C18.6682 23.2298 18.9234 22.9383 19.2151 22.7015C19.5068 22.4646 19.8167 22.2642 20.1267 22.0638C20.7648 21.6812 21.4028 21.3351 21.968 20.8796C22.2597 20.661 22.4967 20.3877 22.679 20.0779C22.8613 19.7682 22.9707 19.4221 23.0618 19.0759C23.2259 18.3836 23.2806 17.6548 23.4265 16.9443C23.4994 16.5981 23.5723 16.2337 23.6999 15.9058C23.8275 15.5778 24.0099 15.2499 24.2651 14.9766C24.5203 14.7215 24.8485 14.5393 25.1766 14.4118C25.5048 14.2843 25.8694 14.2114 26.2158 14.1385C26.9086 14.011 27.6013 13.9563 28.2941 13.7924C28.6223 13.7195 28.9687 13.6102 29.2604 13.4644C29.5703 13.3187 29.8255 13.0818 30.0625 12.8267C30.5183 12.3166 30.8465 11.7154 31.1928 11.1324C31.5392 10.5494 31.9038 9.94813 32.4143 9.51088C32.6695 9.29225 32.9795 9.11006 33.3076 9.01896C33.6358 8.92787 33.9822 8.92787 34.3103 8.94608C34.9849 9.01896 35.623 9.20115 36.261 9.3469C36.8991 9.51088 37.5372 9.65663 38.1753 9.62019C38.4852 9.60197 38.8134 9.51088 39.0868 9.38334C39.3785 9.25581 39.652 9.09184 39.9072 8.90965C40.4359 8.54527 40.9282 8.14444 41.4569 7.79828C41.7121 7.61609 41.9855 7.45212 42.2772 7.32459C42.4231 7.25171 42.5689 7.21527 42.7148 7.16061C42.7877 7.1424 42.8606 7.12418 42.9518 7.10596C42.9883 7.10596 43.0247 7.08774 43.0612 7.08774L43.1706 7.06952C43.4805 7.03308 43.8086 7.08774 44.1003 7.17883L44.3191 7.25171C44.392 7.28815 44.465 7.32459 44.5379 7.34281C44.6837 7.39746 44.8113 7.48856 44.939 7.56143C45.4677 7.88938 45.9417 8.27198 46.4157 8.61814C46.8897 8.9643 47.4001 9.31047 47.9471 9.51088C48.5122 9.69307 49.0956 9.65663 49.6608 9.54731C50.2259 9.438 50.7911 9.27403 51.338 9.14649C51.8849 9.01896 52.4683 8.90965 53.0335 8.94608C53.5986 8.98252 54.1273 9.27403 54.5102 9.67485C54.893 10.0757 55.1847 10.5494 55.4582 11.0048C55.7317 11.4603 55.9869 11.934 56.2968 12.3713C56.5885 12.7903 56.9531 13.1911 57.3907 13.4462C57.8282 13.7013 58.3387 13.8106 58.8309 13.9017C59.3232 13.9928 59.8154 14.0474 60.3076 14.1203C60.7999 14.1932 61.2739 14.3025 61.7114 14.5029C62.149 14.6851 62.55 15.013 62.7688 15.4321C63.0058 15.8329 63.1334 16.2884 63.2246 16.7439C63.4069 17.6366 63.4616 18.5293 63.6803 19.3492C63.7897 19.75 63.972 20.1508 64.2455 20.4605C64.519 20.7703 64.8289 21.0253 65.1571 21.244C65.8134 21.6812 66.5061 22.0274 67.126 22.4646C67.4359 22.6833 67.7094 22.9201 67.9464 23.1934C68.1652 23.4667 68.3292 23.7946 68.4022 24.1408C68.4751 24.487 68.4569 24.8149 68.4204 25.1429C68.3839 25.4708 68.311 25.7805 68.2381 26.0902C68.0922 26.6915 67.9282 27.2745 67.8188 27.8211C67.7094 28.3676 67.6912 28.9142 67.8188 29.3879C67.9464 29.8616 68.2016 30.2624 68.4386 30.6268C68.9309 31.3373 69.4049 31.9021 69.7148 32.4123C70.0429 32.9042 70.207 33.3414 70.2617 33.6329C70.2982 33.7787 70.2982 33.9062 70.2982 33.9791C70.2617 34.0155 70.2617 34.052 70.2617 34.052Z" fill="#263238"/>
<path d="M38.2122 59.085C38.2305 59.085 37.5559 61.8178 36.7173 65.1701C35.8605 68.5225 35.1495 71.2371 35.1312 71.2371C35.113 71.2371 35.7875 68.5042 36.6262 65.1519C37.4648 61.7996 38.1758 59.085 38.2122 59.085Z" fill="#263238"/>
<path d="M43.2607 50.5947C52.4031 50.5947 59.8144 43.1881 59.8144 34.0517C59.8144 24.9153 52.4031 17.5088 43.2607 17.5088C34.1184 17.5088 26.707 24.9153 26.707 34.0517C26.707 43.1881 34.1184 50.5947 43.2607 50.5947Z" fill="white"/>
<path d="M33.0696 28.3126C32.8326 28.5495 31.5929 30.8269 31.4653 32.7034C31.3559 34.58 31.6294 45.1471 31.6294 45.1471L31.6841 45.8394C34.6557 49.3192 45.4849 54.4934 55.2384 45.8212L55.7853 39.3169L54.181 25.5615L48.5841 24.1951L47.2715 22.0635L38.5389 24.104L37.7549 25.9441L33.0696 28.3126Z" fill="#455A64"/>
<path d="M46.6715 16.5611C47.0543 15.14 47.4372 13.7007 47.5648 12.225C47.6924 10.7492 47.583 9.21883 46.9814 7.87062C46.8902 7.67021 46.161 6.28556 45.924 6.322C45.7599 6.34021 46.2522 7.63377 46.161 7.77952C45.4682 9.14595 45.3406 10.731 45.5412 12.2614C45.7599 13.7736 46.161 15.1218 46.6715 16.5611Z" fill="#263238"/>
<path d="M46.5244 10.9137C46.4514 7.19696 44.2273 4.15437 40.5264 4.31834L40.18 4.35478C36.7343 4.71916 34.1456 7.65244 34.2367 11.1141C34.3096 14.3388 34.4372 17.8916 34.6378 19.5859C35.0571 23.1204 38.6668 23.3026 38.6668 23.3026L38.8309 25.6347L40.3623 27.2926L47.4177 22.92L46.5244 10.9137Z" fill="#FFBF9D"/>
<path d="M38.668 23.3388C38.668 23.3388 40.9104 23.2295 43.1345 21.4805C43.1345 21.4805 42.3871 24.687 38.8138 24.7417L38.668 23.3388Z" fill="#FF9A6C"/>
<path d="M36.2784 14.0108C36.2966 14.2841 36.5336 14.4845 36.8253 14.4663C37.0988 14.4481 37.3176 14.2294 37.2993 13.9561C37.2811 13.6829 37.0441 13.4824 36.7524 13.5007C36.4789 13.5189 36.2602 13.7375 36.2784 14.0108Z" fill="#263238"/>
<path d="M35.1653 12.5169C35.2382 12.5716 35.5846 12.2436 36.1315 12.189C36.6784 12.1343 37.0977 12.3712 37.1524 12.2983C37.1707 12.2619 37.0977 12.1525 36.9154 12.0432C36.7331 11.9339 36.4232 11.8428 36.095 11.8793C35.7487 11.9157 35.4752 12.0797 35.3293 12.2254C35.1653 12.353 35.1288 12.4805 35.1653 12.5169Z" fill="#263238"/>
<path d="M41.0929 13.5918C41.1111 13.8651 41.3481 14.0655 41.6398 14.0473C41.9133 14.0291 42.132 13.8105 42.1138 13.5372C42.0956 13.2639 41.8586 13.0635 41.5669 13.0817C41.2934 13.0999 41.0746 13.3368 41.0929 13.5918Z" fill="#263238"/>
<path d="M40.5082 12.1707C40.5812 12.2254 40.9275 11.8974 41.4745 11.8428C42.0214 11.7881 42.4407 12.025 42.4954 11.9521C42.5136 11.9157 42.4407 11.8063 42.2584 11.697C42.0761 11.5877 41.7662 11.4966 41.438 11.5331C41.0916 11.5695 40.8182 11.7335 40.6723 11.8792C40.5265 12.025 40.49 12.1525 40.5082 12.1707Z" fill="#263238"/>
<path d="M38.9953 16.5618C38.9953 16.5254 38.6489 16.5071 38.102 16.4889C37.9562 16.4889 37.8285 16.4707 37.7921 16.3796C37.7556 16.2885 37.7921 16.1245 37.8468 15.9606C37.9379 15.6144 38.0473 15.25 38.1385 14.8674C38.5578 13.3006 38.8312 12.0253 38.7766 12.007C38.7219 11.9888 38.3208 13.2459 37.9197 14.8128C37.8285 15.1954 37.7192 15.5598 37.6462 15.9241C37.6098 16.0881 37.5368 16.2703 37.628 16.4707C37.6827 16.5618 37.7921 16.6347 37.8832 16.6529C37.9744 16.6711 38.0473 16.6711 38.1202 16.6529C38.6672 16.6165 39.0136 16.5982 38.9953 16.5618Z" fill="#263238"/>
<path d="M40.6544 16.7617C40.5633 16.7617 40.618 17.3629 40.1622 17.8366C39.7064 18.3103 39.0684 18.3103 39.0684 18.4014C39.0684 18.4379 39.2142 18.4925 39.4877 18.4743C39.7429 18.4561 40.1258 18.3286 40.3992 18.0371C40.6727 17.7455 40.7821 17.3812 40.7638 17.1443C40.7638 16.8893 40.6909 16.7617 40.6544 16.7617Z" fill="#263238"/>
<path d="M40.3089 9.96585C40.3818 10.1116 40.9105 9.98407 41.5668 9.98407C42.2231 9.98407 42.7518 10.1116 42.8248 9.96585C42.8612 9.89298 42.7518 9.76544 42.5331 9.65613C42.3143 9.5286 41.9679 9.4375 41.5851 9.4375C41.2022 9.4375 40.8558 9.5286 40.637 9.65613C40.3818 9.76544 40.2907 9.89298 40.3089 9.96585Z" fill="#263238"/>
<path d="M35.185 10.6769C35.2944 10.7862 35.659 10.6222 36.1148 10.5675C36.5706 10.4947 36.9534 10.5675 37.0264 10.4218C37.0628 10.3489 36.9899 10.2396 36.8076 10.1303C36.6253 10.0392 36.3518 9.96631 36.0419 10.0027C35.732 10.0392 35.4767 10.1849 35.3309 10.3307C35.185 10.4947 35.1486 10.6222 35.185 10.6769Z" fill="#263238"/>
<path d="M46.5254 13.5737C46.5801 13.5373 48.8772 12.5899 49.0595 15.0313C49.2418 17.4544 46.7624 17.1447 46.7442 17.0718C46.7442 16.9989 46.5254 13.5737 46.5254 13.5737Z" fill="#FFBF9D"/>
<path d="M47.418 16.0878C47.4362 16.0878 47.4544 16.106 47.5274 16.1424C47.6003 16.1607 47.7279 16.1789 47.8373 16.1242C48.0925 16.0149 48.2748 15.5959 48.2566 15.1404C48.2384 14.9218 48.1837 14.7031 48.0925 14.5392C48.0014 14.3752 47.8737 14.2477 47.7461 14.2294C47.6185 14.2112 47.5274 14.3023 47.5091 14.357C47.4727 14.4299 47.5091 14.4663 47.4909 14.4845C47.4909 14.4845 47.4362 14.4481 47.4544 14.3388C47.4544 14.2841 47.4909 14.2294 47.5456 14.1748C47.6003 14.1201 47.6914 14.0837 47.7826 14.1019C47.9649 14.1019 48.1472 14.2659 48.2566 14.4481C48.366 14.6303 48.4389 14.8671 48.4571 15.1222C48.4754 15.6141 48.2566 16.0878 47.9102 16.2153C47.7461 16.27 47.6003 16.2335 47.5091 16.1789C47.4362 16.1424 47.418 16.0878 47.418 16.0878Z" fill="#FF9A6C"/>
<path d="M35.5677 6.99643C35.1666 6.79602 36.2604 5.44781 37.1902 4.95589C38.6122 4.19069 40.8182 3.64412 42.1855 3.93562C43.8445 4.3 45.2301 5.01055 46.1416 6.43164C47.0531 7.85273 47.4725 9.56532 47.5271 11.2415C47.5454 11.7516 47.5271 12.2982 47.2719 12.7537C46.962 13.3185 46.3421 13.7011 46.4151 14.4298C46.4515 14.7031 46.3786 14.9764 46.2145 15.195C45.7952 15.7052 45.2301 15.2861 44.9566 14.8489C44.355 13.9379 44.2273 12.7901 44.118 11.7152C44.0268 10.95 43.9539 10.1483 44.118 9.40135C44.2091 8.98231 44.3732 8.59971 44.4461 8.18067C44.519 7.76163 44.4826 7.30615 44.1909 6.97821C44.1544 6.92355 44.0815 6.86889 43.9721 6.79602C43.2429 6.23123 42.2766 6.12191 41.4198 6.48629C40.0889 7.05109 37.7918 7.9256 37.1538 7.50656C36.224 6.88711 35.987 6.46807 35.987 6.46807L35.5677 6.99643Z" fill="#263238"/>
<path d="M33.0682 28.313C32.9223 28.5134 30.9352 29.1693 30.1877 30.4264C29.4402 31.6835 28.6928 37.3314 28.6928 37.3314L28.2188 41.0481C29.1668 42.5421 30.4429 44.528 31.792 45.9308L33.0682 28.313Z" fill="#455A64"/>
<g opacity="0.3">
<path d="M48.0547 33.7788C48.1458 34.544 48.2188 35.3092 48.4922 36.0198C48.7475 36.7303 49.2032 37.4044 49.8778 37.787C50.1512 37.9328 50.4794 38.0421 50.7164 38.2607C50.9716 38.4976 51.0993 38.8255 51.318 39.0988C51.5915 39.3903 51.9561 39.5725 52.339 39.7C53.451 40.1008 54.5449 40.283 55.7299 40.2466C55.7664 39.864 55.7664 38.4247 55.8028 38.0421L48.0547 33.7788Z" fill="black"/>
</g>
<path d="M54.1806 25.5796C54.1806 25.5796 56.6965 26.3266 57.4257 27.3833C58.155 28.4582 59.4676 32.5939 59.7411 33.3591C60.0145 34.1243 59.7775 35.9098 59.2671 37.1851C58.7566 38.4605 57.8997 39.5718 56.3866 39.7358C54.8734 39.8998 52.5034 39.0253 51.9747 38.4605C51.446 37.8957 51.209 36.6204 51.209 36.6204C51.8835 36.511 52.5398 36.3289 53.1779 36.1284" fill="#455A64"/>
<path d="M53.1955 36.1651C53.1955 36.1651 53.1773 36.1651 53.159 36.1833C53.1408 36.1833 53.1044 36.2015 53.0679 36.2197C52.9767 36.2562 52.8491 36.2926 52.685 36.3472C52.3569 36.4383 51.8646 36.5841 51.2266 36.6934L51.2448 36.657C51.2995 36.9485 51.3906 37.2582 51.5 37.5861C51.5547 37.7501 51.6276 37.9141 51.7188 38.0781C51.81 38.242 51.9193 38.406 52.047 38.5335C52.1928 38.6611 52.3751 38.7704 52.5574 38.8615C52.7397 38.9708 52.9403 39.0437 53.1408 39.1348C53.5601 39.2987 53.9977 39.4445 54.4717 39.5538C54.9457 39.6631 55.4561 39.736 55.9666 39.7542C56.0942 39.7542 56.2218 39.736 56.3677 39.736C56.4953 39.7178 56.6229 39.6996 56.7505 39.6631C57.0058 39.6085 57.261 39.4992 57.498 39.3716C57.972 39.0983 58.3913 38.6975 58.7012 38.2056C59.0112 37.7137 59.2482 37.1671 59.4122 36.5841C59.5399 36.1468 59.631 35.6914 59.7039 35.2541C59.7586 34.8168 59.7951 34.3614 59.7769 33.9241C59.7586 33.7055 59.7222 33.5051 59.6493 33.3047C59.5763 33.1043 59.5216 32.9038 59.4487 32.7034C59.3211 32.3026 59.1935 31.92 59.0659 31.5374C58.8106 30.7722 58.5554 30.0617 58.3002 29.3876C58.0449 28.7317 57.7897 28.094 57.498 27.5839C57.3522 27.3288 57.1516 27.1102 56.9328 26.9462C56.7141 26.7822 56.4953 26.6365 56.2948 26.5272C55.8754 26.2903 55.4926 26.1263 55.1827 25.9806C54.8728 25.8531 54.6175 25.762 54.4534 25.7073C54.3805 25.6709 54.3076 25.6526 54.2529 25.6344C54.2164 25.6162 54.18 25.6162 54.18 25.6162C54.18 25.6162 54.1982 25.6162 54.2529 25.6344C54.3076 25.6526 54.3623 25.6709 54.4534 25.6891C54.6175 25.7437 54.8727 25.8348 55.2009 25.9624C55.5108 26.0899 55.8937 26.2539 56.3312 26.4907C56.55 26.6183 56.7688 26.7458 56.9875 26.9098C57.2063 27.0737 57.4251 27.2924 57.5709 27.5657C57.8809 28.094 58.1361 28.7135 58.3913 29.3876C58.6465 30.0617 58.9018 30.7722 59.1752 31.5374C59.3029 31.92 59.4305 32.3026 59.5763 32.7034C59.6493 32.9038 59.7039 33.1043 59.7769 33.3047C59.8498 33.5051 59.9045 33.7237 59.9045 33.9423C59.9409 34.3796 59.9045 34.8351 59.8316 35.2905C59.7769 35.746 59.6675 36.2015 59.5399 36.6388C59.3758 37.2218 59.1388 37.7866 58.8106 38.2785C58.5007 38.7704 58.0814 39.2076 57.5709 39.4809C57.3339 39.6267 57.0605 39.7178 56.787 39.7724C56.6594 39.8089 56.5135 39.8271 56.3859 39.8453C56.2583 39.8453 56.1125 39.8635 55.9848 39.8635C55.4561 39.8635 54.9457 39.7724 54.4717 39.6631C53.9977 39.5538 53.5419 39.4081 53.1226 39.2259C52.922 39.1348 52.7215 39.0437 52.521 38.9526C52.3387 38.8433 52.1563 38.7522 51.9923 38.6064C51.8464 38.4607 51.737 38.2967 51.6459 38.1327C51.5547 37.9687 51.4818 37.7866 51.4271 37.6226C51.3177 37.2946 51.2266 36.9849 51.1719 36.6934V36.6752H51.1901C51.8282 36.5659 52.3204 36.4383 52.6668 36.3472C52.8309 36.2926 52.9585 36.2562 53.0497 36.2379C53.0861 36.2197 53.1226 36.2197 53.1408 36.2015C53.1773 36.1651 53.1955 36.1651 53.1955 36.1651Z" fill="#263238"/>
<path d="M57.8096 34.8169C57.7914 34.8169 57.7367 34.5071 57.5179 34.0516C57.3174 33.5962 56.9345 32.9767 56.3876 32.4484C56.1141 32.1751 55.8042 31.9747 55.5125 31.8289C55.4396 31.7925 55.3667 31.756 55.2938 31.7378C55.2208 31.7014 55.1479 31.6832 55.075 31.6649C54.9291 31.6103 54.8015 31.6103 54.6739 31.5739C54.6374 31.5739 54.6192 31.5556 54.5828 31.5556C54.5463 31.5556 54.5281 31.5556 54.4916 31.5556C54.4369 31.5556 54.3822 31.5556 54.3275 31.5556C54.2181 31.5556 54.1452 31.5739 54.0723 31.5739C53.9264 31.5921 53.8535 31.6103 53.8535 31.5921C53.8535 31.5921 53.9264 31.5739 54.0723 31.5374C54.1452 31.5192 54.2364 31.501 54.3275 31.501C54.3822 31.501 54.4369 31.501 54.4916 31.501C54.5281 31.501 54.5463 31.501 54.5828 31.501C54.6192 31.501 54.6374 31.501 54.6739 31.5192C54.8015 31.5374 54.9474 31.5374 55.0932 31.5921C55.1661 31.6103 55.2391 31.6285 55.312 31.6649C55.3849 31.7014 55.4578 31.7378 55.549 31.756C55.8589 31.9018 56.1688 32.1204 56.4605 32.3937C57.0257 32.9403 57.3903 33.578 57.5909 34.0516C57.6455 34.1792 57.682 34.2703 57.7185 34.3796C57.7549 34.4707 57.7732 34.5618 57.7914 34.6347C57.7914 34.744 57.8096 34.8169 57.8096 34.8169Z" fill="#263238"/>
<path d="M59.175 32.558C59.1567 32.558 59.0838 32.23 58.7921 31.7928C58.5004 31.3555 57.9717 30.8089 57.1878 30.5903C56.4221 30.3534 55.6746 30.4263 55.1459 30.481C54.8907 30.5174 54.6901 30.5356 54.5261 30.5539C54.3802 30.5721 54.2891 30.5721 54.2891 30.5721C54.2891 30.5721 54.362 30.5539 54.5078 30.5174C54.6537 30.481 54.8725 30.4445 55.1277 30.4081C55.6564 30.3352 56.4038 30.2624 57.206 30.4992C57.6071 30.6267 57.9535 30.8271 58.2269 31.0458C58.5004 31.2826 58.7009 31.5377 58.8468 31.7563C58.9926 31.9932 59.0656 32.1936 59.1203 32.3393C59.1567 32.4851 59.175 32.558 59.175 32.558Z" fill="#263238"/>
<path d="M57.2802 29.861C57.2802 29.8975 56.6239 29.6788 55.7853 29.7153C54.9467 29.7517 54.3086 30.0068 54.3086 29.9703C54.3086 29.9521 54.4544 29.8792 54.7279 29.8064C54.9831 29.7153 55.366 29.6424 55.7853 29.6242C56.2046 29.606 56.5875 29.6606 56.8609 29.7153C57.1162 29.7882 57.2802 29.861 57.2802 29.861Z" fill="#263238"/>
<path d="M53.214 26.2173C53.2323 26.2173 53.1958 26.4724 53.1593 26.8914C53.1229 27.3104 53.1229 27.8752 53.1776 28.4947C53.2323 29.0959 53.3416 29.6425 53.4328 30.0251L53.3599 30.0433C53.287 29.8247 53.2323 29.6607 53.1958 29.5514C53.1593 29.4238 53.1411 29.3692 53.1411 29.3692C53.1411 29.3692 53.1776 29.4238 53.2323 29.5514C53.2869 29.6789 53.3416 29.8247 53.4328 30.0433L53.3599 30.0615C53.2505 29.6789 53.1229 29.1323 53.0682 28.5129C53.0135 27.8752 53.0317 27.3104 53.0864 26.8914C53.1046 26.691 53.1411 26.527 53.1593 26.3995C53.1958 26.2719 53.214 26.2173 53.214 26.2173Z" fill="#263238"/>
<path d="M49.6594 21.5352C49.6594 21.5352 48.3467 21.5352 48.1827 23.102C48.0551 24.3045 48.1827 25.4705 48.1827 25.9988C48.1827 26.5272 47.9457 28.4038 47.9457 28.4038C47.9457 28.4038 47.0524 29.1872 47.0706 30.1346C47.0888 31.082 47.7634 31.3735 47.7634 31.3735C47.7634 31.3735 47.3441 32.2844 48.1462 33.1043C48.1462 33.1043 47.7634 33.9788 48.0733 34.5618C48.3103 35.0173 48.8572 35.163 48.8572 35.163C48.8572 35.163 48.4744 36.0193 49.4041 36.3837C49.9511 36.6023 50.7532 36.5477 50.7532 36.5477L51.7195 36.5295L52.5763 37.0032C52.5763 37.0032 54.053 36.3655 54.0895 35.491C54.126 34.6347 54.126 34.6347 54.126 34.6347C54.126 34.6347 53.7066 33.2136 53.6702 32.7581C53.6337 32.3026 54.0166 31.2095 53.7796 30.7358C53.5608 30.2439 52.7586 29.9524 52.8316 29.2783C52.9045 28.6042 52.7586 28.2216 52.4122 27.839C52.0659 27.4564 50.5709 26.7094 50.5709 26.7094C50.5709 26.7094 50.1881 25.6162 50.1881 24.8692C50.2245 24.1223 50.972 21.8267 49.6594 21.5352Z" fill="#FFBF9D"/>
<path d="M50.5341 27.0008C50.5341 27.019 50.4065 27.0919 50.1695 27.2377C49.9325 27.3652 49.6226 27.5474 49.2579 27.7478C48.8933 27.9482 48.5834 28.1122 48.3464 28.2215C48.1094 28.349 47.9635 28.4037 47.9453 28.4037C47.9453 28.3855 48.0729 28.3126 48.3099 28.1668C48.5469 28.0393 48.8569 27.8571 49.2215 27.6567C49.5861 27.4563 49.896 27.2923 50.133 27.183C50.3883 27.0555 50.5341 26.9826 50.5341 27.0008Z" fill="#FF9A6C"/>
<path d="M51.3916 29.9524C51.3916 29.9524 51.3552 29.9888 51.2822 30.0617C51.2093 30.1164 51.0817 30.2075 50.9358 30.2986C50.6442 30.4808 50.2066 30.7176 49.7144 30.918C49.2221 31.1002 48.7299 31.2277 48.3835 31.2824C48.2194 31.3006 48.0736 31.3188 47.9642 31.3371C47.8731 31.3371 47.8184 31.3371 47.8184 31.3371C47.8184 31.3188 48.0371 31.3006 48.3653 31.2277C48.7117 31.1549 49.1674 31.0456 49.6597 30.8451C50.1519 30.663 50.5895 30.4261 50.8812 30.2621C51.2093 30.0617 51.3916 29.9342 51.3916 29.9524Z" fill="#FF9A6C"/>
<path d="M52.5218 29.0049C52.54 29.0049 52.5036 29.1871 52.3395 29.3146C52.1936 29.4604 52.0113 29.4968 52.0113 29.4604C51.9931 29.4421 52.1389 29.3693 52.2848 29.2417C52.4124 29.1324 52.4853 29.0049 52.5218 29.0049Z" fill="#FF9A6C"/>
<path d="M51.9756 32.5214C51.9756 32.5396 51.7751 32.6125 51.4287 32.7218C51.0823 32.8311 50.6083 32.9404 50.0614 33.0315C49.5145 33.1226 49.0222 33.1591 48.6576 33.1591C48.293 33.1591 48.0742 33.1591 48.0742 33.1409C48.0742 33.1226 48.293 33.1226 48.6576 33.0862C49.0222 33.068 49.4962 33.0133 50.0432 32.9222C50.5719 32.8311 51.0641 32.7218 51.4105 32.6307C51.7569 32.5761 51.9756 32.5032 51.9756 32.5214Z" fill="#FF9A6C"/>
<path d="M53.1788 32.3028C53.1606 32.3028 53.2153 32.1935 53.27 32.0295C53.3247 31.8656 53.3793 31.6105 53.3429 31.3372C53.3064 31.0639 53.197 30.8271 53.1059 30.6813C53.0147 30.5356 52.9236 30.4445 52.9418 30.4263C52.9418 30.4263 53.0512 30.4809 53.1606 30.6449C53.27 30.7907 53.3976 31.0275 53.434 31.319C53.4705 31.6105 53.4158 31.8656 53.3247 32.0478C53.2517 32.23 53.1788 32.3211 53.1788 32.3028Z" fill="#FF9A6C"/>
<path d="M52.0478 35.1632C52.0478 35.1814 51.8837 35.2178 51.592 35.2725C51.3003 35.3271 50.8992 35.3636 50.4435 35.3636C49.9877 35.3636 49.5866 35.3089 49.2949 35.2725C49.0032 35.2178 48.8209 35.1632 48.8391 35.1632C48.8391 35.1449 49.0215 35.1814 49.3131 35.1996C49.6048 35.236 50.0059 35.2725 50.4435 35.2725C50.881 35.2725 51.2821 35.236 51.5738 35.2178C51.8655 35.1814 52.0478 35.1449 52.0478 35.1632Z" fill="#FF9A6C"/>
<path d="M49.7314 24.8876C49.7314 24.9059 49.6767 24.9423 49.5491 24.997C49.4215 25.0334 49.2392 25.0698 49.0569 25.0516C48.8564 25.0334 48.6923 24.9605 48.5829 24.8876C48.4735 24.8148 48.4188 24.7601 48.437 24.7419C48.4553 24.7237 48.7105 24.9241 49.0751 24.9605C49.4397 24.997 49.7132 24.8694 49.7314 24.8876Z" fill="#FF9A6C"/>
<path d="M53.4332 32.4116C53.4332 32.4116 53.4515 32.4663 53.4515 32.5574C53.4515 32.6485 53.4515 32.776 53.415 32.94C53.3785 33.1039 53.3239 33.2861 53.2692 33.4865C53.2145 33.687 53.1598 33.9238 53.1962 34.1424C53.2327 34.3793 53.3968 34.5615 53.4332 34.7983C53.4697 35.0352 53.3785 35.2174 53.2874 35.3631C53.1962 35.5089 53.1051 35.6 53.0504 35.6728C52.9957 35.7457 52.9592 35.7639 52.941 35.7639C52.9228 35.7457 53.0686 35.6 53.2145 35.3267C53.2874 35.1809 53.3603 34.9987 53.3239 34.8165C53.3056 34.6161 53.1233 34.4339 53.0869 34.1607C53.0504 33.9056 53.1051 33.6687 53.1598 33.4501C53.2145 33.2497 53.2874 33.0675 53.3239 32.9035C53.4332 32.612 53.415 32.4116 53.4332 32.4116Z" fill="#FF9A6C"/>
<path d="M53.9259 33.5601C53.9259 33.5601 53.9624 33.6147 53.9806 33.724C54.0171 33.8333 54.0536 33.9973 54.09 34.1977C54.1265 34.3981 54.1629 34.6532 54.1812 34.9265C54.1812 35.1998 54.1629 35.5277 54.0171 35.8192C53.8712 36.1107 53.6525 36.3476 53.4519 36.5298C53.2514 36.712 53.0509 36.8577 52.8685 36.9852C52.7045 37.0946 52.5586 37.1857 52.4492 37.2403C52.3399 37.295 52.2852 37.3314 52.2852 37.3132C52.2852 37.295 52.5039 37.1674 52.8321 36.9124C52.9962 36.7848 53.1967 36.6391 53.3972 36.4569C53.5978 36.2747 53.7983 36.0379 53.9259 35.7646C54.0536 35.4913 54.09 35.1816 54.09 34.9083C54.09 34.635 54.0536 34.3981 54.0171 34.1795C53.9806 33.8151 53.9077 33.5601 53.9259 33.5601Z" fill="#263238"/>
<path d="M40.1787 27.4932C40.1787 27.4932 40.1058 27.4385 39.9599 27.3292C39.8141 27.2017 39.6318 27.0559 39.413 26.8737C39.3036 26.7826 39.176 26.6733 39.0301 26.5458C38.9572 26.4911 38.9025 26.4365 38.8114 26.4C38.7384 26.3636 38.6473 26.3454 38.5744 26.4C38.4103 26.4911 38.3191 26.6915 38.1733 26.8555C38.0457 27.0377 37.9181 27.2199 37.7722 27.4021C37.5534 27.6936 37.3347 27.9851 37.1524 28.2402L37.043 28.4041L37.0794 28.2037C37.207 27.5478 37.3894 27.0013 37.5352 26.6187C37.6081 26.4365 37.6811 26.2725 37.7175 26.1814C37.7722 26.0721 37.7904 26.0356 37.7904 26.0356C37.7904 26.0356 37.7722 26.0903 37.7357 26.1996C37.6993 26.3089 37.6446 26.4547 37.5717 26.6551C37.4441 27.0377 37.28 27.5843 37.1524 28.2402L37.0794 28.2037C37.28 27.9487 37.4805 27.6571 37.6993 27.3656C37.8451 27.1834 37.9727 27.0013 38.1004 26.8191C38.1733 26.728 38.228 26.6551 38.3009 26.564C38.3738 26.4729 38.4467 26.4 38.5379 26.3454C38.6473 26.2907 38.7749 26.3089 38.8478 26.3636C38.939 26.4182 39.0119 26.4729 39.0848 26.5276C39.2124 26.6369 39.3401 26.7462 39.4495 26.8555C39.6682 27.0559 39.8505 27.2017 39.9781 27.3292C40.1058 27.4203 40.1787 27.4932 40.1787 27.4932Z" fill="#263238"/>
<path d="M47.8744 25.9629C47.8744 25.9629 47.8562 25.9811 47.8015 26.0175C47.7468 26.054 47.6739 26.1269 47.5827 26.1815C47.3822 26.3273 47.1087 26.5277 46.7805 26.7827C46.0878 27.2929 45.1398 27.9852 44.1006 28.7504L44.0641 28.7868L44.0459 28.7504C44.0277 28.714 44.0094 28.6775 43.973 28.6411C43.4807 27.8577 43.025 27.1289 42.6239 26.5095L42.6786 26.5277C42.0405 26.7828 41.53 27.056 41.1836 27.2747C41.0196 27.384 40.8737 27.4569 40.7826 27.5297C40.6914 27.5844 40.6367 27.6208 40.6367 27.6208C40.6367 27.6208 40.6732 27.5844 40.7643 27.5115C40.8555 27.4386 40.9831 27.3475 41.1472 27.2382C41.4936 27.0196 41.9858 26.7281 42.6421 26.4548L42.6786 26.4366L42.6968 26.473C43.0979 27.0925 43.5537 27.8212 44.0459 28.5864C44.0641 28.6229 44.0824 28.6593 44.1188 28.6958L44.0459 28.6775C45.1033 27.9123 46.0513 27.2382 46.7441 26.7281C47.0905 26.4912 47.3639 26.2908 47.5645 26.1451C47.6556 26.0904 47.7286 26.0358 47.7832 25.9993C47.8379 25.9811 47.8744 25.9629 47.8744 25.9629Z" fill="#263238"/>
<path d="M31.5026 33.1953C31.5026 33.1953 31.5026 33.2318 31.5208 33.3228C31.5208 33.4139 31.5208 33.5415 31.5391 33.6872C31.5391 34.0152 31.5573 34.4706 31.5573 35.0354C31.5755 36.1832 31.6302 37.7683 31.6849 39.4991C31.7396 41.2481 31.7761 42.8332 31.7761 43.981C31.7761 44.5458 31.7761 45.0195 31.7761 45.3292C31.7761 45.475 31.7761 45.6025 31.7761 45.6936C31.7761 45.7847 31.7761 45.8211 31.7578 45.8211C31.7578 45.8211 31.7578 45.7847 31.7396 45.6936C31.7396 45.6025 31.7396 45.475 31.7214 45.3292C31.7214 45.0013 31.7031 44.5458 31.7031 43.981C31.6849 42.8332 31.6302 41.2481 31.5755 39.4991C31.5208 37.7501 31.4844 36.165 31.4844 35.0172C31.4844 34.4524 31.4844 33.9787 31.4844 33.669C31.4844 33.5233 31.4844 33.3957 31.4844 33.3046C31.5026 33.25 31.5026 33.1953 31.5026 33.1953Z" fill="#263238"/>
<path d="M40.2346 49.6656C40.2346 49.6656 40.2346 49.6473 40.2164 49.6109C40.2164 49.5745 40.1982 49.5198 40.1982 49.4652C40.1799 49.3194 40.1617 49.119 40.1435 48.8639C40.0888 48.3538 40.0341 47.5886 39.9794 46.6594C39.9247 45.7302 39.87 44.6189 39.8336 43.3982C39.8153 42.1775 39.7971 40.8111 39.8336 39.39C39.87 37.9689 39.9247 36.6207 40.0159 35.4C40.107 34.1793 40.1982 33.068 40.2893 32.1388C40.3805 31.2096 40.4716 30.4627 40.5446 29.9525C40.581 29.6975 40.6175 29.497 40.6357 29.3513C40.6539 29.2966 40.6539 29.242 40.6539 29.2055C40.6539 29.1691 40.6722 29.1509 40.6722 29.1509C40.6722 29.1509 40.6722 29.1691 40.6722 29.2055C40.6722 29.242 40.6722 29.2966 40.6539 29.3695C40.6357 29.5153 40.6175 29.7157 40.581 29.9707C40.5263 30.4809 40.4352 31.2279 40.344 32.157C40.2529 33.0862 40.1617 34.1793 40.0888 35.4182C40.0159 36.6389 39.9429 37.9871 39.9247 39.4082C39.8882 40.8293 39.9065 42.1775 39.9247 43.3982C39.9429 44.6189 39.9976 45.7302 40.0523 46.6594C40.107 47.5886 40.1435 48.3356 40.1982 48.8639C40.2164 49.119 40.2346 49.3194 40.2346 49.4652C40.2346 49.538 40.2346 49.5745 40.2346 49.6291C40.2346 49.6473 40.2346 49.6656 40.2346 49.6656Z" fill="#263238"/>
<path d="M34.8015 19.841C34.8015 19.841 34.7286 19.8774 34.601 19.9685C34.4734 20.0596 34.2728 20.169 34.0358 20.3329C33.7806 20.4969 33.4889 20.7337 33.1425 20.9888C32.9602 21.1163 32.7961 21.2803 32.5956 21.4443C32.5044 21.5172 32.395 21.6083 32.3039 21.6994C32.1945 21.7905 32.1033 21.8815 31.9939 21.9909C31.1736 22.7561 30.2255 23.7946 29.3505 25.161C29.2411 25.325 29.1317 25.5071 29.0223 25.6893C28.9129 25.8715 28.8218 26.0537 28.7124 26.2359C28.6212 26.4181 28.4936 26.6185 28.4025 26.8189C28.3113 27.0193 28.2201 27.2197 28.129 27.4384C28.0743 27.5477 28.0378 27.6388 27.9831 27.7481C27.9467 27.8574 27.892 27.9667 27.8555 28.076C27.7644 28.2947 27.6914 28.5133 27.6003 28.7501C27.4727 29.2056 27.2904 29.6793 27.1992 30.1712C26.944 31.1551 26.7981 32.2118 26.7434 33.3049C26.6887 34.4163 26.7434 35.5641 26.944 36.7301C27.3268 39.0804 28.2566 41.5217 29.8245 43.6898C31.3741 45.8579 33.58 47.7526 36.2053 49.0098C38.8305 50.2669 41.9116 50.7952 44.9926 50.4855C48.0736 50.1758 50.9541 48.9551 53.2694 47.1879C53.8528 46.7506 54.3815 46.2587 54.892 45.7668C55.0196 45.6392 55.1472 45.5117 55.2566 45.3842C55.3842 45.2566 55.4936 45.1291 55.6212 44.9833C55.7306 44.8558 55.8582 44.7101 55.9676 44.5825C56.077 44.4368 56.1864 44.3092 56.2958 44.1635C57.1708 43.0703 57.8454 41.8679 58.3923 40.629C58.9392 39.4083 59.2856 38.133 59.5044 36.8941C59.6138 36.2746 59.6867 35.6552 59.7232 35.0357C59.7414 34.726 59.7414 34.4163 59.7596 34.1248C59.7596 33.815 59.7414 33.5235 59.7232 33.232C59.7232 33.0863 59.7049 32.9405 59.7049 32.7948C59.7049 32.649 59.6685 32.5033 59.6503 32.3575C59.6138 32.066 59.5773 31.7745 59.5409 31.5012C59.5044 31.2097 59.4315 30.9364 59.3768 30.6631C59.3221 30.3899 59.2674 30.1166 59.1945 29.8433C59.1216 29.57 59.0486 29.3149 58.9757 29.0599C58.9393 28.9323 58.9028 28.8048 58.8481 28.6773C58.7934 28.5497 58.7569 28.4222 58.7022 28.2947C58.6111 28.0396 58.5199 27.8028 58.4106 27.5659C58.3012 27.3291 58.1918 27.0922 58.0824 26.8736C57.2073 25.0517 56.077 23.5759 54.9284 22.4281C53.7981 21.2803 52.6496 20.4787 51.6833 19.8957C51.4463 19.7499 51.2093 19.6224 50.9906 19.4948C50.8812 19.422 50.7718 19.3855 50.6624 19.3309C50.553 19.2762 50.4619 19.2398 50.3525 19.1851C50.1519 19.094 49.9696 19.0029 49.8056 18.9301C49.6415 18.839 49.4774 18.8025 49.3498 18.7479C49.0763 18.6386 48.8576 18.5657 48.7117 18.511C48.5659 18.4564 48.4929 18.4199 48.4929 18.4199C48.4929 18.4199 48.5659 18.4381 48.7117 18.4928C48.8576 18.5475 49.0763 18.6203 49.3498 18.7296C49.4956 18.7843 49.6415 18.839 49.8238 18.9118C49.9879 18.9847 50.1702 19.0758 50.3707 19.1669C50.4619 19.2216 50.5713 19.258 50.6806 19.3127C50.79 19.3673 50.8994 19.4038 51.0088 19.4766C51.2276 19.6042 51.4646 19.7317 51.7016 19.8774C52.6678 20.4605 53.8164 21.2621 54.9649 22.4099C56.1135 23.5577 57.2438 25.0334 58.1371 26.8554C58.2465 27.0922 58.3559 27.3108 58.4652 27.5477C58.5746 27.7845 58.6476 28.0396 58.7569 28.2764C58.8116 28.404 58.8481 28.5315 58.9028 28.659C58.9575 28.7866 58.9939 28.9141 59.0304 29.0416C59.1033 29.2967 59.1763 29.57 59.2674 29.8251C59.3586 30.0984 59.395 30.3716 59.4679 30.6449C59.5226 30.9182 59.5956 31.2097 59.632 31.483C59.6685 31.7745 59.705 32.066 59.7414 32.3575C59.7596 32.5033 59.7779 32.649 59.7961 32.7948C59.7961 32.9405 59.8143 33.0863 59.8143 33.232C59.8326 33.5235 59.8508 33.8333 59.8508 34.143C59.8326 34.4527 59.8326 34.7624 59.8143 35.0539C59.7779 35.6734 59.7049 36.2928 59.5956 36.9305C59.3768 38.1876 59.0122 39.463 58.4835 40.6836C57.9365 41.9043 57.262 43.125 56.3869 44.2364C56.2775 44.3821 56.1681 44.5096 56.0588 44.6554C55.9494 44.7829 55.8218 44.9287 55.7124 45.0562C55.603 45.1838 55.4754 45.3295 55.3478 45.457C55.2201 45.5846 55.0925 45.7121 54.9831 45.8396C54.4727 46.3316 53.9257 46.8235 53.3424 47.2607C51.027 49.0462 48.1283 50.2669 45.0291 50.5766C41.9298 50.9045 38.8488 50.358 36.2053 49.0826C33.5618 47.8255 31.3559 45.9307 29.788 43.7262C28.2019 41.5399 27.2721 39.0804 26.9075 36.7301C26.7252 35.5459 26.6523 34.3981 26.7252 33.2867C26.7799 32.1753 26.9258 31.1186 27.181 30.1348C27.2904 29.6429 27.4544 29.1692 27.6003 28.7137C27.6732 28.4951 27.7644 28.2582 27.8555 28.0396C27.892 27.9303 27.9467 27.821 27.9831 27.7117C28.0196 27.6023 28.0743 27.493 28.129 27.4019C28.2201 27.2015 28.3113 26.9829 28.4207 26.7825C28.5118 26.5821 28.6212 26.3999 28.7306 26.1995C28.84 26.0173 28.9312 25.8169 29.0405 25.6529C29.1499 25.4707 29.2593 25.3067 29.3687 25.1245C30.2438 23.7581 31.1918 22.7378 32.0304 21.9544C32.1398 21.8633 32.2309 21.754 32.3403 21.6811C32.4497 21.59 32.5409 21.5172 32.632 21.4261C32.8326 21.2621 32.9966 21.1163 33.179 20.9706C33.5436 20.7155 33.8353 20.4969 34.0723 20.3329C34.3275 20.169 34.5098 20.0596 34.6557 19.9685C34.7286 19.8774 34.8015 19.841 34.8015 19.841Z" fill="#263238"/>
</g>
<defs>
<linearGradient id="paint0_linear_1636_4407" x1="59.1357" y1="56.3058" x2="62.2385" y2="61.0366" gradientUnits="userSpaceOnUse">
<stop offset="0.078125" stop-color="#0094E8"/>
<stop offset="1" stop-color="#005ECE"/>
</linearGradient>
<linearGradient id="paint1_linear_1636_4407" x1="64.2477" y1="54.6618" x2="65.7101" y2="56.8904" gradientUnits="userSpaceOnUse">
<stop offset="0.078125" stop-color="#0094E8"/>
<stop offset="1" stop-color="#005ECE"/>
</linearGradient>
<linearGradient id="paint2_linear_1636_4407" x1="63.4668" y1="4.03705" x2="66.0894" y2="9.61956" gradientUnits="userSpaceOnUse">
<stop offset="0.078125" stop-color="#0094E8"/>
<stop offset="1" stop-color="#005ECE"/>
</linearGradient>
<linearGradient id="paint3_linear_1636_4407" x1="13.7429" y1="35.782" x2="15.2991" y2="38.3008" gradientUnits="userSpaceOnUse">
<stop offset="0.078125" stop-color="#0094E8"/>
<stop offset="1" stop-color="#005ECE"/>
</linearGradient>
<linearGradient id="paint4_linear_1636_4407" x1="14.8723" y1="40.7922" x2="16.4329" y2="43.3023" gradientUnits="userSpaceOnUse">
<stop offset="0.078125" stop-color="#0094E8"/>
<stop offset="1" stop-color="#005ECE"/>
</linearGradient>
<linearGradient id="paint5_linear_1636_4407" x1="16.0047" y1="45.9304" x2="17.5609" y2="48.4493" gradientUnits="userSpaceOnUse">
<stop offset="0.078125" stop-color="#0094E8"/>
<stop offset="1" stop-color="#005ECE"/>
</linearGradient>
<linearGradient id="paint6_linear_1636_4407" x1="44.1122" y1="53.8334" x2="61.7829" y2="69.8649" gradientUnits="userSpaceOnUse">
<stop offset="0.078125" stop-color="#0094E8"/>
<stop offset="1" stop-color="#005ECE"/>
</linearGradient>
<linearGradient id="paint7_linear_1636_4407" x1="28.1064" y1="55.0902" x2="45.777" y2="71.1217" gradientUnits="userSpaceOnUse">
<stop offset="0.078125" stop-color="#0094E8"/>
<stop offset="1" stop-color="#005ECE"/>
</linearGradient>
<linearGradient id="paint8_linear_1636_4407" x1="20.6467" y1="10.4781" x2="54.3436" y2="59.2247" gradientUnits="userSpaceOnUse">
<stop offset="0.078125" stop-color="#0094E8"/>
<stop offset="1" stop-color="#005ECE"/>
</linearGradient>
<clipPath id="clip0_1636_4407">
<rect width="81" height="80" fill="white"/>
</clipPath>
</defs>
</svg>
