<svg width="34" height="34" viewBox="0 0 34 34" fill="none" xmlns="http://www.w3.org/2000/svg">
<circle cx="17" cy="17" r="17" fill="#F2F5F9"/>
<path d="M15.8202 12.91C16.7622 11.22 17.2333 10.375 17.9375 10.375C18.6417 10.375 19.1128 11.22 20.0548 12.91L20.2986 13.3472C20.5663 13.8274 20.7001 14.0676 20.9088 14.226C21.1175 14.3844 21.3775 14.4432 21.8973 14.5609L22.3706 14.6679C24.2 15.0819 25.1147 15.2888 25.3323 15.9886C25.5499 16.6884 24.9263 17.4176 23.6792 18.876L23.3565 19.2533C23.0021 19.6677 22.8249 19.8749 22.7452 20.1313C22.6655 20.3877 22.6923 20.6641 22.7459 21.2171L22.7946 21.7205C22.9832 23.6663 23.0775 24.6392 22.5077 25.0717C21.938 25.5042 21.0816 25.1098 19.3687 24.3212L18.9256 24.1171C18.4388 23.893 18.1955 23.781 17.9375 23.781C17.6795 23.781 17.4362 23.893 16.9494 24.1171L16.5063 24.3212C14.7934 25.1098 13.937 25.5042 13.3673 25.0717C12.7975 24.6392 12.8918 23.6663 13.0804 21.7205L13.1291 21.2171C13.1827 20.6641 13.2095 20.3877 13.1298 20.1313C13.0501 19.8749 12.8729 19.6677 12.5185 19.2533L12.1958 18.876C10.9487 17.4176 10.3251 16.6884 10.5427 15.9886C10.7603 15.2888 11.675 15.0819 13.5044 14.6679L13.9777 14.5609C14.4975 14.4432 14.7575 14.3844 14.9662 14.226C15.1749 14.0676 15.3087 13.8274 15.5764 13.3472L15.8202 12.91Z" fill="#0052B4"/>
<path d="M11.258 8.18788C11.2842 8.09532 11.4485 8.09477 11.4754 8.18715C11.5981 8.609 11.8255 9.23254 12.1695 9.57421C12.5135 9.91588 13.1386 10.1391 13.5612 10.259C13.6538 10.2852 13.6544 10.4495 13.562 10.4764C13.1401 10.599 12.5166 10.8265 12.1749 11.1705C11.8332 11.5145 11.61 12.1395 11.4902 12.5622C11.4639 12.6548 11.2996 12.6553 11.2728 12.5629C11.1501 12.1411 10.9226 11.5176 10.5786 11.1759C10.2346 10.8342 9.60957 10.611 9.18691 10.4911C9.09435 10.4649 9.09379 10.3006 9.18617 10.2737C9.60802 10.1511 10.2316 9.92358 10.5732 9.5796C10.9149 9.23561 11.1382 8.61055 11.258 8.18788Z" fill="#0052B4"/>
<path fill-rule="evenodd" clip-rule="evenodd" d="M23.625 8.84375C23.9874 8.84375 24.2812 9.13756 24.2812 9.5V9.71875H24.5C24.8624 9.71875 25.1562 10.0126 25.1562 10.375C25.1562 10.7374 24.8624 11.0312 24.5 11.0312H24.2812V11.25C24.2812 11.6124 23.9874 11.9062 23.625 11.9062C23.2626 11.9062 22.9688 11.6124 22.9688 11.25V11.0312H22.75C22.3876 11.0312 22.0938 10.7374 22.0938 10.375C22.0938 10.0126 22.3876 9.71875 22.75 9.71875H22.9687V9.5C22.9687 9.13756 23.2626 8.84375 23.625 8.84375Z" fill="#0052B4"/>
</svg>
