<svg id="Layer_1" data-name="Layer 1" xmlns="http://www.w3.org/2000/svg" viewBox="0 0 120 120"><defs><style>.cls-1{fill:#9b8ff9;}.cls-2,.cls-3{fill:none;stroke:#231f20;stroke-linecap:round;}.cls-2{stroke-miterlimit:10;}.cls-3{stroke-linejoin:round;}</style></defs><title>Artboard 3 copy</title><rect class="cls-1" x="32.91" y="30.36" width="49.09" height="29.93"/><rect class="cls-1" x="69.11" y="76.74" width="30.08" height="19.17"/><polygon class="cls-2" points="86.91 66.17 42.38 66.17 27.92 66.17 27.92 25.49 86.91 25.49 86.91 66.17"/><polygon class="cls-3" points="57.46 76.74 27.96 66.17 42.42 66.17 57.46 76.74"/><line class="cls-2" x1="43.62" y1="34.25" x2="76.67" y2="34.25"/><line class="cls-2" x1="43.62" y1="41.29" x2="76.67" y2="41.29"/><line class="cls-2" x1="43.62" y1="48.32" x2="76.67" y2="48.32"/><line class="cls-2" x1="43.62" y1="55.36" x2="76.67" y2="55.36"/><polygon class="cls-2" points="65.44 97.12 93.86 97.12 103.09 97.12 103.09 71.15 65.44 71.15 65.44 97.12"/><polygon class="cls-3" points="84.24 103.86 103.06 97.12 93.84 97.12 84.24 103.86"/><line class="cls-2" x1="93.07" y1="76.74" x2="71.98" y2="76.74"/><line class="cls-2" x1="93.07" y1="81.24" x2="71.98" y2="81.24"/><line class="cls-2" x1="93.07" y1="85.73" x2="71.98" y2="85.73"/><line class="cls-2" x1="93.07" y1="90.21" x2="71.98" y2="90.21"/><line class="cls-2" x1="13.85" y1="72.96" x2="29.52" y2="72.96"/><line class="cls-2" x1="93.27" y1="59.69" x2="108.94" y2="59.69"/><line class="cls-2" x1="109.44" y1="74.17" x2="113.35" y2="74.17"/><line class="cls-2" x1="23.29" y1="17.98" x2="27.19" y2="17.98"/><line class="cls-2" x1="25.39" y1="90.54" x2="29.3" y2="90.54"/><line class="cls-2" x1="101.14" y1="27.02" x2="105.04" y2="27.02"/><line class="cls-2" x1="65.28" y1="14.95" x2="69.19" y2="14.95"/><line class="cls-2" x1="101.1" y1="38.85" x2="111.4" y2="38.85"/><line class="cls-2" x1="42.79" y1="14.95" x2="53.08" y2="14.95"/><line class="cls-2" x1="64.05" y1="105.95" x2="74.33" y2="106.34"/><line class="cls-2" x1="8.7" y1="54.39" x2="18.99" y2="54.39"/></svg>