<svg width="46" height="62" viewBox="0 0 46 62" fill="none" xmlns="http://www.w3.org/2000/svg">
<g clip-path="url(#clip0_1565_5519)">
<path d="M34.6588 37.6328L37.8014 56.2013C37.9187 56.8533 37.4102 57.3749 36.9799 57.0359L35.8324 56.1231L35.2587 55.6667L29.8081 51.3506L26.3134 58.5615L25.9483 59.3309L25.205 60.8565C24.9312 61.4172 24.3183 61.2607 24.201 60.6088L22.8188 52.472L22.571 50.9985L21.1758 42.7574" fill="#F34522"/>
<path d="M30.3438 26.6272L35.2597 55.6666L35.8335 56.123L30.8132 26.4707" fill="#FFEB4A"/>
<path d="M20.9277 29.6654L25.948 59.3307L26.3262 58.5614L21.3972 29.522" fill="#FFEB4A"/>
<path opacity="0.78" d="M24.6844 41.5444L23.0805 50.9852L22.8327 52.4587L22.585 50.9852L20.9941 41.5575" fill="#D73E16"/>
<path d="M23.9799 42.7575L22.5846 50.9856L20.9547 60.5828C20.8503 61.2348 20.2244 61.3913 19.9506 60.8305L19.2073 59.3049L18.8422 58.5486L15.3476 51.3376L9.91004 55.6668L9.3363 56.1232L8.1888 57.036C7.77153 57.375 7.26298 56.8534 7.3673 56.2015L10.5229 37.5547" fill="#F34522"/>
<path d="M14.8256 26.6272L9.90968 55.6666L9.33594 56.123L14.3562 26.4707" fill="#FFEB4A"/>
<path d="M24.2409 29.6654L19.2206 59.3307L18.8555 58.5614L23.7714 29.522" fill="#FFEB4A"/>
<path d="M44.0878 26.588C44.3747 27.2661 44.5442 27.9311 44.3747 28.544C44.2182 29.1307 43.7749 29.6002 43.2142 30.0174C42.5883 30.4999 42.2623 31.2692 42.3666 32.0516C42.4579 32.7297 42.4448 33.3556 42.1449 33.8641C41.832 34.4118 41.2322 34.7639 40.541 35.0247C39.7978 35.3116 39.2632 36.0027 39.1719 36.7981C39.0936 37.5283 38.9111 38.1803 38.4677 38.6236C38.0374 39.0409 37.4376 39.2235 36.7465 39.3147C35.9641 39.406 35.286 39.9276 34.9861 40.6578C34.7253 41.2968 34.3863 41.8314 33.8778 42.1313C33.3301 42.4443 32.652 42.4443 31.9218 42.34C31.1264 42.2226 30.331 42.5486 29.8485 43.1875C29.4051 43.7874 28.9227 44.2568 28.3098 44.4263C27.7361 44.5828 27.1232 44.4263 26.4973 44.1655C25.7801 43.8526 24.9325 43.9569 24.3066 44.4393C23.759 44.8696 23.1852 45.1565 22.5723 45.1565C21.9334 45.1565 21.3336 44.8305 20.7598 44.3741C20.147 43.8786 19.2994 43.7743 18.5692 44.0742C17.8911 44.3611 17.2261 44.5306 16.6132 44.3611C16.0264 44.2046 15.557 43.7613 15.1397 43.2006C14.6703 42.5747 13.8879 42.2487 13.1055 42.353C12.4275 42.4443 11.8016 42.4182 11.293 42.1313C10.9409 41.9357 10.6801 41.6228 10.4715 41.2446C10.3411 41.0229 10.2368 40.7882 10.1325 40.5274C9.8456 39.7842 9.1545 39.2495 8.35908 39.1583C7.62885 39.08 6.97687 38.8975 6.53352 38.4411C6.11625 38.0108 5.93369 37.4109 5.85546 36.7198C5.79026 36.1591 5.51642 35.6636 5.09915 35.3116C4.92964 35.1681 4.73404 35.0508 4.51237 34.9595C3.87342 34.6987 3.33879 34.3597 3.03888 33.8511C2.72593 33.3034 2.72593 32.6254 2.83025 31.8952C2.9476 31.0997 2.62161 30.3043 1.98267 29.8218C1.38284 29.3785 0.913411 28.896 0.743895 28.2701C0.600458 27.6964 0.743895 27.0965 1.00469 26.4576C1.31764 25.7274 1.21332 24.8928 0.730855 24.2669C0.313585 23.7193 0.0136719 23.1455 0.0136719 22.5327C0.0136719 21.8937 0.339664 21.2939 0.809093 20.7201C1.3046 20.0942 1.40892 19.2597 1.10901 18.5295C0.822133 17.8514 0.652617 17.1864 0.822133 16.5735C0.978609 15.9867 1.42196 15.5173 1.98267 15.1C2.60857 14.6176 2.93456 13.8482 2.83025 13.0658C2.73897 12.3878 2.75201 11.7619 3.05192 11.2533C3.36487 10.7056 3.9647 10.3536 4.6558 10.0928C5.39907 9.80591 5.93369 9.1148 6.02497 8.31938C6.10321 7.58916 6.28577 6.93717 6.72912 6.49383C7.15943 6.07655 7.75925 5.894 8.45036 5.80272C9.23274 5.71144 9.9108 5.18986 10.2107 4.45963C10.4715 3.82069 10.8105 3.28606 11.3191 2.98615C11.8668 2.67319 12.5448 2.67319 13.275 2.77751C14.0705 2.89487 14.8659 2.56888 15.3484 1.92993C15.7917 1.33011 16.2742 0.860677 16.887 0.691161C17.4608 0.534684 18.0736 0.691161 18.6996 0.951954C19.4167 1.26491 20.2643 1.16059 20.8902 0.678121C21.4379 0.247811 22.0116 -0.0390625 22.6245 -0.0390625C23.2634 -0.0390625 23.8633 0.28693 24.437 0.743319C24.5544 0.834597 24.6717 0.912835 24.8021 0.978034C25.3628 1.26491 26.0279 1.29099 26.6277 1.04323C27.3058 0.756359 27.9708 0.586843 28.5836 0.756359C29.1704 0.912835 29.6399 1.35618 30.0571 1.91689C30.5266 2.5428 31.3089 2.86879 32.0913 2.76447C32.7433 2.67319 33.3431 2.68623 33.8386 2.94703C33.8647 2.96007 33.8908 2.97311 33.9169 2.98615C34.4645 3.2991 34.8166 3.89893 35.0774 4.59003C35.3643 5.33329 36.0554 5.86792 36.8508 5.9592C37.581 6.03744 38.233 6.21999 38.6764 6.67638C39.0936 7.10669 39.2762 7.70652 39.3544 8.39762C39.4457 9.18 39.9673 9.85807 40.6975 10.158C41.3365 10.4188 41.8711 10.7578 42.171 11.2664C42.484 11.814 42.484 12.4921 42.3796 13.2223C42.2623 14.0177 42.5883 14.8132 43.2272 15.2956C43.8271 15.739 44.2965 16.2214 44.466 16.8473C44.6094 17.4211 44.466 18.0209 44.2052 18.6599C43.8922 19.3901 43.9966 20.2246 44.479 20.8505C44.8963 21.3982 45.1962 21.9719 45.1962 22.5848C45.1962 23.2238 44.8702 23.8236 44.4008 24.3973C43.8922 25.0232 43.7749 25.8578 44.0878 26.588Z" fill="#FEC611"/>
<path d="M35.309 35.3091C42.3364 28.2817 42.3364 16.8882 35.309 9.86085C28.2817 2.83352 16.8882 2.83352 9.86083 9.86085C2.8335 16.8882 2.8335 28.2817 9.86083 35.3091C16.8882 42.3364 28.2817 42.3364 35.309 35.3091Z" fill="#FFD745"/>
<path d="M42.8611 25.6098C42.9263 25.0882 42.7307 24.5536 42.4308 24.045C42.0917 23.4582 42.0917 22.728 42.4438 22.1282C42.7437 21.6196 42.9393 21.1111 42.8741 20.6025C42.8089 20.0549 42.4438 19.5854 41.9874 19.1291C41.4919 18.6466 41.2963 17.9164 41.4919 17.2513C41.6745 16.6385 41.7527 16.0517 41.5441 15.5562C41.3485 15.0737 40.9182 14.7216 40.3966 14.4348C39.7967 14.0957 39.4316 13.4568 39.4447 12.7657C39.4447 12.1659 39.3664 11.6312 39.0535 11.214C38.7275 10.7836 38.1798 10.5489 37.567 10.3925C36.8889 10.2229 36.3543 9.68831 36.1978 9.01025C36.0413 8.38434 35.8196 7.83668 35.3763 7.49764C34.9721 7.18469 34.4374 7.09341 33.8376 7.10645C33.1595 7.10645 32.5206 6.74134 32.1816 6.15455C31.8817 5.63297 31.5296 5.20266 31.0341 4.99402C30.5255 4.77235 29.9257 4.83755 29.3128 5.0201C28.6478 5.20266 27.9437 5.00706 27.4612 4.52459C27.0178 4.0682 26.5354 3.71613 25.9877 3.63789C25.4661 3.57269 24.9315 3.76829 24.4229 4.0682C23.8362 4.40724 23.1059 4.40724 22.5061 4.05516C21.9976 3.75525 21.489 3.55966 20.9805 3.62485C20.4328 3.69005 19.9634 4.05516 19.507 4.51155C19.0245 5.00706 18.2943 5.20266 17.6293 5.00706C17.0164 4.82451 16.4296 4.74627 15.9341 4.9549C15.4516 5.1505 15.0996 5.58081 14.8127 6.1024C14.4737 6.70222 13.8347 7.06733 13.1436 7.05429C12.5438 7.05429 12.0092 7.13253 11.5919 7.44548C11.1616 7.77148 10.9269 8.31914 10.7704 8.93201C10.6009 9.61007 10.0662 10.1447 9.38818 10.3012C8.76227 10.4577 8.21461 10.6793 7.87557 11.1227C7.56262 11.5269 7.47134 12.0615 7.48438 12.6614C7.48438 13.3394 7.11927 13.9784 6.53248 14.3174C6.0109 14.6173 5.58059 14.9694 5.37195 15.4649C5.15028 15.9734 5.21548 16.5733 5.39803 17.1861C5.58059 17.8512 5.38499 18.5553 4.90252 19.0378C4.44613 19.4811 4.09406 19.9636 4.01582 20.5113C3.95062 21.0328 4.14622 21.5675 4.44613 22.076C4.78516 22.6628 4.78516 23.393 4.43309 23.9929C4.13318 24.5014 3.93758 25.01 4.00278 25.5185C4.06798 26.0662 4.43309 26.5356 4.88948 26.992C5.38499 27.4745 5.58059 28.2047 5.38499 28.8697C5.20244 29.4826 5.1242 30.0694 5.33283 30.5649C5.52843 31.0473 5.95874 31.3994 6.48033 31.6863C7.08015 32.0253 7.44526 32.6643 7.43222 33.3554C7.43222 33.9552 7.51046 34.4898 7.82341 34.9071C8.14941 35.3374 8.69707 35.5721 9.30994 35.7286C9.988 35.8981 10.5226 36.4327 10.6791 37.1108C10.8356 37.7367 11.0573 38.2844 11.5006 38.6234C11.9048 38.9364 12.4395 39.0276 13.0393 39.0146C13.7174 39.0146 14.3563 39.3797 14.6953 39.9665C14.9952 40.4881 15.3473 40.9184 15.8428 41.127C16.3514 41.3487 16.9512 41.2835 17.5641 41.1009C18.2291 40.9184 18.9332 41.114 19.4157 41.5964C19.8591 42.0528 20.3415 42.4049 20.8892 42.4831C21.4108 42.5483 21.9454 42.3528 22.454 42.0528C23.0407 41.7138 23.771 41.7138 24.3708 42.0659C24.8793 42.3658 25.3879 42.5614 25.8964 42.4962C26.4441 42.431 26.9135 42.0659 27.3699 41.6095C27.8524 41.114 28.5826 40.9184 29.2476 41.114C29.8605 41.2965 30.4473 41.3748 30.9428 41.1661C31.4253 40.9705 31.7773 40.5402 32.0642 40.0186C32.4032 39.4188 33.0422 39.0537 33.7333 39.0667C34.3331 39.0667 34.8677 38.9885 35.285 38.6756C35.7153 38.3496 35.95 37.8019 36.1065 37.189C36.276 36.511 36.8107 35.9763 37.4887 35.8199C38.1146 35.6634 38.6623 35.4417 39.0013 34.9984C39.3143 34.5941 39.4056 34.0595 39.3925 33.4597C39.3925 32.7816 39.7576 32.1427 40.3444 31.8036C40.866 31.5037 41.2963 31.1517 41.5049 30.6561C41.7266 30.1476 41.6614 29.5478 41.4789 28.9349C41.2963 28.2699 41.4919 27.5657 41.9744 27.0833C42.4308 26.6399 42.7828 26.1705 42.8611 25.6098Z" fill="#F0AE06"/>
<path d="M41.5838 23.5629C41.8837 24.0845 42.0793 24.6061 42.0141 25.1276C41.9359 25.6753 41.5838 26.1578 41.1274 26.6011C40.6319 27.0836 40.4363 27.7877 40.6319 28.4528C40.8014 29.0656 40.8666 29.6524 40.658 30.174C40.4493 30.6695 40.019 31.0216 39.4974 31.3215C38.8976 31.6605 38.5325 32.2995 38.5456 32.9775C38.5456 33.5643 38.4543 34.112 38.1544 34.5162C37.8153 34.9596 37.2677 35.1813 36.6418 35.3377C35.9637 35.5072 35.4291 36.0288 35.2595 36.7069C35.1031 37.3328 34.8814 37.8674 34.438 38.1934C34.0208 38.5064 33.4861 38.5977 32.8863 38.5846C32.1952 38.5846 31.5693 38.9497 31.2172 39.5365C30.9173 40.0581 30.5783 40.4754 30.0958 40.684C29.5873 40.8926 29.0135 40.8144 28.4007 40.6318C27.7356 40.4363 27.0054 40.6318 26.523 41.1274C26.0796 41.5837 25.5971 41.9489 25.0495 42.0141C24.5409 42.0793 24.0324 41.8837 23.5238 41.5837C22.937 41.2317 22.2068 41.2317 21.607 41.5707C21.0854 41.8706 20.5638 42.0662 20.0422 42.001C19.4946 41.9228 19.0121 41.5707 18.5687 41.1143C18.0863 40.6188 17.3821 40.4232 16.7171 40.6188C16.1042 40.7883 15.5174 40.8535 14.9959 40.6449C14.5004 40.4363 14.1483 40.0059 13.8484 39.4844C13.5093 38.8976 12.8834 38.5325 12.1923 38.5325C11.5925 38.5325 11.0579 38.4412 10.6536 38.1413C10.2233 37.8022 9.98862 37.2546 9.83214 36.6287C9.74086 36.2375 9.51919 35.8984 9.23231 35.6507C9.01064 35.4681 8.74985 35.3247 8.46297 35.2464C7.83707 35.09 7.30244 34.8683 6.97645 34.425C6.66349 34.0077 6.57222 33.4731 6.58526 32.8732C6.58526 32.808 6.58526 32.7428 6.57222 32.6776C6.52006 32.0648 6.16799 31.5171 5.62032 31.2172C5.09873 30.9173 4.68146 30.5652 4.47283 30.0958C4.26419 29.6003 4.34243 29.0135 4.51194 28.4006C4.70754 27.7356 4.51194 27.0054 4.01644 26.5229C3.56005 26.0795 3.19493 25.5971 3.12974 25.0494C3.06454 24.5409 3.26013 24.0323 3.56005 23.5238C3.91212 22.937 3.91212 22.2068 3.57309 21.62C3.27317 21.0984 3.07758 20.5768 3.14278 20.0552C3.22101 19.5075 3.57309 19.0251 4.02948 18.5817C4.52498 18.0993 4.72058 17.3951 4.52498 16.7301C4.35547 16.1172 4.29027 15.5304 4.4989 15.0088C4.70754 14.5133 5.13785 14.1613 5.65944 13.8613C6.24622 13.5223 6.62438 12.8834 6.61134 12.2053C6.61134 11.6185 6.70261 11.0709 7.00253 10.6666C7.34156 10.2233 7.88923 10.0016 8.51513 9.84512C9.1932 9.67561 9.72782 9.15402 9.89734 8.47596C10.0538 7.85005 10.2885 7.31542 10.7188 6.98943C11.1361 6.67648 11.6707 6.5852 12.2706 6.59824C12.9617 6.59824 13.5876 6.23313 13.9396 5.64634C14.2396 5.12475 14.5786 4.70748 15.0611 4.49885C15.5696 4.29021 16.1434 4.36845 16.7562 4.55101C17.4212 4.7466 18.1515 4.55101 18.6339 4.0555C19.0773 3.59911 19.5598 3.234 20.1074 3.1688C20.616 3.1036 21.1245 3.2992 21.6331 3.59911C22.0895 3.87294 22.6371 3.9251 23.1326 3.78166C23.2761 3.74255 23.4195 3.67735 23.5499 3.59911C24.0715 3.2992 24.5931 3.1036 25.1147 3.1688C25.6232 3.234 26.0535 3.53391 26.4708 3.93814C26.5099 3.97726 26.549 4.01638 26.5881 4.0555C27.0706 4.55101 27.7748 4.7466 28.4398 4.55101C29.0527 4.38149 29.6394 4.31629 30.161 4.52493C30.6565 4.73356 31.0086 5.16387 31.3085 5.68546C31.6476 6.27225 32.2735 6.6504 32.9646 6.63736C33.5644 6.63736 34.099 6.72864 34.5032 7.02855C34.9336 7.36758 35.1683 7.91525 35.3247 8.54115C35.4943 9.21922 36.0158 9.75385 36.6939 9.92336C37.3198 10.0798 37.8544 10.3015 38.1804 10.7449C38.4934 11.1621 38.5847 11.6968 38.5716 12.2966C38.5586 12.9877 38.9367 13.6136 39.5235 13.9657C40.0451 14.2656 40.4624 14.6177 40.671 15.0871C40.8797 15.5826 40.8014 16.1694 40.6319 16.7822C40.4363 17.4473 40.6319 18.1775 41.1274 18.66C41.5838 19.1033 41.9489 19.5858 42.0141 20.1334C42.0793 20.642 41.8837 21.1505 41.5838 21.6591C41.2448 22.2459 41.2448 22.9761 41.5838 23.5629Z" fill="#FFEB4A"/>
<path d="M22.5852 37.3848C30.7591 37.3848 37.3853 30.7586 37.3853 22.5847C37.3853 14.4109 30.7591 7.78467 22.5852 7.78467C14.4114 7.78467 7.78516 14.4109 7.78516 22.5847C7.78516 30.7586 14.4114 37.3848 22.5852 37.3848Z" fill="#FAAF18"/>
<path d="M32.5036 32.5906C37.7639 27.3302 37.7639 18.8016 32.5036 13.5413C27.2433 8.28096 18.7146 8.28096 13.4543 13.5413C8.19401 18.8016 8.19401 27.3302 13.4543 32.5906C18.7146 37.8509 27.2433 37.8509 32.5036 32.5906Z" fill="#EC9400"/>
<path d="M36.0552 22.5846C36.0552 30.0303 30.0179 36.0546 22.5852 36.0546C21.5942 36.0546 20.6423 35.9503 19.7165 35.7417C18.8168 35.5461 17.9561 35.2592 17.1346 34.8941C16.6913 34.6985 16.2479 34.4768 15.8307 34.2291C15.5047 34.0465 15.1917 33.8509 14.8918 33.6292C14.3963 33.2902 13.9269 32.912 13.4835 32.4948C13.3923 32.4165 13.314 32.3383 13.2227 32.247C13.0402 32.0645 12.8576 31.8819 12.6881 31.6994C12.3752 31.3603 12.0752 30.9952 11.7884 30.6301C11.1233 29.7434 10.5626 28.7785 10.1454 27.7353C10.028 27.4615 9.9237 27.1746 9.83242 26.9007C9.37603 25.5446 9.11523 24.0842 9.11523 22.5716C9.11523 16.0648 13.7313 10.6272 19.873 9.3754C20.1338 9.32324 20.3946 9.27108 20.6554 9.245C20.864 9.21892 21.0596 9.19284 21.2682 9.16676C21.6985 9.12764 22.1419 9.10156 22.5852 9.10156C22.9243 9.10156 23.2503 9.1146 23.5763 9.14068C23.9283 9.16676 24.2674 9.20588 24.6064 9.25804C25.0106 9.32324 25.4018 9.40148 25.793 9.49275C25.8321 9.50579 25.8712 9.50579 25.9104 9.51883C26.2885 9.62315 26.6667 9.72747 27.0448 9.85786C27.5273 10.0274 28.0098 10.223 28.4661 10.4447C28.8834 10.6402 29.2876 10.8619 29.6788 11.1097C33.4995 13.4959 36.0552 17.7469 36.0552 22.5846Z" fill="#FFEB4A"/>
<path d="M25.7004 19.3117L24.0966 20.9938L22.584 17.9165V13.0137L25.7004 19.3117Z" fill="#FEC611"/>
<path d="M22.5839 13.0137V17.9165L21.0713 20.9938L19.4805 19.3117L22.5839 13.0137Z" fill="#FAAF18"/>
<path d="M21.0715 20.9936L17.6812 21.4761L12.5176 20.3286L19.4807 19.3115L21.0715 20.9936Z" fill="#FEC611"/>
<path d="M20.1326 23.8754L17.5508 25.2315L12.5176 20.3286L17.6812 21.4761L20.1326 23.8754Z" fill="#FAAF18"/>
<path d="M20.1317 23.8755L19.5449 27.2527L16.3633 32.1556L17.5499 25.2316L20.1317 23.8755Z" fill="#FEC611"/>
<path d="M22.5831 25.6621V28.8829L16.3633 32.1558L19.5449 27.2529L22.5831 25.6621Z" fill="#FAAF18"/>
<path d="M28.8038 32.1558L22.584 28.8829V25.6621L25.6222 27.2529L28.8038 32.1558Z" fill="#FEC611"/>
<path d="M28.8036 32.1556L25.6219 27.2527L25.0352 23.8755L27.617 25.2316L28.8036 32.1556Z" fill="#FAAF18"/>
<path d="M32.6502 20.3286L27.617 25.2315L25.0352 23.8754L27.4866 21.4761L32.6502 20.3286Z" fill="#FEC611"/>
<path d="M32.6496 20.3286L27.486 21.4761L24.0957 20.9936L25.6996 19.3115L32.6496 20.3286Z" fill="#FAAF18"/>
<path d="M25.0359 23.8755L25.6227 27.2528L22.5845 25.662L19.5463 27.2528L20.1331 23.8755L17.6816 21.4763L21.0719 20.9938L22.5845 17.9165L24.0971 20.9938L27.4873 21.4763L25.0359 23.8755Z" fill="#FFEB4A"/>
</g>
<defs>
<clipPath id="clip0_1565_5519">
<rect width="45.1695" height="61.1823" fill="white"/>
</clipPath>
</defs>
</svg>
