<svg width="76" height="76" viewBox="0 0 76 76" fill="none" xmlns="http://www.w3.org/2000/svg">
<rect width="76" height="76" rx="10" fill="white"/>
<g clip-path="url(#clip0_1565_5383)">
<path d="M52.709 69.2063L51.515 68.5143L50.918 68.1751L45.2465 64.9188L41.6103 70.346L41.2304 70.9159L40.457 72.0556C40.1721 72.4762 39.5344 72.3541 39.4123 71.8657L37.974 65.7464L37.7162 64.6338L36.2644 58.4332L36.0609 57.5377L34.0664 49.0441L35.8438 48.6234L37.8248 49.0712L39.6972 48.6506L48.4351 46.6968L50.009 53.4401L50.2803 54.5934L53.5502 68.5686C53.6724 69.0706 53.1432 69.4641 52.709 69.2063Z" fill="#E1E1E3"/>
<path d="M45.791 46.3169L50.9062 68.1752L51.5032 68.528L46.2795 46.1948L45.791 46.3169Z" fill="#B3B2B8"/>
<path d="M35.9961 48.6099L41.2198 70.9295L41.5997 70.3596L36.4845 48.4878L35.9961 48.6099Z" fill="#B3B2B8"/>
<path d="M41.8816 49.0575L39.9007 57.5512L38.2318 64.6609L37.974 65.7599L37.7162 64.6609L36.0609 57.5512L34.0664 49.0575L37.7162 48.2027L37.974 48.1484L38.2318 48.2027L41.8816 49.0575Z" fill="#B3B2B8"/>
<path d="M41.3672 49.0573L39.3863 57.551L39.1692 58.46L37.7174 64.6607L36.0214 71.8925C35.9128 72.3809 35.2616 72.503 34.9766 72.0824L34.2032 70.9427L33.8233 70.3729L30.1871 64.9456L24.5156 68.202L23.9186 68.5412L22.7246 69.2331C22.2904 69.4909 21.7613 69.0974 21.8698 68.5954L25.1669 54.5388L25.3975 53.5212L26.9986 46.6558L35.8314 48.6367L37.8124 49.0845L39.6848 48.6638L41.3672 49.0573Z" fill="#E1E1E3"/>
<path d="M29.6458 46.3169L24.5306 68.1752L23.9336 68.528L29.1573 46.1948L29.6458 46.3169Z" fill="#B3B2B8"/>
<path d="M39.4415 48.6099L34.2178 70.9295L33.8379 70.3596L38.9531 48.4878L39.4415 48.6099Z" fill="#B3B2B8"/>
<path d="M59.8779 35.6656C60.1764 36.3711 60.3527 37.0631 60.1764 37.7008C60.0135 38.3114 59.5522 38.7998 58.9688 39.234C58.3175 39.736 57.9783 40.5366 58.0869 41.3506C58.1818 42.0562 58.1683 42.7075 57.8562 43.2366C57.5306 43.8065 56.9064 44.1728 56.1873 44.4442C55.4139 44.7427 54.8576 45.4618 54.7627 46.2894C54.6813 47.0493 54.4913 47.7277 54.03 48.189C53.5822 48.6232 52.9581 48.8131 52.239 48.9081C51.4249 49.0031 50.7194 49.5458 50.4073 50.3056C50.1359 50.9704 49.7832 51.5267 49.254 51.8388C48.6841 52.1644 47.9786 52.1644 47.2188 52.0559C46.3911 51.9338 45.5635 52.273 45.0615 52.9378C44.6001 53.562 44.0981 54.0504 43.4604 54.2268C42.8634 54.3896 42.2257 54.2268 41.5744 53.9554C40.8282 53.6298 39.9463 53.7383 39.295 54.2404C38.7251 54.6881 38.1281 54.9866 37.4904 54.9866C36.8256 54.9866 36.2015 54.6474 35.6045 54.1725C34.9668 53.6569 34.0848 53.5484 33.325 53.8605C32.6195 54.159 31.9275 54.3353 31.2898 54.159C30.6792 53.9961 30.1908 53.5348 29.7566 52.9514C29.2682 52.3001 28.4541 51.9609 27.64 52.0695C26.9344 52.1644 26.2832 52.1373 25.754 51.8388C25.3877 51.6353 25.1163 51.3096 24.8992 50.9162C24.7635 50.6855 24.655 50.4413 24.5464 50.1699C24.2479 49.3965 23.5288 48.8402 22.7012 48.7453C21.9414 48.6639 21.263 48.4739 20.8016 47.999C20.3675 47.5513 20.1775 46.9271 20.0961 46.208C20.0283 45.6246 19.7433 45.109 19.3091 44.7427C19.1328 44.5934 18.9292 44.4713 18.6986 44.3763C18.0337 44.105 17.4775 43.7522 17.1654 43.223C16.8397 42.6532 16.8397 41.9476 16.9483 41.1878C17.0704 40.3602 16.7312 39.5325 16.0664 39.0305C15.4422 38.5692 14.9538 38.0672 14.7774 37.4159C14.6281 36.8189 14.7774 36.1948 15.0488 35.5299C15.3744 34.7701 15.2658 33.9017 14.7638 33.2505C14.3296 32.6806 14.0176 32.0836 14.0176 31.4459C14.0176 30.7811 14.3568 30.1569 14.8452 29.5599C15.3608 28.9087 15.4694 28.0403 15.1573 27.2805C14.8588 26.5749 14.6824 25.883 14.8588 25.2453C15.0216 24.6347 15.4829 24.1463 16.0664 23.7121C16.7176 23.2101 17.0568 22.4095 16.9483 21.5954C16.8533 20.8899 16.8669 20.2386 17.179 19.7095C17.5046 19.1396 18.1287 18.7733 18.8478 18.5019C19.6212 18.2034 20.1775 17.4843 20.2725 16.6566C20.3539 15.8968 20.5438 15.2184 21.0052 14.7571C21.4529 14.3229 22.077 14.133 22.7962 14.038C23.6102 13.943 24.3158 13.4003 24.6279 12.6405C24.8992 11.9756 25.252 11.4193 25.7811 11.1073C26.351 10.7816 27.0566 10.7816 27.8164 10.8902C28.644 11.0123 29.4717 10.6731 29.9737 10.0083C30.435 9.38413 30.937 8.89567 31.5747 8.71929C32.1717 8.55647 32.8094 8.71929 33.4607 8.99065C34.207 9.31629 35.0889 9.20774 35.7402 8.70572C36.31 8.25797 36.907 7.95947 37.5447 7.95947C38.2096 7.95947 38.8337 8.29868 39.4307 8.77356C39.5528 8.86854 39.6749 8.94995 39.8106 9.01779C40.394 9.31629 41.086 9.34342 41.7101 9.08563C42.4157 8.78713 43.1076 8.61074 43.7453 8.78713C44.3559 8.94995 44.8444 9.41126 45.2785 9.99469C45.767 10.646 46.5811 10.9852 47.3952 10.8766C48.0736 10.7816 48.6977 10.7952 49.2133 11.0666C49.2404 11.0801 49.2676 11.0937 49.2947 11.1073C49.8646 11.4329 50.2309 12.057 50.5023 12.7762C50.8008 13.5495 51.5199 14.1058 52.3475 14.2008C53.1074 14.2822 53.7858 14.4722 54.2471 14.9471C54.6813 15.3948 54.8712 16.0189 54.9526 16.7381C55.0476 17.5521 55.5903 18.2577 56.3501 18.5698C57.015 18.8411 57.5713 19.1939 57.8833 19.723C58.209 20.2929 58.209 20.9984 58.1004 21.7583C57.9783 22.5859 58.3175 23.4136 58.9824 23.9156C59.6065 24.3769 60.0949 24.8789 60.2713 25.5302C60.4206 26.1272 60.2713 26.7513 60 27.4162C59.6743 28.176 59.7829 29.0443 60.2849 29.6956C60.7191 30.2655 61.0312 30.8625 61.0312 31.5002C61.0312 32.165 60.6919 32.7892 60.2035 33.3862C59.6743 34.0374 59.5522 34.9058 59.8779 35.6656Z" fill="#B3B2B8"/>
<path opacity="0.2" d="M39.7833 9.07188C34.9802 17.0906 23.9493 36.4117 19.2955 44.7832C19.1191 44.6339 18.9156 44.5118 18.6849 44.4169C18.0201 44.1455 17.4638 43.7927 17.1517 43.2636C16.8261 42.6937 16.8261 41.9882 16.9346 41.2283C17.0567 40.4007 16.7175 39.573 16.0527 39.071C15.4286 38.6097 14.9401 38.1077 14.7637 37.4564C14.6145 36.8594 14.7637 36.2353 15.0351 35.5704C15.3607 34.8106 15.2522 33.9423 14.7502 33.291C14.316 32.7211 14.0039 32.1241 14.0039 31.4864C14.0039 30.8216 14.3431 30.1975 14.8316 29.6005C15.3472 28.9492 15.4557 28.0808 15.1436 27.321C14.8451 26.6155 14.6687 25.9235 14.8451 25.2858C15.0079 24.6752 15.4693 24.1868 16.0527 23.7526C16.704 23.2506 17.0432 22.4501 16.9346 21.636C16.8396 20.9304 16.8532 20.2792 17.1653 19.75C17.4909 19.1801 18.115 18.8138 18.8342 18.5424C19.6075 18.2439 20.1638 17.5248 20.2588 16.6972C20.3402 15.9374 20.5302 15.2589 20.9915 14.7976C21.4392 14.3635 22.0634 14.1735 22.7825 14.0785C23.5966 13.9835 24.3021 13.4408 24.6142 12.681C24.8855 12.0162 25.2383 11.4599 25.7675 11.1478C26.3373 10.8222 27.0429 10.8222 27.8027 10.9307C28.6303 11.0528 29.458 10.7136 29.96 10.0488C30.4213 9.42465 30.9234 8.9362 31.5611 8.75982C32.1581 8.597 32.7958 8.75982 33.447 9.03118C34.1933 9.35681 35.0752 9.24827 35.7265 8.74625C36.2963 8.2985 36.8933 8 37.531 8C38.1959 8 38.82 8.3392 39.417 8.81409C39.512 8.92263 39.6477 9.00404 39.7833 9.07188Z" fill="white"/>
<path d="M50.7427 44.7398C58.0548 37.4276 58.0548 25.5724 50.7427 18.2602C43.4306 10.9481 31.5753 10.9481 24.2632 18.2602C16.9511 25.5724 16.9511 37.4276 24.2632 44.7398C31.5753 52.0519 43.4306 52.0519 50.7427 44.7398Z" fill="#FFD745"/>
<path d="M58.6004 34.6477C58.6682 34.105 58.4647 33.5487 58.1526 33.0195C57.7999 32.409 57.7999 31.6492 58.1662 31.025C58.4783 30.4959 58.6818 29.9667 58.6139 29.4375C58.5461 28.8677 58.1662 28.3792 57.6913 27.9044C57.1757 27.4023 56.9722 26.6425 57.1757 25.9505C57.3657 25.3128 57.4471 24.7023 57.23 24.1867C57.0265 23.6847 56.5787 23.3183 56.036 23.0198C55.4119 22.6671 55.032 22.0022 55.0455 21.2831C55.0455 20.659 54.9641 20.1027 54.6385 19.6685C54.2993 19.2207 53.7294 18.9765 53.0917 18.8137C52.3862 18.6373 51.8299 18.081 51.6671 17.3755C51.5042 16.7242 51.2736 16.1544 50.8123 15.8016C50.3917 15.4759 49.8354 15.381 49.2112 15.3945C48.5057 15.3945 47.8409 15.0146 47.4881 14.4041C47.176 13.8613 46.8097 13.4136 46.2941 13.1965C45.7649 12.9658 45.1408 13.0337 44.5031 13.2236C43.8111 13.4136 43.0784 13.2101 42.5764 12.708C42.1151 12.2332 41.6131 11.8668 41.0432 11.7854C40.5005 11.7176 39.9442 11.9211 39.415 12.2332C38.8045 12.5859 38.0447 12.5859 37.4205 12.2196C36.8914 11.9075 36.3622 11.704 35.8331 11.7718C35.2632 11.8397 34.7747 12.2196 34.2999 12.6945C33.7978 13.2101 33.038 13.4136 32.346 13.2101C31.7083 13.0201 31.0978 12.9387 30.5822 13.1558C30.0802 13.3593 29.7138 13.8071 29.4153 14.3498C29.0626 14.9739 28.3977 15.3538 27.6786 15.3403C27.0545 15.3403 26.4982 15.4217 26.064 15.7473C25.6163 16.0865 25.372 16.6564 25.2092 17.2941C25.0328 17.9996 24.4765 18.5559 23.771 18.7187C23.1197 18.8815 22.5499 19.1122 22.1971 19.5735C21.8715 19.9941 21.7765 20.5504 21.79 21.1746C21.79 21.8801 21.4101 22.5449 20.7996 22.8977C20.2568 23.2098 19.8091 23.5761 19.592 24.0917C19.3613 24.6209 19.4292 25.245 19.6191 25.8827C19.8091 26.5747 19.6056 27.3074 19.1036 27.8094C18.6287 28.2707 18.2623 28.7727 18.1809 29.3426C18.1131 29.8853 18.3166 30.4416 18.6287 30.9707C18.9814 31.5813 18.9814 32.3411 18.6151 32.9653C18.303 33.4944 18.0995 34.0236 18.1674 34.5527C18.2352 35.1226 18.6151 35.611 19.09 36.0859C19.6056 36.588 19.8091 37.3478 19.6056 38.0397C19.4156 38.6774 19.3342 39.288 19.5513 39.8036C19.7548 40.3056 20.2026 40.672 20.7453 40.9705C21.3694 41.3232 21.7493 41.9881 21.7358 42.7072C21.7358 43.3313 21.8172 43.8876 22.1428 44.3218C22.482 44.7695 23.0519 45.0138 23.6896 45.1766C24.3951 45.353 24.9514 45.9093 25.1142 46.6148C25.2771 47.2661 25.5077 47.8359 25.969 48.1887C26.3896 48.5143 26.9459 48.6093 27.5701 48.5957C28.2756 48.5957 28.9404 48.9757 29.2932 49.5862C29.6053 50.1289 29.9716 50.5767 30.4872 50.7938C31.0164 51.0244 31.6405 50.9566 32.2782 50.7667C32.9702 50.5767 33.7029 50.7802 34.2049 51.2822C34.6662 51.7571 35.1682 52.1235 35.7381 52.2049C36.2808 52.2727 36.8371 52.0692 37.3663 51.7571C37.9768 51.4044 38.7366 51.4044 39.3608 51.7707C39.8899 52.0828 40.4191 52.2863 40.9482 52.2184C41.5181 52.1506 42.0066 51.7707 42.4814 51.2958C42.9835 50.7802 43.7433 50.5767 44.4353 50.7802C45.073 50.9702 45.6835 51.0516 46.1991 50.8345C46.7011 50.631 47.0675 50.1832 47.366 49.6405C47.7187 49.0164 48.3836 48.6365 49.1027 48.65C49.7268 48.65 50.2831 48.5686 50.7173 48.243C51.165 47.9038 51.4093 47.3339 51.5721 46.6962C51.7485 45.9907 52.3048 45.4344 53.0103 45.2716C53.6616 45.1087 54.2314 44.8781 54.5842 44.4168C54.9099 43.9962 55.0048 43.4399 54.9913 42.8157C54.9913 42.1102 55.3712 41.4453 55.9817 41.0926C56.5245 40.7805 56.9722 40.4142 57.1893 39.8986C57.42 39.3694 57.3521 38.7453 57.1622 38.1076C56.9722 37.4156 57.1757 36.6829 57.6777 36.1809C58.1526 35.7196 58.519 35.2311 58.6004 34.6477Z" fill="#A3939A"/>
<path d="M57.2716 32.5178C57.5836 33.0605 57.7872 33.6032 57.7193 34.146C57.6379 34.7158 57.2716 35.2178 56.7967 35.6792C56.2811 36.1812 56.0776 36.9139 56.2811 37.6058C56.4575 38.2435 56.5253 38.8541 56.3082 39.3968C56.0911 39.9124 55.6434 40.2788 55.1007 40.5908C54.4765 40.9436 54.0966 41.6084 54.1102 42.314C54.1102 42.9245 54.0152 43.4944 53.7031 43.915C53.3504 44.3763 52.7805 44.607 52.1292 44.7698C51.4237 44.9462 50.8674 45.4889 50.691 46.1945C50.5282 46.8457 50.2976 47.402 49.8362 47.7412C49.4021 48.0669 48.8458 48.1618 48.2216 48.1483C47.5025 48.1483 46.8512 48.5282 46.4849 49.1387C46.1728 49.6815 45.8201 50.1157 45.318 50.3327C44.7889 50.5498 44.1919 50.4684 43.5542 50.2785C42.8622 50.075 42.1024 50.2785 41.6004 50.7941C41.1391 51.2689 40.637 51.6489 40.0672 51.7167C39.538 51.7845 39.0089 51.581 38.4797 51.2689C37.8691 50.9026 37.1093 50.9026 36.4852 51.2554C35.9425 51.5674 35.3997 51.771 34.857 51.7031C34.2872 51.6217 33.7851 51.2554 33.3238 50.7805C32.8218 50.2649 32.0891 50.0614 31.3971 50.2649C30.7594 50.4413 30.1489 50.5091 29.6061 50.292C29.0906 50.075 28.7242 49.6272 28.4122 49.0845C28.0594 48.4739 27.4081 48.094 26.689 48.094C26.0649 48.094 25.5086 47.999 25.088 47.687C24.6402 47.3342 24.396 46.7643 24.2332 46.1131C24.1382 45.706 23.9075 45.3532 23.609 45.0954C23.3784 44.9055 23.107 44.7562 22.8085 44.6748C22.1572 44.512 21.601 44.2814 21.2617 43.82C20.9361 43.3859 20.8411 42.8296 20.8547 42.2054C20.8547 42.1376 20.8547 42.0698 20.8411 42.0019C20.7869 41.3642 20.4205 40.7943 19.8507 40.4823C19.3079 40.1702 18.8738 39.8039 18.6567 39.3154C18.4396 38.7998 18.521 38.1893 18.6974 37.5516C18.9009 36.8596 18.6974 36.0998 18.1818 35.5978C17.7069 35.1364 17.327 34.6344 17.2592 34.0646C17.1913 33.5354 17.3948 33.0062 17.7069 32.4771C18.0732 31.8665 18.0732 31.1067 17.7205 30.4961C17.4084 29.9534 17.2049 29.4107 17.2727 28.868C17.3541 28.2981 17.7205 27.7961 18.1954 27.3348C18.7109 26.8327 18.9145 26.1001 18.7109 25.4081C18.5346 24.7704 18.4667 24.1598 18.6838 23.6171C18.9009 23.1015 19.3486 22.7352 19.8914 22.4231C20.5019 22.0703 20.8954 21.4055 20.8818 20.7C20.8818 20.0894 20.9768 19.5195 21.2889 19.0989C21.6417 18.6376 22.2115 18.4069 22.8628 18.2441C23.5683 18.0677 24.1246 17.525 24.301 16.8195C24.4638 16.1682 24.7081 15.6119 25.1558 15.2727C25.59 14.9471 26.1463 14.8521 26.7704 14.8657C27.4895 14.8657 28.1408 14.4857 28.5071 13.8752C28.8192 13.3325 29.172 12.8983 29.674 12.6812C30.2031 12.4641 30.8001 12.5455 31.4378 12.7355C32.1298 12.939 32.8896 12.7355 33.3917 12.2199C33.853 11.745 34.355 11.3651 34.9249 11.2972C35.454 11.2294 35.9832 11.4329 36.5123 11.745C36.9872 12.0299 37.5571 12.0842 38.0727 11.9349C38.2219 11.8942 38.3712 11.8264 38.5068 11.745C39.0496 11.4329 39.5923 11.2294 40.135 11.2972C40.6642 11.3651 41.1119 11.6771 41.5461 12.0978C41.5868 12.1385 41.6275 12.1792 41.6682 12.2199C42.1702 12.7355 42.9029 12.939 43.5949 12.7355C44.2326 12.5591 44.8432 12.4912 45.3859 12.7083C45.9015 12.9254 46.2678 13.3732 46.5799 13.9159C46.9327 14.5265 47.5839 14.9199 48.303 14.9064C48.9272 14.9064 49.4835 15.0013 49.9041 15.3134C50.3518 15.6662 50.596 16.236 50.7589 16.8873C50.9352 17.5928 51.478 18.1491 52.1835 18.3255C52.8348 18.4883 53.3911 18.719 53.7303 19.1803C54.0559 19.6145 54.1509 20.1708 54.1373 20.7949C54.1238 21.514 54.5172 22.1653 55.1278 22.5316C55.6705 22.8437 56.1047 23.2101 56.3218 23.6985C56.5389 24.2141 56.4575 24.8247 56.2811 25.4624C56.0776 26.1543 56.2811 26.9142 56.7967 27.4162C57.2716 27.8775 57.6515 28.3795 57.7193 28.9494C57.7872 29.4785 57.5836 30.0077 57.2716 30.5368C56.9188 31.1474 56.9188 31.9072 57.2716 32.5178Z" fill="#E1E1E3"/>
<path opacity="0.12" d="M38.0862 11.9214C33.3374 19.9944 25.4543 33.7796 20.8411 42.0019C20.7869 41.3642 20.4205 40.7944 19.8507 40.4823C19.3079 40.1702 18.8738 39.8039 18.6567 39.3154C18.4396 38.7998 18.521 38.1893 18.6974 37.5516C18.9009 36.8596 18.6974 36.0998 18.1818 35.5978C17.7069 35.1364 17.327 34.6344 17.2592 34.0646C17.1913 33.5354 17.3948 33.0062 17.7069 32.4771C18.0732 31.8665 18.0732 31.1067 17.7205 30.4961C17.4084 29.9534 17.2049 29.4107 17.2727 28.868C17.3541 28.2981 17.7205 27.7961 18.1954 27.3348C18.7109 26.8327 18.9145 26.1001 18.7109 25.4081C18.5346 24.7704 18.4667 24.1598 18.6838 23.6171C18.9009 23.1015 19.3486 22.7352 19.8914 22.4231C20.5019 22.0703 20.8954 21.4055 20.8818 20.7C20.8818 20.0894 20.9768 19.5195 21.2889 19.0989C21.6417 18.6376 22.2115 18.4069 22.8628 18.2441C23.5683 18.0677 24.1246 17.525 24.301 16.8195C24.4638 16.1682 24.7081 15.6119 25.1558 15.2727C25.59 14.9471 26.1463 14.8521 26.7704 14.8657C27.4895 14.8657 28.1408 14.4857 28.5071 13.8752C28.8192 13.3325 29.172 12.8983 29.674 12.6812C30.2031 12.4641 30.8001 12.5455 31.4378 12.7355C32.1298 12.939 32.8896 12.7355 33.3917 12.2199C33.853 11.745 34.355 11.3651 34.9249 11.2972C35.454 11.2294 35.9832 11.4329 36.5123 11.745C37.0143 12.0028 37.5706 12.0706 38.0862 11.9214Z" fill="white"/>
<path d="M37.5014 46.8998C46.0065 46.8998 52.9012 40.005 52.9012 31.4999C52.9012 22.9948 46.0065 16.1001 37.5014 16.1001C28.9963 16.1001 22.1016 22.9948 22.1016 31.4999C22.1016 40.005 28.9963 46.8998 37.5014 46.8998Z" fill="#B3B2B8"/>
<path d="M47.8237 41.9116C53.2972 36.4381 53.2972 27.5638 47.8237 22.0903C42.3502 16.6169 33.4759 16.6169 28.0024 22.0903C22.5289 27.5638 22.5289 36.4381 28.0024 41.9116C33.4759 47.3851 42.3502 47.3851 47.8237 41.9116Z" fill="#A3939A"/>
<path d="M51.5181 31.4997C51.5181 39.2471 45.236 45.5155 37.5022 45.5155C36.471 45.5155 35.4806 45.407 34.5172 45.1899C33.581 44.9864 32.6855 44.6879 31.8307 44.308C31.3694 44.1045 30.9081 43.8738 30.4739 43.616C30.1347 43.426 29.8091 43.2225 29.497 42.9919C28.9814 42.6391 28.493 42.2456 28.0317 41.8114C27.9367 41.73 27.8553 41.6486 27.7603 41.5536C27.5703 41.3637 27.3804 41.1737 27.204 40.9838C26.8784 40.631 26.5663 40.2511 26.2678 39.8712C25.5758 38.9486 24.9924 37.9445 24.5582 36.8591C24.4361 36.5741 24.3276 36.2756 24.2326 35.9907C23.7577 34.5796 23.4863 33.06 23.4863 31.4861C23.4863 24.7156 28.2894 19.0577 34.68 17.7551C34.9514 17.7009 35.2228 17.6466 35.4941 17.6195C35.7112 17.5923 35.9147 17.5652 36.1318 17.5381C36.5796 17.4974 37.0409 17.4702 37.5022 17.4702C37.855 17.4702 38.1942 17.4838 38.5334 17.5109C38.8997 17.5381 39.2525 17.5788 39.6053 17.633C40.0259 17.7009 40.4329 17.7823 40.84 17.8773C40.8807 17.8908 40.9214 17.8908 40.9621 17.9044C41.3556 18.0129 41.749 18.1215 42.1425 18.2572C42.6445 18.4336 43.1465 18.6371 43.6214 18.8677C44.0556 19.0713 44.4762 19.3019 44.8833 19.5597C48.8587 22.0427 51.5181 26.4659 51.5181 31.4997Z" fill="#E1E1E3"/>
<path opacity="0.12" d="M34.6799 17.769C31.3693 23.4677 27.4888 30.2517 24.2189 36.0182C23.744 34.6071 23.4727 33.0875 23.4727 31.5136C23.4862 24.7295 28.2893 19.0716 34.6799 17.769Z" fill="white"/>
</g>
<defs>
<clipPath id="clip0_1565_5383">
<rect width="47" height="64.3265" fill="white" transform="translate(14 8)"/>
</clipPath>
</defs>
</svg>
