<?xml version="1.0" encoding="UTF-8"?>
<svg id="Layer_1" data-name="Layer 1" xmlns="http://www.w3.org/2000/svg" viewBox="0 0 231.72 55.75">
  <defs>
    <style>
      .cls-1, .cls-2, .cls-3 {
        fill: #fff;
      }

      .cls-2 {
        letter-spacing: .04em;
      }

      .cls-2, .cls-3 {
        font-family: Arial-BoldMT, Arial;
        font-size: 31.59px;
        font-weight: 700;
        isolation: isolate;
      }

      .cls-3 {
        letter-spacing: .04em;
      }

      .cls-4 {
        fill: #0d133b;
      }

      .cls-5 {
        fill: #2a2c75;
      }
    </style>
  </defs>
  <path class="cls-1" d="m45.76,32.91c-.05,12.66-10.35,22.89-23.01,22.84-5.85-.02-11.46-2.28-15.7-6.3C2.8,45.4.27,39.87,0,34.01V10.04C0,4.5,4.47,0,10,0c5.53,0,10.03,4.47,10.04,10v.2c.95-.13,1.91-.19,2.87-.19,12.66,0,22.93,10.27,22.93,22.93l-.07-.03Z"/>
  <path class="cls-4" d="m22.87,10.97c-1.3.01-2.59.14-3.87.39.03-.45.03-.9,0-1.35C19,5,14.94.95,9.94.95S.89,5,.89,10v23.97c.61,12.07,10.89,21.36,22.96,20.75,12.07-.61,21.36-10.89,20.75-22.96-.59-11.63-10.18-20.77-21.83-20.78h.09Zm-16.31.28c-.15-.4-.22-.82-.22-1.25,0-2.01,1.64-3.63,3.65-3.63s3.63,1.64,3.63,3.65-1.64,3.63-3.65,3.63c-1.53,0-2.89-.96-3.41-2.39Zm16.31,33.21c-6.38,0-11.56-5.17-11.56-11.56s5.17-11.56,11.56-11.56,11.56,5.17,11.56,11.56h0c0,6.38-5.18,11.55-11.56,11.56Z"/>
  <path class="cls-5" d="m30.24,32.91c0,4.08-3.3,7.38-7.38,7.38s-7.38-3.3-7.38-7.38,3.3-7.38,7.38-7.38h0c4.08,0,7.38,3.3,7.38,7.38Z"/>
  <path class="cls-1" d="m13.64,10c-.01,2.02-1.66,3.65-3.68,3.63-1.52,0-2.88-.96-3.4-2.38-.15-.4-.22-.82-.22-1.25-.15-2.01,1.36-3.77,3.37-3.92s3.77,1.36,3.92,3.37c.01.18.01.37,0,.55h.01Z"/>
  <text class="cls-3" transform="translate(57.83 42.04)"><tspan x="0" y="0">BIT</tspan></text>
  <text class="cls-2" transform="translate(114.97 42.04)"><tspan x="0" y="0">SCOPE</tspan></text>
</svg>