<svg id="Layer_1" data-name="Layer 1" xmlns="http://www.w3.org/2000/svg" viewBox="0 0 150 43.9"><defs><style>.cls-1{fill:#fff;}.cls-2{fill:#040c3b;}.cls-3{fill:#080e80;}.cls-4{isolation:isolate;}</style></defs><title>logo bitscope-1</title><path class="cls-1" d="M33.58,25.38a16.26,16.26,0,0,1-32.5.77v-17a7.12,7.12,0,1,1,14.23,0v.15a15.54,15.54,0,0,1,2-.14A16.29,16.29,0,0,1,33.64,25.4Z"/><path class="cls-2" d="M17.32,9.79a15.93,15.93,0,0,0-2.75.28,5.24,5.24,0,0,0,0-1,6.43,6.43,0,0,0-12.86,0v17A15.54,15.54,0,1,0,17.25,9.8ZM5.73,10a2.64,2.64,0,0,1-.15-.89,2.56,2.56,0,1,1,.15.89Zm11.59,23.6a8.21,8.21,0,1,1,8.21-8.21h0A8.22,8.22,0,0,1,17.32,33.59Z"/><path class="cls-3" d="M22.56,25.38a5.24,5.24,0,1,1-5.24-5.24h0A5.24,5.24,0,0,1,22.56,25.38Z"/><path class="cls-1" d="M10.77,9.1a2.6,2.6,0,0,1-5,.89,2.64,2.64,0,0,1-.15-.89,2.6,2.6,0,0,1,5.18-.39,2.54,2.54,0,0,1,0,.39Z"/><g class="cls-4"><path class="cls-1" d="M51.51,22.5a3.83,3.83,0,0,1,2.09,3.68A3.91,3.91,0,0,1,52,29.6a7,7,0,0,1-4.16,1.13H41.73a.27.27,0,0,1-.19-.08.24.24,0,0,1-.08-.19V14.91a.26.26,0,0,1,.08-.2.27.27,0,0,1,.19-.08h5.94a7.07,7.07,0,0,1,4.24,1.06,4,4,0,0,1,1.44,3.43,3.41,3.41,0,0,1-1.84,3.24C51.41,22.41,51.41,22.45,51.51,22.5ZM45.27,18v2.9a.11.11,0,0,0,.12.12h2.28a2.25,2.25,0,0,0,1.44-.41,1.35,1.35,0,0,0,.51-1.14,1.43,1.43,0,0,0-.51-1.17,2.25,2.25,0,0,0-1.44-.41H45.39C45.31,17.9,45.27,17.94,45.27,18Zm4,9a1.55,1.55,0,0,0,.5-1.23,1.5,1.5,0,0,0-.49-1.21,2.17,2.17,0,0,0-1.44-.43H45.39a.11.11,0,0,0-.12.12v3.06c0,.07,0,.11.12.11h2.46A2.2,2.2,0,0,0,49.28,27Z"/><path class="cls-1" d="M56.62,30.65a.27.27,0,0,1-.08-.19V14.91a.27.27,0,0,1,.28-.28h3.27a.27.27,0,0,1,.19.08.3.3,0,0,1,.08.2V30.46a.27.27,0,0,1-.27.27H56.82A.3.3,0,0,1,56.62,30.65Z"/></g><g class="cls-4"><path class="cls-1" d="M75.39,14.71a.26.26,0,0,1,.08.2v2.73a.24.24,0,0,1-.08.2.27.27,0,0,1-.19.08h-4c-.07,0-.11,0-.11.12V30.46a.27.27,0,0,1-.08.19.3.3,0,0,1-.2.08H67.52a.28.28,0,0,1-.2-.08.27.27,0,0,1-.08-.19V18a.11.11,0,0,0-.12-.12H63.24a.3.3,0,0,1-.2-.08.28.28,0,0,1-.08-.2V14.91a.27.27,0,0,1,.28-.28h12A.27.27,0,0,1,75.39,14.71Z"/></g><g class="cls-4"><path class="cls-1" d="M80.5,30.31a4.88,4.88,0,0,1-2.19-1.75,4.63,4.63,0,0,1-.77-2.64v-.43a.3.3,0,0,1,.08-.2.28.28,0,0,1,.2-.08H81a.27.27,0,0,1,.28.28v.27a1.63,1.63,0,0,0,.76,1.33,3.38,3.38,0,0,0,2,.56,2.18,2.18,0,0,0,1.5-.44,1.33,1.33,0,0,0,.48-1,1,1,0,0,0-.28-.75A2.36,2.36,0,0,0,85,25c-.32-.13-.82-.31-1.49-.54a.94.94,0,0,0-.28-.1L83,24.25a19.45,19.45,0,0,1-2.6-1.05,5.67,5.67,0,0,1-1.88-1.57,3.83,3.83,0,0,1-.79-2.47,4.21,4.21,0,0,1,.75-2.49A4.78,4.78,0,0,1,80.55,15a8.25,8.25,0,0,1,6.2.07A5.34,5.34,0,0,1,89,16.91a4.62,4.62,0,0,1,.81,2.69v.32a.27.27,0,0,1-.09.2.26.26,0,0,1-.19.08H86.3a.27.27,0,0,1-.19-.08.26.26,0,0,1-.08-.2v-.16a1.86,1.86,0,0,0-.72-1.43,2.8,2.8,0,0,0-1.9-.62,2.41,2.41,0,0,0-1.41.37,1.2,1.2,0,0,0-.5,1,1.16,1.16,0,0,0,.32.84,3,3,0,0,0,1,.62c.45.19,1.14.44,2.08.74s1.91.69,2.51,1a5.19,5.19,0,0,1,1.69,1.35,3.63,3.63,0,0,1,.79,2.45,4.33,4.33,0,0,1-.76,2.57A4.8,4.8,0,0,1,87,30.33a8,8,0,0,1-3.18.59A8.44,8.44,0,0,1,80.5,30.31Z"/><path class="cls-1" d="M95.33,30.2a5.14,5.14,0,0,1-2.16-2,5.85,5.85,0,0,1-.77-3v-5a5.73,5.73,0,0,1,.77-3,5.25,5.25,0,0,1,2.16-2,7.05,7.05,0,0,1,3.23-.71,7.18,7.18,0,0,1,3.23.68A5.14,5.14,0,0,1,104,17a5.22,5.22,0,0,1,.77,2.85.22.22,0,0,1-.08.18.25.25,0,0,1-.19.07l-3.27.21a.24.24,0,0,1-.27-.26,2.32,2.32,0,0,0-.65-1.72,2.53,2.53,0,0,0-3.4,0,2.34,2.34,0,0,0-.64,1.71V25.3A2.31,2.31,0,0,0,96.86,27a2.58,2.58,0,0,0,3.4,0,2.31,2.31,0,0,0,.65-1.71c0-.16.09-.25.27-.25l3.27.16a.25.25,0,0,1,.19.07.19.19,0,0,1,.08.16,5.3,5.3,0,0,1-.77,2.88,5.11,5.11,0,0,1-2.16,1.92,7.31,7.31,0,0,1-3.23.68A6.93,6.93,0,0,1,95.33,30.2Z"/><path class="cls-1" d="M110.28,30.24a5.39,5.39,0,0,1-2.2-2.11A6.18,6.18,0,0,1,107.3,25v-4.6a6,6,0,0,1,.78-3.09,5.43,5.43,0,0,1,2.2-2.1,7,7,0,0,1,3.28-.74,7.12,7.12,0,0,1,3.29.74,5.37,5.37,0,0,1,2.2,2.1,6,6,0,0,1,.79,3.09V25a6.19,6.19,0,0,1-.79,3.15,5.33,5.33,0,0,1-2.2,2.11,7,7,0,0,1-3.29.74A6.87,6.87,0,0,1,110.28,30.24ZM115.34,27A2.69,2.69,0,0,0,116,25.1V20.34a2.66,2.66,0,0,0-.68-1.9,2.31,2.31,0,0,0-1.78-.73,2.28,2.28,0,0,0-1.76.73,2.62,2.62,0,0,0-.68,1.9V25.1A2.64,2.64,0,0,0,111.8,27a2.34,2.34,0,0,0,1.76.71A2.36,2.36,0,0,0,115.34,27Z"/><path class="cls-1" d="M132.36,15.28a4.61,4.61,0,0,1,1.86,1.8,5.35,5.35,0,0,1,.66,2.68,5.15,5.15,0,0,1-.68,2.65,4.63,4.63,0,0,1-1.92,1.77,6.42,6.42,0,0,1-2.88.62h-2.8c-.08,0-.12,0-.12.11v5.55a.27.27,0,0,1-.27.27h-3.27a.3.3,0,0,1-.2-.08.27.27,0,0,1-.08-.19V14.91a.27.27,0,0,1,.28-.28h6.65A5.81,5.81,0,0,1,132.36,15.28Zm-1.87,6a1.74,1.74,0,0,0,.59-1.38,1.8,1.8,0,0,0-.59-1.41A2.16,2.16,0,0,0,129,17.9H126.6c-.08,0-.12,0-.12.11v3.64c0,.07,0,.11.12.11H129A2.15,2.15,0,0,0,130.49,21.23Z"/><path class="cls-1" d="M148.73,17.82a.27.27,0,0,1-.19.08h-7.22c-.08,0-.12,0-.12.11v2.83a.11.11,0,0,0,.12.12h4.62a.22.22,0,0,1,.19.08.24.24,0,0,1,.08.19v2.69a.24.24,0,0,1-.08.2.26.26,0,0,1-.19.08h-4.62c-.08,0-.12,0-.12.11v3a.11.11,0,0,0,.12.12h7.22a.27.27,0,0,1,.27.27v2.72a.24.24,0,0,1-.08.19.27.27,0,0,1-.19.08H137.66a.3.3,0,0,1-.2-.08.27.27,0,0,1-.08-.19V14.91a.27.27,0,0,1,.28-.28h10.88a.27.27,0,0,1,.19.08.26.26,0,0,1,.08.2v2.71A.26.26,0,0,1,148.73,17.82Z"/></g></svg>