<svg width="18" height="19" viewBox="0 0 18 19" fill="none" xmlns="http://www.w3.org/2000/svg">
<path fill-rule="evenodd" clip-rule="evenodd" d="M10.7973 13.5733C10.7856 13.4795 10.7058 13.4091 10.6113 13.4091H7.61129C7.51671 13.4091 7.43695 13.4795 7.42521 13.5733L7.13234 15.9163C7.09716 16.1978 6.85787 16.4091 6.57419 16.4091H5.50562C5.11476 16.4091 4.76777 16.6592 4.64417 17.03C4.49999 17.4624 4.82189 17.9091 5.27777 17.9091H12.9448C13.4006 17.9091 13.7225 17.4624 13.5784 17.03C13.4548 16.6592 13.1078 16.4091 12.7169 16.4091H11.6483C11.3647 16.4091 11.1254 16.1978 11.0902 15.9163L10.7973 13.5733Z" fill="#005AE2"/>
<path fill-rule="evenodd" clip-rule="evenodd" d="M3.15807 14.3781C4.38019 14.4541 6.32782 14.5341 9.11134 14.5341C11.8948 14.5341 13.8424 14.4541 15.0646 14.3781C16.278 14.3026 17.2648 13.4023 17.3798 12.1653C17.4678 11.2182 17.5488 9.83909 17.5488 7.97156C17.5488 6.10402 17.4678 4.72496 17.3798 3.77784C17.2648 2.54082 16.2781 1.6405 15.0646 1.56505C13.8424 1.48906 11.8948 1.40906 9.11134 1.40906C6.32782 1.40906 4.38019 1.48906 3.15807 1.56505C1.9446 1.6405 0.957812 2.54082 0.842863 3.77784C0.754854 4.72496 0.673828 6.10402 0.673828 7.97156C0.673828 9.83909 0.754854 11.2182 0.842863 12.1653C0.957808 13.4023 1.94459 14.3026 3.15807 14.3781Z" fill="#005AE2"/>
<g clip-path="url(#clip0_1638_6954)">
<path d="M4.91016 10.4203C4.93532 10.2692 4.9587 10.1146 5.04679 9.987C5.12769 9.87015 5.21398 9.75149 5.32005 9.65981C6.46882 8.66025 7.62298 7.66429 8.77714 6.67013C8.87422 6.58743 8.92097 6.49754 8.91737 6.3681C8.91018 6.129 8.91557 5.8899 8.91557 5.6508C8.91377 5.44945 8.98389 5.27686 9.12591 5.13484C9.35243 4.90832 9.57715 4.68 9.80726 4.45528C10.2369 4.03461 10.8877 4.02382 11.3138 4.42652C11.4252 4.53259 11.4306 4.65484 11.3228 4.7645C11.1286 4.96046 10.9327 5.15282 10.7403 5.34877C10.6145 5.47821 10.6558 5.66698 10.8194 5.71731C10.9111 5.74608 10.9866 5.71192 11.0531 5.6454C11.2365 5.46023 11.4217 5.27686 11.6068 5.09169C11.7453 4.95326 11.8585 4.95686 11.9897 5.10068C12.3403 5.4854 12.3619 6.09844 12.0149 6.49395C11.765 6.77979 11.4846 7.03867 11.2131 7.30474C11.0855 7.43058 10.9219 7.47373 10.7475 7.47373C10.5012 7.47373 10.2549 7.47732 10.0086 7.47193C9.89535 7.47013 9.81445 7.50609 9.74075 7.59238C8.92636 8.53621 8.11017 9.47644 7.29579 10.4185C7.08365 10.6648 6.87152 10.911 6.65578 11.1537C6.49938 11.3299 6.29983 11.4324 6.06612 11.4666C6.05533 11.4684 6.04454 11.4755 6.03376 11.4791C5.95645 11.4791 5.88095 11.4791 5.80364 11.4791C5.79106 11.4755 5.77668 11.4684 5.76409 11.4666C5.40634 11.4036 5.14746 11.2095 5.00004 10.8769C4.9587 10.7834 4.94252 10.6773 4.91555 10.5767C4.91016 10.5263 4.91016 10.4724 4.91016 10.4203ZM6.17578 10.4257C6.17578 10.307 6.0787 10.2117 5.96185 10.2117C5.84499 10.2135 5.74612 10.3106 5.74791 10.4275C5.74971 10.5443 5.84679 10.6396 5.96544 10.6396C6.0823 10.6396 6.17578 10.5443 6.17578 10.4257Z" fill="white"/>
<path d="M10.7965 11.4824C10.6976 11.4591 10.597 11.4411 10.4999 11.4105C10.259 11.3332 10.0594 11.1948 9.89944 10.9988C9.49854 10.5116 9.09943 10.0226 8.69853 9.53545C8.68954 9.52467 8.68055 9.51388 8.66797 9.4959C8.77044 9.37545 8.87291 9.2568 8.97718 9.13815C9.31696 8.74624 9.65674 8.35433 9.99472 7.95882C10.0415 7.90309 10.0774 7.89769 10.1367 7.94084C10.6527 8.31298 11.1723 8.67972 11.6882 9.05006C12.4684 9.60916 12.4505 10.7328 11.6505 11.2667C11.4833 11.3782 11.2963 11.4447 11.0967 11.4698C11.0788 11.4716 11.059 11.4788 11.041 11.4824C10.9583 11.4824 10.8774 11.4824 10.7965 11.4824Z" fill="white"/>
<path d="M4.91016 4.90832C4.9533 4.85259 4.99106 4.79147 5.0396 4.74113C5.20858 4.56855 5.38117 4.39776 5.55196 4.22877C5.65982 4.1209 5.73533 4.10832 5.87376 4.17843C6.25668 4.37259 6.6396 4.56675 7.02433 4.75911C7.10702 4.80046 7.15736 4.85979 7.18612 4.94788C7.26702 5.20316 7.35332 5.45664 7.43961 5.70833C7.45219 5.74788 7.47736 5.78563 7.50613 5.8144C7.75062 6.06069 7.99691 6.30519 8.2486 6.55687C7.92141 6.84092 7.59601 7.12137 7.26702 7.40542C7.09983 7.23643 6.92725 7.07643 6.77264 6.90204C6.62702 6.74025 6.45983 6.63238 6.24769 6.57845C6.07511 6.5353 5.90791 6.46519 5.73713 6.41305C5.63825 6.38249 5.57353 6.32496 5.52859 6.23328C5.32544 5.82518 5.1169 5.41709 4.91016 5.009C4.91016 4.97484 4.91016 4.94248 4.91016 4.90832Z" fill="white"/>
</g>
<defs>
<clipPath id="clip0_1638_6954">
<rect width="7.36364" height="7.36364" fill="white" transform="translate(4.9082 4.11951)"/>
</clipPath>
</defs>
</svg>
