<?xml version="1.0" encoding="UTF-8"?>
<svg id="Layer_1" data-name="Layer 1" xmlns="http://www.w3.org/2000/svg" viewBox="0 0 543.13 342.26">
  <defs>
    <style>
      .cls-1 {
        fill: #bcc2e3;
      }

      .cls-2 {
        fill: #ffe8b1;
      }

      .cls-3 {
        fill: #425eab;
      }

      .cls-4 {
        opacity: .7;
      }

      .cls-5, .cls-6 {
        fill: #fff;
      }

      .cls-7 {
        fill: #5571b7;
      }

      .cls-8, .cls-6 {
        stroke: #d5d8ed;
        stroke-width: 1.13px;
      }

      .cls-8, .cls-6, .cls-9, .cls-10, .cls-11, .cls-12 {
        stroke-miterlimit: 10;
      }

      .cls-8, .cls-9, .cls-10, .cls-11, .cls-12 {
        fill: none;
      }

      .cls-9 {
        stroke: #a6b0d9;
        stroke-width: 6px;
      }

      .cls-13 {
        fill: #e34073;
      }

      .cls-14 {
        fill: #d4d7ed;
      }

      .cls-15 {
        fill: #ced2ea;
      }

      .cls-16 {
        fill: #ffd668;
      }

      .cls-17 {
        fill: #ea69a8;
      }

      .cls-18 {
        fill: #a6b0d9;
      }

      .cls-19 {
        fill: #d7daee;
      }

      .cls-20 {
        fill: #b1b9de;
      }

      .cls-21 {
        fill: #919dcf;
      }

      .cls-10 {
        stroke: #b1b9de;
        stroke-width: 2.11px;
      }

      .cls-11 {
        stroke: #919dcf;
      }

      .cls-22 {
        fill: #b9c0e1;
      }

      .cls-23 {
        fill: #ffcd39;
      }

      .cls-12 {
        stroke: #fff;
        stroke-width: 9px;
      }

      .cls-24 {
        fill: #ffeab9;
      }

      .cls-25 {
        fill: #e5e7f4;
      }

      .cls-26 {
        fill: #9ca6d4;
      }

      .cls-27 {
        fill: #ffdf8d;
      }

      .cls-28 {
        fill: #dce3f3;
      }

      .cls-29 {
        fill: #e3e5f3;
      }
    </style>
  </defs>
  <g>
    <rect class="cls-25" x="107.85" y="88.1" width="196.6" height="76.69" rx="16.95" ry="16.95" transform="translate(412.29 252.9) rotate(180)"/>
    <g>
      <g>
        <ellipse class="cls-9" cx="258.14" cy="126.45" rx="16.52" ry="16.47"/>
        <path class="cls-12" d="m258.14,142.91c9.13,0,16.52-7.37,16.52-16.47"/>
      </g>
      <g>
        <path class="cls-9" d="m209.32,142.61c8.96-1.75,14.8-10.39,13.05-19.32-1.75-8.92-10.43-14.74-19.39-13s-14.8,10.39-13.05,19.32c1.75,8.92,10.43,14.74,19.39,13Z"/>
        <path class="cls-12" d="m222.36,123.29c-1.75-8.92-10.43-14.74-19.39-13"/>
      </g>
      <g>
        <path class="cls-9" d="m167.59,116.87c-5.31-7.4-15.63-9.11-23.05-3.82-7.42,5.29-9.14,15.57-3.83,22.97,5.31,7.4,15.63,9.11,23.05,3.82,7.42-5.29,9.14-15.57,3.83-22.97Z"/>
        <path class="cls-12" d="m144.54,113.05c-7.42,5.29-9.14,15.57-3.83,22.97"/>
      </g>
    </g>
  </g>
  <path class="cls-16" d="m143.66,73.16c1.65,2.39,3.35,4.62,5.44,6.56l-2.29,11.84,13.98,6.98,8.18-9c2.81.52,5.61.49,8.52.39l6.67,9.54,14.89-4.89-.32-11.62c2.4-1.64,4.76-3.04,6.71-5.12l11.92,2.26,7.09-13.96-8.85-8.21c.52-2.8.84-5.71.74-8.61l10.27-6.87-4.91-14.84-12.36.54c-1.65-2.39-3.75-4.52-5.84-6.46l2.26-11.9-14.02-7.1-8.27,8.75c-2.81-.52-5.78-.99-8.69-.89l-7-10.54-14.89,4.89.66,12.62c-2.4,1.64-4.42,4.04-6.36,6.12l-11.9-2.27-7.04,13.94,8.95,8.18c-.52,2.8-.64,5.64-.54,8.54l-9.88,6.74,4.91,14.84,11.96-.44Zm14.12-16.35c-3.37-10.19,2.19-21.18,12.42-24.54,10.23-3.36,21.25,2.18,24.62,12.37,3.37,10.19-2.19,21.18-12.42,24.54-10.23,3.36-21.25-2.18-24.62-12.37Z"/>
  <path class="cls-2" d="m311.14,62.77c1.18,1.2,2.37,2.3,3.76,3.19l-.11,6.97,8.66,2.58,3.76-5.94c1.65.02,3.24-.28,4.89-.63l4.76,4.77,7.99-4.27-1.35-6.59c1.2-1.18,2.4-2.21,3.3-3.59l7.02.1,2.63-8.66-5.87-3.79c.02-1.65-.1-3.33-.45-4.97l5.16-4.94-4.29-7.96-6.99,1.54c-1.18-1.2-2.59-2.2-3.98-3.1l.09-7-8.7-2.64-3.83,5.81c-1.65-.02-3.39.02-5.04.36l-5.05-5.3-7.99,4.27,1.65,7.12c-1.2,1.18-2.11,2.74-3.01,4.12l-7-.1-2.61,8.64,5.92,3.76c-.02,1.65.2,3.28.55,4.92l-4.95,4.83,4.29,7.96,6.77-1.45Zm6.4-10.72c-2.94-5.47-.88-12.28,4.6-15.21,5.49-2.93,12.32-.88,15.27,4.59,2.94,5.47.88,12.28-4.6,15.21-5.49,2.93-12.32.88-15.27-4.59Z"/>
  <g class="cls-4">
    <g>
      <path class="cls-26" d="m426.35,305.47l61.75-40.26s-32.89,59.79-61.75,40.26Z"/>
      <path class="cls-20" d="m426.35,305.47l61.75-40.26s-68.15,6.09-61.75,40.26Z"/>
    </g>
    <line class="cls-10" x1="403.01" y1="307.47" x2="488.4" y2="299.75"/>
    <g>
      <path class="cls-22" d="m466.29,300.91l76.84-6.92s-59.55,42.28-76.84,6.92Z"/>
      <path class="cls-28" d="m466.29,300.91l76.84-6.92s-65.73-25.91-76.84,6.92Z"/>
    </g>
    <g>
      <path class="cls-22" d="m427.19,305.39l64.96,34.89s-68.43-.3-64.96-34.89Z"/>
      <path class="cls-28" d="m427.19,305.39l64.96,34.89s-37.87-56.79-64.96-34.89Z"/>
    </g>
  </g>
  <g>
    <rect class="cls-14" x="257.38" y="55.99" width="148.24" height="80.5" transform="translate(663 192.48) rotate(180)"/>
    <g>
      <g>
        <polygon class="cls-5" points="372.39 101.62 374.76 102.72 377.14 101.62 377.14 74.15 372.39 74.15 372.39 101.62"/>
        <rect class="cls-18" x="372.39" y="101.62" width="4.75" height="16.7" transform="translate(749.52 219.95) rotate(180)"/>
      </g>
      <g>
        <polygon class="cls-5" points="357.97 88.94 360.34 90.04 362.71 88.94 362.71 74.15 357.97 74.15 357.97 88.94"/>
        <rect class="cls-18" x="357.97" y="88.94" width="4.75" height="29.38" transform="translate(720.68 207.27) rotate(180)"/>
      </g>
      <g>
        <polygon class="cls-5" points="343.55 113.03 345.92 114.13 348.29 113.03 348.29 74.15 343.55 74.15 343.55 113.03"/>
        <rect class="cls-18" x="343.55" y="113.03" width="4.75" height="5.29" transform="translate(691.84 231.36) rotate(180)"/>
      </g>
      <g>
        <polygon class="cls-5" points="329.12 85.14 331.5 86.23 333.87 85.14 333.87 74.15 329.12 74.15 329.12 85.14"/>
        <rect class="cls-18" x="329.12" y="85.14" width="4.75" height="33.19" transform="translate(663 203.46) rotate(180)"/>
      </g>
      <g>
        <polygon class="cls-5" points="314.7 105.43 317.08 106.52 319.45 105.43 319.45 74.15 314.7 74.15 314.7 105.43"/>
        <rect class="cls-18" x="314.7" y="105.43" width="4.75" height="12.9" transform="translate(634.16 223.75) rotate(180)"/>
      </g>
      <g>
        <polygon class="cls-5" points="300.28 92.75 302.66 93.84 305.03 92.75 305.03 74.15 300.28 74.15 300.28 92.75"/>
        <rect class="cls-18" x="300.28" y="92.75" width="4.75" height="25.58" transform="translate(605.31 211.07) rotate(180)"/>
      </g>
      <g>
        <polygon class="cls-5" points="285.86 99.09 288.24 100.18 290.61 99.09 290.61 74.15 285.86 74.15 285.86 99.09"/>
        <rect class="cls-18" x="285.86" y="99.09" width="4.75" height="19.24" transform="translate(576.47 217.41) rotate(180)"/>
      </g>
    </g>
  </g>
  <g>
    <rect class="cls-19" x="20.19" y="31.15" width="156.88" height="85.19" transform="translate(197.25 147.48) rotate(180)"/>
    <rect class="cls-25" x="46.59" y="51.53" width="103.76" height="35.93" transform="translate(196.94 138.99) rotate(180)"/>
    <rect class="cls-5" x="46.59" y="70.8" width="103.76" height="25.16" transform="translate(196.94 166.75) rotate(180)"/>
    <polygon class="cls-18" points="150.35 97.19 128.16 70.95 112.1 81.29 95.91 62.67 88.2 69.16 75 52.1 46.59 97.19 150.35 97.19"/>
    <polyline class="cls-11" points="149.86 50.27 149.86 97.82 46.16 97.82"/>
  </g>
  <g>
    <polygon class="cls-15" points="92.73 342.26 61.48 241.88 29.77 342.26 22.07 342.26 58.19 225.89 64.77 225.89 100.43 342.26 92.73 342.26"/>
    <g>
      <polygon class="cls-20" points="67.79 324.15 95.23 324.15 92.88 316.55 67.79 316.55 67.79 324.15"/>
      <polygon class="cls-20" points="58.88 293.72 85.86 293.72 83.12 284.85 58.88 284.85 58.88 293.72"/>
      <polygon class="cls-20" points="48.7 262.02 76.1 262.02 73.75 254.42 48.7 254.42 48.7 262.02"/>
      <polygon class="cls-28" points="70.66 342.26 39.41 241.88 7.7 342.26 0 342.26 36.12 225.89 42.7 225.89 78.36 342.26 70.66 342.26"/>
    </g>
    <rect class="cls-20" x="28.5" y="222.65" width="44.43" height="8.41" transform="translate(101.43 453.71) rotate(180)"/>
  </g>
  <g>
    <path class="cls-19" d="m196.79,338.67h0c4.81-4.79,4.81-12.56,0-17.36l-69.59-69.35-17.42,17.36,69.59,69.35c4.81,4.79,12.61,4.79,17.42,0Z"/>
    <polygon class="cls-22" points="182.07 306.65 189.87 314.42 172.45 331.77 164.65 324 182.07 306.65"/>
    <polygon class="cls-21" points="161.66 286.31 169.46 294.08 152.04 311.43 144.24 303.66 161.66 286.31"/>
    <ellipse class="cls-22" cx="122.84" cy="264.98" rx="46.9" ry="46.74"/>
    <ellipse class="cls-19" cx="122.84" cy="264.98" rx="39.32" ry="39.18"/>
    <ellipse class="cls-5" cx="122.84" cy="264.98" rx="33.77" ry="33.65"/>
  </g>
  <g>
    <polygon class="cls-23" points="211.57 207.5 211.57 239.2 196.3 239.2 196.3 207.5 190.57 207.5 204.42 190.72 218.26 207.5 211.57 207.5"/>
    <polygon class="cls-27" points="228.11 253.15 228.11 221.45 243.38 221.45 243.38 253.15 249.11 253.15 235.26 269.93 221.42 253.15 228.11 253.15"/>
    <polygon class="cls-24" points="211.57 244.27 211.57 277.24 196.3 277.24 196.3 244.27 190.57 244.27 204.42 227.49 218.26 244.27 211.57 244.27"/>
  </g>
  <g>
    <polyline class="cls-8" points="139.57 259.95 122.98 252.6 124.02 276.94 103.31 263.54"/>
    <path class="cls-6" d="m136,258.86c-.6,1.97.5,4.05,2.48,4.65,1.97.6,4.06-.5,4.67-2.47.61-1.97-.5-4.05-2.48-4.65-1.97-.6-4.06.5-4.67,2.47Z"/>
    <path class="cls-6" d="m118.95,250.32c-.61,1.97.5,4.05,2.48,4.65s4.06-.5,4.67-2.47c.6-1.97-.5-4.05-2.48-4.65s-4.06.5-4.67,2.47Z"/>
    <path class="cls-6" d="m120.39,276.3c-.6,1.97.5,4.05,2.48,4.65,1.97.6,4.06-.5,4.67-2.47.61-1.97-.5-4.05-2.48-4.65-1.97-.6-4.06.5-4.67,2.47Z"/>
    <path class="cls-6" d="m101.05,263.03c-.6,1.97.5,4.05,2.48,4.65,1.97.6,4.06-.5,4.67-2.47.61-1.97-.5-4.05-2.48-4.65-1.97-.6-4.06.5-4.67,2.47Z"/>
  </g>
  <g>
    <path class="cls-1" d="m340.57,278.84h0c0-28.63,23.29-51.83,52.02-51.83h.25c11.44,0,22.01,3.68,30.6,9.91,12.98,9.43-7.08,104.99-42.23,104.99l-76,.36c-13.98,0-25.31-11.29-25.31-25.22h0c0-10.88,7-20.54,17.38-23.95l43.3-14.25Z"/>
    <path class="cls-29" d="m341.36,316.86v.09c0-10.88,7.21-20.49,17.58-23.91l22.28-7.28c11.16-3.65,20.18-12.22,23.78-23.36,3.34-10.32,9.78-19.19,18.44-25.48,12.98,9.43,21,24.68,21,41.91v-.18c0,35.03-28.06,63.25-63.21,63.25h-14.55c-13.98,0-25.3-11.12-25.3-25.05Z"/>
  </g>
  <g>
    <path class="cls-17" d="m294.89,216.48h0c-1.61-.83-2.99-2.05-4-3.54l-1.44-2.11c-.71-1.55-.35-3.38.91-4.54l3.85-3.54-2.93-5.6c-.43-.82-.03-1.84.85-2.14h0c.62-.22,1.31-.02,1.71.5l4.86,6.17.46.49c.91.99,1.68,2.1,2.27,3.31h0c.74,1.51,1.19,3.15,1.34,4.82l.22,2.49-8.1,3.7Z"/>
    <path d="m319.89,334.63l3.75,7.63h-23.61c.72-2.85,3.5-4.69,6.42-4.25l2.83.43c1.97,0,3.31-2,2.55-3.81h8.05Z"/>
    <path d="m299.96,334.63l3.75,7.63h-23.61c.72-2.85,3.5-4.69,6.42-4.25l2.83.43c1.97,0,3.31-2,2.55-3.81h8.05Z"/>
    <path class="cls-3" d="m302.45,335.33l6.09-53.51,23.97-12.1,27.19,14.63,7.61-11.64-29.64,3.28-39.78-8.98c-3.28,1.26-5.64,4.15-6.22,7.6l-3.18,60.72h13.96Z"/>
    <path class="cls-7" d="m312.45,268.3c-2.97,1.56-4.95,4.5-5.27,7.83l1.12,59.2h13.04l4.42-50.49s24.33,5.92,41,5.92c7.32,0,15.37-6.86,15.37-15.32v-2.74l-69.67-4.42Z"/>
    <path class="cls-23" d="m345.18,212h24.83c6.47,0,12.44,3.47,15.64,9.08l18.46,27.68c2.72,4.08,1.13,9.61-3.35,11.64l-25.7,11.63-4.92-11.24,16.93-7.39c1.69-.74,2.24-2.84,1.14-4.31l-6.08-8.1v35.01l-44.02-5.22,3.32-39.41-17.83,16.53c-3.88,3.95-10.51,2.96-13.06-1.95l-16.34-29.49,9.15-5.55,13.19,22.43,15.85-16c3.38-3.41,7.98-5.33,12.79-5.33Z"/>
    <path class="cls-17" d="m339.49,181.61c-.11-6.9,7.2-15.2,16.99-15.2,5.98,0,11.47,3.31,14.62,8.37l.42.67c2.57,4.13,3.23,9.16,1.82,13.81l-4.95,14.56-.34,8.63-2.33,1.51c-3.81,2.47-8.86,1.83-11.94-1.51h0l.33-9.3-6.56-.02c-4.6-.07-8.29-3.8-8.29-8.39v-6.25s.22-6.89.22-6.89Z"/>
    <path class="cls-5" d="m346.38,194.17c0,2.04,1.66,3.69,3.71,3.69s3.7-1.65,3.7-3.69"/>
    <g>
      <path class="cls-17" d="m360.32,276.95h0c.3.93,1.31,1.45,2.25,1.15l7.44-2.4,1.39-4.18-9.92,3.19c-.94.3-1.45,1.3-1.15,2.24Z"/>
      <path class="cls-17" d="m357.62,273.96h0c.3.93,1.3,1.44,2.23,1.15l11.54-3.59-1.1-3.38-11.51,3.58c-.95.29-1.47,1.3-1.17,2.24Z"/>
      <path class="cls-17" d="m358.12,270.19h0c.3.93,1.31,1.45,2.25,1.15l9.92-3.2-1.1-3.38-9.92,3.2c-.94.3-1.45,1.3-1.15,2.24Z"/>
      <path class="cls-17" d="m361.73,265.29h0c.3.93,1.31,1.45,2.25,1.15l5.22-1.68-1.1-3.38-5.22,1.68c-.94.3-1.45,1.3-1.15,2.24Z"/>
    </g>
    <path class="cls-17" d="m366.12,262.01l3.36-1.08,3.36.36,3.13,8.91-.09.19c-1.29,2.79-3.74,4.64-6.67,5.59l.06.26-3.15-14.22Z"/>
    <g>
      <path d="m294.08,271.96h49.48c0-2.73-2.22-4.95-4.97-4.95h-44.51v4.95Z"/>
      <path d="m284.26,271.73h43.42c2.58,0,4.51-2.37,3.97-4.89l-5.97-27.79c-.4-1.87-2.06-3.2-3.97-3.2h-43.42c-2.58,0-4.51,2.37-3.97,4.89l5.97,27.79c.4,1.87,2.06,3.2,3.97,3.2Z"/>
      <path class="cls-5" d="m299.24,253.79c0,2.06,1.68,3.73,3.75,3.73s3.75-1.67,3.75-3.73-1.68-3.73-3.75-3.73-3.75,1.67-3.75,3.73Z"/>
    </g>
    <path d="m369.2,201.47l-4.74-15.6h0c-6.99,0-13.85-1.83-19.9-5.33l-5.3-3.07s0-1.3.87-3.83c3.43-9.89,13.62-14.57,23.44-12.12,9.07,2.26,15.27,10.29,15.39,19.01v6.94c0,6.24-3.9,11.83-9.78,13.99h0Z"/>
    <path class="cls-17" d="m363.41,186.58c-1.33,1.32-1.33,3.47,0,4.79,1.33,1.32,3.48,1.32,4.81,0,1.33-1.32,1.33-3.47,0-4.79-1.33-1.32-3.48-1.32-4.81,0Z"/>
  </g>
  <g>
    <path d="m44.41,297.35l4.59,7.89-25.28,1.75h0c.56-3.11,3.4-5.28,6.56-5.02l3.06.25c2.11-.15,3.4-2.39,2.45-4.27h0l8.62-.6Z"/>
    <path class="cls-13" d="m50.15,194.11l-13.79,27.57-2.31,76.4,12.67-.99,8.28-68.21,4.13-1.49c10.89-3.92,18.14-14.23,18.14-25.76h0l-27.12-7.52Z"/>
    <g>
      <path d="m69.89,264.52l-4.58,6.71,22.53,8.56.07-1.27c.15-3.15-2.13-5.91-5.27-6.36l-3.04-.44c-2.03-.61-2.78-3.08-1.43-4.71h0l-8.27-2.5Z"/>
      <path class="cls-17" d="m43.46,203.76l16.13,7.86c3.98,1.94,6.94,5.49,8.11,9.75l12.69,46.15-12.77-3.01-14.45-35.5-21.77-5.82c-5.61-.78-9.78-5.56-9.78-11.2v-5.64l21.83-2.61Z"/>
    </g>
    <path class="cls-7" d="m8.16,182.66l4.01-27.03c.81-7.8,7.16-13.74,15.01-14.22,3.48-.22,38.49-.22,41.97,0,7.85.49,14.2,6.27,15.01,14.07l4.21,27.27c.51,3.31-.47,6.68-2.67,9.21l-8.43,9.67-3.68-34.52-4.38,28.34H28.5l-4.79-28.34-4.16,34.37-8.58-9.54c-2.27-2.52-3.3-5.92-2.8-9.28Z"/>
    <g>
      <path class="cls-23" d="m72.61,210.66H25.33c-2.35,0-4.32-1.77-4.56-4.1l-3.06-29.38c-.28-2.7,1.84-5.04,4.56-5.04h53.46c2.73,0,4.85,2.35,4.56,5.05l-3.13,29.38c-.25,2.33-2.22,4.09-4.56,4.09Z"/>
      <path class="cls-5" d="m53.02,191.4c0,2.21-1.8,4.01-4.02,4.01s-4.02-1.79-4.02-4.01,1.8-4.01,4.02-4.01,4.02,1.79,4.02,4.01Z"/>
    </g>
    <path class="cls-17" d="m70.25,111.22c.12-7.26-7.58-16-17.89-16-6.29,0-12.07,3.48-15.39,8.81l-.44.71c-2.7,4.35-3.4,9.64-1.91,14.53l5.21,12.85.05,9.14h0c4.34,3.28,10.33,3.31,14.7.08l.11-.08.17-9.84,6.91-.02c4.84-.07,8.73-4,8.73-8.83v-4.1s-.24-7.25-.24-7.25Z"/>
    <path class="cls-5" d="m62.99,121.96c0,2.15-1.75,3.89-3.9,3.89s-3.9-1.74-3.9-3.89"/>
    <path d="m50.15,113.05s13.64,2.54,18.55-7.89c0,0,1.09-6.12-7.45-11.69-3.75-2.45-10.29-3.25-15.26-2.11h0c-11.06,2.75-17.25,14.52-13.18,25.13,1.35,3.53,3.68,9.44,6.28,13.81l2.21-10.61,4.91-2.7.72,2.49,3.18.02.04-6.45Z"/>
    <path class="cls-17" d="m46.28,117.65c0,1.85-1.51,3.36-3.37,3.36s-3.37-1.5-3.37-3.36,1.51-3.36,3.37-3.36,3.37,1.5,3.37,3.36Z"/>
  </g>
</svg>