<svg width="18" height="18" viewBox="0 0 18 18" fill="none" xmlns="http://www.w3.org/2000/svg">
<g clip-path="url(#clip0_1823_2644)">
<path fill-rule="evenodd" clip-rule="evenodd" d="M10.7973 12.7267C10.7856 12.6329 10.7058 12.5625 10.6113 12.5625H7.61129C7.51671 12.5625 7.43695 12.6329 7.42521 12.7267L7.13234 15.0698C7.09716 15.3513 6.85787 15.5625 6.57419 15.5625H5.50562C5.11476 15.5625 4.76777 15.8126 4.64417 16.1834C4.49999 16.6159 4.82189 17.0625 5.27777 17.0625H12.9448C13.4006 17.0625 13.7225 16.6159 13.5784 16.1834C13.4548 15.8126 13.1078 15.5625 12.7169 15.5625H11.6483C11.3647 15.5625 11.1254 15.3513 11.0902 15.0698L10.7973 12.7267Z" fill="white"/>
<path fill-rule="evenodd" clip-rule="evenodd" d="M3.15807 13.5315C4.38019 13.6075 6.32782 13.6875 9.11134 13.6875C11.8948 13.6875 13.8424 13.6075 15.0646 13.5315C16.278 13.456 17.2649 12.5557 17.3798 11.3187C17.4678 10.3716 17.5488 8.99254 17.5488 7.125C17.5488 5.25746 17.4678 3.8784 17.3798 2.93128C17.2649 1.69427 16.2781 0.793942 15.0646 0.718492C13.8424 0.642502 11.8948 0.5625 9.11134 0.5625C6.32782 0.5625 4.38019 0.642502 3.15807 0.718489C1.9446 0.793939 0.957812 1.69427 0.842863 2.93128C0.754854 3.8784 0.673828 5.25746 0.673828 7.125C0.673828 8.99254 0.754854 10.3716 0.842863 11.3187C0.957808 12.5557 1.94459 13.456 3.15807 13.5315Z" fill="white"/>
<g clip-path="url(#clip1_1823_2644)">
<path d="M4.91016 9.5737C4.93532 9.42269 4.9587 9.26808 5.04679 9.14044C5.12769 9.02359 5.21398 8.90494 5.32005 8.81325C6.46882 7.81369 7.62298 6.81773 8.77714 5.82357C8.87422 5.74087 8.92097 5.65098 8.91737 5.52155C8.91018 5.28244 8.91557 5.04334 8.91557 4.80424C8.91377 4.60289 8.98389 4.4303 9.12591 4.28828C9.35243 4.06176 9.57715 3.83345 9.80726 3.60873C10.2369 3.18805 10.8877 3.17726 11.3138 3.57996C11.4252 3.68603 11.4306 3.80828 11.3228 3.91794C11.1286 4.1139 10.9327 4.30626 10.7403 4.50221C10.6145 4.63165 10.6558 4.82042 10.8194 4.87076C10.9111 4.89952 10.9866 4.86536 11.0531 4.79885C11.2365 4.61368 11.4217 4.4303 11.6068 4.24513C11.7453 4.10671 11.8585 4.1103 11.9897 4.25412C12.3403 4.63884 12.3619 5.25188 12.0149 5.64739C11.765 5.93323 11.4846 6.19211 11.2131 6.45818C11.0855 6.58402 10.9219 6.62717 10.7475 6.62717C10.5012 6.62717 10.2549 6.63077 10.0086 6.62537C9.89535 6.62357 9.81445 6.65953 9.74075 6.74582C8.92636 7.68965 8.11017 8.62988 7.29579 9.57191C7.08365 9.8182 6.87152 10.0645 6.65578 10.3072C6.49938 10.4834 6.29983 10.5858 6.06612 10.62C6.05533 10.6218 6.04454 10.629 6.03376 10.6326C5.95645 10.6326 5.88095 10.6326 5.80364 10.6326C5.79106 10.629 5.77668 10.6218 5.76409 10.62C5.40634 10.5571 5.14746 10.3629 5.00004 10.0303C4.9587 9.93685 4.94252 9.83078 4.91555 9.73011C4.91016 9.67977 4.91016 9.62584 4.91016 9.5737ZM6.17578 9.5791C6.17578 9.46044 6.0787 9.36516 5.96185 9.36516C5.84499 9.36696 5.74612 9.46404 5.74791 9.58089C5.74971 9.69775 5.84679 9.79303 5.96544 9.79303C6.0823 9.79303 6.17578 9.69775 6.17578 9.5791Z" fill="#0957CB"/>
<path d="M10.7965 10.6359C10.6976 10.6125 10.597 10.5945 10.4999 10.564C10.259 10.4867 10.0594 10.3482 9.89944 10.1523C9.49854 9.66508 9.09943 9.17609 8.69853 8.6889C8.68954 8.67811 8.68055 8.66732 8.66797 8.64935C8.77044 8.5289 8.87291 8.41024 8.97718 8.29159C9.31696 7.89968 9.65674 7.50777 9.99472 7.11226C10.0415 7.05653 10.0774 7.05114 10.1367 7.09428C10.6527 7.46642 11.1723 7.83316 11.6882 8.2035C12.4684 8.76261 12.4505 9.88621 11.6505 10.4201C11.4833 10.5316 11.2963 10.5981 11.0967 10.6233C11.0788 10.6251 11.059 10.6323 11.041 10.6359C10.9583 10.6359 10.8774 10.6359 10.7965 10.6359Z" fill="#0957CB"/>
<path d="M4.91016 4.06177C4.9533 4.00604 4.99106 3.94491 5.0396 3.89458C5.20858 3.72199 5.38117 3.5512 5.55196 3.38221C5.65982 3.27435 5.73533 3.26176 5.87376 3.33188C6.25668 3.52603 6.6396 3.72019 7.02433 3.91255C7.10702 3.9539 7.15736 4.01323 7.18612 4.10132C7.26702 4.3566 7.35332 4.61008 7.43961 4.86177C7.45219 4.90132 7.47736 4.93908 7.50613 4.96784C7.75062 5.21413 7.99691 5.45863 8.2486 5.71032C7.92141 5.99436 7.59601 6.27481 7.26702 6.55886C7.09983 6.38987 6.92725 6.22987 6.77264 6.05549C6.62702 5.89369 6.45983 5.78582 6.24769 5.73189C6.07511 5.68874 5.90791 5.61863 5.73713 5.56649C5.63825 5.53593 5.57353 5.4784 5.52859 5.38672C5.32544 4.97863 5.1169 4.57053 4.91016 4.16244C4.91016 4.12828 4.91016 4.09592 4.91016 4.06177Z" fill="#0957CB"/>
</g>
</g>
<defs>
<clipPath id="clip0_1823_2644">
<rect width="18" height="18" fill="white"/>
</clipPath>
<clipPath id="clip1_1823_2644">
<rect width="7.36364" height="7.36364" fill="white" transform="translate(4.9082 3.27295)"/>
</clipPath>
</defs>
</svg>
