<svg width="76" height="76" viewBox="0 0 76 76" fill="none" xmlns="http://www.w3.org/2000/svg">
<rect width="76" height="76" rx="10" fill="white"/>
<path d="M49.0362 47.416L52.1233 65.6409C52.2386 66.2808 51.739 66.7928 51.3163 66.46L50.1891 65.5641L49.6254 65.1162L44.271 60.8799L40.838 67.9574L40.4793 68.7125L39.7492 70.21C39.4802 70.7603 38.8781 70.6067 38.7629 69.9668L37.405 61.9806L37.1616 60.5344L35.791 52.4458" fill="#F34522"/>
<path d="M44.7949 36.614L49.6242 65.1288L50.1878 65.564L45.2561 36.4604" fill="#FFEB4A"/>
<path d="M35.5469 39.5963L40.4786 68.7127L40.8501 67.9576L36.008 39.4556" fill="#FFEB4A"/>
<path opacity="0.78" d="M39.2365 51.2554L37.6609 60.5214L37.4175 61.9676L37.1741 60.5214L35.6113 51.2682" fill="#D73E16"/>
<path d="M38.544 52.4458L37.1733 60.5216L35.5721 69.9412C35.4696 70.5811 34.8548 70.7347 34.5858 70.1844L33.8556 68.687L33.497 67.9447L30.064 60.8672L24.7224 65.129L24.1587 65.577L23.0315 66.4728C22.6216 66.8056 22.122 66.2937 22.2245 65.6538L25.3244 47.3521" fill="#F34522"/>
<path d="M29.553 36.614L24.7238 65.1288L24.1602 65.564L29.0919 36.4604" fill="#FFEB4A"/>
<path d="M38.8001 39.5963L33.8684 68.7127L33.5098 67.9576L38.339 39.4556" fill="#FFEB4A"/>
<path d="M58.2966 36.5752C58.5784 37.2408 58.7449 37.8935 58.5784 38.495C58.4247 39.0709 57.9892 39.5317 57.4383 39.9412C56.8235 40.4148 56.5032 41.1699 56.6057 41.9378C56.6954 42.6033 56.6826 43.2176 56.388 43.7167C56.0805 44.2543 55.4913 44.5998 54.8124 44.8558C54.0822 45.1374 53.557 45.8157 53.4674 46.5964C53.3905 47.3131 53.2112 47.953 52.7756 48.3882C52.3529 48.7977 51.7637 48.9769 51.0848 49.0665C50.3162 49.1561 49.6501 49.668 49.3555 50.3847C49.0993 51.0118 48.7662 51.5366 48.2666 51.8309C47.7286 52.1381 47.0625 52.1381 46.3452 52.0357C45.5638 51.9205 44.7824 52.2405 44.3085 52.8676C43.8729 53.4563 43.399 53.9171 42.7969 54.0834C42.2333 54.237 41.6312 54.0834 41.0164 53.8275C40.3119 53.5203 39.4792 53.6227 38.8644 54.0962C38.3264 54.5186 37.7627 54.8001 37.1607 54.8001C36.533 54.8001 35.9438 54.4802 35.3801 54.0322C34.7781 53.5459 33.9455 53.4435 33.2281 53.7379C32.562 54.0194 31.9087 54.1858 31.3067 54.0194C30.7302 53.8659 30.2691 53.4307 29.8592 52.8804C29.398 52.2661 28.6295 51.9461 27.8609 52.0485C27.1948 52.1381 26.5799 52.1125 26.0803 51.8309C25.7345 51.6389 25.4783 51.3318 25.2733 50.9606C25.1452 50.7431 25.0428 50.5127 24.9403 50.2567C24.6585 49.5272 23.9796 49.0025 23.1982 48.9129C22.4808 48.8361 21.8403 48.6569 21.4048 48.209C20.9949 47.7866 20.8156 47.1979 20.7387 46.5196C20.6747 45.9693 20.4057 45.4829 19.9958 45.1374C19.8292 44.9966 19.6371 44.8814 19.4193 44.7918C18.7917 44.5358 18.2665 44.2031 17.9718 43.7039C17.6644 43.1664 17.6644 42.5009 17.7669 41.7842C17.8822 41.0035 17.5619 40.2228 16.9343 39.7492C16.345 39.3141 15.8839 38.8406 15.7173 38.2262C15.5764 37.6631 15.7173 37.0744 15.9735 36.4473C16.281 35.7305 16.1785 34.9114 15.7045 34.2971C15.2946 33.7596 15 33.1965 15 32.5949C15 31.9678 15.3202 31.3791 15.7814 30.816C16.2682 30.2016 16.3706 29.3825 16.076 28.6658C15.7942 28.0003 15.6277 27.3476 15.7942 26.7461C15.9479 26.1701 16.3834 25.7094 16.9343 25.2999C17.5491 24.8263 17.8694 24.0712 17.7669 23.3033C17.6772 22.6378 17.69 22.0235 17.9846 21.5243C18.2921 20.9868 18.8813 20.6412 19.5602 20.3853C20.2904 20.1037 20.8156 19.4254 20.9052 18.6447C20.9821 17.928 21.1614 17.2881 21.597 16.8529C22.0197 16.4434 22.6089 16.2642 23.2878 16.1746C24.0564 16.085 24.7225 15.5731 25.0171 14.8564C25.2733 14.2292 25.6064 13.7045 26.106 13.4101C26.644 13.103 27.3101 13.103 28.0274 13.2054C28.8088 13.3206 29.5902 13.0006 30.0641 12.3735C30.4997 11.7847 30.9736 11.324 31.5757 11.1576C32.1393 11.004 32.7414 11.1576 33.3562 11.4136C34.0607 11.7208 34.8934 11.6184 35.5082 11.1448C36.0462 10.7225 36.6099 10.4409 37.2119 10.4409C37.8396 10.4409 38.4288 10.7609 38.9925 11.2088C39.1077 11.2984 39.223 11.3752 39.3511 11.4392C39.9019 11.7208 40.5552 11.7464 41.1445 11.5032C41.8106 11.2216 42.4639 11.0552 43.0659 11.2216C43.6424 11.3752 44.1035 11.8103 44.5134 12.3607C44.9746 12.975 45.7431 13.295 46.5117 13.1926C47.1522 13.103 47.7414 13.1158 48.2282 13.3717C48.2538 13.3845 48.2794 13.3973 48.3051 13.4101C48.8431 13.7173 49.1889 14.306 49.4451 14.9843C49.7269 15.7139 50.4058 16.2386 51.1872 16.3282C51.9046 16.405 52.5451 16.5841 52.9806 17.0321C53.3905 17.4544 53.5698 18.0432 53.6467 18.7215C53.7364 19.4894 54.2487 20.1549 54.9661 20.4493C55.5938 20.7052 56.1189 21.038 56.4136 21.5371C56.721 22.0747 56.721 22.7402 56.6185 23.4569C56.5032 24.2376 56.8235 25.0183 57.4512 25.4918C58.0404 25.927 58.5015 26.4005 58.6681 27.0148C58.809 27.578 58.6681 28.1667 58.4119 28.7938C58.1044 29.5105 58.2069 30.3296 58.6809 30.9439C59.0908 31.4815 59.3854 32.0446 59.3854 32.6461C59.3854 33.2733 59.0652 33.862 58.604 34.4251C58.1044 35.0394 57.9892 35.8713 58.2966 36.5752Z" fill="#E1E1E3"/>
<path d="M57.0933 35.6285C57.1573 35.1166 56.9652 34.5918 56.6705 34.0927C56.3375 33.5168 56.3375 32.8 56.6834 32.2113C56.978 31.7122 57.1701 31.213 57.1061 30.7139C57.042 30.1764 56.6834 29.7156 56.235 29.2677C55.7482 28.7942 55.5561 28.0774 55.7483 27.4247C55.9276 26.8232 56.0044 26.2473 55.7995 25.7609C55.6073 25.2874 55.1846 24.9418 54.6722 24.6603C54.083 24.3275 53.7243 23.7004 53.7371 23.0221C53.7371 22.4334 53.6603 21.9086 53.3528 21.4991C53.0326 21.0767 52.4946 20.8464 51.8926 20.6928C51.2264 20.5264 50.7013 20.0017 50.5475 19.3361C50.3938 18.7218 50.1761 18.1843 49.7405 17.8515C49.3434 17.5444 48.8182 17.4548 48.229 17.4676C47.5629 17.4676 46.9352 17.1092 46.6022 16.5333C46.3075 16.0214 45.9617 15.599 45.4749 15.3942C44.9753 15.1767 44.3861 15.2407 43.784 15.4198C43.1308 15.599 42.439 15.407 41.9651 14.9335C41.5295 14.4855 41.0556 14.14 40.5176 14.0632C40.0052 13.9992 39.48 14.1912 38.9804 14.4855C38.404 14.8183 37.6867 14.8183 37.0974 14.4727C36.5978 14.1784 36.0983 13.9864 35.5987 14.0504C35.0607 14.1144 34.5995 14.4727 34.1512 14.9207C33.6772 15.407 32.9599 15.599 32.3066 15.407C31.7046 15.2279 31.1281 15.1511 30.6414 15.3558C30.1674 15.5478 29.8215 15.9702 29.5397 16.4821C29.2067 17.0708 28.579 17.4292 27.9001 17.4164C27.3108 17.4164 26.7857 17.4932 26.3757 17.8003C25.953 18.1203 25.7225 18.6578 25.5687 19.2593C25.4022 19.9249 24.877 20.4496 24.2109 20.6032C23.596 20.7568 23.058 20.9743 22.725 21.4095C22.4176 21.8062 22.3279 22.331 22.3407 22.9197C22.3407 23.5852 21.982 24.2123 21.4056 24.5451C20.8932 24.8394 20.4705 25.185 20.2655 25.6713C20.0478 26.1705 20.1118 26.7592 20.2912 27.3607C20.4705 28.0134 20.2784 28.7046 19.8044 29.1781C19.3561 29.6133 19.0102 30.0868 18.9333 30.6243C18.8693 31.1363 19.0614 31.661 19.3561 32.1601C19.6891 32.7361 19.6891 33.4528 19.3432 34.0415C19.0486 34.5406 18.8565 35.0398 18.9205 35.5389C18.9846 36.0764 19.3432 36.5372 19.7916 36.9851C20.2784 37.4587 20.4705 38.1754 20.2784 38.8281C20.099 39.4296 20.0222 40.0055 20.2271 40.4919C20.4193 40.9654 20.842 41.311 21.3544 41.5925C21.9436 41.9253 22.3023 42.5524 22.2895 43.2307C22.2895 43.8195 22.3663 44.3442 22.6738 44.7537C22.994 45.1761 23.532 45.4065 24.1341 45.56C24.8002 45.7264 25.3254 46.2512 25.4791 46.9167C25.6328 47.531 25.8505 48.0685 26.2861 48.4013C26.6832 48.7085 27.2084 48.798 27.7976 48.7852C28.4637 48.7852 29.0914 49.1436 29.4244 49.7195C29.7191 50.2315 30.0649 50.6538 30.5517 50.8586C31.0513 51.0762 31.6405 51.0122 32.2426 50.833C32.8958 50.6538 33.5876 50.8458 34.0615 51.3193C34.4971 51.7673 34.971 52.1128 35.509 52.1896C36.0214 52.2536 36.5466 52.0616 37.0462 51.7673C37.6226 51.4345 38.3399 51.4345 38.9292 51.7801C39.4288 52.0744 39.9283 52.2664 40.4279 52.2024C40.9659 52.1384 41.4271 51.7801 41.8754 51.3321C42.3494 50.8458 43.0667 50.6538 43.72 50.8458C44.3221 51.025 44.8985 51.1018 45.3853 50.897C45.8592 50.705 46.2051 50.2827 46.4869 49.7707C46.8199 49.182 47.4476 48.8236 48.1265 48.8364C48.7158 48.8364 49.241 48.7596 49.6509 48.4525C50.0736 48.1325 50.3042 47.595 50.4579 46.9935C50.6244 46.3279 51.1496 45.8032 51.8157 45.6496C52.4306 45.4961 52.9686 45.2785 53.3016 44.8433C53.609 44.4466 53.6987 43.9219 53.6859 43.3331C53.6859 42.6676 54.0446 42.0405 54.621 41.7077C55.1334 41.4134 55.5561 41.0678 55.7611 40.5815C55.9788 40.0823 55.9148 39.4936 55.7354 38.8921C55.5561 38.2394 55.7482 37.5483 56.2222 37.0747C56.6705 36.6268 57.0164 36.166 57.0933 35.6285Z" fill="#B3B2B8"/>
<path opacity="0.12" d="M55.8368 33.6062C56.1314 34.1181 56.3236 34.63 56.2595 35.142C56.1826 35.6795 55.8368 36.153 55.3885 36.5882C54.9017 37.0617 54.7095 37.7528 54.9017 38.4055C55.0682 39.0071 55.1323 39.583 54.9273 40.0949C54.7223 40.5813 54.2996 40.9268 53.7872 41.2212C53.198 41.554 52.8393 42.1811 52.8521 42.8466C52.8521 43.4225 52.7625 43.9601 52.4679 44.3568C52.1348 44.7919 51.5968 45.0095 50.9819 45.1631C50.3158 45.3295 49.7906 45.8414 49.6241 46.5069C49.4704 47.1213 49.2526 47.646 48.8171 47.9659C48.4072 48.2731 47.882 48.3627 47.2928 48.3499C46.6138 48.3499 45.999 48.7083 45.6531 49.2842C45.3585 49.7961 45.0255 50.2057 44.5515 50.4104C44.0519 50.6152 43.4883 50.5384 42.8862 50.3592C42.233 50.1673 41.5156 50.3592 41.0417 50.8456C40.6061 51.2935 40.1322 51.6519 39.5942 51.7159C39.0946 51.7799 38.595 51.5879 38.0954 51.2935C37.519 50.948 36.8017 50.948 36.2124 51.2807C35.7 51.5751 35.1876 51.7671 34.6753 51.7031C34.1373 51.6263 33.6633 51.2807 33.2278 50.8328C32.7538 50.3464 32.0621 50.1545 31.4088 50.3465C30.8067 50.5128 30.2303 50.5768 29.7179 50.372C29.2312 50.1673 28.8853 49.7449 28.5907 49.233C28.2576 48.6571 27.6428 48.2987 26.9639 48.2987C26.3746 48.2987 25.8494 48.2091 25.4523 47.9148C25.0296 47.582 24.799 47.0445 24.6453 46.4301C24.5556 46.0462 24.3379 45.7134 24.0561 45.4703C23.8383 45.2911 23.5821 45.1503 23.3003 45.0735C22.6854 44.9199 22.1602 44.7024 21.84 44.2672C21.5326 43.8577 21.4429 43.3329 21.4557 42.7442C21.4557 42.6802 21.4557 42.6162 21.4429 42.5522C21.3917 41.9507 21.0458 41.4132 20.5078 41.1188C19.9954 40.8244 19.5855 40.4789 19.3805 40.0181C19.1756 39.5318 19.2525 38.9559 19.419 38.3544C19.6111 37.7016 19.419 36.9849 18.9322 36.5114C18.4839 36.0762 18.1252 35.6027 18.0612 35.0652C17.9971 34.566 18.1893 34.0669 18.4839 33.5678C18.8297 32.9918 18.8297 32.2751 18.4967 31.6992C18.2021 31.1873 18.0099 30.6753 18.074 30.1634C18.1508 29.6259 18.4967 29.1523 18.945 28.7172C19.4318 28.2436 19.6239 27.5525 19.4318 26.8998C19.2653 26.2983 19.2012 25.7223 19.4062 25.2104C19.6111 24.7241 20.0338 24.3785 20.5462 24.0841C21.1227 23.7514 21.4941 23.1243 21.4813 22.4588C21.4813 21.8828 21.571 21.3453 21.8656 20.9485C22.1987 20.5134 22.7367 20.2958 23.3515 20.1422C24.0176 19.9759 24.5428 19.4639 24.7094 18.7984C24.8631 18.1841 25.0936 17.6594 25.5164 17.3394C25.9263 17.0322 26.4515 16.9426 27.0407 16.9554C27.7196 16.9554 28.3345 16.5971 28.6803 16.0212C28.975 15.5092 29.308 15.0997 29.782 14.8949C30.2816 14.6901 30.8452 14.7669 31.4472 14.9461C32.1005 15.1381 32.8179 14.9461 33.2918 14.4598C33.7273 14.0118 34.2013 13.6535 34.7393 13.5895C35.2389 13.5255 35.7385 13.7174 36.238 14.0118C36.6864 14.2806 37.2244 14.3318 37.7111 14.191C37.8521 14.1526 37.993 14.0886 38.1211 14.0118C38.6334 13.7174 39.1458 13.5255 39.6582 13.5895C40.1578 13.6535 40.5805 13.9478 40.9904 14.3446C41.0288 14.383 41.0673 14.4214 41.1057 14.4598C41.5797 14.9461 42.2714 15.1381 42.9247 14.9461C43.5267 14.7797 44.1032 14.7157 44.6155 14.9205C45.1023 15.1253 45.4482 15.5476 45.7428 16.0596C46.0758 16.6355 46.6907 17.0066 47.3696 16.9938C47.9589 16.9938 48.4841 17.0834 48.8812 17.3778C49.3039 17.7105 49.5344 18.2481 49.6882 18.8624C49.8547 19.5279 50.3671 20.0527 51.0332 20.219C51.648 20.3726 52.1732 20.5902 52.4935 21.0253C52.8009 21.4349 52.8906 21.9596 52.8778 22.5483C52.8649 23.2267 53.2364 23.841 53.8129 24.1865C54.3252 24.4809 54.7352 24.8265 54.9401 25.2872C55.1451 25.7735 55.0682 26.3495 54.9017 26.951C54.7095 27.6037 54.9017 28.3204 55.3885 28.794C55.8368 29.2291 56.1955 29.7026 56.2595 30.2402C56.3236 30.7393 56.1314 31.2384 55.8368 31.7376C55.5037 32.3135 55.5037 33.0302 55.8368 33.6062Z" fill="white"/>
<path d="M37.1737 47.1725C45.2033 47.1725 51.7127 40.6689 51.7127 32.6463C51.7127 24.6237 45.2033 18.1201 37.1737 18.1201C29.1441 18.1201 22.6348 24.6237 22.6348 32.6463C22.6348 40.6689 29.1441 47.1725 37.1737 47.1725Z" fill="#E1E1E3"/>
<path d="M46.9155 42.4675C52.083 37.3046 52.083 28.9337 46.9155 23.7708C41.748 18.6078 33.3698 18.6078 28.2023 23.7708C23.0348 28.9337 23.0348 37.3046 28.2023 42.4675C33.3698 47.6305 41.748 47.6305 46.9155 42.4675Z" fill="#A3939A"/>
<path d="M50.4061 32.6461C50.4061 39.954 44.4753 45.8669 37.1738 45.8669C36.2002 45.8669 35.2651 45.7645 34.3556 45.5597C33.4718 45.3677 32.6263 45.0862 31.8193 44.7278C31.3838 44.5358 30.9483 44.3183 30.5384 44.0751C30.2181 43.8959 29.9107 43.7039 29.6161 43.4864C29.1293 43.1536 28.6682 42.7825 28.2326 42.3729C28.143 42.2961 28.0661 42.2193 27.9764 42.1297C27.7971 41.9506 27.6178 41.7714 27.4512 41.5922C27.1438 41.2595 26.8492 40.9011 26.5674 40.5427C25.9141 39.6725 25.3633 38.7254 24.9534 37.7015C24.8381 37.4327 24.7356 37.1512 24.6459 36.8824C24.1976 35.5514 23.9414 34.118 23.9414 32.6333C23.9414 26.2469 28.476 20.91 34.5094 19.6814C34.7656 19.6302 35.0217 19.579 35.2779 19.5534C35.4829 19.5278 35.675 19.5022 35.88 19.4766C36.3027 19.4382 36.7382 19.4126 37.1738 19.4126C37.5068 19.4126 37.8271 19.4254 38.1473 19.451C38.4932 19.4766 38.8262 19.515 39.1593 19.5662C39.5564 19.6302 39.9406 19.707 40.3249 19.7965C40.3634 19.8093 40.4018 19.8093 40.4402 19.8221C40.8117 19.9245 41.1832 20.0269 41.5547 20.1549C42.0286 20.3213 42.5026 20.5133 42.9509 20.7308C43.3608 20.9228 43.7579 21.1404 44.1422 21.3835C47.8954 23.7257 50.4061 27.8979 50.4061 32.6461Z" fill="#B3B2B8"/>
<path opacity="0.2" d="M40.2353 29.4336L38.6597 31.0846L37.1738 28.0641V23.252L40.2353 29.4336Z" fill="white"/>
<path d="M37.1737 23.252V28.0641L35.6878 31.0846L34.125 29.4336L37.1737 23.252Z" fill="#A3939A"/>
<path opacity="0.2" d="M35.6883 31.0846L32.3578 31.5709L27.2852 30.4319L34.1255 29.4336L35.6883 31.0846Z" fill="white"/>
<path d="M34.766 33.9128L32.2297 35.2438L27.2852 30.4316L32.3578 31.5707L34.766 33.9128Z" fill="#A3939A"/>
<path opacity="0.2" d="M34.7664 33.9131L34.19 37.2279L31.0645 42.0401L32.2301 35.2441L34.7664 33.9131Z" fill="white"/>
<path d="M37.1747 35.6665V38.8277L31.0645 42.0401L34.19 37.2279L37.1747 35.6665Z" fill="#A3939A"/>
<path opacity="0.2" d="M43.284 42.0401L37.1738 38.8277V35.6665L40.1585 37.2279L43.284 42.0401Z" fill="white"/>
<path d="M43.284 42.0401L40.1585 37.2279L39.582 33.9131L42.1183 35.2441L43.284 42.0401Z" fill="#A3939A"/>
<path opacity="0.2" d="M47.0629 30.4316L42.1183 35.2438L39.582 33.9128L41.9902 31.5707L47.0629 30.4316Z" fill="white"/>
<path d="M47.0633 30.4319L41.9907 31.5709L38.6602 31.0846L40.2357 29.4336L47.0633 30.4319Z" fill="#A3939A"/>
<path d="M39.5821 33.9133L40.1585 37.2281L37.1738 35.6667L34.1892 37.2281L34.7656 33.9133L32.3574 31.5712L35.6879 31.0849L37.1738 28.0645L38.6598 31.0849L41.9903 31.5712L39.5821 33.9133Z" fill="#E1E1E3"/>
<path d="M59.989 6.38395C60.2324 6.38395 60.2324 6 59.989 6C59.7328 6 59.7328 6.38395 59.989 6.38395Z" fill="#E1E1E3"/>
</svg>
