<svg width="29" height="29" viewBox="0 0 29 29" fill="none" xmlns="http://www.w3.org/2000/svg">
<path d="M1 13.15C1 19.225 7.75 24.625 14.5 24.625V28C19 26.2 28 20.575 28 13.15C28 6.43974 21.9558 1 14.5 1C7.04416 1 1 6.43974 1 13.15Z" fill="#080E80" stroke="#080E80" stroke-linejoin="round"/>
<path d="M9.77461 13.15C9.77461 14.2684 8.86799 15.175 7.74961 15.175C6.63123 15.175 5.72461 14.2684 5.72461 13.15C5.72461 12.0316 6.63123 11.125 7.74961 11.125C8.86799 11.125 9.77461 12.0316 9.77461 13.15Z" fill="#8FBFFA"/>
<path d="M16.5246 13.15C16.5246 14.2684 15.618 15.175 14.4996 15.175C13.3812 15.175 12.4746 14.2684 12.4746 13.15C12.4746 12.0316 13.3812 11.125 14.4996 11.125C15.618 11.125 16.5246 12.0316 16.5246 13.15Z" fill="#8FBFFA"/>
<path d="M23.2746 13.15C23.2746 14.2684 22.368 15.175 21.2496 15.175C20.1312 15.175 19.2246 14.2684 19.2246 13.15C19.2246 12.0316 20.1312 11.125 21.2496 11.125C22.368 11.125 23.2746 12.0316 23.2746 13.15Z" fill="#8FBFFA"/>
</svg>
