<svg id="Layer_1" data-name="Layer 1" xmlns="http://www.w3.org/2000/svg" viewBox="0 0 120 120"><defs><style>.cls-1{fill:none;stroke:#231f20;stroke-linecap:round;stroke-miterlimit:10;}.cls-2{fill:#9b8ff9;}</style></defs><title>Artboard 5 copy</title><line class="cls-1" x1="88.53" y1="38.94" x2="102.75" y2="38.94"/><line class="cls-1" x1="47.36" y1="100.37" x2="61.59" y2="100.37"/><line class="cls-1" x1="81.42" y1="28.64" x2="84.95" y2="28.64"/><line class="cls-1" x1="59.82" y1="38.94" x2="63.36" y2="38.94"/><line class="cls-1" x1="52.71" y1="28.64" x2="56.25" y2="28.64"/><line class="cls-1" x1="34.32" y1="103.69" x2="37.86" y2="103.69"/><line class="cls-1" x1="10.72" y1="100.37" x2="20.07" y2="100.37"/><line class="cls-1" x1="99.88" y1="92.88" x2="109.23" y2="92.88"/><line class="cls-1" x1="93.41" y1="23.3" x2="102.75" y2="23.3"/><rect class="cls-2" x="67.38" y="50.21" width="37.17" height="16"/><path class="cls-2" d="M36.24,52H24.42a5.88,5.88,0,0,0-5.86,5.87V92.88H36.24Z"/><path class="cls-2" d="M32.1,39.15a4,4,0,1,1,4-4A4,4,0,0,1,32.1,39.15Z"/><path class="cls-1" d="M15.39,92.88V54.18a5.55,5.55,0,0,1,5.54-5.54H40.81a5.56,5.56,0,0,1,5.54,5.54v38.7"/><path class="cls-1" d="M38.72,35.14a7.87,7.87,0,1,1-7.87-7.87A7.88,7.88,0,0,1,38.72,35.14Z"/><polyline class="cls-1" points="23.14 48.64 30.85 61.08 38.95 48.64"/><polyline class="cls-1" points="56.69 51.6 56.69 47.12 109.13 47.12 109.13 81.3 56.69 81.3 56.69 72.82"/><line class="cls-1" x1="80.75" y1="81.76" x2="70.76" y2="100.37"/><line class="cls-1" x1="82.9" y1="81.76" x2="92.89" y2="100.37"/><line class="cls-1" x1="81.71" y1="81.98" x2="81.71" y2="99.8"/><polyline class="cls-1" points="43.15 49.13 65.8 60 64.12 63.63 46.35 57.81"/><line class="cls-1" x1="65.8" y1="60.41" x2="85.97" y2="56.01"/><line class="cls-1" x1="30.85" y1="67.91" x2="30.85" y2="92.88"/></svg>