<svg width="100" height="100" viewBox="0 0 100 100" fill="none" xmlns="http://www.w3.org/2000/svg">
<rect x="0.189453" width="99.6208" height="99.6208" rx="16" fill="#D9D9D9"/>
<mask id="mask0_1565_3873" style="mask-type:luminance" maskUnits="userSpaceOnUse" x="12" y="6" width="75" height="87">
<path d="M19.7442 16.0765C5.18796 24.9605 15.9368 83.2629 24.225 87.9251C32.5132 92.5872 65.3294 94.8405 76.9847 87.5884C88.64 80.3362 90.7121 32.6789 78.2797 18.1745C65.8474 3.67011 40.9827 3.12619 19.7442 16.0765Z" fill="white"/>
</mask>
<g mask="url(#mask0_1565_3873)">
<path d="M69.8891 50.6277C69.6323 50.9102 69.3499 51.0145 69.0674 50.9656C69.0627 50.9648 69.0583 50.9646 69.0535 50.9638C69.0117 50.9572 68.9808 50.9716 68.9784 51.0138C68.9385 51.7119 68.8846 52.4091 68.8274 53.0838C68.7981 53.4295 69.0242 53.7617 69.3711 53.7617C69.397 53.7617 69.4229 53.7617 69.4747 53.7617C71.8317 53.7617 73.826 51.0939 73.9037 47.8045C73.96 45.5804 71.7014 45.9533 71.048 48.08C70.6769 49.2878 70.283 50.186 69.8891 50.6277Z" fill="#FFDDAA"/>
<path d="M29.6882 52.8428C29.6441 52.5626 29.4556 52.3452 29.2598 52.1401C28.605 51.4546 27.9467 49.8248 27.3733 47.8877C26.767 45.8396 24.4898 45.4621 24.4321 47.5972C24.3803 49.229 24.7947 50.783 25.5976 51.9744C26.3746 53.1141 27.4624 53.7875 28.6021 53.8134C28.628 53.8134 28.6539 53.8134 28.7057 53.8134C28.8137 53.8134 28.9217 53.8065 29.0297 53.7941C29.4774 53.7426 29.7583 53.2879 29.6882 52.8428Z" fill="#FFDDAA"/>
<path d="M48.4053 71.3285C49.3559 71.7609 50.4304 71.7628 51.3798 71.328C53.0652 70.5562 55.1386 69.1683 55.9858 68.5824C56.1766 68.4504 56.2806 68.2377 56.272 68.0058C56.2561 67.5751 55.8424 67.2737 55.4264 67.3865C53.4558 67.9205 51.3574 68.2402 49.2191 68.2402C47.6121 68.2402 45.8795 68.0517 44.153 67.7124C43.854 67.6536 43.5769 67.8706 43.5649 68.1751C43.5579 68.3526 43.6389 68.532 43.7877 68.629C44.6598 69.1973 46.7228 70.563 48.4053 71.3285Z" fill="#FFDDAA"/>
<path d="M31.9439 60.988C33.5757 64.1737 42.6409 67.6703 49.2197 67.6703C57.7669 67.6703 66.1587 62.1794 67.2984 59.3303C67.5529 58.6709 67.7712 57.5825 67.9534 56.2498C68.4568 52.5676 67.7648 48.6062 67.6067 44.8932C67.5989 44.7103 67.5911 44.5238 67.5833 44.3338C67.4538 41.1739 67.3243 37.5996 66.2364 36.719C62.5585 33.8181 56.6791 32.3418 48.7794 32.3418C38.8076 32.3418 32.9799 35.7089 31.4518 36.719C30.5453 37.3147 30.7007 41.7178 30.8043 45.2403C30.9338 49.1254 30.9856 51.5342 30.3899 52.1817C30.2785 52.3302 30.151 52.4972 30.1788 52.6807C30.7599 56.513 31.3642 59.8789 31.9439 60.988Z" fill="#FFDDAA"/>
<path d="M55.6262 77.3305C55.667 77.1238 55.4646 76.9431 55.2539 76.9431C55.1244 76.9431 55.0208 76.9172 54.9172 76.8654C54.2345 76.5551 53.4205 76.6514 52.888 77.1796C52.6041 77.4612 52.3932 77.8574 52.4168 78.2566L53.2353 92.0742C53.249 92.306 53.4373 92.4891 53.6694 92.4964C53.9053 92.5037 54.1034 92.3269 54.1118 92.091C54.1192 91.8828 54.1256 91.6434 54.1402 91.3957C54.241 88.7239 54.5135 82.9612 55.6262 77.3305Z" fill="white"/>
<path d="M48.2119 78.587C48.2577 78.0388 47.9419 77.506 47.5281 77.1435C46.8226 76.5254 45.763 76.3852 44.9269 76.8104C44.9063 76.8208 44.8864 76.8305 44.8673 76.8393C44.7637 76.8911 44.6601 76.917 44.5306 76.917C44.3569 76.917 44.2077 77.0543 44.2424 77.2244C45.396 82.8886 45.6465 88.7064 45.7479 91.3696C45.7548 91.4587 45.7598 91.5459 45.764 91.6304C45.7816 91.9853 46.0653 92.2555 46.4205 92.2626C46.7981 92.2702 47.1149 91.9835 47.1429 91.6069C47.3611 88.6732 47.9304 81.96 48.2119 78.587Z" fill="white"/>
<path d="M51.9851 79.5345C51.9391 78.7611 51.0827 78.264 50.308 78.264C50.2303 78.264 50.1785 78.264 50.1008 78.264C49.4445 78.2254 48.747 78.6303 48.6906 79.2853C48.3661 83.0537 47.9717 87.7386 47.7457 90.5626C47.635 91.9446 48.6755 93.0698 50.0618 93.0904C51.537 93.1123 52.7197 91.8757 52.6321 90.4029L51.9851 79.5345Z" fill="#ED343A"/>
<path d="M51.9715 77.2543C52.9908 76.5844 52.6533 75.1512 51.7508 74.3305C51.6998 74.2842 51.6491 74.2379 51.5987 74.192C50.6334 73.3095 49.3273 73.1383 48.3636 74.0224C47.5734 74.7472 47.1164 76.1089 47.936 76.8003C48.5541 77.3218 49.3317 77.7027 50.1253 77.746C50.1771 77.746 50.2548 77.746 50.3066 77.746C50.9497 77.7571 51.5074 77.5594 51.9715 77.2543Z" fill="#ED343A"/>
<path d="M43.8923 75.6939C43.9867 76.0864 44.3006 76.5794 44.6617 76.3989C44.9941 76.243 45.5974 75.7789 46.2977 75.1868C47.7401 73.9674 47.2361 71.3771 45.6252 70.391C45.1207 70.0822 44.6526 69.78 44.2603 69.5199C43.7803 69.2018 43.1267 69.3585 42.8025 69.8344C42.6211 70.1007 42.4514 70.3281 42.3226 70.4961C42.3123 70.5095 42.3136 70.5284 42.3256 70.5403C42.3289 70.5436 42.3315 70.5475 42.3332 70.5519C42.9587 72.1517 43.4598 73.8967 43.8923 75.6939Z" fill="white"/>
<path d="M38.6313 81.3477C38.8862 80.431 37.9133 79.7958 37.409 78.9889C36.2053 77.0974 33.9341 75.66 31.814 76.3891C30.6338 76.7949 29.6092 77.255 29.0431 77.7457C28.0584 78.6024 27.0928 81.612 26.3361 84.6362C25.4071 88.3494 28.2391 91.8087 32.064 91.9546C36.2935 92.1159 39.6394 88.1609 38.9377 83.9869C38.7258 82.7266 38.5833 81.8472 38.5745 81.8121C38.5566 81.693 38.5799 81.5327 38.6313 81.3477Z" fill="#A5656A"/>
<path d="M45.2302 91.4216C45.1198 88.7726 44.8657 83.0402 43.7441 77.4443C42.9777 73.6204 38.2932 71.3013 36.1909 74.5861C36.0076 74.8694 36.3925 75.9247 36.918 77.0207C37.4836 78.2003 38.4998 78.938 39.7971 78.7697C39.89 78.7577 39.9832 78.7445 40.076 78.7302C40.1796 78.7043 40.2832 78.7561 40.335 78.8338C40.3868 78.9115 40.3868 79.041 40.335 79.1187C39.7911 79.9994 39.014 81.4239 39.0917 81.8124C39.2466 82.9479 40.867 92.4396 41.2631 93.1495C41.2667 93.1559 41.2704 93.1595 41.2745 93.1656C41.3043 93.2093 41.3385 93.2567 41.3912 93.2523L43.8084 93.0496C44.622 92.9813 45.2517 92.2378 45.2302 91.4216Z" fill="#A5656A"/>
<path d="M57.3155 71.2054C57.4619 70.8105 57.4846 70.4837 57.2382 70.142C56.8203 69.5624 55.9319 69.2468 55.3354 69.6402C54.9974 69.8632 54.6145 70.1098 54.2073 70.3608C52.6035 71.3494 52.0913 73.9598 53.5309 75.1752C54.2241 75.7604 54.8203 76.2184 55.1501 76.373C55.5792 76.5875 55.931 75.9694 56.039 75.502C56.3814 74.0215 56.8106 72.567 57.3155 71.2054Z" fill="#D7E5EC"/>
<path d="M68.0518 76.3831C65.932 75.6533 63.6589 77.0974 62.4552 78.9889C61.9908 79.7784 61.0014 80.4715 61.2354 81.357C61.2744 81.5046 61.2965 81.6378 61.2959 81.7488C61.2955 81.8087 61.2866 81.8656 61.2776 81.9248C61.2398 82.1743 61.1161 82.938 60.9437 83.9619C60.2356 88.1652 63.5933 92.1409 67.8526 91.9785C71.6695 91.8329 74.484 88.4156 73.5594 84.7095C72.8009 81.6695 71.8238 78.6328 70.8212 77.7716C70.2552 77.256 69.2313 76.7892 68.0518 76.3831Z" fill="#A5656A"/>
<path d="M71.1835 77.3573C70.0021 76.3206 67.1153 75.4635 64.7371 74.9112C64.433 74.8406 64.2732 74.5428 64.1126 74.2751C63.7947 73.7586 61.0995 71.901 59.3116 70.9233C58.5082 70.4839 57.6987 69.955 57.2104 69.1803C57.1279 69.0495 57.0458 68.9129 56.9672 68.7724C56.8581 68.5775 56.8029 68.3795 56.7917 68.1565C56.7559 67.4476 57.2165 66.8017 57.8824 66.5561C63.0378 64.6549 66.9929 61.5437 67.7905 59.5376C68.1658 58.6228 68.4349 56.9008 68.6554 54.8525C68.6924 54.5098 69.0257 54.2798 69.3704 54.2798C69.3963 54.2798 69.4481 54.2798 69.474 54.2798C72.1418 54.2798 74.3174 51.4566 74.421 47.8305C74.5489 43.9535 72.7223 39.8763 73.046 36.0107C73.2923 33.0702 73.3609 30.302 73.1778 28.3791C72.5044 21.36 56.8863 17.3713 48.6758 16.8274C45.1533 16.5943 41.5013 16.5425 37.9529 16.4907C32.5655 16.413 27.9034 16.3612 25.4687 15.6101C24.9766 15.4547 24.5363 15.377 24.1996 15.377C23.2413 15.377 22.9823 15.9209 22.9046 16.2576C22.7523 17.038 23.3275 18.1543 24.2292 19.0922C24.5296 19.4046 24.3222 19.9873 23.8888 19.9873C22.1534 19.9873 19.7965 20.065 18.3201 20.4017C17.3877 20.6348 17.2841 21.2305 17.31 21.5672C17.6273 26.3266 24.1413 29.1604 24.8807 33.8727C25.2415 36.1724 25.5801 38.4668 25.7536 40.0085C25.9142 41.3996 25.3848 42.7862 24.7617 44.0402C24.2633 45.0431 23.9602 46.2411 23.9147 47.5456C23.8629 49.281 24.3032 50.9645 25.1838 52.2077C26.0644 53.5028 27.2818 54.228 28.6027 54.2798C28.6286 54.2798 28.6804 54.2798 28.7063 54.2798C29.3352 54.2798 29.9576 54.6466 30.0607 55.267C30.5213 58.0381 30.9995 60.3103 31.4777 61.2212C32.6736 63.5631 37.3923 65.9769 42.4528 67.2639C42.805 67.3535 43.0613 67.6685 43.0467 68.0316C43.0434 68.1142 43.0388 68.1974 43.0324 68.2807C43.0305 68.3048 43.0116 68.3252 43.005 68.3484C43.0008 68.3633 43 68.377 42.9932 68.3909C42.8449 68.6934 42.6712 68.9897 42.4992 69.2585C42.0214 70.005 41.2573 70.5179 40.4814 70.9463C38.7033 71.9278 36.0748 73.7437 35.7513 74.2492C35.5903 74.5175 35.4321 74.8168 35.1278 74.8898C32.7525 75.4599 29.886 76.2946 28.6804 77.3314C26.5102 79.2364 24.6319 89.874 24.383 91.4377C24.3622 91.5678 24.3244 91.712 24.4003 91.8196C24.4763 91.9272 24.6417 91.9447 24.7503 91.8702C24.8069 91.8314 24.8471 91.7722 24.8471 91.7063C24.8471 91.6891 24.8479 91.675 24.8504 91.6579C25.0974 89.9541 27.0059 79.4734 29.0171 77.7458C29.5926 77.2454 30.6151 76.7874 31.7871 76.3861C33.9068 75.6605 36.1802 77.0989 37.3831 78.9891C37.8475 79.7786 38.8369 80.4716 38.6029 81.3572C38.5639 81.5047 38.5418 81.6379 38.5424 81.7489C38.5428 81.8088 38.5517 81.8657 38.5607 81.9249C38.689 82.7718 39.8068 89.5462 40.4652 92.302C40.5947 92.8718 40.7242 93.2603 40.8019 93.3898C40.8537 93.4675 40.9314 93.5193 41.0091 93.5193C41.1065 93.5193 41.19 93.4427 41.2349 93.3563C41.2561 93.3155 41.2682 93.2719 41.2682 93.2344C41.2682 93.1612 41.2236 93.101 41.1976 93.0325C40.7427 91.8327 39.2166 82.8866 39.0666 81.7863C39.0148 81.3978 39.7659 79.9733 40.3098 79.0927C40.3616 79.015 40.3616 78.8855 40.3098 78.8078C40.258 78.73 40.1544 78.6782 40.0508 78.7042C39.9575 78.7209 39.8637 78.7361 39.7702 78.7498C38.4758 78.9392 37.4584 78.1742 36.8928 76.9946C36.3673 75.8986 35.9824 74.8433 36.1657 74.56C38.2319 71.2542 42.9496 73.5963 43.7159 77.4188C44.8401 83.0273 45.0946 88.7625 45.2051 91.3955C45.2532 92.3335 45.2566 92.6908 45.2983 92.8615C45.3043 92.8858 45.3088 92.9108 45.32 92.9333C45.3331 92.9598 45.3392 92.9902 45.3548 93.0154C45.4196 93.1202 45.5557 93.177 45.6713 93.1308C45.8008 93.079 45.8785 92.9236 45.8267 92.7941C45.8008 92.7423 45.8008 92.5351 45.7749 92.2761C45.7749 92.043 45.749 91.7322 45.7231 91.3955C45.5963 88.7323 45.3452 82.9147 44.216 77.2506C44.182 77.08 44.3317 76.9429 44.5057 76.9429C44.6352 76.9429 44.7388 76.917 44.8424 76.8652C44.8654 76.8546 44.8894 76.8427 44.9144 76.8296C45.7458 76.3927 46.7871 76.5382 47.4917 77.1592C47.9113 77.529 48.2324 78.0707 48.1853 78.628C47.8754 82.2972 47.21 89.8854 47.044 92.3279C47.0181 92.7423 46.9922 93.0013 46.9922 93.079C46.9922 93.2344 47.0958 93.338 47.2512 93.338C47.3807 93.338 47.5102 93.2344 47.5102 93.079C47.5102 92.6481 48.1742 84.9352 48.6429 79.3114C48.6974 78.6574 49.3934 78.2512 50.0485 78.2897C50.1262 78.2897 50.178 78.2897 50.2557 78.2897C51.046 78.2897 51.8857 78.7687 51.9325 79.5576L52.7422 93.1826V93.2085C52.7422 93.338 52.8717 93.4416 53.0012 93.4416H53.0271C53.1825 93.4416 53.2861 93.3121 53.2602 93.1567L53.2084 92.4833L52.3657 78.2564C52.342 77.8571 52.5529 77.461 52.8369 77.1793C53.3693 76.6512 54.1833 76.5549 54.866 76.8652C54.9696 76.917 55.0732 76.9429 55.2027 76.9429C55.4131 76.9429 55.6149 77.124 55.5735 77.3302C54.4379 82.9854 54.1891 88.7485 54.0631 91.3955C54.0372 91.8358 54.0372 92.2502 54.0113 92.5092C54.0113 92.7154 53.9077 92.9646 54.059 93.1047C54.0827 93.1266 54.1103 93.1446 54.1408 93.1567C54.2552 93.2025 54.3899 93.1674 54.4554 93.0514C54.4733 93.0198 54.4817 92.983 54.4965 92.9499C54.5041 92.9329 54.505 92.9145 54.5077 92.8962C54.5322 92.729 54.5581 92.3758 54.607 91.4214C54.7174 88.7724 54.9715 83.04 56.0931 77.4441C56.8596 73.6202 61.5441 71.3011 63.6464 74.5859C63.8322 74.8731 63.4341 75.9534 62.8977 77.0581C62.3453 78.1957 61.3604 78.9306 60.1075 78.7582C59.9929 78.7424 59.8771 78.7244 59.7612 78.7042C59.6576 78.6782 59.554 78.73 59.5022 78.8078C59.4504 78.8855 59.4504 79.015 59.5022 79.0927C60.0462 79.9733 60.8232 81.3978 60.7455 81.7863C60.5954 82.8868 59.0688 91.8362 58.6142 93.0332C58.5884 93.1011 58.5439 93.1618 58.5439 93.2344C58.5439 93.338 58.5698 93.4157 58.6734 93.4675C58.7252 93.4934 58.7511 93.5193 58.8029 93.5193C58.9746 93.5193 59.0545 93.3148 59.1118 93.153C59.1811 92.9572 59.264 92.6667 59.3468 92.302C60.0462 89.4011 61.2376 81.9417 61.2635 81.8381C61.2817 81.7107 61.2572 81.542 61.2038 81.3491C60.9498 80.4322 61.9247 79.7959 62.429 78.9891C63.6327 77.0976 65.9039 75.6601 68.024 76.3892C69.2042 76.795 70.2288 77.2551 70.7949 77.7458C72.7853 79.4777 74.6983 90.0068 74.9634 91.6706C74.9646 91.6781 74.965 91.6842 74.965 91.6919C74.965 91.7015 74.9658 91.7111 74.9682 91.7203C75.0003 91.8432 75.1251 91.9385 75.2499 91.9135C75.4971 91.8641 75.4485 91.4974 75.4113 91.248C75.1002 89.166 73.2777 79.1956 71.1835 77.3573ZM56.0202 75.5294C55.9087 75.9966 55.5546 76.6138 55.125 76.399C54.7921 76.243 54.1877 75.7778 53.4862 75.1846C52.0451 73.9661 52.5488 71.3781 54.1585 70.393C54.5724 70.1397 54.9619 69.8907 55.3052 69.6658C55.9048 69.273 56.796 69.5898 57.2154 70.1711C57.4607 70.511 57.4396 70.8353 57.2964 71.2293C56.8062 72.5772 56.3771 74.033 56.0202 75.5294ZM50.3075 77.7717C50.2557 77.7717 50.2039 77.7717 50.1262 77.7717C49.3325 77.7284 48.555 77.3475 47.9368 76.826C47.1173 76.1346 47.5743 74.7729 48.3644 74.0481C49.3282 73.164 50.6377 73.3316 51.6045 74.2123C51.6547 74.258 51.7052 74.304 51.7561 74.3501C52.6596 75.1699 52.9798 76.6025 51.9586 77.27C51.4973 77.5716 50.9443 77.7717 50.3075 77.7717ZM42.304 70.5193C42.292 70.5074 42.2859 70.4837 42.2962 70.4703C42.425 70.3023 42.5947 70.0749 42.7761 69.8086C43.1003 69.3327 43.7535 69.1765 44.2325 69.4961C44.6189 69.7539 45.0789 70.0532 45.5749 70.359C47.18 71.3486 47.6926 73.9613 46.2516 75.1777C45.5597 75.7617 44.9646 76.2187 44.6352 76.3731C44.2895 76.5805 43.9633 76.0591 43.872 75.6665C43.4539 73.8698 42.9321 72.1255 42.3067 70.5261C42.3051 70.5218 42.3073 70.5226 42.304 70.5193ZM28.6286 53.7877C27.489 53.7618 26.4271 53.1143 25.6241 51.9487C24.8212 50.7832 24.4068 49.2292 24.4586 47.5715C24.516 45.4765 26.8002 45.8456 27.3945 47.8554C27.9658 49.7872 28.6218 51.4103 29.2747 52.1029C29.4743 52.3146 29.6602 52.5593 29.7002 52.8475C29.759 53.271 29.5262 53.7033 29.1007 53.7447C29.0152 53.753 28.9284 53.7581 28.8403 53.7604C28.7692 53.7622 28.6997 53.7877 28.6286 53.7877ZM23.837 25.4523C20.9361 25.1933 17.9316 22.7846 17.8539 21.5413C17.828 21.3341 17.8798 21.0492 18.4755 20.9197C19.9001 20.583 22.2311 20.5053 23.9406 20.5053C25.3392 20.5053 26.4012 20.5571 26.4271 20.5571C26.5566 20.5571 26.6602 20.4794 26.6861 20.3499C26.7334 20.1132 26.4166 20.0217 26.2019 19.9114C24.5667 19.0704 23.2784 17.2601 23.4485 16.3612C23.4744 16.2576 23.5262 15.9209 24.2255 15.9209C24.5363 15.9209 24.9248 15.9986 25.3651 16.1281C27.8775 16.8792 32.5655 16.9569 38.0047 17.0346C41.5272 17.0864 45.1792 17.1382 48.7017 17.3713C58.1554 18.0188 72.1418 22.3442 72.7116 28.4568C73.3073 34.673 71.313 48.3485 69.5258 50.2911C69.3963 50.4206 69.2927 50.4983 69.215 50.4724C68.3862 50.2652 68.2567 47.1312 68.1531 44.3598C68.0236 40.915 67.8941 37.3666 66.599 36.3565C62.8175 33.3779 56.8604 31.8757 48.8312 31.8757C38.9889 31.8757 33.213 35.0097 31.1928 36.3565C30.1309 37.0558 30.1568 40.3711 30.3381 45.3182C30.4417 48.1413 30.5453 51.353 30.0532 51.8969C30.0014 51.9487 29.9755 51.9746 29.9496 51.9746C29.043 51.9746 26.971 45.6549 26.3235 39.9826C25.8313 35.709 24.1219 25.789 24.096 25.6854C24.0442 25.5559 23.9665 25.4782 23.837 25.4523ZM73.903 47.8305C73.7994 51.1199 71.8051 53.7877 69.474 53.7877C69.4481 53.7877 69.4222 53.7877 69.3704 53.7877C69.0206 53.7877 68.7972 53.4582 68.8267 53.1096C68.8839 52.435 68.9378 51.7378 68.9777 51.0398C68.9801 50.9976 69.011 50.9832 69.0528 50.9899C69.0576 50.9906 69.062 50.9909 69.0667 50.9917C69.3492 51.0405 69.6316 50.9362 69.8884 50.6537C70.2809 50.2136 70.6734 49.3148 71.0433 48.1101C71.6975 45.9798 73.9876 45.6037 73.903 47.8305ZM30.1985 52.724C30.1742 52.5603 30.2554 52.3845 30.3857 52.2826C30.4022 52.2697 30.4226 52.2524 30.4361 52.2364C31.0103 51.5563 30.9582 49.1585 30.8302 45.3182C30.7266 41.7957 30.5712 37.3925 31.4777 36.7968C33.0317 35.7608 38.8335 32.4196 48.8053 32.4196C56.705 32.4196 62.5844 33.896 66.2623 36.7968C67.3761 37.6775 67.5056 41.2517 67.6092 44.4116C67.6161 44.58 67.623 44.7456 67.6299 44.9084C67.7888 48.6598 68.4674 52.6685 67.9624 56.3891C67.7854 57.6938 67.5748 58.7589 67.3242 59.4081C66.2105 62.2572 57.7928 67.7482 49.2456 67.7482C42.6409 67.7482 33.6016 64.2516 31.9698 61.0658C31.3633 59.8781 30.7569 56.4962 30.1985 52.724ZM49.2456 68.2144C51.3643 68.2144 53.463 67.8937 55.4535 67.3583C55.869 67.2465 56.2821 67.5653 56.2984 67.9953C56.3072 68.2278 56.2025 68.4249 56.0111 68.5573C55.1717 69.1378 53.1322 70.5031 51.4569 71.2789C50.475 71.7336 49.3615 71.7398 48.3782 71.2881C46.6876 70.5114 44.6359 69.1266 43.806 68.5426C43.6751 68.4505 43.5988 68.2917 43.6045 68.1318C43.6159 67.8119 43.9232 67.5846 44.2364 67.6507C45.9317 68.0081 47.6505 68.2144 49.2456 68.2144Z" fill="#674940"/>
<path d="M58.5898 93.1445C58.5978 93.1189 58.6005 93.0979 58.6121 93.0737C59.0279 92.201 60.6181 82.8844 60.7714 81.7601C60.8232 81.3716 60.072 79.9471 59.5281 79.0665C59.4763 78.9888 59.4763 78.8593 59.5281 78.7816C59.5799 78.7039 59.6835 78.6521 59.7871 78.678C59.881 78.6944 59.9748 78.7093 60.068 78.7228C61.3628 78.9099 62.3792 78.1478 62.9456 76.9686C63.4708 75.8751 63.8555 74.8263 63.6722 74.5598C61.6061 71.2539 56.8883 73.5961 56.1221 77.4185C54.9978 83.027 54.7434 88.7622 54.6329 91.3952C54.5936 92.1621 55.2664 92.9593 56.0316 93.0234L58.4439 93.2258C58.5043 93.2308 58.5717 93.2023 58.5898 93.1445Z" fill="#A5656A"/>
<path d="M29.8984 51.9742C29.9878 51.9742 30.035 51.865 30.0765 51.7857C30.4829 51.0074 30.3849 47.9887 30.2869 45.3177C30.1315 40.3448 30.1056 37.0554 31.1416 36.3561C33.1618 35.0092 38.9118 31.8752 48.78 31.8752C56.8092 31.8752 62.7663 33.3775 66.5478 36.3561C67.8429 37.3662 67.9724 40.9146 68.1019 44.3594C68.2055 47.1307 68.335 50.2647 69.1638 50.4719C69.2415 50.4978 69.371 50.4201 69.4746 50.2906C71.2618 48.3481 73.2302 34.6725 72.6604 28.4563C72.0906 22.3438 58.1042 18.0184 48.6505 17.3708C45.128 17.1377 41.476 17.0859 37.9535 17.0341C32.5143 16.9564 27.8263 16.9046 25.3139 16.1276C24.8736 15.9981 24.4851 15.9204 24.1743 15.9204C23.475 15.9204 23.4232 16.2571 23.3973 16.3607C23.216 17.319 24.6923 19.3134 26.4795 20.0645C26.5831 20.1163 26.6608 20.2458 26.6349 20.3494C26.5876 20.5856 26.2557 20.5508 26.015 20.5422C25.583 20.5269 24.8024 20.5048 23.8894 20.5048C22.18 20.5048 19.8489 20.5825 18.4244 20.9192C17.8545 21.0487 17.8027 21.3337 17.8027 21.5409C17.9322 22.7841 20.9367 25.1929 23.8376 25.4519C23.9412 25.4519 24.0448 25.5555 24.0707 25.6591C24.0966 25.7627 25.806 35.6826 26.2982 39.9563C26.9457 45.6544 28.9918 51.9742 29.8984 51.9742Z" fill="#935C4B"/>
<path d="M31.788 49.9288C31.529 47.5978 31.9693 41.3039 33.083 39.3872C34.1968 37.4965 43.003 34.2848 51.9128 34.9064C60.7968 35.5021 63.3868 38.7138 64.6819 41.1226C65.9769 43.5313 65.3812 57.1033 62.8688 60.7294C61.7105 62.4211 62.1928 64.0951 63.8722 62.9191C65.6844 61.6502 66.9299 60.3625 67.3237 59.3826C67.5783 58.7231 67.7966 57.6347 67.9788 56.302C68.4822 52.6199 67.7902 48.6585 67.632 44.9454C67.6243 44.7625 67.6165 44.5761 67.6087 44.3861C67.4792 41.2262 67.3496 37.6519 66.2618 36.7713C62.5839 33.8704 56.7045 32.394 48.8047 32.394C38.833 32.394 33.0053 35.7611 31.4772 36.7713C30.5707 37.367 30.7261 41.7701 30.8297 45.2926C30.9592 49.1777 31.011 51.5865 30.4153 52.234C30.3002 52.3874 30.2864 52.4142 30.47 52.3589C30.9958 52.2006 31.9795 51.6523 31.788 49.9288Z" fill="#FCC58D"/>
<path d="M29.6548 52.6493C29.6287 52.5009 29.5287 52.3787 29.4121 52.2833C29.3501 52.2327 29.2881 52.1731 29.226 52.105C28.8546 51.698 26.7699 52.0226 26.3851 52.417C26.1998 52.607 26.3202 52.7856 26.5244 52.9552C27.1482 53.4733 27.8654 53.7657 28.6007 53.7874C28.6266 53.7874 28.6525 53.7874 28.7043 53.7874C28.817 53.7874 28.9298 53.7799 29.0425 53.7664C29.481 53.714 29.7566 53.2821 29.6875 52.8459C29.6771 52.7801 29.6662 52.7147 29.6548 52.6493Z" fill="#FCC58D"/>
<path d="M69.4747 53.7878C70.207 53.7878 70.8913 53.5322 71.5026 53.0837C71.7576 52.8967 71.7059 52.5184 71.4681 52.3099C70.9915 51.8919 70.7284 51.3729 70.6052 50.8264C70.5548 50.6028 70.0414 50.4824 69.8891 50.6538C69.6323 50.9363 69.3499 51.0405 69.0674 50.9917C69.0627 50.9909 69.0583 50.9907 69.0535 50.9899C69.0117 50.9833 68.9808 50.9977 68.9784 51.0399C68.9385 51.738 68.8846 52.4352 68.8274 53.1099C68.7981 53.4556 69.0242 53.7878 69.3711 53.7878C69.397 53.7878 69.4488 53.7878 69.4747 53.7878Z" fill="#FCC58D"/>
<path d="M56.2743 68.0509C56.2756 67.583 55.8067 67.2587 55.3548 67.3798C53.4048 67.9023 51.3312 68.2143 49.2186 68.2143C48.5321 68.2143 48.2679 69.3031 48.934 69.4693C49.4012 69.5858 49.8424 69.6736 50.2287 69.7165C51.5933 69.8649 53.3153 70.3232 54.4734 69.5865C55.1038 69.1855 55.6379 68.8247 55.9738 68.5948C56.157 68.4694 56.2737 68.2729 56.2743 68.0509Z" fill="#FCC58D"/>
<path d="M69.6046 41.3811C69.7859 38.4544 70.2004 35.3463 66.1599 32.5749C62.0934 29.8035 47.5891 26.8768 47.5114 27.4725C47.4288 28.1053 47.1645 29.0698 46.5263 29.0706C41.4657 29.0775 32.748 30.7557 32.748 31.2022C32.748 31.7202 35.0013 31.9792 34.302 32.1605C33.6027 32.3418 30.4946 33.1188 29.3809 35.0096C28.2671 36.9003 29.0442 42.0028 29.4586 47.2606C29.6084 49.0582 29.6093 50.1925 29.5395 50.9081C29.4988 51.3259 29.505 51.9745 29.9248 51.9745C30.0143 51.9745 30.0615 51.8654 30.1029 51.7861C30.5093 51.0077 30.4113 47.989 30.3133 45.3181C30.1579 40.3451 30.132 37.0557 31.168 36.3564C33.1883 35.0096 38.9382 31.8756 48.8064 31.8756C56.8356 31.8756 62.7928 33.3778 66.5743 36.3564C67.8693 37.3665 67.9988 40.9149 68.1283 44.3597C68.2319 47.1311 68.3614 50.2651 69.1902 50.4723C69.2679 50.4982 69.3974 50.4205 69.501 50.291C69.9428 49.8493 69.7449 49.0955 69.5796 48.4931C69.0817 46.6777 69.4761 43.3737 69.6046 41.3811Z" fill="#845142"/>
<path d="M38.342 17.8112C44.9726 17.863 54.8925 18.5105 62.3778 20.2458C57.9488 18.6659 52.8464 17.6558 48.6505 17.3708C45.128 17.1377 41.476 17.0859 37.9535 17.0341C32.5143 16.9564 27.8263 16.9046 25.3139 16.1276C24.8736 15.9981 24.4851 15.9204 24.1743 15.9204C23.475 15.9204 23.4232 16.2571 23.3973 16.3607C23.216 17.319 24.6923 19.3134 26.4795 20.0645C26.5831 20.1163 26.6608 20.2458 26.6349 20.3494C26.5876 20.5856 26.2557 20.5508 26.015 20.5422C25.583 20.5269 24.8024 20.5048 23.8894 20.5048C22.18 20.5048 19.8489 20.5825 18.4244 20.9192C17.8545 21.0487 17.8027 21.3337 17.8027 21.5409C17.9322 22.7841 20.9367 25.1929 23.8376 25.4519C24.0584 25.4519 24.087 25.7677 24.1235 25.9855C24.2975 27.0249 24.8718 30.3825 25.3916 33.7401C25.1326 30.0881 24.77 25.0893 24.6146 24.8821C24.3556 24.5453 19.1755 23.1467 18.9942 21.8517C18.8129 20.5566 28.0594 21.515 28.2407 20.7379C28.422 19.9609 24.6146 18.6659 24.6146 17.3708C24.6146 16.0758 28.7587 17.7076 38.342 17.8112Z" fill="#A86956"/>
<path d="M26.0385 29.778C26.0126 29.6485 25.7795 29.6226 25.7536 29.778C25.5723 30.9953 25.5982 32.2903 25.5723 33.5336C25.5723 33.7149 25.8572 33.7667 25.8831 33.5854C26.1421 32.368 26.2716 30.9694 26.0385 29.778Z" fill="#A86956"/>
<path d="M26.9201 29.6743C26.8683 29.5448 26.687 29.5448 26.6611 29.6743C26.5575 29.9851 26.5834 30.3477 26.6352 30.6585C26.6611 30.8657 26.9201 30.8657 26.946 30.6585C26.9719 30.3477 27.0237 29.9851 26.9201 29.6743Z" fill="#A86956"/>
<path d="M62.6089 21.3343C61.3139 20.635 59.5785 20.1947 58.1022 20.2983C57.9727 20.2983 57.9209 20.5055 58.0763 20.5314C58.8015 20.7386 59.5526 20.8163 60.3038 21.0235C61.029 21.2048 61.7542 21.4897 62.4794 21.671C62.6866 21.7228 62.8161 21.4379 62.6089 21.3343Z" fill="#A86956"/>
<path d="M64.3716 21.7487C64.2162 21.6192 64.0867 21.5156 63.8795 21.4638C63.6723 21.412 63.4391 21.3861 63.206 21.412C62.947 21.4379 62.9211 21.8523 63.206 21.8264C63.4108 21.8107 63.6155 21.8428 63.8203 21.8995C64.0882 21.9738 64.5682 21.9453 64.3716 21.7487Z" fill="#A86956"/>
<path d="M27.3328 18.6405C26.7889 18.4851 26.3745 18.1484 25.9342 17.7858C25.8047 17.6822 25.5975 17.8117 25.6752 17.9671C26.0119 18.511 26.6335 18.7959 27.2551 18.8995C27.4105 18.9254 27.4882 18.6923 27.3328 18.6405Z" fill="#A86956"/>
<path d="M29.6631 33.5849C28.7307 33.8957 27.85 34.88 27.9536 35.916C27.9795 36.0714 28.1867 36.0973 28.2385 35.9419C28.3939 35.5016 28.5234 35.0872 28.8084 34.7245C29.0674 34.3878 29.43 34.1029 29.7926 33.8698C29.948 33.7921 29.8444 33.5331 29.6631 33.5849Z" fill="#845142"/>
<path d="M30.5453 32.1865C30.1309 32.2642 29.7942 32.4973 29.5611 32.834C29.4575 32.9894 29.7165 33.1966 29.8201 33.0412C29.935 32.8976 30.0738 32.7699 30.2277 32.6669C30.4725 32.5031 30.8285 32.1056 30.5453 32.1865Z" fill="#845142"/>
<path d="M67.9461 32.6268C67.2727 31.7203 66.1331 31.021 65.1489 30.4771C64.9935 30.3994 64.864 30.6325 65.0194 30.7102C65.5374 31.0469 66.0554 31.4095 66.5216 31.798C66.8164 32.0375 67.0719 32.3033 67.3534 32.5487C67.5838 32.7495 68.1157 32.8811 67.9461 32.6268Z" fill="#845142"/>
<path d="M69.1902 33.5849C68.9312 33.3518 68.7499 33.0668 68.8535 32.7042C68.9053 32.4711 68.5427 32.3675 68.4909 32.6006C68.3614 33.0927 68.5686 33.6626 69.0607 33.818C69.1902 33.8698 69.2938 33.6885 69.1902 33.5849Z" fill="#845142"/>
<path d="M44.9979 28.3789C44.3763 28.3789 43.7288 28.4566 43.1071 28.4825C42.9776 28.4825 42.9517 28.6638 43.0812 28.6897C43.7288 28.8192 44.4022 28.8451 45.0497 28.6897C45.231 28.6379 45.1792 28.3789 44.9979 28.3789Z" fill="#845142"/>
<path d="M46.7069 28.3532C46.4738 28.1719 46.2407 28.1201 45.9558 28.2237C45.7226 28.3014 45.7745 28.6381 46.0076 28.6381C46.0853 28.6381 46.1889 28.6381 46.2666 28.6381C46.3702 28.6381 46.4738 28.6381 46.5515 28.664C46.7846 28.7158 46.8623 28.4827 46.7069 28.3532Z" fill="#845142"/>
<path d="M33.6536 39.8533C33.1874 40.5008 32.9025 41.4591 32.6435 42.2102C32.5917 42.3657 32.8507 42.4952 32.9284 42.3398C33.291 41.6145 33.7572 40.7339 33.8608 39.931C33.8867 39.7756 33.7054 39.7756 33.6536 39.8533Z" fill="#FCC58D"/>
<path d="M34.6649 39.3606C34.3282 39.5937 34.2505 40.034 34.2246 40.4225C34.2246 40.578 34.4318 40.6038 34.4836 40.4484C34.5872 40.1376 34.7944 39.8527 34.898 39.516C34.9239 39.4124 34.7685 39.2829 34.6649 39.3606Z" fill="#FCC58D"/>
<path d="M49.4569 72.2586C49.4526 72.255 49.4494 72.2569 49.4446 72.2598C48.2558 72.9831 47.0411 73.6289 45.7748 74.1974C45.6121 74.273 45.4376 74.3446 45.2584 74.4042C44.7659 74.5678 43.8397 75.5202 43.9535 76.0266C43.9907 76.192 44.1057 76.3406 44.2699 76.3827C44.4132 76.4195 44.535 76.4232 44.6352 76.3731C45.4603 75.9863 47.954 73.6999 49.4585 72.274C49.4662 72.2667 49.4651 72.2654 49.4569 72.2586Z" fill="#D7E5EC"/>
<path d="M53.5705 73.7829C53.7365 73.8684 53.9054 73.9539 54.0765 74.0355C55.3172 74.6267 56.4773 73.6792 56.9033 72.3724C57.0311 71.9801 57.1659 71.5926 57.3089 71.2111C57.4583 70.8127 57.483 70.4813 57.2343 70.1361C56.8183 69.5585 55.9351 69.2415 55.3405 69.633C54.8396 69.9628 54.2394 70.3455 53.6085 70.7176C52.5272 71.3554 52.4476 73.2215 53.5705 73.7829Z" fill="white"/>
<path d="M46.3436 85.3347C46.24 83.3404 46.1882 81.346 46.1623 79.3517C46.1623 78.4174 46.2044 77.3989 46.6686 76.638C46.758 76.4913 46.7618 76.3038 46.6666 76.1608C46.5277 75.9522 46.23 75.8866 46.034 76.0428C45.5499 76.4286 45.1349 76.7158 44.8673 76.8393C44.7637 76.8911 44.6601 76.917 44.5306 76.917C44.3569 76.917 44.2077 77.0543 44.2424 77.2244C45.396 82.8886 45.6465 88.7064 45.7479 91.3696C45.7574 91.4925 45.7634 91.612 45.7684 91.7254C45.7819 92.0261 46.0246 92.2548 46.3254 92.261C46.7077 92.2688 46.9995 91.9216 46.9354 91.5447C46.5904 89.5154 46.4361 87.4148 46.3436 85.3347Z" fill="#D7E5EC"/>
<path d="M55.2542 76.9429C55.1247 76.9429 55.0211 76.917 54.9175 76.8652C54.8659 76.8394 54.8078 76.8072 54.7446 76.7693C54.546 76.6505 54.2286 76.8706 54.27 77.0983C54.4254 77.9013 54.3736 78.756 54.3218 79.5848C54.1185 83.2691 53.9152 87.0033 53.1984 90.6162C53.1708 90.7554 53.1607 90.8974 53.1694 91.039L53.2347 92.1005C53.249 92.3321 53.4372 92.5148 53.6692 92.522C53.9054 92.5294 54.1038 92.3523 54.1122 92.1162C54.1195 91.9081 54.1259 91.6689 54.1405 91.4214C54.2664 88.7776 54.5147 83.0251 55.6468 77.3763C55.6941 77.1403 55.495 76.9429 55.2542 76.9429Z" fill="#D7E5EC"/>
<path d="M53.1545 75.9938C53.2554 75.8252 53.2062 75.6124 53.0567 75.4849C52.5812 75.0793 52.0839 74.6352 51.6188 74.2102C50.6419 73.3179 49.1397 73.315 48.1622 74.2066C47.8103 74.5276 47.4413 74.8593 47.0791 75.177C46.9342 75.3042 46.8722 75.4885 46.9652 75.6573C47.1689 76.0273 47.8026 75.8081 48.006 75.438C48.0894 75.2863 48.1921 75.1466 48.3123 75.0265C48.8303 74.5084 49.6073 74.3012 50.3325 74.4048C51.2132 74.5602 52.0161 75.1819 52.3528 76.0366C52.4621 76.3098 52.8522 76.4453 53.0195 76.2033C53.0673 76.1341 53.1124 76.0642 53.1545 75.9938Z" fill="#D82E35"/>
<path d="M51.9471 78.7297C51.9184 78.3349 51.4928 78.0932 51.1064 78.179C50.8556 78.2347 50.59 78.264 50.3069 78.264C50.2292 78.264 50.1774 78.264 50.0997 78.264C49.6947 78.2402 49.2897 78.1506 48.9048 77.9953C48.8573 77.9761 48.8047 78.0082 48.8047 78.0594C48.8047 78.0731 48.8086 78.0888 48.8161 78.1002C49.0495 78.4553 49.4071 78.759 49.8148 78.9374C50.3587 79.1705 50.9544 79.2482 51.5502 79.3C51.7855 79.3392 51.9757 79.1233 51.9584 78.8854L51.9471 78.7297Z" fill="#D82E35"/>
<path d="M70.8465 77.7457C70.2711 77.2453 69.2486 76.7872 68.0766 76.386C65.9569 75.6604 63.6835 77.0987 62.4806 78.9889C62.0162 79.7784 61.0268 80.4715 61.2608 81.357C61.2998 81.5046 61.3219 81.6378 61.3212 81.7488C61.3209 81.8087 61.3119 81.8656 61.303 81.9248C61.1866 82.693 60.256 88.339 59.5926 91.4382C59.4992 91.8744 59.8391 92.2864 60.2849 92.2708C60.6227 92.2589 60.8992 91.999 60.9363 91.663C61.2611 88.7252 61.8363 85.7945 62.6619 82.9776C62.7655 82.6409 62.8691 82.2783 63.1022 82.0193C63.4648 81.6049 64.0088 81.4754 64.5268 81.3459C65.0966 81.2164 65.6664 81.0869 66.2362 81.1646C67.6608 81.3718 68.5155 82.8222 69.0335 84.1691C69.7666 86.0017 70.2554 87.9349 70.5106 89.8938C70.6559 91.0087 71.5944 91.8807 72.718 91.8401C73.9341 91.7962 74.8311 90.7139 74.6049 89.5182C73.9039 85.8128 72.3988 79.0963 70.8465 77.7457Z" fill="#985D61"/>
<path d="M38.3483 92.2308C39.4264 92.2666 40.253 91.2636 40.0452 90.2052C39.3771 86.802 38.5962 81.9217 38.5752 81.838C38.557 81.7106 38.5815 81.5419 38.6349 81.349C38.889 80.432 37.914 79.7958 37.4097 78.9889C37.2492 78.7366 36.2965 77.1235 35.8647 75.8043C35.7771 75.5369 35.5097 75.3654 35.2366 75.433C34.8789 75.5216 34.718 75.9586 34.9074 76.2747C35.2916 76.9155 35.5817 77.6355 35.8298 78.3414C36.6586 80.6725 37.2025 83.1071 37.2284 85.5677C37.2446 86.9757 37.0788 88.4038 36.7057 89.7701C36.3922 90.918 37.1591 92.1914 38.3483 92.2308Z" fill="#985D61"/>
<path d="M43.2411 91.9788C43.2155 92.5586 43.7029 93.0345 44.2812 92.9852C44.8342 92.938 45.2597 92.4254 45.2291 91.8713C45.2214 91.7319 45.213 91.5742 45.2038 91.3953C45.0922 89.0723 44.9034 84.3607 44.0894 79.4533C44.0204 79.0368 43.7753 79.0625 43.8311 79.481C44.116 81.8898 43.6757 84.2985 43.4685 86.7332C43.3402 88.4866 43.3178 90.24 43.2411 91.9788Z" fill="#985D61"/>
<path d="M55.5648 80.7759C54.9173 85.2049 54.736 89.2972 54.6583 91.4211C54.6497 91.5878 54.6426 91.7362 54.6364 91.8685C54.6111 92.4081 55.0726 92.9675 55.6108 93.0135C56.1527 93.0597 56.5932 92.5837 56.5092 92.0464C55.9208 88.2811 55.4938 84.5177 55.5648 80.7759Z" fill="#985D61"/>
<path d="M58.3119 71.8664C57.7162 73.1355 57.3535 74.5341 57.0686 75.9069C57.0427 76.0364 57.2499 76.0882 57.2758 75.9587C57.6385 74.6118 58.1047 73.2909 58.5191 71.9441C58.545 71.8146 58.3637 71.7369 58.3119 71.8664Z" fill="#BF757A"/>
<path d="M57.1195 77.1502C57.0936 76.9948 56.8605 76.9948 56.8605 77.1502C56.8864 77.4093 56.8864 77.6424 56.8346 77.9014C56.7946 78.1012 57.064 77.8598 57.1012 77.6594C57.1316 77.4956 57.1356 77.328 57.1195 77.1502Z" fill="#BF757A"/>
<path d="M42.9775 75.6997C42.6667 74.4824 42.3559 73.2133 41.7861 72.0996C41.7343 71.97 41.5271 72.0737 41.553 72.2032C41.8897 73.3946 42.3818 74.5601 42.7444 75.7516C42.7962 75.907 43.0294 75.8552 42.9775 75.6997Z" fill="#BF757A"/>
<path d="M43.4423 77.5129C43.3646 77.3057 43.261 77.0726 43.2092 76.8654C43.1574 76.6841 42.8984 76.7618 42.9502 76.9431C43.002 77.2021 43.0797 77.4352 43.261 77.6424C43.3128 77.7201 43.4941 77.6165 43.4423 77.5129Z" fill="#BF757A"/>
<path d="M28.421 79.3772C27.6958 81.5269 27.0224 83.6767 26.4785 85.8783C26.4267 86.0855 26.7375 86.1632 26.7893 85.956C27.4886 83.8062 28.1102 81.6305 28.7836 79.4808C28.8872 79.2218 28.4987 79.1441 28.421 79.3772Z" fill="#BF757A"/>
<path d="M26.2981 87.0962C26.2204 87.5365 26.1168 87.9768 26.1427 88.443C26.1427 88.5725 26.324 88.5984 26.3758 88.4689C26.5053 88.0286 26.5312 87.5883 26.583 87.148C26.6089 86.9667 26.324 86.9408 26.2981 87.0962Z" fill="#BF757A"/>
<path d="M39.6897 82.3823C39.6638 82.2787 39.4825 82.3046 39.5084 82.4341C39.871 84.1435 40.1559 85.853 40.4926 87.5365C40.5185 87.666 40.7257 87.6401 40.7257 87.5106C40.5703 85.7753 40.2077 84.0658 39.6897 82.3823Z" fill="#BF757A"/>
<path d="M40.9575 89.6602C41.1 89.8502 41.1497 89.4443 41.0827 89.2165C40.981 88.8709 40.9121 88.5291 40.9316 88.1579C40.9316 88.0284 40.7244 88.0025 40.6985 88.132C40.6208 88.65 40.6208 89.2198 40.9575 89.6602Z" fill="#BF757A"/>
<path d="M60.0457 82.3954C60.0457 82.3879 60.0392 82.3811 60.0326 82.3847C60.023 82.3899 60.023 82.4008 60.0326 82.406C60.0392 82.4096 60.0457 82.4028 60.0457 82.3954Z" fill="#BF757A"/>
<path d="M60.2289 82.175C59.9958 83.3664 59.7368 84.5319 59.5296 85.7493C59.5037 85.9047 59.7109 85.9565 59.7627 85.8011C60.0809 84.7784 60.2594 83.7357 60.4384 82.6906C60.4883 82.3992 60.2707 81.8822 60.2289 82.175Z" fill="#BF757A"/>
<path d="M48.9331 83.6251C48.9331 83.464 48.7695 83.7055 48.7535 83.8658C48.5826 85.5771 48.4375 87.3325 48.3633 89.0642C48.3633 89.2196 48.6223 89.2714 48.6482 89.116C49.0367 87.3548 49.1144 85.4122 48.9331 83.6251Z" fill="#F05C51"/>
<path d="M48.52 90.2042C48.4941 90.0488 48.2869 90.0747 48.2351 90.2042C48.1056 90.6186 48.1056 91.1626 48.1574 91.6029C48.1833 91.7583 48.3905 91.8101 48.4423 91.6288C48.5459 91.1885 48.6236 90.6445 48.52 90.2042Z" fill="#F05C51"/>
<path d="M50.4875 77.202C49.84 77.0207 49.1924 76.8912 48.5449 76.6322C48.4154 76.5804 48.3636 76.7617 48.4672 76.8394C49.0629 77.202 49.7623 77.4869 50.4616 77.5128C50.617 77.5128 50.6688 77.2538 50.4875 77.202Z" fill="#F05C51"/>
<path d="M44.4276 45.2666C45.1528 45.163 44.8161 43.8162 44.5053 43.4017C44.1945 42.9614 38.6776 42.4434 37.6416 42.7542C36.6056 43.0909 36.1135 43.9975 36.243 44.5414C36.4243 45.1371 42.8477 45.5256 44.4276 45.2666Z" fill="#935C4B"/>
<path d="M42.8997 45.6033C42.822 45.6033 36.2691 45.5515 36.036 44.619C35.8547 43.9197 36.4504 42.8837 37.5901 42.5211C37.8232 42.4434 38.2376 42.4175 38.8592 42.4175C40.1801 42.4175 44.3242 42.7283 44.7386 43.2722C45.0236 43.6607 45.2826 44.5672 45.0495 45.0853C44.9459 45.3443 44.7386 45.4997 44.4796 45.5256C44.0652 45.5774 43.3918 45.6033 42.8997 45.6033ZM37.7714 43.0132C36.5303 43.4033 37.2222 44.6863 38.5147 44.8346C39.7896 44.9808 41.4572 45.0853 42.8997 45.0853C43.5049 45.0853 43.9846 45.0643 44.3011 45.0225C44.3685 45.0136 44.435 45.0034 44.493 44.9681C44.5646 44.9246 44.6028 44.8396 44.616 44.7568C44.631 44.663 44.63 44.5521 44.6175 44.4352C44.5539 43.8446 44.0709 43.4528 43.4866 43.3459C42.3421 43.1366 40.3387 42.9355 38.8851 42.9355C38.1599 42.9355 37.875 42.9873 37.7714 43.0132Z" fill="#674940"/>
<path d="M49.8164 56.0412C49.3761 56.0412 48.9358 55.8858 48.5991 55.7045C48.3508 55.6052 48.6029 55.1266 48.8322 55.2642C49.1689 55.4455 49.8164 55.6786 50.2308 55.4455C50.5157 55.2901 50.6712 54.9275 50.6971 54.3836C50.723 54.021 50.6453 53.7361 50.4121 53.5029C50.0317 53.1034 49.3577 53.0113 49.0267 52.9906C48.8969 52.9825 48.7488 53.0087 48.6524 52.9213C48.6022 52.8758 48.5732 52.8081 48.5732 52.7259C48.5732 52.5705 48.6768 52.4669 48.8322 52.4669C48.884 52.4669 50.1272 52.441 50.8007 53.1403C51.1115 53.477 51.2669 53.8915 51.2151 54.4095C51.1633 55.1347 50.9043 55.6527 50.4898 55.8858C50.2826 55.9894 50.0495 56.0412 49.8164 56.0412Z" fill="#674940"/>
<path d="M41.0615 50.5762C42.0199 50.5762 42.7969 49.7992 42.7969 48.8408C42.7969 47.8824 42.0199 47.1055 41.0615 47.1055C40.1031 47.1055 39.3262 47.8824 39.3262 48.8408C39.3262 49.7992 40.1031 50.5762 41.0615 50.5762Z" fill="#674940"/>
<path d="M41.0068 48.1421C41.0068 48.4529 40.7478 48.7119 40.437 48.7119C40.1262 48.7119 39.8672 48.4529 39.8672 48.1421C39.8672 47.8313 40.1262 47.5723 40.437 47.5723C40.7737 47.5723 41.0068 47.8313 41.0068 48.1421Z" fill="white"/>
<path d="M54.3746 45.2666C53.6494 45.163 53.9861 43.8162 54.2969 43.4017C54.6077 42.9614 60.1246 42.4434 61.1606 42.7542C62.1966 43.0909 62.6887 43.9975 62.5592 44.5414C62.3779 45.1371 55.9545 45.5256 54.3746 45.2666Z" fill="#935C4B"/>
<path d="M55.9022 45.6033C55.4101 45.6033 54.7367 45.5774 54.3223 45.5256C54.0633 45.4738 53.8561 45.3184 53.7525 45.0853C53.5194 44.5413 53.7784 43.6607 54.0633 43.2722C54.4518 42.7283 58.6218 42.4175 59.9427 42.4175C60.5644 42.4175 60.9788 42.4434 61.2119 42.5211C62.3515 42.8837 62.9472 43.9197 62.7659 44.619C62.7141 44.8003 62.6364 45.1112 60.1241 45.3702C58.8031 45.5256 57.1714 45.6033 55.9022 45.6033ZM55.4659 43.3087C54.802 43.4239 54.2091 43.8555 54.1904 44.5291C54.1882 44.6081 54.1935 44.6821 54.2083 44.7472C54.2246 44.8195 54.2437 44.8919 54.2996 44.9407C54.3648 44.9974 54.4686 44.9895 54.5543 45.0001C54.8709 45.0396 55.3403 45.0594 55.9281 45.0594C57.3658 45.0594 59.0348 44.9556 60.3108 44.8101C61.6077 44.6623 62.3243 43.3632 61.0824 42.9614C60.9788 42.9355 60.6939 42.8837 59.9686 42.8837C58.5482 42.9017 56.6285 43.1069 55.4659 43.3087Z" fill="#674940"/>
<path d="M57.7432 50.5762C58.7016 50.5762 59.4785 49.7992 59.4785 48.8408C59.4785 47.8824 58.7016 47.1055 57.7432 47.1055C56.7848 47.1055 56.0078 47.8824 56.0078 48.8408C56.0078 49.7992 56.7848 50.5762 57.7432 50.5762Z" fill="#674940"/>
<path d="M57.7178 48.1416C57.7178 48.4524 57.4588 48.7114 57.1479 48.7114C56.8371 48.7114 56.5781 48.4524 56.5781 48.1416C56.5781 47.8308 56.8371 47.5718 57.1479 47.5718C57.4588 47.5718 57.7178 47.8308 57.7178 48.1416Z" fill="white"/>
<path d="M49.6598 61.3253C48.1834 61.3253 47.1992 60.9109 47.1474 60.885C47.0179 60.8332 46.9661 60.6778 47.0179 60.5483C47.1161 60.3029 47.4809 60.4697 47.7349 60.5427C48.4527 60.7491 50.1133 61.0791 52.0944 60.4188C52.2239 60.367 52.3793 60.4447 52.4311 60.5742C52.4829 60.7037 52.4052 60.8591 52.2757 60.9109C51.2915 61.2217 50.4109 61.3253 49.6598 61.3253Z" fill="#674940"/>
</g>
</svg>
