<svg width="75" height="86" viewBox="0 0 75 86" fill="none" xmlns="http://www.w3.org/2000/svg">
<mask id="mask0_1811_4399" style="mask-type:luminance" maskUnits="userSpaceOnUse" x="0" y="0" width="75" height="86">
<path d="M7.18973 9.2609C-7.39076 18.1358 3.37597 76.3786 11.678 81.0359C19.9801 85.6933 52.8511 87.9443 64.5258 80.6996C76.2006 73.4548 78.2761 25.8463 65.823 11.3567C53.3699 -3.13284 28.4638 -3.6762 7.18973 9.2609Z" fill="white"/>
</mask>
<g mask="url(#mask0_1811_4399)">
<path d="M60.6703 42.2149C60.4108 42.4995 60.1255 42.603 59.8401 42.5513C59.8141 42.5513 59.7882 42.5254 59.7622 42.5254C59.7103 43.4568 59.6325 44.3883 59.5547 45.268C59.7622 45.3198 59.9438 45.3457 60.1514 45.3457C60.1773 45.3457 60.2033 45.3457 60.2552 45.3457C62.6161 45.3457 64.6138 42.6806 64.6916 39.3946C64.7435 37.3505 64.0689 35.5135 63.0052 34.4009C62.3826 38.1526 61.5264 41.2575 60.6703 42.2149Z" fill="#FFDDAA"/>
<path d="M20.3533 43.9997C19.0561 43.3529 17.6811 38.5144 16.9287 34.5039C15.8909 35.5906 15.2164 37.2724 15.1645 39.1871C15.1126 40.8172 15.5277 42.3697 16.332 43.5599C17.1103 44.6983 18.1999 45.3711 19.3415 45.3969C19.3674 45.3969 19.3934 45.3969 19.4452 45.3969C19.8085 45.3969 20.1717 45.3193 20.5349 45.2158C20.4571 44.776 20.4052 44.3879 20.3533 43.9997Z" fill="#FFDDAA"/>
<path d="M40.6414 63.4056C42.5094 63.0952 46.4269 60.3784 47.0496 59.9385C47.0236 59.5504 47.0236 59.1364 46.9977 58.7224C44.7925 59.3951 42.4056 59.8091 39.9669 59.8091C38.1767 59.8091 36.231 59.5763 34.3111 59.1623C34.3111 59.4469 34.3111 59.7315 34.2852 60.042C35.1413 60.5854 38.8253 63.0952 40.6414 63.4056Z" fill="#FFDDAA"/>
<path d="M22.6618 52.5646C24.2962 55.7471 33.3766 59.2402 39.9664 59.2402C48.5279 59.2402 56.9337 53.7548 58.0753 50.9087C58.646 49.4338 59.0352 45.8115 59.2427 42.1114C58.5941 41.2317 58.4904 39.0583 58.3606 35.9275C58.2309 32.7709 58.1012 29.2002 57.0116 28.3205C53.3275 25.4226 47.4382 23.9478 39.5253 23.9478C29.5369 23.9478 23.6995 27.3114 22.1688 28.3205C21.2608 28.9156 21.4165 33.3142 21.5202 36.8331C21.65 40.7142 21.7019 43.1205 21.1051 43.7674C21.0273 43.8709 20.9235 43.9226 20.8457 43.9485C21.4424 47.9073 22.0651 51.4262 22.6618 52.5646Z" fill="#FFDDAA"/>
<path d="M46.505 68.4254C46.3493 68.4771 46.1677 68.503 46.038 68.503C45.9083 68.503 45.8045 68.4771 45.7007 68.4254C45.4153 68.296 45.0002 67.9855 44.5073 67.5974C44.2219 68.1666 43.7549 68.7359 43.1582 69.1757L44.0403 84.0275L44.8705 84.0534C44.8964 83.7947 44.8964 83.3807 44.9224 82.9408C45.0262 80.1981 45.2856 74.1953 46.505 68.4254Z" fill="white"/>
<path d="M39.0313 69.2531C38.2011 68.7615 37.5266 68.037 37.1634 67.2866C36.5148 67.83 35.944 68.244 35.6067 68.3992C35.503 68.451 35.3992 68.4768 35.2695 68.4768C35.1657 68.4768 35.036 68.451 34.9062 68.4251C36.1256 74.195 36.3851 80.1978 36.4888 82.9146C36.5148 83.251 36.5148 83.5615 36.5407 83.7944L37.8379 83.8202C38.0195 81.1811 38.7719 72.3838 39.0313 69.2531Z" fill="white"/>
<path d="M42.6393 69.4602C42.1723 69.6931 41.6534 69.8224 41.0567 69.8224C40.9789 69.8224 40.927 69.8224 40.8491 69.8224C40.4081 69.7966 39.9671 69.6931 39.552 69.512C39.059 75.1784 38.3066 84.1309 38.3066 84.5966L43.5473 84.6742L42.6393 69.4602Z" fill="#ED343A"/>
<path d="M44.0661 67.2609C42.7948 66.2001 41.2901 64.777 40.6415 64.156C40.0448 64.7252 38.7476 65.9413 37.5801 66.9504C38.073 68.063 39.448 69.2273 40.875 69.305C40.9268 69.305 41.0047 69.305 41.0566 69.305C42.5613 69.3308 43.5991 68.2183 44.0661 67.2609Z" fill="#ED343A"/>
<path d="M34.7773 67.882C35.0367 67.9854 35.2443 68.0372 35.4 67.9596C36.2302 67.5715 38.7467 65.2687 40.2515 63.8456C38.2797 63.3281 35.0367 61.1288 34.1028 60.4819C33.7395 61.1547 33.2985 61.7498 33.0391 62.0861L33.065 62.112C33.7655 63.8973 34.3103 65.8638 34.7773 67.882Z" fill="white"/>
<path d="M30.3676 70.8316C29.4855 70.935 28.4218 70.9609 28.1623 70.5469C27.9807 70.2623 26.7873 68.2441 26.476 66.8728C24.0632 67.4162 20.9499 68.2959 19.7824 69.305C17.7848 71.0385 15.8649 81.5952 15.6055 83.2253L31.2497 83.8204C30.5492 80.9225 29.3558 73.4707 29.3298 73.3672C29.226 72.8497 29.9265 71.556 30.3676 70.8316Z" fill="#A5656A"/>
<path d="M35.9719 82.967C35.8163 79.2411 35.3752 69.4089 32.6252 62.4487C31.7171 62.6816 27.3326 65.5019 26.9175 66.1487C26.6321 66.5886 27.7218 68.8914 28.5779 70.3145C28.7336 70.4697 29.7973 70.4439 30.8091 70.2886C30.9129 70.2627 31.0166 70.3145 31.0685 70.3921C31.1204 70.4697 31.1204 70.5991 31.0685 70.6767C30.5237 71.5565 29.7454 72.9795 29.8232 73.3676C29.9789 74.5061 31.6134 84.0537 32.0025 84.7005C32.0285 84.7264 32.0285 84.7782 32.0285 84.804L36.0498 84.4677C36.0238 84.2866 35.9979 83.9502 35.9719 82.967Z" fill="#A5656A"/>
<path d="M48.3209 62.1379C48.0615 61.8015 47.5945 61.1805 47.2054 60.4561C46.2714 61.1029 43.0284 63.3281 41.0566 63.8197C42.5614 65.2428 45.078 67.5456 45.9082 67.9337C46.0638 68.0113 46.3233 67.9596 46.6346 67.8043C47.0497 65.8379 47.6205 63.8973 48.3209 62.1379Z" fill="#D7E5EC"/>
<path d="M54.9358 66.8728C54.6245 68.2441 53.431 70.2623 53.2494 70.5469C52.99 70.9868 51.9004 70.9609 51.0442 70.8316C51.4853 71.556 52.1598 72.8497 52.082 73.3931C52.082 73.4707 50.8626 80.9225 50.1621 83.8463L65.8063 83.2512C65.5728 81.6211 63.653 71.0644 61.6293 69.3309C60.4359 68.27 57.3226 67.4162 54.9358 66.8728Z" fill="#A5656A"/>
<path d="M61.9668 68.917C60.6955 67.8044 57.4525 66.8988 54.9878 66.3554C54.9878 66.1484 54.9619 65.9673 54.8841 65.8379C54.469 65.1652 50.0066 62.2155 48.7872 61.905C48.5797 61.6204 47.983 60.8701 47.5679 60.0421C47.5419 59.5764 47.516 59.0589 47.516 58.5155C53.2237 56.6785 57.712 53.2631 58.5681 51.1155C58.9832 50.1064 59.2686 48.1141 59.5021 45.7854C59.7096 45.8372 59.9172 45.863 60.1507 45.863C60.1766 45.863 60.2285 45.863 60.2545 45.863C62.9267 45.863 65.106 43.0428 65.2098 39.4204C65.2876 37.0658 64.4314 34.9959 63.0824 33.7798C63.8607 28.9413 64.2758 23.249 63.9644 19.9888C63.2899 12.9769 47.6457 8.99231 39.4215 8.44896C35.8931 8.21609 32.235 8.16434 28.6807 8.11259C23.2844 8.03497 18.6144 7.98322 16.1757 7.23287C15.6828 7.07762 15.2417 7 14.9045 7C13.9445 7 13.6851 7.54336 13.6073 7.87972C13.3997 8.94057 14.5413 10.6224 16.0201 11.6315C15.6309 11.6315 15.138 11.6056 14.5931 11.6056C12.8549 11.6056 10.494 11.6832 9.01519 12.0196C8.08121 12.2525 7.97744 12.8476 8.00338 13.1839C8.10716 14.7364 11.2464 17.1686 14.2818 17.5567C14.5153 18.9539 16.0201 27.6994 16.4611 31.6064C16.5389 32.2791 16.6427 33.0294 16.7984 33.8315C15.5271 34.9959 14.6969 36.9106 14.6191 39.1358C14.5672 40.8693 15.0082 42.5512 15.8903 43.7931C16.7724 45.0868 17.9918 45.8113 19.3149 45.863C19.3409 45.863 19.3928 45.863 19.4187 45.863C19.8338 45.863 20.223 45.7854 20.5862 45.6819C21.1051 48.9679 21.6499 51.7624 22.1947 52.7973C23.44 55.2295 28.4991 57.7393 33.7917 58.9813C33.7917 59.2659 33.7917 59.5764 33.7657 59.8869C33.7398 59.9127 33.7398 59.9127 33.7398 59.9386C33.2987 60.8442 32.6242 61.6981 32.4426 61.9309C31.0935 62.3708 26.8906 65.1652 26.4755 65.812C26.3976 65.9414 26.3717 66.1225 26.3717 66.3295C23.907 66.8988 20.69 67.7785 19.3928 68.8911C17.0578 70.9351 15.0601 83.0443 15.0601 83.1736C15.0342 83.303 15.138 83.4583 15.2677 83.4583C15.3974 83.4841 15.5531 83.3806 15.5531 83.2513V83.2254C15.7866 81.5953 17.7064 71.0386 19.73 69.3051C20.9235 68.2701 24.0367 67.4162 26.4236 66.8729C26.7349 68.2442 27.9283 70.2624 28.1099 70.547C28.3694 70.9869 29.459 70.961 30.3152 70.8316C29.8741 71.5561 29.1996 72.8498 29.2774 73.3932C29.2774 73.4708 30.4968 80.9226 31.1973 83.8464C31.327 84.4156 31.4567 84.8037 31.5345 84.9331C31.5864 85.0107 31.6642 85.0624 31.7421 85.0624C31.794 85.0624 31.8459 85.0625 31.8718 85.0107C31.9496 84.959 32.0015 84.8555 32.0015 84.7778C32.0015 84.7261 32.0015 84.7002 31.9756 84.6743C31.5864 84.0275 29.952 74.4799 29.7963 73.3414C29.7444 72.9533 30.4968 71.5303 31.0416 70.6505C31.0935 70.5729 31.0935 70.4435 31.0416 70.3659C30.9897 70.2883 30.8859 70.2365 30.7822 70.2624C29.7703 70.4435 28.7066 70.4435 28.551 70.2883C27.6948 68.8652 26.6052 66.5624 26.8906 66.1225C27.2797 65.5016 31.6902 62.6554 32.5982 62.4225C35.3483 69.4086 35.7893 79.2408 35.945 82.9408C35.9969 83.9499 35.9969 84.2862 36.0488 84.4415C36.0488 84.4673 36.0747 84.4932 36.0747 84.5191C36.1266 84.6485 36.2823 84.7261 36.412 84.6743C36.5417 84.6226 36.6195 84.4673 36.5677 84.338C36.5417 84.2862 36.5417 84.0792 36.5158 83.8205C36.5158 83.5876 36.4898 83.2771 36.4639 82.9408C36.3342 80.224 36.0747 74.2212 34.8813 68.4512C35.011 68.4771 35.1407 68.503 35.2445 68.503C35.3742 68.503 35.478 68.4771 35.5818 68.4253C35.9191 68.2701 36.4898 67.8302 37.1384 67.3128C37.5016 68.0631 38.1762 68.7876 39.0064 69.2792C38.7469 72.41 37.9686 81.2072 37.787 83.8722C37.7611 84.2862 37.7351 84.545 37.7351 84.6226C37.7351 84.7778 37.8389 84.8813 37.9946 84.8813C38.1243 84.8813 38.254 84.7778 38.254 84.6226C38.254 84.1569 39.0323 75.1785 39.4993 69.5379C39.9144 69.7191 40.3555 69.8226 40.7965 69.8484C40.8743 69.8484 40.9262 69.8484 41.0041 69.8484C41.6008 69.8484 42.1197 69.6932 42.5866 69.4862L43.4947 84.7261V84.752C43.4947 84.8813 43.6244 84.9848 43.7541 84.9848C43.7541 84.9848 43.7541 84.9848 43.7801 84.9848C43.9357 84.9848 44.0395 84.8555 44.0136 84.7002L43.9617 84.0275L43.0796 69.1757C43.6763 68.7358 44.1433 68.1666 44.4287 67.5974C44.9216 67.9855 45.3367 68.296 45.6221 68.4253C45.7259 68.4771 45.8296 68.503 45.9594 68.503C46.115 68.503 46.2707 68.4771 46.4263 68.4253C45.207 74.2212 44.9475 80.224 44.8178 82.9408C44.7919 83.3806 44.7919 83.7946 44.7659 84.0534C44.7659 84.2086 44.74 84.3121 44.74 84.3639C44.6881 84.4932 44.7659 84.6485 44.8957 84.7002C45.0254 84.752 45.181 84.7002 45.2329 84.545C45.2329 84.5191 45.2589 84.4932 45.2589 84.4673C45.2848 84.3121 45.3108 83.9757 45.3626 82.9666C45.5183 79.2408 45.9594 69.4086 48.7094 62.4484C49.6175 62.6813 54.002 65.5016 54.4171 66.1484C54.7025 66.5883 53.6128 68.8911 52.7567 70.2883C52.601 70.4435 51.5632 70.4435 50.5255 70.2624C50.4217 70.2365 50.3179 70.2883 50.266 70.3659C50.2142 70.4435 50.2142 70.5729 50.266 70.6505C50.8109 71.5303 51.5892 72.9533 51.5114 73.3414C51.3557 74.4799 49.7212 84.0275 49.3321 84.6743C49.3061 84.7002 49.3061 84.752 49.3061 84.7778C49.3061 84.8813 49.3321 84.959 49.4358 85.0107C49.4877 85.0366 49.5137 85.0624 49.5656 85.0624C49.6434 85.0624 49.7472 85.0107 49.7731 84.9331C49.8509 84.8037 49.9807 84.4156 50.1104 83.8464C50.8109 80.9485 52.0043 73.4967 52.0302 73.3932C52.1081 72.8498 51.4076 71.5561 50.9925 70.8316C51.8746 70.9351 52.9383 70.961 53.1977 70.547C53.3793 70.2624 54.5727 68.2442 54.8841 66.8729C57.2969 67.4162 60.4101 68.296 61.5776 69.3051C63.5753 71.0386 65.4951 81.5953 65.7546 83.2254V83.2513C65.7805 83.3806 65.9102 83.4841 66.04 83.4583C66.1697 83.4324 66.2735 83.303 66.2475 83.1736C66.2994 83.0701 64.3277 70.961 61.9668 68.917ZM46.608 67.8302C46.2966 67.9855 46.0372 68.0372 45.8815 67.9596C45.0513 67.5715 42.5348 65.2687 41.03 63.8456C43.0017 63.3281 46.2447 61.1288 47.1787 60.482C47.5679 61.2064 48.0349 61.8274 48.2943 62.1638C47.6198 63.8974 47.049 65.8379 46.608 67.8302ZM41.056 69.3309C41.0041 69.3309 40.9522 69.3309 40.8743 69.3309C39.4474 69.2533 38.0724 68.089 37.5795 66.9764C38.7469 65.9673 40.0441 64.7512 40.6409 64.182C41.2894 64.803 42.8201 66.226 44.0654 67.2869C43.5985 68.2183 42.5607 69.3309 41.056 69.3309ZM33.0133 62.0603C33.2728 61.7239 33.7138 61.1288 34.077 60.4561C35.011 61.1029 38.254 63.3281 40.2257 63.8197C38.721 65.2428 36.2044 67.5456 35.3742 67.9337C35.2445 68.0114 35.011 67.9596 34.7516 67.8561C34.3105 65.8379 33.7398 63.8715 33.0393 62.0862C33.0393 62.0862 33.0393 62.0862 33.0133 62.0603ZM19.3409 45.3714C18.1993 45.3456 17.1356 44.6987 16.3314 43.5344C15.5271 42.37 15.112 40.8176 15.1639 39.1616C15.2158 37.2728 15.9163 35.591 16.9281 34.4784C17.6805 38.5148 19.0555 43.3274 20.3527 43.9742C20.4046 44.3623 20.4565 44.7763 20.5343 45.1644C20.197 45.2938 19.8338 45.3456 19.4447 45.3456C19.3928 45.3714 19.3668 45.3714 19.3409 45.3714ZM14.5413 17.0651C11.6355 16.8063 8.62603 14.4 8.5482 13.1581C8.52226 12.9511 8.57415 12.6664 9.17086 12.5371C10.5978 12.2007 12.9327 12.1231 14.645 12.1231C16.046 12.1231 17.1097 12.1748 17.1356 12.1748C17.2654 12.1748 17.3691 12.0972 17.3951 11.9678C17.421 11.8385 17.3691 11.7091 17.2394 11.6832C15.4233 10.9329 13.9445 8.94057 14.1261 7.98322C14.1521 7.87972 14.204 7.54336 14.9045 7.54336C15.2158 7.54336 15.605 7.62098 16.046 7.75035C18.5626 8.5007 23.2584 8.57833 28.7066 8.65595C32.235 8.7077 35.8931 8.75945 39.4215 8.99231C48.891 9.63917 62.9007 13.9602 63.4715 20.0665C64.0682 26.2763 62.0705 39.9379 60.2804 41.8784C60.1507 42.0078 60.0469 42.0854 59.9691 42.0595C59.1389 41.8525 59.0092 38.7218 58.9054 35.9532C58.7757 32.512 58.6459 28.9672 57.3487 27.9581C53.5609 24.9826 47.5938 23.4819 39.5512 23.4819C29.6925 23.4819 23.907 26.6126 21.8834 27.9581C20.8197 28.6567 20.8456 31.9686 21.0272 36.9106C21.131 39.7309 21.2348 42.9393 20.7419 43.4826C20.69 43.5344 20.664 43.5602 20.6381 43.5602C19.73 43.5602 17.6545 37.2469 17.0059 31.5805C16.513 27.3112 14.8007 17.4014 14.7747 17.2979C14.7488 17.1686 14.671 17.0909 14.5413 17.0651ZM64.6909 39.4204C64.5871 42.7064 62.5894 45.3714 60.2545 45.3714C60.2285 45.3714 60.2026 45.3714 60.1507 45.3714C59.9431 45.3714 59.7356 45.3456 59.554 45.2938C59.6318 44.4141 59.7096 43.4826 59.7615 42.5511C59.7875 42.5511 59.8134 42.577 59.8394 42.577C60.1247 42.6288 60.4101 42.5253 60.6696 42.2407C61.5257 41.2833 62.3819 38.1525 63.0045 34.4267C64.0942 35.5392 64.7687 37.3763 64.6909 39.4204ZM20.8716 44.026C20.9494 44.0001 21.0272 43.9225 21.131 43.8449C21.7277 43.198 21.6758 40.7917 21.5461 36.9106C21.4423 33.3917 21.2867 28.9931 22.1947 28.398C23.7513 27.363 29.5628 24.0252 39.5512 24.0252C47.4641 24.0252 53.3534 25.5001 57.0374 28.398C58.153 29.2777 58.2827 32.8483 58.3865 36.005C58.5162 39.1358 58.62 41.3092 59.2686 42.1889C59.0351 45.8889 58.6719 49.5113 58.1011 50.9861C56.9855 53.8323 48.5537 59.3176 39.9923 59.3176C33.3765 59.3176 24.3221 55.8246 22.6876 52.6421C22.065 51.426 21.4423 47.9071 20.8716 44.026ZM39.9923 59.7834C42.405 59.7834 44.7919 59.3694 47.0231 58.6966C47.049 59.1365 47.049 59.5505 47.0749 59.9127C46.4523 60.3526 42.5348 63.0694 40.6668 63.3799C38.8507 63.0953 35.1667 60.5596 34.3365 59.9645C34.3365 59.654 34.3624 59.3694 34.3624 59.0848C36.2563 59.5246 38.2021 59.7834 39.9923 59.7834Z" fill="#674940"/>
<path d="M49.3584 84.6483C49.7475 84.0014 51.382 74.4539 51.5376 73.3154C51.5895 72.9273 50.8372 71.5042 50.2923 70.6245C50.2404 70.5469 50.2404 70.4175 50.2923 70.3399C50.3442 70.2622 50.448 70.2105 50.5518 70.2364C51.5895 70.4175 52.6273 70.4175 52.783 70.2622C53.6391 68.8392 54.7287 66.5364 54.4434 66.1224C54.0542 65.5014 49.6437 62.6552 48.7357 62.4224C45.9856 69.4084 45.5446 79.2406 45.3889 82.9406C45.337 83.9497 45.337 84.2861 45.2852 84.4413L49.3065 84.7777C49.3324 84.7259 49.3584 84.7001 49.3584 84.6483Z" fill="#A5656A"/>
<path d="M20.6393 43.5601C20.6652 43.5601 20.7171 43.5342 20.743 43.4825C21.236 42.9391 21.1322 39.7307 21.0284 36.9104C20.8728 31.9426 20.8468 28.6566 21.9105 27.9321C23.9341 26.5866 29.6937 23.4558 39.5783 23.4558C47.621 23.4558 53.5881 24.9565 57.3759 27.9321C58.6731 28.9412 58.8028 32.4859 58.9325 35.9272C59.0363 38.6957 59.166 41.8265 59.9962 42.0335C60.074 42.0594 60.2038 41.9818 60.3075 41.8524C62.0977 39.9118 64.0694 26.2503 63.4986 20.0405C62.9019 13.96 48.8922 9.63902 39.4227 8.99217C35.8943 8.7593 32.2362 8.70755 28.7078 8.6558C23.2596 8.57818 18.5637 8.52643 16.0472 7.75021C15.6061 7.62084 15.217 7.54321 14.9056 7.54321C14.2052 7.54321 14.1533 7.87958 14.1273 7.98307C13.9457 8.94042 15.4245 10.9327 17.2147 11.6831C17.3184 11.7348 17.3963 11.8642 17.3703 11.9677C17.3444 12.0971 17.2406 12.1747 17.1109 12.1747C17.1109 12.1747 16.0212 12.1229 14.6203 12.1229C12.908 12.1229 10.573 12.2006 9.14609 12.5369C8.57533 12.6663 8.52344 12.9509 8.52344 13.1579C8.62721 14.3999 11.6367 16.8062 14.5424 17.0649C14.6462 17.0649 14.75 17.1684 14.7759 17.2719C14.8019 17.3754 16.5142 27.2852 17.0071 31.5545C17.6557 37.2468 19.7053 43.5601 20.6393 43.5601Z" fill="#935C4B"/>
<path d="M22.5075 41.5163C22.2481 39.1877 22.6891 32.9002 23.8047 30.9855C24.9203 29.0967 33.7412 25.8883 42.666 26.5093C51.5647 27.1044 54.1591 30.3128 55.4563 32.7191C56.7535 35.1254 56.1568 48.6835 53.6402 52.3059C51.6685 55.1779 45.8311 57.8688 40.7461 59.266C49.0482 58.9556 56.987 53.729 58.1026 50.9604C58.6734 49.4856 59.0625 45.8632 59.2701 42.1632C58.6215 41.2835 58.5177 39.11 58.388 35.9793C58.2583 32.8226 58.1285 29.252 57.0389 28.3722C53.3549 25.4743 47.4656 23.9995 39.5527 23.9995C29.5643 23.9995 23.7269 27.3632 22.1962 28.3722C21.2881 28.9674 21.4438 33.366 21.5476 36.8849C21.6773 40.766 21.7292 43.1723 21.1325 43.8191C21.0547 43.9226 20.9509 43.9744 20.873 44.0003C20.873 44.0261 22.767 43.845 22.5075 41.5163Z" fill="#FCC58D"/>
<path d="M20.3529 44C19.6265 43.6377 18.8741 41.9559 18.2255 39.8342C18.433 42.3958 17.6028 43.6119 16.9023 44.207C17.6028 44.9314 18.459 45.3454 19.3411 45.3713C19.367 45.3713 19.393 45.3713 19.4448 45.3713C19.8081 45.3713 20.1713 45.2937 20.5345 45.1902C20.4567 44.7762 20.4048 44.3881 20.3529 44Z" fill="#FCC58D"/>
<path d="M60.2552 45.3715C61.1892 45.3715 62.0453 44.9576 62.7717 44.259C61.4745 43.5345 61.2151 42.2666 61.3189 41.1282C61.1113 41.6198 60.8778 42.0079 60.6703 42.2408C60.4108 42.5254 60.1255 42.6289 59.8401 42.5771C59.8141 42.5771 59.7882 42.5513 59.7622 42.5513C59.7103 43.4827 59.6325 44.4142 59.5547 45.2939C59.7622 45.3457 59.9438 45.3715 60.1514 45.3715C60.1773 45.3715 60.2292 45.3715 60.2552 45.3715Z" fill="#FCC58D"/>
<path d="M46.9971 58.6968C44.7919 59.3695 42.4051 59.7835 39.9663 59.7835C38.1762 59.7835 36.2304 59.5506 34.3105 59.1366C34.3105 59.1366 38.6432 61.0255 40.9781 61.2842C42.1716 61.4136 42.7683 61.8276 43.0796 62.4227C44.8178 61.4912 46.608 60.2492 47.0231 59.9646C47.049 59.5506 47.0231 59.1366 46.9971 58.6968Z" fill="#FCC58D"/>
<path d="M60.3837 32.9779C60.5653 30.0541 60.9804 26.9492 56.9332 24.1807C52.86 21.4122 38.3314 18.4884 38.2535 19.0835C38.1757 19.6786 39.3691 20.8171 39.3691 20.8171C35.2181 20.1184 23.4655 22.2919 23.4655 22.8094C23.4655 23.3268 25.7226 23.5856 25.0221 23.7667C24.3216 23.9478 21.2084 24.7241 20.0928 26.6129C18.9772 28.5017 19.7555 33.5989 20.1706 38.8514C20.3781 41.3353 20.3003 42.5514 20.1447 43.1465C20.3263 43.4052 20.5079 43.5605 20.6376 43.5605C20.6635 43.5605 20.7154 43.5346 20.7414 43.4829C21.2343 42.9395 21.1305 39.7311 21.0267 36.9108C20.8711 31.943 20.8451 28.6569 21.9088 27.9325C23.9325 26.587 29.692 23.4562 39.5767 23.4562C47.6193 23.4562 53.5864 24.9569 57.3742 27.9325C58.6714 28.9415 58.8011 32.4863 58.9308 35.9276C59.0346 38.6961 59.1643 41.8269 59.9945 42.0339C60.0724 42.0598 60.2021 41.9821 60.3059 41.8528C60.4875 41.6717 60.6431 41.3612 60.8247 40.9731C59.6832 39.7052 60.228 35.3842 60.3837 32.9779Z" fill="#845142"/>
<path d="M29.0716 9.43203C35.7132 9.48378 45.6498 10.1306 53.1476 11.8642C48.7111 10.2859 43.6002 9.27678 39.3973 8.99217C35.8689 8.7593 32.2108 8.70755 28.6824 8.6558C23.2342 8.57818 18.5384 8.52643 16.0218 7.75021C15.5807 7.62084 15.1916 7.54321 14.8803 7.54321C14.1798 7.54321 14.1279 7.87958 14.1019 7.98307C13.9203 8.94042 15.3991 10.9327 17.1893 11.6831C17.293 11.7348 17.3709 11.8642 17.3449 11.9677C17.319 12.0971 17.2152 12.1747 17.0855 12.1747C17.0855 12.1747 15.9958 12.1229 14.5949 12.1229C12.8826 12.1229 10.5476 12.2006 9.1207 12.5369C8.54994 12.6663 8.49805 12.9509 8.49805 13.1579C8.62777 14.3999 11.6373 16.8062 14.543 17.0649C14.6468 17.0649 14.7505 17.1684 14.7765 17.2719C14.7765 17.3237 15.477 21.3342 16.0996 25.3447C15.8402 21.6964 15.477 16.7027 15.3213 16.4957C15.0619 16.1593 9.87308 14.7621 9.69147 13.4684C9.50986 12.1747 18.7718 13.132 18.9535 12.3558C19.1351 11.5796 15.3213 10.2859 15.3213 8.99217C15.3213 7.69846 19.4723 9.32853 29.0716 9.43203Z" fill="#A86956"/>
<path d="M16.7463 21.3858C16.7203 21.2564 16.4868 21.2305 16.4609 21.3858C16.2793 22.6018 16.3052 23.8956 16.2793 25.1375C16.2793 25.3186 16.5647 25.3704 16.5906 25.1893C16.8501 23.9732 16.9798 22.576 16.7463 21.3858Z" fill="#A86956"/>
<path d="M17.6296 21.2828C17.5777 21.1534 17.3961 21.1534 17.3702 21.2828C17.2664 21.5933 17.2923 21.9555 17.3442 22.266C17.3702 22.473 17.6296 22.473 17.6556 22.266C17.6815 21.9555 17.7334 21.5933 17.6296 21.2828Z" fill="#A86956"/>
<path d="M53.4057 12.9509C52.1085 12.2523 50.3703 11.8124 48.8915 11.9159C48.7618 11.9159 48.7099 12.1229 48.8655 12.1488C49.592 12.3558 50.3443 12.4334 51.0967 12.6404C51.8231 12.8215 52.5496 13.1061 53.276 13.2873C53.4576 13.339 53.5873 13.0544 53.4057 12.9509Z" fill="#A86956"/>
<path d="M55.1434 13.3648C54.9877 13.2355 54.858 13.132 54.6504 13.0802C54.4429 13.0285 54.2094 13.0026 53.9759 13.0285C53.7165 13.0543 53.6905 13.4683 53.9759 13.4424C54.3132 13.4166 54.6504 13.5201 54.9877 13.6494C55.1434 13.6753 55.2472 13.4683 55.1434 13.3648Z" fill="#A86956"/>
<path d="M18.0426 10.2602C17.4978 10.1049 17.0827 9.76857 16.6417 9.40633C16.5119 9.30284 16.3044 9.43221 16.3822 9.58745C16.7195 10.1308 17.3421 10.4154 17.9648 10.5189C18.1464 10.5448 18.1983 10.3119 18.0426 10.2602Z" fill="#A86956"/>
<path d="M20.3788 25.1894C19.4449 25.4999 18.5628 26.4831 18.6665 27.5181C18.6925 27.6733 18.9 27.6992 18.9519 27.544C19.1076 27.1041 19.2373 26.6901 19.5227 26.3279C19.7821 25.9915 20.1453 25.7069 20.5086 25.474C20.6642 25.3964 20.5604 25.1377 20.3788 25.1894Z" fill="#845142"/>
<path d="M21.2619 23.7922C20.8468 23.8698 20.5095 24.1027 20.276 24.439C20.1722 24.5943 20.4317 24.8013 20.5354 24.646C20.743 24.3873 21.0284 24.1803 21.3397 24.0768C21.4954 23.9992 21.4435 23.7404 21.2619 23.7922Z" fill="#845142"/>
<path d="M58.7246 24.2323C58.05 23.3267 56.9085 22.6281 55.9226 22.0847C55.767 22.0071 55.6373 22.24 55.7929 22.3176C56.3118 22.6539 56.8307 23.0162 57.2977 23.4043C57.7128 23.7407 58.05 24.1288 58.4911 24.4393C58.6468 24.5686 58.8284 24.3875 58.7246 24.2323Z" fill="#845142"/>
<path d="M59.9688 25.1897C59.7093 24.9568 59.5277 24.6722 59.6315 24.31C59.6834 24.0771 59.3202 23.9736 59.2683 24.2065C59.1385 24.6981 59.3461 25.2673 59.839 25.4225C59.9688 25.4743 60.0725 25.2932 59.9688 25.1897Z" fill="#845142"/>
<path d="M35.7376 19.9888C35.1149 19.9888 34.4663 20.0664 33.8436 20.0923C33.7139 20.0923 33.688 20.2734 33.8177 20.2993C34.4663 20.4286 35.1408 20.4545 35.7894 20.2993C35.9711 20.2475 35.9192 19.9888 35.7376 19.9888Z" fill="#845142"/>
<path d="M37.4506 19.9629C37.2171 19.7818 36.9836 19.73 36.6982 19.8335C36.4647 19.9111 36.5166 20.2475 36.7501 20.2475C36.8279 20.2475 36.9317 20.2475 37.0095 20.2475C37.1133 20.2475 37.2171 20.2475 37.2949 20.2734C37.5284 20.3251 37.6062 20.0923 37.4506 19.9629Z" fill="#845142"/>
<path d="M24.3741 31.4509C23.9071 32.0977 23.6217 33.0551 23.3623 33.8054C23.3104 33.9607 23.5698 34.0901 23.6477 33.9348C24.0109 33.2103 24.4779 32.3306 24.5816 31.5285C24.6076 31.3733 24.426 31.3733 24.3741 31.4509Z" fill="#FCC58D"/>
<path d="M25.3864 30.9595C25.0491 31.1923 24.9713 31.6322 24.9453 32.0203C24.9453 32.1756 25.1529 32.2014 25.2048 32.0462C25.3085 31.7357 25.5161 31.4511 25.6199 31.1147C25.6458 31.0112 25.5161 30.8818 25.3864 30.9595Z" fill="#FCC58D"/>
<path d="M40.2009 63.8198C39.0075 64.5443 37.7881 65.1912 36.5169 65.7604C35.7905 66.0968 34.8305 66.3555 34.2598 65.8121C34.4414 66.4849 34.597 67.1576 34.7527 67.8562C35.0121 67.9597 35.2197 68.0114 35.3754 67.9338C36.2056 67.5457 38.7221 65.2429 40.2269 63.8198C40.2269 63.8457 40.2269 63.8198 40.2009 63.8198Z" fill="#D7E5EC"/>
<path d="M44.3256 65.3463C45.1818 65.7861 46.1157 66.226 47.0238 66.1225C47.387 64.7512 47.8021 63.4057 48.321 62.1379C48.0615 61.8015 47.5945 61.1805 47.2054 60.4561C46.2973 61.077 43.21 63.1987 41.2383 63.768C42.276 64.3113 43.2879 64.8288 44.3256 65.3463Z" fill="white"/>
<path d="M37.0855 76.886C36.9818 74.8936 36.9299 72.9013 36.9039 70.909C36.9039 69.874 36.9558 68.7356 37.5785 67.9594C37.4228 67.7524 37.2671 67.5195 37.1634 67.2866C36.5148 67.83 35.944 68.244 35.6067 68.3992C35.503 68.451 35.3992 68.4768 35.2695 68.4768C35.1657 68.4768 35.036 68.451 34.9062 68.4251C36.1256 74.195 36.3851 80.1978 36.4888 82.9146C36.5148 83.251 36.5148 83.5615 36.5407 83.7944L37.812 83.8202C37.3709 81.5692 37.1893 79.2146 37.0855 76.886Z" fill="#D7E5EC"/>
<path d="M46.0116 68.5028C45.8819 68.5028 45.7781 68.4769 45.6743 68.4252C45.4668 68.3217 45.1555 68.1147 44.8182 67.856C44.922 68.1147 44.9739 68.3734 45.0257 68.6581C45.1814 69.4602 45.1295 70.314 45.0776 71.142C44.8701 74.8937 44.6625 78.6972 43.9102 82.3714L44.0139 84.0532L44.8441 84.0791C44.8701 83.8203 44.8701 83.4064 44.896 82.9665C45.0257 80.2497 45.2852 74.2469 46.5045 68.4511C46.3229 68.4769 46.1673 68.5028 46.0116 68.5028Z" fill="#D7E5EC"/>
<path d="M44.0661 67.2609C42.7948 66.2001 41.2901 64.777 40.6415 64.156C40.0448 64.7252 38.7476 65.9413 37.5801 66.9504C37.7617 67.3903 38.099 67.8301 38.5141 68.2183C38.4362 67.649 38.6438 67.0022 39.0589 66.5882C39.5778 66.0707 40.3561 65.8637 41.0825 65.9672C41.9646 66.1224 42.7689 66.7434 43.1061 67.5973C43.2099 67.856 43.2618 68.1148 43.2618 68.3735C43.5991 68.0371 43.8845 67.649 44.0661 67.2609Z" fill="#D82E35"/>
<path d="M42.6381 69.4602C42.1711 69.6931 41.6522 69.8224 41.0555 69.8224C40.9777 69.8224 40.9258 69.8224 40.848 69.8224C40.4069 69.7966 39.9659 69.6931 39.5508 69.512C39.5508 69.5637 39.5508 69.5896 39.5508 69.6413C39.7843 70.0036 40.1475 70.3141 40.5626 70.4952C41.1074 70.728 41.7041 70.8057 42.3008 70.8574C42.4565 70.8833 42.5862 70.8833 42.7419 70.8833L42.6381 69.4602Z" fill="#D82E35"/>
<path d="M61.6293 69.305C60.4359 68.27 57.3226 67.4162 54.9358 66.8728C54.6245 68.2441 53.431 70.2623 53.2494 70.5469C52.99 70.9868 51.9004 70.9609 51.0442 70.8316C51.4853 71.556 52.1598 72.8497 52.082 73.3931C52.082 73.4707 50.8626 80.9225 50.1621 83.8463L51.6409 83.7945C51.9522 80.6637 52.549 77.533 53.431 74.5316C53.5348 74.1952 53.6386 73.833 53.8721 73.5742C54.2353 73.1602 54.7801 73.0309 55.299 72.9015C55.8698 72.7721 56.4405 72.6428 57.0113 72.7204C58.4382 72.9274 59.2944 74.3763 59.8133 75.7218C60.7991 78.1798 61.3439 80.819 61.4737 83.4582L65.7804 83.3029C65.5469 81.6211 63.627 71.0385 61.6293 69.305Z" fill="#985D61"/>
<path d="M31.2227 83.8463C30.5222 80.9484 29.3288 73.4966 29.3028 73.3931C29.225 72.8497 29.9255 71.556 30.3406 70.8316C29.4585 70.935 28.3948 70.9609 28.1353 70.5469C27.9537 70.2623 26.7603 68.2441 26.449 66.8728C26.0339 66.9763 25.6188 67.0798 25.1777 67.1833C25.8004 67.9595 26.2155 68.9427 26.5528 69.9001C27.383 72.2288 27.9278 74.6609 27.9537 77.119C27.9797 79.37 27.5386 81.6728 26.5268 83.691L31.2227 83.8463Z" fill="#985D61"/>
<path d="M33.9219 84.6226L36.0493 84.4415C36.0233 84.2862 35.9974 83.9499 35.9455 82.9408C35.8158 80.2498 35.5823 74.3505 34.3889 68.6582C34.311 69.4344 34.4667 70.2624 34.5705 71.0386C34.8559 73.4449 34.4148 75.8512 34.2073 78.2834C34.0516 80.4051 34.0775 82.5268 33.9219 84.6226Z" fill="#985D61"/>
<path d="M46.3224 72.3325C45.6738 76.757 45.4922 80.8451 45.4143 82.9668C45.3624 83.9759 45.3624 84.3123 45.3105 84.4675L47.4379 84.6486C46.7634 80.5346 46.2445 76.4206 46.3224 72.3325Z" fill="#985D61"/>
<path d="M49.0737 63.4317C48.477 64.6996 48.1138 66.0968 47.8284 67.4681C47.8025 67.5975 48.01 67.6492 48.036 67.5198C48.3992 66.1744 48.8662 64.8548 49.2813 63.5093C49.3072 63.38 49.1256 63.3023 49.0737 63.4317Z" fill="#BF757A"/>
<path d="M47.8797 68.7097C47.8538 68.5545 47.6203 68.5545 47.6203 68.7097C47.6462 68.9684 47.6462 69.2013 47.5943 69.46C47.5684 69.5894 47.75 69.6412 47.7759 69.5118C47.8797 69.2531 47.9057 68.9943 47.8797 68.7097Z" fill="#BF757A"/>
<path d="M33.7143 67.2609C33.403 66.0449 33.0917 64.777 32.5209 63.6644C32.469 63.5351 32.2614 63.6386 32.2874 63.7679C32.6247 64.9581 33.1176 66.1225 33.4808 67.3127C33.5327 67.4679 33.7662 67.4162 33.7143 67.2609Z" fill="#BF757A"/>
<path d="M34.1814 69.072C34.1036 68.865 33.9998 68.6321 33.9479 68.4251C33.896 68.244 33.6366 68.3216 33.6885 68.5027C33.7404 68.7615 33.8182 68.9943 33.9998 69.2013C34.0517 69.279 34.2333 69.1755 34.1814 69.072Z" fill="#BF757A"/>
<path d="M19.1332 70.9349C18.4068 73.0825 17.7323 75.23 17.1875 77.4293C17.1356 77.6363 17.4469 77.7139 17.4988 77.507C18.1993 75.3594 18.8219 73.186 19.4965 71.0384C19.6002 70.7797 19.2111 70.702 19.1332 70.9349Z" fill="#BF757A"/>
<path d="M17.0053 78.6456C16.9274 79.0855 16.8496 79.5254 16.8496 79.9911C16.8496 80.1205 17.0312 80.1463 17.0831 80.017C17.2128 79.5771 17.2388 79.1372 17.2907 78.6974C17.3166 78.5163 17.0312 78.4904 17.0053 78.6456Z" fill="#BF757A"/>
<path d="M30.4185 73.9364C30.3926 73.8329 30.211 73.8588 30.2369 73.9882C30.6001 75.6959 30.8855 77.4036 31.2228 79.0854C31.2487 79.2148 31.4563 79.1889 31.4563 79.0595C31.3006 77.3259 30.9374 75.6182 30.4185 73.9364Z" fill="#BF757A"/>
<path d="M31.9239 81.1036C31.7683 80.6379 31.6385 80.198 31.6645 79.7064C31.6645 79.577 31.4569 79.5511 31.431 79.6805C31.3532 80.198 31.3532 80.7672 31.6904 81.2071C31.7683 81.3106 31.9499 81.2588 31.9239 81.1036Z" fill="#BF757A"/>
<path d="M50.8129 73.9365C50.7863 73.9365 50.7863 73.963 50.8129 73.963V73.9365Z" fill="#BF757A"/>
<path d="M50.9918 73.7296C50.7583 74.9198 50.4988 76.0841 50.2913 77.3002C50.2654 77.4554 50.4729 77.5072 50.5248 77.3519C50.888 76.1876 51.0696 74.9974 51.2772 73.8072C51.2772 73.6261 51.0177 73.5484 50.9918 73.7296Z" fill="#BF757A"/>
<path d="M39.6801 75.1785C39.6801 75.075 39.5504 75.075 39.5245 75.1785C39.3429 76.9638 39.1872 78.8008 39.1094 80.612C39.1094 80.7673 39.3688 80.819 39.3948 80.6638C39.7839 78.9043 39.8617 76.9638 39.6801 75.1785Z" fill="#F05C51"/>
<path d="M39.2667 81.7507C39.2408 81.5955 39.0332 81.6214 38.9813 81.7507C38.8516 82.1647 38.8516 82.7081 38.9035 83.148C38.9295 83.3032 39.137 83.3549 39.1889 83.1738C39.3186 82.734 39.3705 82.1906 39.2667 81.7507Z" fill="#F05C51"/>
<path d="M41.239 68.7615C40.5904 68.5804 39.9418 68.451 39.2932 68.1923C39.1635 68.1405 39.1116 68.3216 39.2154 68.3992C39.8121 68.7615 40.5126 69.0461 41.213 69.072C41.3687 69.072 41.4206 68.8132 41.239 68.7615Z" fill="#F05C51"/>
<path d="M40.5628 47.6228C40.1218 47.6228 39.6807 47.4675 39.3435 47.2864C39.2137 47.2347 39.1619 47.0794 39.2397 46.95C39.2916 46.8207 39.4472 46.7689 39.577 46.8465C39.9142 47.0277 40.5628 47.2605 40.9779 47.0277C41.2633 46.8724 41.419 46.5102 41.4449 45.9668C41.4709 45.6046 41.393 45.32 41.1595 45.0871C40.7185 44.6472 39.8883 44.5437 39.577 44.5696C39.4213 44.5696 39.3175 44.4661 39.3175 44.3109C39.3175 44.1556 39.4213 44.0521 39.577 44.0521C39.6289 44.0521 40.8742 44.0262 41.5487 44.7249C41.86 45.0612 42.0157 45.4752 41.9638 45.9927C41.9119 46.7172 41.6525 47.2347 41.2374 47.4675C41.0298 47.571 40.7963 47.6228 40.5628 47.6228Z" fill="#674940"/>
<path d="M31.791 42.1637C32.751 42.1637 33.5292 41.3875 33.5292 40.4301C33.5292 39.4727 32.751 38.6965 31.791 38.6965C30.831 38.6965 30.0527 39.4727 30.0527 40.4301C30.0527 41.3875 30.831 42.1637 31.791 42.1637Z" fill="#674940"/>
<path d="M31.7665 39.7313C31.7665 40.0418 31.5071 40.3006 31.1958 40.3006C30.8844 40.3006 30.625 40.0418 30.625 39.7313C30.625 39.4209 30.8844 39.1621 31.1958 39.1621C31.5071 39.1621 31.7665 39.4209 31.7665 39.7313Z" fill="white"/>
<path d="M48.5039 42.1634C49.4639 42.1634 50.2421 41.3873 50.2421 40.4299C50.2421 39.4724 49.4639 38.6963 48.5039 38.6963C47.5439 38.6963 46.7656 39.4724 46.7656 40.4299C46.7656 41.3873 47.5439 42.1634 48.5039 42.1634Z" fill="#674940"/>
<path d="M48.4775 39.7313C48.4775 40.0418 48.218 40.3006 47.9067 40.3006C47.5954 40.3006 47.3359 40.0418 47.3359 39.7313C47.3359 39.4209 47.5954 39.1621 47.9067 39.1621C48.218 39.1621 48.4775 39.4209 48.4775 39.7313Z" fill="white"/>
<path d="M45.7125 35.8494C44.9873 35.7458 45.324 34.3989 45.6348 33.9845C45.9456 33.5442 51.4624 33.0262 52.4985 33.337C53.5345 33.6737 54.0266 34.5802 53.8971 35.1241C53.7158 35.7199 47.2924 36.1084 45.7125 35.8494Z" fill="#935C4B"/>
<path d="M47.2401 36.1858C46.748 36.1858 46.0746 36.1599 45.6602 36.1081C45.4012 36.0563 45.194 35.9009 45.0904 35.6678C44.8573 35.1239 45.1163 34.2432 45.4012 33.8547C45.7897 33.3108 49.9597 33 51.2806 33C51.9023 33 52.3167 33.0259 52.5498 33.1036C53.6894 33.4662 54.2851 34.5022 54.1038 35.2016C54.052 35.3829 53.9743 35.6937 51.4619 35.9527C50.141 36.1081 48.5093 36.1858 47.2401 36.1858ZM46.8038 33.8912C46.1399 34.0065 45.547 34.438 45.5283 35.1117C45.5261 35.1906 45.5314 35.2646 45.5461 35.3297C45.5625 35.4021 45.5816 35.4745 45.6375 35.5232C45.7026 35.58 45.8065 35.572 45.8922 35.5827C46.2088 35.6221 46.6782 35.6419 47.266 35.6419C48.7037 35.6419 50.3727 35.5381 51.6487 35.3927C52.9456 35.2448 53.6622 33.9457 52.4203 33.5439C52.3167 33.518 52.0318 33.4662 51.3065 33.4662C49.8861 33.4842 47.9664 33.6894 46.8038 33.8912Z" fill="#674940"/>
<path d="M34.4237 35.8494C35.1489 35.7458 34.8122 34.3989 34.5014 33.9845C34.1906 33.5442 28.6737 33.0262 27.6377 33.337C26.6017 33.6737 26.1096 34.5802 26.2391 35.1241C26.4204 35.7199 32.8438 36.1084 34.4237 35.8494Z" fill="#935C4B"/>
<path d="M32.8958 36.1858C32.8181 36.1858 26.2652 36.134 26.0321 35.2016C25.8508 34.5022 26.4465 33.4662 27.5862 33.1036C27.8193 33.0259 28.2337 33 28.8553 33C30.1762 33 34.3203 33.3108 34.7347 33.8547C35.0196 34.2432 35.2787 35.1498 35.0455 35.6678C34.9419 35.9268 34.7347 36.0822 34.4757 36.1081C34.0613 36.1599 33.3879 36.1858 32.8958 36.1858ZM27.7675 33.5957C26.5264 33.9858 27.2183 35.2688 28.5108 35.4171C29.7857 35.5633 31.4532 35.6678 32.8958 35.6678C33.501 35.6678 33.9806 35.6469 34.2972 35.605C34.3645 35.5961 34.431 35.5859 34.4891 35.5507C34.5607 35.5072 34.5989 35.4221 34.6121 35.3393C34.6271 35.2456 34.6261 35.1346 34.6136 35.0177C34.55 34.4272 34.067 34.0353 33.4827 33.9285C32.3382 33.7191 30.3348 33.518 28.8812 33.518C28.156 33.518 27.8711 33.5698 27.7675 33.5957Z" fill="#674940"/>
<path d="M39.6617 52.9264C38.1854 52.9264 37.2012 52.512 37.1494 52.4861C37.0199 52.4343 36.968 52.2789 37.0199 52.1494C37.118 51.9039 37.4829 52.0707 37.7369 52.1438C38.4546 52.3502 40.1153 52.6802 42.0964 52.0199C42.2259 51.968 42.3813 52.0458 42.4331 52.1753C42.4849 52.3048 42.4072 52.4602 42.2777 52.512C41.2935 52.8228 40.4128 52.9264 39.6617 52.9264Z" fill="#674940"/>
</g>
</svg>
