<svg width="17" height="20" viewBox="0 0 17 20" fill="none" xmlns="http://www.w3.org/2000/svg">
<g clip-path="url(#clip0_1910_14186)">
<path d="M11.5526 1.36725L2.26865 5.85944C1.93855 6.01569 1.48467 5.8985 1.31962 5.586L1.27835 5.46881C1.11331 5.15631 1.23709 4.72662 1.56719 4.57037L10.8512 0.0781854C11.1813 -0.0780646 11.6352 0.0391229 11.8002 0.351623L11.8415 0.46881C12.0065 0.78131 11.8827 1.17194 11.5526 1.36725Z" fill="#0341A3"/>
<path d="M14.6068 8.53908L14.3865 8.65727L14.4572 8.78908H14.6068H15.2233V10.8985V11.1485H15.4733H16.3811H16.6311V10.8985V6.95315V6.70315H16.3811H15.5292L15.507 6.66763L15.2547 6.26408C15.0459 5.92973 14.7675 5.48321 14.4892 5.0343C14.2108 4.58525 13.9327 4.13441 13.7245 3.79123C13.6203 3.61944 13.5342 3.47575 13.4744 3.3731C13.4444 3.32147 13.4221 3.28214 13.4078 3.25554C13.4039 3.24834 13.4011 3.24289 13.399 3.23894C13.3853 3.19864 13.361 3.16115 13.3265 3.13111C13.279 3.08968 13.2292 3.07746 13.2063 3.07326C13.1625 3.06525 13.1267 3.07106 13.1181 3.07247L13.1175 3.07255C13.093 3.07652 13.0718 3.08348 13.0627 3.0865C13.0396 3.09421 13.012 3.10523 12.9843 3.11685C12.9268 3.14098 12.8455 3.17756 12.7456 3.22374C12.545 3.31656 12.2597 3.45285 11.919 3.61778C11.2371 3.94786 10.3286 4.39503 9.42067 4.84432C8.51261 5.29368 7.60461 5.74545 6.92367 6.08487C6.58319 6.25458 6.29945 6.39622 6.10082 6.49542L5.87026 6.61063L5.84147 6.62502H0.0412621H-0.207953L-0.208737 6.87424L-0.249999 19.9992L-0.250787 20.25H0H16.4223H16.6723V20V15.8985V15.6485H16.4223H15.5146H15.2646V15.8985V18.6953H1.15871L1.19809 8.25H6.18932H6.24505L6.29551 8.22633L6.18932 8L6.29558 8.22629L6.2958 8.22619L6.29669 8.22577L6.30025 8.2241L6.31429 8.21752L6.36911 8.19181L6.57725 8.09429C6.75659 8.0103 7.01279 7.8904 7.32025 7.74676C7.93517 7.45947 8.75499 7.07727 9.57474 6.69755C10.3947 6.31774 11.2138 5.94072 11.8277 5.66366C12.1349 5.52501 12.3894 5.41202 12.5664 5.33635C12.5852 5.3283 12.603 5.32073 12.6198 5.31364C12.6705 5.41481 12.7385 5.54755 12.8182 5.70109C12.9928 6.03758 13.2254 6.47834 13.4576 6.916C13.6898 7.35381 13.922 7.78912 14.0962 8.11493L14.3066 8.50826L14.3656 8.61832L14.3812 8.64731L14.3851 8.65475L14.3862 8.65663L14.3864 8.65711L14.3865 8.65723L14.6068 8.53908ZM12.9126 3.32033C12.9126 3.33356 12.9137 3.3461 12.9154 3.35743C12.9136 3.34512 12.9126 3.33272 12.9126 3.32033Z" fill="#0341A3" stroke="#0341A3" stroke-width="0.5"/>
<path d="M16.538 12H16.3841H15.6141H12.1495C11.88 12 11.6875 12.1593 11.6875 12.3186V14.6814C11.6875 14.8673 11.9185 15 12.1495 15H15.6141H16.3841H16.538C16.8075 15 17 14.8407 17 14.6814V12.3186C17 12.1593 16.769 12 16.538 12Z" fill="#0341A3"/>
</g>
<defs>
<clipPath id="clip0_1910_14186">
<rect width="17" height="20" fill="white"/>
</clipPath>
</defs>
</svg>
