<svg width="87" height="76" viewBox="0 0 87 76" fill="none" xmlns="http://www.w3.org/2000/svg">
<g clip-path="url(#clip0_1638_4698)">
<path opacity="0.18" d="M45.2776 0.0187872C55.9563 -0.240535 65.7185 4.11238 71.2542 11.3178C82.4004 25.8028 84.4576 40.2693 76.9769 47.8823C75.4247 49.4753 70.9737 53.2725 64.372 54.6432C53.7495 56.8475 49.1302 50.2903 40.3404 51.9759C28.7267 54.2172 27.4924 67.4797 19.6751 67.8872C12.2132 68.2576 4.05924 56.6437 2.86234 45.6781C0.786456 26.692 18.7774 2.55644 42.3789 0.185494C43.3701 0.0928793 44.3239 0.0373102 45.2776 0.0187872Z" fill="#94C8E3"/>
<path d="M23.5098 16.5781L23.6033 17.1153H23.5846L23.5098 16.5781Z" fill="#ABBAC2"/>
<path d="M23.6585 18.2636C23.6585 18.6526 23.6211 19.0231 23.565 19.3935L23.4902 19.375C23.565 19.0046 23.6024 18.6341 23.6211 18.2451L23.6585 18.2636Z" fill="#ABBAC2"/>
<path d="M23.3049 20.5048C23.1927 20.8753 23.0431 21.2272 22.8748 21.5606L22.7812 21.5051C22.9496 21.1716 23.0992 20.8197 23.2114 20.4678L23.3049 20.5048Z" fill="#ABBAC2"/>
<path d="M22.2936 22.5609C22.0692 22.8758 21.826 23.1722 21.5642 23.45L21.4707 23.3574C21.7325 23.0981 21.9756 22.8017 22.2001 22.4868L22.2936 22.5609Z" fill="#ABBAC2"/>
<path d="M20.6871 24.2093C20.3692 24.4315 20.0512 24.6353 19.6959 24.802L19.6211 24.6538C19.9577 24.4871 20.2757 24.3019 20.5936 24.0796L20.6871 24.2093Z" fill="#ABBAC2"/>
<path d="M18.6107 25.2283C18.2366 25.3394 17.8626 25.395 17.4699 25.4505L17.4512 25.2838C17.8252 25.2468 18.1992 25.1727 18.5733 25.0801L18.6107 25.2283Z" fill="#ABBAC2"/>
<path d="M16.3099 25.4692C15.9172 25.4507 15.5431 25.4137 15.1504 25.3581L15.1878 25.1729C15.5618 25.2284 15.9359 25.284 16.3099 25.284V25.4692Z" fill="#ABBAC2"/>
<path d="M14.0281 25.0986C13.654 24.9875 13.2987 24.8393 12.9434 24.6726L13.0182 24.5059C13.3548 24.6726 13.7101 24.8022 14.0655 24.9134L14.0281 25.0986Z" fill="#ABBAC2"/>
<path d="M11.9896 24.0059C11.8586 23.8577 11.7277 23.7095 11.6529 23.5058C11.5781 23.3206 11.5594 23.0983 11.5968 22.8945L11.7651 22.9131C11.7464 23.0983 11.7464 23.265 11.8212 23.4317C11.8961 23.5984 12.0083 23.7466 12.1392 23.8763L11.9896 24.0059Z" fill="#ABBAC2"/>
<path d="M12.1582 21.8755C12.2517 21.82 12.3639 21.7644 12.4761 21.7829C12.5883 21.8015 12.7006 21.8385 12.7754 21.9126C12.9437 22.0423 13.0746 22.209 13.1494 22.3942L12.9998 22.4498C12.9437 22.2831 12.8315 22.1349 12.6818 22.0423C12.607 21.9867 12.5322 21.9496 12.4574 21.9496C12.3826 21.9496 12.3078 21.9682 12.233 22.0237L12.1582 21.8755Z" fill="#ABBAC2"/>
<path d="M12.8879 23.5243C12.6635 23.8391 12.383 24.117 12.065 24.3393L11.9902 24.2281C12.2895 24.0059 12.57 23.7465 12.7757 23.4316L12.8879 23.5243Z" fill="#ABBAC2"/>
<path d="M10.9798 24.7838C10.5871 24.8208 10.1943 24.7653 9.82031 24.6541L9.85772 24.5615C10.213 24.6727 10.6058 24.7282 10.9611 24.6727L10.9798 24.7838Z" fill="#ABBAC2"/>
<path d="M8.79221 24.1354C8.47428 23.9317 8.17506 23.6909 7.89453 23.413L7.93193 23.376C8.21246 23.6353 8.51168 23.8576 8.84831 24.0613L8.79221 24.1354Z" fill="#ABBAC2"/>
<path d="M7.12764 22.5798L6.79102 22.1353L7.12764 22.5798Z" fill="#ABBAC2"/>
<path d="M69.1426 5.35352L69.6662 5.55727V5.57579L69.1426 5.35352Z" fill="#ABBAC2"/>
<path d="M70.6945 6.07617C71.0311 6.27993 71.3303 6.5022 71.6296 6.743L71.5922 6.79857C71.3116 6.55777 70.9937 6.31697 70.6758 6.11322L70.6945 6.07617Z" fill="#ABBAC2"/>
<path d="M72.4693 7.53906C72.7312 7.81691 72.9556 8.1318 73.18 8.44669L73.0865 8.50226C72.8808 8.18737 72.6564 7.891 72.3945 7.59463L72.4693 7.53906Z" fill="#ABBAC2"/>
<path d="M73.7216 9.44727C73.8899 9.7992 74.0208 10.1511 74.1143 10.5216L73.9834 10.5586C73.8899 10.1882 73.759 9.83625 73.6094 9.50283L73.7216 9.44727Z" fill="#ABBAC2"/>
<path d="M74.3402 11.6514C74.3776 12.0404 74.3776 12.4108 74.3589 12.7998L74.1906 12.7813C74.228 12.4108 74.2093 12.0404 74.1719 11.6514H74.3402Z" fill="#ABBAC2"/>
<path d="M74.1713 13.9296C74.0777 14.3001 73.9281 14.6705 73.7785 15.0039L73.6289 14.9298C73.7972 14.5964 73.9281 14.2445 74.0216 13.874L74.1713 13.9296Z" fill="#ABBAC2"/>
<path d="M73.2185 16.0228C73.0128 16.3377 72.7884 16.6526 72.5266 16.9489L72.377 16.8378C72.6201 16.56 72.8445 16.2451 73.0502 15.9302L73.2185 16.0228Z" fill="#ABBAC2"/>
<path d="M71.7228 17.7639C71.4423 18.0233 71.1243 18.2641 70.8064 18.4678L70.7129 18.3196C71.0308 18.1159 71.33 17.8936 71.6106 17.6343L71.7228 17.7639Z" fill="#ABBAC2"/>
<path d="M69.722 18.9496C69.535 18.9866 69.3293 19.0237 69.1235 18.9866C68.9178 18.9681 68.7121 18.857 68.5625 18.7273L68.6747 18.5977C68.8243 18.7088 68.9739 18.7829 69.1423 18.8199C69.3106 18.8385 69.4976 18.8199 69.6846 18.7829L69.722 18.9496Z" fill="#ABBAC2"/>
<path d="M67.9629 17.727C67.9629 17.6159 67.9816 17.5047 68.0564 17.4121C68.1312 17.3195 68.2247 17.2639 68.3182 17.2084C68.5052 17.1343 68.7297 17.1158 68.9354 17.1528L68.898 17.301C68.7297 17.2639 68.5426 17.2825 68.3743 17.3566C68.2995 17.3936 68.2247 17.4306 68.1873 17.5047C68.1499 17.5603 68.1312 17.6344 68.1312 17.727H67.9629Z" fill="#ABBAC2"/>
<path d="M69.7766 17.9492C69.9449 18.3012 70.0384 18.6901 70.0571 19.0606L69.9262 19.0791C69.8888 18.7087 69.7953 18.3382 69.627 18.0048L69.7766 17.9492Z" fill="#ABBAC2"/>
<path d="M69.8898 20.2089C69.7215 20.5608 69.4784 20.8757 69.1791 21.1165L69.123 21.0424C69.4036 20.7831 69.6467 20.4867 69.7963 20.1533L69.8898 20.2089Z" fill="#ABBAC2"/>
<path d="M68.2069 21.7465C67.8516 21.9132 67.4963 22.0429 67.1222 22.154L67.1035 22.1169C67.4775 22.0058 67.8329 21.8761 68.1695 21.6909L68.2069 21.7465Z" fill="#ABBAC2"/>
<path d="M65.9994 22.3759L65.457 22.4315L65.9994 22.3574V22.3759Z" fill="#ABBAC2"/>
<path d="M21.4701 9.94678C21.4701 9.94678 17.898 23.1167 18.2534 23.7279C18.6274 24.3392 27.3798 27.4696 30.2224 25.2283C30.2224 25.2283 30.0167 23.1722 30.2972 21.5237C30.5964 19.8751 32.504 11.8732 32.504 11.8732L21.4701 9.94678Z" fill="white"/>
<path d="M28.3145 25.5246C28.595 25.2838 28.8755 25.043 29.0999 24.7836C29.2121 24.654 29.3243 24.5058 29.4366 24.3576C29.5488 24.2094 29.6423 24.0612 29.7358 23.8945C29.6984 24.0798 29.6423 24.265 29.5488 24.4317C29.4553 24.5984 29.3617 24.7466 29.2308 24.8948C29.0999 25.043 28.969 25.1726 28.8007 25.2652C28.6698 25.3764 28.5015 25.469 28.3145 25.5246Z" fill="#ABBAC2"/>
<path d="M22.4414 12.188L23.4326 12.3917L24.4238 12.5955L26.3875 13.003C27.042 13.1327 27.6966 13.2623 28.3511 13.392C29.0057 13.5031 29.6789 13.6143 30.3335 13.6884C30.1652 13.6884 29.9969 13.6884 29.8286 13.6884L29.3236 13.6513C28.987 13.6143 28.6503 13.5772 28.3137 13.5402C27.6405 13.4476 26.9859 13.3364 26.3313 13.1882C25.6768 13.0586 25.0222 12.9104 24.3677 12.7437C23.7318 12.577 23.0773 12.3917 22.4414 12.188Z" fill="#ABBAC2"/>
<path d="M22.1992 13.7256L23.1904 13.9293L24.1816 14.1331L26.1453 14.5406C26.7998 14.6703 27.4544 14.7999 28.1089 14.9296C28.7635 15.0407 29.4367 15.1519 30.0913 15.226C29.923 15.226 29.7547 15.226 29.5864 15.226L29.0814 15.1889C28.7448 15.1519 28.4082 15.1148 28.0715 15.0778C27.3983 14.9852 26.7437 14.874 26.0892 14.7258C25.4346 14.5962 24.78 14.448 24.1255 14.2813C23.4896 14.096 22.8538 13.9293 22.1992 13.7256Z" fill="#ABBAC2"/>
<path d="M21.9727 15.2627L22.9638 15.4664L23.955 15.6702L25.9187 16.0777C26.5733 16.2074 27.2278 16.337 27.8824 16.4667C28.5369 16.5778 29.2102 16.689 29.8647 16.7631C29.6964 16.7631 29.5281 16.7631 29.3598 16.7631L28.8549 16.726C28.5182 16.689 28.1816 16.6519 27.845 16.6149C27.1717 16.5223 26.5172 16.4111 25.8626 16.2629C25.208 16.1333 24.5535 15.9851 23.8989 15.8184C23.2631 15.6332 22.6085 15.4664 21.9727 15.2627Z" fill="#ABBAC2"/>
<path d="M21.7305 16.8003L22.7217 17.004L23.7128 17.2078L25.6765 17.6153C26.3311 17.745 26.9856 17.8746 27.6402 18.0043C28.2947 18.1154 28.968 18.2266 29.6226 18.3007C29.4542 18.3007 29.2859 18.3007 29.1176 18.3007L28.6127 18.2636C28.276 18.2266 27.9394 18.1895 27.6028 18.1525C26.9295 18.0599 26.275 17.9487 25.6204 17.8005C24.9659 17.6709 24.3113 17.5227 23.6567 17.356C23.0209 17.1708 22.385 17.004 21.7305 16.8003Z" fill="#ABBAC2"/>
<path d="M21.5078 18.3379L22.499 18.5416L23.4902 18.7454L25.4539 19.1529C26.1084 19.2826 26.763 19.4122 27.4175 19.5419C28.0721 19.653 28.7453 19.7642 29.3999 19.8383C29.2316 19.8383 29.0633 19.8383 28.895 19.8383L28.39 19.8012C28.0534 19.7642 27.7168 19.7271 27.3801 19.6901C26.7069 19.5975 26.0523 19.4863 25.3978 19.3381C24.7432 19.2085 24.0886 19.0603 23.4341 18.8936C22.7982 18.7084 22.1437 18.5416 21.5078 18.3379Z" fill="#ABBAC2"/>
<path d="M21.2812 19.875L22.2724 20.0788L23.2636 20.2825L25.2273 20.69C25.8818 20.8197 26.5364 20.9493 27.191 21.079C27.8455 21.1901 28.5188 21.3013 29.1733 21.3754C29.005 21.3754 28.8367 21.3754 28.6684 21.3754L28.1635 21.3383C27.8268 21.3013 27.4902 21.2642 27.1536 21.2272C26.4803 21.1346 25.8257 21.0234 25.1712 20.8752C24.5166 20.7456 23.8621 20.5974 23.2075 20.4307C22.5717 20.2455 21.9171 20.0788 21.2812 19.875Z" fill="#ABBAC2"/>
<path d="M21.0391 21.4126L22.0302 21.6164L23.0214 21.8201L24.9851 22.2276C25.6397 22.3573 26.2942 22.4869 26.9488 22.6166C27.6033 22.7277 28.2766 22.8389 28.9312 22.913C28.7628 22.913 28.5945 22.913 28.4262 22.913L27.9213 22.8759C27.5846 22.8389 27.248 22.8018 26.9114 22.7648C26.2381 22.6722 25.5836 22.561 24.929 22.4128C24.2744 22.2832 23.6199 22.135 22.9653 21.9683C22.3295 21.7831 21.6749 21.6164 21.0391 21.4126Z" fill="#ABBAC2"/>
<path d="M70.5448 42.0103C70.5448 42.0103 74.0607 38.8429 73.5744 37.2684C73.1069 35.694 73.9111 33.9343 72.8264 32.0264C71.7417 30.1185 71.2367 30.4519 68.6746 29.9889C66.1125 29.5258 65.7197 28.1551 63.4568 29.8777C61.2314 31.5633 61.7176 32.6377 64.5228 32.8785C66.206 33.0266 68.2819 32.545 68.4689 35.5828C68.712 39.2689 70.5448 42.0103 70.5448 42.0103Z" fill="#7FC991"/>
<path d="M72.0039 48.8455C71.1623 48.2342 72.2283 45.8077 73.8554 44.6593C74.9775 43.8628 75.9313 44.7519 77.5583 43.7331C78.6991 43.0107 78.7365 42.2513 79.5968 42.1586C80.6067 42.066 80.8685 43.1033 82.3833 43.5849C83.842 44.0665 84.3096 43.3256 85.2073 43.8072C86.8343 44.6963 87.6011 48.4565 86.4416 49.4382C85.7309 50.0495 84.4031 47.8082 82.6264 48.3083C81.7475 48.5491 81.6914 49.1974 80.8124 49.3085C79.5968 49.4752 79.1292 48.3083 77.8949 47.9564C75.5385 47.308 72.9577 49.5493 72.0039 48.8455Z" fill="#7FC991"/>
<path d="M63.8867 64.9975C64.56 62.7562 65.308 60.552 66.187 58.3663C66.6172 57.2734 67.0847 56.1991 67.5709 55.1433C68.0572 54.0874 68.5808 53.0316 69.1606 52.0129C69.7403 50.9941 70.3949 49.9939 71.1804 49.1233L71.7788 48.475C71.9845 48.2712 72.2089 48.0675 72.4334 47.8637C72.5456 47.7711 72.6391 47.66 72.77 47.5673L73.1253 47.2895C73.3497 47.1043 73.5929 46.919 73.836 46.7708C74.8085 46.104 75.8745 45.5483 76.9966 45.1779C78.1187 44.8074 79.2969 44.5851 80.4751 44.6222C79.2969 44.6037 78.1187 44.863 77.034 45.252C75.9306 45.6409 74.8833 46.1966 73.9295 46.882C73.6864 47.0487 73.462 47.2339 73.2375 47.4192L72.9009 47.697C72.7887 47.7896 72.6765 47.9008 72.583 47.9934C72.3773 48.1971 72.1528 48.3823 71.9471 48.5861L71.3487 49.2344C70.5632 50.105 69.946 51.0867 69.3663 52.1055C68.7865 53.1242 68.2442 54.1615 67.758 55.2174C67.2717 56.2732 66.8042 57.3475 66.3553 58.4218C65.9065 59.4962 65.4951 60.589 65.0836 61.6819C64.6535 62.7747 64.2608 63.8861 63.8867 64.9975Z" fill="#40635B"/>
<path d="M66.1875 56.384C66.7298 54.4576 67.2909 52.5312 67.8706 50.6048L69.6099 44.8441C70.1897 42.9177 70.7694 41.0098 71.3117 39.0834C71.5736 38.1203 71.8354 37.1385 71.985 36.1568C72.0598 35.6567 72.1159 35.1566 72.0785 34.675C72.0598 34.4342 72.0037 34.1748 71.9102 33.9526C71.8167 33.7303 71.6671 33.508 71.4988 33.3413C71.6858 33.508 71.8354 33.7118 71.9476 33.9526C72.0598 34.1748 72.1159 34.4342 72.1533 34.675C72.2094 35.1751 72.172 35.6752 72.0972 36.1753C71.9476 37.1756 71.7232 38.1573 71.4614 39.1205C70.9564 41.0654 70.3767 42.9918 69.7969 44.8997L68.0203 50.6418C67.4031 52.5682 66.8047 54.4761 66.1875 56.384Z" fill="#40635B"/>
<path d="M66.9531 57.9954C66.9531 57.9954 67.1027 54.0685 68.3932 53.5684C69.6836 53.0683 70.4316 51.6234 72.2457 51.3641C74.0784 51.0863 74.1159 51.5864 75.7429 53.0127C77.3699 54.439 78.492 53.9759 78.5107 56.3468C78.5294 58.6622 77.5944 58.903 75.9673 57.1989C74.9948 56.1801 74.2468 54.5871 72.1522 56.0319C69.5714 57.7731 66.9531 57.9954 66.9531 57.9954Z" fill="#7FC991"/>
<path d="M64.4102 65.1085C64.6533 63.9971 64.9712 62.9042 65.3265 61.8299C65.6819 60.7556 66.112 59.6998 66.5982 58.6625C67.1032 57.6437 67.6642 56.6434 68.3562 55.7358C68.5245 55.495 68.7115 55.2913 68.8985 55.069C69.0856 54.8467 69.2913 54.6615 69.497 54.4577C69.5531 54.4022 69.5905 54.3651 69.6466 54.3095L69.8149 54.1799L70.1516 53.902C70.376 53.7353 70.6378 53.5871 70.8622 53.439L70.5256 53.6983C70.4134 53.7909 70.2825 53.865 70.189 53.9576L69.871 54.2355L69.7027 54.3836C69.6466 54.4392 69.6092 54.4948 69.5531 54.5318C69.3661 54.7356 69.1604 54.9393 68.9734 55.1616C68.7863 55.3839 68.618 55.5876 68.4497 55.8284C67.7765 56.7361 67.2154 57.7363 66.7292 58.7551C66.2242 59.7738 65.8128 60.8297 65.42 61.8855L65.1395 62.682L64.8777 63.497L64.6159 64.312L64.4102 65.1085Z" fill="#40635B"/>
<path d="M46.0264 10.6323H40.0605V15.7817H46.0264V10.6323Z" fill="#94C8E3"/>
<path d="M47.0177 13.5591H39.0508V8.24297C41.5942 7.52057 44.4743 7.52057 47.0177 8.24297V13.5591Z" fill="url(#paint0_linear_1638_4698)"/>
<path d="M39.5566 8.55811C39.8372 8.6322 40.1177 8.68777 40.4169 8.74334C40.6974 8.7989 40.9967 8.83595 41.2772 8.85447C41.8569 8.91004 42.4367 8.92857 43.0164 8.92857C43.297 8.91004 43.5962 8.91004 43.8767 8.89152L44.3069 8.85447C44.4565 8.83595 44.5874 8.81743 44.737 8.81743C45.3167 8.76186 45.8778 8.65072 46.4575 8.55811C46.177 8.6322 45.8965 8.72481 45.616 8.78038C45.3354 8.83595 45.0362 8.91004 44.7557 8.94709C44.1759 9.0397 43.5962 9.07675 42.9977 9.09527C42.418 9.09527 41.8195 9.07675 41.2398 8.98414C40.6787 8.91004 40.099 8.78038 39.5566 8.55811Z" fill="#94C8E3"/>
<path d="M39.5571 9.521C39.5945 10.1137 39.6132 10.7065 39.6319 11.2992C39.6319 11.5956 39.6506 11.8919 39.6693 12.1883C39.688 12.4847 39.7067 12.781 39.7628 13.0589C39.6319 12.781 39.5758 12.4847 39.5384 12.1883C39.501 11.8919 39.4635 11.5956 39.4635 11.2992C39.4448 10.7065 39.4635 10.1137 39.5571 9.521Z" fill="#94C8E3"/>
<path d="M40.6415 9.72461C40.7163 10.2803 40.735 10.836 40.735 11.3917L40.7537 12.2252V12.6327C40.7537 12.7624 40.7537 12.9106 40.7911 13.0402C40.6602 12.7809 40.6228 12.5031 40.5854 12.2252C40.548 11.9474 40.548 11.6695 40.5293 11.3917C40.548 10.836 40.5667 10.2803 40.6415 9.72461Z" fill="#94C8E3"/>
<path d="M41.8388 9.90967C41.8949 10.4098 41.8949 10.9099 41.9136 11.3915C41.9136 11.6323 41.9323 11.8916 41.951 12.1324C41.9697 12.3732 41.9884 12.614 42.0258 12.8734C41.9136 12.6511 41.8575 12.3918 41.8014 12.151C41.764 11.9102 41.7453 11.6508 41.7266 11.41C41.7266 10.9099 41.7453 10.4098 41.8388 9.90967Z" fill="#94C8E3"/>
<path d="M46.3648 9.521C46.4583 10.1137 46.4957 10.7065 46.477 11.2992C46.4583 11.5956 46.4396 11.8919 46.4022 12.1883C46.3648 12.4847 46.2899 12.781 46.1777 13.0589C46.2338 12.7625 46.2525 12.4662 46.2712 12.1883C46.2899 11.8919 46.3086 11.5956 46.3086 11.2992C46.3273 10.7065 46.3273 10.1137 46.3648 9.521Z" fill="#94C8E3"/>
<path d="M45.2992 9.72461C45.374 10.2803 45.3927 10.836 45.3927 11.3917C45.3927 11.6695 45.374 11.9474 45.3366 12.2252C45.2992 12.5031 45.2805 12.7994 45.1309 13.0402C45.1683 12.9106 45.1683 12.7624 45.1683 12.6327V12.2252L45.187 11.3917C45.2057 10.836 45.2244 10.2803 45.2992 9.72461Z" fill="#94C8E3"/>
<path d="M44.0835 9.91016C44.177 10.4103 44.1957 10.9104 44.1957 11.392C44.177 11.6328 44.1583 11.8921 44.1209 12.1329C44.0835 12.3737 44.0087 12.633 43.8965 12.8553C43.9339 12.6145 43.9526 12.3552 43.9713 12.1144C43.99 11.8736 43.99 11.6328 44.0087 11.3735C44.0274 10.8919 44.0461 10.4103 44.0835 9.91016Z" fill="#94C8E3"/>
<path d="M42.9783 9.90967C43.0531 10.4098 43.0718 10.8914 43.0718 11.3915C43.0718 11.6323 43.0531 11.8916 43.0344 12.1324C43.0157 12.3732 42.997 12.6326 42.9222 12.8734C42.9222 12.6326 42.9035 12.3732 42.9035 12.1324C42.9035 11.8916 42.8848 11.6323 42.8848 11.3915C42.9035 10.8914 42.9222 10.4098 42.9783 9.90967Z" fill="#94C8E3"/>
<path opacity="0.11" d="M44.1756 68.9428C57.0657 68.9428 67.5152 68.7354 67.5152 68.4797C67.5152 68.2239 57.0657 68.0166 44.1756 68.0166C31.2854 68.0166 20.8359 68.2239 20.8359 68.4797C20.8359 68.7354 31.2854 68.9428 44.1756 68.9428Z" fill="url(#paint1_linear_1638_4698)"/>
<path d="M43.5009 65.3866C56.7422 65.3866 67.4764 54.7549 67.4764 41.6401C67.4764 28.5252 56.7422 17.8936 43.5009 17.8936C30.2596 17.8936 19.5254 28.5252 19.5254 41.6401C19.5254 54.7549 30.2596 65.3866 43.5009 65.3866Z" fill="#F3F8FA"/>
<path d="M48.7938 40.5099C53.7928 40.5099 57.8454 36.4961 57.8454 31.5447C57.8454 26.5934 53.7928 22.5796 48.7938 22.5796C43.7947 22.5796 39.7422 26.5934 39.7422 31.5447C39.7422 36.4961 43.7947 40.5099 48.7938 40.5099Z" fill="white"/>
<path d="M22.2576 56.0137C22.2576 56.0137 18.0123 68.1092 19.3027 68.4612C20.5931 68.8131 29.7943 61.1446 29.7943 61.1446L22.2576 56.0137Z" fill="url(#paint2_linear_1638_4698)"/>
<path d="M64.5973 56.0137C64.5973 56.0137 68.8426 68.1092 67.5522 68.4612C66.2618 68.8131 57.0605 61.1446 57.0605 61.1446L64.5973 56.0137Z" fill="url(#paint3_linear_1638_4698)"/>
<path d="M43.502 15.0225C28.6716 15.0225 16.6465 26.9328 16.6465 41.6401C16.6465 56.3288 28.6716 68.2391 43.502 68.2391C58.3324 68.2391 70.3576 56.3288 70.3576 41.6401C70.3576 26.9328 58.3324 15.0225 43.502 15.0225ZM43.502 65.3866C30.2613 65.3866 19.5265 54.7544 19.5265 41.6401C19.5265 28.5258 30.2613 17.8935 43.502 17.8935C56.7428 17.8935 67.4775 28.5258 67.4775 41.6401C67.4775 54.7544 56.7428 65.3866 43.502 65.3866Z" fill="url(#paint4_linear_1638_4698)"/>
<path opacity="0.23" d="M42.5664 42.7515H44.156L43.3706 28.7666L42.5664 42.7515Z" fill="#94C8E3"/>
<path d="M42.3242 42.4365H43.9326L43.1284 28.4331L42.3242 42.4365Z" fill="#94C8E3"/>
<path opacity="0.23" d="M42.623 42.3436L43.82 43.3809L55.4524 28.8403L42.623 42.3436Z" fill="#94C8E3"/>
<path d="M42.3789 42.0292L43.5758 43.0479L55.2082 28.5259L42.3789 42.0292Z" fill="#94C8E3"/>
<path opacity="0.23" d="M43.1269 43.9742C44.2217 43.9742 45.1093 43.0952 45.1093 42.0108C45.1093 40.9264 44.2217 40.0474 43.1269 40.0474C42.0321 40.0474 41.1445 40.9264 41.1445 42.0108C41.1445 43.0952 42.0321 43.9742 43.1269 43.9742Z" fill="#94C8E3"/>
<path opacity="0.23" d="M43.1269 44.715C44.2217 44.715 45.1093 43.8359 45.1093 42.7515C45.1093 41.6671 44.2217 40.7881 43.1269 40.7881C42.0321 40.7881 41.1445 41.6671 41.1445 42.7515C41.1445 43.8359 42.0321 44.715 43.1269 44.715Z" fill="#94C8E3"/>
<path d="M43.1269 44.4C44.2217 44.4 45.1093 43.521 45.1093 42.4366C45.1093 41.3522 44.2217 40.4731 43.1269 40.4731C42.0321 40.4731 41.1445 41.3522 41.1445 42.4366C41.1445 43.521 42.0321 44.4 43.1269 44.4Z" fill="#94C8E3"/>
<path opacity="0.23" d="M42.2492 43.0292C42.3988 43.5294 42.9599 43.7887 43.39 43.659C43.9885 43.4923 44.269 42.6402 43.895 42.1586C43.6518 41.8438 43.1843 41.7141 42.7916 41.8993C42.3427 42.0846 42.0996 42.5662 42.2492 43.0292Z" fill="#94C8E3"/>
<path d="M43.5012 19.1162C43.6134 19.3014 43.6695 19.4867 43.7256 19.6904C43.763 19.8757 43.7818 20.0609 43.7818 20.2646C43.7818 20.4499 43.763 20.6351 43.7256 20.8389C43.6882 21.0241 43.6134 21.2093 43.5012 21.4131C43.389 21.2278 43.3329 21.0426 43.2768 20.8389C43.2394 20.6536 43.2207 20.4684 43.2207 20.2646C43.2207 20.0794 43.2394 19.8942 43.2768 19.6904C43.3329 19.4867 43.389 19.3014 43.5012 19.1162Z" fill="#94C8E3"/>
<path d="M32.1289 22.1353C32.3159 22.2464 32.4655 22.3761 32.5964 22.5242C32.7274 22.6724 32.8396 22.8206 32.9331 22.9873C33.0266 23.154 33.1014 23.3207 33.1762 23.506C33.2323 23.6912 33.2697 23.8764 33.2697 24.0987C33.064 23.9876 32.9331 23.8579 32.7835 23.7097C32.6526 23.5615 32.5403 23.4133 32.4468 23.2466C32.3533 23.0799 32.2785 22.9132 32.2037 22.728C32.1663 22.5428 32.1289 22.3575 32.1289 22.1353Z" fill="#94C8E3"/>
<path d="M23.8086 30.3779C24.033 30.3779 24.22 30.415 24.407 30.4705C24.5941 30.5261 24.7624 30.6002 24.9307 30.7113C25.099 30.804 25.2486 30.9151 25.3982 31.0448C25.5478 31.1744 25.6788 31.3226 25.791 31.5264C25.5665 31.5264 25.3795 31.4893 25.1925 31.4337C25.0055 31.3782 24.8372 31.3041 24.6689 31.1929C24.5006 31.1003 24.3509 30.9892 24.2013 30.8595C24.0517 30.7113 23.9208 30.5632 23.8086 30.3779Z" fill="#94C8E3"/>
<path d="M20.7598 41.6402C20.9468 41.529 21.1338 41.4734 21.3395 41.4179C21.5265 41.3808 21.7135 41.3623 21.9193 41.3623C22.1063 41.3623 22.2933 41.3808 22.499 41.4179C22.686 41.4549 22.8731 41.529 23.0788 41.6402C22.8918 41.7513 22.7047 41.8069 22.499 41.8624C22.312 41.8995 22.125 41.918 21.9193 41.918C21.7323 41.918 21.5452 41.8995 21.3395 41.8624C21.1525 41.8069 20.9655 41.7513 20.7598 41.6402Z" fill="#94C8E3"/>
<path d="M23.8086 52.8838C23.9208 52.6986 24.0517 52.5504 24.2013 52.4207C24.3509 52.2911 24.5006 52.1799 24.6689 52.0873C24.8372 51.9947 25.0055 51.9206 25.1925 51.8465C25.3795 51.791 25.5665 51.7539 25.791 51.7539C25.6788 51.9577 25.5478 52.0873 25.3982 52.2355C25.2486 52.3652 25.099 52.4763 24.9307 52.5689C24.7624 52.6615 24.5941 52.7356 24.407 52.8097C24.2387 52.8468 24.033 52.9023 23.8086 52.8838Z" fill="#94C8E3"/>
<path d="M32.1289 61.1265C32.1289 60.9043 32.1663 60.719 32.2224 60.5338C32.2785 60.3486 32.3533 60.1819 32.4655 60.0151C32.559 59.8484 32.6713 59.7003 32.8022 59.5521C32.9331 59.4039 33.0827 59.2742 33.2884 59.1631C33.2884 59.3854 33.251 59.5706 33.1949 59.7558C33.1388 59.9411 33.064 60.1078 32.9518 60.2745C32.8583 60.4412 32.7461 60.5894 32.6151 60.7375C32.4842 60.8857 32.3346 61.0154 32.1289 61.1265Z" fill="#94C8E3"/>
<path d="M43.5012 64.1455C43.389 63.9603 43.3329 63.775 43.2768 63.5713C43.2394 63.386 43.2207 63.2008 43.2207 62.9971C43.2207 62.8118 43.2394 62.6266 43.2768 62.4228C43.3142 62.2376 43.389 62.0524 43.5012 61.8486C43.6134 62.0339 43.6695 62.2191 43.7256 62.4228C43.763 62.6081 43.7818 62.7933 43.7818 62.9971C43.7818 63.1823 43.763 63.3675 43.7256 63.5713C43.6695 63.775 43.6134 63.9603 43.5012 64.1455Z" fill="#94C8E3"/>
<path d="M54.8713 61.1265C54.6843 61.0154 54.5346 60.8857 54.4037 60.7375C54.2728 60.5894 54.1606 60.4412 54.0671 60.2745C53.9736 60.1078 53.8988 59.9411 53.824 59.7558C53.7679 59.5706 53.7305 59.3854 53.7305 59.1631C53.9362 59.2742 54.0671 59.4039 54.2167 59.5521C54.3476 59.7003 54.4598 59.8484 54.5533 60.0151C54.6469 60.1819 54.7217 60.3486 54.7965 60.5338C54.8339 60.719 54.8713 60.9043 54.8713 61.1265Z" fill="#94C8E3"/>
<path d="M63.1933 52.8838C62.9689 52.8838 62.7819 52.8467 62.5949 52.7912C62.4078 52.7356 62.2395 52.6615 62.0712 52.5504C61.9029 52.4578 61.7533 52.3466 61.6037 52.217C61.4541 52.0873 61.3231 51.9391 61.2109 51.7354C61.4354 51.7354 61.6224 51.7724 61.8094 51.828C61.9964 51.8835 62.1647 51.9576 62.333 52.0688C62.5014 52.1614 62.651 52.2725 62.8006 52.4022C62.9502 52.5504 63.0811 52.6986 63.1933 52.8838Z" fill="#94C8E3"/>
<path d="M66.2233 41.6402C66.0363 41.7513 65.8493 41.8069 65.6435 41.8624C65.4565 41.8995 65.2695 41.918 65.0638 41.918C64.8768 41.918 64.6898 41.8995 64.484 41.8624C64.297 41.8254 64.11 41.7513 63.9043 41.6402C64.0913 41.529 64.2783 41.4734 64.484 41.4179C64.6711 41.3808 64.8581 41.3623 65.0638 41.3623C65.2508 41.3623 65.4378 41.3808 65.6435 41.4179C65.8493 41.4549 66.0363 41.5105 66.2233 41.6402Z" fill="#94C8E3"/>
<path d="M63.1933 30.3779C63.0811 30.5632 62.9502 30.7113 62.8006 30.841C62.651 30.9707 62.5014 31.0818 62.333 31.1744C62.1647 31.267 61.9964 31.3411 61.8094 31.4152C61.6224 31.4708 61.4354 31.5078 61.2109 31.5078C61.3231 31.3041 61.4541 31.1744 61.6037 31.0262C61.7533 30.8966 61.9029 30.7854 62.0712 30.6928C62.2395 30.6002 62.4078 30.5261 62.5949 30.452C62.7632 30.415 62.9689 30.3779 63.1933 30.3779Z" fill="#94C8E3"/>
<path d="M54.8724 22.1353C54.8724 22.3575 54.835 22.5428 54.7789 22.728C54.7228 22.9132 54.648 23.0799 54.5358 23.2466C54.4423 23.4133 54.33 23.5615 54.1991 23.7097C54.0682 23.8579 53.9186 23.9876 53.7129 24.0987C53.7129 23.8764 53.7503 23.6912 53.8064 23.506C53.8625 23.3207 53.9373 23.154 54.0495 22.9873C54.143 22.8206 54.2552 22.6724 54.3861 22.5242C54.5171 22.3761 54.6667 22.2464 54.8724 22.1353Z" fill="#94C8E3"/>
<path opacity="0.23" d="M43.5009 19.1161C56.5359 19.1161 67.121 29.3964 67.4764 42.2328C67.4764 42.0291 67.4764 41.8438 67.4764 41.6401C67.4764 28.5258 56.7416 17.8936 43.5009 17.8936C30.2601 17.8936 19.5254 28.5258 19.5254 41.6401C19.5254 41.8438 19.5254 42.0291 19.5254 42.2328C19.8807 29.3964 30.4658 19.1161 43.5009 19.1161Z" fill="#94C8E3"/>
<path d="M42.2492 42.7143C42.3988 43.2144 42.9599 43.4737 43.39 43.3441C43.9885 43.1774 44.269 42.3253 43.895 41.8437C43.6518 41.5288 43.1843 41.3992 42.7916 41.5844C42.3427 41.7696 42.0996 42.2512 42.2492 42.7143Z" fill="url(#paint5_linear_1638_4698)"/>
<path d="M48.7949 16.2637C50.5716 16.56 52.2921 17.1157 53.9566 17.8196C55.621 18.5235 57.192 19.4311 58.6694 20.4499C59.3988 20.9685 60.0907 21.5427 60.764 22.1355C61.4185 22.7467 62.0731 23.3765 62.6528 24.0619C63.831 25.414 64.8409 26.9144 65.6451 28.5074C65.1963 27.7294 64.7474 26.97 64.2051 26.2476C63.7001 25.5067 63.1204 24.8213 62.5406 24.1545C61.9422 23.4877 61.3063 22.8579 60.6518 22.2651C59.9785 21.6724 59.2865 21.1167 58.5572 20.5981C57.0984 19.5608 55.5462 18.6717 53.9005 17.9493C53.0776 17.5788 52.2547 17.2454 51.3944 16.9675C50.5342 16.6897 49.6739 16.4304 48.7949 16.2637Z" fill="#94C8E3"/>
<path d="M43.0912 66.4797C41.2958 66.5167 39.4818 66.2574 37.7238 65.8684C35.9659 65.4794 34.2453 64.8682 32.6183 64.1272C31.7954 63.7383 31.0099 63.3122 30.2432 62.8306C29.4764 62.349 28.7283 61.8489 28.0364 61.2747C26.6337 60.1448 25.362 58.8482 24.2773 57.4404C24.8571 58.1258 25.4555 58.7926 26.0914 59.4039C26.7273 60.0337 27.4192 60.6079 28.1112 61.1636C28.8218 61.7007 29.5512 62.2194 30.318 62.6824C31.0847 63.1455 31.8702 63.5716 32.6931 63.942C34.3201 64.7015 36.022 65.2942 37.7612 65.7202C38.6402 65.9425 39.5192 66.1092 40.3981 66.2389C41.2958 66.3685 42.1935 66.4611 43.0912 66.4797Z" fill="#94C8E3"/>
<path d="M51.5244 33.1381C51.5992 33.2122 51.6179 33.1937 51.6553 33.2678C51.805 33.4715 52.2725 33.6568 52.5343 33.7494C53.0019 34.1198 53.7499 34.8608 53.8995 34.1384C54.0491 33.4901 54.1614 33.1752 54.0491 32.8047C54.0491 32.7677 53.7686 32.6009 53.7499 32.5454C53.5255 32.1379 53.3011 31.7118 53.058 31.3599C52.6839 30.8227 52.179 31.1191 52.2538 31.2858C52.2725 31.3414 53.1702 31.7118 53.0019 31.6192C52.7961 31.3043 52.8148 31.3599 52.5904 31.1932C52.1229 30.8598 51.6366 31.2117 52.0107 31.471C52.0668 31.5081 52.3099 31.5081 52.4221 31.5266C52.4408 31.5266 52.4595 31.5451 52.4595 31.5451C52.4595 31.5637 52.2725 31.4155 52.1603 31.3599C51.674 31.0635 51.3561 31.5266 51.487 31.7118C51.5431 31.7859 51.8985 31.6748 51.9546 31.7304C52.0107 31.7859 51.5805 31.471 51.4309 31.5637C51.0756 31.823 51.1878 32.4713 51.2813 32.638L51.6366 32.3046C51.6179 32.2861 51.7675 32.5269 51.8424 32.6565C51.8985 32.8417 51.8985 32.8047 51.8237 32.7491" fill="#EDBDA3"/>
<path d="M51.5254 31.5266C51.6002 31.5081 51.6937 31.5081 51.7685 31.5266C51.8433 31.5451 51.9181 31.5822 51.9929 31.6562C52.049 31.7118 52.1051 31.7859 52.1238 31.86C52.1612 31.9341 52.1987 31.9897 52.2174 32.0823C52.1612 32.0267 52.1051 31.9711 52.049 31.9156C51.9929 31.86 51.9555 31.7859 51.8994 31.7489C51.8059 31.6377 51.675 31.5636 51.5254 31.5266Z" fill="#CC8972"/>
<path d="M51.8984 31.2485C51.9732 31.2485 52.0481 31.2671 52.1229 31.2856C52.1977 31.3041 52.2725 31.3226 52.3473 31.3597C52.4221 31.4152 52.4595 31.4708 52.5156 31.5449C52.553 31.619 52.5904 31.6746 52.6091 31.7487C52.553 31.6931 52.4969 31.6375 52.4408 31.582C52.3847 31.5264 52.3473 31.4708 52.2912 31.4338C52.2725 31.4152 52.2351 31.4152 52.1977 31.3967C52.1603 31.3782 52.1229 31.3782 52.0855 31.3597C52.0293 31.3226 51.9732 31.3041 51.8984 31.2485Z" fill="#CC8972"/>
<path d="M52.3477 31.0635C52.4225 31.082 52.4786 31.1005 52.5347 31.119C52.5908 31.1376 52.6656 31.1746 52.7217 31.1931H52.7404H52.7591C52.7591 31.1931 52.7778 31.1931 52.7778 31.2117C52.7965 31.2302 52.8152 31.2487 52.8152 31.2487C52.8339 31.2858 52.8526 31.3043 52.8713 31.3413C52.9087 31.3969 52.9274 31.471 52.9461 31.5266C52.9087 31.471 52.8526 31.4154 52.8152 31.3784L52.7591 31.3043C52.7404 31.2858 52.7404 31.2858 52.7404 31.2858H52.7217L52.703 31.2672C52.6469 31.2487 52.5721 31.2117 52.516 31.1746C52.4412 31.1561 52.3851 31.1005 52.3477 31.0635Z" fill="#CC8972"/>
<path opacity="0.11" d="M73.3872 74.9074C73.3872 75.1667 70.1518 75.3705 66.1496 75.3705C62.1475 75.3705 58.9121 75.1667 58.9121 74.9074C58.9121 74.6481 62.1475 74.4443 66.1496 74.4443C70.1518 74.4443 73.3872 74.6481 73.3872 74.9074Z" fill="url(#paint6_linear_1638_4698)"/>
<path d="M70.1893 54.0321C70.1519 54.3655 70.0397 54.8471 69.9649 55.2176C69.8714 55.7177 69.6096 55.6992 69.6283 55.4954C69.6283 55.4213 69.7779 54.2729 69.7966 54.1988C69.8153 54.1432 69.7405 54.1432 69.7031 54.384C69.7031 54.384 69.6283 54.6804 69.5909 54.9397C69.4599 55.5695 69.2355 55.4399 69.2355 55.2731C69.2355 55.2176 69.329 54.1988 69.329 54.1247C69.329 54.1062 69.3103 53.6616 69.2916 53.532C69.2542 53.3282 69.2168 53.2912 69.1794 53.4023C69.1233 53.9024 69.0111 54.2359 68.8615 54.1432C68.7306 54.0691 68.8241 53.532 68.8428 53.1615C68.8615 52.9392 69.0298 52.4391 69.1794 52.2354C69.3664 51.7352 69.6844 50.9758 70.1332 51.4574C70.5446 51.8834 70.8252 52.4576 70.9187 52.8096C70.9374 52.8466 70.9374 52.9392 70.9561 52.9763C70.9748 53.3838 70.9561 53.6431 70.9374 54.0321C70.9 54.6063 70.6943 54.7545 70.6756 54.6063C70.6756 54.5507 70.7317 53.6431 70.6568 53.8098C70.6381 54.1432 70.5259 54.5322 70.4885 54.9027C70.4324 55.4028 70.1893 55.3658 70.1893 55.162C70.1893 55.0879 70.2828 54.1803 70.2828 54.1062C70.2828 54.0877 70.2828 53.9951 70.2454 53.9951C70.208 53.9765 70.1893 53.9951 70.1893 54.0321Z" fill="#EDBDA3"/>
<path d="M53.8241 32.7861L58.6492 36.7871L58.0694 36.4722L62.6326 37.5651L62.1277 41.1585L57.471 38.9728L57.0782 38.8802L56.8725 38.6394L52.5898 34.0642L53.8241 32.7861Z" fill="#FCC858"/>
<path d="M67.6451 49.79C67.6451 49.79 69.2535 56.4028 69.6462 62.0152C69.6462 62.0152 68.1875 63.2378 66.8036 63.423C66.8036 63.423 64.4285 58.181 62.5957 53.1798L67.6451 49.79Z" fill="#233561"/>
<path d="M66.1481 51.1982C66.1481 51.1982 64.652 57.7553 62.2208 63.3308C62.2208 63.3308 60.5563 63.5901 59.2285 63.164C59.2285 63.164 59.7335 55.088 60.575 49.4385L66.1481 51.1982Z" fill="#233561"/>
<path d="M63.1199 37.0648C63.494 36.824 63.3443 35.9719 63.3069 35.5274L65.5137 33.8418C65.5137 33.8974 65.5324 35.6571 65.5324 35.7126C65.6634 36.5276 67.0847 37.4167 67.2343 37.4908C68.0946 37.9724 66.8416 42.3439 62.4467 39.9359C62.428 39.9174 62.4093 39.9174 62.3906 39.8988C61.5303 39.4172 62.3719 37.5464 63.1199 37.0648Z" fill="#EDBDA3"/>
<path d="M60.1649 41.3993C60.1836 41.0288 60.3332 38.7505 61.6984 37.8058C62.2034 37.4539 63.1385 37.0649 63.1385 37.0649C63.232 37.3242 63.3068 37.8058 64.111 37.8243C65.8128 37.8429 66.2616 36.75 66.2616 36.75C67.3837 37.6206 67.7204 37.5094 68.057 37.7873C69.1043 38.6949 69.8524 39.1209 68.4871 42.5848L67.6269 46.6228L68.057 50.2348C64.2232 52.0315 61.792 51.9574 60.4454 50.2718C60.4454 50.2533 59.9405 45.4373 60.1649 41.3993Z" fill="#FCC858"/>
<path d="M65.0837 37.9907L63.812 39.38L63.0078 38.0092L65.0837 37.9907Z" fill="white"/>
<path d="M64.4279 38.0835C64.4279 38.0835 63.9604 38.8244 63.2871 37.9909L63.923 37.8057L64.4279 38.0835Z" fill="#233561"/>
<path d="M71.7218 45.2892C71.2356 44.1037 70.5062 41.4179 69.5711 39.3804C68.6921 37.491 66.1861 36.25 67.0838 40.3621C67.3643 41.6402 68.3929 44.3075 69.2719 45.9375L69.1223 51.9575C69.5524 51.9945 70.8428 51.9205 70.8428 51.9205C71.0485 50.8461 71.7218 45.2892 71.7218 45.2892Z" fill="#FCC858"/>
<path d="M70.7871 52.1243C70.7871 52.0873 70.8058 52.0502 70.8058 52.0132C70.8058 52.0317 70.8058 52.0873 70.7871 52.1243Z" fill="#FCC858"/>
<path d="M69.0295 51.9577C69.0295 51.9577 70.3574 51.865 70.8997 51.7539C70.8997 51.7539 71.0119 52.2911 70.8062 52.4763C70.6005 52.6615 69.2914 52.7541 69.1418 52.5874C68.9921 52.4207 69.0295 51.9577 69.0295 51.9577Z" fill="#F2F2F2"/>
<path d="M69.2342 52.3093C69.2716 52.3278 69.3277 52.3093 69.3464 52.2722C69.3651 52.2352 69.3464 52.1796 69.309 52.1611C69.2716 52.1426 69.2155 52.1611 69.1968 52.1981C69.1781 52.2537 69.1968 52.2907 69.2342 52.3093Z" fill="#FCC858"/>
<path d="M54.3679 32.9711C54.3679 32.9711 53.2832 34.1196 52.9091 34.6567C52.9091 34.6567 52.3668 34.2863 52.4042 33.9529C52.4229 33.6195 53.4889 32.5081 53.7694 32.5266C54.0312 32.5451 54.3679 32.9711 54.3679 32.9711Z" fill="#F2F2F2"/>
<path d="M52.8326 33.9532C52.7765 33.9718 52.7578 34.0273 52.7765 34.0829C52.7952 34.1385 52.8513 34.157 52.9075 34.1385C52.9636 34.1199 52.9823 34.0644 52.9636 34.0088C52.9262 33.9532 52.8701 33.9347 52.8326 33.9532Z" fill="#FCC858"/>
<path d="M64.4655 57.8662C64.372 57.718 64.2785 57.5698 64.185 57.4217C64.0915 57.2735 64.0166 57.1253 63.9231 56.9771C63.7548 56.6807 63.6052 56.3658 63.4556 56.0695L63.493 56.1065C63.0255 55.8657 62.5766 55.6064 62.1465 55.2915C62.6327 55.4767 63.119 55.699 63.5865 55.9398L63.6052 55.9583L63.6239 55.9769C63.7922 56.2732 63.9231 56.5881 64.0728 56.903C64.1476 57.0512 64.2224 57.2179 64.2785 57.3661C64.3533 57.5513 64.4094 57.6995 64.4655 57.8662Z" fill="#0D1017"/>
<path d="M71.9097 70.3138L66.748 63.3491L68.7678 60.7744C68.7678 60.7744 70.5632 62.2563 71.2177 63.7196C72.5081 66.6833 73.2936 68.2762 73.7425 69.1468C73.2188 69.6099 72.5643 70.0915 71.9097 70.3138Z" fill="#233561"/>
<path d="M72.8078 71.5179L71.9102 70.3139C72.5647 70.0917 73.2193 69.61 73.7429 69.147C74.2479 70.1287 74.3601 70.1657 74.3601 70.1657C74.3601 70.1657 74.0234 71.1104 72.8078 71.5179Z" fill="#EDBDA3"/>
<path d="M58.332 72.0918L59.2858 62.7376L62.2781 62.3672C62.2781 62.3672 62.4277 66.22 61.9227 67.7389C61.1747 69.9616 60.7632 71.3879 60.5201 72.3326C59.8469 72.3141 59.024 72.2585 58.332 72.0918Z" fill="#233561"/>
<path d="M60.2399 73.6477C60.2399 73.6477 59.3236 74.3516 58.1641 73.7774L58.3324 72.0918C59.0243 72.277 59.8472 72.3326 60.5205 72.3326C60.2212 73.5922 60.2399 73.6477 60.2399 73.6477Z" fill="#EDBDA3"/>
<path d="M63.2682 30.8041C63.2682 30.8041 62.4266 31.3042 62.4453 32.2304C62.4453 32.4712 62.1648 33.6566 62.1648 33.6566C62.0152 35.1199 62.9316 36.1017 63.2869 36.1202C64.1285 36.1572 64.8204 35.7312 65.2506 35.3422C66.0173 34.6198 66.4849 32.1377 65.8864 31.3227C65.0448 30.2299 63.6796 30.3225 63.2682 30.8041Z" fill="#EDBDA3"/>
<path d="M62.146 34.1939C62.146 34.1939 62.3704 34.3236 62.8566 34.1754C63.1559 34.0828 63.6234 33.7679 63.7169 33.9716C64.1658 34.8793 64.1471 35.9906 63.3429 36.1388C62.5574 36.2685 62.0338 34.5273 62.146 34.1939Z" fill="#233561"/>
<path d="M65.474 33.6751C65.4553 33.4898 65.3431 32.434 65.3992 32.2117C65.3618 32.1932 65.3057 32.1747 65.2309 32.1747C64.8568 32.1562 64.5576 31.8413 64.5576 31.4708C64.5576 31.4708 63.8283 31.4893 63.0989 31.3412C62.1451 31.1559 62.4069 30.1001 62.4256 30.0816C62.6687 30.026 64.7072 29.7111 65.848 30.4521C66.9888 31.1745 66.4278 32.9712 66.3343 33.2676C66.3343 33.2861 66.2969 33.3046 66.2782 33.3046L65.5488 33.7121C65.5114 33.7306 65.474 33.7121 65.474 33.6751Z" fill="#233561"/>
<path d="M66.2966 30.915C66.2966 30.915 67.1943 31.4152 66.4837 33.1193C66.4837 33.1378 65.9039 32.5636 66.2966 30.915Z" fill="#233561"/>
<path d="M62.5756 32.397C62.5756 32.397 62.2203 33.1008 61.7153 33.5639C61.547 33.7121 62.0519 34.2308 62.2951 34.2493C62.7813 34.3048 62.5756 32.397 62.5756 32.397Z" fill="#EDBDA3"/>
<path d="M66.3912 33.9343C66.1667 34.3418 65.7366 34.5085 65.4561 34.3233C65.1756 34.1381 65.1195 33.6565 65.3626 33.2675C65.587 32.86 66.0171 32.6933 66.2977 32.8785C66.5782 33.0452 66.6343 33.5268 66.3912 33.9343Z" fill="#EDBDA3"/>
<path d="M65.2685 34.916C65.2311 35.1012 65.1376 35.268 65.0254 35.4161C64.9132 35.5643 64.7636 35.694 64.614 35.8051C64.4457 35.8977 64.2774 35.9904 64.0903 36.0274C63.9968 36.0459 63.9033 36.0644 63.8098 36.083C63.7163 36.083 63.6228 36.083 63.5293 36.083C63.7163 36.0459 63.9033 36.0274 64.0716 35.9533C64.24 35.8977 64.4083 35.8236 64.5579 35.731C64.7075 35.6384 64.8384 35.5088 64.9693 35.3791C65.0815 35.2309 65.1937 35.0827 65.2685 34.916Z" fill="#CC8972"/>
<path d="M63.3418 34.3418C63.2857 34.49 63.1735 34.6011 63.0426 34.6567C62.9117 34.7308 62.7247 34.7308 62.5938 34.6752C62.6686 34.6567 62.7434 34.6567 62.7995 34.6382C62.8743 34.6196 62.9304 34.6011 62.9865 34.5641C63.1174 34.5085 63.2296 34.4344 63.3418 34.3418Z" fill="#EDBDA3"/>
<path d="M62.875 32.9895C62.875 33.0636 62.9124 33.1377 62.9685 33.1377C63.0246 33.1377 63.062 33.0821 63.0807 33.008C63.0807 32.934 63.0433 32.8599 62.9872 32.8599C62.9311 32.8599 62.875 32.9154 62.875 32.9895Z" fill="#233561"/>
<path d="M66.1478 33.101C66.0356 33.101 65.9421 33.1195 65.8486 33.1751C65.8112 33.1936 65.7738 33.2307 65.7551 33.2862C65.7364 33.3233 65.7177 33.3789 65.699 33.4159L65.6803 33.3603C65.7364 33.3789 65.7738 33.3974 65.8112 33.4344C65.8486 33.4715 65.9047 33.527 65.886 33.6011C65.886 33.6382 65.8486 33.6567 65.8299 33.6752L65.7738 33.7308C65.7551 33.7493 65.7364 33.7678 65.7177 33.7678C65.699 33.7864 65.6803 33.8049 65.6429 33.8049L65.6803 33.7678C65.6616 33.8605 65.6803 33.9716 65.7551 34.0457C65.699 34.0272 65.6803 33.9716 65.6429 33.916C65.6242 33.8605 65.6055 33.8049 65.6055 33.7493L65.6429 33.7123C65.6429 33.7123 65.6616 33.6937 65.6803 33.6752L65.7364 33.6197C65.7738 33.5826 65.8112 33.5456 65.8112 33.527C65.8112 33.5085 65.7925 33.4715 65.7551 33.4529C65.7177 33.4344 65.6803 33.3974 65.6429 33.3789C65.6242 33.3789 65.6055 33.3418 65.6242 33.3233C65.6429 33.2677 65.6616 33.2122 65.699 33.1751C65.7364 33.1195 65.7738 33.0825 65.8299 33.064C65.9234 33.064 66.0356 33.064 66.1478 33.101Z" fill="#CC8972"/>
<path d="M63.4185 32.638C63.4559 32.5824 63.4372 32.4157 63.2128 32.3045C63.0819 32.249 62.9697 32.286 62.951 32.286C62.9136 32.3045 62.8949 32.3601 62.9136 32.3972C62.951 32.4713 63.0445 32.4342 63.1941 32.5453C63.2876 32.6194 63.2502 32.638 63.3437 32.6565C63.3437 32.6565 63.3811 32.675 63.4185 32.638Z" fill="#233561"/>
<path d="M65.7181 36.1016C65.7181 36.1016 64.9326 37.4352 63.9414 37.7872C63.9414 37.7872 64.5773 38.1021 65.0448 38.4169C65.0448 38.4169 66.41 37.1389 66.5035 36.8981C66.4848 36.9166 66.3726 36.3053 65.7181 36.1016Z" fill="white"/>
<path d="M63.3247 36.7686L63.1938 37.2502L63.9418 37.8058C63.9418 37.8058 63.3434 38.0652 63.0816 38.2319C63.0816 38.2319 62.7636 37.8799 62.7636 37.2872C62.7449 37.2872 62.8572 36.8797 63.3247 36.7686Z" fill="white"/>
<path d="M65.8117 30.7671C65.8117 30.7671 65.3442 30.0262 62.9878 29.6187C62.9878 29.6187 62.5951 30.7115 65.8117 30.7671Z" fill="#233561"/>
<path d="M66.13 30.7117C66.13 30.7117 65.6811 30.1189 64.2785 29.7114C64.2785 29.7114 64.1663 30.4709 66.13 30.7117Z" fill="#233561"/>
<path d="M65.9238 30.8597C65.9238 30.8597 65.9238 30.5448 66.3727 30.1929C66.3914 30.1929 66.6345 30.5819 65.9238 30.8597Z" fill="#233561"/>
<path d="M65.9238 30.8225C65.9238 30.8225 66.1482 30.6002 66.728 30.6743C66.728 30.6743 66.6158 31.1189 65.9238 30.8225Z" fill="#233561"/>
<path d="M62.6133 32.9898C62.6133 33.2862 62.8003 33.527 63.0247 33.527C63.2491 33.527 63.4362 33.2862 63.4362 32.9898C63.4362 32.6934 63.2491 32.4526 63.0247 32.4526C62.7816 32.4526 62.6133 32.6934 62.6133 32.9898Z" stroke="#F2F2F2" stroke-width="0.366" stroke-miterlimit="10"/>
<path d="M62.6153 32.8601C62.6153 32.8601 62.5592 32.6934 62.3535 32.7305" stroke="#F2F2F2" stroke-width="0.366" stroke-miterlimit="10"/>
<path d="M63.7368 34.0825C63.7368 34.0825 64.1295 34.5456 64.1108 34.9531C64.1108 34.9346 63.6994 34.5085 63.7368 34.0825Z" fill="#233561"/>
<path d="M62.3535 34.2864C62.3535 34.2864 62.8772 33.7122 63.2886 33.9344C63.2886 33.9344 62.765 34.5828 62.3535 34.2864Z" fill="#233561"/>
<path d="M63.8484 34.3604C63.8484 34.3604 64.2037 34.916 64.0354 35.305C64.0167 35.305 63.6239 34.7493 63.8484 34.3604Z" fill="#233561"/>
<path d="M63.8666 38.2319L64.4276 38.695L63.8105 39.3804L63.3242 38.5839L63.8666 38.2319Z" fill="#233561"/>
<path d="M57.7138 73.8149C58.0878 73.6482 57.9382 73.0925 58.387 73.4074C58.6676 73.6112 58.8172 73.9631 59.1164 74.0001C59.771 73.9816 60.2198 73.6482 60.2198 73.6482H60.2946C60.2946 73.6482 60.6125 74.2039 60.519 75.2967C60.519 75.3523 60.4629 75.4079 60.4068 75.4079L59.2473 75.482C58.1626 75.1115 58.4057 75.7969 55.32 75.4264C55.2639 75.4264 55.2265 75.3708 55.2078 75.3338C55.1704 75.0004 55.2078 73.9816 57.7138 73.8149Z" fill="#233561"/>
<path d="M72.2836 71.666C72.4707 71.3141 72.0218 70.9622 72.5642 70.9251C72.9195 70.9066 73.2561 71.1103 73.5179 70.9622C74.0229 70.5546 74.1725 70.0175 74.1725 70.0175L74.2286 69.9619C74.2286 69.9619 74.8271 70.2027 75.4255 71.1289C75.4629 71.1844 75.4442 71.2585 75.4068 71.2956L74.5278 72.0365C73.4431 72.407 74.0603 72.7959 71.386 74.3704C71.3299 74.4074 71.2737 74.3889 71.2363 74.3519C70.9932 74.1296 70.3948 73.2961 72.2836 71.666Z" fill="#233561"/>
<path d="M63.4004 33.0083L65.4389 33.138" stroke="#F2F2F2" stroke-width="0.366" stroke-miterlimit="10"/>
<path d="M68.1702 43.6039C68.0019 43.2705 67.8897 42.937 67.7774 42.5851C67.6652 42.2332 67.5717 41.8812 67.5156 41.5293C67.6839 41.8627 67.7962 42.1961 67.9084 42.5481C68.0206 42.8815 68.1141 43.2334 68.1702 43.6039Z" fill="#B58C40"/>
<path d="M60.6698 39.1211C60.6137 39.3248 60.5576 39.5286 60.5015 39.7138C60.4454 39.9176 60.3893 40.1028 60.2958 40.3066C60.2771 40.1028 60.2958 39.8805 60.3706 39.6768C60.4267 39.473 60.5202 39.2693 60.6698 39.1211Z" fill="#B58C40"/>
<path d="M65.6444 40.6587C65.4948 41.1588 65.3264 41.6589 65.1394 42.1405C64.9524 42.6221 64.7467 43.1037 64.5223 43.5853C64.2978 44.0484 64.0547 44.5115 63.7555 44.956C63.6059 45.1783 63.4376 45.3821 63.2506 45.5673C63.0635 45.7525 62.8391 45.9192 62.5586 45.9378C62.8204 45.9007 63.0261 45.7155 63.1944 45.5302C63.3628 45.345 63.5124 45.1227 63.6433 44.9005C63.9238 44.4559 64.1482 43.9928 64.3727 43.5298C64.5971 43.0667 64.8028 42.5851 65.0085 42.1035C65.2516 41.6219 65.4573 41.1403 65.6444 40.6587Z" fill="#B58C40"/>
<path d="M61.1934 43.0479C61.2682 43.6035 61.3617 44.1592 61.4552 44.7149C61.5487 45.2706 61.6422 45.8263 61.7731 46.3635C61.8853 46.9192 62.0162 47.4563 62.2032 47.9935C62.2968 48.2528 62.3903 48.5121 62.5212 48.7715C62.6521 49.0123 62.8017 49.2716 63.0074 49.4383C62.7643 49.2901 62.596 49.0493 62.4464 48.8085C62.3155 48.5677 62.2032 48.3084 62.091 48.0305C61.8853 47.4934 61.7544 46.9562 61.6422 46.4005C61.53 45.8448 61.4365 45.2891 61.3617 44.7334C61.2869 44.1778 61.2308 43.6221 61.1934 43.0479Z" fill="#B58C40"/>
<path d="M67.0844 46.5119C66.9535 46.549 66.8413 46.586 66.7291 46.6046C66.6169 46.6416 66.486 46.6601 66.3738 46.6787L66.0184 46.7527C65.9623 46.7713 65.9062 46.7713 65.8501 46.8083H65.8314L65.8501 46.8268C65.8688 46.8454 65.9062 46.8639 65.9249 46.8639C65.8875 46.8639 65.8688 46.8639 65.8314 46.8454C65.8127 46.8454 65.794 46.8268 65.7753 46.8083C65.7566 46.7713 65.7753 46.7527 65.794 46.7342C65.8501 46.6787 65.9062 46.6601 65.9623 46.6416C66.0746 46.586 66.2055 46.5675 66.3364 46.549C66.5795 46.4934 66.8226 46.4749 67.0844 46.5119Z" fill="#B58C40"/>
<path d="M66.9345 46.6968C66.8223 46.8264 66.7101 46.9376 66.5979 47.0302C66.5418 47.0858 66.4857 47.1413 66.4483 47.1784C66.4296 47.1969 66.4109 47.2339 66.4109 47.2525C66.4109 47.271 66.4483 47.308 66.467 47.3266C66.4296 47.3266 66.3735 47.3266 66.336 47.271C66.2986 47.2154 66.3173 47.1599 66.336 47.1228C66.3735 47.0302 66.4296 46.9746 66.4857 46.9191C66.6353 46.8264 66.7662 46.7338 66.9345 46.6968Z" fill="#B58C40"/>
<path opacity="0.23" d="M19.9003 30.4703C19.601 30.4889 19.3392 30.5074 19.1148 30.5074C17.6561 33.6193 16.8145 37.0645 16.6836 40.6765C16.8519 40.8988 16.9828 41.0285 16.9828 41.0285C16.9828 41.0285 18.9091 38.7687 19.5262 35.4901C20.0125 32.8042 21.8265 33.4526 23.3414 33.4896C25.8848 33.5637 26.4271 32.6561 24.6131 30.9149C22.7242 29.1367 22.238 30.3222 19.9003 30.4703Z" fill="url(#paint7_linear_1638_4698)"/>
<path d="M16.9448 39.9728C16.9448 39.9728 14.1396 36.7683 14.738 35.4161C15.3365 34.0454 14.7941 32.3969 15.9723 30.8039C17.1506 29.2109 17.562 29.5443 19.8997 29.4147C22.2374 29.2665 22.7423 28.081 24.5938 29.8592C26.4079 31.6004 25.8655 32.508 23.3221 32.4339C21.8073 32.3969 19.9932 31.7486 19.507 34.4344C18.8898 37.7315 16.9448 39.9728 16.9448 39.9728Z" fill="#7FC991"/>
<path d="M13.3358 38.0649C14.1587 37.6018 13.4667 35.3235 12.1202 34.1195C11.1851 33.2859 10.25 33.9898 8.9035 32.9155C7.94971 32.156 8.00582 31.4707 7.25775 31.304C6.36007 31.1187 6.02344 32.0078 4.60212 32.3042C3.2369 32.582 2.90027 31.8782 2.0587 32.2116C0.506463 32.8414 -0.578232 36.1199 0.35685 37.1202C0.9366 37.7314 2.35792 35.8791 3.89146 36.5089C4.65823 36.8238 4.63952 37.398 5.40629 37.5833C6.47228 37.8611 7.03333 36.8609 8.15543 36.6756C10.3248 36.3237 12.4007 38.5835 13.3358 38.0649Z" fill="#7FC991"/>
<path d="M18.8719 53.3463C18.6662 52.309 18.4231 51.2903 18.18 50.2715C17.9369 49.2527 17.675 48.234 17.3945 47.2152C16.8148 45.1962 16.1976 43.1772 15.3747 41.2508C14.9633 40.2876 14.5145 39.3429 13.8973 38.4908L13.4298 37.8611C13.2615 37.6573 13.0931 37.4536 12.9248 37.2498C12.8313 37.1572 12.7565 37.046 12.663 36.9534L12.3825 36.6756C12.1955 36.4904 12.0271 36.3051 11.8214 36.1199C11.036 35.416 10.1757 34.8048 9.2219 34.3417C8.28682 33.8786 7.25823 33.5267 6.21094 33.4155C7.27693 33.4896 8.30552 33.823 9.2593 34.2676C10.2318 34.7121 11.1108 35.3234 11.9149 36.0273C12.1207 36.194 12.3077 36.3792 12.4947 36.5644L12.7752 36.8423C12.8687 36.9349 12.9435 37.046 13.037 37.1387C13.2053 37.3424 13.3924 37.5276 13.5607 37.7499L14.0282 38.3982C14.6454 39.2688 15.1129 40.232 15.5244 41.1952C15.9358 42.1769 16.2911 43.1586 16.6277 44.1589C16.9457 45.1591 17.2636 46.1779 17.5254 47.1967C18.0678 49.2157 18.5166 51.2717 18.8719 53.3463Z" fill="#40635B"/>
<path d="M19.3213 53.2909C18.9659 51.5127 18.6293 49.753 18.2927 47.9748L17.3202 42.6402C17.021 40.862 16.703 39.0838 16.4599 37.287C16.3477 36.3979 16.2355 35.4903 16.2168 34.5827C16.2168 34.1381 16.2355 33.675 16.329 33.2305C16.3851 33.0082 16.4599 32.7859 16.5908 32.6007C16.703 32.4155 16.8714 32.2488 17.0584 32.1006C16.8901 32.2488 16.7217 32.4155 16.6095 32.6192C16.4973 32.823 16.4225 33.0267 16.3851 33.249C16.2916 33.6936 16.2916 34.1381 16.3103 34.5827C16.3477 35.4718 16.4786 36.3794 16.6095 37.2685C16.8901 39.0467 17.1893 40.8249 17.5259 42.6031L18.461 47.9378C18.7415 49.7345 19.0407 51.5127 19.3213 53.2909Z" fill="#40635B"/>
<path d="M16.8709 46.7706C16.8709 46.7706 17.1514 43.2512 16.048 42.6585C14.9446 42.0658 14.4396 40.7136 12.8313 40.2875C11.223 39.843 11.1482 40.2875 9.53982 41.3989C7.93148 42.5103 6.9777 41.9917 6.71587 44.1033C6.45405 46.1779 7.27692 46.4742 8.90396 45.1406C9.87645 44.3256 10.718 42.9919 12.4386 44.4923C14.5519 46.3075 16.8709 46.7706 16.8709 46.7706Z" fill="#7FC991"/>
<path d="M18.403 53.4019L18.2721 52.6425L18.1225 51.883L17.9729 51.1421L17.8046 50.4012C17.5615 49.4009 17.2996 48.4192 16.963 47.456C16.6451 46.4928 16.2337 45.5481 15.7474 44.659C15.6352 44.4368 15.4856 44.2145 15.3547 44.0107C15.2238 43.7885 15.0554 43.6032 14.9058 43.3809L14.7936 43.2328L14.6627 43.0846L14.4009 42.8067C14.3261 42.7141 14.2139 42.6215 14.1204 42.5474L13.8398 42.2881C14.0456 42.4548 14.2513 42.603 14.4383 42.7882L14.7188 43.0661L14.8497 43.1957L14.9619 43.3439C15.1303 43.5477 15.2986 43.7329 15.4295 43.9552C15.5791 44.1589 15.7287 44.3812 15.8596 44.6035C16.3833 45.4926 16.7947 46.4372 17.1313 47.4004C17.4493 48.3636 17.7298 49.3639 17.9355 50.3641C18.1412 51.3829 18.2908 52.4017 18.403 53.4019Z" fill="#40635B"/>
<path opacity="0.11" d="M19.4515 76.0004C28.3961 76.0004 35.6471 74.9058 35.6471 73.5554C35.6471 72.205 28.3961 71.1104 19.4515 71.1104C10.5069 71.1104 3.25586 72.205 3.25586 73.5554C3.25586 74.9058 10.5069 76.0004 19.4515 76.0004Z" fill="url(#paint8_linear_1638_4698)"/>
<path d="M5.44312 48.2896L3.23633 73.0178H8.56629L5.44312 48.2896Z" fill="#ABBAC2"/>
<path d="M5.7793 52.9944C5.7793 52.9944 6.56477 73.9624 7.87388 74.7219C9.18299 75.4628 32.1299 76.3149 37.2729 71.7952C37.2729 71.7952 35.3092 68.8501 34.8416 66.2939C34.3741 63.7377 33.2707 51.1235 33.2707 51.1235L5.7793 52.9944Z" fill="white"/>
<path d="M15.0933 59.2737L10.8668 59.8479L10.5488 55.4209L14.9437 55.1245L15.0933 59.2737Z" stroke="#CCCCCC" stroke-width="0.5" stroke-miterlimit="10"/>
<path d="M20.7226 59.1628L16.3464 59.4592L16.0098 54.7358H20.4046L20.7226 59.1628Z" stroke="#CCCCCC" stroke-width="0.5" stroke-miterlimit="10"/>
<path d="M26.016 58.4959L21.8082 59.0886L21.4902 54.6616L25.8851 54.3652L26.016 58.4959Z" stroke="#CCCCCC" stroke-width="0.5" stroke-miterlimit="10"/>
<path d="M15.6933 65.6644L11.2797 65.7385L10.9805 61.3115L15.3567 61.0151L15.6933 65.6644Z" stroke="#CCCCCC" stroke-width="0.5" stroke-miterlimit="10"/>
<path d="M21.1336 65.0531L16.7761 65.6829L16.4395 60.941L20.8156 60.4038L21.1336 65.0531Z" stroke="#CCCCCC" stroke-width="0.5" stroke-miterlimit="10"/>
<path d="M26.6308 64.9978L22.2172 64.9792L21.918 60.5522L26.2942 60.2559L26.6308 64.9978Z" stroke="#CCCCCC" stroke-width="0.5" stroke-miterlimit="10"/>
<path d="M16.0839 71.3323L11.7077 71.6286L11.3711 67.0535L15.7847 66.9053L16.0839 71.3323Z" stroke="#CCCCCC" stroke-width="0.5" stroke-miterlimit="10"/>
<path d="M31.2222 53.9988L26.8379 54.3032L27.1505 58.7196L31.5349 58.4152L31.2222 53.9988Z" stroke="#CCCCCC" stroke-width="0.5" stroke-miterlimit="10"/>
<path d="M31.6324 59.8899L27.248 60.1943L27.5607 64.6107L31.945 64.3063L31.6324 59.8899Z" stroke="#CCCCCC" stroke-width="0.5" stroke-miterlimit="10"/>
<path d="M32.3726 70.2024L27.9777 70.4988L27.8281 65.7939L32.0547 65.7754L32.3726 70.2024Z" stroke="#CCCCCC" stroke-width="0.5" stroke-miterlimit="10"/>
<path d="M21.5652 70.9436L16.9272 70.8325L16.8711 66.8315L21.2473 66.5166L21.5652 70.9436Z" stroke="#CCCCCC" stroke-width="0.5" stroke-miterlimit="10"/>
<path d="M27.0261 70.5727L22.65 70.8691L22.332 66.4421L26.7082 65.9976L27.0261 70.5727Z" stroke="#CCCCCC" stroke-width="0.5" stroke-miterlimit="10"/>
<path d="M32.9535 46.4004L5.44336 48.2897L5.77999 52.9761L33.2901 51.0867L32.9535 46.4004ZM10.5863 51.0867C10.1562 51.1238 9.78214 50.7903 9.74473 50.3643C9.70733 49.9383 10.044 49.5678 10.4741 49.5308C10.9042 49.4937 11.2783 49.8271 11.3157 50.2532C11.3531 50.6792 11.0164 51.0497 10.5863 51.0867ZM15.2617 50.7533C14.8316 50.7903 14.4575 50.4569 14.4201 50.0309C14.3827 49.6049 14.7194 49.2344 15.1495 49.1974C15.5796 49.1603 15.9537 49.4937 15.9911 49.9198C16.0285 50.3458 15.7106 50.7163 15.2617 50.7533ZM19.9558 50.4199C19.5257 50.4569 19.1517 50.1235 19.1143 49.6975C19.0768 49.2715 19.4135 48.901 19.8436 48.864C20.2738 48.8269 20.6478 49.1603 20.6852 49.5864C20.7226 50.0309 20.386 50.4014 19.9558 50.4199ZM24.6312 50.105C24.2011 50.142 23.8271 49.8086 23.7897 49.3826C23.7523 48.9566 24.0889 48.5861 24.519 48.5491C24.9492 48.512 25.3232 48.8454 25.3606 49.2715C25.398 49.6975 25.0801 50.068 24.6312 50.105ZM29.3253 49.7716C28.8952 49.8086 28.5212 49.4752 28.4838 49.0492C28.4464 48.6232 28.783 48.2527 29.2131 48.2156C29.6433 48.1786 30.0173 48.512 30.0547 48.938C30.0921 49.3826 29.7555 49.7531 29.3253 49.7716Z" fill="#FCC858"/>
<path d="M32.9336 73.0178C33.1954 72.814 33.4385 72.6103 33.663 72.388C33.8874 72.1657 34.1118 71.9435 34.3175 71.6841C34.5232 71.4433 34.6915 71.1655 34.8412 70.8876C34.9908 70.6098 35.0843 70.3134 35.1778 69.9985C35.1591 70.3134 35.103 70.6468 34.9721 70.9617C34.8412 71.2581 34.6728 71.5545 34.4671 71.8138C34.0557 72.3139 33.532 72.7399 32.9336 73.0178Z" fill="#CCCCCC"/>
<path d="M6.56445 53.6611L6.71407 56.1617L6.88238 58.6624C6.99459 60.3294 7.1255 61.9965 7.27512 63.6636C7.42473 65.3306 7.61175 66.9977 7.83616 68.6463C7.94837 69.4798 8.09799 70.2948 8.285 71.1098C8.32241 71.3136 8.37851 71.5173 8.43462 71.7211C8.49072 71.9248 8.54683 72.1286 8.60293 72.3138C8.62163 72.4064 8.67774 72.5176 8.71514 72.6102C8.75254 72.7028 8.78995 72.8139 8.82735 72.9066L8.95826 73.1844L9.12658 73.4437C8.84605 73.1288 8.69644 72.7213 8.54683 72.3323C8.47202 72.1286 8.39721 71.9434 8.35981 71.7396C8.30371 71.5359 8.2476 71.3321 8.1915 71.1284C7.98578 70.3133 7.83616 69.4983 7.70525 68.6648C7.44343 67.0162 7.25641 65.3492 7.0881 63.6821C6.93849 62.015 6.82628 60.3479 6.73277 58.6809C6.63926 56.9953 6.58315 55.3282 6.56445 53.6611Z" fill="#CCCCCC"/>
<path d="M5.77999 52.9944L6.84598 52.9203L6.56546 48.6415L5.44336 48.2896L5.77999 52.9944Z" fill="#B58C40"/>
<path d="M7.83789 48.1227C7.9875 47.8078 8.17452 47.5114 8.41764 47.2521C8.66076 46.9928 8.94129 46.752 9.29662 46.6038C9.46493 46.5297 9.67065 46.4927 9.85767 46.4927C10.0447 46.4927 10.2504 46.5297 10.4374 46.6038C10.7927 46.752 11.092 46.9928 11.3351 47.2706C11.5782 47.5485 11.7465 47.9189 11.7839 48.3079C11.8213 48.6969 11.7091 49.0674 11.5221 49.4008C11.3351 49.7157 11.092 49.9935 10.8114 50.2158C10.5309 50.4381 10.1943 50.6048 9.85767 50.6604C10.1756 50.5122 10.4561 50.3084 10.6992 50.0676C10.9424 49.8268 11.1294 49.549 11.279 49.2711C11.4099 48.9748 11.4847 48.6599 11.4473 48.3635C11.4286 48.0486 11.279 47.7708 11.0733 47.53C10.8676 47.2892 10.6057 47.0669 10.3252 46.9372C10.0447 46.8076 9.72676 46.789 9.40883 46.9002C9.1096 46.9928 8.81038 47.178 8.56725 47.4188C8.28673 47.6041 8.06231 47.8449 7.83789 48.1227Z" fill="#4D4D4D"/>
<path d="M12.5488 47.7155C12.6984 47.4006 12.8855 47.1042 13.1286 46.8449C13.3717 46.5856 13.6522 46.3448 14.0076 46.1966C14.1759 46.1225 14.3816 46.0854 14.5686 46.0854C14.7556 46.0854 14.9613 46.1225 15.1484 46.1966C15.5037 46.3448 15.8029 46.5856 16.046 46.8634C16.2892 47.1413 16.4575 47.5117 16.4949 47.9007C16.5323 48.2897 16.4201 48.6602 16.2331 48.9936C16.046 49.3085 15.8029 49.5863 15.5224 49.8086C15.2419 50.0309 14.9052 50.1976 14.5686 50.2531C14.8865 50.1049 15.1671 49.9012 15.4102 49.6604C15.6533 49.4196 15.8403 49.1417 15.9899 48.8639C16.1208 48.5675 16.1956 48.2526 16.1582 47.9563C16.1395 47.6414 15.9899 47.3635 15.7842 47.1227C15.5785 46.8819 15.3167 46.6597 15.0361 46.53C14.7556 46.4003 14.4377 46.3818 14.1198 46.493C13.8205 46.5856 13.5213 46.7708 13.2782 47.0116C12.9977 47.1783 12.7732 47.4376 12.5488 47.7155Z" fill="#4D4D4D"/>
<path d="M17.2988 47.493C17.4297 47.1966 17.6168 46.9373 17.8225 46.678C18.0469 46.4372 18.29 46.2149 18.6266 46.0853C18.795 46.0112 18.9633 45.9741 19.1503 45.9741C19.3373 45.9741 19.5056 46.0112 19.6739 46.0667C20.0106 46.1964 20.2724 46.4187 20.4968 46.6965C20.7212 46.9558 20.8708 47.3078 20.9082 47.6597C20.9269 48.0117 20.8334 48.3636 20.6651 48.66C20.4968 48.9563 20.2724 49.1971 19.9919 49.4009C19.73 49.6046 19.4308 49.7528 19.0942 49.8084C19.3934 49.6787 19.6365 49.475 19.861 49.2527C20.0854 49.0304 20.2537 48.7896 20.3846 48.5118C20.5155 48.2525 20.5716 47.9561 20.5342 47.6782C20.5155 47.4004 20.3846 47.1411 20.1976 46.9188C20.0106 46.6965 19.7861 46.4928 19.5243 46.3816C19.2625 46.2705 18.982 46.252 18.7015 46.3446C18.4209 46.4372 18.1591 46.6039 17.9347 46.8077C17.7103 47.0114 17.4858 47.2337 17.2988 47.493Z" fill="#4D4D4D"/>
<path d="M21.957 47.0853C22.0879 46.7889 22.275 46.5296 22.4807 46.2703C22.7051 46.0295 22.9482 45.8072 23.2848 45.6775C23.4532 45.6035 23.6215 45.5664 23.8085 45.5664C23.9955 45.5664 24.1638 45.6035 24.3321 45.659C24.6688 45.7887 24.9306 46.011 25.155 46.2703C25.3794 46.5296 25.529 46.8815 25.5664 47.2335C25.5851 47.5854 25.4916 47.9374 25.3233 48.2337C25.155 48.5301 24.9306 48.7709 24.6688 48.9746C24.4069 49.1599 24.1077 49.3266 23.7898 49.3822C24.089 49.2525 24.3321 49.0487 24.5379 48.845C24.7436 48.6227 24.9306 48.3819 25.0615 48.1041C25.1924 47.8447 25.2485 47.5484 25.2111 47.2705C25.1924 46.9927 25.0615 46.7334 24.8745 46.5111C24.6875 46.2888 24.463 46.0851 24.2012 45.9739C23.9394 45.8628 23.6589 45.8443 23.3784 45.9369C23.0978 46.0295 22.836 46.1962 22.6116 46.3999C22.3498 46.6037 22.144 46.826 21.957 47.0853Z" fill="#4D4D4D"/>
<path d="M26.875 46.7152C27.0059 46.4374 27.1742 46.1595 27.3799 45.9187C27.5857 45.6779 27.8475 45.4556 28.1654 45.326C28.315 45.2704 28.502 45.2148 28.6704 45.2148C28.8387 45.2148 29.0257 45.2519 29.194 45.3075C29.5306 45.4371 29.7925 45.6594 29.9982 45.9187C30.2226 46.178 30.3722 46.5115 30.3909 46.8634C30.4096 47.2153 30.3161 47.5487 30.1478 47.8451C29.9795 48.1415 29.7551 48.3823 29.4932 48.5675C29.2314 48.7527 28.9322 48.9009 28.633 48.9565C28.9135 48.8268 29.1566 48.6416 29.381 48.4193C29.5867 48.197 29.7738 47.9563 29.886 47.6969C29.9982 47.4376 30.073 47.1598 30.0356 46.8819C30.0169 46.6041 29.886 46.3633 29.7176 46.141C29.5306 45.9187 29.3062 45.7335 29.0631 45.6223C28.82 45.5112 28.5394 45.4927 28.2589 45.5853C27.9971 45.6779 27.7353 45.8446 27.5109 46.0299C27.2677 46.2336 27.062 46.4744 26.875 46.7152Z" fill="#4D4D4D"/>
<path d="M30.0915 54.6985C29.6239 54.643 29.1377 54.717 28.7263 54.9578C28.3335 55.1801 27.9969 55.5691 27.9408 56.0137C27.8847 56.4582 28.053 56.9028 28.3522 57.2547C28.6328 57.5881 29.0442 57.866 29.493 57.903C29.9419 57.9586 30.3907 57.7733 30.7273 57.477C31.064 57.1806 31.2884 56.7361 31.251 56.2915C31.2136 55.847 30.8769 55.458 30.4655 55.2542C30.0541 55.0319 29.5678 54.9949 29.1003 55.1246C29.5491 54.9578 30.0541 54.9764 30.5029 55.1801C30.9331 55.3839 31.3258 55.7729 31.3819 56.273C31.4193 56.5138 31.3819 56.7731 31.2697 56.9954C31.1575 57.2177 31.0079 57.4214 30.8395 57.5881C30.4842 57.9215 29.9793 58.1438 29.4743 58.0882C28.9694 58.0327 28.5392 57.7363 28.2213 57.3658C27.9221 56.9954 27.7164 56.4953 27.8099 55.9951C27.9034 55.495 28.2587 55.106 28.6889 54.8838C29.1377 54.6615 29.6426 54.5874 30.0915 54.6985Z" fill="#FCC858"/>
<path opacity="0.23" d="M54.8147 20.6904C55.301 20.9498 55.7872 21.2276 56.2547 21.524C56.928 21.2832 58.0314 20.746 59.1909 20.0421C57.0215 18.5047 54.6277 17.2637 52.0469 16.4116C53.0381 18.0046 54.1041 19.6717 54.8147 20.6904Z" fill="url(#paint9_linear_1638_4698)"/>
<path d="M51.0566 12.2252C51.0566 12.2252 56.8729 21.9498 57.4526 22.098C58.0324 22.2462 64.9894 18.8935 65.2886 15.9298C65.2886 15.9298 63.9234 14.8555 63.1192 13.7441C62.2776 12.5957 58.6121 6.85352 58.6121 6.85352L51.0566 12.2252Z" fill="white"/>
<path d="M64.334 17.2079C64.3527 16.893 64.3527 16.5966 64.334 16.3188C64.3153 16.1706 64.3153 16.0224 64.2779 15.8742C64.2592 15.7261 64.2218 15.5779 64.2031 15.4297C64.2966 15.5593 64.3714 15.689 64.4275 15.8372C64.4837 15.9854 64.5024 16.1336 64.5211 16.3003C64.5398 16.4485 64.5211 16.6152 64.5024 16.7633C64.4649 16.9115 64.4088 17.0782 64.334 17.2079Z" fill="#ABBAC2"/>
<path d="M52.9648 12.9476L53.6568 12.466L54.3488 12.0029L55.7327 11.0768C56.2002 10.7804 56.6491 10.4655 57.0979 10.1506C57.5467 9.83574 57.9956 9.52085 58.4257 9.15039C58.3322 9.24301 58.2387 9.35414 58.1265 9.44676L57.8273 9.7246C57.6216 9.90983 57.3971 10.0765 57.1727 10.2432C56.7426 10.5767 56.275 10.9101 55.8262 11.2064C55.3587 11.5213 54.8911 11.8177 54.4236 12.0956C53.9373 12.4104 53.4511 12.6883 52.9648 12.9476Z" fill="#ABBAC2"/>
<path d="M53.75 13.9662L54.442 13.4846L55.1339 13.0215L56.5178 12.0953C56.9854 11.799 57.4342 11.4841 57.8831 11.1692C58.3319 10.8543 58.7807 10.5394 59.2109 10.1689C59.1174 10.2616 59.0239 10.3727 58.9117 10.4653L58.6124 10.7432C58.4067 10.9284 58.1823 11.0951 57.9579 11.2618C57.5277 11.5952 57.0602 11.9286 56.6114 12.225C56.1438 12.5399 55.6763 12.8363 55.2087 13.1141C54.7225 13.4475 54.2362 13.7254 53.75 13.9662Z" fill="#ABBAC2"/>
<path d="M54.5352 15.0038L55.2271 14.5222L55.9191 14.0591L57.303 13.1329C57.7705 12.8366 58.2194 12.5217 58.6682 12.2068C59.1171 11.8919 59.5659 11.577 59.996 11.2065C59.9025 11.2992 59.809 11.4103 59.6968 11.5029L59.3976 11.7808C59.1919 11.966 58.9674 12.1327 58.743 12.2994C58.3129 12.6328 57.8453 12.9662 57.3965 13.2626C56.929 13.5775 56.4614 13.8739 55.9939 14.1517C55.5076 14.4666 55.0214 14.7444 54.5352 15.0038Z" fill="#ABBAC2"/>
<path d="M55.3203 16.0223L56.0123 15.5407L56.7042 15.0776L58.0882 14.1515C58.5557 13.8551 59.0045 13.5402 59.4534 13.2253C59.9022 12.9105 60.3511 12.5956 60.7812 12.2251C60.6877 12.3177 60.5942 12.4289 60.482 12.5215L60.1827 12.7993C59.977 12.9845 59.7526 13.1512 59.5282 13.318C59.098 13.6514 58.6305 13.9848 58.1817 14.2812C57.7141 14.596 57.2466 14.8924 56.779 15.1703C56.2928 15.4852 55.8066 15.763 55.3203 16.0223Z" fill="#ABBAC2"/>
<path d="M56.1074 17.0414L56.7994 16.5598L57.4913 16.0967L58.8753 15.1705C59.3428 14.8742 59.7916 14.5593 60.2405 14.2444C60.6893 13.9295 61.1382 13.6146 61.5683 13.2441C61.4748 13.3368 61.3813 13.4479 61.2691 13.5405L60.9698 13.8184C60.7641 14.0036 60.5397 14.1703 60.3153 14.337C59.8852 14.6704 59.4176 15.0038 58.9688 15.3002C58.5012 15.6151 58.0337 15.9115 57.5661 16.1893C57.0799 16.5227 56.5937 16.8006 56.1074 17.0414Z" fill="#ABBAC2"/>
<path d="M56.8926 18.0785L57.5845 17.5969L58.2765 17.1338L59.6604 16.2076C60.128 15.9113 60.5768 15.5964 61.0256 15.2815C61.4745 14.9666 61.9233 14.6517 62.3535 14.2812C62.2599 14.3739 62.1664 14.485 62.0542 14.5776L61.755 14.8555C61.5493 15.0407 61.3249 15.2074 61.1004 15.3741C60.6703 15.7075 60.2028 16.0409 59.7539 16.3373C59.2864 16.6522 58.8188 16.9486 58.3513 17.2264C57.8651 17.5413 57.3788 17.8191 56.8926 18.0785Z" fill="#ABBAC2"/>
<path d="M57.6582 19.0975L58.3502 18.6159L59.0421 18.1528L60.426 17.2267C60.8936 16.9303 61.3424 16.6154 61.7913 16.3005C62.2401 15.9856 62.6889 15.6708 63.1191 15.3003C63.0256 15.3929 62.9321 15.504 62.8199 15.5967L62.5206 15.8745C62.3149 16.0597 62.0905 16.2264 61.8661 16.3932C61.4359 16.7266 60.9684 17.06 60.5196 17.3563C60.052 17.6712 59.5845 17.9676 59.1169 18.2455C58.6494 18.5789 58.1631 18.8567 57.6582 19.0975Z" fill="#ABBAC2"/>
</g>
<defs>
<linearGradient id="paint0_linear_1638_4698" x1="39.693" y1="8.06948" x2="42.855" y2="14.2865" gradientUnits="userSpaceOnUse">
<stop offset="0.078125" stop-color="#0094E8"/>
<stop offset="1" stop-color="#005ECE"/>
</linearGradient>
<linearGradient id="paint1_linear_1638_4698" x1="24.5986" y1="68.0748" x2="24.6156" y2="69.3118" gradientUnits="userSpaceOnUse">
<stop offset="0.078125" stop-color="#0094E8"/>
<stop offset="1" stop-color="#005ECE"/>
</linearGradient>
<linearGradient id="paint2_linear_1638_4698" x1="19.924" y1="56.797" x2="28.0489" y2="66.9183" gradientUnits="userSpaceOnUse">
<stop offset="0.078125" stop-color="#0094E8"/>
<stop offset="1" stop-color="#005ECE"/>
</linearGradient>
<linearGradient id="paint3_linear_1638_4698" x1="57.9259" y1="56.797" x2="66.0509" y2="66.9183" gradientUnits="userSpaceOnUse">
<stop offset="0.078125" stop-color="#0094E8"/>
<stop offset="1" stop-color="#005ECE"/>
</linearGradient>
<linearGradient id="paint4_linear_1638_4698" x1="20.976" y1="18.3684" x2="54.1262" y2="66.7382" gradientUnits="userSpaceOnUse">
<stop offset="0.078125" stop-color="#0094E8"/>
<stop offset="1" stop-color="#005ECE"/>
</linearGradient>
<linearGradient id="paint5_linear_1638_4698" x1="42.3549" y1="41.6171" x2="43.533" y2="43.3028" gradientUnits="userSpaceOnUse">
<stop offset="0.078125" stop-color="#0094E8"/>
<stop offset="1" stop-color="#005ECE"/>
</linearGradient>
<linearGradient id="paint6_linear_1638_4698" x1="60.0789" y1="74.5026" x2="60.1336" y2="75.7373" gradientUnits="userSpaceOnUse">
<stop offset="0.078125" stop-color="#0094E8"/>
<stop offset="1" stop-color="#005ECE"/>
</linearGradient>
<linearGradient id="paint7_linear_1638_4698" x1="17.4089" y1="30.6431" x2="24.7169" y2="39.2213" gradientUnits="userSpaceOnUse">
<stop offset="0.078125" stop-color="#0094E8"/>
<stop offset="1" stop-color="#005ECE"/>
</linearGradient>
<linearGradient id="paint8_linear_1638_4698" x1="5.86683" y1="71.4178" x2="6.54164" y2="77.8797" gradientUnits="userSpaceOnUse">
<stop offset="0.078125" stop-color="#0094E8"/>
<stop offset="1" stop-color="#005ECE"/>
</linearGradient>
<linearGradient id="paint9_linear_1638_4698" x1="52.6227" y1="16.7331" x2="55.338" y2="22.2183" gradientUnits="userSpaceOnUse">
<stop offset="0.078125" stop-color="#0094E8"/>
<stop offset="1" stop-color="#005ECE"/>
</linearGradient>
<clipPath id="clip0_1638_4698">
<rect width="87" height="76" fill="white"/>
</clipPath>
</defs>
</svg>
