<svg id="Layer_1" data-name="Layer 1" xmlns="http://www.w3.org/2000/svg" viewBox="0 0 120 120"><defs><style>.cls-1{fill:#9b8ff9;}.cls-2{fill:none;stroke:#231f20;stroke-linecap:round;stroke-miterlimit:10;}</style></defs><title>Artboard 2 copy</title><path class="cls-1" d="M50.09,86.72a7.29,7.29,0,1,1-7.29-7.29A7.28,7.28,0,0,1,50.09,86.72Z"/><circle class="cls-1" cx="74.93" cy="72.51" r="5.43" transform="translate(-14.66 19.15) rotate(-13.28)"/><path class="cls-2" d="M38.22,67.09c0-19.4,9.64-41,21.53-41s21.53,21.55,21.53,41"/><path class="cls-1" d="M44.57,60.51c0-13.67,6.8-28.87,15.18-28.87s15.18,15.2,15.18,28.87"/><path class="cls-2" d="M55.35,77.45c0-7.47,2-18.34,4.4-18.34S64.16,70,64.16,77.45Z"/><path class="cls-2" d="M76.88,86.83c0-7.48,2-18.34,4.4-18.34s4.41,10.86,4.41,18.34Z"/><path class="cls-2" d="M33.82,86.83c0-7.48,2-18.34,4.4-18.34s4.41,10.86,4.41,18.34Z"/><path class="cls-2" d="M66.26,44.21a6.51,6.51,0,1,1-6.51-6.51A6.5,6.5,0,0,1,66.26,44.21Z"/><line class="cls-2" x1="47.23" y1="83.67" x2="72.21" y2="83.67"/><line class="cls-2" x1="49.94" y1="89.79" x2="49.94" y2="98.22"/><line class="cls-2" x1="55.35" y1="89.79" x2="55.35" y2="94"/><line class="cls-2" x1="35.52" y1="94.3" x2="35.52" y2="102.74"/><line class="cls-2" x1="68.97" y1="89.79" x2="68.97" y2="98.22"/><line class="cls-2" x1="63.56" y1="89.79" x2="63.56" y2="94"/><line class="cls-2" x1="83.99" y1="94.3" x2="83.99" y2="102.74"/><line class="cls-2" x1="21.11" y1="84.74" x2="25.28" y2="88.91"/><line class="cls-2" x1="25.28" y1="84.74" x2="21.11" y2="88.91"/><line class="cls-2" x1="85.25" y1="24.13" x2="90.53" y2="29.41"/><line class="cls-2" x1="90.53" y1="24.13" x2="85.25" y2="29.41"/><path class="cls-2" d="M99.37,87.63c1.32,0,1.32,1.47,2.64,1.47s1.32-1.47,2.64-1.47,1.32,1.47,2.63,1.47"/><line class="cls-2" x1="26.16" y1="38.39" x2="31.78" y2="38.39"/><line class="cls-2" x1="72.8" y1="14.33" x2="75.61" y2="14.33"/><line class="cls-2" x1="91.07" y1="52.17" x2="99.92" y2="52.17"/><line class="cls-2" x1="100.52" y1="56.2" x2="103.33" y2="56.2"/><line class="cls-2" x1="94.09" y1="94.36" x2="96.9" y2="94.36"/><path class="cls-2" d="M12.85,57.53c1.33,0,1.33,1.46,2.64,1.46s1.32-1.46,2.63-1.46S19.45,59,20.76,59s1.33-1.46,2.65-1.46S24.73,59,26.06,59"/><line class="cls-2" x1="38.46" y1="19.35" x2="41.28" y2="19.35"/></svg>