<svg width="17" height="17" viewBox="0 0 17 17" fill="none" xmlns="http://www.w3.org/2000/svg">
<path d="M15.7866 11.6005L15.147 11.2088L15.147 11.2088L15.7866 11.6005ZM14.9911 12.8995L15.6307 13.2912L15.6307 13.2912L14.9911 12.8995ZM1.21341 5.39951L0.573798 5.00785L0.573798 5.00785L1.21341 5.39951ZM2.00887 4.10048L2.64848 4.49214L2.64848 4.49214L2.00887 4.10048ZM4.1821 3.55144L4.54068 2.89271L4.54068 2.89271L4.1821 3.55144ZM1.79572 7.44855L1.43714 8.10728L1.43714 8.10728L1.79572 7.44855ZM12.8179 13.4486L12.4593 14.1073L12.4593 14.1073L12.8179 13.4486ZM15.2043 9.55144L14.8457 10.2102L14.8457 10.2102L15.2043 9.55144ZM2.00887 12.8995L1.36925 13.2912L1.36925 13.2912L2.00887 12.8995ZM1.21341 11.6005L1.85302 11.2088L1.85302 11.2088L1.21341 11.6005ZM14.9911 4.10049L15.6307 3.70883L15.6307 3.70882L14.9911 4.10049ZM15.7866 5.39952L15.147 5.79119L15.147 5.79119L15.7866 5.39952ZM15.2043 7.44856L15.5629 8.10729L15.5629 8.10729L15.2043 7.44856ZM12.8179 3.55145L13.1765 4.21017L13.1765 4.21017L12.8179 3.55145ZM1.79572 9.55145L2.1543 10.2102L2.1543 10.2102L1.79572 9.55145ZM4.1821 13.4486L3.82352 12.7898L3.82351 12.7898L4.1821 13.4486ZM12.7333 3.59748L12.3748 2.93876L12.3748 2.93876L12.7333 3.59748ZM4.26667 3.59747L3.90808 4.2562L3.90809 4.2562L4.26667 3.59747ZM12.7333 13.4025L13.0919 12.7438L13.0919 12.7438L12.7333 13.4025ZM4.26667 13.4025L4.62524 14.0613L4.62525 14.0613L4.26667 13.4025ZM7.70454 1.75H9.29546V0.25H7.70454V1.75ZM9.29546 15.25H7.70454V16.75H9.29546V15.25ZM7.70454 15.25C7.19793 15.25 6.86363 14.8732 6.86363 14.5H5.36363C5.36363 15.7836 6.45388 16.75 7.70454 16.75V15.25ZM10.1364 14.5C10.1364 14.8732 9.80207 15.25 9.29546 15.25V16.75C10.5461 16.75 11.6364 15.7836 11.6364 14.5H10.1364ZM9.29546 1.75C9.80207 1.75 10.1364 2.12675 10.1364 2.5H11.6364C11.6364 1.21639 10.5461 0.25 9.29546 0.25V1.75ZM7.70454 0.25C6.45388 0.25 5.36363 1.21639 5.36363 2.5H6.86363C6.86363 2.12675 7.19793 1.75 7.70454 1.75V0.25ZM15.147 11.2088L14.3515 12.5079L15.6307 13.2912L16.4262 11.9921L15.147 11.2088ZM1.85302 5.79117L2.64848 4.49214L1.36926 3.70881L0.573798 5.00785L1.85302 5.79117ZM2.64848 4.49214C2.86925 4.1316 3.39631 3.97761 3.82351 4.21016L4.54068 2.89271C3.44603 2.29684 2.02712 2.63448 1.36926 3.70881L2.64848 4.49214ZM2.15431 6.78983C1.7505 6.57001 1.64948 6.12357 1.85302 5.79117L0.573798 5.00785C-0.1013 6.11034 0.319101 7.49866 1.43714 8.10728L2.15431 6.78983ZM14.3515 12.5079C14.1307 12.8684 13.6037 13.0224 13.1765 12.7898L12.4593 14.1073C13.554 14.7032 14.9729 14.3655 15.6307 13.2912L14.3515 12.5079ZM16.4262 11.9921C17.1013 10.8897 16.6809 9.50132 15.5629 8.89271L14.8457 10.2102C15.2495 10.43 15.3505 10.8764 15.147 11.2088L16.4262 11.9921ZM2.64848 12.5079L1.85302 11.2088L0.573797 11.9921L1.36925 13.2912L2.64848 12.5079ZM14.3515 4.49215L15.147 5.79119L16.4262 5.00786L15.6307 3.70883L14.3515 4.49215ZM15.147 5.79119C15.3505 6.12358 15.2495 6.57002 14.8457 6.78984L15.5629 8.10729C16.6809 7.49867 17.1013 6.11035 16.4262 5.00786L15.147 5.79119ZM13.1765 4.21017C13.6037 3.97762 14.1307 4.13161 14.3515 4.49215L15.6307 3.70882C14.9729 2.63449 13.554 2.29685 12.4593 2.89272L13.1765 4.21017ZM1.85302 11.2088C1.64948 10.8764 1.7505 10.43 2.1543 10.2102L1.43714 8.89272C0.3191 9.50134 -0.101301 10.8897 0.573797 11.9921L1.85302 11.2088ZM1.36925 13.2912C2.02712 14.3655 3.44603 14.7032 4.54068 14.1073L3.82351 12.7898C3.39631 13.0224 2.86925 12.8684 2.64848 12.5079L1.36925 13.2912ZM13.0919 4.25621L13.1765 4.21017L12.4593 2.89272L12.3748 2.93876L13.0919 4.25621ZM3.82351 4.21016L3.90808 4.2562L4.62525 2.93875L4.54068 2.89271L3.82351 4.21016ZM13.1765 12.7898L13.0919 12.7438L12.3748 14.0612L12.4593 14.1073L13.1765 12.7898ZM3.90809 12.7438L3.82352 12.7898L4.54067 14.1073L4.62524 14.0613L3.90809 12.7438ZM1.43714 8.10728C1.74828 8.27665 1.74829 8.72335 1.43714 8.89272L2.1543 10.2102C3.50923 9.47261 3.50923 7.52739 2.15431 6.78983L1.43714 8.10728ZM4.62525 14.0613C4.95812 13.88 5.36363 14.121 5.36363 14.5H6.86363C6.86363 12.983 5.24049 12.0185 3.90808 12.7438L4.62525 14.0613ZM11.6364 14.5C11.6364 14.121 12.0419 13.88 12.3748 14.0612L13.0919 12.7438C11.7595 12.0185 10.1364 12.983 10.1364 14.5H11.6364ZM15.5629 8.89271C15.2517 8.72334 15.2517 8.27666 15.5629 8.10729L14.8457 6.78984C13.4908 7.5274 13.4908 9.4726 14.8457 10.2102L15.5629 8.89271ZM3.90809 4.2562C5.24049 4.9815 6.86363 4.01702 6.86363 2.5H5.36363C5.36363 2.879 4.95812 3.11995 4.62525 2.93875L3.90809 4.2562ZM12.3748 2.93876C12.0419 3.11996 11.6364 2.879 11.6364 2.5H10.1364C10.1364 4.01703 11.7595 4.98151 13.0919 4.25621L12.3748 2.93876ZM10.25 8.5C10.25 9.4665 9.46651 10.25 8.50001 10.25V11.75C10.2949 11.75 11.75 10.2949 11.75 8.5H10.25ZM8.50001 10.25C7.53351 10.25 6.75001 9.4665 6.75001 8.5H5.25001C5.25001 10.2949 6.70508 11.75 8.50001 11.75V10.25ZM6.75001 8.5C6.75001 7.5335 7.53351 6.75 8.50001 6.75V5.25C6.70508 5.25 5.25001 6.70507 5.25001 8.5H6.75001ZM8.50001 6.75C9.46651 6.75 10.25 7.5335 10.25 8.5H11.75C11.75 6.70507 10.2949 5.25 8.50001 5.25V6.75Z" fill="#0341A3"/>
</svg>
