<svg id="Layer_1" data-name="Layer 1" xmlns="http://www.w3.org/2000/svg" viewBox="0 0 120 120"><defs><style>.cls-1{fill:#9b8ff9;}.cls-2{fill:none;stroke:#231f20;stroke-linecap:round;stroke-miterlimit:10;}</style></defs><title>Artboard 6 copy</title><path class="cls-1" d="M90.78,52.89A23.64,23.64,0,1,1,67.14,29.25,23.63,23.63,0,0,1,90.78,52.89Z"/><path class="cls-2" d="M94.6,52.89A27.46,27.46,0,1,1,67.14,25.43,27.46,27.46,0,0,1,94.6,52.89Z"/><path class="cls-2" d="M67.14,72.65A19.76,19.76,0,1,1,86.89,52.89,19.77,19.77,0,0,1,67.14,72.65Z"/><path class="cls-2" d="M43.69,67.21l-28,28.38a4.33,4.33,0,0,0,0,6.11l1.54,1.53a4.31,4.31,0,0,0,6.1,0l27.7-28.09A27.57,27.57,0,0,1,43.69,67.21Z"/><line class="cls-2" x1="16.88" y1="63.34" x2="30.47" y2="63.34"/><line class="cls-2" x1="45.26" y1="100.04" x2="58.85" y2="100.04"/><line class="cls-2" x1="32.93" y1="40.37" x2="36.31" y2="40.37"/><line class="cls-2" x1="99.4" y1="40.37" x2="102.78" y2="40.37"/><line class="cls-2" x1="10.43" y1="76.86" x2="13.81" y2="76.86"/><line class="cls-2" x1="92.46" y1="84.59" x2="95.84" y2="84.59"/><line class="cls-2" x1="75.33" y1="19.71" x2="78.71" y2="19.71"/><line class="cls-2" x1="70.86" y1="90.33" x2="79.79" y2="90.33"/><line class="cls-2" x1="91.38" y1="25.43" x2="100.31" y2="25.43"/><line class="cls-2" x1="92.16" y1="72.65" x2="101.09" y2="72.65"/><line class="cls-2" x1="40.79" y1="21.62" x2="49.72" y2="21.62"/></svg>