<svg id="Layer_1" data-name="Layer 1" xmlns="http://www.w3.org/2000/svg" viewBox="0 0 120 120"><defs><style>.cls-1{fill:#9b8ff9;}.cls-2,.cls-3{fill:none;stroke:#231f20;stroke-linecap:round;stroke-miterlimit:10;}.cls-3{fill-rule:evenodd;}</style></defs><title>Artboard 4 copy</title><rect class="cls-1" x="27.41" y="36.84" width="11.38" height="56.83" rx="4.65"/><circle class="cls-1" cx="58.62" cy="46.6" r="14.67" transform="translate(-6.86 82.92) rotate(-67.5)"/><path class="cls-2" d="M26.72,92.12V45.57a30.8,30.8,0,0,1,30.8-30.8h0a30.79,30.79,0,0,1,30.8,30.8l8.72,14-9.79,2.66V79.43H78.5v6.51"/><path class="cls-3" d="M39.47,42.63a5.11,5.11,0,0,1,2.28-8.22.53.53,0,0,0,.35-.47A5.77,5.77,0,0,1,48,29.56a5.19,5.19,0,0,1,1.1.2c.25.07.33,0,.45-.23A7.13,7.13,0,0,1,55,25.37a6.74,6.74,0,0,1,2.89.21.9.9,0,0,0,.56,0,7.26,7.26,0,0,1,9.2,3.6c0,.09.1.15.16.26A6.52,6.52,0,0,1,70.74,29a6.38,6.38,0,0,1,5.55,5.21,1,1,0,0,0,.42.7,5.59,5.59,0,0,1,2.23,3.61,1.72,1.72,0,0,0,.07.21v1c0,1.43-1.64,2.88-1.64,2.88"/><path class="cls-3" d="M78.5,46.6v3.76H78c-1.21,0-2.43,0-3.65,0a.46.46,0,0,0-.51.36c-.31.84-.66,1.66-1,2.53L76,56.35c-2.24,2.24-4.42,4.4-6.62,6.62l-.27-.24c-.88-.88-1.78-1.77-2.66-2.66a.4.4,0,0,0-.57-.11c-.73.32-1.46.63-2.19.91a.46.46,0,0,0-.37.52c0,1.21,0,2.43,0,3.65v.49H53.93v-.75c0-1.13,0-2.27,0-3.39a.47.47,0,0,0-.36-.52c-.75-.28-1.47-.59-2.2-.91a.41.41,0,0,0-.57.09c-1,1-2,2-2.91,2.92-2.2-2.21-4.38-4.38-6.6-6.59l3.13-3.08c-.39-1-.73-1.86-1.11-2.74,0-.11-.26-.19-.39-.2-1.23,0-2.46,0-3.69,0h-.5V46.6"/><path class="cls-3" d="M46.38,36a2.76,2.76,0,0,1,2.69,2.61"/><path class="cls-3" d="M68.88,38a2.77,2.77,0,0,1,2.61-2.69"/><path class="cls-3" d="M60.63,33.94a2.73,2.73,0,0,1,2.19-3"/><path class="cls-3" d="M56.39,33.94a2.74,2.74,0,0,0-2.2-3"/><path class="cls-3" d="M62.27,46.6a3.76,3.76,0,1,1-3.77-3.77A3.77,3.77,0,0,1,62.27,46.6Z"/><line class="cls-2" x1="39.47" y1="42.63" x2="45" y2="42.63"/><line class="cls-2" x1="71.25" y1="42.63" x2="76.78" y2="42.63"/><line class="cls-2" x1="96.55" y1="17.08" x2="91.94" y2="12.46"/><line class="cls-2" x1="91.94" y1="17.08" x2="96.55" y2="12.46"/><line class="cls-2" x1="11.83" y1="70.29" x2="6" y2="64.45"/><line class="cls-2" x1="6" y1="70.29" x2="11.83" y2="64.45"/><path class="cls-2" d="M13.2,34.05c-1.46,0-1.46-1.63-2.92-1.63s-1.46,1.63-2.91,1.63S5.9,32.42,4.44,32.42"/><path class="cls-2" d="M74,108.11c-1.46,0-1.46-1.62-2.92-1.62s-1.46,1.62-2.91,1.62-1.47-1.62-2.93-1.62"/><line class="cls-2" x1="104.78" y1="33.24" x2="98.56" y2="33.24"/><line class="cls-2" x1="14.76" y1="89.89" x2="11.64" y2="89.89"/><line class="cls-2" x1="63.5" y1="94.35" x2="53.7" y2="94.35"/><line class="cls-2" x1="53.04" y1="89.89" x2="49.92" y2="89.89"/><line class="cls-2" x1="33.1" y1="12.46" x2="36.2" y2="12.46"/><path class="cls-2" d="M116.28,80.87c-1.46,0-1.46-1.63-2.92-1.63s-1.46,1.63-2.92,1.63-1.46-1.63-2.91-1.63-1.47,1.63-2.93,1.63-1.47-1.63-2.93-1.63"/><line class="cls-2" x1="95.8" y1="94.35" x2="92.69" y2="94.35"/></svg>