<svg width="34" height="34" viewBox="0 0 34 34" fill="none" xmlns="http://www.w3.org/2000/svg">
<circle cx="17" cy="17" r="17" fill="#F2F5F9"/>
<path d="M16.1 15.2H17.9C19.1728 15.2 19.8092 15.2 20.2046 15.5954C20.6 15.9908 20.6 16.6272 20.6 17.9V23.3C20.6 22.0272 20.6 21.3908 20.9954 20.9954C21.3908 20.6 22.0272 20.6 23.3 20.6C24.5728 20.6 25.2092 20.6 25.6046 20.9954C26 21.3908 26 22.0272 26 23.3V26H20.6H13.4H8C8 24.7272 8 24.0908 8.39541 23.6954C8.79081 23.3 9.42721 23.3 10.7 23.3C11.9728 23.3 12.6092 23.3 13.0046 23.6954C13.4 24.0908 13.4 24.7272 13.4 26V17.9C13.4 16.6272 13.4 15.9908 13.7954 15.5954C14.1908 15.2 14.8272 15.2 16.1 15.2Z" fill="#0341A3"/>
<path d="M16.2314 8.92026C16.5733 8.30675 16.7443 8 17 8C17.2557 8 17.4267 8.30675 17.7686 8.92026L17.8571 9.07898C17.9543 9.25332 18.0029 9.34049 18.0787 9.39801C18.1544 9.45552 18.2488 9.47687 18.4375 9.51957L18.6093 9.55845C19.2734 9.70871 19.6055 9.78384 19.6845 10.0379C19.7635 10.2919 19.5371 10.5566 19.0844 11.0861L18.9672 11.223C18.8386 11.3735 18.7743 11.4487 18.7453 11.5418C18.7164 11.6348 18.7261 11.7352 18.7456 11.9359L18.7633 12.1187C18.8317 12.8251 18.8659 13.1782 18.6591 13.3353C18.4523 13.4923 18.1414 13.3491 17.5196 13.0628L17.3587 12.9887C17.182 12.9074 17.0936 12.8667 17 12.8667C16.9063 12.8667 16.818 12.9074 16.6413 12.9887L16.4804 13.0628C15.8586 13.3491 15.5477 13.4923 15.3409 13.3353C15.1341 13.1782 15.1683 12.8251 15.2367 12.1187L15.2544 11.9359C15.2739 11.7352 15.2836 11.6348 15.2547 11.5418C15.2257 11.4487 15.1614 11.3735 15.0328 11.2231L14.9156 11.0861C14.4629 10.5566 14.2365 10.2919 14.3155 10.0379C14.3945 9.78384 14.7266 9.70871 15.3907 9.55845L15.5625 9.51957C15.7512 9.47687 15.8456 9.45552 15.9213 9.39801C15.9971 9.34049 16.0457 9.25332 16.1429 9.07898L16.2314 8.92026Z" fill="#0341A3"/>
<path d="M20.6 26V23.3C20.6 22.0272 20.6 21.3908 20.9954 20.9954C21.3908 20.6 22.0272 20.6 23.3 20.6C24.5728 20.6 25.2092 20.6 25.6046 20.9954C26 21.3908 26 22.0272 26 23.3V26H20.6H13.4H8C8 24.7272 8 24.0908 8.39541 23.6954C8.79081 23.3 9.42721 23.3 10.7 23.3C11.9728 23.3 12.6092 23.3 13.0046 23.6954C13.4 24.0908 13.4 24.7272 13.4 26H20.6Z" fill="#0341A3"/>
<path d="M16.2321 8.92026C16.5741 8.30675 16.7451 8 17.0008 8C17.2564 8 17.4274 8.30675 17.7694 8.92026L17.8579 9.07898C17.9551 9.25332 18.0037 9.34049 18.0794 9.39801C18.1552 9.45552 18.2496 9.47687 18.4383 9.51957L18.6101 9.55845C19.2742 9.70871 19.6063 9.78384 19.6853 10.0379C19.7643 10.2919 19.5379 10.5566 19.0852 11.0861L18.968 11.223C18.8394 11.3735 18.775 11.4487 18.7461 11.5418C18.7172 11.6348 18.7269 11.7352 18.7463 11.9359L18.764 12.1187C18.8325 12.8251 18.8667 13.1782 18.6599 13.3353C18.4531 13.4923 18.1422 13.3491 17.5203 13.0628L17.3595 12.9887C17.1828 12.9074 17.0944 12.8667 17.0008 12.8667C16.9071 12.8667 16.8188 12.9074 16.6421 12.9887L16.4812 13.0628C15.8594 13.3491 15.5485 13.4923 15.3417 13.3353C15.1348 13.1782 15.1691 12.8251 15.2375 12.1187L15.2552 11.9359C15.2747 11.7352 15.2844 11.6348 15.2555 11.5418C15.2265 11.4487 15.1622 11.3735 15.0335 11.2231L14.9164 11.0861C14.4637 10.5566 14.2373 10.2919 14.3163 10.0379C14.3953 9.78384 14.7273 9.70871 15.3915 9.55845L15.5633 9.51957C15.752 9.47687 15.8464 9.45552 15.9221 9.39801C15.9979 9.34049 16.0465 9.25332 16.1437 9.07898L16.2321 8.92026Z" fill="#0341A3"/>
</svg>
