<svg width="18" height="18" viewBox="0 0 18 18" fill="none" xmlns="http://www.w3.org/2000/svg">
<path d="M16.0621 17.2183C14.1077 19.1726 9.10282 17.3363 4.88327 13.1167C0.663724 8.89718 -1.17261 3.89227 0.781703 1.93795L2.06847 0.651183C2.9568 -0.237144 4.42054 -0.213662 5.33784 0.703631L7.33092 2.69672C8.24822 3.61401 8.2717 5.07776 7.38337 5.96609L7.10699 6.24247C6.62737 6.72209 6.58045 7.49581 7.0261 8.03587C7.45597 8.55679 7.9194 9.07565 8.42188 9.57812C8.92435 10.0806 9.44321 10.544 9.96413 10.9739C10.5042 11.4196 11.2779 11.3726 11.7575 10.893L12.0339 10.6166C12.9222 9.7283 14.386 9.75178 15.3033 10.6691L17.2964 12.6622C18.2137 13.5795 18.2371 15.0432 17.3488 15.9315L16.0621 17.2183Z" fill="#1C1C1C"/>
</svg>
