<svg width="47" height="65" viewBox="0 0 47 65" fill="none" xmlns="http://www.w3.org/2000/svg">
<g clip-path="url(#clip0_1565_5386)">
<path d="M38.709 61.2063L37.515 60.5143L36.918 60.1751L31.2465 56.9188L27.6103 62.346L27.2304 62.9159L26.457 64.0556C26.1721 64.4762 25.5344 64.3541 25.4123 63.8657L23.974 57.7464L23.7162 56.6338L22.2644 50.4332L22.0609 49.5377L20.0664 41.0441L21.8438 40.6234L23.8248 41.0712L25.6972 40.6506L34.4351 38.6968L36.009 45.4401L36.2803 46.5934L39.5502 60.5686C39.6724 61.0706 39.1432 61.4641 38.709 61.2063Z" fill="#E1E1E3"/>
<path d="M31.791 38.3169L36.9062 60.1752L37.5032 60.528L32.2795 38.1948L31.791 38.3169Z" fill="#B3B2B8"/>
<path d="M21.9961 40.6099L27.2198 62.9295L27.5997 62.3596L22.4845 40.4878L21.9961 40.6099Z" fill="#B3B2B8"/>
<path d="M27.8816 41.0575L25.9007 49.5512L24.2318 56.6609L23.974 57.7599L23.7162 56.6609L22.0609 49.5512L20.0664 41.0575L23.7162 40.2027L23.974 40.1484L24.2318 40.2027L27.8816 41.0575Z" fill="#B3B2B8"/>
<path d="M27.3672 41.0573L25.3863 49.551L25.1692 50.46L23.7174 56.6607L22.0214 63.8925C21.9128 64.3809 21.2616 64.503 20.9766 64.0824L20.2032 62.9427L19.8233 62.3729L16.1871 56.9456L10.5156 60.202L9.9186 60.5412L8.72461 61.2331C8.29043 61.4909 7.76127 61.0974 7.86981 60.5954L11.1669 46.5388L11.3975 45.5212L12.9986 38.6558L21.8314 40.6367L23.8124 41.0845L25.6848 40.6638L27.3672 41.0573Z" fill="#E1E1E3"/>
<path d="M15.6458 38.3169L10.5306 60.1752L9.93359 60.528L15.1573 38.1948L15.6458 38.3169Z" fill="#B3B2B8"/>
<path d="M25.4415 40.6099L20.2178 62.9295L19.8379 62.3596L24.9531 40.4878L25.4415 40.6099Z" fill="#B3B2B8"/>
<path d="M45.8779 27.6656C46.1764 28.3711 46.3527 29.0631 46.1764 29.7008C46.0135 30.3114 45.5522 30.7998 44.9688 31.234C44.3175 31.736 43.9783 32.5366 44.0869 33.3506C44.1818 34.0562 44.1683 34.7075 43.8562 35.2366C43.5306 35.8065 42.9064 36.1728 42.1873 36.4442C41.4139 36.7427 40.8576 37.4618 40.7627 38.2894C40.6813 39.0493 40.4913 39.7277 40.03 40.189C39.5822 40.6232 38.9581 40.8131 38.239 40.9081C37.4249 41.0031 36.7194 41.5458 36.4073 42.3056C36.1359 42.9704 35.7832 43.5267 35.254 43.8388C34.6841 44.1644 33.9786 44.1644 33.2188 44.0559C32.3911 43.9338 31.5635 44.273 31.0615 44.9378C30.6001 45.562 30.0981 46.0504 29.4604 46.2268C28.8634 46.3896 28.2257 46.2268 27.5744 45.9554C26.8282 45.6298 25.9463 45.7383 25.295 46.2404C24.7251 46.6881 24.1281 46.9866 23.4904 46.9866C22.8256 46.9866 22.2015 46.6474 21.6045 46.1725C20.9668 45.6569 20.0848 45.5484 19.325 45.8605C18.6195 46.159 17.9275 46.3353 17.2898 46.159C16.6792 45.9961 16.1908 45.5348 15.7566 44.9514C15.2682 44.3001 14.4541 43.9609 13.64 44.0695C12.9344 44.1644 12.2832 44.1373 11.754 43.8388C11.3877 43.6353 11.1163 43.3096 10.8992 42.9162C10.7635 42.6855 10.655 42.4413 10.5464 42.1699C10.2479 41.3965 9.52884 40.8402 8.70118 40.7453C7.94137 40.6639 7.26296 40.4739 6.80164 39.999C6.36746 39.5513 6.17751 38.9271 6.0961 38.208C6.02826 37.6246 5.74333 37.109 5.30915 36.7427C5.13276 36.5934 4.92924 36.4713 4.69858 36.3763C4.03374 36.105 3.47745 35.7522 3.16538 35.223C2.83975 34.6532 2.83975 33.9476 2.94829 33.1878C3.07041 32.3602 2.7312 31.5325 2.06637 31.0305C1.44223 30.5692 0.953779 30.0672 0.777393 29.4159C0.628144 28.8189 0.777393 28.1948 1.04876 27.5299C1.37439 26.7701 1.26585 25.9017 0.763825 25.2505C0.329645 24.6806 0.0175781 24.0836 0.0175781 23.4459C0.0175781 22.7811 0.356781 22.1569 0.845234 21.5599C1.36082 20.9087 1.46937 20.0403 1.1573 19.2805C0.858802 18.5749 0.682417 17.883 0.858802 17.2453C1.02162 16.6347 1.48294 16.1463 2.06637 15.7121C2.71764 15.2101 3.05684 14.4095 2.94829 13.5954C2.85332 12.8899 2.86689 12.2386 3.17895 11.7095C3.50459 11.1396 4.12872 10.7733 4.84783 10.5019C5.62122 10.2034 6.17751 9.4843 6.27249 8.65664C6.3539 7.89683 6.54385 7.21842 7.00517 6.75711C7.45291 6.32293 8.07705 6.13297 8.79616 6.03799C9.61025 5.94302 10.3158 5.40029 10.6279 4.64048C10.8992 3.97564 11.252 3.41935 11.7811 3.10728C12.351 2.78164 13.0566 2.78164 13.8164 2.89019C14.644 3.0123 15.4717 2.6731 15.9737 2.00826C16.435 1.38413 16.937 0.895674 17.5747 0.719288C18.1717 0.55647 18.8094 0.719288 19.4607 0.990651C20.207 1.31629 21.0889 1.20774 21.7402 0.70572C22.31 0.257972 22.907 -0.0405273 23.5447 -0.0405273C24.2096 -0.0405273 24.8337 0.298676 25.4307 0.77356C25.5528 0.868537 25.6749 0.949946 25.8106 1.01779C26.394 1.31629 27.086 1.34342 27.7101 1.08563C28.4157 0.787129 29.1076 0.610743 29.7453 0.787129C30.3559 0.949946 30.8444 1.41126 31.2785 1.99469C31.767 2.64596 32.5811 2.98517 33.3952 2.87662C34.0736 2.78164 34.6977 2.79521 35.2133 3.06657C35.2404 3.08014 35.2676 3.09371 35.2947 3.10728C35.8646 3.43291 36.2309 4.05705 36.5023 4.77616C36.8008 5.54954 37.5199 6.10584 38.3475 6.20081C39.1074 6.28222 39.7858 6.47218 40.2471 6.94706C40.6813 7.39481 40.8712 8.01894 40.9526 8.73805C41.0476 9.55214 41.5903 10.2577 42.3501 10.5698C43.015 10.8411 43.5713 11.1939 43.8833 11.723C44.209 12.2929 44.209 12.9984 44.1004 13.7583C43.9783 14.5859 44.3175 15.4136 44.9824 15.9156C45.6065 16.3769 46.0949 16.8789 46.2713 17.5302C46.4206 18.1272 46.2713 18.7513 46 19.4162C45.6743 20.176 45.7829 21.0443 46.2849 21.6956C46.7191 22.2655 47.0312 22.8625 47.0312 23.5002C47.0312 24.165 46.6919 24.7892 46.2035 25.3862C45.6743 26.0374 45.5522 26.9058 45.8779 27.6656Z" fill="#B3B2B8"/>
<path opacity="0.2" d="M25.7833 1.07188C20.9802 9.09065 9.94934 28.4117 5.29548 36.7832C5.11909 36.6339 4.91557 36.5118 4.68491 36.4169C4.02007 36.1455 3.46378 35.7927 3.15171 35.2636C2.82608 34.6937 2.82608 33.9882 2.93462 33.2283C3.05674 32.4007 2.71753 31.573 2.05269 31.071C1.42856 30.6097 0.940107 30.1077 0.763721 29.4564C0.614472 28.8594 0.763721 28.2353 1.03508 27.5704C1.36072 26.8106 1.25217 25.9423 0.750153 25.291C0.315973 24.7211 0.00390625 24.1241 0.00390625 23.4864C0.00390625 22.8216 0.343109 22.1975 0.831562 21.6005C1.34715 20.9492 1.4557 20.0808 1.14363 19.321C0.84513 18.6155 0.668745 17.9235 0.84513 17.2858C1.00795 16.6752 1.46926 16.1868 2.05269 15.7526C2.70396 15.2506 3.04317 14.4501 2.93462 13.636C2.83965 12.9304 2.85321 12.2792 3.16528 11.75C3.49092 11.1801 4.11505 10.8138 4.83416 10.5424C5.60754 10.2439 6.16384 9.52483 6.25881 8.69717C6.34022 7.93736 6.53018 7.25895 6.99149 6.79763C7.43924 6.36345 8.06337 6.1735 8.78249 6.07852C9.59657 5.98354 10.3021 5.44082 10.6142 4.681C10.8855 4.01617 11.2383 3.45987 11.7675 3.14781C12.3373 2.82217 13.0429 2.82217 13.8027 2.93072C14.6303 3.05283 15.458 2.71363 15.96 2.04879C16.4213 1.42465 16.9234 0.936201 17.5611 0.759815C18.1581 0.596998 18.7958 0.759815 19.447 1.03118C20.1933 1.35681 21.0752 1.24827 21.7265 0.746247C22.2963 0.298499 22.8933 0 23.531 0C24.1959 0 24.82 0.339203 25.417 0.814088C25.512 0.922633 25.6477 1.00404 25.7833 1.07188Z" fill="white"/>
<path d="M36.7427 36.7398C44.0548 29.4276 44.0548 17.5724 36.7427 10.2602C29.4306 2.94813 17.5753 2.94813 10.2632 10.2602C2.95108 17.5724 2.95108 29.4276 10.2632 36.7398C17.5753 44.0519 29.4306 44.0519 36.7427 36.7398Z" fill="#FFD745"/>
<path d="M44.6004 26.6477C44.6682 26.105 44.4647 25.5487 44.1526 25.0195C43.7999 24.409 43.7999 23.6492 44.1662 23.025C44.4783 22.4959 44.6818 21.9667 44.6139 21.4375C44.5461 20.8677 44.1662 20.3792 43.6913 19.9044C43.1757 19.4023 42.9722 18.6425 43.1757 17.9505C43.3657 17.3128 43.4471 16.7023 43.23 16.1867C43.0265 15.6847 42.5787 15.3183 42.036 15.0198C41.4119 14.6671 41.032 14.0022 41.0455 13.2831C41.0455 12.659 40.9641 12.1027 40.6385 11.6685C40.2993 11.2207 39.7294 10.9765 39.0917 10.8137C38.3862 10.6373 37.8299 10.081 37.6671 9.37548C37.5042 8.72421 37.2736 8.15435 36.8123 7.80158C36.3917 7.47595 35.8354 7.38097 35.2112 7.39454C34.5057 7.39454 33.8409 7.01463 33.4881 6.40406C33.176 5.86134 32.8097 5.41359 32.2941 5.1965C31.7649 4.96584 31.1408 5.03368 30.5031 5.22364C29.8111 5.41359 29.0784 5.21007 28.5764 4.70805C28.1151 4.23316 27.6131 3.86682 27.0432 3.78541C26.5005 3.71757 25.9442 3.9211 25.415 4.23316C24.8045 4.58593 24.0447 4.58593 23.4205 4.21959C22.8914 3.90753 22.3622 3.70401 21.8331 3.77185C21.2632 3.83969 20.7747 4.21959 20.2999 4.69448C19.7978 5.21007 19.038 5.41359 18.346 5.21007C17.7083 5.02011 17.0978 4.93871 16.5822 5.1558C16.0802 5.35932 15.7138 5.80707 15.4153 6.34979C15.0626 6.97393 14.3977 7.35383 13.6786 7.34026C13.0545 7.34026 12.4982 7.42167 12.064 7.74731C11.6163 8.08651 11.372 8.65637 11.2092 9.29408C11.0328 9.99962 10.4765 10.5559 9.77099 10.7187C9.11972 10.8815 8.54986 11.1122 8.19709 11.5735C7.87145 11.9941 7.77648 12.5504 7.79005 13.1746C7.79005 13.8801 7.41014 14.5449 6.79957 14.8977C6.25685 15.2098 5.8091 15.5761 5.59201 16.0917C5.36135 16.6209 5.42919 17.245 5.61914 17.8827C5.8091 18.5747 5.60558 19.3074 5.10356 19.8094C4.62867 20.2707 4.26233 20.7727 4.18092 21.3426C4.11308 21.8853 4.3166 22.4416 4.62867 22.9707C4.98144 23.5813 4.98144 24.3411 4.6151 24.9653C4.30304 25.4944 4.09951 26.0236 4.16735 26.5527C4.2352 27.1226 4.6151 27.611 5.08999 28.0859C5.60558 28.588 5.8091 29.3478 5.60558 30.0397C5.41562 30.6774 5.33421 31.288 5.5513 31.8036C5.75483 32.3056 6.20257 32.672 6.7453 32.9705C7.36943 33.3232 7.74934 33.9881 7.73577 34.7072C7.73577 35.3313 7.81718 35.8876 8.14282 36.3218C8.48202 36.7695 9.05188 37.0138 9.68958 37.1766C10.3951 37.353 10.9514 37.9093 11.1142 38.6148C11.2771 39.2661 11.5077 39.8359 11.969 40.1887C12.3896 40.5143 12.9459 40.6093 13.5701 40.5957C14.2756 40.5957 14.9404 40.9757 15.2932 41.5862C15.6053 42.1289 15.9716 42.5767 16.4872 42.7938C17.0164 43.0244 17.6405 42.9566 18.2782 42.7667C18.9702 42.5767 19.7029 42.7802 20.2049 43.2822C20.6662 43.7571 21.1682 44.1235 21.7381 44.2049C22.2808 44.2727 22.8371 44.0692 23.3663 43.7571C23.9768 43.4044 24.7366 43.4044 25.3608 43.7707C25.8899 44.0828 26.4191 44.2863 26.9482 44.2184C27.5181 44.1506 28.0066 43.7707 28.4814 43.2958C28.9835 42.7802 29.7433 42.5767 30.4353 42.7802C31.073 42.9702 31.6835 43.0516 32.1991 42.8345C32.7011 42.631 33.0675 42.1832 33.366 41.6405C33.7187 41.0164 34.3836 40.6365 35.1027 40.65C35.7268 40.65 36.2831 40.5686 36.7173 40.243C37.165 39.9038 37.4093 39.3339 37.5721 38.6962C37.7485 37.9907 38.3048 37.4344 39.0103 37.2716C39.6616 37.1087 40.2314 36.8781 40.5842 36.4168C40.9099 35.9962 41.0048 35.4399 40.9913 34.8157C40.9913 34.1102 41.3712 33.4453 41.9817 33.0926C42.5245 32.7805 42.9722 32.4142 43.1893 31.8986C43.42 31.3694 43.3521 30.7453 43.1622 30.1076C42.9722 29.4156 43.1757 28.6829 43.6777 28.1809C44.1526 27.7196 44.519 27.2311 44.6004 26.6477Z" fill="#A3939A"/>
<path d="M43.2716 24.5178C43.5836 25.0605 43.7872 25.6032 43.7193 26.146C43.6379 26.7158 43.2716 27.2178 42.7967 27.6792C42.2811 28.1812 42.0776 28.9139 42.2811 29.6058C42.4575 30.2435 42.5253 30.8541 42.3082 31.3968C42.0911 31.9124 41.6434 32.2788 41.1007 32.5908C40.4765 32.9436 40.0966 33.6084 40.1102 34.314C40.1102 34.9245 40.0152 35.4944 39.7031 35.915C39.3504 36.3763 38.7805 36.607 38.1292 36.7698C37.4237 36.9462 36.8674 37.4889 36.691 38.1945C36.5282 38.8457 36.2976 39.402 35.8362 39.7412C35.4021 40.0669 34.8458 40.1618 34.2216 40.1483C33.5025 40.1483 32.8512 40.5282 32.4849 41.1387C32.1728 41.6815 31.8201 42.1157 31.318 42.3327C30.7889 42.5498 30.1919 42.4684 29.5542 42.2785C28.8622 42.075 28.1024 42.2785 27.6004 42.7941C27.1391 43.2689 26.637 43.6489 26.0672 43.7167C25.538 43.7845 25.0089 43.581 24.4797 43.2689C23.8691 42.9026 23.1093 42.9026 22.4852 43.2554C21.9425 43.5674 21.3997 43.771 20.857 43.7031C20.2872 43.6217 19.7851 43.2554 19.3238 42.7805C18.8218 42.2649 18.0891 42.0614 17.3971 42.2649C16.7594 42.4413 16.1489 42.5091 15.6061 42.292C15.0906 42.075 14.7242 41.6272 14.4122 41.0845C14.0594 40.4739 13.4081 40.094 12.689 40.094C12.0649 40.094 11.5086 39.999 11.088 39.687C10.6402 39.3342 10.396 38.7643 10.2332 38.1131C10.1382 37.706 9.90754 37.3532 9.60904 37.0954C9.37838 36.9055 9.10702 36.7562 8.80852 36.6748C8.15725 36.512 7.60095 36.2814 7.26175 35.82C6.93611 35.3859 6.84114 34.8296 6.85471 34.2054C6.85471 34.1376 6.85471 34.0698 6.84114 34.0019C6.78687 33.3642 6.42053 32.7943 5.85066 32.4823C5.30794 32.1702 4.87376 31.8039 4.65667 31.3154C4.43958 30.7998 4.52099 30.1893 4.69737 29.5516C4.90089 28.8596 4.69737 28.0998 4.18178 27.5978C3.7069 27.1364 3.32699 26.6344 3.25915 26.0646C3.19131 25.5354 3.39483 25.0062 3.7069 24.4771C4.07324 23.8665 4.07324 23.1067 3.72047 22.4961C3.4084 21.9534 3.20488 21.4107 3.27272 20.868C3.35413 20.2981 3.72047 19.7961 4.19535 19.3348C4.71094 18.8327 4.91446 18.1001 4.71094 17.4081C4.53456 16.7704 4.46671 16.1598 4.6838 15.6171C4.90089 15.1015 5.34864 14.7352 5.89137 14.4231C6.50193 14.0703 6.89541 13.4055 6.88184 12.7C6.88184 12.0894 6.97682 11.5195 7.28889 11.0989C7.64166 10.6376 8.21152 10.4069 8.86279 10.2441C9.56833 10.0677 10.1246 9.52501 10.301 8.81947C10.4638 8.1682 10.7081 7.6119 11.1558 7.2727C11.59 6.94706 12.1463 6.85209 12.7704 6.86565C13.4895 6.86565 14.1408 6.48575 14.5071 5.87518C14.8192 5.33246 15.172 4.89828 15.674 4.68119C16.2031 4.4641 16.8001 4.54551 17.4378 4.73546C18.1298 4.93898 18.8896 4.73546 19.3917 4.21987C19.853 3.74499 20.355 3.36508 20.9249 3.29724C21.454 3.2294 21.9832 3.43292 22.5123 3.74499C22.9872 4.02992 23.5571 4.08419 24.0727 3.93494C24.2219 3.89423 24.3712 3.82639 24.5068 3.74499C25.0496 3.43292 25.5923 3.2294 26.135 3.29724C26.6642 3.36508 27.1119 3.67714 27.5461 4.09776C27.5868 4.13846 27.6275 4.17917 27.6682 4.21987C28.1702 4.73546 28.9029 4.93898 29.5949 4.73546C30.2326 4.55907 30.8432 4.49123 31.3859 4.70832C31.9015 4.92541 32.2678 5.37316 32.5799 5.91589C32.9327 6.52645 33.5839 6.91993 34.303 6.90636C34.9272 6.90636 35.4835 7.00134 35.9041 7.3134C36.3518 7.66617 36.596 8.23604 36.7589 8.88731C36.9352 9.59285 37.478 10.1491 38.1835 10.3255C38.8348 10.4883 39.3911 10.719 39.7303 11.1803C40.0559 11.6145 40.1509 12.1708 40.1373 12.7949C40.1238 13.514 40.5172 14.1653 41.1278 14.5316C41.6705 14.8437 42.1047 15.2101 42.3218 15.6985C42.5389 16.2141 42.4575 16.8247 42.2811 17.4624C42.0776 18.1543 42.2811 18.9142 42.7967 19.4162C43.2716 19.8775 43.6515 20.3795 43.7193 20.9494C43.7872 21.4785 43.5836 22.0077 43.2716 22.5368C42.9188 23.1474 42.9188 23.9072 43.2716 24.5178Z" fill="#E1E1E3"/>
<path opacity="0.12" d="M24.0862 3.92137C19.3374 11.9944 11.4543 25.7796 6.84114 34.0019C6.78687 33.3642 6.42053 32.7944 5.85066 32.4823C5.30794 32.1702 4.87376 31.8039 4.65667 31.3154C4.43958 30.7998 4.52099 30.1893 4.69737 29.5516C4.90089 28.8596 4.69737 28.0998 4.18178 27.5978C3.7069 27.1364 3.32699 26.6344 3.25915 26.0646C3.19131 25.5354 3.39483 25.0062 3.7069 24.4771C4.07324 23.8665 4.07324 23.1067 3.72047 22.4961C3.4084 21.9534 3.20488 21.4107 3.27272 20.868C3.35413 20.2981 3.72047 19.7961 4.19535 19.3348C4.71094 18.8327 4.91446 18.1001 4.71094 17.4081C4.53456 16.7704 4.46671 16.1598 4.6838 15.6171C4.90089 15.1015 5.34864 14.7352 5.89137 14.4231C6.50193 14.0703 6.89541 13.4055 6.88184 12.7C6.88184 12.0894 6.97682 11.5195 7.28889 11.0989C7.64166 10.6376 8.21152 10.4069 8.86279 10.2441C9.56833 10.0677 10.1246 9.52501 10.301 8.81947C10.4638 8.1682 10.7081 7.6119 11.1558 7.2727C11.59 6.94706 12.1463 6.85209 12.7704 6.86566C13.4895 6.86566 14.1408 6.48575 14.5071 5.87518C14.8192 5.33246 15.172 4.89828 15.674 4.68119C16.2031 4.4641 16.8001 4.54551 17.4378 4.73546C18.1298 4.93898 18.8896 4.73546 19.3917 4.21987C19.853 3.74499 20.355 3.36508 20.9249 3.29724C21.454 3.2294 21.9832 3.43292 22.5123 3.74499C23.0143 4.00278 23.5706 4.07062 24.0862 3.92137Z" fill="white"/>
<path d="M23.5014 38.8998C32.0065 38.8998 38.9012 32.005 38.9012 23.4999C38.9012 14.9948 32.0065 8.1001 23.5014 8.1001C14.9963 8.1001 8.10156 14.9948 8.10156 23.4999C8.10156 32.005 14.9963 38.8998 23.5014 38.8998Z" fill="#B3B2B8"/>
<path d="M33.8237 33.9116C39.2972 28.4381 39.2972 19.5638 33.8237 14.0903C28.3502 8.61686 19.4759 8.61686 14.0024 14.0903C8.52894 19.5638 8.52894 28.4381 14.0024 33.9116C19.4759 39.3851 28.3502 39.3851 33.8237 33.9116Z" fill="#A3939A"/>
<path d="M37.5181 23.4997C37.5181 31.2471 31.236 37.5155 23.5022 37.5155C22.471 37.5155 21.4806 37.407 20.5172 37.1899C19.581 36.9864 18.6855 36.6879 17.8307 36.308C17.3694 36.1045 16.9081 35.8738 16.4739 35.616C16.1347 35.426 15.8091 35.2225 15.497 34.9919C14.9814 34.6391 14.493 34.2456 14.0317 33.8114C13.9367 33.73 13.8553 33.6486 13.7603 33.5536C13.5703 33.3637 13.3804 33.1737 13.204 32.9838C12.8784 32.631 12.5663 32.2511 12.2678 31.8712C11.5758 30.9486 10.9924 29.9445 10.5582 28.8591C10.4361 28.5741 10.3276 28.2756 10.2326 27.9907C9.75769 26.5796 9.48633 25.06 9.48633 23.4861C9.48633 16.7156 14.2894 11.0577 20.68 9.75515C20.9514 9.70087 21.2228 9.6466 21.4941 9.61946C21.7112 9.59233 21.9147 9.56519 22.1318 9.53806C22.5796 9.49735 23.0409 9.47021 23.5022 9.47021C23.855 9.47021 24.1942 9.48378 24.5334 9.51092C24.8997 9.53805 25.2525 9.57876 25.6053 9.63303C26.0259 9.70087 26.4329 9.78228 26.84 9.87726C26.8807 9.89083 26.9214 9.89083 26.9621 9.90439C27.3556 10.0129 27.749 10.1215 28.1425 10.2572C28.6445 10.4336 29.1465 10.6371 29.6214 10.8677C30.0556 11.0713 30.4762 11.3019 30.8833 11.5597C34.8587 14.0427 37.5181 18.4659 37.5181 23.4997Z" fill="#E1E1E3"/>
<path opacity="0.12" d="M20.6799 9.76904C17.3693 15.4677 13.4888 22.2517 10.2189 28.0182C9.74402 26.6071 9.47266 25.0875 9.47266 23.5136C9.48622 16.7295 14.2893 11.0716 20.6799 9.76904Z" fill="white"/>
</g>
<defs>
<clipPath id="clip0_1565_5386">
<rect width="47" height="64.3265" fill="white"/>
</clipPath>
</defs>
</svg>
