<svg width="34" height="34" viewBox="0 0 34 34" fill="none" xmlns="http://www.w3.org/2000/svg">
<circle cx="17" cy="17" r="17" fill="#F2F5F9"/>
<g clip-path="url(#clip0_1390_3183)">
<path d="M8.5625 22.625C8.5625 23.3622 8.58982 23.8724 8.6257 24.2263C8.70139 24.9728 9.30025 25.4004 9.95609 25.4225C10.2138 25.4311 10.5548 25.4375 11 25.4375C11.4452 25.4375 11.7862 25.4311 12.0439 25.4225C12.6998 25.4004 13.2986 24.9728 13.3743 24.2263C13.4102 23.8724 13.4375 23.3622 13.4375 22.625C13.4375 21.8878 13.4102 21.3776 13.3743 21.0237C13.2986 20.2772 12.6998 19.8496 12.0439 19.8275C11.7862 19.8189 11.4452 19.8125 11 19.8125C10.5548 19.8125 10.2138 19.8189 9.95609 19.8275C9.30024 19.8496 8.70139 20.2772 8.6257 21.0237C8.58982 21.3776 8.5625 21.8878 8.5625 22.625Z" fill="#0341A3"/>
<path d="M20.5625 20C20.5625 22.1323 20.6119 23.3428 20.6613 24.0222C20.7162 24.7758 21.2668 25.3639 22.0496 25.4118C22.2987 25.4271 22.6111 25.4375 23 25.4375C23.3889 25.4375 23.7013 25.4271 23.9504 25.4118C24.7332 25.3639 25.2838 24.7758 25.3387 24.0222C25.3881 23.3428 25.4375 22.1323 25.4375 20C25.4375 17.8677 25.3881 16.6572 25.3387 15.9778C25.2838 15.2242 24.7332 14.6361 23.9504 14.5881C23.7013 14.5729 23.3889 14.5625 23 14.5625C22.6111 14.5625 22.2987 14.5729 22.0496 14.5881C21.2668 14.6361 20.7162 15.2242 20.6613 15.9778C20.6119 16.6572 20.5625 17.8677 20.5625 20Z" fill="#0341A3"/>
<path d="M14.5625 21.5C14.5625 22.7793 14.5995 23.5865 14.6422 24.0941C14.7068 24.862 15.2948 25.3864 16.0376 25.419C16.2863 25.4299 16.6022 25.4375 17 25.4375C17.3978 25.4375 17.7137 25.4299 17.9624 25.419C18.7052 25.3864 19.2932 24.862 19.3578 24.094C19.4005 23.5865 19.4375 22.7793 19.4375 21.5C19.4375 20.2207 19.4005 19.4135 19.3578 18.906C19.2932 18.138 18.7052 17.6136 17.9624 17.581C17.7137 17.5701 17.3978 17.5625 17 17.5625C16.6022 17.5625 16.2863 17.5701 16.0376 17.581C15.2948 17.6136 14.7068 18.138 14.6422 18.906C14.5995 19.4135 14.5625 20.2207 14.5625 21.5Z" fill="#0341A3"/>
<path d="M23.8143 8.57174C23.2832 8.5496 22.1645 8.54674 20.8911 8.80797C20.1398 8.96208 19.9363 9.86514 20.4345 10.3634L21.1064 11.0353C20.8922 11.2296 20.6159 11.4844 20.3036 11.7819C19.5767 12.4744 18.6427 13.4101 17.8419 14.3615C17.8317 14.3735 17.8132 14.3848 17.7849 14.384C17.7718 14.3836 17.7624 14.3805 17.7574 14.3779C17.7536 14.376 17.751 14.374 17.7478 14.3695C17.4075 13.8933 16.9569 13.2827 16.4798 12.6925C16.0168 12.1199 15.1889 11.9724 14.5577 12.4003C13.6552 13.0121 11.7814 14.4222 9.68543 16.8192C9.55817 16.9647 9.43009 17.1139 9.30136 17.2668C9.03453 17.5836 9.07506 18.0567 9.39188 18.3236C9.70871 18.5904 10.1818 18.5498 10.4487 18.233C10.5714 18.0873 10.6934 17.9452 10.8146 17.8066C12.77 15.5705 14.5094 14.2509 15.3471 13.6775C15.7866 14.2236 16.2052 14.7907 16.5274 15.2416C17.1268 16.0805 18.3512 16.0857 18.9895 15.3275C19.7396 14.4362 20.6293 13.5434 21.3382 12.8679C21.6676 12.5541 21.9554 12.2897 22.1684 12.0972L22.887 12.8159C23.3852 13.3141 24.2883 13.1105 24.4424 12.3593C24.7036 11.0858 24.7008 9.96713 24.6786 9.43608C24.659 8.96529 24.2851 8.59137 23.8143 8.57174Z" fill="#0341A3"/>
</g>
<defs>
<clipPath id="clip0_1390_3183">
<rect width="18" height="18" fill="white" transform="translate(8 8)"/>
</clipPath>
</defs>
</svg>
